<?xml version="1.0" standalone="no"?>
<!DOCTYPE svg PUBLIC "-//W3C//DTD SVG 1.1//EN" "http://www.w3.org/Graphics/SVG/1.1/DTD/svg11.dtd" >
<svg xmlns="http://www.w3.org/2000/svg">
<metadata></metadata>
<defs>
<font id="lemiesz_exregular" horiz-adv-x="1024" >
<font-face units-per-em="2048" ascent="1638" descent="-410" />
<missing-glyph horiz-adv-x="956" />
<glyph horiz-adv-x="2048" />
<glyph horiz-adv-x="2048" />
<glyph unicode="&#xd;" horiz-adv-x="2048" />
<glyph unicode=" "  horiz-adv-x="956" />
<glyph unicode="&#x09;" horiz-adv-x="956" />
<glyph unicode="&#xa0;" horiz-adv-x="956" />
<glyph unicode="!" horiz-adv-x="811" d="M68 152v13v13q2 25 7 50.5t11 47.5q-8 10 -12 22.5t-4 27.5q0 8 1 17t3 17v6.5t2 4.5q0 10 2 21t2 22v12t-4 12q2 8 2 16.5v16.5v8v8v16.5v16.5q0 29 8 53.5t41 32.5h16.5h16.5h25.5h25.5q14 -2 26.5 -2h24.5q27 0 52.5 3t50.5 11q10 4 21 5.5t22 1.5q20 0 39.5 -5.5 t37.5 -9.5q6 -4 14.5 -6t16.5 -4q10 -2 20.5 -4t20.5 -2q14 2 29.5 6t31.5 16q4 -2 8.5 -3t8.5 -1q2 0 3 -1t3 -1q10 -2 19.5 -5t15.5 -11q16 -20 21 -41t5 -43q0 -14 -2 -30.5t-4 -30.5l-4 -32t-2 -32q0 -18 4 -35.5t15 -34.5q-4 -20 -6.5 -41.5t-2.5 -44.5q0 -16 1 -32.5 t4 -30.5q0 -16 1 -31.5t1 -32.5q0 -16 -1 -33.5t-6 -33.5q-8 -10 -21 -15.5t-30 -5.5h-5h-5q-6 2 -11 3t-10 3q-6 4 -12 7.5t-10 3.5q-6 2 -12 3t-13 1q-16 0 -31.5 -5t-29.5 -12q-6 -4 -12 -6t-13 -4q-10 -4 -21 -6t-22 -2q-6 0 -11 1t-11 3t-11.5 5t-11.5 7 q-20 -8 -39.5 -12t-40.5 -4q-18 0 -37.5 2t-39.5 6l-40 4t-38 2h-13.5t-15.5 -2q-8 0 -15 -2l-14 -4q-20 29 -28 67t-8 79zM92 1467.5v11.5q0 16 6 32.5t15 32.5q20 12 41.5 16.5t42.5 4.5q12 0 24 -1t25 -3q16 0 31.5 -1t29.5 -1q16 0 30.5 2t29.5 8q10 2 18 3t16 1 q16 0 33 -3t33 -5q16 -4 34.5 -7.5t35.5 -3.5q6 0 13 1t13 4q6 0 13.5 3t13.5 5q8 2 15 2h13q31 0 57.5 -11.5t35.5 -39.5q2 -12 2 -24.5v-23.5q0 -43 -7.5 -81.5t-15.5 -77.5q-2 -6 -3 -14.5t-3 -16.5q-6 -29 -11 -59.5t-5 -63.5q0 -12 1 -24.5t3 -24.5q-23 -27 -37 -56.5 t-27 -60.5v-3t-2 -3q-16 -47 -39.5 -90t-77.5 -72v-3v-1v-3v-3q0 -39 -23.5 -71.5t-57.5 -51.5q-41 2 -53.5 26.5t-20.5 55.5q0 2 -1 5t-1 7q-4 20 -12.5 40t-26.5 34q2 6 2 12.5v12.5q0 12 -3 23.5t-5 21.5q-2 4 -3 7t-1 5q-4 10 -7.5 19.5t-5.5 21.5q-35 29 -51 71t-31 87 q-6 20 -11 38.5t-13 36.5q-14 23 -18.5 47.5t-4.5 51.5v3v3q-2 33 -7 63.5t-32 55.5q-2 6 -4 11t-4 9t-2 9.5z" />
<glyph unicode="&#x22;" d="M72 1563q0 8 1 16t5 16q0 4 1 9.5t1 7.5q4 8 7 10t9 2h1h1l2 -2q2 0 3 -1t1 -3q8 -8 15.5 -13.5t17.5 -0.5q8 12 19.5 15t23.5 3h3h3h9.5t9.5 2h1h3q4 0 7 -2t7 -4v-2h2q2 -4 4 -5t4 -3q25 8 48.5 14t48.5 6h9t9 -2q4 -12 11.5 -16t17.5 -4q4 0 9 2t11 2h2q2 2 4.5 2h4.5 v1t2 1h2q6 0 10 -6t4 -15v-3v-1v-3v-1v-14t2 -15v-15v-13q0 -10 -1 -20.5t-9 -20.5q8 -16 13 -33.5t9 -34.5q2 -8 2 -16v-17q0 -14 -2 -27t-8 -26q14 -16 18.5 -37.5t6.5 -42.5v-2v-2q4 -18 7 -37.5t15 -35.5q-2 -12 -7 -21.5t-19 -11.5h-3h-4q0 -2 -2 -2h-2q-25 0 -37 14 t-22 33q-10 16 -23.5 31.5t-37.5 15.5h-4.5h-4.5q-6 12 -16 22.5t-21 20.5v2q-14 12 -26 25.5t-14 31.5q-16 16 -35 25.5t-37 15.5q-6 14 -15.5 28.5t-19.5 27.5q-4 4 -5 7t-5 7q-14 18 -24.5 37.5t-10.5 42.5v2q-6 6 -9 14t-3 19zM522 1563q0 8 1 16t5 16q0 4 1 9.5t1 7.5 q4 8 7.5 10t9.5 2h1h1l2 -2q2 0 3 -1t1 -3q8 -8 15.5 -13.5t17.5 -0.5q8 12 19 15t24 3h3h3h9t9 2h1h3q4 0 7.5 -2t7.5 -4v-2h2q2 -4 4 -5t4 -3q25 8 48.5 14t47.5 6h9.5t9.5 -2q4 -12 11 -16t17 -4q4 0 9.5 2t11.5 2h2q2 2 4 2h4v1t2 1h2q6 0 10.5 -6t4.5 -15v-3v-1v-3v-1 v-14t2 -15v-15v-13q0 -10 -1 -20.5t-10 -20.5q8 -16 13.5 -33.5t9.5 -34.5q2 -8 2 -16v-17q0 -14 -2 -27t-8 -26q14 -16 18 -37.5t6 -42.5v-2v-2q4 -18 7.5 -37.5t15.5 -35.5q-2 -12 -7 -21.5t-20 -11.5h-3h-3q0 -2 -2 -2h-2q-25 0 -37 14t-22 33q-10 16 -23.5 31.5 t-38.5 15.5h-4h-4q-6 12 -16.5 22.5l-20.5 20.5v2q-14 12 -26.5 25.5t-14.5 31.5q-16 16 -34.5 25.5t-37.5 15.5q-6 14 -15 28.5t-19 27.5q-4 4 -5.5 7t-5.5 7q-14 18 -24 37.5t-10 42.5v2q-6 6 -9.5 14t-3.5 19z" />
<glyph unicode="#" horiz-adv-x="1617" d="M29 1112q0 12 8 22.5t22 18.5q-6 4 -7 6t-1 4t4 5t6 8q6 4 10.5 8t4.5 8q23 -2 46 -2t50 -2h22.5h24.5q31 0 61.5 1t57.5 1q31 0 61.5 1t61.5 1q20 0 42.5 -1t41.5 -1q23 0 44 -1t44 -3q10 6 27.5 8t33.5 2h20.5t20.5 -2h21.5h17.5h20.5t16.5 2q20 4 39.5 5t38.5 1 q29 0 57.5 -3t54.5 -5q6 -2 11.5 -2t11.5 -2q23 -2 44.5 -3t43.5 -1q12 0 25.5 1t27.5 1q12 8 25.5 10t34.5 2q10 0 23.5 -1t25.5 -3h7h7q12 0 25.5 -2t25.5 -2h5h2h3h5q12 0 26.5 1t28.5 1h13.5t15.5 2h20h21q31 0 58.5 -4t41.5 -16q-10 -6 -14 -13.5t-2 -13.5q0 -6 3 -11 t5 -12q2 -2 4 -5t4 -5q6 -8 10 -17t4 -18q0 -6 -3 -13t-13 -13q-4 -2 -8 -5t-6 -6q-2 0 -2 -1v-1q-6 -2 -10.5 -5t-4.5 -5t3 -4t7 -4q20 0 25.5 -5t5.5 -9v-2q0 -2 2 -4.5t4 -4.5q-2 -18 -31.5 -24t-74.5 -6h-34.5t-37.5 2q-16 0 -34.5 1t-34.5 1q-14 0 -24.5 -1t-21.5 -1 q-6 0 -13 2t-15 4q-18 2 -40 5t-44 3q-33 -8 -71 -11t-75 -3h-34.5h-36.5q-16 2 -34.5 2h-39.5h-10h-15h-11h-11q-14 6 -29.5 8t-29.5 2h-19.5t-21.5 -2q-10 0 -21.5 -1t-23.5 -1h-5.5h-5.5q0 2 -3 2h-5q-4 -2 -5 -3t-3 -1q0 -2 -3 -3t-7 -1h-1h-3h-6h-1q-20 0 -39.5 -1 t-37.5 -1h-14.5t-14.5 -2h-26.5h-26.5q-25 0 -50.5 2t-48.5 6q-10 0 -24.5 -1t-26.5 -1q-23 -2 -45 -4t-45 -2h-31.5h-29.5q-51 0 -91 5t-57 19v4v4q0 4 -2 8.5t-2 8.5t-1 7t-1 7q0 8 5 15.5t28 11.5q-25 10 -36 23.5t-11 29.5zM47 467q0 8 3 14t13 13q4 4 8.5 6t6.5 4l2 2 q6 2 10 5t4 7q0 2 -3 4t-7 4q-20 0 -25.5 4.5t-5.5 8.5v2t-2 5t-4 3q2 20 32 25.5t75 5.5h34.5t36.5 -2h36h34h24.5h20.5q6 0 13 -1.5t16 -3.5q18 -4 39.5 -7t44.5 -3q33 10 70.5 12.5t74.5 2.5h34.5h37.5q16 0 34.5 -1.5t38.5 -1.5h10.5h14.5q6 0 11 1.5t12 1.5 q14 -6 29.5 -9.5t29.5 -3.5q8 0 19.5 1t21.5 1t21.5 1t23.5 1h5h5h3h5q4 0 5.5 1t3.5 1q0 2 3 3t7 1h1h3h5h1q20 0 39.5 1.5t38.5 1.5h14t15 2h26h27q25 0 50.5 -2.5t47.5 -6.5q10 0 24.5 1t26.5 3q23 2 45.5 3.5t44.5 1.5q16 0 32 1t30 1q51 0 91 -5.5t56 -21.5v-4v-4 q0 -4 2 -7t2 -8q0 -4 1 -8t1 -8q0 -6 -5 -13t-27 -14q25 -10 36 -23t11 -30q0 -10 -8.5 -21.5t-22.5 -19.5q6 -2 7 -5l1 -3q0 -4 -4 -7t-6 -7q-6 -2 -10 -6.5t-4 -8.5v-2q-23 2 -46.5 2t-50.5 2h-22h-25q-31 0 -61.5 -1t-56.5 -1h-62h-61h-43h-41q-23 0 -44.5 2t-43.5 5 q-10 -6 -27.5 -9.5t-34.5 -3.5q-10 0 -20.5 1t-20.5 1q-12 0 -21.5 1t-17.5 1q-12 0 -20 -1t-17 -3q-20 -2 -39.5 -4t-37.5 0q-29 0 -57.5 2t-55.5 6q-4 0 -10 1t-13 1q-23 2 -44 4.5t-44 2.5q-12 -2 -25.5 -2.5t-27.5 -2.5q-12 -6 -25.5 -8t-33.5 -2q-10 0 -23.5 1t-25.5 1 h-7.5h-7.5q-12 2 -25.5 3t-25.5 1h-4h-2h-3h-5h-26.5t-29.5 -2h-13h-15h-20.5h-20.5q-31 0 -58.5 3t-42.5 16q10 8 14.5 14t2.5 14q0 4 -3 10.5t-5 10.5q-2 2 -4.5 5t-4.5 5q-6 8 -10 17.5t-4 17.5zM143 1546q0 31 13.5 53.5t52.5 30.5q16 -2 31.5 -4t29.5 -2q23 -2 44.5 -4 t41.5 -12q20 12 44 18t46 6h12.5t12.5 -2q18 -2 35.5 -8t32.5 -16q14 8 30.5 14t32.5 8q4 2 8 2h8q25 0 47.5 -13t34.5 -46q2 -14 2 -26.5v-24.5q0 -20 -1 -40t-3 -38q-2 -20 -3 -40t-1 -38q0 -27 4 -54.5t15 -56.5q-2 -27 -4 -51t-2 -49q0 -29 2 -57.5t4 -57.5v-6t2 -8 q2 -31 5 -62.5t3 -66.5q0 -20 -2 -44t-6 -48q0 -23 2 -47.5t4 -48.5q2 -23 2 -47.5t2 -49.5v-16v-16q0 -35 -2 -70t-10 -66q4 -8 6 -15t2 -17q0 -6 -1 -11.5t-1 -9.5q-2 -8 -2 -15v-14q0 -8 3 -16t9 -16q-6 -20 -8 -42t-2 -42q0 -16 1 -32.5t3 -31.5v-32.5v-32.5 q0 -18 -1 -37t-5 -39q-8 -27 -26.5 -36t-37.5 -9h-7t-7 2q-4 0 -7 1t-7 1q-12 8 -22.5 11t-24.5 3q-10 0 -21.5 -2t-21.5 -2q-12 -2 -23.5 -4t-22.5 -2q-12 0 -23 2t-24 10q-20 -8 -43.5 -12t-48.5 -4q-10 0 -22.5 1t-22.5 1q-6 0 -11 1t-13 1q-16 2 -33 3t-33 1h-9h-11 q-2 0 -4.5 -1t-6.5 -1q-10 37 -16 74t-6 76q0 29 4 57.5t12 54.5q-8 27 -9 51.5t-1 49.5q0 31 2 59.5t6 58.5q4 29 6 57.5t2 59.5q0 29 -3 59.5t-13 63.5v4v4v2v4q0 18 -2 38t-4 38t-3 35.5t-1 36.5q0 12 1 24.5t3 24.5q2 10 6 22.5t10 24.5q-16 35 -17 75t-1 81v5v7v12v13 v16v16q0 6 -1 14.5t-1 16.5q0 10 2 19.5t4 17.5q2 10 4 21.5t2 21.5t-2 19.5t-10 17.5q0 4 1 8t1 10v8v9v20t-2 21q0 8 -2 17t-4 19q-2 20 -5.5 40t-3.5 38zM915 1552q0 31 13.5 53.5t52.5 30.5q16 -2 31.5 -4t29.5 -2q23 -2 44.5 -4t41.5 -12q20 12 44 18t47 6h12t12 -2 q18 -2 35.5 -8t32.5 -16q14 8 30.5 14t32.5 8q4 2 8 2h9q25 0 47 -13t35 -46q2 -14 2 -26.5v-24.5q0 -20 -1 -40t-4 -38q-2 -20 -3 -39.5t-1 -38.5q0 -27 4.5 -54.5t14.5 -55.5q-2 -27 -4 -51.5t-2 -49.5q0 -29 2 -57.5t4 -57.5v-6t2 -8q2 -31 5 -62.5t3 -66.5 q0 -20 -2 -43.5t-6 -48.5q0 -23 2 -47.5t4 -48.5q2 -23 2 -47.5t2 -49.5v-16v-16q0 -35 -2 -70t-10 -65q4 -8 6 -15.5t2 -17.5q0 -6 -1 -11.5t-1 -9.5q-2 -8 -2 -15v-13q0 -8 3 -16.5t9 -16.5q-6 -20 -8 -42t-2 -42q0 -16 1 -32.5t3 -31.5v-32.5v-32.5q0 -18 -1 -36.5 t-5 -39.5q-8 -27 -26.5 -36t-37.5 -9h-7t-7 2q-4 0 -7 1t-7 1q-12 8 -22.5 11t-24.5 3q-10 0 -21.5 -2t-21.5 -2q-12 -2 -23.5 -4t-21.5 -2q-12 0 -23.5 2t-24.5 10q-20 -8 -43.5 -12t-48.5 -4q-10 0 -22.5 1t-22.5 1q-6 0 -11 1t-13 1q-16 2 -32.5 3t-33.5 1h-9h-11 q-2 0 -4 -1t-7 -1q-10 37 -16 74t-6 76q0 29 4 57.5t12 54.5q-8 27 -9 51.5t-1 49.5q0 31 2 59.5t6 59.5q4 29 6 57.5t2 58.5q0 29 -3 59.5t-13 63.5v4v4v2v4q0 18 -2 38t-4 38t-3 35.5t-1 36.5q0 12 1 24.5t3 24.5q2 10 6 22.5t10 24.5q-16 35 -17 75t-1 81v5v7v12.5v12.5 v16v16q0 6 -1 14.5t-1 16.5q0 10 2 19.5t4 17.5q2 10 4 21.5t2 21.5t-2 19.5t-10 17.5q0 4 1 8t1 10v8.5v8.5v20t-2 21q0 8 -2 17t-4 20q-2 20 -5.5 39.5t-3.5 37.5z" />
<glyph unicode="$" horiz-adv-x="1302" d="M98 389v5v5v13.5t2 15.5v13.5v15.5q12 18 32 24t40 8q4 0 7 1.5t7 1.5h13.5t13.5 2q4 -2 8 -3.5t8 -1.5q10 -6 21.5 -11t17.5 -15q23 10 48.5 12t52.5 2h28.5h26.5q14 0 27.5 -1t25.5 -1h7t8 2h5h7q14 -18 32.5 -14t34.5 14q2 0 5.5 1t5.5 3q6 4 12 6t14 5q8 4 14.5 13 t8.5 17q0 4 1 8.5t1 6.5q0 6 -1 11t-5 11q-14 16 -33 28.5t-37 24.5q-4 2 -7 4t-7 5q-14 8 -29.5 19t-30.5 26h-3h-1h-3h-3q-33 0 -56.5 16t-47.5 39q0 2 -1 2h-1q-23 20 -45.5 38.5t-51.5 20.5q-29 23 -46 51.5t-29 57.5q-2 6 -3.5 9l-3.5 7q-8 14 -14 28.5t-12 27.5 q-2 6 -5 10t-3 10q-2 4 -3 9t-1 9q0 18 7 36t15 34h2q6 16 13.5 33.5t7.5 36.5v5v7t-1 6t-1 6q18 94 95 169t167 104q12 -4 21 -6t18 -2q14 0 28.5 3t28.5 9q6 2 11 3t9 3q29 33 73 39t87 8q6 2 12.5 2h12.5q14 0 28.5 -6t26.5 -14q23 27 54.5 35t66.5 8h32.5t32.5 -2 q12 -2 22.5 -3.5t18.5 -1.5q12 -6 20.5 -16t10.5 -22q4 -18 12.5 -36t14.5 -36q12 -23 21 -46.5t9 -51.5v-4.5v-6.5q18 -18 24.5 -40.5t6.5 -49.5v-7v-7t-1 -7t-1 -7q-16 -12 -36.5 -18.5t-41.5 -4.5q-10 0 -18 1t-17 3q-18 2 -34.5 8t-32.5 15q-20 -10 -44 -14.5t-52 -4.5 h-18.5t-18.5 2q-8 0 -15.5 1t-15.5 1q-12 2 -23.5 3t-21.5 1q-4 2 -9 3.5t-9 1.5q-8 0 -15.5 -5.5t-15.5 -11.5v-2q-8 -6 -14.5 -11t-14.5 -7q-2 -4 -4 -9.5t-4 -9.5q-4 -6 -6 -12t-2 -12v-5.5t2 -3.5q0 -2 2 -5t4 -5q18 -31 48 -40t60 -17q33 -6 66 -19.5t49 -54.5h3t5 2 h4.5h4.5q51 -2 93 -39t74 -80q4 -6 9.5 -13t9.5 -15q-8 -8 -11 -15.5t-3 -15.5q0 -10 7 -17.5t17 -13.5l3 -3l3 -3q10 -8 20.5 -17t10.5 -24v-2q2 -8 2 -18.5v-18.5q4 -23 6 -44t2 -44q0 -43 -11 -80t-48 -63v-3v-7q0 -68 -43 -108t-96 -73q-4 -2 -8.5 -5t-6.5 -5 q-20 -12 -39.5 -25.5t-38.5 -27.5q-6 -2 -11 -4t-11 -2q-6 -2 -11 -2h-12h-12t-10 2h-14.5h-12.5q-16 0 -34.5 -6.5t-32.5 -30.5q-33 0 -64 -4t-61 -10q-31 -6 -61.5 -10.5t-63.5 -4.5q-2 6 -4 8l-4 4t-5.5 3.5t-5.5 1.5q-4 0 -9 -4.5t-7 -6.5h-2q-6 -4 -11 -7t-12 -3h-2 q-6 0 -13 -1t-17 -1q-14 -2 -29.5 -2h-32.5q-25 0 -44 3t-38 15q-4 12 -12 25.5t-18 28.5q-14 23 -27.5 48t-13.5 54v5v5t1 4t1 5q-35 14 -46.5 45.5t-11.5 64.5zM528 47v6v6v5.5v5.5q2 8 2 17v19v14.5v14.5q-2 6 -2 13.5v13.5q0 14 2 25.5t9 21.5q0 4 -1 7t-1 5q0 4 -1 9.5 t-1 9.5q0 2 1 6t1 6q18 8 35.5 10t37.5 2h24.5t24.5 -2q4 -4 8.5 -6t6.5 -2t4 1l2 1q2 0 4 1t4 1l8 4t9 2h2h4h4q4 0 9 -1t11 -3q2 -2 4 -3t6 -1q2 0 4.5 -1t4.5 -1q4 2 8 3t8 3q8 -12 11 -28.5t3 -32.5v-4v-5v-5v-7v-12t2 -10q-6 -6 -8 -12.5t-2 -12.5t2 -13t6 -16 q0 -4 1 -10t1 -10q0 -8 -2 -17.5t-4 -19.5v-2t-2 -2q0 -10 -3 -20.5t-3 -20.5l-4 -4t-6 -2q-2 0 -5 2t-5 4q-4 2 -9.5 3t-11.5 -5q-4 4 -8 6t-8 2t-8.5 -2t-8.5 -4q-6 -4 -10 -6t-8 -2q-2 0 -4 1t-4 3q-2 0 -4 2t-4 6q-8 -4 -19.5 -8t-21.5 -4h-4.5h-6.5q-10 0 -20 3t-19 7 h-2t-6 -1t-6 -3q-2 0 -4 -1t-4 -3h-2h-2q-2 0 -4 1t-4 3q-6 12 -8.5 24.5t-2.5 24.5zM535 1411v5v7q0 2 1 5.5t1 5.5q0 8 1 17t1 19q0 8 -1 14.5t-1 14.5q0 6 -1 13.5t-1 13.5q0 12 3 23.5t9 23.5q0 4 -1 7t-1 5q-2 4 -3 9t-1 10q0 2 1 5t3 7q16 8 34.5 10t36.5 2h24.5 t25.5 -2q4 -4 8 -6t8 -2q2 0 3 1t3 1t4 1l2 1q4 2 8.5 4t10.5 2h4h4q6 0 11 -1t9 -3t6.5 -3t4.5 -1t5 -1t5 -1q4 2 7 2t7 4q10 -12 12.5 -28.5t2.5 -34.5v-3v-4v-6v-6q0 -6 1 -12t1 -10q-6 -6 -8.5 -12.5t-2.5 -12.5q2 -6 4 -13t5 -16q2 -6 2 -11v-9q0 -10 -1 -18.5 t-4 -18.5l-1 -2q-1 -2 -1 -4q-2 -8 -4 -18.5t-2 -20.5q-2 -2 -5 -4t-5 -2q-4 0 -6 2t-4 2q-6 4 -11.5 5t-11.5 -5q-2 4 -6 6t-8 2t-9 -2t-9 -6q-4 -2 -8.5 -4t-8.5 -2q-2 0 -4 1t-4 3q-4 0 -6 2t-4 6q-8 -6 -18.5 -9t-22.5 -3h-4h-4q-12 0 -21.5 3t-19.5 7q-4 0 -7.5 -2 t-7.5 -2l-3 -1t-3 -3h-3h-3l-3 1q-3 1 -5 3q-6 12 -8 24.5t-2 24.5z" />
<glyph unicode="%" horiz-adv-x="1761" d="M57 1339q0 72 125 187q49 45 51 45q72 12 80 24q72 0 113 4q69 9 192 -73q127 -84 117 -275q-12 -276 -336 -301q-166 -10 -206 66q-53 12 -109 125q-27 59 -27 198zM262 10q2 2 299 584q37 76 127 262q78 168 129 262l135 266q92 199 133 213q59 -18 95 -4 q172 70 194 -12q-2 0 23 14q104 55 -25 -174q-2 -4 -153 -311q-305 -614 -338 -664q-2 -10 -97 -194q-147 -289 -161 -242h-361zM303 1307q-20 -127 43 -150q94 -37 119 90t-62 160q-82 25 -100 -100zM1036 397q0 74 125 187q49 45 51 45q72 14 80 24q72 0 111 6 q71 9 194 -73q127 -86 117 -277q-14 -276 -338 -299q-164 -12 -205 64q-53 12 -108 125q-27 59 -27 198zM1280 365q-18 -125 43 -150q96 -35 121 92q25 125 -64 158q-80 27 -100 -100z" />
<glyph unicode="&#x26;" horiz-adv-x="1916" d="M96 553q0 49 15.5 91t66.5 73q12 63 53 98t91 64q0 2 2 3t4 1q20 12 39.5 25.5t35.5 27.5q-4 14 -13 25.5t-17 21.5q-14 14 -24.5 29.5t-10.5 36.5v4v4l1 2t1 4q-25 23 -33 55.5t-8 65.5q0 20 2 40.5t4 39.5q2 6 3 12t1 12q4 6 7 11.5t8 11.5q39 66 90 121t137 57 q2 2 3 4t1 4v2v2v3v3v1v3q0 4 1 9.5t5 7.5q23 6 44.5 15t41.5 18q41 16 82 30.5t84 14.5q16 0 33.5 -2t34.5 -9q16 14 43.5 26.5t56.5 14.5q4 2 9 2h11q27 -2 50.5 -13t33.5 -40q2 -14 3.5 -28.5t1.5 -26.5t-1.5 -24.5t-5.5 -26.5q37 -29 54.5 -70t21.5 -86q2 -18 3 -34.5 t1 -33.5q-16 -12 -35.5 -17t-42.5 -5q-20 0 -38.5 6t-34.5 18q-14 -2 -29.5 -6t-32.5 -8q-14 -6 -30.5 -10t-32.5 -6q-6 -4 -12.5 -8.5t-12.5 -6.5l-8 -4l-8 -4q-16 -8 -30.5 -18t-24.5 -27q2 -23 10 -43t30 -31q16 -16 33 -21t33 -5h12t15 2h12h12q14 0 27.5 -2t28.5 -10 q8 -8 11 -17.5t1 -17.5q0 -10 -4 -21.5t-8 -21.5q-2 -4 -4.5 -7t-2.5 -8q-4 -8 -5 -14t-1 -14t4 -17.5t13 -19.5v-4v-2v-4v-4q0 -27 -7.5 -48.5t-29.5 -31.5q-8 0 -15.5 -1t-15.5 -3h-2h-2q-18 -4 -35.5 -5.5t-34.5 -1.5h-9h-9q-14 -27 -37 -47t-47 -39q-2 -2 -5 -4t-5 -4 q-37 -27 -66 -58.5t-29 -84.5v-3v-1v-3v-3q31 -55 82.5 -87t106.5 -51q2 -2 6 -3t6 -1q6 6 12.5 13.5t12.5 13.5l4 4l4 4q20 20 39.5 44t36.5 50q-6 8 -14.5 17.5t-14.5 17.5q-2 0 -2 1t-2 1q-16 18 -30.5 36.5t-18.5 43.5q23 20 46 33.5t48 28.5q2 0 4 1l6 3 q27 14 54.5 30.5t50.5 38.5q4 4 10 5t12 1h9.5h9.5q4 -2 8 -2h8q12 8 15 17.5t6 19.5v4v4q2 2 2 6.5t2 6.5q12 10 25.5 19t25.5 20q39 29 79 59.5t81 62.5q6 -2 12 -2h10q29 0 45.5 18.5t28.5 41.5h1t1 2q12 23 29.5 41t48.5 18h9t11 -2q0 41 25.5 64.5t56.5 44.5q2 2 5 3 t5 3q20 14 40 28.5t32 34.5q2 0 4 1t4 1h4h4q20 0 36 -15t20 -34v-8v-8q0 -8 1 -17.5t1 -17.5q0 -4 1 -9t1 -9q2 -12 3 -25.5t1 -26.5q0 -20 -4 -38.5t-19 -34.5q16 -12 21.5 -29.5t5.5 -38.5q-2 -10 -3 -20.5t-3 -20.5q-23 -37 -60.5 -66.5t-80.5 -56.5q-10 -6 -20.5 -13 t-18.5 -13q-12 -8 -23.5 -15.5t-21.5 -15.5q-6 -6 -14.5 -8t-16.5 -2l-1 -1l-1 -1q-12 0 -24.5 -5.5t-16.5 -23.5v-3v-3q0 -12 -8.5 -20.5l-16.5 -16.5h-2h-2q-6 -6 -13 -12t-11 -17l4 -20t4 -21q2 0 2 -1v-1q8 -41 19.5 -79.5t33.5 -75.5q0 -4 -1 -7.5t-1 -7.5q-2 -4 -3 -9 t-1 -11q-10 -45 -26.5 -88t-59.5 -72q-4 -25 -21.5 -45t-38.5 -37q-2 0 -3 -1l-3 -3q-31 0 -55.5 -13.5t-46.5 -29.5q-20 -14 -44 -27.5t-52 -13.5h-3h-1h-3h-4h-7h-5q-43 -4 -84 -9t-76 -26q-25 0 -49 -2t-51 -4q-8 -2 -16.5 -3t-18.5 -1q-16 -2 -33.5 -3t-33.5 -1 q-39 0 -74 8t-64 29q-8 -2 -16 -3t-14 -1q-8 -2 -16.5 -2h-16.5q-66 0 -129.5 18.5t-120.5 40.5q-12 6 -17 15.5t-12 19.5q0 2 -1 3l-1 1q-4 8 -8 16.5t-12 14.5q-6 0 -12.5 1t-12.5 1q-29 2 -54.5 13t-35.5 42q-6 14 -10 28.5t-6 28.5q-8 31 -19.5 58.5t-44.5 50.5v21.5 t-2 21.5v11v11q0 16 -1 33t-1 31z" />
<glyph unicode="'" horiz-adv-x="770" d="M35 872q10 23 14 49.5t8 53.5q6 45 16.5 86t45.5 67v3.5v3.5q0 16 -2 33.5t-2 33.5q-2 4 -2 7v8q-2 14 -3 27t-1 28q0 27 6 51.5t20 44.5q4 4 5 9t1 7q0 8 -4 14.5t-8 12.5q-2 4 -4 7t-4 5q-2 4 -3 7.5t-1 5.5v2q0 4 1 7t1 7q2 2 2 6v6q0 10 -2 20.5t-4 20.5 q-2 12 -4 23.5t-2 21.5q0 18 11 32.5t42 21.5q12 -2 23.5 -3.5t21.5 -1.5q8 0 16 1.5t17 3.5q10 2 22 6t27 10q4 0 7 -1t7 -1h5h5q37 -4 73 -11.5t67 -23.5q8 16 19 23.5t26 7.5q10 0 19 -2t20 -4l20 -4t18 -2h3q6 -8 13 -11.5t15 -3.5t16.5 2t16.5 4t16.5 4t16.5 2 q12 0 20 -10t8 -39q4 -8 5.5 -17t1.5 -17q0 -16 -5.5 -32t-13.5 -30v-2q-6 -14 -11 -29.5t-5 -31.5v-3.5v-3.5q-14 -14 -26.5 -30.5t-24.5 -34.5q-2 -2 -4.5 -4t-4.5 -4q-27 -37 -56.5 -71t-74.5 -44q-16 -16 -28.5 -33.5t-22.5 -36.5q-18 -29 -37.5 -55.5t-52.5 -44.5 q-10 -23 -28.5 -33t-39.5 -16q-2 0 -4 -1t-4 -1q-25 -8 -46 -20.5t-23 -49.5q-4 -2 -7.5 -5t-5.5 -5l-8 -8l-8 -8q-16 -14 -33.5 -26.5t-38.5 -12.5q-4 0 -9 1t-11 3q-4 4 -8.5 5t-8.5 3h-2q-6 2 -13 5t-7 15z" />
<glyph unicode="(" horiz-adv-x="780" d="M29 840q23 31 25.5 63.5t2.5 65.5v7v7q0 29 6.5 57.5t30.5 55.5q-2 8 -3 15t1 15q0 33 13.5 63t29.5 56v3t2 1q10 18 19.5 37t15.5 37h1h3h3h1q20 0 26.5 13.5t10.5 27.5q4 16 11.5 30.5t31.5 14.5h2q4 16 14.5 28.5t20.5 24.5h1t1 2q10 12 21.5 25.5t15.5 34.5 q10 29 22.5 37t26.5 8q10 0 19.5 -2t19.5 -6q10 -2 21.5 -5.5t21.5 -3.5t21.5 4.5t19.5 12.5q29 0 57.5 -3t50.5 -20q8 4 16.5 8.5t16.5 6.5q16 4 32.5 6t33.5 2h6h6h5h5q4 -6 5 -12.5t1 -10.5q0 -14 -9 -26.5t-21 -24.5l-1 -2t-3 -2q-4 -4 -8.5 -9t-8.5 -12q-4 -10 -5 -21 t-3 -24q0 -4 -1 -7t-1 -5q-4 -33 -15.5 -59.5t-50.5 -30.5q2 -8 2 -15.5v-13.5q0 -29 -9 -52t-21 -46q-10 -25 -19.5 -49.5t-9.5 -52.5q0 -8 1 -16.5t3 -18.5q-8 -20 -11 -43t-5 -45q0 -2 -1 -6t-1 -9q-4 -35 -9.5 -67.5t-23.5 -57.5v-3v-3q0 -10 4 -19t10 -18l3 -3t1 -3 q4 -6 7.5 -11t3.5 -11q2 -20 3 -42t1 -42q2 -55 9 -107.5t46 -93.5q-4 -8 -7 -16t-3 -17q0 -16 7 -29.5t17 -25.5q0 -2 1 -2t1 -2q10 -12 18.5 -26.5t8.5 -32.5v-3.5v-3.5q33 -14 40 -39.5t11 -52.5v-4v-2q2 -12 4 -24.5t7 -24.5q4 -2 8 -5t8 -7q16 -14 30.5 -31.5 t14.5 -38.5v-1v-3q-2 -2 -2 -3v-3q-12 -8 -24.5 -12.5t-24.5 -4.5t-24.5 3.5t-22.5 7.5q-12 2 -24.5 5t-25.5 3q-6 0 -12 -1t-10 -3q-6 -2 -12 -5t-13 -8q-12 4 -27.5 6.5t-29.5 4.5q-6 2 -13 2h-16q-20 0 -40.5 -5t-36.5 -18q-4 2 -9.5 4t-11.5 4q-16 6 -30.5 16.5 t-18.5 28.5q-2 23 -17.5 39.5t-35.5 28.5q0 2 -2 3t-2 3q-18 12 -34 25.5t-22 34.5v3v1q0 20 -11 33.5t-24 27.5h-2q-12 12 -23 25.5t-13 29.5q-10 12 -14.5 26.5t-6.5 31.5v1v3q-4 23 -10 43t-33 29q-25 41 -32 89t-11 97v11v11q-2 37 -5 72t-11 66z" />
<glyph unicode=")" horiz-adv-x="843" d="M20 1599q0 2 2 3l1 2q0 4 1 7t3 5q12 4 23 5t22 1q14 0 27.5 -2t25.5 -4q4 -2 8 -3t8 -1q8 -2 17.5 -3t17.5 -1q14 2 28.5 6t28.5 12q14 -4 30 -7t32 -5q8 -2 15 -2h16q18 0 36.5 3t32.5 11q4 2 9.5 3t7.5 1q20 -2 35.5 -17.5t25.5 -33.5q0 -2 1 -3t1 -3v-3v-1 q0 -27 16.5 -40t36.5 -26q2 0 4.5 -1t2.5 -3q18 -10 34.5 -22.5t22.5 -32.5q6 -25 19.5 -45.5t27.5 -40.5l4 -4t4 -6q16 -23 32.5 -47.5t22.5 -55.5q4 -25 15.5 -44t23.5 -38q2 -2 3 -4t4 -4q14 -23 24 -45.5t10 -50.5v-4v-6t-1 -8.5t-1 -8.5v-10v-8q0 -16 2 -32.5t4 -33.5 q2 -8 3.5 -16t3.5 -17q4 -25 8 -49t4 -49q0 -27 -7 -53.5t-26 -50.5q2 -6 2 -15.5v-17.5v-8v-8v-5.5v-5.5q-2 -31 -10 -57.5t-33 -42.5q2 -8 3 -16.5t1 -16.5q0 -35 -14 -64.5t-33 -58.5q-12 -20 -23.5 -42.5t-17.5 -45.5h-2q-23 0 -31 -13t-12 -28v-2q-6 -16 -13 -28.5 t-28 -12.5q-23 -20 -38 -42.5t-29 -45.5q-4 -6 -7.5 -12t-7.5 -12q-10 -14 -20 -29.5t-23 -30.5q-8 -8 -19 -11t-22 -3q-10 0 -21.5 2t-23.5 4q-4 0 -8 1t-8 1q-8 2 -15.5 3t-15.5 1h-12t-12 -2q-8 -2 -14.5 -5t-12.5 -7q-14 0 -27.5 4t-25.5 8q-10 2 -18.5 5t-16.5 5 q-4 0 -9 1t-12 1h-8t-8 -2q-8 -2 -15.5 -5t-17.5 -9l-12 -4t-14 0q-25 0 -40.5 16.5t3.5 42.5q25 16 34 41t15 49q0 6 1 10.5t1 8.5q6 31 16.5 57.5t42.5 32.5q14 16 17.5 35.5t5.5 40.5q0 4 1 7t1 5q2 12 4 24.5t6 22.5q29 61 42 130t24 138q2 8 3 15.5t1 15.5q2 10 3 19.5 t3 19.5q2 4 4 7t4 5q8 12 14.5 24.5t6.5 27.5v6t-2 6q0 2 -1.5 5t-3.5 5q-18 35 -24 80t-8 94v1v1q0 18 -1 34.5t-3 33.5q0 6 -2.5 12t-4.5 14t-7 17.5t-9 19.5q-10 16 -17.5 34t-7.5 36v7t3 7q0 4 1 7.5t3 7.5q-16 12 -23.5 27.5t-11.5 31.5q-2 2 -2 4v4q-8 23 -18.5 42.5 t-39.5 31.5q0 6 -1 12t-1 15v8t-2 8q-2 35 -13 65.5t-48 42.5q-6 10 -11.5 20.5t-5.5 22.5z" />
<glyph unicode="*" d="M164 578v5v7t1 7t1 5q0 10 1 20.5t1 20.5q0 8 -1 15.5t-1 15.5t-1 16t-1 15q0 14 3 26t9 25q0 4 -1 7t-1 7t-1 9t-1 12q0 2 1 6t1 8q20 8 41 10t43 2h28.5t28.5 -2q4 -4 9.5 -6t9.5 -2h3t3 2q2 0 4 1t4 1q4 2 9 4t12 2h5h5q6 0 12 -1t10 -3t6.5 -3t6.5 -1q2 -2 5 -2h5 q4 0 9 1t9 5q10 -14 13.5 -32.5t3.5 -37.5v-4v-4v-6v-6q0 -8 1 -14.5t1 -12.5q-6 -6 -9 -12t-3 -14q2 -6 4 -14.5t6 -16.5q2 -6 2 -12v-11q0 -10 -2 -20t-4 -21v-2t-2 -4q-2 -10 -4.5 -21t-2.5 -24q-4 -2 -7 -3t-5 -1q-4 0 -7 1t-5 3q-6 2 -12.5 4t-12.5 -6q-4 4 -8 6t-10 2 q-4 0 -9 -2t-12 -4q-4 -4 -9 -5t-9 -1h-5t-5 2q-2 0 -5 3t-6 7q-10 -6 -22 -9t-25 -5h-4h-6q-12 0 -24.5 3t-20.5 7h-2q-4 0 -8 -1t-6 -3q-2 0 -5 -1t-6 -1h-2h-2h-5t-5 2q-8 14 -10 28.5t-2 27.5zM168 1040v5.5v7.5t1 7t1 5q0 10 1 20.5t1 20.5q0 8 -1 15t-1 16q0 8 -1 16 t-1 14q0 14 3 26.5t9 25.5q0 4 -1 7t-1 7t-1 9t-1 11q0 2 1 6.5t1 8.5q20 8 41 10t43 2h28.5t28.5 -2q4 -4 9.5 -6t9.5 -2h3t3 2q2 0 4 1t4 1q4 2 9.5 4t11.5 2h5h5q6 0 12 -1t11 -3l6 -3t6 -1q2 -2 5 -2h5q4 0 9 1t9 5q10 -14 13.5 -32.5t3.5 -37.5v-4v-4v-6v-6 q0 -8 1 -14.5t1 -12.5q-6 -6 -9 -12t-3 -14q2 -6 4 -14.5t6 -16.5q2 -6 2 -12.5v-10.5q0 -10 -2 -20t-4 -21v-2t-2 -4q-2 -10 -4 -21.5t-2 -23.5q-4 -2 -7.5 -3t-5.5 -1q-4 0 -7 1t-5 3l-12 4t-13 -6q-4 4 -8 6t-10 2q-4 0 -9 -2t-12 -4q-4 -4 -9 -5t-9 -1h-5t-5 2 q-2 0 -5 3t-5 7q-10 -6 -22.5 -9t-25.5 -5h-4h-6q-12 0 -24.5 3t-20.5 7h-2q-4 0 -8 -1t-6 -3q-2 0 -5 -1t-5 -1h-3h-2h-5t-5 2q-8 14 -10 28.5t-2 26.5zM393 805v5v7t1 7t1 5q0 10 1 20.5t1 20.5q0 8 -1 15.5t-1 15.5t-1 16.5t-1 14.5q0 14 3 26.5t10 24.5q0 4 -1.5 7 t-1.5 7t-1 9.5t-1 11.5q0 2 1 6t1 8q20 8 41 10t43 2h28.5t29.5 -2q4 -4 9 -6t9 -2h3t3 2q2 0 4 1t5 1q4 2 9 4t11 2h5h5q6 0 12.5 -1t10.5 -3l6 -3t6 -1q2 -2 5 -2h5q4 0 9.5 1t9.5 5q10 -14 13 -32.5t3 -36.5v-4v-4v-6.5v-6.5q0 -8 1 -14t1 -12q-6 -6 -9 -12.5t-3 -14.5 q2 -6 4 -14.5t6 -16.5q2 -6 2 -12v-10q0 -10 -2 -20.5t-4 -20.5v-2t-2 -4q-2 -10 -4 -21.5t-2 -23.5q-4 -2 -7 -3t-5 -1q-4 0 -7.5 1t-5.5 3l-12 4t-12 -6q-4 4 -8.5 6t-10.5 2q-4 0 -9 -2t-11 -4q-4 -4 -9.5 -5.5t-9.5 -1.5h-5t-5 3q-2 0 -5 3t-5 7q-10 -6 -22.5 -9.5 t-24.5 -5.5h-4h-6q-12 0 -24.5 3.5t-21.5 7.5h-2q-4 0 -8 -1t-6 -3q-2 0 -5 -1t-5 -1h-2h-2h-5t-5 2q-8 14 -10.5 28.5t-2.5 26.5zM616 582v5v7t1 7t1 5q0 10 1.5 20.5t1.5 20.5q0 8 -1.5 15.5t-1.5 15.5t-1 16t-1 15q0 14 3.5 26.5t9.5 24.5q0 4 -1 7t-1 7t-1 9t-1 12 q0 2 1 6t1 8q20 8 40.5 10t43.5 2h28.5t28.5 -2q4 -4 9 -6t9 -2h3.5t3.5 2q2 0 4 1t4 1q4 2 9 4t11 2h5h5q6 0 12.5 -1t10.5 -3l6 -3t6 -1q2 -2 5 -2h6q4 0 9 1t9 5q10 -14 13 -32.5t3 -36.5v-4.5v-4.5v-6v-6q0 -8 1 -14t1 -13q-6 -6 -9 -12t-3 -14q2 -6 4 -14.5t6 -16.5 q2 -6 2 -12v-10q0 -10 -2 -20.5t-4 -20.5v-2q0 -3 -2 -5q-2 -10 -4 -21t-2 -24q-4 -2 -7 -3t-5 -1q-4 0 -7 1t-6 3q-6 2 -12 4.5t-12 -6.5q-4 4 -8 6.5t-11 2.5q-4 0 -9 -2.5t-11 -4.5q-4 -4 -9 -5t-9 -1h-5.5t-5.5 2q-2 0 -5 3t-5 8q-10 -6 -22.5 -9.5t-24.5 -5.5h-4h-6 q-12 0 -24.5 3t-20.5 7h-2q-4 0 -8.5 -1t-6.5 -3q-2 0 -5 -1t-5 -1h-2h-2h-5t-5 2q-8 14 -10.5 28.5t-2.5 27.5zM623 1042v5.5v7.5t1 7t1 5q0 10 1 20.5t1 20.5q0 8 -1 15t-1 16q0 8 -1 16t-1 14q0 14 3 26.5t9 25.5q0 4 -1 7t-1 7t-1 9t-1 11q0 2 1 6.5t1 8.5q20 8 40.5 10 t43.5 2h28.5t28.5 -2q4 -4 9 -6t10 -2h3t3 2q2 0 4 1t4 1q4 2 9 4t11 2h5.5h5.5q6 0 12 -1t10 -3l6 -3t6 -1q2 -2 5.5 -2h5.5q4 0 9 1t9 5q10 -14 13.5 -32.5t3.5 -37.5v-4v-4v-6v-6q0 -8 1 -14.5t1 -12.5q-6 -6 -9.5 -12t-3.5 -14q2 -6 4 -14.5t7 -16.5q2 -6 2 -12.5v-10.5 q0 -10 -2.5 -20t-4.5 -21v-2t-2 -4q-2 -10 -4 -21.5t-2 -23.5q-4 -2 -7 -3t-5 -1q-4 0 -7 1t-5 3q-6 2 -12.5 4t-12.5 -6q-4 4 -8 6t-10 2q-4 0 -9.5 -2t-11.5 -4q-4 -4 -9 -5t-9 -1h-5t-6 2q-2 0 -5 3t-5 7q-10 -6 -22.5 -9t-24.5 -5h-4h-6q-12 0 -24.5 3t-20.5 7h-2 q-4 0 -8 -1t-7 -3q-2 0 -5 -1t-5 -1h-2h-2h-5t-5 2q-8 14 -10 28.5t-2 26.5z" />
<glyph unicode="+" horiz-adv-x="1345" d="M119 848q0 16 2 31.5t10 29.5q2 6 5 12.5t5 10.5q2 2 2 3v1q4 6 7.5 13t3.5 14q0 4 -2 9t-7 9q-14 0 -18 10t-4 21v2v2q0 6 -1 11t-3 9q2 43 23.5 56.5t54.5 13.5q12 0 25.5 -1t27.5 -3q12 -2 25.5 -3t25.5 -1q10 0 17.5 1t15.5 3q4 -2 9 -5t11 -7q14 -8 29.5 -14.5 t32.5 -6.5q25 20 52.5 26.5t53.5 6.5q12 0 25.5 -1t27.5 -1q12 -2 25.5 -3t28.5 -1h8h10q4 0 8 1t9 1q10 -14 21 -20.5t22 -6.5q6 0 14 2l16 4q8 0 16.5 2t16.5 2h4h4q0 -2 2 -2h4q2 2 3 4t4 4q0 4 2 6.5t4 2.5h1h3h3h1q14 0 28.5 2t28.5 4h10.5t10.5 2q10 0 19 1t20 1 q18 0 36.5 -5t34.5 -16q8 2 18.5 4.5t20.5 4.5q16 4 32.5 7t33.5 5q12 0 23.5 1t21.5 1q37 0 66.5 -12.5t41.5 -46.5v-9.5v-9.5q0 -8 1 -17t1 -18q0 -10 1 -18t1 -16q0 -16 -4 -33t-20 -29q18 -25 26.5 -55.5t8.5 -65.5q0 -27 -6.5 -51.5t-16.5 -44.5q4 -6 5 -11t1 -9 q0 -6 -3 -13.5t-5 -15.5q-4 -8 -7 -17.5t-3 -19.5v-2q-16 4 -33.5 5t-36.5 3h-17h-18q-23 0 -45 -1t-43 -1q-23 -2 -45 -3t-45 -1q-14 0 -30.5 1t-30.5 3q-16 0 -31.5 3t-32.5 7q-8 -14 -20 -19t-25 -5q-8 0 -15 1t-15 3q-8 0 -15.5 1t-13.5 1q-8 0 -14.5 -1t-12.5 -5 q-14 -8 -28.5 -11.5t-28.5 -1.5q-20 0 -42 6.5t-40 12.5q-4 2 -8 3t-8 3q-16 4 -33 8t-33 4q-8 -2 -18.5 -3t-20.5 -5q-8 -14 -18.5 -19t-24.5 -5q-8 0 -17.5 2t-19.5 4q-2 0 -4 1t-6 1q-8 2 -18.5 5t-18.5 3h-3h-1h-3h-3q-10 0 -20.5 -1t-20.5 -3h-9t-12 -2h-15h-15 q-23 0 -43.5 8t-30.5 35q8 16 11 32.5t1 30.5q0 12 -2 25.5t-4 25.5q-2 4 -3 10.5t-3 12.5q-4 18 -7 38.5t-3 41.5zM428 920q0 20 6 41.5t12 39.5q2 4 3.5 8.5t3.5 8.5q4 16 8 32.5t4 32.5q-2 8 -3 18.5t-5 20.5q-14 8 -19.5 18.5t-5.5 24.5q0 8 2 17.5t4 19.5q0 2 1 4t1 6 q2 8 5.5 18.5t3.5 18.5v3v1v3v4q0 10 -1.5 20t-3.5 20v9.5t-2 11.5v15v16q0 23 8.5 43t34.5 30q16 -8 33 -11t31 -1q12 0 25.5 2t25.5 4q4 2 10 3t13 3q18 4 38.5 7.5t40.5 3.5q16 0 32 -2t30 -11q6 -2 12 -5l10 -5q2 -2 4 -2h1q6 -4 13 -7t13 -3q4 0 9 2t10 6q0 14 10 18.5 t20 4.5h2h2q6 0 11.5 1t9.5 3q43 -2 56.5 -23.5t13.5 -54.5q0 -12 -1.5 -25.5t-3.5 -27.5q-2 -12 -3 -25.5t-1 -26.5q0 -10 1 -17t3 -15q-2 -4 -5 -9.5t-7 -11.5q-8 -14 -14 -29.5t-6 -31.5q20 -25 26 -52.5t6 -54.5q0 -12 -1 -25.5t-1 -27.5q-2 -12 -3 -25.5t-1 -27.5v-8.5 v-10.5q0 -4 1 -8t1 -8q-14 -10 -20 -21.5t-6 -21.5q0 -6 2 -14.5t4 -16.5q0 -8 2 -16t2 -17v-4v-4q-2 0 -2 -2v-4q2 -2 4 -3t4 -3q4 0 6 -2t2 -4v-1v-3v-3v-1q0 -14 2 -28.5t4 -29.5v-10t2 -10q0 -10 1.5 -19.5t1.5 -19.5q0 -18 -5.5 -36.5t-15.5 -35.5q2 -8 4 -18.5 t4 -20.5q4 -16 7 -32.5t6 -32.5q0 -12 1 -23.5t1 -21.5q0 -37 -12.5 -67t-47.5 -42h-9h-9q-8 0 -17.5 -1t-17.5 -1q-10 0 -18.5 -1t-16.5 -1q-16 0 -32.5 4t-28.5 21q-25 -18 -55.5 -26.5t-65.5 -8.5q-27 0 -51.5 6t-44.5 16q-6 -4 -11.5 -5t-9.5 -1q-6 0 -13 3t-16 5 q-8 4 -17 7.5t-19 3.5h-2q4 16 5 33.5t3 35.5v17.5v17.5q0 23 -1 45.5t-1 42.5q-2 23 -3 45.5t-1 44.5q0 14 1 30.5t3 31.5q0 16 3 31.5t7 31.5q-14 8 -19.5 20.5t-5.5 24.5q0 8 1 15.5t3 15.5q0 8 1 15t1 14q0 8 -1 14t-5 12q-8 14 -11 28.5t-1 29.5z" />
<glyph unicode="," horiz-adv-x="778" d="M55 -115q8 23 12.5 47.5t8.5 51.5q6 41 17 83t42 74v9.5v9.5q0 16 -2 31.5t-4 33.5q0 2 -1 6.5t-1 6.5q-2 14 -3 27.5t-1 25.5q2 27 10 50.5t29 43.5q-18 29 -24.5 61.5t-6.5 65.5v13v14q2 14 3 27.5t3 25.5q10 12 20.5 17t22.5 5q4 0 9.5 -1t9.5 -1q2 -2 3 -2h1 q8 -2 16 -3t17 -1q10 0 17 3t13 12q4 0 7 -1.5t8 -1.5h7h7h19.5t17.5 3h19h18q25 0 47 -5.5t39 -27.5q10 20 24.5 26.5t28.5 6.5q8 0 16 -1.5t19 -3.5h2t2 -2q10 0 20.5 -2t18.5 -2h3h3h1h3q4 -6 10 -8t12 -2t12.5 2t12.5 4q2 0 3 1t3 1q8 2 16.5 3t14.5 1q12 0 19.5 -9 t9.5 -32q2 -6 3 -11t1 -9v-9v-12q0 -23 -4 -43t-9 -43q-2 -2 -2 -4t-2 -4q-2 -12 -4 -23.5t-4 -23.5q-12 -12 -23.5 -26.5t-23.5 -30.5l-1 -2q-1 -2 -3 -2q-31 -41 -64.5 -76t-80.5 -47q-16 -51 -52.5 -88t-74.5 -70q-12 -10 -23.5 -19.5t-24.5 -17.5q-8 -8 -16 -14t-16 -14 q-23 -6 -39.5 -21.5t-30.5 -34.5l-5 -5l-5 -5q-14 -18 -30.5 -33.5t-39.5 -25.5q-2 0 -4 -1t-4 -1h-4h-4h-7t-8 2q-12 2 -25 9t-24 19z" />
<glyph unicode="-" horiz-adv-x="1335" d="M109 848q0 16 2 31.5t10 29.5q2 6 5 12.5t5 10.5q2 2 2 3v1q4 6 7 13t3 14q0 4 -2 9t-6 9q-14 0 -18 10t-4 21v2v2q0 6 -1 11t-3 9q2 43 23.5 56.5t53.5 13.5q12 0 25.5 -1t28.5 -3q12 -2 25.5 -3t25.5 -1q10 0 17 1t16 3q4 -2 9 -5t11 -7q14 -8 29.5 -14.5t32.5 -6.5 q25 20 52 26.5t54 6.5q12 0 25.5 -1t27.5 -1q12 -2 25.5 -3t27.5 -1h8.5h10.5q4 0 8 1t8 1q10 -14 21.5 -20.5t21.5 -6.5q6 0 14.5 2t16.5 4q8 0 16.5 2t16.5 2h4h4q0 -2 2 -2h4q2 2 3 4t3 4q0 4 2 6.5t4 2.5h1h4h3h1q14 0 28.5 2t28.5 4h10t10 2q10 0 19.5 1t19.5 1 q18 0 37 -5t35 -16q8 2 18.5 4.5t20.5 4.5q16 4 32.5 7t32.5 5q12 0 23.5 1t22.5 1q37 0 66.5 -12.5t41.5 -46.5v-9.5v-9.5q0 -8 1 -17t1 -18q0 -10 1 -18t1 -16q0 -16 -4 -33t-20 -29q18 -25 26 -55.5t8 -65.5q0 -27 -6 -51.5t-16 -44.5q4 -6 5 -11t1 -9q0 -6 -3 -13.5 t-5 -15.5q-4 -8 -7 -17.5t-3 -19.5v-2q-16 4 -34 5t-36 3h-17.5h-17.5q-23 0 -45 -1t-43 -1q-23 -2 -45 -3t-45 -1q-14 0 -30.5 1t-30.5 3q-16 0 -32 3t-32 7q-8 -14 -20.5 -19t-24.5 -5q-8 0 -15.5 1t-15.5 3q-8 0 -15 1t-13 1q-8 0 -14.5 -1t-12.5 -5q-14 -8 -28.5 -11.5 t-28.5 -1.5q-20 0 -42 6.5t-40 12.5q-4 2 -8.5 3t-8.5 3q-16 4 -32.5 8t-32.5 4q-8 -2 -18.5 -3t-20.5 -5q-8 -14 -18.5 -19t-24.5 -5q-8 0 -17.5 2t-19.5 4q-2 0 -4 1t-6 1q-8 2 -18.5 5t-18.5 3h-3h-1h-3h-3q-10 0 -20.5 -1t-20.5 -3h-9.5t-11.5 -2h-15h-15q-23 0 -43.5 8 t-30.5 35q8 16 11 32.5t1 30.5q0 12 -2 25.5t-4 25.5q-2 4 -3 10.5t-3 12.5q-4 18 -7 38.5t-3 41.5z" />
<glyph unicode="." horiz-adv-x="770" d="M86 207q0 6 1 12t1 14q0 6 1 12.5t1 12.5q2 18 3 38.5t1 43.5q0 16 -1 31.5t-1 31.5q-2 14 -3 31t-1 31q0 29 5 54.5t20 49.5q0 8 -2 15.5t-2 13.5q-2 10 -4.5 20.5t-2.5 20.5q0 6 2 13t5 16q41 16 82.5 21t87.5 5q29 0 57.5 -1t56.5 -3q10 -10 19.5 -14t17.5 -4q4 0 7 1 t7 3q4 0 8.5 2t8.5 4q8 4 18 7t23 3h2q4 2 9 2h9q12 0 24.5 -3t24.5 -7q6 -4 11.5 -6t11.5 -2q6 -2 11 -3t11 -1q8 2 17.5 4t17.5 8q23 -27 28 -63.5t7 -75.5v-8.5v-8.5v-13v-13q0 -14 1 -27.5t3 -25.5q-14 -12 -19 -25.5t-5 -28.5q2 -14 7 -30.5t11 -32.5q4 -12 5 -24.5 t1 -22.5q0 -20 -4 -41t-8 -41q0 -2 -1 -6t-3 -7q-4 -23 -9.5 -44t-5.5 -46q-6 -6 -12 -9t-12 -3t-12.5 3t-12.5 7q-12 6 -23.5 9.5t-25.5 -13.5q-8 10 -17 14.5t-20 4.5q-10 0 -20 -4.5t-21 -10.5q-10 -6 -20 -10t-21 -4q-4 0 -9 1t-9 5q-6 2 -11 7t-10 14 q-20 -12 -44.5 -19.5t-51.5 -9.5h-9h-11q-27 0 -50.5 6t-43.5 16h-3q-8 0 -16 -3t-14 -5q-4 -2 -9.5 -4t-9.5 -4h-5h-5q-4 0 -9 2t-11 4q-14 31 -19.5 58.5t-5.5 54.5z" />
<glyph unicode="/" horiz-adv-x="911" d="M35 27q0 2 299 583q37 76 127 262q78 168 127 263l137 266q92 199 133 213q59 -18 94 -4q172 70 195 -13q-2 0 22 15q103 55 -24 -174q-4 -4 -156 -312q-303 -614 -336 -663q-2 -10 -96 -195q-147 -289 -164 -241h-358z" />
<glyph unicode="0" horiz-adv-x="1425" d="M66 848q16 20 22 42.5t6 45.5q0 14 -1 28.5t-3 28.5q0 6 -1 13.5t-1 13.5q0 27 8 50.5t31 43.5q-2 8 -2 15.5v13.5q0 37 14.5 69.5t30.5 65.5v1q0 1 2 3q8 18 17.5 36.5t15.5 37.5q2 2 5 3t5 3q2 0 4 1t2 3q14 8 26.5 17.5t12.5 23.5v3v3l-1 1q-1 1 -1 3q0 12 7 16.5 t16 6.5h1h3q6 2 11 5t9 9q25 55 79 91t114 48q14 2 26.5 3t24.5 1h6h4q4 -2 9 -2h7q14 0 26.5 6.5t25.5 12.5l1 1l1 1q12 8 25.5 14t29.5 6h6h6q2 0 5.5 -1t5.5 -1q14 0 29.5 -1t29.5 -1q63 -4 122.5 -19.5t98.5 -60.5h3h3h1h3q4 0 8.5 1t8.5 1t8 1t6 1q4 0 7 -1t5 -3 q14 -18 30.5 -34.5t33.5 -30.5q6 -6 11 -12.5t11 -12.5q39 -37 71 -78t36 -100q47 -29 67.5 -79t30.5 -103q2 -16 4 -33.5t4 -34.5q2 -20 5.5 -40.5t5.5 -41.5q4 -33 8 -64.5t4 -64.5q-2 -35 -8 -68.5t-23 -66.5q0 -6 1 -13t1 -13q2 -6 2 -13.5v-13.5q0 -74 -25.5 -143.5 t-58.5 -135.5q-8 -18 -16 -35.5t-16 -35.5q-23 -16 -39.5 -40t-30.5 -48q-2 -2 -3 -4.5t-3 -4.5q-18 -33 -44 -64.5t-71 -47.5q-10 4 -19.5 7t-17.5 3q-23 -2 -42 -14.5t-40 -28.5q-2 0 -3 -2t-3 -2q-4 -4 -9 -8t-11 -8q-33 -8 -71 -15.5t-77 -7.5t-75.5 8t-69.5 29 q-86 0 -157 47t-122 102q-6 6 -11 12.5t-11 12.5q2 4 2 7v5q0 14 -10.5 23.5t-22.5 17.5q-6 4 -13 9.5t-12 11.5q-6 14 -13 26.5t-15 24.5q0 2 -1 3l-3 3q-14 23 -25.5 46.5t-11.5 51.5v3v3q-55 45 -67.5 112t-14.5 138v3v3q-2 37 -5 75t-11 71zM592 811q25 -18 30 -45 t5 -57v-2v-5v-3v-3q0 -4 1 -9t1 -11q0 -8 1 -17.5t3 -19.5q4 -8 4 -18.5v-20.5v-11v-9v-9.5v-11.5q0 -27 8 -48.5t39 -31.5q6 -4 12 -6t13 -2q12 0 22 7t21 16l4 4l4 4q12 12 26.5 21t30.5 9h1h1h1h1q0 2 1 4.5t1 4.5v4v4q0 8 -3 15t-7 16q0 2 -1 3t-1 3q-4 6 -7 12t-5 12 v32.5v33.5q2 31 2 60.5t2 60.5q0 39 3 78.5t9 80.5q-18 20 -23.5 42t-5.5 44v11.5t2 11.5v12v13v12v14q-2 6 -3 12.5t-3 12.5q0 10 -7 19t-17 16q-2 4 -6 5t-7 3q-8 0 -16 2t-14 4q-8 2 -16.5 4t-16.5 2t-14 -3t-13 -11q-8 -35 -13 -73t-7 -75v-4v-4q-6 -57 -13.5 -111.5 t-29.5 -103.5z" />
<glyph unicode="1" horiz-adv-x="796" d="M37 1238v13q0 27 7 49.5t34 36.5q25 4 41 19.5t31 32.5q0 2 1 3t3 1q14 18 32.5 33.5t44.5 15.5h5.5h5.5q20 6 27 20.5t12 30.5v3t2 3q0 8 2 15.5t6 13.5q10 8 19 16t18 15q4 4 9 8t9 8q12 12 24.5 23.5t28.5 21.5q18 0 36 2t34 4q16 0 32.5 2t33.5 2q10 0 18 -1t18 -1 q8 -2 17.5 -4t17.5 -6q10 6 26.5 12t33.5 8h7h5q18 0 33.5 -8t19.5 -28q-2 -10 -2 -19.5v-19.5q0 -18 1 -35t3 -33q0 -6 1 -12t1 -10q0 -12 1 -22.5t1 -23.5q0 -18 -3 -37.5t-9 -39.5q12 -35 16 -73t4 -77q0 -23 -1 -44t-3 -44v-5v-5q-2 -27 -2 -51.5v-49.5q0 -27 2 -54 t9 -54q-8 -20 -11.5 -44t-3.5 -46q0 -18 2 -38t4 -38q0 -20 2 -38.5t2 -37.5q0 -23 -4 -45t-14 -45q2 -6 3 -14t3 -15v-11t2 -9q0 -20 4 -38.5t21 -35.5q0 -29 -4 -57.5t-8 -54.5q-6 -31 -10.5 -59.5t-4.5 -57.5q0 -14 2 -31.5t6 -34.5q-2 -4 -2 -10v-12v-13.5t2 -13.5v-14 v-12q0 -18 -4 -35t-20 -27q-8 -2 -17.5 -4t-19.5 -2q-25 0 -47.5 8t-44.5 21q-6 2 -13.5 6t-15.5 6q-10 -2 -19.5 -7t-19.5 -9q-12 -8 -26.5 -13.5t-28.5 -5.5q-8 0 -15.5 2t-15.5 6q-12 0 -21.5 4.5t-19.5 10.5l-1 1l-1 1q-6 4 -12 7t-12 5q-20 -23 -48 -31t-59 -8 q-20 0 -39.5 3t-38.5 5q-8 8 -12 22.5t-4 28.5q0 8 1 15.5t3 15.5q6 6 10 13.5t6 15.5q2 4 2 7v7q0 12 -4 24.5t-14 22.5q0 12 -1 27.5t-1 32.5q-2 10 -3 20t-1 21v11v11q2 35 8 67t25 56q-14 37 -18.5 78t-4.5 82q0 27 1 53.5t3 52.5q2 31 3 63t1 62q27 16 23 33.5 t-15 36.5q-6 10 -10 21.5t-4 21.5v1v1v1v1q0 14 1 29.5t1 29.5t1 29.5t1 30.5v23.5t-2 23.5t-3 23.5t-5 23.5q-4 2 -9 2h-11t-14.5 -1t-16.5 -1h-4h-6q-4 -2 -9.5 -2h-11.5q-20 0 -33.5 8t-15.5 35v15v16q-2 8 -2 15z" />
<glyph unicode="2" horiz-adv-x="1325" d="M61 53v3v3v1v3q0 18 6.5 32t16.5 26q0 2 1 3t1 3q8 10 15.5 22.5t9.5 28.5q6 6 12 14.5t12 14.5q2 2 4 5t2 5q16 18 32.5 35.5t43.5 26.5q2 8 6 16t6 16q29 68 76 130.5t107 101.5q8 35 25.5 68.5t35.5 64.5q0 2 1 3l3 3q23 41 42.5 83t19.5 87v7v7t-1 7.5t-1 7.5 q-10 6 -14.5 17t-8.5 24v3v3q-4 10 -7 18t-9 17q-6 14 -19.5 25t-27.5 22q-20 14 -37 29.5t-17 41.5q-16 2 -31.5 6.5t-29.5 10.5q-4 0 -7 1t-7 3q-27 8 -54.5 15t-60.5 7h-3h-1h-3h-3q-8 6 -13.5 14.5t-3.5 16.5q0 6 1 11t3 10q2 18 16.5 28t28.5 19q2 2 3 2t1 2 q18 8 30.5 19t12.5 30v9t-4 11q10 31 33 55.5t49 49.5q29 27 55.5 56.5t30.5 70.5q6 6 13.5 13t13.5 15q4 6 8 11.5t6 11.5q16 23 35 41t43 18q10 0 21.5 -5t25.5 -15q41 -8 73 -33.5t62 -54.5q61 2 115.5 -27.5t106.5 -64.5q16 -10 31.5 -20.5t31.5 -20.5q4 -6 7 -12.5 t5 -12.5v-1t2 -1q4 -14 10.5 -24.5t20.5 -14.5q6 2 12.5 3t10.5 1q25 0 42 -17.5t31 -39.5q6 -10 12.5 -19.5t12.5 -17.5q12 -16 16 -34.5t4 -37.5v-13v-13q-2 -8 -2 -14.5v-12.5q0 -14 2 -28.5t11 -28.5q-8 -82 -43 -151.5t-113 -104.5q-20 -41 -49 -77t-60 -71 q-20 -23 -40.5 -47t-38.5 -51q-2 -2 -2 -5v-7q0 -16 10 -28.5t24 -18.5l1 -1q1 -1 3 -1q10 4 21.5 6t21.5 2q12 0 25.5 -2t26.5 -4q12 -4 24.5 -6.5t24.5 -2.5q14 0 27.5 4.5t25.5 16.5h6h4q4 -2 6 -2h5h15t13 2h15.5h13.5q14 2 27.5 -1t27.5 -13q10 -27 15.5 -55.5 t5.5 -59.5q0 -12 -1 -25.5t-3 -27.5q-12 -10 -16.5 -23.5t-4.5 -30.5q0 -12 2 -23t4 -24q2 -6 2 -11t2 -11q2 -8 2 -17.5v-17.5q0 -14 -4 -28.5t-16 -26.5q2 -8 3 -15.5t1 -15.5q0 -20 -11.5 -39.5t-33.5 -30.5q-33 8 -64.5 10.5t-66.5 2.5q-29 0 -57.5 -2t-57.5 -5h-5h-5 q-31 -2 -62.5 -3t-62.5 -1q-20 0 -40.5 1t-41.5 3q-12 0 -24.5 -2t-26.5 -4q-4 0 -8 -1t-11 -1q-8 -2 -17 -3t-17 -1q-14 0 -29.5 4t-28.5 15q-2 2 -5 2h-7q-8 0 -15.5 -4.5t-15.5 -8.5q-2 0 -3 -1l-3 -3q-4 -4 -10 -6t-12 -2h-24.5h-25.5q-39 0 -75.5 4t-67.5 23 q-12 8 -20.5 2t-16.5 -15q-2 -4 -5 -8t-5 -6q-4 2 -10 2h-13q-10 0 -21 -1t-24 -1q-12 -2 -23 -3t-22 -1q-27 0 -49 10t-33 43z" />
<glyph unicode="3" horiz-adv-x="1241" d="M55 413v3q2 27 20.5 38t41.5 19q4 2 7 3t7 1h7h7q12 0 22.5 -3t20.5 -7q4 0 6.5 -1t6.5 -1q8 -4 17 -5t18 -1q10 0 19 2t19 10q16 2 35 4t35 4q25 4 50.5 7t49.5 3h19.5t17.5 -2q35 20 59.5 46t28.5 69q0 53 -37.5 87t-85.5 54q-8 -2 -17 -4t-19 -2q-8 0 -15.5 1t-13.5 3 q-23 6 -45.5 17.5t-38.5 27.5q0 18 11 27.5t26 17.5q8 6 16 11.5t15 13.5q55 45 99 97.5t52 123.5q-16 29 -38.5 42.5t-49.5 23.5q-6 2 -13 5t-14 5q-10 4 -20 9t-21 14q-16 -2 -34.5 -3.5t-38.5 -1.5q-39 0 -75 8.5t-60 30.5v1v3v4v1q0 23 13 39t30 30q0 2 1 2t1 2 q14 12 26.5 27.5t12.5 36.5v6t-3 6q0 2 -1 5t-1 5q6 18 20.5 33.5t31.5 30.5q20 18 36.5 37.5t16.5 48.5q-2 4 -2 7v5q14 8 20 20.5t13 24.5q0 2 1 3t1 3q6 12 13 25.5t21 21.5q20 -4 41 -8t41 -8q8 0 16.5 -2t16.5 -2q76 -14 148.5 -35.5t132.5 -71.5q6 0 13 -1t13 -1 q61 -10 115.5 -50t71.5 -93q33 -25 39 -54.5t8 -64.5q2 -10 2 -21.5t2 -23.5q0 -4 -1 -8t-3 -8q-16 -68 -47 -130.5t-82 -107.5q25 -6 36 -23.5t19 -37.5q0 -2 1 -3t1 -3q10 -23 22.5 -40.5t43.5 -17.5h3h3h1h3q27 -23 39 -50.5t22 -53.5q0 -2 1 -4t1 -4q8 -27 19.5 -52.5 t32.5 -46.5q4 -14 6 -29.5t2 -29.5q0 -59 -30 -108.5t-64 -92.5q-2 -2 -3.5 -3t-3.5 -3h-3h-3q-14 0 -24.5 -8t-16.5 -23q-2 -45 -32.5 -73.5t-67.5 -51.5q-6 -4 -12 -7t-13 -7q-6 -4 -13 -8t-13 -8q-6 2 -12.5 2h-10.5q-35 0 -61.5 -17.5t-52.5 -40.5q-27 -20 -53.5 -37.5 t-61.5 -17.5h-3h-1h-3h-3q-12 6 -24.5 9t-22.5 3q-23 0 -43.5 -10t-40.5 -20q-4 -2 -7.5 -4t-7.5 -4q-16 -10 -34.5 -16.5t-36.5 -6.5q-14 0 -27.5 5t-30.5 15q-23 12 -37 32t-26 42v1v1q-14 25 -31.5 47.5t-48.5 32.5q-8 12 -16.5 23.5t-18.5 21.5q-4 6 -8 11.5t-8 9.5 q-18 25 -34 50t-20 52q-14 2 -22 13.5t-14 23.5q-2 6 -4.5 11l-4.5 9v4.5v4.5q-2 2 -2 3z" />
<glyph unicode="4" horiz-adv-x="1488" d="M68 393q0 31 10 59.5t24 57.5l4.5 9l4.5 9q16 35 29.5 69t13.5 71v6v6q-2 2 -2 5v5q16 33 29.5 69t23.5 72q2 0 2 1.5v3.5q23 72 53.5 139t93.5 112q10 72 42 139.5t83 110.5q10 18 19.5 38t19.5 40q2 6 4 10.5t6 10.5q25 55 56.5 107t81.5 91q8 0 15 -1t15 -1h13.5h15.5 q25 0 48.5 1t47.5 3q23 0 46.5 1t47.5 1q41 0 81 -5t79 -17q14 10 30.5 13t33.5 3h9h9h5h5q6 -2 13.5 -2h13.5q10 0 20.5 1t18.5 3q23 -33 30 -67.5t7 -69.5q0 -27 -4 -56.5t-9 -60.5q-4 -8 -6 -17t-2 -20q0 -10 2 -21t4 -24q0 -10 2.5 -21t2.5 -24v-5v-7q-2 -20 -3.5 -40.5 t-3.5 -41.5v-7v-7q0 -39 -5 -79t-21 -75q16 -16 22 -35.5t6 -40.5q0 -8 -1 -16t-1 -16q-2 -8 -4 -16.5t-2 -16.5q-4 -16 -7 -31.5t-3 -30.5q0 -27 13.5 -47t49.5 -34h8.5h8.5h8h8q29 0 54.5 -7.5t33.5 -42.5v-17v-17v-39v-35q0 -39 -5 -76t-27 -72q4 -10 7 -21t5 -24 q2 -6 2 -11v-11q0 -10 -1 -19.5t-5 -17.5q-12 -12 -29.5 -16.5t-36.5 -8.5h-1h-3q-27 -4 -50.5 -13t-27.5 -40q0 -4 1 -9t3 -11q2 -18 5.5 -37t5.5 -39v-9v-12q0 -27 -7.5 -53t-29.5 -43q-14 4 -29.5 5t-32.5 1q-20 0 -39.5 -2t-38.5 -4q-20 -2 -38.5 -4t-36.5 -2 q-20 0 -40 3t-38 11q-10 4 -19.5 9.5t-19.5 11.5h-1h-3h-3h-1q-8 0 -15.5 -4t-13.5 -8l-2 -3l-12 -8t-15 -4q-10 4 -22 5t-25 1h-15t-15 -2h-23.5h-21.5q-27 0 -47.5 9.5t-30.5 37.5q-2 8 -2 15.5v15.5q0 14 1 27.5t3 27.5q0 14 1 27.5t1 28.5q0 33 -8.5 60.5t-32.5 47.5 q-10 0 -20.5 -1t-20.5 -1q-20 -2 -39.5 -3t-40.5 -1q-18 0 -35.5 1t-34.5 3q-16 0 -33.5 3t-35.5 7q-20 -4 -43 -8t-47 -4q-8 -2 -15.5 -2h-15.5q-33 0 -64.5 4t-60.5 12q-8 18 -13 37t-5 37zM434 733q10 -23 32.5 -30t47.5 -7h9h9q8 2 14.5 2t14.5 2q10 0 21.5 1t19.5 1 q27 8 34 28t11 42v1v1q2 10 4 21.5t6 19.5q-8 10 -12 21.5t-4 19.5q0 12 4 24.5t8 22.5q4 12 8.5 23.5t4.5 21.5q0 12 -6.5 24.5t-22.5 22.5q-2 4 -3 8.5t-1 10.5q-2 4 -2 8v8v11.5t2 9.5v11v9q0 14 -5 24.5t-24 18.5q-63 -76 -104 -168t-62 -186q0 -6 -1 -13.5t-3 -13.5z " />
<glyph unicode="5" horiz-adv-x="1146" d="M53 461q6 4 12.5 7t12.5 5q4 2 10 2h12t13.5 -1t13.5 -1q8 -2 17.5 -2h17.5q6 0 12 1t12 1q4 2 10.5 5t12.5 7q23 2 43 7.5t41 11.5q0 2 2 2h4q20 8 43 13t45 5h8t11 -2q4 0 8 -1t8 -1q10 16 21.5 30.5t23.5 29.5q4 4 6 7t6 5q23 29 41.5 57.5t18.5 65.5v12t-2 12 q-14 23 -35 28t-43 7h-2q-20 2 -40 5t-32 22q-27 -10 -52.5 -15.5t-53.5 -5.5q-39 0 -76 8.5t-72 20.5q0 6 -1 13t-3 16q0 4 -1 9t-1 11q-2 6 -2 12.5v12.5q0 16 5 29.5t17 21.5q-12 23 -16 46.5t-4 45.5q0 23 3 45.5t7 44.5q4 20 7 43t3 45l-4 40t-12 40q-2 8 -4 15.5 t-2 15.5q0 12 4 23.5t10 21.5q2 8 5 14t5 15q2 4 2.5 8t0.5 8q0 6 -1.5 11t-3.5 9t-6 9.5t-10 11.5q4 8 4 15v16q0 10 -1 19t-3 20v4v4q-2 12 -4 24.5t-2 22.5q0 23 11 40t44 25q23 -2 46.5 -3t47.5 -1h9.5h9.5h15h13q35 0 68 -2t64 -10q4 0 9 1t9 3q20 4 44 7t46 3 q16 0 29.5 -2t27.5 -6q4 4 6.5 6t6.5 4q2 0 5 1t5 1q4 0 9 -2t11 -4q0 -2 1 -2h2q6 -2 11 -4t11 -2q10 0 19.5 2t17.5 2q12 2 24.5 4t24.5 2h5h5t5 -1t6 -1q10 -4 19 -6t17 0q6 0 12.5 1t12.5 1h4t4 2q10 0 20.5 1t20.5 1q16 0 30.5 -7t22.5 -26q4 -18 6.5 -37.5t2.5 -39.5 v-12.5v-12.5q-2 -25 -6.5 -49.5t-12.5 -44.5q10 -12 14.5 -26.5t4.5 -30.5q0 -12 -2.5 -26.5t-4.5 -27.5q-2 -14 -4 -28.5t-2 -26.5v-1v-1v-1v-1q-57 -14 -113.5 -17.5t-115.5 -5.5h-20.5h-20.5h-53.5t-55.5 -2h-5h-7q-8 0 -15 1t-16 3q-8 0 -15 1t-15 1q-14 -2 -27.5 -8 t-24.5 -28q-2 -8 -3 -15.5t-1 -13.5q0 -27 15.5 -35t36.5 -8q8 0 17 1t17 1t17.5 1t17.5 1q14 0 26.5 -3t20.5 -9q8 0 16.5 -1t16.5 -1q78 -8 150.5 -35t113.5 -90q6 2 11.5 2h9.5q47 0 73.5 -35t47.5 -76l4 -8t4 -6q4 -12 9 -21.5t11 -19.5q6 -18 10.5 -38.5t6.5 -41.5 q2 -8 2 -15v-14q-2 -29 -7.5 -57.5t-19.5 -54.5q4 -8 7 -15.5t1 -15.5q0 -6 -2 -13t-4 -16q-2 -4 -4 -9t-4 -11q-4 -8 -8 -17.5t-6 -19.5q-10 -45 -38 -71.5t-59 -49.5t-57.5 -47.5t-38.5 -64.5q-45 -31 -91 -54.5t-97 -34.5q-35 -41 -85.5 -67.5t-103.5 -28.5h-8h-8h-4h-4 h-4h-5q-14 -18 -35.5 -26.5t-43.5 -12.5q-2 -2 -3.5 -2h-3.5q-8 -2 -17 -5t-17 -5q-8 4 -16.5 7t-18.5 7q-25 12 -48.5 28.5t-31.5 47.5q0 2 1 4t1 4q0 4 1 9.5t1 7.5q0 25 -14.5 42t-30.5 33q-18 16 -32.5 34t-14.5 44q0 2 1 4t1 4q0 4 1 9.5t3 9.5q-27 20 -45 53t-27 70 q-2 10 -3 21.5t-1 21.5z" />
<glyph unicode="6" horiz-adv-x="1396" d="M63 637v15v16q2 96 18.5 190t51.5 174q35 23 48.5 54.5t21.5 66.5q0 6 1 13.5t3 13.5q0 2 1 6t1 6q12 14 24.5 33.5t24.5 38.5q29 41 65.5 75.5t86.5 34.5h1h1h1h1q14 41 47 63.5t71 41.5q0 2 2.5 3t4.5 1q20 10 40.5 22.5t38.5 28.5q31 0 57.5 12.5t53.5 30.5q4 2 7 4 t7 4q29 20 61 36.5t68 16.5h4.5h6.5q2 -2 4 -2h4h4t6 2h5h5q29 0 53.5 -13t39.5 -40v-3v-3q0 -23 13 -35t30 -22q2 -2 3 -2t3 -2q16 -10 31.5 -23.5t17.5 -36.5v-3v-3q-2 -2 -2 -3v-3q0 -16 8 -30.5t18 -26.5q2 -2 3 -4.5t4 -6.5q6 -8 11 -16t7 -19q35 -20 56.5 -48.5 t27.5 -67.5q-6 -14 -14.5 -18.5t-18.5 -4.5h-6t-6 2h-7h-7h-5.5t-5.5 -2q-2 0 -5 -1t-5 -3q-23 -8 -43 -17t-41 -20q-2 -2 -4 -3l-2 -1q-39 -18 -77 -33.5t-81 -19.5q-4 -12 -14 -21.5t-23 -19.5h-1t-1 -2q-14 -10 -25.5 -23.5t-11.5 -29.5q0 -8 2.5 -15.5t6.5 -15.5 q14 -14 32.5 -18.5t36.5 -6.5h4h5q16 -2 30.5 -4t26.5 -8q33 -2 57.5 -18.5t48.5 -36.5l2 -1q2 -1 2 -3q20 -16 41 -30.5t45 -18.5q59 -45 103.5 -108.5t44.5 -141.5v-15.5t-2 -15.5q10 -14 13 -28.5t3 -28.5q0 -25 -9 -48.5t-21 -46.5q-2 -2 -3.5 -4t-3.5 -6 q-12 -23 -22 -47.5t-12 -50.5q-2 -51 -44 -97t-92 -75q-20 8 -33.5 0t-23.5 -23l-3 -3l-3 -3q-8 -10 -16.5 -18t-20.5 -13q-6 -2 -13 -4t-14 -6q-53 -16 -106 -31.5t-111 -15.5h-17t-17 2q-10 0 -18.5 2t-18.5 4q-20 -6 -40 -9t-38 -3q-43 0 -84 11.5t-82 25.5 q-25 8 -48.5 15t-47.5 14q-6 4 -13.5 11t-13.5 13q-16 16 -33.5 27.5t-38.5 5.5q-53 12 -78.5 53t-43.5 88q0 2 -2 4l-1 2q-12 31 -25 58.5t-34 48.5q-12 59 -18.5 124.5t-6.5 135.5zM539 473q8 -29 30.5 -46t46.5 -32q2 -2 3.5 -2t3.5 -2q12 -6 23 -14t22 -17q6 14 18 22.5 t25 14.5q2 2 4 2t4 2q6 4 14 8.5t15 10.5q16 18 27 38.5t11 47.5q0 6 -1 12t-3 12q-4 6 -8 11.5t-8 11.5q-25 35 -61.5 64.5t-86.5 29.5h-5h-5q-2 -2 -5 -2h-5q-37 -16 -47 -53t-10 -78q-2 -6 -2 -12v-13v-8v-8z" />
<glyph unicode="7" horiz-adv-x="1323" d="M59 1227q0 25 8.5 46t26.5 36q-6 10 -8 20t-2 21v11t2 11v9v12q0 14 -4 27.5t-21 23.5q2 14 2 26.5v22.5v30.5t5 26.5q0 10 3 19.5t7 19.5q37 18 80 28.5t88 14.5h12h12q35 0 68 -6t63 -18q29 10 58.5 16t58.5 8q10 2 20.5 2h20.5q41 0 79 -9t71 -30q8 2 16 4.5t16 4.5 q2 0 4.5 1t4.5 1q14 4 28.5 7t28.5 5q10 6 19.5 9t17.5 7q4 0 7 1t5 3q47 0 95 -1t96 -1q47 0 95 -1t97 -1q8 -8 10 -15t4 -17l1 -2q1 -1 1 -3q0 -4 2.5 -9l4.5 -9q2 -6 2 -11v-9q0 -31 -16.5 -53.5t-35.5 -43.5l-3 -3t-1 -3q-18 -18 -32.5 -39.5t-14.5 -50.5q0 -8 2 -15.5 t4 -17.5q-4 -18 -13 -34.5t-19 -32.5q-14 -23 -25.5 -46.5t-11.5 -54.5v-3v-3q-8 -37 -26.5 -69.5t-39.5 -63.5v-1q0 -1 -2 -3q-27 -41 -47 -84t-20 -96v-9.5v-9.5q-10 -20 -16.5 -41.5t-10.5 -44.5v-3v-3q-8 -31 -17.5 -61.5t-29.5 -57.5q0 -14 -5 -26.5t-12 -22.5 q-2 -6 -5 -10t-5 -8q-2 -6 -4 -13.5t-2 -13.5v-5t2 -7q2 -6 5 -11.5t9 -13.5v-9v-9q0 -37 -7 -73t-17 -71q-2 -4 -3 -9t-3 -11q-6 -29 -12.5 -59.5t-6.5 -61.5q0 -18 3 -36.5t10 -39.5q0 -2 1 -5t1 -5v-6v-6q0 -27 -16.5 -45.5t-45.5 -22.5q-10 -6 -19 -9t-20 -3 q-14 0 -28.5 6t-28.5 12q-8 4 -17.5 8.5t-17.5 8.5q-6 0 -11 1t-11 1q-12 0 -24.5 -7t-25.5 -24l-20 -4t-21 -2q-20 0 -40.5 5t-38.5 11q-20 6 -39 11.5t-37 5.5t-36.5 -7.5t-37.5 -25.5h-17.5h-19.5q-43 0 -83 7t-64 46q-2 4 -3 7t-1 8q-2 2 -2 6v6q0 20 10 37.5t22 34.5 q6 8 11.5 15t9.5 15q4 6 6 12.5t4 12.5q18 14 24.5 29.5t4.5 33.5q0 8 -1 16.5t-1 16.5v6v6q-2 6 -2 11.5v11.5q0 16 6 33.5t20 31.5q16 23 28.5 45.5t25.5 47.5q25 47 53 92t78 71q4 57 27.5 105.5t49.5 95.5q2 2 3.5 3t1.5 3q29 47 51 95.5t24 103.5q-8 8 -17 13t-20 7 q-4 0 -9 1t-9 1q-12 0 -23.5 -2t-21.5 -4q-12 -2 -23.5 -4t-23.5 -2q-14 0 -28.5 4t-28.5 19q-2 -2 -6.5 -4t-6.5 -4q-4 -2 -7 -4.5t-7 -4.5h-5t-7 2h-5.5h-5.5q-8 0 -17 -1t-17 -1q-8 -2 -15.5 -3t-13.5 -1q-20 -2 -38.5 -4t-37.5 -2q-27 0 -49.5 6t-40.5 23l-4 16t-6 17 q-2 12 -6 27.5t-7 29.5q-2 8 -3 18.5t-1 18.5z" />
<glyph unicode="8" horiz-adv-x="1404" d="M63 532v13.5t3 13.5q2 37 12 74t20 69q4 8 7.5 17.5t5.5 17.5q4 6 11 12.5t13 12.5v2h2q12 12 21.5 23.5t9.5 27.5v9t-4 12q6 8 14 15t15 13q4 4 8 8.5t8 6.5q23 23 40 45t17 53q-27 10 -39 29.5t-22 40.5q-8 20 -19.5 38.5t-33.5 28.5q-16 20 -23.5 44t-7.5 50 q0 8 1 16.5t1 16.5q4 16 9 33.5t9 32.5q14 10 18.5 21t4.5 22q0 6 -1 12t-1 12q0 4 -1 10.5t-1 12.5q0 10 4 21.5t18 19.5q12 10 24.5 21t26.5 24q31 29 68 53.5t82 24.5h3h3q35 37 85 54t104 17q16 0 31.5 -1t29.5 -5q6 -8 10 -11t10 -3q4 2 9.5 5t9.5 7q6 4 11 7t11 3 q10 4 19.5 4h17.5q20 0 38 -5t36 -11q2 0 3 -1t3 -1l40 -12t42 -6h10t13 2q4 0 7 -2.5t7 -2.5q16 -6 31.5 -16t27.5 -29q10 4 18.5 5.5t16.5 1.5q29 0 51.5 -15.5t44.5 -34.5q4 -4 8.5 -8t8.5 -8q8 -8 16 -15t17 -14q10 -18 17 -38.5t13 -41.5v-3t2 -1q8 -29 18.5 -55.5 t26.5 -50.5q4 -14 5.5 -29.5t1.5 -32.5q0 -51 -18.5 -96t-57.5 -74q-4 -18 -14.5 -28t-22.5 -19q0 -2 -2 -3t-4 -1q-12 -10 -21.5 -20t-9.5 -29v-1v-3v-3v-1q12 -10 24.5 -19.5t26.5 -21.5q37 -31 69 -69t32 -87v-3v-3q31 -6 44 -29.5t21 -48.5q2 -4 2 -6t2 -6q2 -6 5 -14 t5 -15q-2 -20 -3 -38.5t-3 -36.5q-2 -25 -4 -48.5t-6 -46.5q-2 -27 -9 -54.5t-18 -57.5q-25 -14 -38 -38t-23 -48q-2 -2 -3 -5t-3 -8q-10 -25 -25.5 -49t-44.5 -41q-20 -20 -45.5 -32.5t-52.5 -20.5q0 -2 -1 -2h-3q-23 -8 -45.5 -18.5t-42.5 -28.5q-20 -14 -45 -20.5 t-52 -6.5q-12 0 -25 1t-28 3q-14 0 -27.5 1t-27.5 1q-20 0 -40.5 -3t-41.5 -13q-10 -2 -21.5 -3t-21.5 -1q-31 0 -57.5 9t-53.5 22q-2 2 -5 3t-7 3q-29 14 -60.5 25.5t-70.5 11.5h-5h-7q-12 8 -25.5 15t-27.5 13q-2 2 -5.5 3t-5.5 1q-33 16 -62.5 37t-35.5 62q-55 27 -84 77 t-29 113v7.5v5.5q-20 29 -28.5 60.5t-8.5 63.5zM557 496q0 -23 13.5 -43.5t29.5 -38.5q6 -8 13.5 -16.5t13.5 -16.5q16 -10 36.5 -16.5t41.5 -6.5q14 0 27 3.5t26 7.5l12 8t14 8q14 10 27.5 21.5t11.5 25.5v3v3q4 10 5 21.5t1 19.5q-2 53 -37.5 82t-78.5 51q-4 2 -8.5 4 t-10.5 5q-16 10 -31.5 18t-27.5 18q-23 -12 -33 -33.5t-16 -43.5v-2l-2 -3q-2 -10 -6.5 -20t-8.5 -20q-6 -10 -9 -19.5t-3 -19.5zM627 1296q0 -23 9 -45t21 -43q0 -2 1 -4t4 -4q12 -2 23 -9t22 -13q2 -2 4 -3t4 -4q16 -12 33.5 -21t37.5 -9h3.5t3.5 2h3h3q4 14 5 27.5 t-1 27.5q0 41 -9.5 80t-21.5 74q-6 -2 -12 -2h-12q-8 0 -14.5 1t-14.5 1q-8 2 -17.5 2h-17.5q-14 0 -29.5 -6.5t-25.5 -26.5q-2 -6 -2 -12v-13z" />
<glyph unicode="9" horiz-adv-x="1402" d="M63 1112q8 25 13.5 50.5t11.5 49.5v4.5t2 4.5q12 66 31.5 127t64.5 106q20 18 42 34.5t48 18.5q57 68 134 89.5t159 29.5q8 0 17.5 1t17.5 1q23 2 45.5 5t42.5 5q98 -2 188.5 -24.5t159.5 -79.5q78 -16 128.5 -67.5t64.5 -127.5q61 -82 80.5 -183t23.5 -210v-27.5v-29.5 v-29.5t-2 -30.5q-4 -74 -26.5 -141t-79.5 -115q-4 -18 -10.5 -38.5t-12.5 -38.5q-23 -74 -66.5 -137.5t-121.5 -82.5q-63 -70 -140 -128t-171 -68q-37 -39 -84.5 -57.5t-94.5 -22.5h-11h-9q-18 0 -36.5 2t-35.5 6q-14 8 -22 21.5t-17 29.5q-8 18 -19 35t-38 23 q-14 53 -42 97t-58 87q-2 2 -3 4t-4 4q-14 18 -27 38l-26 40q-2 2 0 3t2 3l4 4t-2 4q31 16 63 29.5t62 26.5q2 2 5 3t5 3q66 25 127.5 54.5t110.5 80.5q4 4 4 10v13v3v3q-2 16 -12 29.5t-27 15.5q-4 0 -9 1t-9 1q-66 10 -129.5 36.5t-110.5 71.5q-86 27 -132 104t-60 163 q-4 16 -6.5 31.5t-2.5 31.5zM596 1130.5q0 -4.5 2 -8.5q2 -16 8 -31.5t15 -27.5q33 -29 67.5 -46.5t75.5 -17.5h9h9q33 10 43.5 38t12.5 61v12v12v23.5v21.5q-25 37 -52.5 70t-68.5 45q-12 -10 -24.5 -19.5t-22.5 -17.5q-18 -12 -33.5 -26.5t-28.5 -34.5q-6 -10 -9 -21.5 t-3 -23.5v-8.5z" />
<glyph unicode=":" d="M207 1020q0 6 1 12t1 15q0 6 1 12t1 12q2 18 3 38.5t1 43.5q0 16 -1 31.5t-1 32.5q-2 14 -3 30.5t-1 30.5q0 29 5 54.5t19 49.5q0 8 -2 15.5t-2 13.5q-2 10 -4 20.5t-2 20.5q0 6 2 13.5t4 15.5q41 16 83 21t87 5q29 0 57.5 -1t57.5 -3q10 -10 19.5 -14t17.5 -4q4 0 7 1 t7 3q4 0 8.5 2t8.5 4q8 4 18 7t23 3h2q4 2 9 2h9q12 0 24.5 -3t24.5 -7q6 -4 11.5 -6t11.5 -2q6 -2 11 -3t11 -1q8 2 17.5 4t17.5 8q23 -27 28 -63.5t7 -75.5v-8v-9v-13v-13q0 -14 1 -27.5t3 -25.5q-14 -12 -19.5 -25.5t-5.5 -28.5q2 -14 7.5 -30.5t11.5 -32.5 q4 -12 5 -24.5t1 -22.5q0 -20 -4 -41t-8 -41q0 -2 -1 -6t-3 -6q-4 -23 -9.5 -44.5t-5.5 -46.5q-6 -6 -12 -9t-12 -3t-12.5 3t-12.5 7q-12 6 -23.5 9.5t-25.5 -13.5q-8 10 -17.5 14.5t-19.5 4.5t-20.5 -4t-20.5 -11q-10 -6 -20.5 -10t-20.5 -4q-4 0 -9 1t-9 5q-6 2 -11.5 7 t-9.5 14q-20 -12 -44.5 -19.5t-51.5 -9.5h-9h-11q-27 0 -50.5 6t-44.5 17h-2q-8 0 -16 -3.5t-14 -5.5q-4 -2 -9.5 -4t-9.5 -4h-5h-5q-4 0 -9 2t-12 4q-14 31 -19 58.5t-5 54.5zM209 217q0 6 1 12.5t1 14.5q0 6 1 12t1 12q2 18 3 39t1 43q0 16 -1 31.5t-1 32.5q-2 14 -3 30.5 t-1 30.5q0 29 5 54.5t20 50.5q0 8 -2.5 15t-2.5 13q-2 10 -4 20.5t-2 20.5q0 6 2 13.5t4 15.5q41 16 83 21.5t87 5.5q29 0 57.5 -1.5t57.5 -3.5q10 -10 19.5 -14t17.5 -4q4 0 7 1t7 3q4 0 8.5 2t8.5 4q8 4 18 7t23 3h2q4 2 9 2.5t9 0.5q12 0 24.5 -3.5t24.5 -7.5 q6 -4 11.5 -6t11.5 -2q6 -2 11 -3t11 -1q8 2 17.5 4t17.5 8q23 -27 28 -63.5t7 -75.5v-8v-8v-13.5v-13.5q0 -14 1 -27.5t3 -25.5q-14 -12 -19.5 -25.5t-5.5 -27.5q2 -14 7.5 -31t11.5 -33q4 -12 5 -24.5t1 -22.5q0 -20 -4 -41t-8 -41q0 -2 -1 -6t-3 -6q-4 -23 -9.5 -44.5 t-5.5 -45.5q-6 -6 -12 -9.5t-12 -3.5t-12.5 3t-12.5 8q-12 6 -23.5 9t-25.5 -14q-8 10 -17.5 14.5t-19.5 4.5t-20.5 -4t-20.5 -10t-20.5 -10.5t-20.5 -4.5q-4 0 -9 1t-9 5q-6 2 -11.5 7.5t-9.5 13.5q-20 -12 -44.5 -19.5t-51.5 -9.5h-9h-11q-27 0 -50.5 6t-44.5 17h-2 q-8 0 -16 -3t-14 -6q-4 -2 -9.5 -4t-9.5 -4h-5h-5q-4 0 -9 2t-12 4q-14 31 -19 58.5t-5 54.5z" />
<glyph unicode=";" d="M135 -25q8 23 12.5 47.5t8.5 51.5q6 41 17 83t42 74v9.5v9.5q0 16 -2 31.5t-4 33.5q0 2 -1 6.5t-1 6.5q-2 14 -3 27.5t-1 25.5q2 27 10 50.5t29 43.5q-18 29 -24.5 61.5t-6.5 65.5v13.5v13.5q2 14 3 27.5t3 25.5q10 12 20.5 17.5t22.5 5.5q4 0 9 -1.5t10 -1.5q2 -2 3 -2 h1q8 -2 16 -3t16 -1q10 0 17.5 3t13.5 12q4 0 7 -1t7 -1h7.5h7.5h19t18 2h19h18q25 0 47 -5.5t39 -27.5q10 20 24 26.5t29 6.5q8 0 16 -1t19 -3h2t2 -2q10 0 20 -2.5t19 -2.5h3h3h1h3q4 -6 10 -8t12 -2t12.5 2t12.5 4q2 0 3 1t3 1q8 2 16.5 3t14.5 1q12 0 19 -9t9 -31 q2 -6 3.5 -11.5t1.5 -9.5v-9v-11q0 -23 -4.5 -43.5t-8.5 -42.5q-2 -2 -2 -4.5t-2 -4.5q-2 -12 -4 -23t-4 -24q-12 -12 -23.5 -26.5t-23.5 -30.5l-1 -2q-1 -2 -3 -2q-31 -41 -65 -76t-81 -47q-16 -51 -52 -88t-75 -70q-12 -10 -23 -19t-24 -18q-8 -8 -16 -14t-16 -14 q-23 -6 -39.5 -21.5t-30.5 -34.5l-5 -5l-5 -5q-14 -18 -30.5 -33.5t-39.5 -25.5q-2 0 -4 -1t-4 -1h-4h-4h-7.5t-7.5 2q-12 2 -25.5 9t-23.5 19zM207 1020q0 6 1 12t1 15q0 6 1 12t1 12q2 18 3 38.5t1 43.5q0 16 -1 31.5t-1 32.5q-2 14 -3 30.5t-1 30.5q0 29 5 54.5t19 49.5 q0 8 -2 15.5t-2 13.5q-2 10 -4 20.5t-2 20.5q0 6 2 13.5t4 15.5q41 16 83 21t87 5q29 0 57.5 -1t57.5 -3q10 -10 19.5 -14t17.5 -4q4 0 7 1t7 3q4 0 8.5 2t8.5 4q8 4 18 7t23 3h2q4 2 9 2h9q12 0 24.5 -3t24.5 -7q6 -4 11.5 -6t11.5 -2q6 -2 11 -3t11 -1q8 2 17.5 4t17.5 8 q23 -27 28 -63.5t7 -75.5v-8v-9v-13v-13q0 -14 1 -27.5t3 -25.5q-14 -12 -19.5 -25.5t-5.5 -28.5q2 -14 7.5 -30.5t11.5 -32.5q4 -12 5 -24.5t1 -22.5q0 -20 -4 -41t-8 -41q0 -2 -1 -6t-3 -6q-4 -23 -9.5 -44.5t-5.5 -46.5q-6 -6 -12 -9t-12 -3t-12.5 3t-12.5 7 q-12 6 -23.5 9.5t-25.5 -13.5q-8 10 -17.5 14.5t-19.5 4.5t-20.5 -4t-20.5 -11q-10 -6 -20.5 -10t-20.5 -4q-4 0 -9 1t-9 5q-6 2 -11.5 7t-9.5 14q-20 -12 -44.5 -19.5t-51.5 -9.5h-9h-11q-27 0 -50.5 6t-44.5 17h-2q-8 0 -16 -3.5t-14 -5.5q-4 -2 -9.5 -4t-9.5 -4h-5h-5 q-4 0 -9 2t-12 4q-14 31 -19 58.5t-5 54.5z" />
<glyph unicode="&#x3c;" d="M145 823q2 -23 48 -75q2 -2 112 -148q123 -166 115 -156q2 -6 69 -92q106 -137 117 -114q207 170 246 190q10 -20 -74 88q-33 41 -26 45q4 4 -31 45q-98 127 -96 125q10 -14 -68 107q51 45 92 98q4 6 92 131q84 117 101 135h6q-63 156 -129 139q-14 -4 -53 33 q-41 41 -54 43q-31 -6 -98 -100l-98 -127q-33 -41 -29 -45t-27 -45q-215 -276 -208 -266q-8 0 -7 -11z" />
<glyph unicode="=" d="M168 1053q0 8 1 17t5 17q2 4 4 7.5t2 5.5l2 2l4 8t2 8q0 2 -1 5t-3 5q-10 0 -12 6.5t-2 12.5v2v7t-2 5q2 25 14.5 32t30.5 7h14.5t16.5 -2q6 0 14 -1t14 -1t10.5 1t10.5 1q2 0 5 -2t7 -4q8 -6 16.5 -9t18.5 -3q14 12 29.5 15t31.5 3h14.5h16.5q6 -2 14.5 -2h16.5h5h5h5h5 q6 -8 12.5 -11t12.5 -3q4 0 8 1t10 1q4 0 9.5 1t9.5 1h3h1h1h3t2 2t2 2q0 2 1 4l1 2h1h3h1h1q8 0 16.5 1t16.5 1h6t6 2h11.5h11.5q10 0 20.5 -2t20.5 -8q4 0 10 1t12 3q10 2 19.5 4t19.5 2q6 0 12.5 1t12.5 1q23 0 39 -7t24 -28v-5v-5q0 -4 1 -10t1 -10v-10.5v-10.5 q0 -8 -2 -18.5t-12 -16.5q10 -14 15 -31.5t5 -37.5q0 -16 -3 -30.5t-9 -25.5q2 -4 2 -7v-5q0 -4 -1 -8t-3 -8q-2 -6 -4 -11.5t-2 -11.5q-8 2 -18.5 3t-22.5 1h-9h-9h-26.5h-25.5q-14 -2 -26 -3t-27 -1q-8 0 -17 1t-18 3q-10 0 -18 1t-19 3q-4 -8 -11 -11t-15 -3q-4 0 -8 1 t-9 3h-10h-6h-9t-7 -4q-8 -4 -16.5 -6t-16.5 0q-12 0 -24.5 3t-22.5 7q-4 2 -6 2t-4 2q-10 2 -19.5 4t-17.5 2q-6 0 -12.5 -1t-10.5 -3q-6 -8 -12 -11t-14 -3q-4 0 -9.5 1t-11.5 3h-3h-3q-4 2 -10 4t-11 2h-3h-1h-1h-1q-6 0 -12 -1t-12 -1h-5t-8 -2h-8h-8q-14 0 -25.5 5 t-17.5 20q4 10 6 19t0 18q0 8 -1 15t-1 15q-2 2 -3 5t-1 8q-2 10 -4 22t-2 25zM176 453q0 8 1 17t5 17q2 4 4 7.5t2 5.5l2 2q2 4 4.5 8t2.5 8q0 2 -1 5t-3 5q-10 0 -12.5 6.5t-2.5 12.5v2v7t-2 5q2 25 14.5 32t30.5 7h14.5t16.5 -2q6 0 14 -1t15 -1q6 0 10 1t10 1q2 0 5 -2 t7 -4q8 -6 16.5 -9t18.5 -3q14 12 29.5 15t32.5 3h14h16q6 -2 14.5 -2h16.5h5h5h5h6q6 -8 12 -11t12 -3q4 0 8 1t11 1q4 0 9 1t9 1h3h1h1h3t2 2t2 2q0 2 1 4l1 2h1h3h1h1q8 0 16.5 1t16.5 1h6t6 2h11.5h11.5q10 0 20.5 -2t20.5 -8q4 0 10 1t13 3q10 2 19 4t19 2q6 0 12.5 1 t12.5 1q23 0 39 -7t24 -28v-5v-5q0 -4 1.5 -10t1.5 -10v-10.5v-10.5q0 -8 -2.5 -18.5t-12.5 -16.5q10 -14 15.5 -31.5t5.5 -37.5q0 -16 -3 -30.5t-10 -25.5q2 -4 2 -7v-5q0 -4 -1 -8t-3 -8q-2 -6 -4 -11.5t-2 -11.5q-8 2 -18 3t-23 1h-9h-9h-26.5h-24.5q-14 -2 -26.5 -3 t-27.5 -1q-8 0 -17 1t-17 3q-10 0 -18.5 1t-18.5 3q-4 -8 -11.5 -11t-15.5 -3q-4 0 -8 1t-8 3h-10.5h-6.5h-9t-7 -4q-8 -4 -16.5 -6t-16.5 0q-12 0 -24.5 3t-22.5 7q-4 2 -6 2t-4 2q-10 2 -19.5 4t-17.5 2q-6 0 -12.5 -1t-10.5 -3q-6 -8 -12 -11t-14 -3q-4 0 -9.5 1t-11.5 3 h-3h-3q-4 2 -10 4t-10 2h-3h-1h-1h-1q-6 0 -12.5 -1t-12.5 -1h-5t-7 -2h-8.5h-8.5q-14 0 -25.5 5t-17.5 20q4 10 6 19t0 17q0 8 -1 15.5t-1 15.5q-2 2 -3 5t-1 8q-2 10 -4 22t-2 25z" />
<glyph unicode="&#x3e;" d="M145 428q37 -20 244 -190q10 -23 119 114q68 86 67 92q-8 -10 117 156q109 145 111 148q45 53 49 75q0 10 -6 11q6 -10 -211 266q-31 41 -27 45t-28 45l-99 127q-68 94 -96 100q-14 -2 -55 -43q-37 -37 -54 -33q-63 16 -129 -139h9q16 -18 98 -135q88 -125 92 -131 q41 -53 92 -98q-78 -121 -65 -107q0 2 -99 -125q-33 -41 -28 -45q4 -4 -29 -45q-84 -109 -72 -88z" />
<glyph unicode="?" horiz-adv-x="1056" d="M72 1180v5v5q0 23 13 39t30 28q16 14 29.5 31t13.5 41v9t-2 10q0 35 17 56t38 40q2 0 2 1v1q20 18 37.5 39.5t17.5 54.5v4v4q-2 2 -2 4v4q2 4 3 7.5t3 7.5v1v3q6 16 15.5 31.5t29.5 21.5q14 4 26.5 7t25.5 3q27 0 49 -10t43 -22l1 -1l1 -1q23 -12 45 -23.5t51 -11.5 q10 0 20.5 2t22.5 6q20 -33 53 -47t68 -25q31 -8 59.5 -19t48.5 -36q16 -16 37 -34.5t43 -37.5q41 -37 75 -82t34 -100q0 -10 -1 -21.5t-5 -23.5t-6 -25.5t-4 -27.5q0 -2 -1.5 -5t-1.5 -6q-6 -39 -20 -71.5t-61 -38.5q-6 -8 -9.5 -18.5t-5.5 -20.5q-4 -20 -12 -37.5 t-35 -21.5q-10 -10 -19.5 -20.5t-21.5 -20.5q-41 -43 -90 -78t-106 -43q-16 -27 -42 -46.5t-53 -35.5q-6 -4 -13 -8t-15 -9q-6 -4 -13.5 -8t-13.5 -8h-5h-7q-14 0 -24.5 4t-14.5 19q10 23 21.5 45t23.5 43q25 49 46 98t21 100q0 23 -5 46.5t-17 48.5q-20 25 -48 34t-56 17 q-23 4 -44.5 11t-39.5 22q-6 20 -17.5 26t-23.5 6q-4 0 -8.5 -1t-8.5 -1q-10 -2 -18 -3t-19 -1q-12 0 -22 4t-19 19h-6h-6h-8h-10q-25 0 -47.5 5t-34.5 23q0 4 -1 6.5t-1 6.5zM205 59q8 41 10 79t2 73v32.5t-2 35.5v16v16q-2 25 -3 50.5t-1 52.5q0 20 1 40.5t3 41.5 q4 16 18.5 30.5t28.5 18.5q14 -14 30.5 -19.5t33.5 -5.5h12t10 2h11.5h11.5h8t8 -2q4 0 8 -1t8 -3q8 16 23.5 22.5t32.5 6.5h7h7q4 -2 9 -3t10 -1q6 -2 11 -3t9 -1q4 -2 6 -3.5t6 -1.5h5h6q12 0 24 3.5t25 7.5q14 4 28.5 7t28.5 3h3h3q8 4 15.5 5t15.5 1q14 0 26.5 -5 l22.5 -9l8 -4l8 -4q8 -4 17.5 -6.5t19.5 -2.5t20.5 4.5t20.5 12.5q8 -20 14.5 -45t8.5 -49q2 -6 2 -12.5v-12.5q0 -25 -4 -47.5t-15 -42.5q10 -31 13.5 -62.5t3.5 -66.5v-20.5v-20.5v-11v-10q-2 -16 -2 -31.5v-29.5v-15.5v-15.5q-27 -27 -62 -35t-69 -8h-16.5t-16.5 2h-8h-8 q-12 0 -24.5 1t-25.5 1q-4 0 -9 -1t-11 -1q-8 0 -17.5 -1t-19.5 -3q-14 -4 -28.5 -6t-28.5 -2q-18 0 -37 3t-37 5q-8 2 -17.5 3t-17.5 3q-8 0 -17.5 1t-17.5 1h-13t-13 -2q-12 -2 -25.5 -5t-28.5 -9q-4 0 -9 3t-11 5q-2 2 -3 2t-3 2q-16 6 -28.5 16.5t-14.5 30.5z" />
<glyph unicode="@" />
<glyph unicode="A" horiz-adv-x="1996" d="M90 47q0 2 1 5t3 5q2 10 5 20.5t7 20.5q14 41 33 80t54 64q-2 6 -2.5 12t-0.5 12q0 35 13.5 63.5t40.5 49.5v4v6q-2 2 -2 4v4q0 37 17 66t36 55q23 29 39 58.5t16 68.5v3v3v1v3q2 2 2 5.5t2 5.5q8 20 17.5 37.5t27.5 31.5q8 53 22.5 103.5t59.5 89.5q-2 4 -3 8t-1 8 q-2 4 -2 8v9q0 14 4 27t6 28q6 16 9.5 32.5t3.5 30.5q0 16 -7.5 32.5t-25.5 31.5q-10 -2 -23.5 -4t-25.5 -2q-6 -2 -12.5 -2h-12.5q-29 0 -53.5 12t-30.5 45q-2 6 -3 11t-1 11q-2 6 -2 11.5v11.5q0 23 4 43t8 43q4 20 8.5 40.5t4.5 41.5q0 20 -5.5 38.5t-17.5 35.5v8v8 q-2 4 -2 8v8q2 37 13.5 70t43.5 53q4 2 7.5 3t7.5 1h6h6q14 0 28.5 -5t26.5 -11q14 -8 26.5 -13t25.5 -5q6 0 11 2t11 4q6 4 11 9t12 13q4 0 6 1t6 1h5h5q18 0 35.5 -4t36.5 -8q16 -6 32.5 -10t32.5 -4q12 0 24.5 4t24.5 12q8 -2 17.5 -3t17.5 -1q10 0 22.5 2t24.5 2 q2 2 4.5 2h4.5q12 2 26.5 3t26.5 1q20 0 39.5 -6t36.5 -22q25 16 50 21t52 5q14 0 28.5 -1t30.5 -1q14 -2 28.5 -3t29.5 -1q23 -2 43 2t41 12h4t4 2h4h4q33 -2 51.5 -23.5t32.5 -45.5q4 -8 7 -14.5t5 -12.5l3 -3t1 -3q8 -20 9.5 -37.5t3.5 -34.5q0 -27 5 -49t30 -45 q27 -35 35 -77t12 -87q6 -57 21.5 -111.5t72.5 -90.5q14 -18 17 -38t3 -40v-12.5v-10.5v-12v-12q0 -27 6.5 -49.5t32.5 -41.5q35 -25 47.5 -59.5t20.5 -73.5q0 -2 1 -5t1 -5q6 -31 15 -59.5t32 -53.5q6 -23 15.5 -44t17.5 -44q18 -43 32.5 -87t16.5 -89q4 -4 7 -9t7 -9 q23 -33 42.5 -66.5t19.5 -72.5v-8.5v-8.5q0 -6 -1 -10t-3 -8q-20 -35 -48 -47.5t-65 -20.5q-14 4 -28.5 12.5t-24.5 22.5q-4 -2 -8.5 -3t-8.5 -1q-27 -8 -58.5 -15.5t-64.5 -7.5q-27 0 -50 7.5t-44 21.5q-23 -8 -48 -17.5t-52 -11.5q-10 -2 -19.5 -2h-17.5q-18 0 -36.5 4.5 t-35.5 12.5q-18 6 -23 20.5t-5 28.5v4v4q0 18 -4.5 31.5t-28.5 15.5q-6 8 -11 17.5t-10 19.5q-8 18 -19 35.5t-34 25.5q-45 8 -88 12.5t-84 4.5q-57 0 -112.5 -9.5t-108.5 -29.5q-20 -16 -30.5 -41t-18.5 -51q0 -2 -1 -4t-1 -4q-12 -41 -31.5 -74t-75.5 -33h-1h-1h-1h-1 q-14 10 -27.5 14.5t-29.5 4.5q-14 0 -28.5 -3.5t-29.5 -7.5q-14 -4 -28.5 -7t-28.5 -3q-6 0 -13 2t-13 4t-13.5 5t-13.5 7q-16 -2 -33.5 -4t-36.5 -6q-12 -2 -23.5 -3t-23.5 -3q-14 -2 -27.5 -3t-25.5 -1q-35 0 -65.5 10t-53.5 37zM881 612q0 -10 3 -20t7 -19q2 -2 3 -4 t1 -4q10 0 20.5 -5t20.5 -11l1 -1l1 -1q12 -7 26 -13q5 -2 10 -2q10 0 21 7q23 6 30 17t7 26q0 10 -2 21l-4 22q-2 6 -3 12t-3 12q0 4 -1 10.5t-1 12.5v7t2 7q0 4 1 7t3 7q-4 8 -11 13.5t-16 11.5q0 2 -2 3t-4 3q-6 4 -11 9t-9 12q-6 4 -11.5 5t-9.5 1q-20 0 -27.5 -19.5 t-11.5 -42.5v-3t-2 -1q-2 -16 -7 -32.5t-15 -24.5q-2 -6 -4 -12.5t-2 -10.5z" />
<glyph unicode="B" horiz-adv-x="1662" d="M76 160q0 31 8 59.5t33 48.5q-18 23 -25.5 51.5t-7.5 59.5q0 20 3 38.5t5 35.5q12 23 17.5 46t5.5 46q0 29 -5.5 56.5t-11.5 55.5q-8 29 -13 57.5t-5 59.5q0 16 2 31.5t6 32.5q2 6 5 12t7 10q4 10 8.5 18.5t4.5 18.5v3v3l-1 1t-1 3q-18 27 -21.5 60.5t-3.5 70.5v4v7v9v9 v15.5v15.5q2 4 3 8t3 8q0 2 1 3l1 1q8 20 14.5 42t6.5 48v12.5t-2 12.5q-18 16 -25.5 37.5t-5.5 46.5q0 16 1 30.5t3 28.5q2 6 6 13.5t8 11.5q2 4 4 7t5 5q4 6 6 12.5t2 14.5v7t-2 5q-14 16 -20.5 35.5t-6.5 40.5q0 12 2 24.5t4 24.5q12 25 34 33t46 8h13.5t15.5 -2 q8 0 15 -1t13 -3q8 -10 20.5 -15.5t27.5 -5.5q8 0 14 2l12 4q6 6 11.5 9.5t11.5 7.5q4 0 7 1t5 3q14 2 27.5 2h25.5q27 0 53.5 -2t53.5 -2q27 -2 52.5 -4t49.5 -2q31 0 61.5 4t61.5 12q23 -8 45.5 -10t42.5 -2q25 0 49.5 3t48.5 7q4 0 8.5 1t8.5 1q27 4 55.5 8t58.5 4h7.5 h5.5h7h7q14 0 28.5 -1t28.5 -3q45 -4 89.5 -20.5t74.5 -44.5q4 2 9.5 2h9.5h8t8 -2q33 -6 64.5 -31t56.5 -53q0 -2 1 -3l3 -3q2 -16 12.5 -29.5t22.5 -28.5l1 -1l1 -1q10 -10 18 -20t15 -23q2 -10 5 -22.5t5 -24.5q2 -10 4 -20.5t4 -22.5q2 -8 3 -17t1 -20q0 -25 -8 -45 t-31 -37q4 -14 6 -27.5t2 -23.5q0 -47 -25.5 -82t-58.5 -65v-1t-2 -1q-14 -14 -27.5 -29.5t-25.5 -32.5q10 -10 21.5 -19t25.5 -18l2 -2q2 -2 4 -2q25 -16 44.5 -35.5t19.5 -52.5v-9t-2 -11q39 -12 56.5 -44t29.5 -67q2 -4 3 -9t3 -11t4 -11.5t4 -11.5q-4 -14 -6 -28.5 t-2 -30.5v-18.5t2 -18.5v-10t2 -9q0 -14 1 -28.5t1 -26.5q0 -39 -12 -71.5t-51 -55.5v-5v-5q0 -14 -6.5 -27.5t-14.5 -25.5l-1 -1l-1 -1q-6 -12 -12 -23.5t-6 -26.5v-2q-86 -86 -182.5 -121.5t-213.5 -35.5q-23 0 -47 2t-51 4q-2 2 -6 3t-6 1h-7h-7q-18 0 -36 -5t-34 -11h-6 t-6 2h-7.5h-7.5q-8 0 -17 -1t-20 -1q-8 0 -17 -1t-19 -1q-25 2 -48.5 6t-40.5 18q-2 0 -4 1t-4 1h-4h-4q-14 0 -26.5 -5t-22.5 -15q-6 -2 -13.5 -4t-15.5 -5q-8 0 -15 -1t-13 -1q-20 0 -41 3.5t-41 7.5t-41 7t-39 3q-20 0 -40 -5t-38 -20q-6 2 -11 4t-12 2q-6 2 -11 2.5 t-11 0.5q-18 0 -36.5 -3.5t-35.5 -7.5q-16 -6 -32.5 -9t-32.5 -3q-20 0 -40 9t-36 36q0 14 -1 28.5t-1 28.5q-2 14 -3 28.5t-1 29.5zM713 1186q0 -18 6 -38t14 -38q4 -10 8 -20.5t7 -20.5q6 -2 13 -3t15 -1q16 0 30.5 5t22.5 15q2 6 5.5 12.5t7.5 12.5q2 4 4 7t4 7 q10 14 18.5 29.5t8.5 32.5q0 6 -2.5 13t-6.5 15q-4 23 -21.5 33t-37.5 15q-8 2 -14.5 3t-12.5 3q-4 -6 -11 -8.5t-15 -4.5q-10 -2 -19.5 -6t-13.5 -18q-2 -6 -4 -11.5t-4 -11.5t-2 -11v-11zM731 602q0 -33 9.5 -64.5t29.5 -58.5q6 -2 13.5 -4t15.5 -2h7t5 2q12 2 24.5 8 t20.5 17q0 14 4 28.5t10 28.5v1v1q6 14 10.5 29.5t4.5 29.5q0 10 -3 21.5t-12 22.5q-10 20 -30.5 31.5t-42.5 13.5h-4h-5q-12 0 -23 -3.5t-22 -7.5q-2 -12 -5 -23t-3 -24q-2 -12 -3 -23.5t-1 -23.5z" />
<glyph unicode="C" horiz-adv-x="1626" d="M74 762q0 20 3 39.5t9 38.5q2 16 2 31.5t2 33.5q0 14 1 30.5t1 31.5q4 47 14.5 91t36.5 81q12 23 29.5 40t34.5 33q2 2 5 4.5t5 4.5q27 23 48.5 49t29.5 67q10 6 18.5 14.5t16.5 18.5q16 16 35.5 31.5t46.5 15.5q59 57 127.5 105.5t150.5 56.5q33 2 65.5 5t63.5 7 q12 2 22.5 3t20.5 3q43 6 87 11.5t89 7.5q16 -4 32.5 -6t31.5 -2q18 0 35.5 2t33.5 4q16 0 34 2t34 2h16.5t16.5 -2t16 -3t17 -5q14 18 37.5 24t48.5 6h13h13h6h7h12h10q2 0 4 -1t4 -3q10 -4 19.5 -12t15.5 -18q4 -4 6 -7.5t4 -7.5q-2 -14 -2 -27.5v-27.5q0 -27 2 -52.5 t4 -49.5v-8.5t2 -6.5q2 -23 3.5 -44t1.5 -44v-16v-17q0 -8 -1.5 -16t-3.5 -16q0 -8 1 -16.5t4 -16.5q0 -4 1 -8t1 -9l4 -24t2 -25q0 -14 -3 -26.5t-14 -22.5q-14 -10 -26.5 -14t-24.5 -4q-14 0 -27.5 4t-27.5 8q-14 6 -28.5 10t-29.5 4q-12 0 -24 -4t-27 -14q-8 2 -15 3 t-15 1q-14 0 -27.5 -2t-28.5 -4q-14 -4 -27.5 -6t-25.5 -2q-14 0 -27.5 4t-25.5 12q-31 -14 -59.5 -30.5t-57.5 -34.5q-8 -4 -16.5 -9.5t-16.5 -9.5q-29 -16 -57.5 -33.5t-56.5 -31.5q-16 -29 -24.5 -65t-8.5 -73v-9v-11q2 -45 15 -89t36 -79q29 0 50.5 -12.5t41.5 -28.5 q10 -6 21.5 -13.5t21.5 -13.5q12 2 24.5 3t24.5 1q23 0 44.5 -2t43.5 -6q20 -2 42 -5t42 -3q23 0 46.5 5t43.5 18q6 -2 12.5 -3.5t12.5 -3.5h6h6q14 0 29.5 2.5t30.5 6.5q16 2 30.5 4t28.5 2q29 0 49.5 -13.5t28.5 -52.5l4 -8t2 -8q2 -4 2 -8v-9q0 -12 -3 -23t-7 -22 q-6 -12 -9 -23t-3 -22q0 -10 4 -19t12 -20q10 -14 12 -27.5t2 -27.5t-3 -29.5t-7 -29.5q-4 -16 -7 -30.5t-3 -31.5q0 -12 3 -24.5t9 -24.5q-2 -8 -3 -17t-1 -18q-4 -27 -11 -51t-40 -37q-4 0 -9 1t-10 1q-6 2 -11 2h-9q-18 0 -36.5 -2t-37.5 -6q-18 -2 -35.5 -5t-35.5 -3 q-10 0 -20.5 1t-20.5 5q-10 2 -20.5 8t-20.5 15q-33 -14 -70 -21.5t-78 -7.5q-45 0 -87 7t-77 20q-18 -6 -41.5 -12.5t-48.5 -8.5h-11h-9q-18 0 -34.5 4t-33.5 13q-8 -2 -14 -2.5t-12 -0.5q-45 0 -80 18.5t-68 43.5q-27 18 -55.5 34.5t-63.5 22.5q-37 10 -58.5 36t-39.5 56 q-2 0 -2 1t-2 4q-16 27 -35.5 50t-50.5 38q-61 72 -96 153.5t-37 173.5q-23 20 -33 49t-10 62z" />
<glyph unicode="D" horiz-adv-x="1888" d="M86 113q0 27 6 51t12 49q6 23 12.5 47.5t6.5 50.5q0 10 -1 21.5t-5 21.5q-2 16 -4 35t-4 37l-3.5 14t-1.5 15q-2 18 -4 37.5t-2 37.5q0 29 5.5 55.5t17.5 51.5q-10 51 -14.5 101t-4.5 100q0 35 1 70.5t3 70.5q2 8 2.5 17.5t2.5 17.5q2 45 4 89t2 89q0 39 -2 78t-9 78 q8 10 10.5 17t2.5 15t-3 15.5t-7 15.5v1v3q-6 10 -9.5 20.5t-3.5 22.5v8t2 9v21v22q0 23 5.5 45t23.5 36q41 20 84 27.5t86 7.5q25 0 51.5 -2t52.5 -2q27 -2 54.5 -4t56.5 -2q8 -6 15.5 -9t15.5 -3t17 3t18 5q10 4 19 6t17 2q6 0 12.5 -1t14.5 -1q6 -2 12 -2h13q23 0 46 2 t46 6q23 2 45 4t45 2q29 0 54.5 -5t51.5 -17q4 -2 7.5 0t5.5 4q2 4 5 5t7 1q20 6 39.5 8t38.5 2q76 0 141.5 -33.5t128.5 -74.5q37 -23 73 -45.5t75 -36.5q6 -8 12 -15.5t12 -17.5q4 -4 7 -9t7 -9q16 -25 36 -46.5t46 -31.5q43 -35 65.5 -79t43.5 -89q0 -2 1 -5t3 -5 q4 -12 10 -25.5t13 -26.5q31 -47 48 -105t21 -118v-11v-11q0 -45 -8 -87t-27 -79q2 -12 2 -24.5v-22.5q0 -70 -22.5 -133.5t-81.5 -100.5q-18 -96 -92 -165.5t-166 -96.5q-41 -68 -110.5 -88t-145.5 -29q-4 -2 -10 -2h-11q-20 -2 -39.5 -5t-37.5 -5q-16 16 -34 22.5t-34 6.5 t-32.5 -4t-30.5 -9q-16 -4 -33 -8t-33 -4q-14 2 -26.5 5t-24.5 12q-27 -6 -55.5 -10.5t-57.5 -6.5h-19h-20h-15h-15q-37 2 -73 7t-69 14q-27 0 -55.5 -5.5t-56.5 -9.5q-10 -2 -20.5 -3t-20.5 -3q-23 -4 -45.5 -6t-42.5 -2q-41 0 -78 12.5t-66 44.5q-4 16 -6 29.5t-2 26.5z M768 934q10 -41 13 -85t5 -91v-6v-7q2 -37 4.5 -72.5t8.5 -68.5l4 -8t4 -6q0 -4 2 -8t4 -9q10 -6 22.5 -9t24.5 -3q4 0 7 1t7 1q16 2 31 7t25 12q59 2 101 45t69 96q10 18 18 35.5t17 34.5q0 37 -4.5 70.5t-10.5 66.5q0 4 -1 6t-1 4q-2 14 -4 28.5t-4 28.5 q-27 25 -50.5 45.5t-47.5 38.5q0 2 -1 3t-3 1q-4 4 -9.5 8.5t-9.5 8.5q-20 8 -44.5 12t-49.5 6q-4 0 -9 1t-12 1q-6 0 -13 1t-15 3q-37 -14 -44 -43.5t-9 -60.5q-2 -25 -5.5 -48.5t-19.5 -39.5z" />
<glyph unicode="E" horiz-adv-x="1198" d="M55 1522q0 16 2 34.5t9 36.5q14 18 34.5 24.5t42.5 6.5h13.5t15.5 -2q8 0 15.5 -1t13.5 -3q10 -4 21 -6t22 -2q16 0 32.5 3t32.5 7q16 2 32.5 5t35.5 3q10 0 21.5 -2t23.5 -6q6 -2 11 -4t11 -6q16 6 32 10l32 8q14 2 30.5 3t30.5 1q33 0 66 -3t65 -9h3.5h3.5 q31 -4 62.5 -8t61.5 -4q18 12 45 20t56 10h12h12q35 0 64 -12t41 -41q-2 -10 -4 -20.5t-2 -20.5q0 -20 4 -41.5t10 -42.5q4 -23 8 -44t4 -42q0 -12 -2 -23.5t-6 -21.5q0 -4 1 -10t1 -12q2 -6 2 -12.5v-14.5q2 -6 2 -12v-13q0 -16 -4 -30.5t-18 -24.5q-39 -6 -75 -8t-71 -2 h-24.5h-24.5h-12t-12 2h-37h-37h-12.5h-12.5q-27 -14 -42 -31.5t-29 -44.5v-3v-1v-3v-3q0 -37 24.5 -49.5t55.5 -20.5h5t5 -2q14 -2 26.5 -5t22.5 -9q25 14 60.5 20.5t74.5 6.5q27 0 52.5 -2.5t47.5 -6.5q14 -12 19.5 -25.5t5.5 -29.5q0 -14 -4 -29.5t-10 -31.5q0 -16 3 -34 t7 -34t7 -32.5t3 -33.5q0 -14 -4 -29.5t-14 -31.5q-10 -8 -21.5 -11t-23.5 -3q-10 0 -21.5 2t-21.5 6q-12 2 -23.5 4t-21.5 2q-12 0 -24.5 -4t-25.5 -14q-6 2 -12 3t-12 3q-6 0 -11.5 1t-11.5 3q-12 2 -24.5 3t-24.5 1q-20 0 -39.5 -6t-36.5 -23q-2 -6 -3 -12t-1 -14 q0 -2 -1 -4t-1 -5q0 -12 -5 -25t-17 -24v-7v-7q2 -35 19.5 -66.5t53.5 -42.5q8 -2 15.5 -3t15.5 -1h13.5h15.5q25 0 49.5 2t46.5 7q25 2 48.5 4t45.5 2q14 0 28.5 -1t29.5 -3q14 -4 28.5 -8.5t28.5 -10.5q16 -12 20.5 -25.5t4.5 -29.5q0 -10 -2.5 -20.5t-2.5 -18.5 q-2 -10 -4 -19.5t-2 -19.5q0 -8 2 -17.5t9 -17.5q4 -12 6 -23.5t2 -21.5q0 -16 -3 -31.5t-7 -29.5q-2 -6 -4.5 -11.5t-2.5 -9.5l-4 -20t-2 -21q0 -12 3 -24.5t10 -24.5v-3v-1q0 -25 -13.5 -45.5t-36.5 -34.5q-125 -6 -242.5 -6h-236.5h-4h-4q-45 2 -90 2h-90 q-70 0 -141.5 -1t-143.5 -5q-27 27 -44 62.5t-17 74.5q0 12 2 24.5t6 24.5q4 8 7 14.5t3 12.5t-2 12l-4 12q0 2 -1 5l-1 2q-4 10 -6 21t-2 22v1v3v3v1q6 20 9 39.5t5 40.5q2 18 3 37.5t1 40.5q0 29 -2 58.5t-4 57.5l-4 74t-2 74q0 29 2 56.5t6 55.5q-4 29 -6 62t-4 65v13.5 v13.5q0 43 4 85t14 79q-14 23 -21 52.5t-7 61.5v8.5v10.5q2 27 9 51.5t15 44.5q-16 37 -25.5 74t-9.5 76z" />
<glyph unicode="F" horiz-adv-x="1220" d="M55 1518q0 14 1 28.5t3 28.5q0 6 1 13t1 14q27 20 58 27t63 7h19.5t17.5 -2q10 0 19.5 -1t17.5 -1q18 -2 36.5 -4t35.5 -2q16 4 32.5 5t34.5 3q16 2 32.5 2h33.5q29 0 57.5 -1t56.5 -3q29 -2 58 -3t57 -1q27 0 52.5 2t52.5 4q25 2 49 3t51 1q25 0 50.5 -1t51.5 -1 q25 0 50.5 -1t50.5 -1q8 -2 15 -6t15 -10q10 -14 13.5 -28.5t3.5 -28.5q0 -12 -2 -24.5t-4 -25.5q-2 -12 -4 -23t-2 -24q0 -8 1 -15t5 -13q2 -8 7 -15.5t13 -15.5q-2 -12 -2 -23.5v-21.5q0 -16 1 -31.5t3 -32.5q0 -4 1 -9t1 -9q0 -10 1 -20.5t1 -20.5q0 -12 -1 -25.5 t-5 -27.5q-16 -8 -33.5 -13.5t-35.5 -5.5q-14 0 -30 3t-32 10q-16 -4 -33.5 -5.5t-33.5 -1.5q-12 0 -25.5 1.5t-26.5 1.5q-14 0 -27.5 1t-25.5 1q-39 0 -73.5 -11.5t-59.5 -52.5q2 -4 2 -8v-8v-11.5t-2 -11.5v-6v-6q-2 -8 -3 -16.5t-1 -16.5q0 -18 9 -32.5t36 -20.5 q18 -4 35.5 -6t34.5 -4h17h17h27.5t28.5 2h13t13 2q20 0 42 1t42 1h12.5h14.5q6 0 12 -1t12 -1q16 -20 21.5 -44t5.5 -46q0 -10 -1 -19.5t-1 -19.5t-1 -19.5t-1 -19.5q0 -14 2 -29.5t10 -30.5v-5v-5v-5v-7q-2 -27 -10 -51.5t-39 -36.5q-14 2 -27.5 2h-27.5q-23 0 -44.5 -2 t-43.5 -4q-20 -2 -41 -5.5t-41 -5.5q-16 -4 -33.5 -6t-34.5 -4q-25 -18 -33 -41.5t-8 -50.5q0 -10 1 -21.5t3 -21.5v-5v-5q2 -14 3 -27.5t1 -25.5q0 -14 -2 -26.5t-6 -25.5q4 -6 6 -12t5 -10q2 -6 2 -12.5v-12.5q0 -12 -2.5 -23.5t-2.5 -21.5q-2 -12 -4 -23.5t-2 -21.5 q0 -14 4.5 -26.5t14.5 -24.5v-5v-5v-6v-7q0 -29 -7.5 -57.5t-23.5 -52.5q-10 -12 -23.5 -16.5t-27.5 -4.5q-8 0 -17.5 1t-17.5 3q-8 0 -17.5 1t-17.5 1q-14 0 -25.5 -3t-21.5 -13q-8 6 -17.5 11t-17.5 8q-10 4 -18 4h-19q-18 0 -35.5 -4.5t-35.5 -8.5q-18 -6 -37 -10t-37 -4 q-10 0 -21.5 2t-21.5 6q-10 10 -19.5 10t-17.5 -2q-2 -2 -5 -3t-5 -1q-6 -4 -13.5 -6t-13.5 -2h-4t-4 2q-2 0 -4 1t-4 1t-5 1t-5 1q-8 0 -14.5 1t-12.5 1q-29 4 -54.5 15.5t-27.5 40.5v6t2 6v5v5q0 18 -3 35.5t-7 36.5q-4 20 -7 39.5t-3 38.5q0 20 7 39.5t21 35.5 q-8 72 -11 141.5t-3 137.5v41.5t2 42.5v50.5v51.5q0 53 -2 108.5t-8 110.5v11.5t2 11.5v11v11q0 33 -2 68t-4 72q-2 27 -4 52.5t-4 51.5v22.5v20.5q0 29 2 58.5t6 56.5q-10 16 -14.5 33.5t-4.5 38.5z" />
<glyph unicode="G" horiz-adv-x="1658" d="M76 688q6 31 6 61.5v61.5v12v13q0 16 1 31.5t1 31.5q2 14 5 30.5t7 31.5q23 31 34 68.5t20 76.5v3t2 3q14 66 38.5 125t96.5 88q31 76 101.5 126t148.5 75l16 4l16 4q47 37 109.5 56.5t128.5 29.5q12 2 24.5 4t24.5 4q35 6 68.5 8t66.5 2h37t37 -2h17.5h19.5 q27 -2 54.5 -3t55.5 -1q25 0 50.5 1t52.5 3q4 -2 8 -3t10 -1q4 -2 8.5 -2h8.5q8 0 15 1t15 3q8 0 15.5 1t15.5 1h7t7 -2q2 0 6.5 -1t6.5 -3q35 -14 43 -39.5t8 -54.5v-15.5v-15.5q-2 -8 -2 -15v-15q0 -20 4 -38t16 -34q-6 -12 -8 -25.5t-2 -27.5q0 -16 3 -33t5 -33 q4 -18 6 -34.5t2 -32.5q0 -27 -13 -50.5t-50 -38.5q-16 -2 -33.5 -3t-34.5 -1q-33 0 -63.5 3t-61.5 8q-4 0 -8 1t-8 1q-35 4 -69.5 8t-71.5 4q-25 0 -49.5 -2t-51.5 -8q-55 -8 -101 -36t-91 -59q-12 -10 -23.5 -18t-23.5 -16q0 -39 -8.5 -76t-16.5 -74q-2 -6 -3 -13t-3 -13 q-8 -31 -13 -62t-5 -63q0 -12 1 -24.5t3 -25.5q10 -41 33.5 -71.5t52.5 -59.5l1 -1l1 -1q12 -12 24.5 -25.5t22.5 -27.5q8 -2 15 -3t16 -1q29 0 54.5 11.5t41.5 31.5v20.5t2 22.5v25.5v27.5v28.5t-2 29.5q-2 35 -7 66.5t-18 58.5q0 6 1 12t3 12q2 20 12.5 39.5t35.5 24.5 q18 4 36.5 5t38.5 1h20.5h18.5q10 -2 20.5 -2h18.5q29 0 55.5 2t53.5 10q10 -6 19 -10t20 -6q8 -2 18 -3.5t18 -1.5q18 0 36 3.5t34 7.5q16 2 32.5 5t33.5 3q25 0 48 -9.5t44 -37.5q-2 -12 -3 -25.5t-1 -25.5q-2 -12 -2 -25.5v-26.5q0 -45 4 -89t6 -89q2 -2 2 -4v-6 q4 -45 7 -92t3 -94q0 -31 -2 -62t-6 -61q0 -6 1 -14.5t1 -16.5q2 -6 2 -14v-17q2 -8 2 -15v-15q0 -27 -3 -53.5t-11 -47.5q-31 -31 -70 -40t-80 -9q-16 0 -32.5 1t-32.5 1t-32.5 1t-33.5 1h-17t-18 -2q-8 0 -17 -1t-17 -3t-15.5 -2h-13.5q-23 0 -44.5 3t-43.5 7q-20 4 -42 7 t-44 3q-20 0 -40 -3t-40 -13q-4 0 -7 -1t-7 -1h-7.5h-7.5q-25 0 -48 4t-46 10q-6 0 -14 2t-15 5q-16 2 -30.5 4t-30.5 2q-14 0 -27.5 -2t-27.5 -7q-109 4 -199 65.5t-160 137.5q-94 86 -146 197.5t-79 226.5q-2 10 -4 20.5t-4 20.5z" />
<glyph unicode="H" horiz-adv-x="1677" d="M76 1473q0 14 1 29.5t3 29.5q0 8 1 15t1 16q2 6 3 13t1 15q25 16 53.5 22.5t61.5 6.5q10 0 20 -1t21 -1q23 -2 43 -7t39 -12q23 12 50 18.5t56 6.5q31 -2 60.5 -8t50.5 -19q25 8 52.5 14.5t55.5 6.5h9.5h11.5q4 0 9 -1t9 -3q20 -20 28.5 -46t8.5 -55q0 -12 -1 -24t-5 -25 q-14 -12 -13 -22t7 -21q0 -2 2 -4t2 -6q6 -8 10 -18.5t0 -22.5q4 -8 6 -18.5t2 -20.5v-9t-2 -11q0 -4 -1 -9.5t-1 -11.5q-2 -10 -4 -19t-2 -18q0 -18 10 -31.5t39 -21.5q16 -2 34.5 -4t39.5 -2q29 0 53.5 8t36.5 31q2 33 3 64.5t3 62.5v31.5v31.5q0 41 -1 81t-3 81 q10 18 29.5 29.5t40.5 19.5q2 0 5 2t5 2h5h3q16 0 29.5 -5t25.5 -15q53 6 106.5 8t108.5 2h41t41 -2q41 0 83 -2t81 -4q8 -4 11.5 -10t5.5 -13v-2q2 -4 2 -6t2 -4q0 -20 2 -41.5t4 -42.5q0 -20 2 -41.5t2 -42.5q0 -20 -3 -41.5t-9 -40.5q14 -18 19 -36.5t5 -36.5 q0 -16 -3 -32t-7 -32q-4 -18 -7 -35.5t-3 -34.5q0 -18 6 -36.5t20 -34.5q4 -10 6.5 -19.5t2.5 -19.5q0 -18 -6.5 -35.5t-12.5 -34.5q-4 -8 -7 -17t-5 -18l-4 -16t-2 -16q0 -14 7 -29.5t25 -32.5q-4 -25 -7 -49.5t-3 -48.5q0 -25 2 -48.5t4 -47.5q4 -29 6.5 -56.5t2.5 -56.5 q0 -39 -7.5 -78t-27.5 -78q20 -33 26 -65.5t6 -67.5q0 -16 -1 -32.5t-1 -32.5q-2 -18 -3 -35t-1 -33v-17.5t2 -19.5q-4 -4 -7 -8t-5 -10q-6 -8 -12 -16.5t-19 -14.5q-51 8 -104 10t-107 2q-51 0 -105 -2t-108 -6q-27 0 -54 -1t-54 -3q-2 0 -4 1l-2 1q-25 8 -46.5 30.5 t-27.5 49.5q-2 16 -3 31.5t-1 29.5q0 8 -1 15.5t-1 15.5q0 23 -1 47.5t-7 50.5q4 45 6 89.5t2 87.5q0 47 -3 91t-13 85q-12 14 -26.5 18t-31.5 4q-6 0 -12 -1t-10 -1q-8 -2 -16.5 -3t-16.5 -3q-10 -2 -18.5 -4t-16.5 -4q-18 -10 -22.5 -29.5t-4.5 -40.5v-2v-2 q-2 -18 -5 -35.5t-17 -29.5q10 -31 16 -63t6 -66v-13.5v-15.5q-2 -29 -9 -56.5t-17 -52.5q12 -27 20 -57.5t8 -62.5q0 -20 -5 -42t-17 -38q-12 -12 -25.5 -17.5t-27.5 -3.5q-12 0 -23.5 2t-21.5 4q-12 2 -23.5 4t-23.5 2q-14 0 -26.5 -4t-25.5 -14q-12 4 -23 7t-22 5 q-10 2 -21 3t-24 1q-25 0 -48 -3t-48 -5q-25 -4 -48.5 -7t-47.5 -3q-27 0 -53.5 5t-53.5 20q-20 47 -28.5 97t-8.5 101q0 39 3 78t8 78q2 14 3 26.5t1 26.5q4 27 5 52.5t1 52.5v11v11q-2 6 -2 11v12q-8 20 -12.5 41.5t-4.5 42.5q0 14 1 27.5t3 27.5q0 8 1.5 14t3.5 15 q2 20 4 40.5t2 40.5q0 18 -2 36t-9 34q-2 6 -4 13.5t-4 13.5q0 6 -1 13t-1 13q0 18 3 37t10 37q4 18 7 36.5t3 37.5q0 10 -1 18t-5 19q-2 8 -7.5 17t-11.5 18q0 16 -2 32.5t-2 34.5q-2 4 -2 10t-2 13q0 10 -1 22t-1 23q0 16 2 33.5t8 31.5q-10 23 -14 47.5t-4 51.5z" />
<glyph unicode="I" horiz-adv-x="811" d="M68 1552q0 31 16 53.5t61 30.5q18 -2 37 -4t35 -2q27 -2 52.5 -4t49.5 -12q25 12 52.5 18t56.5 6h13.5t15.5 -2q20 -2 40.5 -8t39.5 -16q16 8 35.5 14t37.5 8q6 2 11.5 2h9.5q29 0 55.5 -13t40.5 -46q2 -14 2 -26.5v-24.5q0 -20 -1 -40t-3 -38q-2 -20 -3 -39.5t-1 -38.5 q0 -27 5 -54.5t17 -55.5q-4 -27 -6 -51.5t-2 -49.5q0 -29 2 -57.5t6 -57.5v-6t2 -8q2 -31 5.5 -62.5t3.5 -66.5q0 -20 -2 -43.5t-7 -48.5q0 -23 2.5 -47.5t4.5 -48.5q2 -23 3.5 -47.5t2.5 -49.5v-16v-16q0 -35 -2.5 -70t-14.5 -65q6 -8 8.5 -15.5t2.5 -17.5q0 -6 -1 -11.5 t-1 -9.5q-2 -8 -2 -15v-13q0 -8 3 -16.5t11 -16.5q-6 -20 -9 -42t-3 -42q0 -16 1 -32.5t3 -31.5q0 -16 1.5 -32.5t0.5 -32.5q0 -18 -2 -36.5t-6 -39.5q-10 -27 -32 -36t-44 -9h-8.5t-8.5 2q-4 0 -8 1t-8 1q-14 8 -27.5 11t-29.5 3q-12 0 -25.5 -2t-26.5 -2q-14 -2 -27.5 -4 t-25.5 -2q-14 0 -27.5 2t-27.5 10q-25 -8 -52.5 -12t-56.5 -4q-12 0 -26.5 1t-26.5 1q-8 0 -14 1t-15 1q-20 2 -39.5 3t-37.5 1h-12.5h-12.5q-4 0 -6 -1t-6 -1q-12 37 -19.5 74t-7.5 76q0 29 5 57.5t14 54.5q-8 27 -10.5 51.5t-2.5 49.5q0 31 3 59.5t7 59.5q4 29 7.5 57.5 t3.5 58.5q0 29 -4 59.5t-17 63.5v4v4v2v4q0 18 -2 38t-4 38t-4 35.5t-2 36.5q0 12 1 24.5t5 24.5q2 10 7 22.5t12 24.5q-19 35 -21 75q-1 22 -1 45q0 18 1 36v5v7v12.5v12.5v16t-2 16q0 6 -1 14.5t-1 16.5q0 10 3 19.5t5 17.5q2 10 5 21.5t3 21.5t-3 19.5t-13 17.5q0 4 1 8 t1 10q2 4 2 8.5v8.5q0 10 -1 20t-3 21q0 8 -2 17t-4 20q-4 20 -7 39.5t-3 37.5z" />
<glyph unicode="J" horiz-adv-x="1255" d="M58 488q1 6 3 12q10 6 19.5 8t17.5 2q10 0 20.5 -2t20.5 -6q2 0 4 -1t7 -1q12 -4 24 -7.5t27 -3.5h1h3h3h1q14 4 29.5 4.5t29.5 0.5h21.5h23.5q10 -2 21.5 -2h23.5q63 35 101.5 93t68.5 122q4 10 9.5 21t9.5 22l12 24t12 25q0 10 -2 20t-2 21q-4 35 -7 71.5t-5 73.5 q0 18 -1 36.5t-1 37.5q0 41 4 79t12 70q-14 16 -20 38t-8 42v10.5v8.5q0 8 1 16t1 16q0 4 1 8.5t1 10.5q0 12 1 24.5t1 24.5v7v5q-2 4 -2 7.5v5.5q2 8 3 16t-1 16q0 10 -1 20.5t-1 20.5t-1 21.5t-1 21.5q2 27 9 49.5t32 34.5h6t6 2h5h5q20 0 39 -3t37 -7q16 -4 33.5 -7 t34.5 -3q10 0 18 1t18 3q8 4 17.5 7t17.5 9q4 0 8.5 1t10.5 1q4 2 8 2h8q12 0 23.5 -2t23.5 -4q6 0 10.5 -1t10.5 -1q18 -4 36.5 -7t36.5 -3q12 0 21.5 1t19.5 5q6 2 11.5 4t9.5 4q10 -2 20.5 -2h20.5q27 0 48 -5t28 -34v-13v-13q-2 -6 -2 -13.5v-13.5q0 -43 3 -87t5 -87 q2 -14 2 -29.5t2 -29.5q2 -29 3 -58.5t1 -58.5t-1 -56.5t-5 -56.5q4 -12 7 -24.5t5 -22.5q2 -12 3 -24.5t1 -24.5t-1 -25.5t-3 -27.5q-2 -18 -6 -39t-6 -39q-8 -35 -13.5 -68.5t-5.5 -68.5v-23.5t2 -21.5q-8 -14 -13 -32t-7 -36q-6 -31 -17.5 -59.5t-48.5 -44.5 q2 -8 3 -15.5t-1 -13.5q0 -39 -18 -73t-41 -64q-6 -10 -13 -19.5t-14 -19.5q-6 -8 -10 -16.5t-8 -16.5q-8 -8 -20.5 -14t-26.5 -13h-1h-1q-23 -10 -42.5 -22t-21.5 -41q-10 -6 -19 -13.5t-20 -15.5q-4 -4 -9 -7t-9 -7q-23 -18 -47.5 -30.5t-54.5 -12.5h-12.5t-14.5 2 q-31 -43 -73 -53.5t-87 -14.5q-6 -2 -11 -2h-11q-16 -2 -35 -5t-35 -9q-35 4 -65.5 31.5t-49.5 60.5q-4 8 -7 15.5t-5 13.5q-6 6 -12 11t-10 11q-47 47 -86 100.5t-48 116.5q-8 8 -17 16.5t-17 16.5q-20 16 -38 37q-16 19 -16 40q0 10 1 18z" />
<glyph unicode="K" horiz-adv-x="1667" d="M76 1036v12.5t2 14.5q2 31 10 62.5t18 58.5q-16 29 -22 57.5t-6 56.5q0 18 2 37t4 37v2v4q2 18 3 39t1 39q0 23 -2 42.5t-10 39.5v7v5q4 23 14 42.5t29 33.5q8 2 16 2t17 2h8h8q25 0 46.5 -6t35.5 -22q23 14 47.5 23t50.5 9q10 0 21.5 -2t21.5 -6q10 -18 21.5 -25.5 t23.5 -7.5t24.5 7.5t26.5 15.5q12 8 27.5 15t30.5 7h3h3h13h16h5h5h9h9q35 0 63.5 -6t39.5 -35q2 -6 4 -11t2 -9q2 -4 2 -9v-12q0 -8 -2 -18t-4 -18t-5 -17.5t-6 -17.5q-6 -18 -11 -36.5t-5 -37.5q0 -16 7 -31.5t24 -31.5q4 -4 5 -9.5t1 -11.5v-5v-5v-5v-5v-6.5v-6.5 q0 -12 3 -22t13 -19q25 10 41.5 27.5t30.5 36.5q18 23 37.5 43t52.5 29q29 57 77 100t109 67q4 29 30 54.5t59 27.5q6 -2 12 -2h12h12.5t14.5 2h12h12q23 0 40.5 -9t21.5 -38q55 -4 97 -46t67 -91q4 -8 8 -18.5t6 -18.5q8 -6 16.5 -12t18.5 -12q18 -14 34.5 -30.5 t16.5 -39.5v-3v-5q0 -29 -18.5 -46.5t-40.5 -33.5q-2 -2 -4.5 -3t-2.5 -3q-4 -2 -8 -5t-8 -5q-20 -2 -34.5 -13.5t-26.5 -23.5l-1 -1l-1 -1q-14 -12 -28.5 -23.5t-35.5 -11.5h-2q-6 -35 -30.5 -59.5t-53.5 -45.5q-2 -2 -5 -3t-5 -3q-29 -23 -52.5 -46t-23.5 -58 q0 -6 1 -12.5t3 -12.5q-2 -4 -4 -7t-2 -7q-2 -4 -2 -7v-7t1 -9.5t3 -9.5l4 -12l4 -12q6 -12 10.5 -25.5t4.5 -28.5v-3v-3q-2 -2 -2 -3v-3q6 -10 15 -13t21 -3h5.5h5.5h5h5q10 0 18 -2t15 -9q16 -12 34.5 -23t36.5 -20q4 -2 7.5 -4t7.5 -4q29 -14 55.5 -31.5t46.5 -40.5 q8 2 17.5 3.5t17.5 1.5q20 0 36.5 -8.5t18.5 -30.5v-5.5v-7.5q0 -14 -4 -29.5t-8 -31.5q-6 -14 -10 -28.5t-4 -28.5q0 -12 5 -24.5t15 -22.5q6 -8 8 -17.5t2 -17.5q0 -12 -3 -24.5t-7 -22.5q-6 -12 -9 -22.5t-3 -20.5q0 -8 4 -17.5t12 -17.5q2 -4 3 -8.5t1 -8.5q2 -4 2 -8 v-8q0 -14 -4 -27.5t-10 -25.5q-2 -4 -3 -7t-3 -6q-4 -10 -6 -21t-2 -22q0 -8 2 -19t10 -22v-3v-5q1 -25 -17 -40q-15 -13 -37 -13h-6h-3h-5q-14 0 -26.5 3t-22.5 7l-12 4l-12 4q-4 0 -9.5 1.5t-9.5 1.5q-10 -2 -21.5 -5.5t-23.5 -13.5q-14 2 -28.5 5t-30.5 7 q-51 14 -99.5 43t-70.5 82q-84 0 -136.5 47.5t-99.5 106.5l-7 7t-5 7q-29 35 -57.5 67t-63.5 56q0 4 -2 7t-6 7q-2 2 -4 4.5t-2 4.5q-10 -4 -13.5 -11.5t-3.5 -15.5q0 -6 1 -11t3 -11q0 -6 1 -11.5t1 -11.5q0 -4 -1 -9t-3 -9q2 -8 3 -15.5t1 -15.5q0 -20 -5 -36.5t-11 -33.5 q0 -2 -1 -4t-1 -4q-6 -14 -10 -28.5t-4 -30.5q0 -2 1 -4.5t1 -6.5v-4t2 -6q0 -2 1 -5t1 -5q10 -8 13 -19.5t3 -23.5v-9v-10v-3v-1q-2 -6 -2 -12v-10v-3v-3q-20 -27 -53 -35t-68 -8h-15h-15t-15.5 5t-13.5 11l-1 1l-1 1q-8 10 -18.5 16.5t-26.5 -0.5q-20 -27 -52 -36t-67 -9 h-11t-9 2h-11.5h-11.5q-8 2 -17.5 4.5t-17.5 6.5q-4 0 -7 1t-7 3q-14 6 -27.5 10t-27.5 4t-27.5 -6t-26.5 -23q-4 -2 -9 -2h-9q-27 0 -50.5 14.5t-27.5 37.5q2 12 2 24v23q0 18 -1 37.5t-3 38.5q-2 18 -3 35.5t-1 35.5q0 31 5 60.5t20 58.5q-14 49 -20.5 101.5t-6.5 103.5 v24.5v24.5q2 29 4 59.5t4 59.5q4 43 6 83t2 79v5v5v5v5q-12 23 -17 47.5t-5 50.5z" />
<glyph unicode="L" horiz-adv-x="1239" d="M55 1415q0 20 2 41t4 41q0 18 2.5 37.5t2.5 38.5v5v3q23 31 60.5 39t76.5 8h16h17q8 -2 16 -2h16q12 -8 24.5 -14t26.5 -4h6.5h6.5q2 0 5 1t5 3q20 16 44 21t50 5q16 0 33.5 -1t32.5 -5q8 -10 16 -14t19 -4q4 0 9 1t11 3t11 5t10 7h4h4h4h4h19.5h17.5q16 0 31.5 -5 t25.5 -23q0 -6 1 -13.5t1 -15.5v-4v-4q2 -18 3 -37t-1 -37q0 -27 -4 -52.5t-14 -49.5q12 -23 19 -50.5t9 -56.5v-11v-11q0 -23 -4 -45.5t-14 -40.5q12 -51 17.5 -105.5t5.5 -110.5q0 -20 -1 -40.5t-1 -40.5q-2 -41 -7.5 -82t-11.5 -82q14 -14 17.5 -32.5t3.5 -39.5v-12v-13 q-2 -6 -2 -11v-11q2 -27 12 -48.5t49 -29.5q14 -2 27.5 -2h25.5h18.5t18.5 2h17.5h17.5h17.5h17.5q16 -2 33.5 -4t35.5 -8q16 8 37 11t41 3q16 0 31.5 -1t30.5 -5q23 -23 28.5 -48.5t5.5 -51.5q0 -16 -2 -33t-2 -33q-2 -16 -4 -32.5t-2 -32.5q0 -14 2 -27.5t6 -28.5 q0 -6 1 -11t3 -11q4 -23 7.5 -47.5t3.5 -49.5q0 -18 -2 -35.5t-9 -33.5q-8 -14 -22 -18.5t-31 -4.5h-11t-9 2h-11.5h-9.5q-2 6 -6 10.5t-6 8.5q-4 2 -7 3t-7 1q-8 0 -16.5 -5t-16.5 -11q-8 -8 -17.5 -13.5t-17.5 -5.5q-16 8 -33.5 11t-34.5 3q-14 0 -29.5 -2t-31.5 -4 q-14 -2 -29.5 -4t-29.5 -2q-16 0 -33 4t-33 13q-8 -4 -16 -7.5t-15 -5.5q-8 0 -16 -1t-16 -1h-13.5t-13.5 2h-7t-7 2q-10 0 -19.5 1t-19.5 1q-8 0 -16.5 -1t-16.5 -3q-4 0 -8 -2l-8 -4q-10 2 -21.5 3t-21.5 1q-14 0 -29.5 -1t-32.5 -3q-4 0 -9 -1t-11 -1q-10 0 -20.5 -1 t-20.5 -1q-27 0 -50.5 5t-46.5 20q-20 -12 -43.5 -18.5t-48.5 -6.5q-12 0 -24.5 2t-22.5 4l-8 4l-8 4q-16 8 -29.5 17.5t-15.5 25.5q0 66 -2 129.5t-4 122.5q-2 37 -3.5 72t-3.5 70q0 37 -1 73.5t-1 73.5v56.5t2 54.5q-2 4 -2 8v6q0 10 4.5 20.5t8.5 18.5q4 10 8 18t4 17 q0 4 -1 8t-3 8l-8 8t-11 8q0 27 1 54.5t1 56.5t1.5 58.5t1.5 58.5v17v18q0 61 1 119.5t5 111.5q-8 23 -12.5 45.5t-4.5 46.5z" />
<glyph unicode="M" horiz-adv-x="2080" d="M94 756q10 16 14.5 31.5t4.5 29.5q0 10 -2 20.5t-2 20.5q-2 10 -4.5 20.5t-2.5 18.5v6v4q0 25 2 50.5t5 50.5v17t2 17q0 16 1 34t1 34q0 29 -3.5 58.5t-11.5 56.5q2 10 4 19t2 20q2 10 2 19v20q0 23 -2 46l-4 46t-4 45t-2 43q0 35 8.5 68.5t32.5 64.5q10 10 21.5 13 t19.5 3q12 0 23.5 -5t21.5 -9q4 -2 7 -3t5 -3q10 -4 19.5 -6t19.5 -2t21.5 5t21.5 17q51 -6 99.5 -10t93.5 -4q23 0 44 1t44 3t44.5 6t43.5 8q6 2 12 3t13 1q27 -2 43 -21.5t28 -41.5q4 -8 7.5 -15.5t7.5 -15.5l3 -3t1 -3q4 -41 25.5 -61.5t47.5 -36.5l1 -1t4 -1 q23 -14 44 -34t29 -54q10 -2 18.5 -6.5t16.5 -10.5q2 0 3 -1t3 -1q12 -8 25.5 -14t30.5 -6q4 0 9 1t11 3q10 23 28.5 40t39.5 33q27 23 50 47.5t23 63.5q6 10 13.5 20.5t13.5 22.5q20 29 41.5 54.5t48.5 41.5q16 -8 29.5 -10t27.5 -2t28.5 2t29.5 4q14 2 28.5 4t28.5 2 q6 0 13.5 -1t15.5 -1q4 -2 7 -2t7 -2q6 4 11 5t12 3q6 2 11 2h11q16 0 30.5 -3t31.5 -7h1t1 -2q14 -2 28.5 -6t28.5 -4q16 6 35.5 11t40.5 7q6 2 13 2h13q20 0 39 -4t33 -14q20 -51 26.5 -117.5t6.5 -136.5v-24.5v-24.5q0 -33 1 -67t3 -64q-2 -6 -5 -12.5t-3 -12.5 q-2 -8 -2 -14v-12q0 -16 3 -33t5 -33q4 -16 6 -32.5t2 -33.5v-4v-4q-2 -4 -2 -6v-4v-3v-5q0 -14 1 -28.5t3 -26.5q2 -14 3 -28.5t1 -29.5q0 -20 -3 -37.5t-13 -33.5q6 -8 9 -15.5t3 -15.5q0 -4 -1 -8t-1 -9q0 -2 -1 -4l-1 -2q0 -6 -1 -12t-1 -12t2 -12.5t4 -12.5 q10 -25 17.5 -55.5t9.5 -63.5v-9v-11q0 -27 -6.5 -52.5t-22.5 -45.5q4 -20 9 -41t12 -41q8 -31 15 -62t7 -61q0 -8 -1 -17.5t-3 -17.5q0 -10 -3 -18.5t-7 -18.5q14 -20 24.5 -47t10.5 -55q0 -10 -2.5 -21.5t-6.5 -21.5q-12 -6 -23 -9.5t-22 -5.5q-10 -4 -21 -4h-24 q-18 0 -37.5 2t-40.5 4q-18 2 -38.5 4.5t-40.5 2.5h-3.5h-3.5q-25 -6 -46 -9.5t-44 -3.5q-27 0 -54.5 3t-59.5 5q-2 0 -5.5 1t-5.5 1h-5h-5q-14 0 -30.5 -2t-32.5 -4q-4 -2 -8.5 -2t-10.5 -2q-12 -2 -24.5 -3t-24.5 -1q-27 0 -49.5 12.5t-32.5 44.5q2 18 3 37t1 39 q0 14 -1 29.5t-1 32.5q-2 18 -2 38.5t-2 41.5v22v25v23t2 22q0 23 3 46t7 44q-10 12 -13 31.5t-3 37.5v11.5v11.5q0 35 -6 59.5t-41 24.5h-3h-3q-2 -4 -6 -7t-7 -5q-18 -20 -41.5 -36t-50.5 -16q-4 -6 -7 -12l-7 -14q-20 -39 -51 -72q-29 -31 -73 -31h-5h-4h-4 q-29 16 -51.5 38t-45.5 44q-2 2 -4 4.5t-4 4.5q-27 29 -55.5 54t-67.5 44l1 1q1 1 4 1q4 4 7 8t3 8v2q-6 4 -11.5 3t-9.5 -3q-8 -4 -14 -4t-12 11h-3h-3q-14 0 -20.5 -11.5t-6.5 -27.5v-4.5v-4.5t1 -4t1 -4v-4v-4v-4v-4q0 -16 1 -32.5t3 -33.5q2 -16 3 -32.5t1 -32.5 t-2 -32.5t-8 -31.5q2 -6 3 -13t1 -15q4 -14 6 -27.5t4 -28.5q6 -43 11.5 -85t5.5 -83q0 -27 -3.5 -54.5t-9.5 -53.5q-16 -20 -38.5 -27.5t-47.5 -7.5h-13t-13 2q-20 2 -40 7t-36 11q-6 4 -11 6.5t-10 2.5q-4 0 -8 -2l-8 -4q-2 0 -3 -1.5t-3 -1.5q-6 -2 -12.5 -5t-14.5 -3h-5 t-7 2q-20 0 -39.5 -1t-38.5 -3h-9h-9q-25 -2 -49.5 -3t-49.5 -1h-27.5t-27.5 2q-43 23 -58.5 51.5t-13.5 61.5q0 16 3.5 34.5t5.5 37.5q4 20 6 41.5t2 44.5q0 10 -1 18t-3 18q0 8 -3 17.5t-8 17.5q-4 23 -6 42.5t-2 39.5q0 25 3 49.5t5 46.5q2 29 5.5 56.5t3.5 54.5 q0 29 -5.5 58.5t-15.5 58.5z" />
<glyph unicode="N" horiz-adv-x="1662" d="M51 1526q0 14 6 26.5t15 24.5q4 4 8 9t6 9q16 10 32.5 15.5t33.5 9.5q8 0 16 1t16 1q29 0 56.5 -8t54.5 -21q16 20 37.5 26.5t48.5 6.5h13t14 -2h14t12 -2q8 0 14.5 -1t12.5 -1q4 -6 9 -10t11 -6q4 -4 9.5 -5.5t9.5 -1.5q10 0 20 5.5t21 9.5q12 6 23 10t22 4q8 0 15 -3 t15 -9q6 -4 11.5 -7t11.5 -8q39 -29 70.5 -67.5t31.5 -85.5v-1v-3v-3v-1q6 -4 14.5 -8.5t14.5 -8.5q37 -23 67.5 -57.5t34.5 -77.5q23 -10 40.5 -24.5t33.5 -28.5l5 -5l5 -5q14 -12 27.5 -23.5t30.5 -19.5q16 18 22 38.5t6 41.5q0 14 -2 27t-4 28v1v3q-2 14 -3 29.5t-1 29.5 q0 16 2 29.5t10 28.5q-12 23 -15 47t-5 51q0 8 -1 17.5t-1 17.5q-2 6 -2 12t-2 12q33 25 74 35t86 10q35 0 69.5 -5t65.5 -15h1h3h3h1q12 0 23.5 1t21.5 1q12 2 23.5 4t23.5 4q23 2 46.5 5t47.5 3h19.5t17.5 -2l4 -4l4 -4q2 -4 4.5 -6t4.5 -4q4 -6 6 -10t2 -11v-5v-7 q0 -8 1 -18.5t1 -18.5q2 -10 4 -19l4 -18q2 -18 5 -36.5t3 -34.5q0 -18 -6 -36t-20 -34q2 -16 5 -33.5t7 -34.5q0 -6 1 -13t3 -13q4 -25 7 -49.5t3 -46.5q0 -31 -7 -58.5t-24 -54.5q8 -18 13.5 -36.5t7.5 -37.5q4 -20 5 -38.5t1 -37.5q0 -29 -2 -58.5t-4 -57.5 q-4 -31 -6 -60.5t-2 -60.5v-6v-6v-7.5v-7.5q-6 -2 -9.5 -6t-5.5 -6q-2 -4 -3 -7t-1 -7q0 -8 4.5 -15.5t8.5 -15.5q2 -8 6 -16.5t4 -16.5q2 -12 3 -26.5t3 -28.5q2 -8 3 -16.5t1 -18.5q2 -14 3 -29.5t1 -29.5q0 -33 -7 -63t-28 -58q12 -27 21.5 -58.5t13.5 -64.5v-11v-12 q0 -33 -7 -61.5t-24 -52.5q-16 -14 -37.5 -19.5t-43.5 -5.5h-12.5t-12.5 2q-8 0 -14 1t-13 3q-12 12 -24.5 16.5t-26.5 4.5q-16 0 -32.5 -5t-32.5 -12q-18 -6 -35 -11t-33 -5q-18 0 -35.5 9t-34.5 32q-8 14 -20 25.5t-25 23.5q-2 0 -3 1t-1 3q-23 18 -41 41t-18 60 q-55 23 -86 61.5t-55 81.5q-25 41 -54.5 80t-83.5 61q-12 25 -34.5 41.5t-51.5 16.5q-16 -27 -20 -61t-4 -68v-5.5v-7.5v-5v-5q0 -33 -3 -62.5t-16 -56.5q12 -27 22.5 -55.5t10.5 -56.5q0 -14 -3 -27.5t-9 -26.5q4 -10 6 -19t2 -20q0 -12 -4 -22t-14 -21q-6 0 -11.5 -1 t-9.5 -3q-8 -2 -16.5 -3t-16.5 -3q-14 -2 -27.5 -3t-25.5 -1q-25 0 -48.5 7t-43.5 24q-16 -16 -34.5 -22.5t-39.5 -4.5h-16t-17 2h-18h-16t-17.5 -1t-19.5 -3q-8 -2 -16.5 -3t-14.5 -1q-8 -2 -16.5 -2h-16.5q-33 0 -65.5 8t-57.5 29q-8 23 -12 48.5t-4 51.5v12.5t2 12.5 q2 25 9 49.5t18 44.5q-6 31 -12.5 62.5t-10.5 64.5q-2 16 -3 31.5t-1 31.5q0 37 5 73t20 71q-14 29 -21.5 61.5t-9.5 65.5v13v13q0 43 7 83t15 73q-2 6 -3 11t-1 10q-6 31 -12 59.5t-6 54.5q0 8 1 15.5t1 15.5q2 14 7 29.5t13 31.5q-14 27 -20 54.5t-6 54.5q0 20 2 41.5 t6 42.5q2 20 4 41.5t2 42.5q0 33 -8 64.5t-31 58.5z" />
<glyph unicode="O" horiz-adv-x="1939" d="M88 727q0 29 3 57.5t7 59.5q2 29 5 57.5t3 56.5v13.5t-2 15.5q0 8 -1 15.5t-1 13.5q10 18 18.5 36.5t14.5 39.5q2 2 2 4t2 4q14 39 32.5 73.5t53.5 59.5q12 47 41 80t64 63q10 10 21 18.5t22 18.5q33 2 57.5 23.5t44.5 48.5q6 8 12.5 15t12.5 16q27 27 60.5 32.5 t68.5 7.5q39 4 74.5 12.5t62.5 41.5q27 0 51.5 4t46.5 10q10 2 20.5 4t20.5 4q12 2 25.5 4t27.5 2q18 0 38 -4t40 -14q8 2 16.5 3t16.5 1q6 2 14.5 2h16.5q53 0 103 -18.5t91 -48.5q4 0 8.5 -1.5t8.5 -1.5q4 -2 9 -2t11 -2q37 -6 73 -20t52 -57q78 -12 137.5 -70.5 t87.5 -130.5q53 -42 93 -106q38 -59 38 -126v-10v-11v-11t-1 -11.5t-3 -11.5q25 -45 35 -94t10 -102q0 -20 -1 -41t-3 -39q-2 -12 -3 -24.5t-3 -24.5q-2 -8 -3 -16.5t-1 -16.5q-35 -20 -43 -53t-10 -68q-2 -18 -4 -35.5t-8 -34.5q-14 -14 -32 -33.5t-36 -37.5 q-25 -27 -52.5 -50.5t-56.5 -40.5q-35 -68 -100 -115.5t-137 -74.5q-4 0 -9 -2t-12 -4q-4 2 -9 2h-9q-18 0 -34.5 -9.5t-33.5 -19.5q-2 0 -3 -2t-3 -2q-12 -8 -22.5 -14t-22.5 -8q-16 -2 -32.5 -4.5t-32.5 -6.5q-31 -4 -60.5 -7t-60.5 -7q-16 0 -31.5 -1t-32.5 -1 q-14 0 -28.5 1t-26.5 3q-14 0 -28.5 3t-28.5 5q-18 14 -39 17.5t-43 5.5q-12 0 -24.5 1t-24.5 5q-16 4 -31.5 8t-32.5 8q-2 2 -5 2h-5q-53 14 -102.5 34t-77.5 71q-109 23 -165.5 102.5t-96.5 173.5q-4 8 -8.5 17.5t-8.5 17.5q-14 31 -27.5 59.5t-29.5 55.5 q-18 35 -24.5 68.5t-6.5 68.5zM741 741q0 -61 16.5 -118.5t65.5 -100.5q12 -2 23.5 -6t21.5 -10q16 -6 34 -11.5t36 -5.5q8 0 17.5 2.5t17.5 4.5q63 14 101 63t59 105q8 18 12 35.5t8 33.5q0 14 1 29.5t3 30.5q0 16 1 31.5t3 31.5v16.5v16.5q0 45 -6 86t-29 74 q-16 6 -27.5 17t-21.5 24q-2 0 -2 1v1q-14 18 -31.5 31.5t-44.5 13.5q-2 2 -5 3t-5 1h-1h-1q-6 4 -12 7t-12 11q-61 -12 -109.5 -46t-93.5 -83q-2 -8 -3 -15t-1 -16v-12t2 -12v-17.5v-17.5v-15t-4 -16q0 -12 -2 -25.5t-4 -27.5q-2 -27 -4.5 -55.5t-2.5 -59.5z" />
<glyph unicode="P" horiz-adv-x="1624" d="M74 125q0 10 1 18.5t3 16.5q6 14 8 28.5t2 28.5q0 12 -1 25.5t-3 27.5q-2 12 -3 25.5t-1 26.5q0 18 4 36.5t12 36.5q8 6 11.5 12.5t3.5 14.5t-4.5 15t-6.5 16q-6 8 -9 17t-3 17q-2 23 -3 44.5t1 41.5q0 45 3 89.5t5 87.5q4 43 6 85t2 85q0 41 -3 80.5t-13 78.5q4 18 6 37 t2 33q0 18 -2 36.5t-4 37.5q-2 8 -3 17t-1 17t-1 17.5t-1 17.5t1 17.5t1 17.5q4 16 10 33.5t17 36.5q-8 27 -13.5 56.5t-5.5 59.5q0 16 2 35t4 37q20 23 47 38t58 15h8t8 -2q4 0 8 -1t9 -3q23 -16 48 -23t52 -7q35 0 66.5 8t60.5 20h21.5h23.5h6h8h14.5h14.5q43 0 83 -6 t73 -31q39 14 85 22.5t93 8.5h9h9q51 -2 99.5 -17.5t84.5 -43.5q4 2 8.5 3t10.5 1h8h8q41 0 78 -23.5t72 -52.5q4 -4 8 -7t8 -7q6 -6 13.5 -11.5t13.5 -9.5q-2 -4 -2 -8v-8q0 -16 9 -25.5t21 -17.5q10 -8 19.5 -16.5t11.5 -22.5q55 -8 82 -50t45 -89q4 -10 7 -19.5t5 -17.5 q4 -10 7.5 -19.5t7.5 -17.5q2 -14 5 -28.5t5 -31.5q2 -8 3 -16t3 -16q2 -16 4 -31.5t2 -32.5q0 -27 -9 -53.5t-32 -48.5q0 -4 1 -9.5t1 -9.5q2 -6 2 -11v-9q0 -61 -29.5 -118.5t-64.5 -106.5q-2 -2 -3 -4.5t-3 -4.5q-20 -4 -32.5 -17t-20.5 -30q-2 0 -3 -2t-1 -4 q-10 -16 -21.5 -28.5t-34.5 -12.5h-3t-3 2h-3h-3q-12 -43 -45 -65.5t-69 -38.5q-6 -2 -13.5 -5t-15.5 -5q-6 -4 -13.5 -6.5t-13.5 -6.5q-20 6 -39.5 9.5t-38.5 3.5q-25 0 -48 -5.5t-46 -13.5q-12 -4 -23.5 -9t-23.5 -11q-14 -2 -29.5 -3t-31.5 -1q-33 -2 -63 -8.5t-46 -34.5 q-2 -14 -3 -28.5t-1 -31.5q0 -18 1 -37.5t3 -38.5q0 -18 1 -37.5t1 -37.5q0 -25 -2 -48.5t-8 -46.5q-8 -6 -18.5 -10t-20.5 -6h-7h-7q-14 0 -27.5 3t-24.5 5q-10 23 -21 31t-24 8q-12 0 -24 -5t-25 -11q-12 -8 -25.5 -13.5t-27.5 -5.5q-8 0 -15.5 2t-15.5 6q-8 0 -15 1.5 t-13 1.5q-8 2 -15.5 2h-15.5q-25 0 -49.5 -2.5t-48.5 -4.5q-8 -2 -16.5 -3t-16.5 -1q-16 -2 -32.5 -3t-33.5 -1h-17t-18 2q-10 0 -18 1t-18 3q-14 14 -22.5 34t-12.5 40q0 10 -1 18.5t-1 16.5zM733 996.5q0 -11.5 2 -21.5v-11.5v-11.5q0 -16 1 -31.5t1 -31.5v-12.5v-12.5 q2 -23 13.5 -29t25.5 -6h9.5t9.5 2h9h11h5h5q6 -2 11.5 -3t9.5 -5q2 2 3 4t3 4q29 39 53.5 86.5t24.5 96.5q0 18 -4 36.5t-15 36.5q-10 41 -39.5 70t-70.5 41q-43 -37 -55.5 -83t-12.5 -97v-21.5z" />
<glyph unicode="Q" horiz-adv-x="1826" d="M84 1114q6 29 23.5 49.5t37.5 38.5l1 1l1 1q23 23 42.5 46.5t19.5 60.5q23 57 64.5 83.5t86.5 49.5q2 0 4 1l3 1q39 18 73.5 39.5t61.5 58.5l16 8t17 9q20 12 41.5 21t44.5 13q8 2 15 3t15 1q16 0 30.5 -5t29.5 -15q33 29 79 39t93 12h8h8q23 0 46.5 -1t43.5 -3 q16 -2 29.5 -3t28.5 -1h3h3q10 0 17 -4t13 -10q2 0 2 -1t2 -1q6 -6 15.5 -11.5t19.5 -5.5q8 2 14.5 2h12.5q70 0 122 -36.5t99 -79.5q33 -29 65.5 -55.5t69.5 -43.5q6 -6 11.5 -11t11.5 -11q37 -37 67.5 -83t30.5 -102v-2q63 -57 91 -136t28 -163q0 -47 -8 -93t-25 -87 q0 -6 1 -11t1 -9q2 -4 2 -9.5v-11.5q-2 -61 -28.5 -111.5t-61.5 -93.5q0 -6 -2 -12t-2 -10q-2 -8 -4 -16.5t-2 -14.5q0 -4 1 -7t1 -7q2 -4 4 -7t4 -8q10 -14 26.5 -20t35.5 -6q10 0 19 3t17 7q2 2 4.5 3t6.5 3l4 4t6 4l9 4.5t9 2.5q2 0 3 -1.5t3 -1.5t4.5 -1t4.5 -3 q14 -14 19 -33.5t5 -41.5q-2 -25 -6 -48.5t-8 -41.5q-10 -8 -16.5 -17.5t-8.5 -19.5q0 -4 -1 -9.5t-1 -9.5q0 -12 2 -24.5t6 -24.5q2 -10 4.5 -20.5t2.5 -20.5q12 -18 17 -38.5t5 -43.5v-11v-9q-4 -27 -11 -51.5t-15 -45.5q-6 -4 -11.5 -6t-9.5 -4t-9 -2h-11h-7.5h-7.5 q-4 2 -7 2h-7q-8 0 -16.5 -2t-18.5 -10q-76 8 -145.5 29.5t-128.5 62.5q-6 0 -13.5 1t-15.5 3q-6 0 -12 1t-13 1q-57 6 -112.5 16.5t-102.5 39.5q-39 0 -78.5 5t-78.5 11q-12 4 -25.5 5t-26.5 3q-27 2 -52 5t-52 3h-21.5t-21.5 -2q-4 2 -9 3t-9 3q-14 6 -28.5 11.5 t-29.5 9.5q-141 51 -272 120.5t-219 207.5q-90 127 -103 263q-11 105 -11 213q0 32 1 64v46.5v45.5q0 29 -1 58.5t-3 58.5zM664 717q4 -37 16 -71t27 -66l1 -2l1 -3q10 -25 20 -48t16 -48q29 -23 64 -32q29 -7 57 -7h13q20 0 38.5 2t36.5 4v3.5v3.5q-2 2 -2 3v1 q0 18 11.5 29.5t23.5 21.5q14 10 24.5 21.5t10.5 31.5v4v4t-1 4t-1 5q35 37 48 77.5t13 83.5q0 31 -5 64t-11 65q-2 16 -5 35t-5 37q-2 16 -3 33.5t-1 34.5q-35 45 -73 82.5t-79 70.5q-14 -14 -31.5 -23.5t-38.5 -15.5q0 -2 -1 -2h-3q-31 -14 -58.5 -31.5t-33.5 -56.5 q-33 -29 -42 -63.5t-9 -73.5v-20.5t2 -18.5v-20.5v-20.5q0 -25 -4 -49.5t-16 -48.5z" />
<glyph unicode="R" horiz-adv-x="1675" d="M76 147q0 29 5 56.5t11 54.5q6 31 11.5 59.5t5.5 57.5q0 12 -1.5 25.5t-5.5 25.5q-2 12 -7 25.5t-13 25.5q-2 8 -3 14.5t-1 12.5q0 16 6 30.5t14 28.5q2 6 6.5 13.5t8.5 15.5q2 6 3 11t1 11q0 4 -1 8.5t-1 8.5q-4 8 -10.5 16t-16.5 17q0 18 -1 35.5t-1 33.5q0 18 -1 35.5 t-1 34.5q0 51 8 99t35 91q4 14 0 22.5t-12 16.5l-3 3t-3 1q-4 6 -9.5 11.5t-7.5 13.5q0 4 1 9t1 11v9.5v9.5v19t-2 18v10v8q0 14 -1 28.5t-1 26.5q0 35 8 66t33 49v1v3v3v1q0 14 -8 24.5t-21 18.5q-4 2 -7 5t-7 5q0 8 -1 16.5t-1 16.5q-2 16 -3 32.5t-1 33.5q0 10 1 19t3 20 q0 8 3 18t7 19l3 3t1 3q16 16 36 30.5t42 14.5q6 0 13.5 -2t15.5 -6q6 -8 12 -10.5t12 -2.5q8 0 17.5 5.5t15.5 11.5q2 2 4 3t4 3q6 4 11.5 7t9.5 3q29 2 56.5 3t56.5 1q47 0 91 -8t78 -33q16 20 37 29.5t43 15.5q4 2 9.5 3t11.5 3q0 -4 -1 -6t-3 -4l-3 -6t-1 -6v-2 q12 2 25.5 5t25.5 7q16 4 33.5 8t35.5 4q10 0 19.5 -1t17.5 -5q8 -12 17.5 -17t17.5 -5q10 0 21.5 4t21.5 10h1h1q12 4 23.5 8t21.5 4t19.5 -1t19.5 -1q8 -2 15.5 -2h15.5q57 -4 108.5 -20.5t71.5 -71.5q4 -2 7 -2h5q8 0 15.5 4t13.5 8q4 2 9 5.5t10 5.5q45 -4 71.5 -31 t46.5 -57q2 -2 3 -3.5t1 -3.5q18 -25 38 -47t50 -30q4 -14 15.5 -31t23.5 -33q14 -20 26.5 -41.5t12.5 -44.5q0 -12 -5 -24.5t-19 -24.5v-1v-3v-3v-1q0 -14 8 -18.5t18 -6.5h2q6 -2 13.5 -5t11.5 -11q10 -23 13 -47.5t3 -49.5q0 -47 -12 -92t-29 -84q-2 0 -5 -2t-7 -2 q-8 -6 -15 -14t-9 -19q0 -4 1 -8t3 -8q8 -8 11 -17.5t3 -19.5q0 -14 -9 -29.5t-20 -29.5l-4 -4l-4 -4q-10 -12 -19.5 -25.5t-13.5 -26.5q-25 -23 -53.5 -35t-58.5 -20q-6 -2 -10.5 -3t-8.5 -3q-12 -4 -23.5 -8t-23.5 -8q-4 -2 -5 -5.5t-1 -7.5v-3v-3t1 -5t-1 -5 q14 -27 35.5 -34t46.5 -11q20 -2 39.5 -7t34.5 -24q20 23 47.5 35t58.5 12q10 0 21.5 -1t21.5 -5q10 -12 13.5 -28.5t3.5 -34.5v-12.5t-3 -12.5q0 -12 -2 -24.5t-4 -24.5q-8 -8 -11 -18.5t-3 -20.5q0 -12 3 -24.5t7 -24.5t7 -25.5t3 -25.5t-4 -24.5t-14 -24.5q-2 -4 -6 -6.5 t-10 -4.5q-8 -4 -13.5 -8t-5.5 -14v-4t2 -6q23 -14 33 -35t10 -43q0 -8 -1 -15.5t-5 -15.5q-20 -23 -53 -32t-68 -9h-16t-16 2q-29 2 -57.5 7t-51.5 11q-8 8 -18.5 12.5t-20.5 4.5q-8 0 -14 -2t-10 -6q-14 -8 -32 -13.5t-36 -3.5q-10 0 -21.5 2t-21.5 4q-23 6 -45.5 15.5 t-44.5 19.5q-8 6 -17.5 10.5t-17.5 8.5q-4 4 -8 9t-8 11q-18 20 -42 40t-57 24q-8 8 -15 16t-15 16q-2 0 -2 1t-3 1q-25 27 -52 50.5t-62 35.5q-18 -10 -23.5 -27.5t-7.5 -33.5q-2 -12 -4 -22.5t-8 -20.5q10 -14 15 -32.5t5 -39.5v-9t-2 -9q0 -6 -1 -11t-3 -10 q-4 -14 -17.5 -24t-29.5 -19q-2 0 -6 -2t-8 -2h-3h-3h-6.5h-4.5q-31 0 -58.5 5.5t-49.5 29.5q-23 -10 -49.5 -16t-55.5 -6q-27 0 -53.5 7t-48.5 23q-2 0 -3 1l-1 1h-3h-3q-8 0 -16.5 -6t-14.5 -14t-13.5 -14.5t-17.5 -6.5h-7h-7h-7h-7h-11.5h-11.5q-41 2 -78 14.5t-53 53.5 q-4 16 -6 31.5t-2 29.5zM711 913q2 -6 5 -13t5 -13q10 -27 19.5 -56.5t7.5 -58.5v-11t-3 -11q0 -6 -1 -11.5t-3 -11.5q-2 -2 -2 -5v-7q0 -16 14.5 -26.5t30.5 -18.5q2 0 4.5 -1t4.5 -1q10 -4 19 -10.5t17 -12.5q6 8 13.5 15.5l15.5 15.5q6 4 11 9t10 9q25 23 45 47.5 t20 59.5v3v3q-2 2 -2 4v4q8 16 11 30.5t5 28.5v2v1q2 14 6.5 29.5t12.5 31.5q-10 23 -14.5 50.5t-6.5 55.5q-4 45 -14 87.5t-51 68.5q2 4 1 5t-1 3q-2 2 -3 4t1 5q-12 2 -24.5 3t-26.5 1h-9.5h-9.5q-23 -4 -45 -13.5t-41 -29.5q-8 -2 -12 -8.5t-4 -12.5q0 -4 1 -7t3 -7 q0 -4 2 -7t2 -6l4 -8l4 -8v-36.5v-37.5q0 -33 -3 -65.5t-19 -61.5z" />
<glyph unicode="S" horiz-adv-x="1335" d="M61 348v5v5v16.5t2 16.5v16.5v16.5q14 20 37 27.5t45 9.5q4 0 8.5 1t8.5 1q8 0 16 1t15 3q4 -2 9 -4t9 -2q12 -6 24.5 -12.5t20.5 -18.5q25 12 54.5 15.5t60.5 3.5q16 0 31.5 -1.5t29.5 -1.5q16 0 31.5 -1t30.5 -1h8t8 2h6h8q16 -20 37 -15t41 15q2 2 5 3.5t5 3.5 q8 4 15.5 6t15.5 4q8 6 15.5 16t11.5 21q0 4 1 8t1 8q0 6 -2 12.5t-6 12.5q-16 18 -37 32.5t-43 28.5q-4 2 -7.5 4t-7.5 4q-18 10 -35.5 22.5t-33.5 29.5h-3h-1h-3h-4q-37 0 -64.5 19t-53.5 44q0 2 -2 3l-2 1q-25 23 -50.5 43.5t-58.5 24.5q-33 25 -52.5 57.5t-33.5 65.5 q-2 6 -4 10l-4 8q-8 16 -15.5 32.5t-15.5 30.5q-2 6 -5 11.5t-3 11.5q-2 6 -3 11t-1 12q0 20 8 39.5t16 37.5h2v2q8 18 16.5 38t8.5 40v7v8q0 4 -1 7t-3 7q23 109 110 193.5t191 117.5q12 -6 23.5 -8t19.5 -2q16 0 32.5 4t33.5 10q6 2 12 3t12 3q33 39 82 46.5t100 9.5 q6 2 13.5 2h13.5q16 0 32.5 -7.5t30.5 -17.5q27 31 63 41t75 10q18 0 37.5 -1t37.5 -3q12 -2 24.5 -3t23.5 -1q12 -6 22 -18.5t12 -26.5q4 -20 13.5 -39.5t17.5 -40.5q12 -27 23.5 -53.5t11.5 -58.5v-5.5v-7.5q20 -20 27.5 -46.5t7.5 -55.5v-8v-8t-1 -8.5t-1 -8.5 q-20 -14 -43 -21t-47 -5q-10 0 -20.5 1t-18.5 3q-20 4 -40 11t-38 15q-23 -12 -50.5 -16t-58.5 -4h-21t-22 2q-8 0 -17 1t-18 1q-14 2 -26 3t-25 1q-6 4 -11 5t-9 1q-10 0 -18.5 -6t-16.5 -14h-1t-1 -2q-8 -6 -15.5 -12.5t-17.5 -8.5q-2 -4 -4 -10t-4 -10q-4 -8 -7 -14.5 t-3 -14.5v-5t2 -5t4 -5l4 -6q20 -35 54 -46t69 -19q39 -6 76 -21.5t55 -62.5h4t6 2h4h4q59 -2 107.5 -44t85.5 -91q4 -8 10 -16.5t10 -16.5q-8 -10 -12 -18.5t-4 -16.5q0 -12 8 -20t21 -17l3 -3l3 -3q12 -10 23.5 -20t11.5 -27v-2q2 -10 3 -21.5t1 -21.5q4 -25 6 -49.5 t2 -50.5q0 -47 -13.5 -90t-54.5 -72v-5v-7q0 -78 -49 -123t-110 -84q-4 -2 -8.5 -5t-8.5 -5q-23 -14 -45 -29.5t-43 -32.5l-12 -4t-12 -2q-8 -2 -14.5 -2h-12.5h-13.5t-13.5 2h-15h-13q-20 0 -41 -7t-37 -36q-37 0 -72 -5t-70 -11q-37 -6 -71.5 -11.5t-71.5 -5.5 q-2 6 -5 9.5t-5 5.5t-5 3t-5 1q-6 0 -11.5 -4.5t-9.5 -6.5l-2 -2q-6 -4 -12 -7t-12 -3h-2q-8 0 -16.5 -1t-18.5 -1q-16 -2 -35 -3t-37 -1q-27 0 -49.5 4t-42.5 19q-6 14 -15.5 29.5t-19.5 29.5q-16 27 -31.5 55.5t-15.5 63.5v5v5t1 5t1 5q-41 16 -53.5 52t-12.5 75z" />
<glyph unicode="T" horiz-adv-x="1306" d="M59 1223q6 16 9.5 31.5t3.5 29.5q0 8 -1 15.5t-1 15.5q-2 16 -3 31.5t-1 29.5q0 16 2 33.5t10 34.5q-6 10 -9 19.5t-6 19.5q-2 8 -3 17t-1 20v13t2 15v13.5v15.5q25 25 63 36t77 13h7h7h11h10q33 -2 63.5 -8t54.5 -16q23 16 48.5 21t52.5 5q23 0 44 -3t46 -5q23 -4 45 -7 t43 -3q10 0 21.5 1t19.5 3q16 10 31.5 13t29.5 3q16 0 33.5 -3t36.5 -7q16 -6 33.5 -9t35.5 -3q10 0 17.5 1t15.5 3l4 -4l4 -4q8 -6 16.5 -11.5t18.5 2.5q10 23 24.5 31t29.5 8q10 0 20 -2l20 -4q4 -2 9.5 -3t11.5 -1q8 -2 15 -3t16 -1q6 0 11 1t11 3t11.5 5t11.5 7h8t8 2h8 h9q23 0 43 -8t22 -37q0 -18 1 -37.5t3 -37.5q0 -20 1 -39t1 -37q0 -37 -6 -71t-25 -66q2 -6 5.5 -11.5t7.5 -11.5q8 -12 14 -26.5t6 -30.5q0 -4 -1 -8.5t-1 -8.5l-4 -8t-6 -8q-18 -10 -43 -18.5t-49 -10.5h-8.5h-8.5q-20 0 -38.5 5.5t-34.5 17.5q-20 0 -39 -9.5t-35 -23.5 q-2 -16 -7 -33.5t-9 -34.5q-2 0 -2 -1v-3q-6 -18 -11.5 -35.5t-5.5 -35.5q2 -14 6 -27.5t13 -28.5v-5v-5v-6v-6v-16.5t2 -14.5v-16v-17q0 -25 -4.5 -47t-20.5 -41q16 -23 21.5 -47t5.5 -51q0 -16 -2 -33.5t-2 -36.5q-2 -6 -2 -12t-3 -12q0 -12 -1 -23.5t-1 -23.5v-17.5 t2 -19.5q6 -33 8.5 -65.5t2.5 -65.5v-16.5v-16.5v-8v-8q-2 -12 -2 -24.5v-25.5q0 -35 3 -68.5t13 -68.5q4 -10 5 -22.5t1 -24.5q0 -23 -6 -44t-22 -38q-8 -4 -17.5 -6t-19.5 0q-18 0 -36 5t-34 13q-18 6 -36.5 11.5t-35.5 5.5q-14 0 -29.5 -7t-31.5 -28q-2 0 -5 -1t-5 -1 h-6.5h-6.5q-16 0 -31.5 3t-31.5 5q-16 4 -34.5 7t-35.5 3q-14 0 -29.5 -3t-29.5 -11q-2 0 -5 1t-5 1h-6.5h-6.5h-10h-10h-6h-4q-8 -2 -16.5 -2h-14.5q-27 0 -46.5 8t-23.5 35q-2 25 -3 50.5t-1 52.5q0 59 6 115.5t19 105.5q-12 18 -17.5 40.5t-5.5 45.5q0 8 1 16t1 16 q4 31 13.5 63t19.5 60v1v3v4v1q0 8 -4 15t-10 15q-4 6 -8.5 14.5t-4.5 16.5v2q-2 14 -3 27.5t-1 27.5q0 25 3 48.5t8 48.5q2 25 5 49t3 49q0 23 -3 46.5t-14 47.5q2 6 3 11t1 12q2 6 2 11v11q0 29 -12 53.5t-43 32.5q-12 6 -24.5 8t-24.5 2q-8 0 -18.5 -1t-18.5 -3 q-8 0 -15 -1t-13 -3q-16 -2 -32 -5t-30 -3q-27 0 -46 14.5t-26 55.5z" />
<glyph unicode="U" horiz-adv-x="1714" d="M78 827v21.5v23.5q2 43 8 87.5t14 84.5q-8 37 -14 74t-6 74q0 35 7 67.5t22 63.5q-14 35 -20.5 76t-6.5 84v24.5t2 26.5q0 12 1 24.5t3 24.5q2 4 5 8t7 8q8 10 18.5 19.5t22.5 7.5h3h3q6 -16 15.5 -21.5t17.5 -5.5q4 0 9.5 1.5t9.5 1.5t9 1t11 1t12.5 -2.5t10.5 -8.5 q23 23 52.5 31t59.5 8h12.5t12.5 -2q35 -2 69.5 -13t63.5 -24q23 12 48.5 17.5t51.5 5.5h13.5t15.5 -2q8 0 15.5 -1t13.5 -3q8 -29 13 -61.5t5 -67.5q0 -39 -8 -78t-29 -68q29 -27 39 -56.5t10 -64.5q0 -14 -1 -28.5t-3 -28.5q-2 -8 -2 -15t-2 -14q-2 -23 -5 -44t-3 -42v-13 t2 -15q0 -8 2 -15.5t4 -13.5v-12v-12v-30v-32q0 -33 -7 -64.5t-32 -60.5q14 -25 22.5 -56.5t14.5 -64.5q0 -2 1 -4t1 -4q12 -68 36 -121t108 -53h1h3h3h1q37 16 43 43t6 57q0 23 2 42.5t14 37.5q-6 59 -11 113.5t-7 107.5v32v30q0 51 4 103.5t16 109.5q-12 18 -16 36.5 t-4 39.5q0 18 3 35.5t5 35.5q4 18 6 36t2 36t-4 36.5t-14 35.5q4 16 5 34.5t1 36.5q2 33 8 60.5t39 46.5q6 4 12.5 7t12.5 3q4 2 10 3t12 1q16 0 31.5 -5t32.5 -11q14 -8 28.5 -13.5t28.5 -5.5q16 0 29.5 9.5t25.5 29.5l36 -4t36 -2h3h3q35 -4 69 -8t64 -16q6 12 17.5 18 t21.5 10q4 0 9.5 2t9.5 2q2 0 3 1t3 1h7h5h4h2q27 0 49.5 -10t28.5 -37q2 -20 3 -41.5t1 -44.5v-9v-9q-2 -41 -8 -81t-21 -71q23 -47 26 -102t3 -113v-16v-17q0 -10 1 -21t1 -22q0 -10 1 -20t1 -20q-10 -12 -15 -24.5t-5 -25.5q0 -6 1 -11t3 -11t6 -11.5t8 -11.5v-6v-6v-7 v-7q0 -16 1 -32.5t3 -33.5q0 -18 1 -34.5t1 -32.5q0 -39 -10 -74t-45 -64v-1v-1v-3v-3q0 -8 6 -15t14 -11q4 0 7.5 -2.5t5.5 -2.5q4 -31 8 -64.5t6 -66.5q2 -12 2 -23v-22q0 -20 -1 -39.5t-5 -38.5q8 -20 20.5 -40.5t24.5 -40.5q20 -37 37.5 -75t17.5 -81q0 -8 -1 -17.5 t-3 -19.5q-35 -23 -78 -31t-90 -8h-23t-24 2h-12h-12q-18 0 -36 1t-34 1q-27 0 -51.5 -2t-46.5 -8q-10 2 -21.5 6t-23.5 4q-6 2 -11.5 2h-11.5h-9h-9h-5.5h-5.5q-6 -2 -13 -2h-13q-27 0 -51.5 9.5t-38.5 41.5q-6 4 -15.5 7.5t-17.5 3.5q-4 2 -8 2h-8h-12.5t-12.5 -2 q-12 -2 -23.5 -4t-21.5 -5q-8 -2 -14.5 -3t-12.5 -3q-37 -33 -84 -45t-96 -12q-12 0 -25.5 1t-25.5 1q-39 4 -77 11t-73 16q-12 2 -24 5t-25 5q-16 23 -39.5 35t-50.5 20q-2 0 -4 1t-4 1q-29 10 -55.5 23.5t-40.5 46.5q-16 18 -26.5 39.5t-18.5 44.5q-12 31 -26.5 59.5 t-43.5 46.5q-2 16 -6 31.5t-8 32.5q-8 33 -15.5 66.5t-7.5 66.5q0 20 2 39.5t10 40.5q-12 43 -18 93t-6 101z" />
<glyph unicode="V" horiz-adv-x="1892" d="M86 1565q0 14 7 29.5t26 29.5q8 0 15 -1t16 -1h4h4q37 0 71.5 -5t61.5 -28q29 16 63.5 23.5t71.5 7.5q41 -2 78 -9t65 -24q18 16 43 25.5t50 11.5h8h8q14 0 27.5 -1t27.5 -5q63 -16 86 -60.5t37 -95.5q0 -4 1 -7t1 -7q10 -37 25.5 -73t48.5 -60q14 -10 21.5 -26.5 t13.5 -35.5v-1v-1q8 -27 20 -49t49 -24q16 23 26.5 48t18.5 52q2 4 2 7t2 5q12 39 28.5 76t53.5 64q-2 8 -3 14t1 12q0 29 11.5 53.5t25.5 49.5q8 14 15.5 27t13.5 28q6 2 13 3t13 3q16 4 34 7t34 5q6 2 12 2h13q23 -2 43 -6t37 -16q8 8 16 12t16 6q4 2 8.5 2h8.5q8 0 16 -1 t16 -1q8 -2 16.5 -3t16.5 -1q10 0 20.5 2t18.5 8q4 2 7 2h5q10 0 19.5 -3t19.5 -7q18 -10 36 -12t32 20h12h12q27 0 49.5 -8t30.5 -37v-5v-5v-5v-5q0 -76 -29.5 -146.5t-76.5 -130.5v-1v-3v-3v-1q0 -31 -10.5 -58.5t-22.5 -53.5v-2v-3q-10 -18 -17.5 -37.5t-11.5 -39.5 q-20 -10 -27 -29t-7 -39v-8v-10v-1v-4q0 -2 -1 -5t-1 -5v-5v-5q-8 -23 -15.5 -45.5t-13.5 -46.5q-2 -2 -3 -5t-1 -7q-16 -53 -38 -105.5t-69 -89.5q-4 -10 -1 -16.5t7 -12.5q6 -6 8.5 -12t-1.5 -16q-25 -51 -49.5 -101.5t-49.5 -101.5q2 -18 12.5 -32.5t20.5 -29.5 q2 -2 4 -5t4 -5q10 -12 18.5 -25.5t8.5 -29.5q0 -4 -1 -9t-3 -12q-29 -33 -70 -56t-86 -23h-4t-4 2h-6h-4q-18 -37 -49 -59.5t-64 -43.5q-2 -2 -5 -4t-5 -2q-16 -12 -32.5 -22.5t-33.5 -24.5q-8 -4 -17 -8l-18 -8q-12 -4 -24 -10.5t-27 -8.5q-8 -4 -17 -5t-18 -1 q-14 2 -29.5 7t-29.5 20q-12 31 -29.5 58.5t-36.5 53.5q-31 45 -55 89t-24 100q-49 47 -79 104t-50 119q-43 37 -65.5 84t-39.5 96q-2 2 -2 3v3q-18 51 -41.5 100.5t-68.5 84.5q-8 31 -21.5 58.5t-30.5 53.5q0 2 -1 3l-1 1q-20 39 -38.5 78t-20.5 86q-41 18 -58.5 53 t-29.5 74q-2 2 -2 3v3q-6 18 -13.5 34.5t-15.5 33.5q-4 18 -16.5 36.5t-26.5 35.5q-2 2 -3 4l-3 6q-16 18 -27.5 38.5t-11.5 41.5z" />
<glyph unicode="W" horiz-adv-x="2965" d="M96 1550q2 16 7.5 31.5t19.5 24.5q18 4 36.5 5t39.5 1q29 0 55.5 -5t48.5 -22q8 2 17.5 5t19.5 7q14 4 30.5 9.5t30.5 7.5q10 2 18.5 3t16.5 1q16 0 32.5 -3t31.5 -13q14 10 28.5 14t28.5 4q10 0 19.5 -2t19.5 -4q6 0 10 -2t10 -2q14 -6 28.5 -9.5t29.5 -3.5 q12 2 24.5 6.5t24.5 14.5h7h5q31 0 47.5 -21.5t30.5 -46.5q0 -2 1 -2t1 -2q8 -14 16.5 -27.5t18.5 -23.5q-2 -6 -2 -11v-9q0 -25 15.5 -43.5t35.5 -34.5h1q1 0 1 -2q20 -16 36.5 -36t16.5 -50v-1v-3v-3v-2q-4 -12 -6 -22t-2 -18q0 -27 14.5 -43.5t32.5 -30.5l4 -4t4 -2 q20 -16 37 -36t19 -50q8 -4 15 -6.5t11 -2.5q14 0 23.5 11.5t19.5 27.5q0 2 1 4t3 5q8 12 16.5 24t20.5 19q4 14 11.5 29.5t13.5 31.5q6 14 11 28.5t9 26.5q6 16 8.5 31.5t2.5 30.5q0 23 -7.5 43t-27.5 41q4 10 6 17t2 15q0 18 -11 30.5t-26 23.5l-3 3l-1 1 q-12 12 -22.5 23.5t-10.5 25.5q0 8 3 16.5t10 16.5q16 6 35.5 10t37.5 6h11.5h9.5q29 0 54.5 -4t41.5 -14q8 4 17.5 7t17.5 5t17 2h18q18 0 35.5 -2t35.5 -4q16 -4 34 -6t36 -2h13t16 2q8 2 15 4t13 4q10 -4 17.5 -5t15.5 -1q14 0 26.5 4t26.5 8q12 4 24.5 8t27.5 4 q8 0 16 -2t16 -6q39 -20 55.5 -54t28.5 -71q0 -2 1 -4t1 -6q10 -31 24.5 -60.5t43.5 -52.5q8 -12 11 -27.5t3 -31.5q2 -29 10.5 -53.5t45.5 -26.5h3h3h1h3q33 0 53.5 23.5t36.5 52.5q4 6 7 13t7 13t8.5 12.5t8.5 12.5q10 20 20 38.5t21 39.5q2 2 5 6t5 8q18 35 36.5 69 t35.5 70q16 20 41.5 28.5t52.5 8.5h13t13 -2q14 -2 27.5 -4t26.5 -6q12 -16 25.5 -12t27.5 12q6 2 12 5t12 5h7.5t7.5 2h7h7q16 0 33.5 -2t34.5 -2q16 -2 32.5 -4t32.5 -2t29.5 2t26.5 6q8 -6 15 -8t15 -2q6 0 14.5 2t14.5 4q10 4 19.5 6t19.5 2h5t5 -2q2 0 5 -1t5 -1 q8 0 12.5 -6t4.5 -12q2 -2 2 -3v-1q2 -6 5 -10.5t7 -8.5v-4t2 -4v-4v-4q0 -31 -16.5 -55.5t-34.5 -46.5l-2 -2q-20 -23 -35.5 -46.5t-15.5 -54.5v-4t2 -4v-4v-4q-23 -25 -37.5 -55.5t-26.5 -61.5q0 -2 -1 -3l-1 -1q-16 -43 -36.5 -82t-61.5 -68q-20 -129 -75.5 -241.5 t-139.5 -210.5q-2 -27 -12.5 -53.5t-20.5 -53.5q-2 -2 -3 -4t-1 -4q-12 -29 -21.5 -57.5t-9.5 -57.5q0 -20 5 -39.5t20 -39.5v-5.5v-7.5v-5v-5q-2 -23 -11.5 -41t-35.5 -18h-2q-20 0 -36 -12.5t-26 -28.5q-6 -4 -13 -8.5t-13 -10.5q-39 -23 -80 -44t-86 -27 q-6 -4 -11.5 -7.5t-9.5 -7.5q-37 -23 -73.5 -42t-77.5 -19h-4.5h-4.5q-23 59 -51 119.5t-59 119.5t-60.5 120t-52.5 120q-27 37 -51.5 79t-42.5 89q-43 -2 -61.5 -27.5t-32.5 -58.5q0 -2 -1 -4t-1 -4q-12 -29 -30.5 -55.5t-57.5 -34.5v-3v-1q0 -18 -8.5 -37t-18.5 -35 q-10 -18 -18.5 -35.5t-8.5 -34.5q0 -12 6.5 -24.5t20.5 -24.5v-6v-6q-2 -4 -2 -7v-8q-70 -39 -139.5 -78.5t-134.5 -84.5h-6.5h-8.5h-11t-9 2h-11.5h-11.5q-16 -2 -29.5 -8.5t-17.5 -28.5q-4 -23 -17.5 -37t-31.5 -27q-6 -2 -11 -6t-12 -8q-63 12 -82.5 58t-29.5 100 q-4 25 -10.5 51.5t-18.5 46.5q-25 14 -31 40t-10 54v1v3q-4 33 -14 62.5t-51 42.5q-14 39 -33 75.5t-39 71.5q-2 2 -3 4l-3 6q-31 53 -56.5 108.5t-31.5 123.5q-45 33 -66.5 77t-38.5 89q-10 31 -22.5 61.5t-32.5 57.5q-35 39 -54.5 86t-35.5 94q-20 53 -43 104t-64 92 q0 4 -1 7.5t-1 5.5q-2 8 -3 15t-1 13z" />
<glyph unicode="X" horiz-adv-x="2150" d="M96 1092q2 16 7.5 29.5t13.5 27.5q35 14 44 43t11 59q2 18 6 38t15 36q4 39 27.5 66.5t51.5 52.5l1 1l1 1q31 27 54.5 57.5t23.5 75.5v1v3v3v1q2 2 4 5t2 7q10 14 22.5 26.5t29.5 12.5h4h4q76 0 140.5 -27.5t117.5 -68.5q61 -12 108 -52t90 -85q0 -2 2.5 -4t4.5 -4 q12 -2 24.5 -7.5t24.5 -9.5q16 -8 33.5 -14t33.5 -6h7.5t7.5 2q4 0 7 1t7 3q18 35 39.5 68.5t44.5 68.5q18 25 34.5 51.5t33.5 53.5q23 16 48 22t52 6q16 0 30.5 -1t28.5 -5q10 -14 21.5 -18t21.5 -4q12 0 23.5 4t23.5 8q6 2 13.5 4t13.5 4q18 -2 36.5 -3t39.5 -1 q47 0 90 -7t74 -42q6 2 12 3t12 3q10 2 18.5 4t18.5 4q8 0 15.5 1t15.5 1q16 0 28.5 -3t24.5 -13q6 -14 8 -26.5t2 -24.5q0 -39 -18.5 -75t-40.5 -71q-12 -18 -23.5 -35.5t-19.5 -35.5q-39 -41 -62.5 -91.5t-44.5 -101.5v-2t-2 -2q-23 -59 -52.5 -117.5t-84.5 -103.5 q-6 -14 -9 -28.5t-3 -26.5q0 -43 26.5 -77t59.5 -67q2 -2 3 -4t3 -2q35 -35 63.5 -72t28.5 -84q53 -39 88 -96t56 -119q0 -2 1 -6t3 -8q53 -43 99 -92t89 -101q6 -8 12.5 -14t10.5 -14q6 -6 11 -11.5t9 -11.5v-3v-3q0 -16 -10 -28.5t-23 -16.5q-2 0 -4 -1t-4 -1 q-10 6 -19.5 9t-19.5 5t-19 3t-20 1q-20 0 -39.5 -3t-40.5 -5q-20 -4 -40.5 -7t-40.5 -3t-40 4t-42 14q-4 -2 -7.5 -4t-7.5 -2q-8 -4 -15 -5t-13 -1t-11.5 1t-9.5 1t-6 1t-4 1q-8 0 -16.5 1t-16.5 1t-16 -1t-19 -5q-16 10 -35.5 14.5t-39.5 4.5q-8 0 -18.5 -1t-18.5 -1 q-10 -2 -19.5 -3.5t-17.5 -3.5q-18 -2 -37 -5t-35 -3q-37 0 -65.5 20.5t-38.5 80.5q-6 18 -17.5 33.5t-23.5 29.5q-4 2 -6 5t-5 5q-10 12 -20 25.5t-18 28.5q-6 4 -12.5 9t-12.5 11l-1 1l-1 1q-14 12 -28.5 23.5t-33.5 9.5h-1h-3h-3h-1q-14 -25 -29.5 -47.5t-31.5 -44.5 q-4 -4 -7 -9.5t-7 -9.5q-25 -33 -47.5 -67.5t-36.5 -75.5q-14 -23 -36 -31t-46 -8h-10.5t-10.5 2h-11t-9 2q-6 0 -11.5 1t-9.5 1q-10 0 -19 4t-20 6q-10 6 -20 9.5t-23 3.5q-4 0 -8 -1t-8 -1q-6 -2 -10 -4.5t-9 -6.5q-43 -4 -88 -6t-92 -2q-51 0 -103 2l-104 4 q-18 2 -35.5 3t-33.5 1q-14 4 -19.5 18.5t-5.5 31.5q0 10 2 18l4 16q41 20 64.5 54t44.5 73q20 37 43.5 72t68.5 55q8 16 17.5 34t17.5 36q2 6 4 11t7 9q27 59 60.5 113.5t88.5 91.5q6 16 12 31.5t13 32.5q14 31 26 65q10 27 11 53q0 6 -1 13q0 25 -9 49.5t-34 48.5h-3h-1 h-3h-3q-35 0 -62.5 18.5t-53.5 41.5q-27 23 -57 42t-66 19h-2q-20 0 -41 -6t-39 -15q-10 -2 -21.5 -6t-21.5 -6q-8 -4 -18.5 -5t-20.5 -1h-12.5t-10.5 2l-12 4t-12 6q-4 6 -8.5 13.5t-6.5 13.5t-3 13t-1 14z" />
<glyph unicode="Y" horiz-adv-x="1953" d="M88 1546q0 6 2 13.5t4 15.5q16 31 38 41t48 10q12 0 25.5 -1t25.5 -3q14 -2 27.5 -3t28.5 -1h9h9q6 -2 11.5 -4t9.5 -4q4 0 9 -1t11 -1q12 0 26.5 3t28.5 7t31 7t33 3q6 0 12 -1t12 -1q4 -2 10.5 -4t12.5 -4q4 -6 12 -8t17 -2h5h5h3t3 2h8h6h3h4q6 2 13 3t15 3 q12 4 25.5 6t27.5 4q10 2 20.5 3t20.5 1q23 -2 42.5 -6t35.5 -16q4 2 7 3t6 3q8 4 17 7t19 5h8.5h8.5q10 0 19 -3t18 -11q18 -14 30.5 -35t22.5 -41q0 -2 1 -3t1 -3q12 -29 28.5 -53.5t49.5 -34.5q6 -4 11 -10.5t11 -12.5q14 -16 31.5 -27.5t38.5 9.5q8 8 13 19.5t9 23.5 l1 2l1 2q6 20 17.5 37.5t40.5 17.5q10 41 30.5 74t53.5 53q10 4 19 6t18 2q18 0 33.5 -6t31.5 -14q8 -4 18.5 -9t20.5 -10q4 0 9 -1t10 -1q4 0 8 1t8 4q8 2 16.5 7t16.5 13h67.5h63.5h39.5h38.5q37 0 73.5 1t73.5 3q16 -18 22.5 -35.5t6.5 -34.5q0 -29 -16.5 -56t-34.5 -52 q-12 -16 -22.5 -31.5t-18.5 -30.5h-1h-1h-2h-1q-33 0 -42 -21.5t-13 -45.5v-2q-2 -12 -5 -23.5t-7 -21.5q-31 -61 -63.5 -118.5t-67.5 -115.5l-7 -14t-8 -12q-20 -33 -38.5 -65t-36.5 -64q-29 -16 -39 -43t-17 -56q0 -4 -1 -6t-1 -6q-6 -27 -16 -51.5t-35 -42.5 q-29 -8 -35 -28.5t-6 -43.5v-1v-1q-2 -14 -4 -28.5t-10 -24.5q-10 -12 -15.5 -27.5t-9.5 -31.5q0 -2 -1 -4l-1 -1q-6 -25 -15 -47t-36 -32q-6 -14 -10 -30t-8 -30q-2 -4 -2 -6t-2 -4q-10 -39 -26.5 -75t-55.5 -54q-2 -12 -4.5 -24.5t-4.5 -24.5v-1v-1q-6 -45 -19 -85 t-56 -61q-6 2 -12.5 2h-14.5h-16.5h-16.5q-10 -2 -18 -2h-17q-20 0 -40.5 5.5t-34.5 23.5h-1h-3h-3h-2q-10 0 -18 -4t-14 -10h-1h-1q-4 -4 -10.5 -7.5t-12.5 -5.5h-5h-7q-14 0 -28.5 -2t-29.5 -2q-6 -2 -10 -2t-10 -2q-10 0 -19.5 -1t-19.5 -1q-20 0 -40.5 5t-39.5 20 q-39 -10 -84 -19.5t-92 -9.5h-12t-12 2q-8 0 -14.5 1t-12.5 1q-2 0 -3 1l-1 1q-4 0 -9.5 2t-9.5 2q-14 6 -27.5 15.5t-15.5 27.5v1v3v3v1q0 16 8.5 26.5t18.5 18.5q0 2 1 3.5t3 1.5q8 8 17.5 18t11.5 27q2 33 20.5 58.5t38.5 47.5q23 25 41.5 50.5t18.5 62.5v1v1v1v1 q39 31 56 70.5t32 85.5q0 2 1 4t1 6q12 39 28.5 75.5t48.5 67.5q2 8 3.5 15.5t3.5 13.5v7v7q0 10 -1 19.5t-6 19.5q-23 27 -47 56.5t-49 60.5q-45 53 -88 111.5t-78 117.5q-14 25 -27.5 47.5t-25.5 44.5q-33 16 -51.5 44t-36.5 59q-16 31 -36.5 59.5t-53.5 44.5q-2 4 -6 8 t-8 11q-2 4 -6.5 8t-8.5 10q-18 20 -33.5 44t-15.5 50z" />
<glyph unicode="Z" horiz-adv-x="1767" d="M80 94v8v9q0 16 3 30.5t7 28.5q4 4 5 6l3 6q2 2 2 5v6q0 2 -1 5t-1 5l-4 8l-4 8q-4 8 -7 16.5t-3 16.5v3t2 3v1v3v9v10q-2 4 -2 9v9q0 35 10 64.5t37 44.5q43 27 81 60.5t75 70.5l9 9l9 9q37 37 75 69.5t79 57.5q18 63 64 111.5t104 81.5v1v1v1v1q0 4 -1 6t-4 6l-1 2 t-1 4q-2 4 -1 8t8 8q10 10 22 21.5t25 21.5q29 26 52 54q21 26 21 59v6v1v3v3v1q0 2 -1 3.5t-3 1.5q0 2 -1 3t-1 3q-2 2 -4 3t-4 -1h-7h-7h-7h-8q-23 0 -42 1t-40 3h-4h-4q-23 2 -44 3t-46 1h-6h-6h-7h-7q-18 37 -37 28.5t-39 -22.5q-12 -10 -23.5 -17.5t-23.5 -7.5h-1h-1 h-1h-1q-6 2 -12.5 2.5t-12.5 0.5q-12 0 -23.5 -1.5t-23.5 -3.5q-4 0 -7 -1t-5 -1q-16 -2 -30.5 -4t-29.5 -2q-23 0 -42 10.5t-29 36.5q-2 4 -2 9.5v9.5q0 12 4 22.5t8 20.5t8 20.5t4 20.5t-5 19t-17 18q-4 10 -7.5 19t-3.5 17q0 14 6.5 28.5t12.5 27.5q8 14 14 27.5t6 25.5 q0 10 -7 21.5t-26 21.5v8v8q0 37 3.5 73t25.5 63q23 20 52.5 27t60.5 7h20t21 -2q10 0 20 -1t21 -3q14 0 29.5 -2t27.5 -2q10 -4 18.5 -8t16.5 -8l17 -8.5t18 -10.5q18 8 37.5 14.5t37.5 10.5q18 2 38 4t38 2q41 0 81 -5t81 -15q29 12 58.5 16t60.5 4q16 0 33.5 -1t35.5 -3 q23 0 44.5 -1t43.5 -1q23 0 46.5 2t44.5 8q6 -2 12 -6l12 -8q2 0 3 -1t1 -3q8 -6 17.5 -9.5t19.5 1.5q4 2 7 5l5 5t3.5 3t3.5 3q4 4 8 7t8 3q10 -2 19.5 -3t19.5 -1q10 -2 19.5 -2h19.5q16 0 32.5 1t32.5 1q14 0 30.5 1t33.5 1h20.5t22.5 -2q10 0 20.5 -2t20.5 -4 q12 -6 17 -16.5t5 -24.5v-6v-6q-2 -6 -3 -12.5t-1 -12.5q-2 -6 -3 -11t-1 -9q-12 -10 -16 -22.5t-4 -24.5t3 -25.5t7 -28.5q4 -14 7 -29.5t3 -29.5t-5 -27.5t-17 -25.5q14 -18 20 -37t6 -35q0 -41 -25.5 -76t-56.5 -69q-12 -10 -22 -22.5t-21 -25.5q-4 -6 -8 -11t-8 -11 q-18 -2 -35.5 -11.5t-28.5 -27.5q0 -35 -18 -60.5t-41 -48.5l-4 -4l-4 -4q-12 -12 -23.5 -25.5t-21.5 -29.5q-45 -10 -64.5 -41t-34.5 -70q0 -2 -2 -5t-2 -7q-12 -33 -29.5 -61.5t-52.5 -46.5q0 -2 -1 -4.5t-1 -4.5q0 -4 -1 -8t-1 -8q0 -27 18.5 -44t41.5 -26q2 0 5 -1t5 -1 q14 -2 27.5 -4t27.5 -2q27 0 52.5 5t50.5 12l20 4t21 4q14 2 27.5 4t27.5 2q16 0 33.5 -3t36.5 -11q10 2 20 5t23 5q10 4 20 6t23 4q10 2 21 3t22 1q16 0 30.5 -2t28.5 -10t19.5 -22.5t5.5 -30.5q0 -6 -1 -13.5t-1 -15.5q-2 -2 -2.5 -5t-2.5 -7q0 -8 -2 -15.5t-2 -13.5 q-14 -8 -21 -17.5t-7 -19.5q0 -8 5 -18.5t9 -20.5q2 -2 3 -4l3 -6q2 -6 5 -12.5t3 -12.5q4 -16 5 -32.5t1 -32.5q0 -14 -1 -28.5t-1 -29.5q-2 -4 -2 -7v-7q-2 -18 -3 -36.5t-1 -37.5v-6v-6v-7v-7q-20 -16 -42.5 -22.5t-49.5 -6.5q-16 0 -33.5 2t-33.5 4q-10 2 -18.5 3 t-18.5 1q-8 0 -17.5 1t-17.5 1h-11.5t-9.5 -2q-4 0 -9 -1t-11 -1q-4 2 -9 4t-10 2q-6 2 -11 2h-9q-12 0 -24.5 -2t-24.5 -4q-12 -4 -23.5 -6t-23.5 -2q-14 0 -27.5 5t-26.5 18q-51 -16 -101 -21.5t-99 -5.5q-20 0 -40 1t-38 1q-20 0 -39.5 1t-40.5 1q-33 0 -64.5 -2 t-66.5 -6q-16 14 -33.5 21.5t-34.5 7.5q-16 0 -32.5 -4.5t-32.5 -8.5q-16 -6 -33.5 -10t-34.5 -4q-14 0 -29.5 5t-31.5 15q-45 -6 -94.5 -9t-100.5 -3h-40.5t-39.5 2q-20 2 -40.5 4t-41.5 4q-12 16 -18 36t-8 40z" />
<glyph unicode="[" horiz-adv-x="770" d="M170 1552q0 31 8 53.5t33 30.5q8 -2 17.5 -4t17.5 -2q14 -2 27.5 -4t25.5 -12q12 12 26.5 18t28.5 6h7.5t9.5 -2q10 -2 20 -8t21 -16q8 8 17 14t20 8q4 2 6 2h4q14 0 28.5 -13t20.5 -46q2 -14 2 -26.5v-24.5q0 -20 -1 -40t-1 -38q-2 -20 -2 -39.5v-38.5q0 -27 2 -54.5 t8 -55.5q-2 -27 -3 -51.5t-1 -49.5q0 -29 1 -57.5t3 -57.5v-6t2 -8q0 -31 2 -62.5t2 -66.5q0 -20 -1 -43.5t-3 -48.5q0 -23 1 -47.5t1 -48.5q2 -23 2 -47.5t2 -49.5v-16v-16q0 -35 -2 -70t-6 -65q2 -8 3 -15.5t1 -17.5v-11.5v-9.5q-2 -8 -2 -15v-13q0 -8 2 -16.5t6 -16.5 q-4 -20 -5 -42t-1 -42v-32.5t2 -31.5v-32.5v-32.5q0 -18 -1 -36.5t-3 -39.5q-4 -27 -15 -36t-24 -9h-4t-4 2q-2 0 -4 1t-4 1q-6 8 -13.5 11t-15.5 3q-6 0 -13 -2t-13 -2q-8 -2 -14.5 -4t-12.5 -2q-8 0 -15.5 2t-13.5 10q-12 -8 -26.5 -12t-28.5 -4q-6 0 -14.5 1t-14.5 1 q-4 0 -7 1t-7 1q-10 2 -20.5 3t-18.5 1h-7h-7q-2 0 -3 -1t-3 -1q-6 37 -9.5 74t-3.5 76q0 29 2 57.5t6 54.5q-4 27 -5 51.5t-1 49.5q0 31 2 59.5t4 59.5q2 29 3.5 57.5t1.5 58.5q0 29 -2.5 59.5t-8.5 63.5v4v4v2v4q0 18 -1 38t-1 38q-2 18 -3 35.5t-1 36.5q0 12 1 24.5 t3 24.5q0 10 3 22.5t5 24.5q-8 35 -9 75t-1 81v5v7v12.5v12.5v16v16q0 6 -1 14.5t-1 16.5q0 10 2 19.5t2 17.5q2 10 3 21.5t1 21.5t-1 19.5t-7 17.5q0 4 1 8t1 10v8.5v8.5v20t-2 21q0 8 -1 17t-1 20q-2 20 -4 39.5t-2 37.5zM287 1487q0 2 1 4t1 4v4v4q2 6 2 12.5v14.5v9v9 q-2 6 -2 11.5v9.5q0 8 2 16t10 17q0 2 -1 4t-1 4q-2 4 -3 7t-1 7l1 3t3 5q23 4 45.5 6t46.5 2h31.5t32.5 -2q6 -2 11 -3t9 -1h3h5q2 0 4 1t5 1q4 2 10 3t12 1h5h5q8 0 14.5 -1t12.5 -3q4 0 7 -1t5 -1h7h5h10.5t10.5 2q12 -8 14 -19t4 -24v-3v-1v-5v-5v-8t2 -8 q-8 -4 -11 -8.5t-3 -8.5q2 -4 5 -9t5 -11q2 -4 3 -7t1 -8q0 -6 -2 -12l-4 -12q0 -2 -1 -3l-1 -1q-2 -8 -5 -14.5t-3 -14.5q-4 -2 -7 -3t-7 -1q-2 0 -6.5 1t-6.5 3q-8 0 -14 1t-12 -3q-6 2 -10.5 4t-10.5 2t-11 -2t-11 -2q-6 -2 -11.5 -4t-11.5 -2q-2 0 -5 1t-5 1l-6 3t-4 3 q-12 -2 -25.5 -5t-27.5 -3h-5.5h-7.5q-14 0 -26.5 2t-24.5 4h-9t-7 -2q-2 0 -5.5 -1t-5.5 -1h-3h-3t-5 1t-5 1q-8 10 -11 18.5t-3 16.5zM297 49q0 2 1 4t1 4v6.5v4.5q2 6 2 13v15v11.5v11.5q-2 6 -2 11v11q0 10 2 19.5t10 17.5q0 4 -1 6t-1 4q0 4 -2 8.5t-2 6.5t2 5t2 5 q23 6 46.5 8t47.5 2h32t32 -2q6 -4 11 -5t9 -1h4.5t4.5 2h4t4 2q4 2 10 3t12 1h2h5.5h5.5q6 0 13 -1t13 -3q4 -2 6 -2h7q4 -2 6 -2h6t9 1t11 3q12 -8 14.5 -21.5t4.5 -27.5v-3v-3v-5v-5v-9.5t2 -9.5q-8 -4 -11.5 -9t-3.5 -9q2 -6 5.5 -11.5t5.5 -11.5q2 -4 3 -9t1 -9 q0 -6 -2 -13.5t-4 -15.5l-1 -2l-1 -2q-4 -8 -6.5 -15.5t-2.5 -17.5q-4 -2 -7 -3t-7 -1t-7 1t-7 3q-6 2 -12.5 3t-14.5 -5q-4 4 -9 5t-11 1t-11.5 -1t-11.5 -3t-11 -4t-11 -2q-2 0 -5.5 1t-5.5 1q-2 2 -5 4t-5 4q-12 -4 -25.5 -7t-27.5 -3h-5h-7q-14 0 -27.5 2t-24.5 6h-2 q-4 0 -8 -1t-8 -1q-2 -2 -5 -3t-5 -1h-3h-3t-5.5 1t-5.5 1q-8 12 -11 21.5t-3 19.5z" />
<glyph unicode="\" horiz-adv-x="1263" d="M82 1591q25 -14 22 -14q20 82 195 12q33 -14 92 4q43 -14 135 -213l136 -266q49 -94 129 -262q88 -186 127 -262q297 -582 296 -584h-358q-16 -47 -164 242q-92 184 -94 194q-33 49 -338 664q-152 307 -154 311q-128 229 -24 174z" />
<glyph unicode="]" horiz-adv-x="768" d="M170 1552q0 31 8 53.5t33 30.5q8 -2 17.5 -4t17.5 -2q14 -2 27.5 -4t25.5 -12q12 12 26.5 18t28.5 6h7.5t9.5 -2q10 -2 20 -8t21 -16q8 8 17 14t20 8q4 2 6 2h4q14 0 28.5 -13t20.5 -46q2 -14 2 -26.5v-24.5q0 -20 -1 -40t-1 -38q-2 -20 -2 -39.5v-38.5q0 -27 2 -54.5 t8 -55.5q-2 -27 -3 -51.5t-1 -49.5q0 -29 1 -57.5t3 -57.5v-6t2 -8q0 -31 2 -62.5t2 -66.5q0 -20 -1 -43.5t-3 -48.5q0 -23 1 -47.5t1 -48.5q2 -23 2 -47.5t2 -49.5v-16v-16q0 -35 -2 -70t-6 -65q2 -8 3 -15.5t1 -17.5v-11.5v-9.5q-2 -8 -2 -15v-13q0 -8 2 -16.5t6 -16.5 q-4 -20 -5 -42t-1 -42v-32.5t2 -31.5v-32.5v-32.5q0 -18 -1 -36.5t-3 -39.5q-4 -27 -15 -36t-24 -9h-4t-4 2q-2 0 -4 1t-4 1q-6 8 -13.5 11t-15.5 3q-6 0 -13 -2t-13 -2q-8 -2 -14.5 -4t-12.5 -2q-8 0 -15.5 2t-13.5 10q-12 -8 -26.5 -12t-28.5 -4q-6 0 -14.5 1t-14.5 1 q-4 0 -7 1t-7 1q-10 2 -20.5 3t-18.5 1h-7h-7q-2 0 -3 -1t-3 -1q-6 37 -9.5 74t-3.5 76q0 29 2 57.5t6 54.5q-4 27 -5 51.5t-1 49.5q0 31 2 59.5t4 59.5q2 29 3.5 57.5t1.5 58.5q0 29 -2.5 59.5t-8.5 63.5v4v4v2v4q0 18 -1 38t-1 38q-2 18 -3 35.5t-1 36.5q0 12 1 24.5 t3 24.5q0 10 3 22.5t5 24.5q-8 35 -9 75t-1 81v5v7v12.5v12.5v16v16q0 6 -1 14.5t-1 16.5q0 10 2 19.5t2 17.5q2 10 3 21.5t1 21.5t-1 19.5t-7 17.5q0 4 1 8t1 10v8.5v8.5v20t-2 21q0 8 -1 17t-1 20q-2 20 -4 39.5t-2 37.5zM287 1487q0 2 1 4t1 4v4v4q2 6 2 12.5v14.5v9v9 q-2 6 -2 11.5v9.5q0 8 2 16t10 17q0 2 -1 4t-1 4q-2 4 -3 7t-1 7l1 3t3 5q23 4 45.5 6t46.5 2h31.5t32.5 -2q6 -2 11 -3t9 -1h3h5q2 0 4 1t5 1q4 2 10 3t12 1h5h5q8 0 14.5 -1t12.5 -3q4 0 7 -1t5 -1h7h5h10.5t10.5 2q12 -8 14 -19t4 -24v-3v-1v-5v-5v-8t2 -8 q-8 -4 -11 -8.5t-3 -8.5q2 -4 5 -9t5 -11q2 -4 3 -7t1 -8q0 -6 -2 -12l-4 -12q0 -2 -1 -3l-1 -1q-2 -8 -5 -14.5t-3 -14.5q-4 -2 -7 -3t-7 -1q-2 0 -6.5 1t-6.5 3q-8 0 -14 1t-12 -3q-6 2 -10.5 4t-10.5 2t-11 -2t-11 -2q-6 -2 -11.5 -4t-11.5 -2q-2 0 -5 1t-5 1l-6 3t-4 3 q-12 -2 -25.5 -5t-27.5 -3h-5.5h-7.5q-14 0 -26.5 2t-24.5 4h-9t-7 -2q-2 0 -5.5 -1t-5.5 -1h-3h-3t-5 1t-5 1q-8 10 -11 18.5t-3 16.5zM297 49q0 2 1 4t1 4v6.5v4.5q2 6 2 13v15v11.5v11.5q-2 6 -2 11v11q0 10 2 19.5t10 17.5q0 4 -1 6t-1 4q0 4 -2 8.5t-2 6.5t2 5t2 5 q23 6 46.5 8t47.5 2h32t32 -2q6 -4 11 -5t9 -1h4.5t4.5 2h4t4 2q4 2 10 3t12 1h2h5.5h5.5q6 0 13 -1t13 -3q4 -2 6 -2h7q4 -2 6 -2h6t9 1t11 3q12 -8 14.5 -21.5t4.5 -27.5v-3v-3v-5v-5v-9.5t2 -9.5q-8 -4 -11.5 -9t-3.5 -9q2 -6 5.5 -11.5t5.5 -11.5q2 -4 3 -9t1 -9 q0 -6 -2 -13.5t-4 -15.5l-1 -2l-1 -2q-4 -8 -6.5 -15.5t-2.5 -17.5q-4 -2 -7 -3t-7 -1t-7 1t-7 3q-6 2 -12.5 3t-14.5 -5q-4 4 -9 5t-11 1t-11.5 -1t-11.5 -3t-11 -4t-11 -2q-2 0 -5.5 1t-5.5 1q-2 2 -5 4t-5 4q-12 -4 -25.5 -7t-27.5 -3h-5h-7q-14 0 -27.5 2t-24.5 6h-2 q-4 0 -8 -1t-8 -1q-2 -2 -5 -3t-5 -1h-3h-3t-5.5 1t-5.5 1q-8 12 -11 21.5t-3 19.5z" />
<glyph unicode="^" horiz-adv-x="843" d="M53 1284q2 -10 27 -41q23 -27 20 -39q-12 -47 84 -96v6q10 12 82 74q76 66 80 67q31 31 60 70q74 -57 63 -49l78 -74q25 -25 26 -20q2 2 27 -21q66 -63 53 -55q12 29 117 182q12 8 -70 88q-53 49 -57 51q6 -6 -94 86q-88 82 -90 84q-31 33 -45 35q-6 0 -6 -4 q6 4 -162 -155q-25 -25 -27 -21q-2 2 -26 -22l-78 -74q-57 -49 -62 -72z" />
<glyph unicode="_" d="M37 86q0 6 2 11t8 12l4 4l4 4h2q2 2 5.5 5t3.5 5t-2.5 3t-6.5 3q-10 0 -13 4t-3 6v2t-1 4.5t-3 4.5q2 14 19.5 18t43.5 4h19.5h21.5q10 -2 21.5 -2h21.5h13.5t11.5 2q4 -2 8 -3t10 -1q10 -4 22.5 -6t26.5 -2q18 8 41 10t45 2q8 0 19.5 -1t21.5 -1h21.5h21.5h7.5h9.5h5h7 q8 -4 17.5 -7t17.5 -3q4 0 11 1t14 3h13h13h3h3h2h2q2 0 3 1t4 1q0 2 2 3l2 1h1h3h3h1h21.5t23.5 2h8h8h15.5h15.5q16 0 30.5 -1t28.5 -5q6 0 14.5 1t16.5 1q12 2 25.5 3t27.5 1q8 0 17.5 1t17.5 1q31 0 54.5 -4t33.5 -16v-4v-4t1 -5.5t1 -5.5q0 -4 1 -7t1 -5q0 -6 -4 -12 t-16 -11q14 -8 21.5 -18t7.5 -23q0 -10 -5.5 -18t-13.5 -16q2 -2 3 -4l1 -2q0 -2 -2 -5.5t-4 -5.5q-4 -4 -6 -7t-2 -5v-2q-14 2 -27.5 2t-27.5 2h-15.5h-13.5q-18 0 -36.5 -1t-35.5 -1h-35.5h-35.5h-25.5h-24.5q-14 0 -26.5 1t-24.5 3q-6 -4 -16 -6t-21 -2h-12t-12 2h-12.5 h-10.5h-11t-11 -2q-10 -4 -22.5 -5t-22.5 1q-16 0 -34 2t-32 4q-4 0 -7 1t-7 1q-12 2 -25.5 3t-28.5 1q-6 0 -14 -1t-16 -1q-6 -6 -14.5 -8t-20.5 -2q-6 0 -13.5 1t-15.5 1q-2 0 -4 1t-4 1q-8 0 -16 1t-15 1h-2h-3h-3h-16h-17h-8t-8 -2h-12h-13q-18 0 -34.5 3t-24.5 13 q6 4 9 10.5t1 10.5q0 4 -2 9t-4 9q0 2 -1 4t-3 4q-4 6 -6 13.5t-2 13.5z" />
<glyph unicode="`" horiz-adv-x="641" d="M92 1563q0 8 1 16t5 16q0 4 1 9.5t1 7.5q4 8 7.5 10t9.5 2h1h1l2 -2q2 0 3 -1t1 -3q8 -8 15 -13.5t18 -0.5q8 12 19 15t24 3h3h3h9t9 2h1h3q4 0 7.5 -2t7.5 -4v-2h2q2 -4 4 -5t4 -3q25 8 48.5 14t47.5 6h9.5t9.5 -2q4 -12 11 -16t17 -4q4 0 9.5 2t11.5 2h2q2 2 4 2h4v1 t2 1h2q6 0 10 -6t4 -15v-3v-1v-3v-1v-14t3 -15v-15v-13q0 -10 -1.5 -20.5t-9.5 -20.5q8 -16 13.5 -33.5t9.5 -34.5q2 -8 2 -16v-17q0 -14 -2 -27t-8 -26q14 -16 18 -37.5t6 -42.5v-2v-2q4 -18 7 -37.5t16 -35.5q-2 -12 -7.5 -21.5t-19.5 -11.5h-3h-3q0 -2 -2 -2h-2 q-25 0 -37 14t-23 33q-10 16 -23 31.5t-38 15.5h-4h-4q-6 12 -16.5 22.5l-20.5 20.5v2q-14 12 -26.5 25.5t-14.5 31.5q-16 16 -34.5 25.5t-37.5 15.5q-6 14 -15 28.5t-19 27.5q-4 4 -5.5 7t-5.5 7q-14 18 -24.5 37.5t-10.5 42.5v2q-6 6 -9 14t-3 19z" />
<glyph unicode="a" horiz-adv-x="1966" d="M90 47q0 2 1 5t3 5q2 10 5 20.5t7 20.5q14 41 33 80t54 64q-2 6 -2.5 12t-0.5 12q0 35 13.5 63.5t40.5 49.5v4v6q-2 2 -2 4v4q0 37 17 66t36 55q23 29 39 58.5t16 68.5v3v3v1v3q2 2 2 5.5t2 5.5q8 20 17.5 37.5t27.5 31.5q8 53 22.5 103.5t59.5 89.5q-2 4 -3 8t-1 8 q-2 4 -2 8v9q0 14 4 27t6 28q6 16 9.5 32.5t3.5 30.5q0 16 -7.5 32.5t-25.5 31.5q-10 -2 -23.5 -4t-25.5 -2q-6 -2 -12.5 -2h-12.5q-29 0 -53.5 12t-30.5 45q-2 6 -3 11t-1 11q-2 6 -2 11.5v11.5q0 23 4 43t8 43q4 20 8.5 40.5t4.5 41.5q0 20 -5.5 38.5t-17.5 35.5v8v8 q-2 4 -2 8v8q2 37 13.5 70t43.5 53q4 2 7.5 3t7.5 1h6h6q14 0 28.5 -5t26.5 -11q14 -8 26.5 -13t25.5 -5q6 0 11 2t11 4q6 4 11 9t12 13q4 0 6 1t6 1h5h5q18 0 35.5 -4t36.5 -8q16 -6 32.5 -10t32.5 -4q12 0 24.5 4t24.5 12q8 -2 17.5 -3t17.5 -1q10 0 22.5 2t24.5 2 q2 2 4.5 2h4.5q12 2 26.5 3t26.5 1q20 0 39.5 -6t36.5 -22q25 16 50 21t52 5q14 0 28.5 -1t30.5 -1q14 -2 28.5 -3t29.5 -1q23 -2 43 2t41 12h4t4 2h4h4q33 -2 51.5 -23.5t32.5 -45.5q4 -8 7 -14.5t5 -12.5l3 -3t1 -3q8 -20 9.5 -37.5t3.5 -34.5q0 -27 5 -49t30 -45 q27 -35 35 -77t12 -87q6 -57 21.5 -111.5t72.5 -90.5q14 -18 17 -38t3 -40v-12.5v-10.5v-12v-12q0 -27 6.5 -49.5t32.5 -41.5q35 -25 47.5 -59.5t20.5 -73.5q0 -2 1 -5t1 -5q6 -31 15 -59.5t32 -53.5q6 -23 15.5 -44t17.5 -44q18 -43 32.5 -87t16.5 -89q4 -4 7 -9t7 -9 q23 -33 42.5 -66.5t19.5 -72.5v-8.5v-8.5q0 -6 -1 -10t-3 -8q-20 -35 -48 -47.5t-65 -20.5q-14 4 -28.5 12.5t-24.5 22.5q-4 -2 -8.5 -3t-8.5 -1q-27 -8 -58.5 -15.5t-64.5 -7.5q-27 0 -50 7.5t-44 21.5q-23 -8 -48 -17.5t-52 -11.5q-10 -2 -19.5 -2h-17.5q-18 0 -36.5 4.5 t-35.5 12.5q-18 6 -23 20.5t-5 28.5v4v4q0 18 -4.5 31.5t-28.5 15.5q-6 8 -11 17.5t-10 19.5q-8 18 -19 35.5t-34 25.5q-45 8 -88 12.5t-84 4.5q-57 0 -112.5 -9.5t-108.5 -29.5q-20 -16 -30.5 -41t-18.5 -51q0 -2 -1 -4t-1 -4q-12 -41 -31.5 -74t-75.5 -33h-1h-1h-1h-1 q-14 10 -27.5 14.5t-29.5 4.5q-14 0 -28.5 -3.5t-29.5 -7.5q-14 -4 -28.5 -7t-28.5 -3q-6 0 -13 2t-13 4t-13.5 5t-13.5 7q-16 -2 -33.5 -4t-36.5 -6q-12 -2 -23.5 -3t-23.5 -3q-14 -2 -27.5 -3t-25.5 -1q-35 0 -65.5 10t-53.5 37zM881 612q0 -10 3 -20t7 -19q2 -2 3 -4 t1 -4q10 0 20.5 -5t20.5 -11l1 -1l1 -1q12 -7 26 -13q5 -2 10 -2q10 0 21 7q23 6 30 17t7 26q0 10 -2 21l-4 22q-2 6 -3 12t-3 12q0 4 -1 10.5t-1 12.5v7t2 7q0 4 1 7t3 7q-4 8 -11 13.5t-16 11.5q0 2 -2 3t-4 3q-6 4 -11 9t-9 12q-6 4 -11.5 5t-9.5 1q-20 0 -27.5 -19.5 t-11.5 -42.5v-3t-2 -1q-2 -16 -7 -32.5t-15 -24.5q-2 -6 -4 -12.5t-2 -10.5z" />
<glyph unicode="b" horiz-adv-x="1662" d="M76 160q0 31 8 59.5t33 48.5q-18 23 -25.5 51.5t-7.5 59.5q0 20 3 38.5t5 35.5q12 23 17.5 46t5.5 46q0 29 -5.5 56.5t-11.5 55.5q-8 29 -13 57.5t-5 59.5q0 16 2 31.5t6 32.5q2 6 5 12t7 10q4 10 8.5 18.5t4.5 18.5v3v3l-1 1t-1 3q-18 27 -21.5 60.5t-3.5 70.5v4v7v9v9 v15.5v15.5q2 4 3 8t3 8q0 2 1 3l1 1q8 20 14.5 42t6.5 48v12.5t-2 12.5q-18 16 -25.5 37.5t-5.5 46.5q0 16 1 30.5t3 28.5q2 6 6 13.5t8 11.5q2 4 4 7t5 5q4 6 6 12.5t2 14.5v7t-2 5q-14 16 -20.5 35.5t-6.5 40.5q0 12 2 24.5t4 24.5q12 25 34 33t46 8h13.5t15.5 -2 q8 0 15 -1t13 -3q8 -10 20.5 -15.5t27.5 -5.5q8 0 14 2l12 4q6 6 11.5 9.5t11.5 7.5q4 0 7 1t5 3q14 2 27.5 2h25.5q27 0 53.5 -2t53.5 -2q27 -2 52.5 -4t49.5 -2q31 0 61.5 4t61.5 12q23 -8 45.5 -10t42.5 -2q25 0 49.5 3t48.5 7q4 0 8.5 1t8.5 1q27 4 55.5 8t58.5 4h7.5 h5.5h7h7q14 0 28.5 -1t28.5 -3q45 -4 89.5 -20.5t74.5 -44.5q4 2 9.5 2h9.5h8t8 -2q33 -6 64.5 -31t56.5 -53q0 -2 1 -3l3 -3q2 -16 12.5 -29.5t22.5 -28.5l1 -1l1 -1q10 -10 18 -20t15 -23q2 -10 5 -22.5t5 -24.5q2 -10 4 -20.5t4 -22.5q2 -8 3 -17t1 -20q0 -25 -8 -45 t-31 -37q4 -14 6 -27.5t2 -23.5q0 -47 -25.5 -82t-58.5 -65v-1t-2 -1q-14 -14 -27.5 -29.5t-25.5 -32.5q10 -10 21.5 -19t25.5 -18l2 -2q2 -2 4 -2q25 -16 44.5 -35.5t19.5 -52.5v-9t-2 -11q39 -12 56.5 -44t29.5 -67q2 -4 3 -9t3 -11t4 -11.5t4 -11.5q-4 -14 -6 -28.5 t-2 -30.5v-18.5t2 -18.5v-10t2 -9q0 -14 1 -28.5t1 -26.5q0 -39 -12 -71.5t-51 -55.5v-5v-5q0 -14 -6.5 -27.5t-14.5 -25.5l-1 -1l-1 -1q-6 -12 -12 -23.5t-6 -26.5v-2q-86 -86 -182.5 -121.5t-213.5 -35.5q-23 0 -47 2t-51 4q-2 2 -6 3t-6 1h-7h-7q-18 0 -36 -5t-34 -11h-6 t-6 2h-7.5h-7.5q-8 0 -17 -1t-20 -1q-8 0 -17 -1t-19 -1q-25 2 -48.5 6t-40.5 18q-2 0 -4 1t-4 1h-4h-4q-14 0 -26.5 -5t-22.5 -15q-6 -2 -13.5 -4t-15.5 -5q-8 0 -15 -1t-13 -1q-20 0 -41 3.5t-41 7.5t-41 7t-39 3q-20 0 -40 -5t-38 -20q-6 2 -11 4t-12 2q-6 2 -11 2.5 t-11 0.5q-18 0 -36.5 -3.5t-35.5 -7.5q-16 -6 -32.5 -9t-32.5 -3q-20 0 -40 9t-36 36q0 14 -1 28.5t-1 28.5q-2 14 -3 28.5t-1 29.5zM713 1186q0 -18 6 -38t14 -38q4 -10 8 -20.5t7 -20.5q6 -2 13 -3t15 -1q16 0 30.5 5t22.5 15q2 6 5.5 12.5t7.5 12.5q2 4 4 7t4 7 q10 14 18.5 29.5t8.5 32.5q0 6 -2.5 13t-6.5 15q-4 23 -21.5 33t-37.5 15q-8 2 -14.5 3t-12.5 3q-4 -6 -11 -8.5t-15 -4.5q-10 -2 -19.5 -6t-13.5 -18q-2 -6 -4 -11.5t-4 -11.5t-2 -11v-11zM731 602q0 -33 9.5 -64.5t29.5 -58.5q6 -2 13.5 -4t15.5 -2h7t5 2q12 2 24.5 8 t20.5 17q0 14 4 28.5t10 28.5v1v1q6 14 10.5 29.5t4.5 29.5q0 10 -3 21.5t-12 22.5q-10 20 -30.5 31.5t-42.5 13.5h-4h-5q-12 0 -23 -3.5t-22 -7.5q-2 -12 -5 -23t-3 -24q-2 -12 -3 -23.5t-1 -23.5z" />
<glyph unicode="c" horiz-adv-x="1626" d="M74 762q0 20 3 39.5t9 38.5q2 16 2 31.5t2 33.5q0 14 1 30.5t1 31.5q4 47 14.5 91t36.5 81q12 23 29.5 40t34.5 33q2 2 5 4.5t5 4.5q27 23 48.5 49t29.5 67q10 6 18.5 14.5t16.5 18.5q16 16 35.5 31.5t46.5 15.5q59 57 127.5 105.5t150.5 56.5q33 2 65.5 5t63.5 7 q12 2 22.5 3t20.5 3q43 6 87 11.5t89 7.5q16 -4 32.5 -6t31.5 -2q18 0 35.5 2t33.5 4q16 0 34 2t34 2h16.5t16.5 -2t16 -3t17 -5q14 18 37.5 24t48.5 6h13h13h6h7h12h10q2 0 4 -1t4 -3q10 -4 19.5 -12t15.5 -18q4 -4 6 -7.5t4 -7.5q-2 -14 -2 -27.5v-27.5q0 -27 2 -52.5 t4 -49.5v-8.5t2 -6.5q2 -23 3.5 -44t1.5 -44v-16v-17q0 -8 -1.5 -16t-3.5 -16q0 -8 1 -16.5t4 -16.5q0 -4 1 -8t1 -9l4 -24t2 -25q0 -14 -3 -26.5t-14 -22.5q-14 -10 -26.5 -14t-24.5 -4q-14 0 -27.5 4t-27.5 8q-14 6 -28.5 10t-29.5 4q-12 0 -24 -4t-27 -14q-8 2 -15 3 t-15 1q-14 0 -27.5 -2t-28.5 -4q-14 -4 -27.5 -6t-25.5 -2q-14 0 -27.5 4t-25.5 12q-31 -14 -59.5 -30.5t-57.5 -34.5q-8 -4 -16.5 -9.5t-16.5 -9.5q-29 -16 -57.5 -33.5t-56.5 -31.5q-16 -29 -24.5 -65t-8.5 -73v-9v-11q2 -45 15 -89t36 -79q29 0 50.5 -12.5t41.5 -28.5 q10 -6 21.5 -13.5t21.5 -13.5q12 2 24.5 3t24.5 1q23 0 44.5 -2t43.5 -6q20 -2 42 -5t42 -3q23 0 46.5 5t43.5 18q6 -2 12.5 -3.5t12.5 -3.5h6h6q14 0 29.5 2.5t30.5 6.5q16 2 30.5 4t28.5 2q29 0 49.5 -13.5t28.5 -52.5l4 -8t2 -8q2 -4 2 -8v-9q0 -12 -3 -23t-7 -22 q-6 -12 -9 -23t-3 -22q0 -10 4 -19t12 -20q10 -14 12 -27.5t2 -27.5t-3 -29.5t-7 -29.5q-4 -16 -7 -30.5t-3 -31.5q0 -12 3 -24.5t9 -24.5q-2 -8 -3 -17t-1 -18q-4 -27 -11 -51t-40 -37q-4 0 -9 1t-10 1q-6 2 -11 2h-9q-18 0 -36.5 -2t-37.5 -6q-18 -2 -35.5 -5t-35.5 -3 q-10 0 -20.5 1t-20.5 5q-10 2 -20.5 8t-20.5 15q-33 -14 -70 -21.5t-78 -7.5q-45 0 -87 7t-77 20q-18 -6 -41.5 -12.5t-48.5 -8.5h-11h-9q-18 0 -34.5 4t-33.5 13q-8 -2 -14 -2.5t-12 -0.5q-45 0 -80 18.5t-68 43.5q-27 18 -55.5 34.5t-63.5 22.5q-37 10 -58.5 36t-39.5 56 q-2 0 -2 1t-2 4q-16 27 -35.5 50t-50.5 38q-61 72 -96 153.5t-37 173.5q-23 20 -33 49t-10 62z" />
<glyph unicode="d" horiz-adv-x="1888" d="M86 113q0 27 6 51t12 49q6 23 12.5 47.5t6.5 50.5q0 10 -1 21.5t-5 21.5q-2 16 -4 35t-4 37l-3.5 14t-1.5 15q-2 18 -4 37.5t-2 37.5q0 29 5.5 55.5t17.5 51.5q-10 51 -14.5 101t-4.5 100q0 35 1 70.5t3 70.5q2 8 2.5 17.5t2.5 17.5q2 45 4 89t2 89q0 39 -2 78t-9 78 q8 10 10.5 17t2.5 15t-3 15.5t-7 15.5v1v3q-6 10 -9.5 20.5t-3.5 22.5v8t2 9v21v22q0 23 5.5 45t23.5 36q41 20 84 27.5t86 7.5q25 0 51.5 -2t52.5 -2q27 -2 54.5 -4t56.5 -2q8 -6 15.5 -9t15.5 -3t17 3t18 5q10 4 19 6t17 2q6 0 12.5 -1t14.5 -1q6 -2 12 -2h13q23 0 46 2 t46 6q23 2 45 4t45 2q29 0 54.5 -5t51.5 -17q4 -2 7.5 0t5.5 4q2 4 5 5t7 1q20 6 39.5 8t38.5 2q76 0 141.5 -33.5t128.5 -74.5q37 -23 73 -45.5t75 -36.5q6 -8 12 -15.5t12 -17.5q4 -4 7 -9t7 -9q16 -25 36 -46.5t46 -31.5q43 -35 65.5 -79t43.5 -89q0 -2 1 -5t3 -5 q4 -12 10 -25.5t13 -26.5q31 -47 48 -105t21 -118v-11v-11q0 -45 -8 -87t-27 -79q2 -12 2 -24.5v-22.5q0 -70 -22.5 -133.5t-81.5 -100.5q-18 -96 -92 -165.5t-166 -96.5q-41 -68 -110.5 -88t-145.5 -29q-4 -2 -10 -2h-11q-20 -2 -39.5 -5t-37.5 -5q-16 16 -34 22.5t-34 6.5 t-32.5 -4t-30.5 -9q-16 -4 -33 -8t-33 -4q-14 2 -26.5 5t-24.5 12q-27 -6 -55.5 -10.5t-57.5 -6.5h-19h-20h-15h-15q-37 2 -73 7t-69 14q-27 0 -55.5 -5.5t-56.5 -9.5q-10 -2 -20.5 -3t-20.5 -3q-23 -4 -45.5 -6t-42.5 -2q-41 0 -78 12.5t-66 44.5q-4 16 -6 29.5t-2 26.5z M768 934q10 -41 13 -85t5 -91v-6v-7q2 -37 4.5 -72.5t8.5 -68.5l4 -8t4 -6q0 -4 2 -8t4 -9q10 -6 22.5 -9t24.5 -3q4 0 7 1t7 1q16 2 31 7t25 12q59 2 101 45t69 96q10 18 18 35.5t17 34.5q0 37 -4.5 70.5t-10.5 66.5q0 4 -1 6t-1 4q-2 14 -4 28.5t-4 28.5 q-27 25 -50.5 45.5t-47.5 38.5q0 2 -1 3t-3 1q-4 4 -9.5 8.5t-9.5 8.5q-20 8 -44.5 12t-49.5 6q-4 0 -9 1t-12 1q-6 0 -13 1t-15 3q-37 -14 -44 -43.5t-9 -60.5q-2 -25 -5.5 -48.5t-19.5 -39.5z" />
<glyph unicode="e" horiz-adv-x="1198" d="M55 1522q0 16 2 34.5t9 36.5q14 18 34.5 24.5t42.5 6.5h13.5t15.5 -2q8 0 15.5 -1t13.5 -3q10 -4 21 -6t22 -2q16 0 32.5 3t32.5 7q16 2 32.5 5t35.5 3q10 0 21.5 -2t23.5 -6q6 -2 11 -4t11 -6q16 6 32 10l32 8q14 2 30.5 3t30.5 1q33 0 66 -3t65 -9h3.5h3.5 q31 -4 62.5 -8t61.5 -4q18 12 45 20t56 10h12h12q35 0 64 -12t41 -41q-2 -10 -4 -20.5t-2 -20.5q0 -20 4 -41.5t10 -42.5q4 -23 8 -44t4 -42q0 -12 -2 -23.5t-6 -21.5q0 -4 1 -10t1 -12q2 -6 2 -12.5v-14.5q2 -6 2 -12v-13q0 -16 -4 -30.5t-18 -24.5q-39 -6 -75 -8t-71 -2 h-24.5h-24.5h-12t-12 2h-37h-37h-12.5h-12.5q-27 -14 -42 -31.5t-29 -44.5v-3v-1v-3v-3q0 -37 24.5 -49.5t55.5 -20.5h5t5 -2q14 -2 26.5 -5t22.5 -9q25 14 60.5 20.5t74.5 6.5q27 0 52.5 -2.5t47.5 -6.5q14 -12 19.5 -25.5t5.5 -29.5q0 -14 -4 -29.5t-10 -31.5q0 -16 3 -34 t7 -34t7 -32.5t3 -33.5q0 -14 -4 -29.5t-14 -31.5q-10 -8 -21.5 -11t-23.5 -3q-10 0 -21.5 2t-21.5 6q-12 2 -23.5 4t-21.5 2q-12 0 -24.5 -4t-25.5 -14q-6 2 -12 3t-12 3q-6 0 -11.5 1t-11.5 3q-12 2 -24.5 3t-24.5 1q-20 0 -39.5 -6t-36.5 -23q-2 -6 -3 -12t-1 -14 q0 -2 -1 -4t-1 -5q0 -12 -5 -25t-17 -24v-7v-7q2 -35 19.5 -66.5t53.5 -42.5q8 -2 15.5 -3t15.5 -1h13.5h15.5q25 0 49.5 2t46.5 7q25 2 48.5 4t45.5 2q14 0 28.5 -1t29.5 -3q14 -4 28.5 -8.5t28.5 -10.5q16 -12 20.5 -25.5t4.5 -29.5q0 -10 -2.5 -20.5t-2.5 -18.5 q-2 -10 -4 -19.5t-2 -19.5q0 -8 2 -17.5t9 -17.5q4 -12 6 -23.5t2 -21.5q0 -16 -3 -31.5t-7 -29.5q-2 -6 -4.5 -11.5t-2.5 -9.5l-4 -20t-2 -21q0 -12 3 -24.5t10 -24.5v-3v-1q0 -25 -13.5 -45.5t-36.5 -34.5q-125 -6 -242.5 -6h-236.5h-4h-4q-45 2 -90 2h-90 q-70 0 -141.5 -1t-143.5 -5q-27 27 -44 62.5t-17 74.5q0 12 2 24.5t6 24.5q4 8 7 14.5t3 12.5t-2 12l-4 12q0 2 -1 5l-1 2q-4 10 -6 21t-2 22v1v3v3v1q6 20 9 39.5t5 40.5q2 18 3 37.5t1 40.5q0 29 -2 58.5t-4 57.5l-4 74t-2 74q0 29 2 56.5t6 55.5q-4 29 -6 62t-4 65v13.5 v13.5q0 43 4 85t14 79q-14 23 -21 52.5t-7 61.5v8.5v10.5q2 27 9 51.5t15 44.5q-16 37 -25.5 74t-9.5 76z" />
<glyph unicode="f" horiz-adv-x="1220" d="M55 1518q0 14 1 28.5t3 28.5q0 6 1 13t1 14q27 20 58 27t63 7h19.5t17.5 -2q10 0 19.5 -1t17.5 -1q18 -2 36.5 -4t35.5 -2q16 4 32.5 5t34.5 3q16 2 32.5 2h33.5q29 0 57.5 -1t56.5 -3q29 -2 58 -3t57 -1q27 0 52.5 2t52.5 4q25 2 49 3t51 1q25 0 50.5 -1t51.5 -1 q25 0 50.5 -1t50.5 -1q8 -2 15 -6t15 -10q10 -14 13.5 -28.5t3.5 -28.5q0 -12 -2 -24.5t-4 -25.5q-2 -12 -4 -23t-2 -24q0 -8 1 -15t5 -13q2 -8 7 -15.5t13 -15.5q-2 -12 -2 -23.5v-21.5q0 -16 1 -31.5t3 -32.5q0 -4 1 -9t1 -9q0 -10 1 -20.5t1 -20.5q0 -12 -1 -25.5 t-5 -27.5q-16 -8 -33.5 -13.5t-35.5 -5.5q-14 0 -30 3t-32 10q-16 -4 -33.5 -5.5t-33.5 -1.5q-12 0 -25.5 1.5t-26.5 1.5q-14 0 -27.5 1t-25.5 1q-39 0 -73.5 -11.5t-59.5 -52.5q2 -4 2 -8v-8v-11.5t-2 -11.5v-6v-6q-2 -8 -3 -16.5t-1 -16.5q0 -18 9 -32.5t36 -20.5 q18 -4 35.5 -6t34.5 -4h17h17h27.5t28.5 2h13t13 2q20 0 42 1t42 1h12.5h14.5q6 0 12 -1t12 -1q16 -20 21.5 -44t5.5 -46q0 -10 -1 -19.5t-1 -19.5t-1 -19.5t-1 -19.5q0 -14 2 -29.5t10 -30.5v-5v-5v-5v-7q-2 -27 -10 -51.5t-39 -36.5q-14 2 -27.5 2h-27.5q-23 0 -44.5 -2 t-43.5 -4q-20 -2 -41 -5.5t-41 -5.5q-16 -4 -33.5 -6t-34.5 -4q-25 -18 -33 -41.5t-8 -50.5q0 -10 1 -21.5t3 -21.5v-5v-5q2 -14 3 -27.5t1 -25.5q0 -14 -2 -26.5t-6 -25.5q4 -6 6 -12t5 -10q2 -6 2 -12.5v-12.5q0 -12 -2.5 -23.5t-2.5 -21.5q-2 -12 -4 -23.5t-2 -21.5 q0 -14 4.5 -26.5t14.5 -24.5v-5v-5v-6v-7q0 -29 -7.5 -57.5t-23.5 -52.5q-10 -12 -23.5 -16.5t-27.5 -4.5q-8 0 -17.5 1t-17.5 3q-8 0 -17.5 1t-17.5 1q-14 0 -25.5 -3t-21.5 -13q-8 6 -17.5 11t-17.5 8q-10 4 -18 4h-19q-18 0 -35.5 -4.5t-35.5 -8.5q-18 -6 -37 -10t-37 -4 q-10 0 -21.5 2t-21.5 6q-10 10 -19.5 10t-17.5 -2q-2 -2 -5 -3t-5 -1q-6 -4 -13.5 -6t-13.5 -2h-4t-4 2q-2 0 -4 1t-4 1t-5 1t-5 1q-8 0 -14.5 1t-12.5 1q-29 4 -54.5 15.5t-27.5 40.5v6t2 6v5v5q0 18 -3 35.5t-7 36.5q-4 20 -7 39.5t-3 38.5q0 20 7 39.5t21 35.5 q-8 72 -11 141.5t-3 137.5v41.5t2 42.5v50.5v51.5q0 53 -2 108.5t-8 110.5v11.5t2 11.5v11v11q0 33 -2 68t-4 72q-2 27 -4 52.5t-4 51.5v22.5v20.5q0 29 2 58.5t6 56.5q-10 16 -14.5 33.5t-4.5 38.5z" />
<glyph unicode="g" horiz-adv-x="1658" d="M76 688q6 31 6 61.5v61.5v12v13q0 16 1 31.5t1 31.5q2 14 5 30.5t7 31.5q23 31 34 68.5t20 76.5v3t2 3q14 66 38.5 125t96.5 88q31 76 101.5 126t148.5 75l16 4l16 4q47 37 109.5 56.5t128.5 29.5q12 2 24.5 4t24.5 4q35 6 68.5 8t66.5 2h37t37 -2h17.5h19.5 q27 -2 54.5 -3t55.5 -1q25 0 50.5 1t52.5 3q4 -2 8 -3t10 -1q4 -2 8.5 -2h8.5q8 0 15 1t15 3q8 0 15.5 1t15.5 1h7t7 -2q2 0 6.5 -1t6.5 -3q35 -14 43 -39.5t8 -54.5v-15.5v-15.5q-2 -8 -2 -15v-15q0 -20 4 -38t16 -34q-6 -12 -8 -25.5t-2 -27.5q0 -16 3 -33t5 -33 q4 -18 6 -34.5t2 -32.5q0 -27 -13 -50.5t-50 -38.5q-16 -2 -33.5 -3t-34.5 -1q-33 0 -63.5 3t-61.5 8q-4 0 -8 1t-8 1q-35 4 -69.5 8t-71.5 4q-25 0 -49.5 -2t-51.5 -8q-55 -8 -101 -36t-91 -59q-12 -10 -23.5 -18t-23.5 -16q0 -39 -8.5 -76t-16.5 -74q-2 -6 -3 -13t-3 -13 q-8 -31 -13 -62t-5 -63q0 -12 1 -24.5t3 -25.5q10 -41 33.5 -71.5t52.5 -59.5l1 -1l1 -1q12 -12 24.5 -25.5t22.5 -27.5q8 -2 15 -3t16 -1q29 0 54.5 11.5t41.5 31.5v20.5t2 22.5v25.5v27.5v28.5t-2 29.5q-2 35 -7 66.5t-18 58.5q0 6 1 12t3 12q2 20 12.5 39.5t35.5 24.5 q18 4 36.5 5t38.5 1h20.5h18.5q10 -2 20.5 -2h18.5q29 0 55.5 2t53.5 10q10 -6 19 -10t20 -6q8 -2 18 -3.5t18 -1.5q18 0 36 3.5t34 7.5q16 2 32.5 5t33.5 3q25 0 48 -9.5t44 -37.5q-2 -12 -3 -25.5t-1 -25.5q-2 -12 -2 -25.5v-26.5q0 -45 4 -89t6 -89q2 -2 2 -4v-6 q4 -45 7 -92t3 -94q0 -31 -2 -62t-6 -61q0 -6 1 -14.5t1 -16.5q2 -6 2 -14v-17q2 -8 2 -15v-15q0 -27 -3 -53.5t-11 -47.5q-31 -31 -70 -40t-80 -9q-16 0 -32.5 1t-32.5 1t-32.5 1t-33.5 1h-17t-18 -2q-8 0 -17 -1t-17 -3t-15.5 -2h-13.5q-23 0 -44.5 3t-43.5 7q-20 4 -42 7 t-44 3q-20 0 -40 -3t-40 -13q-4 0 -7 -1t-7 -1h-7.5h-7.5q-25 0 -48 4t-46 10q-6 0 -14 2t-15 5q-16 2 -30.5 4t-30.5 2q-14 0 -27.5 -2t-27.5 -7q-109 4 -199 65.5t-160 137.5q-94 86 -146 197.5t-79 226.5q-2 10 -4 20.5t-4 20.5z" />
<glyph unicode="h" horiz-adv-x="1677" d="M76 1473q0 14 1 29.5t3 29.5q0 8 1 15t1 16q2 6 3 13t1 15q25 16 53.5 22.5t61.5 6.5q10 0 20 -1t21 -1q23 -2 43 -7t39 -12q23 12 50 18.5t56 6.5q31 -2 60.5 -8t50.5 -19q25 8 52.5 14.5t55.5 6.5h9.5h11.5q4 0 9 -1t9 -3q20 -20 28.5 -46t8.5 -55q0 -12 -1 -24t-5 -25 q-14 -12 -13 -22t7 -21q0 -2 2 -4t2 -6q6 -8 10 -18.5t0 -22.5q4 -8 6 -18.5t2 -20.5v-9t-2 -11q0 -4 -1 -9.5t-1 -11.5q-2 -10 -4 -19t-2 -18q0 -18 10 -31.5t39 -21.5q16 -2 34.5 -4t39.5 -2q29 0 53.5 8t36.5 31q2 33 3 64.5t3 62.5v31.5v31.5q0 41 -1 81t-3 81 q10 18 29.5 29.5t40.5 19.5q2 0 5 2t5 2h5h3q16 0 29.5 -5t25.5 -15q53 6 106.5 8t108.5 2h41t41 -2q41 0 83 -2t81 -4q8 -4 11.5 -10t5.5 -13v-2q2 -4 2 -6t2 -4q0 -20 2 -41.5t4 -42.5q0 -20 2 -41.5t2 -42.5q0 -20 -3 -41.5t-9 -40.5q14 -18 19 -36.5t5 -36.5 q0 -16 -3 -32t-7 -32q-4 -18 -7 -35.5t-3 -34.5q0 -18 6 -36.5t20 -34.5q4 -10 6.5 -19.5t2.5 -19.5q0 -18 -6.5 -35.5t-12.5 -34.5q-4 -8 -7 -17t-5 -18l-4 -16t-2 -16q0 -14 7 -29.5t25 -32.5q-4 -25 -7 -49.5t-3 -48.5q0 -25 2 -48.5t4 -47.5q4 -29 6.5 -56.5t2.5 -56.5 q0 -39 -7.5 -78t-27.5 -78q20 -33 26 -65.5t6 -67.5q0 -16 -1 -32.5t-1 -32.5q-2 -18 -3 -35t-1 -33v-17.5t2 -19.5q-4 -4 -7 -8t-5 -10q-6 -8 -12 -16.5t-19 -14.5q-51 8 -104 10t-107 2q-51 0 -105 -2t-108 -6q-27 0 -54 -1t-54 -3q-2 0 -4 1l-2 1q-25 8 -46.5 30.5 t-27.5 49.5q-2 16 -3 31.5t-1 29.5q0 8 -1 15.5t-1 15.5q0 23 -1 47.5t-7 50.5q4 45 6 89.5t2 87.5q0 47 -3 91t-13 85q-12 14 -26.5 18t-31.5 4q-6 0 -12 -1t-10 -1q-8 -2 -16.5 -3t-16.5 -3q-10 -2 -18.5 -4t-16.5 -4q-18 -10 -22.5 -29.5t-4.5 -40.5v-2v-2 q-2 -18 -5 -35.5t-17 -29.5q10 -31 16 -63t6 -66v-13.5v-15.5q-2 -29 -9 -56.5t-17 -52.5q12 -27 20 -57.5t8 -62.5q0 -20 -5 -42t-17 -38q-12 -12 -25.5 -17.5t-27.5 -3.5q-12 0 -23.5 2t-21.5 4q-12 2 -23.5 4t-23.5 2q-14 0 -26.5 -4t-25.5 -14q-12 4 -23 7t-22 5 q-10 2 -21 3t-24 1q-25 0 -48 -3t-48 -5q-25 -4 -48.5 -7t-47.5 -3q-27 0 -53.5 5t-53.5 20q-20 47 -28.5 97t-8.5 101q0 39 3 78t8 78q2 14 3 26.5t1 26.5q4 27 5 52.5t1 52.5v11v11q-2 6 -2 11v12q-8 20 -12.5 41.5t-4.5 42.5q0 14 1 27.5t3 27.5q0 8 1.5 14t3.5 15 q2 20 4 40.5t2 40.5q0 18 -2 36t-9 34q-2 6 -4 13.5t-4 13.5q0 6 -1 13t-1 13q0 18 3 37t10 37q4 18 7 36.5t3 37.5q0 10 -1 18t-5 19q-2 8 -7.5 17t-11.5 18q0 16 -2 32.5t-2 34.5q-2 4 -2 10t-2 13q0 10 -1 22t-1 23q0 16 2 33.5t8 31.5q-10 23 -14 47.5t-4 51.5z" />
<glyph unicode="i" horiz-adv-x="811" d="M68 1552q0 31 16 53.5t61 30.5q18 -2 37 -4t35 -2q27 -2 52.5 -4t49.5 -12q25 12 52.5 18t56.5 6h13.5t15.5 -2q20 -2 40.5 -8t39.5 -16q16 8 35.5 14t37.5 8q6 2 11.5 2h9.5q29 0 55.5 -13t40.5 -46q2 -14 2 -26.5v-24.5q0 -20 -1 -40t-3 -38q-2 -20 -3 -39.5t-1 -38.5 q0 -27 5 -54.5t17 -55.5q-4 -27 -6 -51.5t-2 -49.5q0 -29 2 -57.5t6 -57.5v-6t2 -8q2 -31 5.5 -62.5t3.5 -66.5q0 -20 -2 -43.5t-7 -48.5q0 -23 2.5 -47.5t4.5 -48.5q2 -23 3.5 -47.5t2.5 -49.5v-16v-16q0 -35 -2.5 -70t-14.5 -65q6 -8 8.5 -15.5t2.5 -17.5q0 -6 -1 -11.5 t-1 -9.5q-2 -8 -2 -15v-13q0 -8 3 -16.5t11 -16.5q-6 -20 -9 -42t-3 -42q0 -16 1 -32.5t3 -31.5q0 -16 1.5 -32.5t0.5 -32.5q0 -18 -2 -36.5t-6 -39.5q-10 -27 -32 -36t-44 -9h-8.5t-8.5 2q-4 0 -8 1t-8 1q-14 8 -27.5 11t-29.5 3q-12 0 -25.5 -2t-26.5 -2q-14 -2 -27.5 -4 t-25.5 -2q-14 0 -27.5 2t-27.5 10q-25 -8 -52.5 -12t-56.5 -4q-12 0 -26.5 1t-26.5 1q-8 0 -14 1t-15 1q-20 2 -39.5 3t-37.5 1h-12.5h-12.5q-4 0 -6 -1t-6 -1q-12 37 -19.5 74t-7.5 76q0 29 5 57.5t14 54.5q-8 27 -10.5 51.5t-2.5 49.5q0 31 3 59.5t7 59.5q4 29 7.5 57.5 t3.5 58.5q0 29 -4 59.5t-17 63.5v4v4v2v4q0 18 -2 38t-4 38t-4 35.5t-2 36.5q0 12 1 24.5t5 24.5q2 10 7 22.5t12 24.5q-19 35 -21 75q-1 22 -1 45q0 18 1 36v5v7v12.5v12.5v16t-2 16q0 6 -1 14.5t-1 16.5q0 10 3 19.5t5 17.5q2 10 5 21.5t3 21.5t-3 19.5t-13 17.5q0 4 1 8 t1 10q2 4 2 8.5v8.5q0 10 -1 20t-3 21q0 8 -2 17t-4 20q-4 20 -7 39.5t-3 37.5z" />
<glyph unicode="j" horiz-adv-x="1255" d="M58 488q1 6 3 12q10 6 19.5 8t17.5 2q10 0 20.5 -2t20.5 -6q2 0 4 -1t7 -1q12 -4 24 -7.5t27 -3.5h1h3h3h1q14 4 29.5 4.5t29.5 0.5h21.5h23.5q10 -2 21.5 -2h23.5q63 35 101.5 93t68.5 122q4 10 9.5 21t9.5 22l12 24t12 25q0 10 -2 20t-2 21q-4 35 -7 71.5t-5 73.5 q0 18 -1 36.5t-1 37.5q0 41 4 79t12 70q-14 16 -20 38t-8 42v10.5v8.5q0 8 1 16t1 16q0 4 1 8.5t1 10.5q0 12 1 24.5t1 24.5v7v5q-2 4 -2 7.5v5.5q2 8 3 16t-1 16q0 10 -1 20.5t-1 20.5t-1 21.5t-1 21.5q2 27 9 49.5t32 34.5h6t6 2h5h5q20 0 39 -3t37 -7q16 -4 33.5 -7 t34.5 -3q10 0 18 1t18 3q8 4 17.5 7t17.5 9q4 0 8.5 1t10.5 1q4 2 8 2h8q12 0 23.5 -2t23.5 -4q6 0 10.5 -1t10.5 -1q18 -4 36.5 -7t36.5 -3q12 0 21.5 1t19.5 5q6 2 11.5 4t9.5 4q10 -2 20.5 -2h20.5q27 0 48 -5t28 -34v-13v-13q-2 -6 -2 -13.5v-13.5q0 -43 3 -87t5 -87 q2 -14 2 -29.5t2 -29.5q2 -29 3 -58.5t1 -58.5t-1 -56.5t-5 -56.5q4 -12 7 -24.5t5 -22.5q2 -12 3 -24.5t1 -24.5t-1 -25.5t-3 -27.5q-2 -18 -6 -39t-6 -39q-8 -35 -13.5 -68.5t-5.5 -68.5v-23.5t2 -21.5q-8 -14 -13 -32t-7 -36q-6 -31 -17.5 -59.5t-48.5 -44.5 q2 -8 3 -15.5t-1 -13.5q0 -39 -18 -73t-41 -64q-6 -10 -13 -19.5t-14 -19.5q-6 -8 -10 -16.5t-8 -16.5q-8 -8 -20.5 -14t-26.5 -13h-1h-1q-23 -10 -42.5 -22t-21.5 -41q-10 -6 -19 -13.5t-20 -15.5q-4 -4 -9 -7t-9 -7q-23 -18 -47.5 -30.5t-54.5 -12.5h-12.5t-14.5 2 q-31 -43 -73 -53.5t-87 -14.5q-6 -2 -11 -2h-11q-16 -2 -35 -5t-35 -9q-35 4 -65.5 31.5t-49.5 60.5q-4 8 -7 15.5t-5 13.5q-6 6 -12 11t-10 11q-47 47 -86 100.5t-48 116.5q-8 8 -17 16.5t-17 16.5q-20 16 -38 37q-16 19 -16 40q0 10 1 18z" />
<glyph unicode="k" horiz-adv-x="1667" d="M76 1036v12.5t2 14.5q2 31 10 62.5t18 58.5q-16 29 -22 57.5t-6 56.5q0 18 2 37t4 37v2v4q2 18 3 39t1 39q0 23 -2 42.5t-10 39.5v7v5q4 23 14 42.5t29 33.5q8 2 16 2t17 2h8h8q25 0 46.5 -6t35.5 -22q23 14 47.5 23t50.5 9q10 0 21.5 -2t21.5 -6q10 -18 21.5 -25.5 t23.5 -7.5t24.5 7.5t26.5 15.5q12 8 27.5 15t30.5 7h3h3h13h16h5h5h9h9q35 0 63.5 -6t39.5 -35q2 -6 4 -11t2 -9q2 -4 2 -9v-12q0 -8 -2 -18t-4 -18t-5 -17.5t-6 -17.5q-6 -18 -11 -36.5t-5 -37.5q0 -16 7 -31.5t24 -31.5q4 -4 5 -9.5t1 -11.5v-5v-5v-5v-5v-6.5v-6.5 q0 -12 3 -22t13 -19q25 10 41.5 27.5t30.5 36.5q18 23 37.5 43t52.5 29q29 57 77 100t109 67q4 29 30 54.5t59 27.5q6 -2 12 -2h12h12.5t14.5 2h12h12q23 0 40.5 -9t21.5 -38q55 -4 97 -46t67 -91q4 -8 8 -18.5t6 -18.5q8 -6 16.5 -12t18.5 -12q18 -14 34.5 -30.5 t16.5 -39.5v-3v-5q0 -29 -18.5 -46.5t-40.5 -33.5q-2 -2 -4.5 -3t-2.5 -3q-4 -2 -8 -5t-8 -5q-20 -2 -34.5 -13.5t-26.5 -23.5l-1 -1l-1 -1q-14 -12 -28.5 -23.5t-35.5 -11.5h-2q-6 -35 -30.5 -59.5t-53.5 -45.5q-2 -2 -5 -3t-5 -3q-29 -23 -52.5 -46t-23.5 -58 q0 -6 1 -12.5t3 -12.5q-2 -4 -4 -7t-2 -7q-2 -4 -2 -7v-7t1 -9.5t3 -9.5l4 -12l4 -12q6 -12 10.5 -25.5t4.5 -28.5v-3v-3q-2 -2 -2 -3v-3q6 -10 15 -13t21 -3h5.5h5.5h5h5q10 0 18 -2t15 -9q16 -12 34.5 -23t36.5 -20q4 -2 7.5 -4t7.5 -4q29 -14 55.5 -31.5t46.5 -40.5 q8 2 17.5 3.5t17.5 1.5q20 0 36.5 -8.5t18.5 -30.5v-5.5v-7.5q0 -14 -4 -29.5t-8 -31.5q-6 -14 -10 -28.5t-4 -28.5q0 -12 5 -24.5t15 -22.5q6 -8 8 -17.5t2 -17.5q0 -12 -3 -24.5t-7 -22.5q-6 -12 -9 -22.5t-3 -20.5q0 -8 4 -17.5t12 -17.5q2 -4 3 -8.5t1 -8.5q2 -4 2 -8 v-8q0 -14 -4 -27.5t-10 -25.5q-2 -4 -3 -7t-3 -6q-4 -10 -6 -21t-2 -22q0 -8 2 -19t10 -22v-3v-5q1 -25 -17 -40q-15 -13 -37 -13h-6h-3h-5q-14 0 -26.5 3t-22.5 7l-12 4l-12 4q-4 0 -9.5 1.5t-9.5 1.5q-10 -2 -21.5 -5.5t-23.5 -13.5q-14 2 -28.5 5t-30.5 7 q-51 14 -99.5 43t-70.5 82q-84 0 -136.5 47.5t-99.5 106.5l-7 7t-5 7q-29 35 -57.5 67t-63.5 56q0 4 -2 7t-6 7q-2 2 -4 4.5t-2 4.5q-10 -4 -13.5 -11.5t-3.5 -15.5q0 -6 1 -11t3 -11q0 -6 1 -11.5t1 -11.5q0 -4 -1 -9t-3 -9q2 -8 3 -15.5t1 -15.5q0 -20 -5 -36.5t-11 -33.5 q0 -2 -1 -4t-1 -4q-6 -14 -10 -28.5t-4 -30.5q0 -2 1 -4.5t1 -6.5v-4t2 -6q0 -2 1 -5t1 -5q10 -8 13 -19.5t3 -23.5v-9v-10v-3v-1q-2 -6 -2 -12v-10v-3v-3q-20 -27 -53 -35t-68 -8h-15h-15t-15.5 5t-13.5 11l-1 1l-1 1q-8 10 -18.5 16.5t-26.5 -0.5q-20 -27 -52 -36t-67 -9 h-11t-9 2h-11.5h-11.5q-8 2 -17.5 4.5t-17.5 6.5q-4 0 -7 1t-7 3q-14 6 -27.5 10t-27.5 4t-27.5 -6t-26.5 -23q-4 -2 -9 -2h-9q-27 0 -50.5 14.5t-27.5 37.5q2 12 2 24v23q0 18 -1 37.5t-3 38.5q-2 18 -3 35.5t-1 35.5q0 31 5 60.5t20 58.5q-14 49 -20.5 101.5t-6.5 103.5 v24.5v24.5q2 29 4 59.5t4 59.5q4 43 6 83t2 79v5v5v5v5q-12 23 -17 47.5t-5 50.5z" />
<glyph unicode="l" horiz-adv-x="1239" d="M55 1415q0 20 2 41t4 41q0 18 2.5 37.5t2.5 38.5v5v3q23 31 60.5 39t76.5 8h16h17q8 -2 16 -2h16q12 -8 24.5 -14t26.5 -4h6.5h6.5q2 0 5 1t5 3q20 16 44 21t50 5q16 0 33.5 -1t32.5 -5q8 -10 16 -14t19 -4q4 0 9 1t11 3t11 5t10 7h4h4h4h4h19.5h17.5q16 0 31.5 -5 t25.5 -23q0 -6 1 -13.5t1 -15.5v-4v-4q2 -18 3 -37t-1 -37q0 -27 -4 -52.5t-14 -49.5q12 -23 19 -50.5t9 -56.5v-11v-11q0 -23 -4 -45.5t-14 -40.5q12 -51 17.5 -105.5t5.5 -110.5q0 -20 -1 -40.5t-1 -40.5q-2 -41 -7.5 -82t-11.5 -82q14 -14 17.5 -32.5t3.5 -39.5v-12v-13 q-2 -6 -2 -11v-11q2 -27 12 -48.5t49 -29.5q14 -2 27.5 -2h25.5h18.5t18.5 2h17.5h17.5h17.5h17.5q16 -2 33.5 -4t35.5 -8q16 8 37 11t41 3q16 0 31.5 -1t30.5 -5q23 -23 28.5 -48.5t5.5 -51.5q0 -16 -2 -33t-2 -33q-2 -16 -4 -32.5t-2 -32.5q0 -14 2 -27.5t6 -28.5 q0 -6 1 -11t3 -11q4 -23 7.5 -47.5t3.5 -49.5q0 -18 -2 -35.5t-9 -33.5q-8 -14 -22 -18.5t-31 -4.5h-11t-9 2h-11.5h-9.5q-2 6 -6 10.5t-6 8.5q-4 2 -7 3t-7 1q-8 0 -16.5 -5t-16.5 -11q-8 -8 -17.5 -13.5t-17.5 -5.5q-16 8 -33.5 11t-34.5 3q-14 0 -29.5 -2t-31.5 -4 q-14 -2 -29.5 -4t-29.5 -2q-16 0 -33 4t-33 13q-8 -4 -16 -7.5t-15 -5.5q-8 0 -16 -1t-16 -1h-13.5t-13.5 2h-7t-7 2q-10 0 -19.5 1t-19.5 1q-8 0 -16.5 -1t-16.5 -3q-4 0 -8 -2l-8 -4q-10 2 -21.5 3t-21.5 1q-14 0 -29.5 -1t-32.5 -3q-4 0 -9 -1t-11 -1q-10 0 -20.5 -1 t-20.5 -1q-27 0 -50.5 5t-46.5 20q-20 -12 -43.5 -18.5t-48.5 -6.5q-12 0 -24.5 2t-22.5 4l-8 4l-8 4q-16 8 -29.5 17.5t-15.5 25.5q0 66 -2 129.5t-4 122.5q-2 37 -3.5 72t-3.5 70q0 37 -1 73.5t-1 73.5v56.5t2 54.5q-2 4 -2 8v6q0 10 4.5 20.5t8.5 18.5q4 10 8 18t4 17 q0 4 -1 8t-3 8l-8 8t-11 8q0 27 1 54.5t1 56.5t1.5 58.5t1.5 58.5v17v18q0 61 1 119.5t5 111.5q-8 23 -12.5 45.5t-4.5 46.5z" />
<glyph unicode="m" horiz-adv-x="2080" d="M94 756q10 16 14.5 31.5t4.5 29.5q0 10 -2 20.5t-2 20.5q-2 10 -4.5 20.5t-2.5 18.5v6v4q0 25 2 50.5t5 50.5v17t2 17q0 16 1 34t1 34q0 29 -3.5 58.5t-11.5 56.5q2 10 4 19t2 20q2 10 2 19v20q0 23 -2 46l-4 46t-4 45t-2 43q0 35 8.5 68.5t32.5 64.5q10 10 21.5 13 t19.5 3q12 0 23.5 -5t21.5 -9q4 -2 7 -3t5 -3q10 -4 19.5 -6t19.5 -2t21.5 5t21.5 17q51 -6 99.5 -10t93.5 -4q23 0 44 1t44 3t44.5 6t43.5 8q6 2 12 3t13 1q27 -2 43 -21.5t28 -41.5q4 -8 7.5 -15.5t7.5 -15.5l3 -3t1 -3q4 -41 25.5 -61.5t47.5 -36.5l1 -1t4 -1 q23 -14 44 -34t29 -54q10 -2 18.5 -6.5t16.5 -10.5q2 0 3 -1t3 -1q12 -8 25.5 -14t30.5 -6q4 0 9 1t11 3q10 23 28.5 40t39.5 33q27 23 50 47.5t23 63.5q6 10 13.5 20.5t13.5 22.5q20 29 41.5 54.5t48.5 41.5q16 -8 29.5 -10t27.5 -2t28.5 2t29.5 4q14 2 28.5 4t28.5 2 q6 0 13.5 -1t15.5 -1q4 -2 7 -2t7 -2q6 4 11 5t12 3q6 2 11 2h11q16 0 30.5 -3t31.5 -7h1t1 -2q14 -2 28.5 -6t28.5 -4q16 6 35.5 11t40.5 7q6 2 13 2h13q20 0 39 -4t33 -14q20 -51 26.5 -117.5t6.5 -136.5v-24.5v-24.5q0 -33 1 -67t3 -64q-2 -6 -5 -12.5t-3 -12.5 q-2 -8 -2 -14v-12q0 -16 3 -33t5 -33q4 -16 6 -32.5t2 -33.5v-4v-4q-2 -4 -2 -6v-4v-3v-5q0 -14 1 -28.5t3 -26.5q2 -14 3 -28.5t1 -29.5q0 -20 -3 -37.5t-13 -33.5q6 -8 9 -15.5t3 -15.5q0 -4 -1 -8t-1 -9q0 -2 -1 -4l-1 -2q0 -6 -1 -12t-1 -12t2 -12.5t4 -12.5 q10 -25 17.5 -55.5t9.5 -63.5v-9v-11q0 -27 -6.5 -52.5t-22.5 -45.5q4 -20 9 -41t12 -41q8 -31 15 -62t7 -61q0 -8 -1 -17.5t-3 -17.5q0 -10 -3 -18.5t-7 -18.5q14 -20 24.5 -47t10.5 -55q0 -10 -2.5 -21.5t-6.5 -21.5q-12 -6 -23 -9.5t-22 -5.5q-10 -4 -21 -4h-24 q-18 0 -37.5 2t-40.5 4q-18 2 -38.5 4.5t-40.5 2.5h-3.5h-3.5q-25 -6 -46 -9.5t-44 -3.5q-27 0 -54.5 3t-59.5 5q-2 0 -5.5 1t-5.5 1h-5h-5q-14 0 -30.5 -2t-32.5 -4q-4 -2 -8.5 -2t-10.5 -2q-12 -2 -24.5 -3t-24.5 -1q-27 0 -49.5 12.5t-32.5 44.5q2 18 3 37t1 39 q0 14 -1 29.5t-1 32.5q-2 18 -2 38.5t-2 41.5v22v25v23t2 22q0 23 3 46t7 44q-10 12 -13 31.5t-3 37.5v11.5v11.5q0 35 -6 59.5t-41 24.5h-3h-3q-2 -4 -6 -7t-7 -5q-18 -20 -41.5 -36t-50.5 -16q-4 -6 -7 -12l-7 -14q-20 -39 -51 -72q-29 -31 -73 -31h-5h-4h-4 q-29 16 -51.5 38t-45.5 44q-2 2 -4 4.5t-4 4.5q-27 29 -55.5 54t-67.5 44l1 1q1 1 4 1q4 4 7 8t3 8v2q-6 4 -11.5 3t-9.5 -3q-8 -4 -14 -4t-12 11h-3h-3q-14 0 -20.5 -11.5t-6.5 -27.5v-4.5v-4.5t1 -4t1 -4v-4v-4v-4v-4q0 -16 1 -32.5t3 -33.5q2 -16 3 -32.5t1 -32.5 t-2 -32.5t-8 -31.5q2 -6 3 -13t1 -15q4 -14 6 -27.5t4 -28.5q6 -43 11.5 -85t5.5 -83q0 -27 -3.5 -54.5t-9.5 -53.5q-16 -20 -38.5 -27.5t-47.5 -7.5h-13t-13 2q-20 2 -40 7t-36 11q-6 4 -11 6.5t-10 2.5q-4 0 -8 -2l-8 -4q-2 0 -3 -1.5t-3 -1.5q-6 -2 -12.5 -5t-14.5 -3h-5 t-7 2q-20 0 -39.5 -1t-38.5 -3h-9h-9q-25 -2 -49.5 -3t-49.5 -1h-27.5t-27.5 2q-43 23 -58.5 51.5t-13.5 61.5q0 16 3.5 34.5t5.5 37.5q4 20 6 41.5t2 44.5q0 10 -1 18t-3 18q0 8 -3 17.5t-8 17.5q-4 23 -6 42.5t-2 39.5q0 25 3 49.5t5 46.5q2 29 5.5 56.5t3.5 54.5 q0 29 -5.5 58.5t-15.5 58.5z" />
<glyph unicode="n" horiz-adv-x="1662" d="M51 1526q0 14 6 26.5t15 24.5q4 4 8 9t6 9q16 10 32.5 15.5t33.5 9.5q8 0 16 1t16 1q29 0 56.5 -8t54.5 -21q16 20 37.5 26.5t48.5 6.5h13t14 -2h14t12 -2q8 0 14.5 -1t12.5 -1q4 -6 9 -10t11 -6q4 -4 9.5 -5.5t9.5 -1.5q10 0 20 5.5t21 9.5q12 6 23 10t22 4q8 0 15 -3 t15 -9q6 -4 11.5 -7t11.5 -8q39 -29 70.5 -67.5t31.5 -85.5v-1v-3v-3v-1q6 -4 14.5 -8.5t14.5 -8.5q37 -23 67.5 -57.5t34.5 -77.5q23 -10 40.5 -24.5t33.5 -28.5l5 -5l5 -5q14 -12 27.5 -23.5t30.5 -19.5q16 18 22 38.5t6 41.5q0 14 -2 27t-4 28v1v3q-2 14 -3 29.5t-1 29.5 q0 16 2 29.5t10 28.5q-12 23 -15 47t-5 51q0 8 -1 17.5t-1 17.5q-2 6 -2 12t-2 12q33 25 74 35t86 10q35 0 69.5 -5t65.5 -15h1h3h3h1q12 0 23.5 1t21.5 1q12 2 23.5 4t23.5 4q23 2 46.5 5t47.5 3h19.5t17.5 -2l4 -4l4 -4q2 -4 4.5 -6t4.5 -4q4 -6 6 -10t2 -11v-5v-7 q0 -8 1 -18.5t1 -18.5q2 -10 4 -19l4 -18q2 -18 5 -36.5t3 -34.5q0 -18 -6 -36t-20 -34q2 -16 5 -33.5t7 -34.5q0 -6 1 -13t3 -13q4 -25 7 -49.5t3 -46.5q0 -31 -7 -58.5t-24 -54.5q8 -18 13.5 -36.5t7.5 -37.5q4 -20 5 -38.5t1 -37.5q0 -29 -2 -58.5t-4 -57.5 q-4 -31 -6 -60.5t-2 -60.5v-6v-6v-7.5v-7.5q-6 -2 -9.5 -6t-5.5 -6q-2 -4 -3 -7t-1 -7q0 -8 4.5 -15.5t8.5 -15.5q2 -8 6 -16.5t4 -16.5q2 -12 3 -26.5t3 -28.5q2 -8 3 -16.5t1 -18.5q2 -14 3 -29.5t1 -29.5q0 -33 -7 -63t-28 -58q12 -27 21.5 -58.5t13.5 -64.5v-11v-12 q0 -33 -7 -61.5t-24 -52.5q-16 -14 -37.5 -19.5t-43.5 -5.5h-12.5t-12.5 2q-8 0 -14 1t-13 3q-12 12 -24.5 16.5t-26.5 4.5q-16 0 -32.5 -5t-32.5 -12q-18 -6 -35 -11t-33 -5q-18 0 -35.5 9t-34.5 32q-8 14 -20 25.5t-25 23.5q-2 0 -3 1t-1 3q-23 18 -41 41t-18 60 q-55 23 -86 61.5t-55 81.5q-25 41 -54.5 80t-83.5 61q-12 25 -34.5 41.5t-51.5 16.5q-16 -27 -20 -61t-4 -68v-5.5v-7.5v-5v-5q0 -33 -3 -62.5t-16 -56.5q12 -27 22.5 -55.5t10.5 -56.5q0 -14 -3 -27.5t-9 -26.5q4 -10 6 -19t2 -20q0 -12 -4 -22t-14 -21q-6 0 -11.5 -1 t-9.5 -3q-8 -2 -16.5 -3t-16.5 -3q-14 -2 -27.5 -3t-25.5 -1q-25 0 -48.5 7t-43.5 24q-16 -16 -34.5 -22.5t-39.5 -4.5h-16t-17 2h-18h-16t-17.5 -1t-19.5 -3q-8 -2 -16.5 -3t-14.5 -1q-8 -2 -16.5 -2h-16.5q-33 0 -65.5 8t-57.5 29q-8 23 -12 48.5t-4 51.5v12.5t2 12.5 q2 25 9 49.5t18 44.5q-6 31 -12.5 62.5t-10.5 64.5q-2 16 -3 31.5t-1 31.5q0 37 5 73t20 71q-14 29 -21.5 61.5t-9.5 65.5v13v13q0 43 7 83t15 73q-2 6 -3 11t-1 10q-6 31 -12 59.5t-6 54.5q0 8 1 15.5t1 15.5q2 14 7 29.5t13 31.5q-14 27 -20 54.5t-6 54.5q0 20 2 41.5 t6 42.5q2 20 4 41.5t2 42.5q0 33 -8 64.5t-31 58.5z" />
<glyph unicode="o" horiz-adv-x="1939" d="M88 727q0 29 3 57.5t7 59.5q2 29 5 57.5t3 56.5v13.5t-2 15.5q0 8 -1 15.5t-1 13.5q10 18 18.5 36.5t14.5 39.5q2 2 2 4t2 4q14 39 32.5 73.5t53.5 59.5q12 47 41 80t64 63q10 10 21 18.5t22 18.5q33 2 57.5 23.5t44.5 48.5q6 8 12.5 15t12.5 16q27 27 60.5 32.5 t68.5 7.5q39 4 74.5 12.5t62.5 41.5q27 0 51.5 4t46.5 10q10 2 20.5 4t20.5 4q12 2 25.5 4t27.5 2q18 0 38 -4t40 -14q8 2 16.5 3t16.5 1q6 2 14.5 2h16.5q53 0 103 -18.5t91 -48.5q4 0 8.5 -1.5t8.5 -1.5q4 -2 9 -2t11 -2q37 -6 73 -20t52 -57q78 -12 137.5 -70.5 t87.5 -130.5q53 -42 93 -106q38 -59 38 -126v-10v-11v-11t-1 -11.5t-3 -11.5q25 -45 35 -94t10 -102q0 -20 -1 -41t-3 -39q-2 -12 -3 -24.5t-3 -24.5q-2 -8 -3 -16.5t-1 -16.5q-35 -20 -43 -53t-10 -68q-2 -18 -4 -35.5t-8 -34.5q-14 -14 -32 -33.5t-36 -37.5 q-25 -27 -52.5 -50.5t-56.5 -40.5q-35 -68 -100 -115.5t-137 -74.5q-4 0 -9 -2t-12 -4q-4 2 -9 2h-9q-18 0 -34.5 -9.5t-33.5 -19.5q-2 0 -3 -2t-3 -2q-12 -8 -22.5 -14t-22.5 -8q-16 -2 -32.5 -4.5t-32.5 -6.5q-31 -4 -60.5 -7t-60.5 -7q-16 0 -31.5 -1t-32.5 -1 q-14 0 -28.5 1t-26.5 3q-14 0 -28.5 3t-28.5 5q-18 14 -39 17.5t-43 5.5q-12 0 -24.5 1t-24.5 5q-16 4 -31.5 8t-32.5 8q-2 2 -5 2h-5q-53 14 -102.5 34t-77.5 71q-109 23 -165.5 102.5t-96.5 173.5q-4 8 -8.5 17.5t-8.5 17.5q-14 31 -27.5 59.5t-29.5 55.5 q-18 35 -24.5 68.5t-6.5 68.5zM741 741q0 -61 16.5 -118.5t65.5 -100.5q12 -2 23.5 -6t21.5 -10q16 -6 34 -11.5t36 -5.5q8 0 17.5 2.5t17.5 4.5q63 14 101 63t59 105q8 18 12 35.5t8 33.5q0 14 1 29.5t3 30.5q0 16 1 31.5t3 31.5v16.5v16.5q0 45 -6 86t-29 74 q-16 6 -27.5 17t-21.5 24q-2 0 -2 1v1q-14 18 -31.5 31.5t-44.5 13.5q-2 2 -5 3t-5 1h-1h-1q-6 4 -12 7t-12 11q-61 -12 -109.5 -46t-93.5 -83q-2 -8 -3 -15t-1 -16v-12t2 -12v-17.5v-17.5v-15t-4 -16q0 -12 -2 -25.5t-4 -27.5q-2 -27 -4.5 -55.5t-2.5 -59.5z" />
<glyph unicode="p" horiz-adv-x="1624" d="M74 125q0 10 1 18.5t3 16.5q6 14 8 28.5t2 28.5q0 12 -1 25.5t-3 27.5q-2 12 -3 25.5t-1 26.5q0 18 4 36.5t12 36.5q8 6 11.5 12.5t3.5 14.5t-4.5 15t-6.5 16q-6 8 -9 17t-3 17q-2 23 -3 44.5t1 41.5q0 45 3 89.5t5 87.5q4 43 6 85t2 85q0 41 -3 80.5t-13 78.5q4 18 6 37 t2 33q0 18 -2 36.5t-4 37.5q-2 8 -3 17t-1 17t-1 17.5t-1 17.5t1 17.5t1 17.5q4 16 10 33.5t17 36.5q-8 27 -13.5 56.5t-5.5 59.5q0 16 2 35t4 37q20 23 47 38t58 15h8t8 -2q4 0 8 -1t9 -3q23 -16 48 -23t52 -7q35 0 66.5 8t60.5 20h21.5h23.5h6h8h14.5h14.5q43 0 83 -6 t73 -31q39 14 85 22.5t93 8.5h9h9q51 -2 99.5 -17.5t84.5 -43.5q4 2 8.5 3t10.5 1h8h8q41 0 78 -23.5t72 -52.5q4 -4 8 -7t8 -7q6 -6 13.5 -11.5t13.5 -9.5q-2 -4 -2 -8v-8q0 -16 9 -25.5t21 -17.5q10 -8 19.5 -16.5t11.5 -22.5q55 -8 82 -50t45 -89q4 -10 7 -19.5t5 -17.5 q4 -10 7.5 -19.5t7.5 -17.5q2 -14 5 -28.5t5 -31.5q2 -8 3 -16t3 -16q2 -16 4 -31.5t2 -32.5q0 -27 -9 -53.5t-32 -48.5q0 -4 1 -9.5t1 -9.5q2 -6 2 -11v-9q0 -61 -29.5 -118.5t-64.5 -106.5q-2 -2 -3 -4.5t-3 -4.5q-20 -4 -32.5 -17t-20.5 -30q-2 0 -3 -2t-1 -4 q-10 -16 -21.5 -28.5t-34.5 -12.5h-3t-3 2h-3h-3q-12 -43 -45 -65.5t-69 -38.5q-6 -2 -13.5 -5t-15.5 -5q-6 -4 -13.5 -6.5t-13.5 -6.5q-20 6 -39.5 9.5t-38.5 3.5q-25 0 -48 -5.5t-46 -13.5q-12 -4 -23.5 -9t-23.5 -11q-14 -2 -29.5 -3t-31.5 -1q-33 -2 -63 -8.5t-46 -34.5 q-2 -14 -3 -28.5t-1 -31.5q0 -18 1 -37.5t3 -38.5q0 -18 1 -37.5t1 -37.5q0 -25 -2 -48.5t-8 -46.5q-8 -6 -18.5 -10t-20.5 -6h-7h-7q-14 0 -27.5 3t-24.5 5q-10 23 -21 31t-24 8q-12 0 -24 -5t-25 -11q-12 -8 -25.5 -13.5t-27.5 -5.5q-8 0 -15.5 2t-15.5 6q-8 0 -15 1.5 t-13 1.5q-8 2 -15.5 2h-15.5q-25 0 -49.5 -2.5t-48.5 -4.5q-8 -2 -16.5 -3t-16.5 -1q-16 -2 -32.5 -3t-33.5 -1h-17t-18 2q-10 0 -18 1t-18 3q-14 14 -22.5 34t-12.5 40q0 10 -1 18.5t-1 16.5zM733 996.5q0 -11.5 2 -21.5v-11.5v-11.5q0 -16 1 -31.5t1 -31.5v-12.5v-12.5 q2 -23 13.5 -29t25.5 -6h9.5t9.5 2h9h11h5h5q6 -2 11.5 -3t9.5 -5q2 2 3 4t3 4q29 39 53.5 86.5t24.5 96.5q0 18 -4 36.5t-15 36.5q-10 41 -39.5 70t-70.5 41q-43 -37 -55.5 -83t-12.5 -97v-21.5z" />
<glyph unicode="q" horiz-adv-x="1826" d="M84 1114q6 29 23.5 49.5t37.5 38.5l1 1l1 1q23 23 42.5 46.5t19.5 60.5q23 57 64.5 83.5t86.5 49.5q2 0 4 1l3 1q39 18 73.5 39.5t61.5 58.5l16 8t17 9q20 12 41.5 21t44.5 13q8 2 15 3t15 1q16 0 30.5 -5t29.5 -15q33 29 79 39t93 12h8h8q23 0 46.5 -1t43.5 -3 q16 -2 29.5 -3t28.5 -1h3h3q10 0 17 -4t13 -10q2 0 2 -1t2 -1q6 -6 15.5 -11.5t19.5 -5.5q8 2 14.5 2h12.5q70 0 122 -36.5t99 -79.5q33 -29 65.5 -55.5t69.5 -43.5q6 -6 11.5 -11t11.5 -11q37 -37 67.5 -83t30.5 -102v-2q63 -57 91 -136t28 -163q0 -47 -8 -93t-25 -87 q0 -6 1 -11t1 -9q2 -4 2 -9.5v-11.5q-2 -61 -28.5 -111.5t-61.5 -93.5q0 -6 -2 -12t-2 -10q-2 -8 -4 -16.5t-2 -14.5q0 -4 1 -7t1 -7q2 -4 4 -7t4 -8q10 -14 26.5 -20t35.5 -6q10 0 19 3t17 7q2 2 4.5 3t6.5 3l4 4t6 4l9 4.5t9 2.5q2 0 3 -1.5t3 -1.5t4.5 -1t4.5 -3 q14 -14 19 -33.5t5 -41.5q-2 -25 -6 -48.5t-8 -41.5q-10 -8 -16.5 -17.5t-8.5 -19.5q0 -4 -1 -9.5t-1 -9.5q0 -12 2 -24.5t6 -24.5q2 -10 4.5 -20.5t2.5 -20.5q12 -18 17 -38.5t5 -43.5v-11v-9q-4 -27 -11 -51.5t-15 -45.5q-6 -4 -11.5 -6t-9.5 -4t-9 -2h-11h-7.5h-7.5 q-4 2 -7 2h-7q-8 0 -16.5 -2t-18.5 -10q-76 8 -145.5 29.5t-128.5 62.5q-6 0 -13.5 1t-15.5 3q-6 0 -12 1t-13 1q-57 6 -112.5 16.5t-102.5 39.5q-39 0 -78.5 5t-78.5 11q-12 4 -25.5 5t-26.5 3q-27 2 -52 5t-52 3h-21.5t-21.5 -2q-4 2 -9 3t-9 3q-14 6 -28.5 11.5 t-29.5 9.5q-141 51 -272 120.5t-219 207.5q-90 127 -103 263q-11 105 -11 213q0 32 1 64v46.5v45.5q0 29 -1 58.5t-3 58.5zM664 717q4 -37 16 -71t27 -66l1 -2l1 -3q10 -25 20 -48t16 -48q29 -23 64 -32q29 -7 57 -7h13q20 0 38.5 2t36.5 4v3.5v3.5q-2 2 -2 3v1 q0 18 11.5 29.5t23.5 21.5q14 10 24.5 21.5t10.5 31.5v4v4t-1 4t-1 5q35 37 48 77.5t13 83.5q0 31 -5 64t-11 65q-2 16 -5 35t-5 37q-2 16 -3 33.5t-1 34.5q-35 45 -73 82.5t-79 70.5q-14 -14 -31.5 -23.5t-38.5 -15.5q0 -2 -1 -2h-3q-31 -14 -58.5 -31.5t-33.5 -56.5 q-33 -29 -42 -63.5t-9 -73.5v-20.5t2 -18.5v-20.5v-20.5q0 -25 -4 -49.5t-16 -48.5z" />
<glyph unicode="r" horiz-adv-x="1675" d="M76 147q0 29 5 56.5t11 54.5q6 31 11.5 59.5t5.5 57.5q0 12 -1.5 25.5t-5.5 25.5q-2 12 -7 25.5t-13 25.5q-2 8 -3 14.5t-1 12.5q0 16 6 30.5t14 28.5q2 6 6.5 13.5t8.5 15.5q2 6 3 11t1 11q0 4 -1 8.5t-1 8.5q-4 8 -10.5 16t-16.5 17q0 18 -1 35.5t-1 33.5q0 18 -1 35.5 t-1 34.5q0 51 8 99t35 91q4 14 0 22.5t-12 16.5l-3 3t-3 1q-4 6 -9.5 11.5t-7.5 13.5q0 4 1 9t1 11v9.5v9.5v19t-2 18v10v8q0 14 -1 28.5t-1 26.5q0 35 8 66t33 49v1v3v3v1q0 14 -8 24.5t-21 18.5q-4 2 -7 5t-7 5q0 8 -1 16.5t-1 16.5q-2 16 -3 32.5t-1 33.5q0 10 1 19t3 20 q0 8 3 18t7 19l3 3t1 3q16 16 36 30.5t42 14.5q6 0 13.5 -2t15.5 -6q6 -8 12 -10.5t12 -2.5q8 0 17.5 5.5t15.5 11.5q2 2 4 3t4 3q6 4 11.5 7t9.5 3q29 2 56.5 3t56.5 1q47 0 91 -8t78 -33q16 20 37 29.5t43 15.5q4 2 9.5 3t11.5 3q0 -4 -1 -6t-3 -4l-3 -6t-1 -6v-2 q12 2 25.5 5t25.5 7q16 4 33.5 8t35.5 4q10 0 19.5 -1t17.5 -5q8 -12 17.5 -17t17.5 -5q10 0 21.5 4t21.5 10h1h1q12 4 23.5 8t21.5 4t19.5 -1t19.5 -1q8 -2 15.5 -2h15.5q57 -4 108.5 -20.5t71.5 -71.5q4 -2 7 -2h5q8 0 15.5 4t13.5 8q4 2 9 5.5t10 5.5q45 -4 71.5 -31 t46.5 -57q2 -2 3 -3.5t1 -3.5q18 -25 38 -47t50 -30q4 -14 15.5 -31t23.5 -33q14 -20 26.5 -41.5t12.5 -44.5q0 -12 -5 -24.5t-19 -24.5v-1v-3v-3v-1q0 -14 8 -18.5t18 -6.5h2q6 -2 13.5 -5t11.5 -11q10 -23 13 -47.5t3 -49.5q0 -47 -12 -92t-29 -84q-2 0 -5 -2t-7 -2 q-8 -6 -15 -14t-9 -19q0 -4 1 -8t3 -8q8 -8 11 -17.5t3 -19.5q0 -14 -9 -29.5t-20 -29.5l-4 -4l-4 -4q-10 -12 -19.5 -25.5t-13.5 -26.5q-25 -23 -53.5 -35t-58.5 -20q-6 -2 -10.5 -3t-8.5 -3q-12 -4 -23.5 -8t-23.5 -8q-4 -2 -5 -5.5t-1 -7.5v-3v-3t1 -5t-1 -5 q14 -27 35.5 -34t46.5 -11q20 -2 39.5 -7t34.5 -24q20 23 47.5 35t58.5 12q10 0 21.5 -1t21.5 -5q10 -12 13.5 -28.5t3.5 -34.5v-12.5t-3 -12.5q0 -12 -2 -24.5t-4 -24.5q-8 -8 -11 -18.5t-3 -20.5q0 -12 3 -24.5t7 -24.5t7 -25.5t3 -25.5t-4 -24.5t-14 -24.5q-2 -4 -6 -6.5 t-10 -4.5q-8 -4 -13.5 -8t-5.5 -14v-4t2 -6q23 -14 33 -35t10 -43q0 -8 -1 -15.5t-5 -15.5q-20 -23 -53 -32t-68 -9h-16t-16 2q-29 2 -57.5 7t-51.5 11q-8 8 -18.5 12.5t-20.5 4.5q-8 0 -14 -2t-10 -6q-14 -8 -32 -13.5t-36 -3.5q-10 0 -21.5 2t-21.5 4q-23 6 -45.5 15.5 t-44.5 19.5q-8 6 -17.5 10.5t-17.5 8.5q-4 4 -8 9t-8 11q-18 20 -42 40t-57 24q-8 8 -15 16t-15 16q-2 0 -2 1t-3 1q-25 27 -52 50.5t-62 35.5q-18 -10 -23.5 -27.5t-7.5 -33.5q-2 -12 -4 -22.5t-8 -20.5q10 -14 15 -32.5t5 -39.5v-9t-2 -9q0 -6 -1 -11t-3 -10 q-4 -14 -17.5 -24t-29.5 -19q-2 0 -6 -2t-8 -2h-3h-3h-6.5h-4.5q-31 0 -58.5 5.5t-49.5 29.5q-23 -10 -49.5 -16t-55.5 -6q-27 0 -53.5 7t-48.5 23q-2 0 -3 1l-1 1h-3h-3q-8 0 -16.5 -6t-14.5 -14t-13.5 -14.5t-17.5 -6.5h-7h-7h-7h-7h-11.5h-11.5q-41 2 -78 14.5t-53 53.5 q-4 16 -6 31.5t-2 29.5zM711 913q2 -6 5 -13t5 -13q10 -27 19.5 -56.5t7.5 -58.5v-11t-3 -11q0 -6 -1 -11.5t-3 -11.5q-2 -2 -2 -5v-7q0 -16 14.5 -26.5t30.5 -18.5q2 0 4.5 -1t4.5 -1q10 -4 19 -10.5t17 -12.5q6 8 13.5 15.5l15.5 15.5q6 4 11 9t10 9q25 23 45 47.5 t20 59.5v3v3q-2 2 -2 4v4q8 16 11 30.5t5 28.5v2v1q2 14 6.5 29.5t12.5 31.5q-10 23 -14.5 50.5t-6.5 55.5q-4 45 -14 87.5t-51 68.5q2 4 1 5t-1 3q-2 2 -3 4t1 5q-12 2 -24.5 3t-26.5 1h-9.5h-9.5q-23 -4 -45 -13.5t-41 -29.5q-8 -2 -12 -8.5t-4 -12.5q0 -4 1 -7t3 -7 q0 -4 2 -7t2 -6l4 -8l4 -8v-36.5v-37.5q0 -33 -3 -65.5t-19 -61.5z" />
<glyph unicode="s" horiz-adv-x="1335" d="M61 348v5v5v16.5t2 16.5v16.5v16.5q14 20 37 27.5t45 9.5q4 0 8.5 1t8.5 1q8 0 16 1t15 3q4 -2 9 -4t9 -2q12 -6 24.5 -12.5t20.5 -18.5q25 12 54.5 15.5t60.5 3.5q16 0 31.5 -1.5t29.5 -1.5q16 0 31.5 -1t30.5 -1h8t8 2h6h8q16 -20 37 -15t41 15q2 2 5 3.5t5 3.5 q8 4 15.5 6t15.5 4q8 6 15.5 16t11.5 21q0 4 1 8t1 8q0 6 -2 12.5t-6 12.5q-16 18 -37 32.5t-43 28.5q-4 2 -7.5 4t-7.5 4q-18 10 -35.5 22.5t-33.5 29.5h-3h-1h-3h-4q-37 0 -64.5 19t-53.5 44q0 2 -2 3l-2 1q-25 23 -50.5 43.5t-58.5 24.5q-33 25 -52.5 57.5t-33.5 65.5 q-2 6 -4 10l-4 8q-8 16 -15.5 32.5t-15.5 30.5q-2 6 -5 11.5t-3 11.5q-2 6 -3 11t-1 12q0 20 8 39.5t16 37.5h2v2q8 18 16.5 38t8.5 40v7v8q0 4 -1 7t-3 7q23 109 110 193.5t191 117.5q12 -6 23.5 -8t19.5 -2q16 0 32.5 4t33.5 10q6 2 12 3t12 3q33 39 82 46.5t100 9.5 q6 2 13.5 2h13.5q16 0 32.5 -7.5t30.5 -17.5q27 31 63 41t75 10q18 0 37.5 -1t37.5 -3q12 -2 24.5 -3t23.5 -1q12 -6 22 -18.5t12 -26.5q4 -20 13.5 -39.5t17.5 -40.5q12 -27 23.5 -53.5t11.5 -58.5v-5.5v-7.5q20 -20 27.5 -46.5t7.5 -55.5v-8v-8t-1 -8.5t-1 -8.5 q-20 -14 -43 -21t-47 -5q-10 0 -20.5 1t-18.5 3q-20 4 -40 11t-38 15q-23 -12 -50.5 -16t-58.5 -4h-21t-22 2q-8 0 -17 1t-18 1q-14 2 -26 3t-25 1q-6 4 -11 5t-9 1q-10 0 -18.5 -6t-16.5 -14h-1t-1 -2q-8 -6 -15.5 -12.5t-17.5 -8.5q-2 -4 -4 -10t-4 -10q-4 -8 -7 -14.5 t-3 -14.5v-5t2 -5t4 -5l4 -6q20 -35 54 -46t69 -19q39 -6 76 -21.5t55 -62.5h4t6 2h4h4q59 -2 107.5 -44t85.5 -91q4 -8 10 -16.5t10 -16.5q-8 -10 -12 -18.5t-4 -16.5q0 -12 8 -20t21 -17l3 -3l3 -3q12 -10 23.5 -20t11.5 -27v-2q2 -10 3 -21.5t1 -21.5q4 -25 6 -49.5 t2 -50.5q0 -47 -13.5 -90t-54.5 -72v-5v-7q0 -78 -49 -123t-110 -84q-4 -2 -8.5 -5t-8.5 -5q-23 -14 -45 -29.5t-43 -32.5l-12 -4t-12 -2q-8 -2 -14.5 -2h-12.5h-13.5t-13.5 2h-15h-13q-20 0 -41 -7t-37 -36q-37 0 -72 -5t-70 -11q-37 -6 -71.5 -11.5t-71.5 -5.5 q-2 6 -5 9.5t-5 5.5t-5 3t-5 1q-6 0 -11.5 -4.5t-9.5 -6.5l-2 -2q-6 -4 -12 -7t-12 -3h-2q-8 0 -16.5 -1t-18.5 -1q-16 -2 -35 -3t-37 -1q-27 0 -49.5 4t-42.5 19q-6 14 -15.5 29.5t-19.5 29.5q-16 27 -31.5 55.5t-15.5 63.5v5v5t1 5t1 5q-41 16 -53.5 52t-12.5 75z" />
<glyph unicode="t" horiz-adv-x="1306" d="M59 1223q6 16 9.5 31.5t3.5 29.5q0 8 -1 15.5t-1 15.5q-2 16 -3 31.5t-1 29.5q0 16 2 33.5t10 34.5q-6 10 -9 19.5t-6 19.5q-2 8 -3 17t-1 20v13t2 15v13.5v15.5q25 25 63 36t77 13h7h7h11h10q33 -2 63.5 -8t54.5 -16q23 16 48.5 21t52.5 5q23 0 44 -3t46 -5q23 -4 45 -7 t43 -3q10 0 21.5 1t19.5 3q16 10 31.5 13t29.5 3q16 0 33.5 -3t36.5 -7q16 -6 33.5 -9t35.5 -3q10 0 17.5 1t15.5 3l4 -4l4 -4q8 -6 16.5 -11.5t18.5 2.5q10 23 24.5 31t29.5 8q10 0 20 -2l20 -4q4 -2 9.5 -3t11.5 -1q8 -2 15 -3t16 -1q6 0 11 1t11 3t11.5 5t11.5 7h8t8 2h8 h9q23 0 43 -8t22 -37q0 -18 1 -37.5t3 -37.5q0 -20 1 -39t1 -37q0 -37 -6 -71t-25 -66q2 -6 5.5 -11.5t7.5 -11.5q8 -12 14 -26.5t6 -30.5q0 -4 -1 -8.5t-1 -8.5l-4 -8t-6 -8q-18 -10 -43 -18.5t-49 -10.5h-8.5h-8.5q-20 0 -38.5 5.5t-34.5 17.5q-20 0 -39 -9.5t-35 -23.5 q-2 -16 -7 -33.5t-9 -34.5q-2 0 -2 -1v-3q-6 -18 -11.5 -35.5t-5.5 -35.5q2 -14 6 -27.5t13 -28.5v-5v-5v-6v-6v-16.5t2 -14.5v-16v-17q0 -25 -4.5 -47t-20.5 -41q16 -23 21.5 -47t5.5 -51q0 -16 -2 -33.5t-2 -36.5q-2 -6 -2 -12t-3 -12q0 -12 -1 -23.5t-1 -23.5v-17.5 t2 -19.5q6 -33 8.5 -65.5t2.5 -65.5v-16.5v-16.5v-8v-8q-2 -12 -2 -24.5v-25.5q0 -35 3 -68.5t13 -68.5q4 -10 5 -22.5t1 -24.5q0 -23 -6 -44t-22 -38q-8 -4 -17.5 -6t-19.5 0q-18 0 -36 5t-34 13q-18 6 -36.5 11.5t-35.5 5.5q-14 0 -29.5 -7t-31.5 -28q-2 0 -5 -1t-5 -1 h-6.5h-6.5q-16 0 -31.5 3t-31.5 5q-16 4 -34.5 7t-35.5 3q-14 0 -29.5 -3t-29.5 -11q-2 0 -5 1t-5 1h-6.5h-6.5h-10h-10h-6h-4q-8 -2 -16.5 -2h-14.5q-27 0 -46.5 8t-23.5 35q-2 25 -3 50.5t-1 52.5q0 59 6 115.5t19 105.5q-12 18 -17.5 40.5t-5.5 45.5q0 8 1 16t1 16 q4 31 13.5 63t19.5 60v1v3v4v1q0 8 -4 15t-10 15q-4 6 -8.5 14.5t-4.5 16.5v2q-2 14 -3 27.5t-1 27.5q0 25 3 48.5t8 48.5q2 25 5 49t3 49q0 23 -3 46.5t-14 47.5q2 6 3 11t1 12q2 6 2 11v11q0 29 -12 53.5t-43 32.5q-12 6 -24.5 8t-24.5 2q-8 0 -18.5 -1t-18.5 -3 q-8 0 -15 -1t-13 -3q-16 -2 -32 -5t-30 -3q-27 0 -46 14.5t-26 55.5z" />
<glyph unicode="u" horiz-adv-x="1714" d="M78 827v21.5v23.5q2 43 8 87.5t14 84.5q-8 37 -14 74t-6 74q0 35 7 67.5t22 63.5q-14 35 -20.5 76t-6.5 84v24.5t2 26.5q0 12 1 24.5t3 24.5q2 4 5 8t7 8q8 10 18.5 19.5t22.5 7.5h3h3q6 -16 15.5 -21.5t17.5 -5.5q4 0 9.5 1.5t9.5 1.5t9 1t11 1t12.5 -2.5t10.5 -8.5 q23 23 52.5 31t59.5 8h12.5t12.5 -2q35 -2 69.5 -13t63.5 -24q23 12 48.5 17.5t51.5 5.5h13.5t15.5 -2q8 0 15.5 -1t13.5 -3q8 -29 13 -61.5t5 -67.5q0 -39 -8 -78t-29 -68q29 -27 39 -56.5t10 -64.5q0 -14 -1 -28.5t-3 -28.5q-2 -8 -2 -15t-2 -14q-2 -23 -5 -44t-3 -42v-13 t2 -15q0 -8 2 -15.5t4 -13.5v-12v-12v-30v-32q0 -33 -7 -64.5t-32 -60.5q14 -25 22.5 -56.5t14.5 -64.5q0 -2 1 -4t1 -4q12 -68 36 -121t108 -53h1h3h3h1q37 16 43 43t6 57q0 23 2 42.5t14 37.5q-6 59 -11 113.5t-7 107.5v32v30q0 51 4 103.5t16 109.5q-12 18 -16 36.5 t-4 39.5q0 18 3 35.5t5 35.5q4 18 6 36t2 36t-4 36.5t-14 35.5q4 16 5 34.5t1 36.5q2 33 8 60.5t39 46.5q6 4 12.5 7t12.5 3q4 2 10 3t12 1q16 0 31.5 -5t32.5 -11q14 -8 28.5 -13.5t28.5 -5.5q16 0 29.5 9.5t25.5 29.5l36 -4t36 -2h3h3q35 -4 69 -8t64 -16q6 12 17.5 18 t21.5 10q4 0 9.5 2t9.5 2q2 0 3 1t3 1h7h5h4h2q27 0 49.5 -10t28.5 -37q2 -20 3 -41.5t1 -44.5v-9v-9q-2 -41 -8 -81t-21 -71q23 -47 26 -102t3 -113v-16v-17q0 -10 1 -21t1 -22q0 -10 1 -20t1 -20q-10 -12 -15 -24.5t-5 -25.5q0 -6 1 -11t3 -11t6 -11.5t8 -11.5v-6v-6v-7 v-7q0 -16 1 -32.5t3 -33.5q0 -18 1 -34.5t1 -32.5q0 -39 -10 -74t-45 -64v-1v-1v-3v-3q0 -8 6 -15t14 -11q4 0 7.5 -2.5t5.5 -2.5q4 -31 8 -64.5t6 -66.5q2 -12 2 -23v-22q0 -20 -1 -39.5t-5 -38.5q8 -20 20.5 -40.5t24.5 -40.5q20 -37 37.5 -75t17.5 -81q0 -8 -1 -17.5 t-3 -19.5q-35 -23 -78 -31t-90 -8h-23t-24 2h-12h-12q-18 0 -36 1t-34 1q-27 0 -51.5 -2t-46.5 -8q-10 2 -21.5 6t-23.5 4q-6 2 -11.5 2h-11.5h-9h-9h-5.5h-5.5q-6 -2 -13 -2h-13q-27 0 -51.5 9.5t-38.5 41.5q-6 4 -15.5 7.5t-17.5 3.5q-4 2 -8 2h-8h-12.5t-12.5 -2 q-12 -2 -23.5 -4t-21.5 -5q-8 -2 -14.5 -3t-12.5 -3q-37 -33 -84 -45t-96 -12q-12 0 -25.5 1t-25.5 1q-39 4 -77 11t-73 16q-12 2 -24 5t-25 5q-16 23 -39.5 35t-50.5 20q-2 0 -4 1t-4 1q-29 10 -55.5 23.5t-40.5 46.5q-16 18 -26.5 39.5t-18.5 44.5q-12 31 -26.5 59.5 t-43.5 46.5q-2 16 -6 31.5t-8 32.5q-8 33 -15.5 66.5t-7.5 66.5q0 20 2 39.5t10 40.5q-12 43 -18 93t-6 101z" />
<glyph unicode="v" horiz-adv-x="1892" d="M86 1565q0 14 7 29.5t26 29.5q8 0 15 -1t16 -1h4h4q37 0 71.5 -5t61.5 -28q29 16 63.5 23.5t71.5 7.5q41 -2 78 -9t65 -24q18 16 43 25.5t50 11.5h8h8q14 0 27.5 -1t27.5 -5q63 -16 86 -60.5t37 -95.5q0 -4 1 -7t1 -7q10 -37 25.5 -73t48.5 -60q14 -10 21.5 -26.5 t13.5 -35.5v-1v-1q8 -27 20 -49t49 -24q16 23 26.5 48t18.5 52q2 4 2 7t2 5q12 39 28.5 76t53.5 64q-2 8 -3 14t1 12q0 29 11.5 53.5t25.5 49.5q8 14 15.5 27t13.5 28q6 2 13 3t13 3q16 4 34 7t34 5q6 2 12 2h13q23 -2 43 -6t37 -16q8 8 16 12t16 6q4 2 8.5 2h8.5q8 0 16 -1 t16 -1q8 -2 16.5 -3t16.5 -1q10 0 20.5 2t18.5 8q4 2 7 2h5q10 0 19.5 -3t19.5 -7q18 -10 36 -12t32 20h12h12q27 0 49.5 -8t30.5 -37v-5v-5v-5v-5q0 -76 -29.5 -146.5t-76.5 -130.5v-1v-3v-3v-1q0 -31 -10.5 -58.5t-22.5 -53.5v-2v-3q-10 -18 -17.5 -37.5t-11.5 -39.5 q-20 -10 -27 -29t-7 -39v-8v-10v-1v-4q0 -2 -1 -5t-1 -5v-5v-5q-8 -23 -15.5 -45.5t-13.5 -46.5q-2 -2 -3 -5t-1 -7q-16 -53 -38 -105.5t-69 -89.5q-4 -10 -1 -16.5t7 -12.5q6 -6 8.5 -12t-1.5 -16q-25 -51 -49.5 -101.5t-49.5 -101.5q2 -18 12.5 -32.5t20.5 -29.5 q2 -2 4 -5t4 -5q10 -12 18.5 -25.5t8.5 -29.5q0 -4 -1 -9t-3 -12q-29 -33 -70 -56t-86 -23h-4t-4 2h-6h-4q-18 -37 -49 -59.5t-64 -43.5q-2 -2 -5 -4t-5 -2q-16 -12 -32.5 -22.5t-33.5 -24.5q-8 -4 -17 -8l-18 -8q-12 -4 -24 -10.5t-27 -8.5q-8 -4 -17 -5t-18 -1 q-14 2 -29.5 7t-29.5 20q-12 31 -29.5 58.5t-36.5 53.5q-31 45 -55 89t-24 100q-49 47 -79 104t-50 119q-43 37 -65.5 84t-39.5 96q-2 2 -2 3v3q-18 51 -41.5 100.5t-68.5 84.5q-8 31 -21.5 58.5t-30.5 53.5q0 2 -1 3l-1 1q-20 39 -38.5 78t-20.5 86q-41 18 -58.5 53 t-29.5 74q-2 2 -2 3v3q-6 18 -13.5 34.5t-15.5 33.5q-4 18 -16.5 36.5t-26.5 35.5q-2 2 -3 4l-3 6q-16 18 -27.5 38.5t-11.5 41.5z" />
<glyph unicode="w" horiz-adv-x="2965" d="M96 1550q2 16 7.5 31.5t19.5 24.5q18 4 36.5 5t39.5 1q29 0 55.5 -5t48.5 -22q8 2 17.5 5t19.5 7q14 4 30.5 9.5t30.5 7.5q10 2 18.5 3t16.5 1q16 0 32.5 -3t31.5 -13q14 10 28.5 14t28.5 4q10 0 19.5 -2t19.5 -4q6 0 10 -2t10 -2q14 -6 28.5 -9.5t29.5 -3.5 q12 2 24.5 6.5t24.5 14.5h7h5q31 0 47.5 -21.5t30.5 -46.5q0 -2 1 -2t1 -2q8 -14 16.5 -27.5t18.5 -23.5q-2 -6 -2 -11v-9q0 -25 15.5 -43.5t35.5 -34.5h1q1 0 1 -2q20 -16 36.5 -36t16.5 -50v-1v-3v-3v-2q-4 -12 -6 -22t-2 -18q0 -27 14.5 -43.5t32.5 -30.5l4 -4t4 -2 q20 -16 37 -36t19 -50q8 -4 15 -6.5t11 -2.5q14 0 23.5 11.5t19.5 27.5q0 2 1 4t3 5q8 12 16.5 24t20.5 19q4 14 11.5 29.5t13.5 31.5q6 14 11 28.5t9 26.5q6 16 8.5 31.5t2.5 30.5q0 23 -7.5 43t-27.5 41q4 10 6 17t2 15q0 18 -11 30.5t-26 23.5l-3 3l-1 1 q-12 12 -22.5 23.5t-10.5 25.5q0 8 3 16.5t10 16.5q16 6 35.5 10t37.5 6h11.5h9.5q29 0 54.5 -4t41.5 -14q8 4 17.5 7t17.5 5t17 2h18q18 0 35.5 -2t35.5 -4q16 -4 34 -6t36 -2h13t16 2q8 2 15 4t13 4q10 -4 17.5 -5t15.5 -1q14 0 26.5 4t26.5 8q12 4 24.5 8t27.5 4 q8 0 16 -2t16 -6q39 -20 55.5 -54t28.5 -71q0 -2 1 -4t1 -6q10 -31 24.5 -60.5t43.5 -52.5q8 -12 11 -27.5t3 -31.5q2 -29 10.5 -53.5t45.5 -26.5h3h3h1h3q33 0 53.5 23.5t36.5 52.5q4 6 7 13t7 13t8.5 12.5t8.5 12.5q10 20 20 38.5t21 39.5q2 2 5 6t5 8q18 35 36.5 69 t35.5 70q16 20 41.5 28.5t52.5 8.5h13t13 -2q14 -2 27.5 -4t26.5 -6q12 -16 25.5 -12t27.5 12q6 2 12 5t12 5h7.5t7.5 2h7h7q16 0 33.5 -2t34.5 -2q16 -2 32.5 -4t32.5 -2t29.5 2t26.5 6q8 -6 15 -8t15 -2q6 0 14.5 2t14.5 4q10 4 19.5 6t19.5 2h5t5 -2q2 0 5 -1t5 -1 q8 0 12.5 -6t4.5 -12q2 -2 2 -3v-1q2 -6 5 -10.5t7 -8.5v-4t2 -4v-4v-4q0 -31 -16.5 -55.5t-34.5 -46.5l-2 -2q-20 -23 -35.5 -46.5t-15.5 -54.5v-4t2 -4v-4v-4q-23 -25 -37.5 -55.5t-26.5 -61.5q0 -2 -1 -3l-1 -1q-16 -43 -36.5 -82t-61.5 -68q-20 -129 -75.5 -241.5 t-139.5 -210.5q-2 -27 -12.5 -53.5t-20.5 -53.5q-2 -2 -3 -4t-1 -4q-12 -29 -21.5 -57.5t-9.5 -57.5q0 -20 5 -39.5t20 -39.5v-5.5v-7.5v-5v-5q-2 -23 -11.5 -41t-35.5 -18h-2q-20 0 -36 -12.5t-26 -28.5q-6 -4 -13 -8.5t-13 -10.5q-39 -23 -80 -44t-86 -27 q-6 -4 -11.5 -7.5t-9.5 -7.5q-37 -23 -73.5 -42t-77.5 -19h-4.5h-4.5q-23 59 -51 119.5t-59 119.5t-60.5 120t-52.5 120q-27 37 -51.5 79t-42.5 89q-43 -2 -61.5 -27.5t-32.5 -58.5q0 -2 -1 -4t-1 -4q-12 -29 -30.5 -55.5t-57.5 -34.5v-3v-1q0 -18 -8.5 -37t-18.5 -35 q-10 -18 -18.5 -35.5t-8.5 -34.5q0 -12 6.5 -24.5t20.5 -24.5v-6v-6q-2 -4 -2 -7v-8q-70 -39 -139.5 -78.5t-134.5 -84.5h-6.5h-8.5h-11t-9 2h-11.5h-11.5q-16 -2 -29.5 -8.5t-17.5 -28.5q-4 -23 -17.5 -37t-31.5 -27q-6 -2 -11 -6t-12 -8q-63 12 -82.5 58t-29.5 100 q-4 25 -10.5 51.5t-18.5 46.5q-25 14 -31 40t-10 54v1v3q-4 33 -14 62.5t-51 42.5q-14 39 -33 75.5t-39 71.5q-2 2 -3 4l-3 6q-31 53 -56.5 108.5t-31.5 123.5q-45 33 -66.5 77t-38.5 89q-10 31 -22.5 61.5t-32.5 57.5q-35 39 -54.5 86t-35.5 94q-20 53 -43 104t-64 92 q0 4 -1 7.5t-1 5.5q-2 8 -3 15t-1 13z" />
<glyph unicode="x" horiz-adv-x="2150" d="M96 1092q2 16 7.5 29.5t13.5 27.5q35 14 44 43t11 59q2 18 6 38t15 36q4 39 27.5 66.5t51.5 52.5l1 1l1 1q31 27 54.5 57.5t23.5 75.5v1v3v3v1q2 2 4 5t2 7q10 14 22.5 26.5t29.5 12.5h4h4q76 0 140.5 -27.5t117.5 -68.5q61 -12 108 -52t90 -85q0 -2 2.5 -4t4.5 -4 q12 -2 24.5 -7.5t24.5 -9.5q16 -8 33.5 -14t33.5 -6h7.5t7.5 2q4 0 7 1t7 3q18 35 39.5 68.5t44.5 68.5q18 25 34.5 51.5t33.5 53.5q23 16 48 22t52 6q16 0 30.5 -1t28.5 -5q10 -14 21.5 -18t21.5 -4q12 0 23.5 4t23.5 8q6 2 13.5 4t13.5 4q18 -2 36.5 -3t39.5 -1 q47 0 90 -7t74 -42q6 2 12 3t12 3q10 2 18.5 4t18.5 4q8 0 15.5 1t15.5 1q16 0 28.5 -3t24.5 -13q6 -14 8 -26.5t2 -24.5q0 -39 -18.5 -75t-40.5 -71q-12 -18 -23.5 -35.5t-19.5 -35.5q-39 -41 -62.5 -91.5t-44.5 -101.5v-2t-2 -2q-23 -59 -52.5 -117.5t-84.5 -103.5 q-6 -14 -9 -28.5t-3 -26.5q0 -43 26.5 -77t59.5 -67q2 -2 3 -4t3 -2q35 -35 63.5 -72t28.5 -84q53 -39 88 -96t56 -119q0 -2 1 -6t3 -8q53 -43 99 -92t89 -101q6 -8 12.5 -14t10.5 -14q6 -6 11 -11.5t9 -11.5v-3v-3q0 -16 -10 -28.5t-23 -16.5q-2 0 -4 -1t-4 -1 q-10 6 -19.5 9t-19.5 5t-19 3t-20 1q-20 0 -39.5 -3t-40.5 -5q-20 -4 -40.5 -7t-40.5 -3t-40 4t-42 14q-4 -2 -7.5 -4t-7.5 -2q-8 -4 -15 -5t-13 -1t-11.5 1t-9.5 1t-6 1t-4 1q-8 0 -16.5 1t-16.5 1t-16 -1t-19 -5q-16 10 -35.5 14.5t-39.5 4.5q-8 0 -18.5 -1t-18.5 -1 q-10 -2 -19.5 -3.5t-17.5 -3.5q-18 -2 -37 -5t-35 -3q-37 0 -65.5 20.5t-38.5 80.5q-6 18 -17.5 33.5t-23.5 29.5q-4 2 -6 5t-5 5q-10 12 -20 25.5t-18 28.5q-6 4 -12.5 9t-12.5 11l-1 1l-1 1q-14 12 -28.5 23.5t-33.5 9.5h-1h-3h-3h-1q-14 -25 -29.5 -47.5t-31.5 -44.5 q-4 -4 -7 -9.5t-7 -9.5q-25 -33 -47.5 -67.5t-36.5 -75.5q-14 -23 -36 -31t-46 -8h-10.5t-10.5 2h-11t-9 2q-6 0 -11.5 1t-9.5 1q-10 0 -19 4t-20 6q-10 6 -20 9.5t-23 3.5q-4 0 -8 -1t-8 -1q-6 -2 -10 -4.5t-9 -6.5q-43 -4 -88 -6t-92 -2q-51 0 -103 2l-104 4 q-18 2 -35.5 3t-33.5 1q-14 4 -19.5 18.5t-5.5 31.5q0 10 2 18l4 16q41 20 64.5 54t44.5 73q20 37 43.5 72t68.5 55q8 16 17.5 34t17.5 36q2 6 4 11t7 9q27 59 60.5 113.5t88.5 91.5q6 16 12 31.5t13 32.5q14 31 26 65q10 27 11 53q0 6 -1 13q0 25 -9 49.5t-34 48.5h-3h-1 h-3h-3q-35 0 -62.5 18.5t-53.5 41.5q-27 23 -57 42t-66 19h-2q-20 0 -41 -6t-39 -15q-10 -2 -21.5 -6t-21.5 -6q-8 -4 -18.5 -5t-20.5 -1h-12.5t-10.5 2l-12 4t-12 6q-4 6 -8.5 13.5t-6.5 13.5t-3 13t-1 14z" />
<glyph unicode="y" horiz-adv-x="1953" d="M88 1546q0 6 2 13.5t4 15.5q16 31 38 41t48 10q12 0 25.5 -1t25.5 -3q14 -2 27.5 -3t28.5 -1h9h9q6 -2 11.5 -4t9.5 -4q4 0 9 -1t11 -1q12 0 26.5 3t28.5 7t31 7t33 3q6 0 12 -1t12 -1q4 -2 10.5 -4t12.5 -4q4 -6 12 -8t17 -2h5h5h3t3 2h8h6h3h4q6 2 13 3t15 3 q12 4 25.5 6t27.5 4q10 2 20.5 3t20.5 1q23 -2 42.5 -6t35.5 -16q4 2 7 3t6 3q8 4 17 7t19 5h8.5h8.5q10 0 19 -3t18 -11q18 -14 30.5 -35t22.5 -41q0 -2 1 -3t1 -3q12 -29 28.5 -53.5t49.5 -34.5q6 -4 11 -10.5t11 -12.5q14 -16 31.5 -27.5t38.5 9.5q8 8 13 19.5t9 23.5 l1 2l1 2q6 20 17.5 37.5t40.5 17.5q10 41 30.5 74t53.5 53q10 4 19 6t18 2q18 0 33.5 -6t31.5 -14q8 -4 18.5 -9t20.5 -10q4 0 9 -1t10 -1q4 0 8 1t8 4q8 2 16.5 7t16.5 13h67.5h63.5h39.5h38.5q37 0 73.5 1t73.5 3q16 -18 22.5 -35.5t6.5 -34.5q0 -29 -16.5 -56t-34.5 -52 q-12 -16 -22.5 -31.5t-18.5 -30.5h-1h-1h-2h-1q-33 0 -42 -21.5t-13 -45.5v-2q-2 -12 -5 -23.5t-7 -21.5q-31 -61 -63.5 -118.5t-67.5 -115.5l-7 -14t-8 -12q-20 -33 -38.5 -65t-36.5 -64q-29 -16 -39 -43t-17 -56q0 -4 -1 -6t-1 -6q-6 -27 -16 -51.5t-35 -42.5 q-29 -8 -35 -28.5t-6 -43.5v-1v-1q-2 -14 -4 -28.5t-10 -24.5q-10 -12 -15.5 -27.5t-9.5 -31.5q0 -2 -1 -4l-1 -1q-6 -25 -15 -47t-36 -32q-6 -14 -10 -30t-8 -30q-2 -4 -2 -6t-2 -4q-10 -39 -26.5 -75t-55.5 -54q-2 -12 -4.5 -24.5t-4.5 -24.5v-1v-1q-6 -45 -19 -85 t-56 -61q-6 2 -12.5 2h-14.5h-16.5h-16.5q-10 -2 -18 -2h-17q-20 0 -40.5 5.5t-34.5 23.5h-1h-3h-3h-2q-10 0 -18 -4t-14 -10h-1h-1q-4 -4 -10.5 -7.5t-12.5 -5.5h-5h-7q-14 0 -28.5 -2t-29.5 -2q-6 -2 -10 -2t-10 -2q-10 0 -19.5 -1t-19.5 -1q-20 0 -40.5 5t-39.5 20 q-39 -10 -84 -19.5t-92 -9.5h-12t-12 2q-8 0 -14.5 1t-12.5 1q-2 0 -3 1l-1 1q-4 0 -9.5 2t-9.5 2q-14 6 -27.5 15.5t-15.5 27.5v1v3v3v1q0 16 8.5 26.5t18.5 18.5q0 2 1 3.5t3 1.5q8 8 17.5 18t11.5 27q2 33 20.5 58.5t38.5 47.5q23 25 41.5 50.5t18.5 62.5v1v1v1v1 q39 31 56 70.5t32 85.5q0 2 1 4t1 6q12 39 28.5 75.5t48.5 67.5q2 8 3.5 15.5t3.5 13.5v7v7q0 10 -1 19.5t-6 19.5q-23 27 -47 56.5t-49 60.5q-45 53 -88 111.5t-78 117.5q-14 25 -27.5 47.5t-25.5 44.5q-33 16 -51.5 44t-36.5 59q-16 31 -36.5 59.5t-53.5 44.5q-2 4 -6 8 t-8 11q-2 4 -6.5 8t-8.5 10q-18 20 -33.5 44t-15.5 50z" />
<glyph unicode="z" horiz-adv-x="1767" d="M80 94v8v9q0 16 3 30.5t7 28.5q4 4 5 6l3 6q2 2 2 5v6q0 2 -1 5t-1 5l-4 8l-4 8q-4 8 -7 16.5t-3 16.5v3t2 3v1v3v9v10q-2 4 -2 9v9q0 35 10 64.5t37 44.5q43 27 81 60.5t75 70.5l9 9l9 9q37 37 75 69.5t79 57.5q18 63 64 111.5t104 81.5v1v1v1v1q0 4 -1 6t-4 6l-1 2 t-1 4q-2 4 -1 8t8 8q10 10 22 21.5t25 21.5q29 26 52 54q21 26 21 59v6v1v3v3v1q0 2 -1 3.5t-3 1.5q0 2 -1 3t-1 3q-2 2 -4 3t-4 -1h-7h-7h-7h-8q-23 0 -42 1t-40 3h-4h-4q-23 2 -44 3t-46 1h-6h-6h-7h-7q-18 37 -37 28.5t-39 -22.5q-12 -10 -23.5 -17.5t-23.5 -7.5h-1h-1 h-1h-1q-6 2 -12.5 2.5t-12.5 0.5q-12 0 -23.5 -1.5t-23.5 -3.5q-4 0 -7 -1t-5 -1q-16 -2 -30.5 -4t-29.5 -2q-23 0 -42 10.5t-29 36.5q-2 4 -2 9.5v9.5q0 12 4 22.5t8 20.5t8 20.5t4 20.5t-5 19t-17 18q-4 10 -7.5 19t-3.5 17q0 14 6.5 28.5t12.5 27.5q8 14 14 27.5t6 25.5 q0 10 -7 21.5t-26 21.5v8v8q0 37 3.5 73t25.5 63q23 20 52.5 27t60.5 7h20t21 -2q10 0 20 -1t21 -3q14 0 29.5 -2t27.5 -2q10 -4 18.5 -8t16.5 -8l17 -8.5t18 -10.5q18 8 37.5 14.5t37.5 10.5q18 2 38 4t38 2q41 0 81 -5t81 -15q29 12 58.5 16t60.5 4q16 0 33.5 -1t35.5 -3 q23 0 44.5 -1t43.5 -1q23 0 46.5 2t44.5 8q6 -2 12 -6l12 -8q2 0 3 -1t1 -3q8 -6 17.5 -9.5t19.5 1.5q4 2 7 5l5 5t3.5 3t3.5 3q4 4 8 7t8 3q10 -2 19.5 -3t19.5 -1q10 -2 19.5 -2h19.5q16 0 32.5 1t32.5 1q14 0 30.5 1t33.5 1h20.5t22.5 -2q10 0 20.5 -2t20.5 -4 q12 -6 17 -16.5t5 -24.5v-6v-6q-2 -6 -3 -12.5t-1 -12.5q-2 -6 -3 -11t-1 -9q-12 -10 -16 -22.5t-4 -24.5t3 -25.5t7 -28.5q4 -14 7 -29.5t3 -29.5t-5 -27.5t-17 -25.5q14 -18 20 -37t6 -35q0 -41 -25.5 -76t-56.5 -69q-12 -10 -22 -22.5t-21 -25.5q-4 -6 -8 -11t-8 -11 q-18 -2 -35.5 -11.5t-28.5 -27.5q0 -35 -18 -60.5t-41 -48.5l-4 -4l-4 -4q-12 -12 -23.5 -25.5t-21.5 -29.5q-45 -10 -64.5 -41t-34.5 -70q0 -2 -2 -5t-2 -7q-12 -33 -29.5 -61.5t-52.5 -46.5q0 -2 -1 -4.5t-1 -4.5q0 -4 -1 -8t-1 -8q0 -27 18.5 -44t41.5 -26q2 0 5 -1t5 -1 q14 -2 27.5 -4t27.5 -2q27 0 52.5 5t50.5 12l20 4t21 4q14 2 27.5 4t27.5 2q16 0 33.5 -3t36.5 -11q10 2 20 5t23 5q10 4 20 6t23 4q10 2 21 3t22 1q16 0 30.5 -2t28.5 -10t19.5 -22.5t5.5 -30.5q0 -6 -1 -13.5t-1 -15.5q-2 -2 -2.5 -5t-2.5 -7q0 -8 -2 -15.5t-2 -13.5 q-14 -8 -21 -17.5t-7 -19.5q0 -8 5 -18.5t9 -20.5q2 -2 3 -4l3 -6q2 -6 5 -12.5t3 -12.5q4 -16 5 -32.5t1 -32.5q0 -14 -1 -28.5t-1 -29.5q-2 -4 -2 -7v-7q-2 -18 -3 -36.5t-1 -37.5v-6v-6v-7v-7q-20 -16 -42.5 -22.5t-49.5 -6.5q-16 0 -33.5 2t-33.5 4q-10 2 -18.5 3 t-18.5 1q-8 0 -17.5 1t-17.5 1h-11.5t-9.5 -2q-4 0 -9 -1t-11 -1q-4 2 -9 4t-10 2q-6 2 -11 2h-9q-12 0 -24.5 -2t-24.5 -4q-12 -4 -23.5 -6t-23.5 -2q-14 0 -27.5 5t-26.5 18q-51 -16 -101 -21.5t-99 -5.5q-20 0 -40 1t-38 1q-20 0 -39.5 1t-40.5 1q-33 0 -64.5 -2 t-66.5 -6q-16 14 -33.5 21.5t-34.5 7.5q-16 0 -32.5 -4.5t-32.5 -8.5q-16 -6 -33.5 -10t-34.5 -4q-14 0 -29.5 5t-31.5 15q-45 -6 -94.5 -9t-100.5 -3h-40.5t-39.5 2q-20 2 -40.5 4t-41.5 4q-12 16 -18 36t-8 40z" />
<glyph unicode="{" horiz-adv-x="768" d="M35 829l215 181l29 -455zM190 1552q0 31 8.5 53.5t32.5 30.5q8 -2 17.5 -4t17.5 -2q14 -2 27.5 -4t25.5 -12q12 12 26.5 18t29.5 6h7t9 -2q10 -2 20.5 -8t20.5 -16q8 8 17.5 14t19.5 8q4 2 6 2h4q14 0 28.5 -13t20.5 -46q2 -14 2 -26.5v-24.5q0 -20 -1 -40t-1 -38 q-2 -20 -2 -39.5v-38.5q0 -27 2 -54.5t9 -55.5q-2 -27 -3.5 -51.5t-1.5 -49.5q0 -29 1.5 -57.5t3.5 -57.5v-6t2 -8q0 -31 2 -62.5t8 -23.5q-37 -59 -47 -60t-70 -69q51 -72 61.5 -86t49.5 -55q0 16 0 -8.5t2 -49.5v-16v-16q0 -35 -2 -70t-6 -65q2 -8 3 -15.5t1 -17.5v-11.5 v-9.5q-2 -8 -2 -15v-13q0 -8 2 -16.5t6 -16.5q-4 -20 -5 -42t-1 -42v-32.5t2 -31.5v-32.5v-32.5q0 -18 -1 -36.5t-3 -39.5q-4 -27 -15.5 -36t-23.5 -9h-4t-4 2q-2 0 -4.5 1t-4.5 1q-6 8 -13 11t-15 3q-6 0 -13.5 -2t-13.5 -2q-8 -2 -14 -4t-13 -2q-8 0 -15 2t-13 10 q-12 -8 -26.5 -12t-29.5 -4q-6 0 -14 1t-14 1q-4 0 -7 1t-8 1q-10 2 -20 3t-18 1h-7.5h-7.5q-2 0 -3 -1t-3 -1q-6 37 -9 74t-3 76q0 29 2 57.5t6 54.5q-4 27 -5 51.5t-1 49.5q0 31 2 59.5t4 59.5q2 29 3 57.5t1 58.5q0 29 -2 59.5t-8 63.5v4v4v2v4q0 18 -1 38t-1 38 q-2 18 -3 35.5t-1 36.5q0 12 1 24.5t3 24.5q0 10 3 22.5t5 24.5q-8 35 -9 75t-1 81v5v7v12.5v12.5v16v16q0 6 -1 14.5t-1 16.5q0 10 2 19.5t2 17.5q2 10 3 21.5t1 21.5t-1 19.5t-7 17.5q0 4 1 8t1 10v8.5v8.5v20t-2 21q0 8 -1 17t-1 20q-2 20 -4.5 39.5t-2.5 37.5zM379 49 q0 2 1 4t1 4v6.5v4.5q2 6 2 13v15v11.5v11.5q-2 6 -2 11v11q0 10 2 19.5t10 17.5q0 4 -1 6t-1 4q0 4 -2 8.5t-2 6.5t2 5t2 5q23 6 46.5 8t47.5 2h31.5t32.5 -2q6 -4 11 -5t9 -1h4t5 2h4t4 2q4 2 10 3t12 1h2h5h6q6 0 13 -1t13 -3q4 -2 6 -2h6q4 -2 6.5 -2h6.5t9 1t11 3 q12 -8 14.5 -21.5t4.5 -27.5v-3v-3v-5v-5v-9.5t2 -9.5q-8 -4 -11.5 -9t-3.5 -9q2 -6 5.5 -11.5t5.5 -11.5q2 -4 3 -9t1 -9q0 -6 -2 -13.5t-4 -15.5l-1 -2l-1 -2q-4 -8 -6.5 -15.5t-2.5 -17.5q-4 -2 -7 -3t-7 -1t-7 1t-7 3q-6 2 -12.5 3t-14.5 -5q-4 4 -9 5t-11 1t-11.5 -1 t-11.5 -3t-11 -4t-12 -2q-2 0 -5 1t-5 1q-2 2 -5 4t-5 4q-12 -4 -25.5 -7t-27.5 -3h-5h-8q-14 0 -27 2t-24 6h-2q-4 0 -8 -1t-8 -1q-2 -2 -5 -3t-5 -1h-3h-4q-2 0 -5 1t-5 1q-8 12 -11 21.5t-3 19.5zM389 1487q0 2 1 4t1 4v4v4q2 6 2 12.5v14.5v9v9q-2 6 -2 11.5v9.5 q0 8 2 16t10 17q0 2 -1 4t-1 4q-2 4 -3 7t-1 7l1 3t3 5q23 4 45.5 6t47.5 2h31.5t31.5 -2q6 -2 11 -3t10 -1h3h5q2 0 4 1t4 1q4 2 10 3t12 1h5.5h5.5q8 0 14 -1t12 -3q4 0 7.5 -1t5.5 -1h7h5h10t10 2q12 -8 14.5 -19t4.5 -24v-3v-1v-5v-5v-8t2 -8q-8 -4 -11 -8.5t-3 -8.5 q2 -4 5 -9t5 -11q2 -4 3 -7t1 -8q0 -6 -2 -12l-4 -12q0 -2 -1 -3l-1 -1q-2 -8 -5.5 -14.5t-3.5 -14.5q-4 -2 -7 -3t-7 -1q-2 0 -6 1t-6 3q-8 0 -14.5 1t-12.5 -3q-6 2 -10 4t-10 2t-11.5 -2t-11.5 -2q-6 -2 -11 -4t-11 -2q-2 0 -5.5 1t-5.5 1l-6 3t-4 3q-12 -2 -25.5 -5 t-27.5 -3h-5h-7q-14 0 -26.5 2t-25.5 4h-9t-7 -2q-2 0 -5 -1t-5 -1h-3h-3t-5 1t-6 1q-8 10 -11 18.5t-3 16.5z" />
<glyph unicode="|" horiz-adv-x="765" d="M252 1552q0 31 6 53.5t25 30.5q8 -2 15 -4t15 -2q10 -2 20.5 -4t20.5 -12q10 12 20.5 18t22.5 6h5.5t7.5 -2q8 -2 16 -8t16 -16q6 8 13.5 14t15.5 8q2 2 4 2h4q12 0 22.5 -13t16.5 -46q2 -14 2 -26.5v-24.5q0 -20 -1 -40t-1 -38q-2 -20 -2 -39.5v-38.5q0 -27 2 -54.5 t6 -55.5q0 -27 -1 -51.5t-1 -49.5q0 -29 1 -57.5t1 -57.5v-6t2 -8q0 -31 1 -62.5t1 -66.5v-43.5t-2 -48.5q0 -23 1 -47.5t1 -48.5q0 -23 1 -47.5t1 -49.5v-16v-16q0 -35 -1 -70t-5 -65q2 -8 3 -15.5t1 -17.5v-11.5v-9.5q-2 -8 -2 -15v-13q0 -8 1 -16.5t5 -16.5 q-2 -20 -3 -42t-1 -42v-32.5v-31.5q0 -16 1 -32.5t1 -32.5q0 -18 -1 -36.5t-3 -39.5q-4 -27 -12 -36t-18 -9h-3t-4 2q-2 0 -3 1t-3 1q-6 8 -11 11t-13 3q-4 0 -9.5 -2t-11.5 -2q-4 -2 -10 -4t-10 -2q-6 0 -11.5 2t-11.5 10q-10 -8 -21.5 -12t-23.5 -4q-4 0 -10 1t-10 1t-6 1 t-7 1q-8 2 -15 3t-15 1h-5h-6q-2 0 -2 -1t-2 -1q-6 37 -9 74t-3 76q0 29 2 57.5t6 54.5q-4 27 -4 51.5v49.5q0 31 1 59.5t3 59.5q0 29 2 57.5t2 58.5q0 29 -2 59.5t-6 63.5v4v4v2v4q0 18 -1 38t-3 38q0 18 -1 35.5t-1 36.5q0 12 1 24.5t1 24.5q2 10 4 22.5t4 24.5 q-8 35 -8 75v81v5v7v12.5v12.5v16v16q0 6 -1 14.5t-1 16.5q0 10 1 19.5t3 17.5q0 10 1 21.5t1 21.5t-1 19.5t-5 17.5q0 4 1 8t1 10v8.5v8.5v20t-2 21q0 8 -1 17t-1 20q-2 20 -3 39.5t-1 37.5z" />
<glyph unicode="}" horiz-adv-x="800" d="M55 1511q0 4 1 7.5t3 7.5q2 6 5.5 11t5.5 9q0 4 -3.5 8.5t-11.5 8.5q2 4 2 8v8v5v5v1v3q2 12 4 23.5t15 19.5q6 -2 10 -2h10h5h8q2 0 5 1t7 1q6 2 12 3t14 1h5.5h5.5q6 0 12 -1t10 -3q2 0 4 -1t4 -1h5.5h3.5q4 0 9 1t11 3q16 2 31.5 2h32.5q25 0 47 -2t45 -6q2 -2 3 -5 l1 -3q0 -4 -1 -7t-3 -7q0 -2 -1 -4t-1 -4q8 -8 10 -16.5t2 -16.5v-9.5t-2 -11.5v-9v-9v-14.5t2 -12.5v-4v-4t1 -4t1 -4q0 -8 -3 -16.5t-11 -18.5q-2 0 -5.5 -1t-5.5 -1h-3h-3t-5 1t-5 1q-2 2 -7 2h-9q-12 -2 -24.5 -4t-27.5 -2h-7h-5q-14 0 -27.5 3t-25.5 5q-2 -2 -4 -3 l-6 -3q-2 0 -5 -1t-6 -1q-6 0 -11 2t-11 4q-6 0 -11 2t-12 2q-6 0 -10 -2t-10 -4q-6 4 -12.5 3t-14.5 -1q-2 -2 -6 -3t-6 -1q-4 0 -7 1t-7 3q0 8 -3 14.5t-6 14.5l-1 1t-1 3l-4 12t-2 12zM61 76q0 4 1 9t4 9q2 6 5 11.5t5 11.5q0 4 -3 9t-12 9q2 4 2 9.5v9.5v5v5v3v3 q2 14 4.5 27.5t14.5 21.5q6 -2 11 -3t9 -1h6.5t6.5 2h6t6 2q6 2 13 3t14 1h5h5h2q6 0 12 -1t10 -3q2 -2 4.5 -2h4.5q2 -2 4 -2h4q4 0 9 1t11 5q16 2 31.5 2h32.5q25 0 48 -2t46 -8q0 -2 2 -5t2 -5t-2 -6t-2 -9q0 -2 -1 -4t-1 -6q8 -8 10 -17t2 -20v-11t-2 -11v-11.5v-11.5 v-15t2 -13v-4.5v-6.5q0 -2 1 -4t1 -4q0 -10 -3 -19.5t-11 -21.5q-2 0 -5 -1t-5 -1h-3h-3t-5.5 1t-5.5 3q-4 0 -8 1t-8 1h-2q-10 -4 -23.5 -6t-27.5 -2h-7.5h-5.5q-14 0 -27.5 3t-25.5 7q-2 -2 -5 -4t-5 -4q-2 0 -5 -1t-5 -1q-6 0 -11.5 2t-11.5 4t-11 3t-11 1t-11.5 -1 t-9.5 -5q-8 6 -14 5t-13 -3q-4 -2 -7 -3t-7 -1t-7 1t-7 3q0 10 -2 17.5t-6 15.5l-1 2l-1 2q-2 8 -4.5 15.5t-2.5 13.5zM225 944q6 -8 8.5 23.5t2.5 62.5q2 4 2 8v6q2 29 3 57.5t1 57.5q0 25 -1 49.5t-3 51.5q6 29 8 56t2 54v37.5t-2 40.5q0 18 -1 37.5t-1 40.5v24.5t2 26.5 q6 33 20.5 46t28.5 13h4t6 -2q10 -2 19.5 -8t17.5 -14q10 10 20.5 16t20.5 8q6 2 9 2h7q14 0 28.5 -6t27.5 -18q12 10 25.5 12t27.5 4q8 0 17.5 2t17.5 4q25 -8 33 -30.5t8 -53.5q0 -18 -2 -37.5t-4 -39.5q0 -10 -1.5 -19.5t-1.5 -17.5q-2 -10 -2 -20.5v-20.5v-8.5v-8.5 q0 -6 1 -10t1 -8q-6 -8 -7 -17.5t-1 -19.5t1 -21.5t3 -21.5q0 -8 2 -17.5t2 -19.5q0 -8 -1 -16t-1 -15v-16v-16v-12.5v-12.5v-7v-5q0 -41 -1 -81t-9 -75q2 -12 5 -24.5t3 -22.5q2 -12 3 -24.5t1 -24.5q0 -18 -1 -35.5t-3 -36.5q0 -18 -1 -37.5t-1 -38.5v-4v-2v-4v-4 q-6 -33 -8 -63.5t-2 -59.5q0 -31 1 -59.5t3 -56.5q2 -31 4 -60t2 -59q0 -25 -1 -49.5t-5 -51.5q4 -27 6 -55.5t2 -56.5q0 -39 -3 -76t-9 -74q-2 0 -3 1t-3 1h-7h-7q-8 0 -18.5 -1t-20.5 -3q-4 0 -7.5 -1t-7.5 -1q-6 0 -14 -1t-14 -1q-14 0 -28.5 4t-27.5 12q-6 -8 -13 -10 t-15 -2q-6 0 -12.5 2t-14.5 4q-6 0 -13 2t-14 2q-8 0 -15 -3t-13 -11q-2 0 -4 -1t-4 -1q-2 -2 -4.5 -2h-4.5q-12 0 -23 9t-15 36q-2 20 -3.5 38.5t-1.5 37.5v32.5v32.5q2 14 2 30.5v33.5q0 20 -1 41.5t-5 42.5q4 8 6.5 16t2.5 17v13t-3 15v9.5v11.5q0 10 1.5 17t3.5 16 q-4 31 -6.5 65.5t-2.5 69.5v16v16q2 25 2 49.5t0 8.5q39 41 49.5 55t61.5 86q-59 68 -69.5 69t-47.5 60zM496 555l28 455l215 -181z" />
<glyph unicode="~" horiz-adv-x="1206" d="M-23 1303q2 -10 25 -41q23 -27 21 -37q-10 -47 94 -183v5q10 12 76 53q74 63 75 65q31 31 58 66q72 -55 63 -47q-2 0 74 -70q23 -25 24 -20q2 2 27 -21q63 -59 51 -51q12 27 103 283q12 8 -68 84q-51 49 -53 51q4 -8 -92 82q-84 80 -86 80q-31 33 -45 34q-4 0 -7 -4 q6 4 -155 -149q-23 -25 -25 -21q-2 2 -26 -20l-74 -72q-55 -47 -60 -67zM393 1210q-12 -8 68 -84q51 -49 53 -49q-6 6 113 -67q63 -94 65 -97q31 -31 43 -32q6 -2 6 4q-6 -4 156 149q25 23 27 21q2 -4 26 20l176 178q-57 49 -53 70q-2 10 -26 39q-20 27 -19 37q10 47 -82 94 v-6q-10 -10 -78 -70q-74 -63 -77 -67q-31 -29 -58 -66q-70 55 -61 47l-74 72q-25 23 -27 20q-2 -4 -24 19q-63 61 -51 53q-12 -27 -103 -285z" />
<glyph unicode="&#xa1;" />
<glyph unicode="&#xa2;" />
<glyph unicode="&#xa3;" />
<glyph unicode="&#xa4;" />
<glyph unicode="&#xa5;" />
<glyph unicode="&#xa6;" />
<glyph unicode="&#xa7;" />
<glyph unicode="&#xa8;" />
<glyph unicode="&#xa9;" />
<glyph unicode="&#xaa;" />
<glyph unicode="&#xab;" />
<glyph unicode="&#xac;" />
<glyph unicode="&#xad;" horiz-adv-x="956" />
<glyph unicode="&#xae;" />
<glyph unicode="&#xaf;" horiz-adv-x="956" />
<glyph unicode="&#xb0;" />
<glyph unicode="&#xb1;" />
<glyph unicode="&#xb2;" />
<glyph unicode="&#xb3;" />
<glyph unicode="&#xb4;" />
<glyph unicode="&#xb5;" />
<glyph unicode="&#xb6;" />
<glyph unicode="&#xb7;" horiz-adv-x="956" />
<glyph unicode="&#xb8;" />
<glyph unicode="&#xb9;" />
<glyph unicode="&#xba;" />
<glyph unicode="&#xbb;" />
<glyph unicode="&#xbc;" />
<glyph unicode="&#xbd;" />
<glyph unicode="&#xbe;" />
<glyph unicode="&#xbf;" />
<glyph unicode="&#xc0;" />
<glyph unicode="&#xc1;" />
<glyph unicode="&#xc2;" />
<glyph unicode="&#xc3;" />
<glyph unicode="&#xc4;" />
<glyph unicode="&#xc5;" />
<glyph unicode="&#xc6;" />
<glyph unicode="&#xc7;" />
<glyph unicode="&#xc8;" />
<glyph unicode="&#xc9;" />
<glyph unicode="&#xca;" />
<glyph unicode="&#xcb;" />
<glyph unicode="&#xcc;" />
<glyph unicode="&#xcd;" />
<glyph unicode="&#xce;" />
<glyph unicode="&#xcf;" />
<glyph unicode="&#xd0;" />
<glyph unicode="&#xd1;" />
<glyph unicode="&#xd2;" />
<glyph unicode="&#xd3;" />
<glyph unicode="&#xd4;" />
<glyph unicode="&#xd5;" />
<glyph unicode="&#xd6;" />
<glyph unicode="&#xd7;" />
<glyph unicode="&#xd8;" />
<glyph unicode="&#xd9;" />
<glyph unicode="&#xda;" />
<glyph unicode="&#xdb;" />
<glyph unicode="&#xdc;" />
<glyph unicode="&#xdd;" />
<glyph unicode="&#xde;" />
<glyph unicode="&#xdf;" />
<glyph unicode="&#xe0;" />
<glyph unicode="&#xe1;" />
<glyph unicode="&#xe2;" />
<glyph unicode="&#xe3;" />
<glyph unicode="&#xe4;" />
<glyph unicode="&#xe5;" />
<glyph unicode="&#xe6;" />
<glyph unicode="&#xe7;" />
<glyph unicode="&#xe8;" />
<glyph unicode="&#xe9;" />
<glyph unicode="&#xea;" />
<glyph unicode="&#xeb;" />
<glyph unicode="&#xec;" />
<glyph unicode="&#xed;" />
<glyph unicode="&#xee;" />
<glyph unicode="&#xef;" />
<glyph unicode="&#xf0;" />
<glyph unicode="&#xf1;" />
<glyph unicode="&#xf2;" />
<glyph unicode="&#xf3;" />
<glyph unicode="&#xf4;" />
<glyph unicode="&#xf5;" />
<glyph unicode="&#xf6;" />
<glyph unicode="&#xf7;" />
<glyph unicode="&#xf8;" />
<glyph unicode="&#xf9;" />
<glyph unicode="&#xfa;" />
<glyph unicode="&#xfb;" />
<glyph unicode="&#xfc;" />
<glyph unicode="&#xfd;" />
<glyph unicode="&#xfe;" />
<glyph unicode="&#xff;" />
<glyph unicode="&#x152;" />
<glyph unicode="&#x153;" />
<glyph unicode="&#x178;" horiz-adv-x="808" d="M47 1180l4 22h5h3q14 0 27.5 -5t26.5 -13h3t1 -2q4 -2 9 -4t9 -4q8 16 20.5 25t28.5 11q8 0 14.5 -1t10.5 -5q-4 -4 -8 -5t-11 -3q-6 0 -12 -2t-8 -14l-1 -1t-1 -3v-4v-1v-3v-1q2 -4 4 -7t6 -5h3h3q6 0 11.5 4t7.5 10q2 0 3 3l1 2q2 2 2 5v7q2 0 2 1v1q0 8 2 13t10 5h2 q2 -2 3 -5t1 -5t-1 -5t-1 -7q0 -2 -1 -5t-1 -8q-2 -31 -17 -57.5t-32 -50.5q-2 -2 -2 -3t-2 -1q-14 -23 -28.5 -46.5t-20.5 -51.5q-2 -12 -5 -25.5t-3 -30.5v-1v-3v-3v-1q6 -14 15 -14t20 4q2 2 4 3t4 1q6 2 10 5t8 3l8 4t9 4q0 2 1 2h3q14 8 29.5 16.5t31.5 12.5l57 74 q-4 12 -13 23.5t-19 21.5q-12 12 -22.5 24.5t-10.5 30.5q0 4 1 9t3 9q2 2 3 5.5t1 5.5q4 8 9 16t9 14q-6 25 -10 50.5t-4 52.5q-4 4 -8 6t-10 4q0 2 -1 2h-1q-12 6 -21.5 14.5t-13.5 20.5t4 19.5t18 9.5q12 2 13.5 9t-2.5 17v4v2q-2 4 -2 6.5v4.5v1q0 1 2 3v1v1q0 2 1 5t1 7 q4 20 11 38.5t21 31.5q6 -2 12.5 -3t12.5 -3q2 0 4 -1t4 -1q8 -2 16.5 -4.5t16.5 -2.5h6t6 2q2 0 5 1t5 1q47 27 101.5 46.5t111.5 19.5h8.5h10.5q4 0 8 -1t8 -1h5t8 2q20 2 38.5 14.5t30.5 30.5q14 -12 21.5 -29.5t11.5 -33.5q0 -2 1 -4l1 -1q2 -8 4 -15t4 -13 q4 -14 5 -27.5t1 -27.5q0 -47 -17 -92.5t-38 -86.5q-2 -6 -5 -11t-5 -9q-2 -6 -3 -13.5t-3 -15.5v-7v-7q0 -8 2 -17.5t4 -17.5q-8 -10 -20.5 -12t-28.5 -2q-25 -27 -50.5 -52.5t-54.5 -50.5q6 -2 10.5 -7t8.5 -11v-1v-1l3 -3t1 -3q-4 -10 -10.5 -19.5t-14.5 -17.5l-1 -1 t-1 -3q-6 -6 -10 -11.5t-8 -11.5q14 -18 32.5 -31.5t36.5 -25.5q12 -6 22.5 -12.5t20.5 -12.5q8 10 14.5 19.5t14.5 17.5q0 2 2 4t2 4q12 18 25.5 35t27.5 33h3t4 -2q4 -2 8 -5t0 -7q-6 -10 -13.5 -19.5t-13.5 -19.5q-8 -8 -14 -18.5t-13 -20.5q-6 -8 -13 -18.5t-13 -20.5 q14 -10 21.5 -23.5t7.5 -29.5v-5.5t-3 -7.5q-10 -14 -25.5 -26.5t-29.5 -22.5q-2 -2 -4 -3t-2 -3q-27 -18 -47.5 -38.5t-20.5 -53.5v-5v-5q0 -4 1 -6.5t1 -6.5q39 -57 58.5 -125.5t19.5 -142.5v-24.5t-2 -26.5h-35q0 -12 -3 -24.5t-7 -24.5q0 -4 -2 -8.5t-2 -8.5 q-6 -20 -11 -39.5t-5 -42.5q0 -8 1 -17t3 -20l18 -14q12 -4 24.5 -6t26.5 -2v-1v-1q23 -2 44.5 -6t37.5 -21v-6h-9h-9q-16 0 -32.5 -1t-35.5 -1h-10h-12q-10 -2 -21.5 -2h-23.5q-16 0 -33.5 1t-34.5 3q-4 4 -5 7t-1 7q0 6 1 10.5t3 10.5q0 2 1 4t1 4q27 47 47.5 96.5 t22.5 104.5q-8 4 -16.5 5t-18.5 1q-8 0 -17.5 -1t-17.5 -5q-6 -18 -16 -36.5t-19 -35.5q-2 -2 -3 -4t-3 -4q-16 -29 -28.5 -58.5t-12.5 -64.5v-5v-7v-5v-7q0 -8 -2 -15.5t-10 -11.5h-3h-3h-4h-4q-4 -2 -6.5 -2h-4.5t-5 1t-7 3q-14 -2 -27.5 -3t-25.5 -1h-13.5h-13.5 q-25 0 -49 1t-53 3q0 8 5 12t13 8q2 2 5 3.5t6 3.5q10 2 20 3t20 3q43 6 81 21.5t61 56.5q4 8 8 15t8 15q27 45 48.5 92.5t19.5 100.5v21.5t-4 23.5q0 4 -1 7t-3 7q-6 25 -14.5 47.5t-22.5 42.5l-8 -4l-144 -203l53 -43q-4 -2 -7 -3t-7 -1q-10 -4 -20.5 -7t-20.5 -7 q-27 -8 -51.5 -22.5t-42.5 -38.5q6 18 11 37.5t7 39.5q2 10 3 19.5t1 19.5q0 14 -2 27.5t-6 26.5l4 6q16 -10 29.5 -21.5t28.5 -21.5q25 31 47 62.5t45 64.5q14 23 29.5 44t29.5 42q-8 23 -23.5 36t-29.5 25q0 2 -1 2h-1q-12 10 -24.5 21.5t-22.5 27.5q-2 4 -5 8.5t-5 8.5 q-20 33 -38 70.5t-18 76.5q0 10 1 19.5t3 17.5q2 6 3 11t4 9q0 6 1 11.5t3 9.5q-14 0 -28.5 -5t-29.5 -11q-14 -6 -27.5 -11.5t-29.5 -5.5q-6 0 -12.5 1t-12.5 3q-2 6 -4 11.5t-4 11.5q0 6 -1 11t-1 11q0 10 2 20.5t6 18.5q2 10 6.5 20.5t8.5 20.5q6 20 13 41t7 41 q-4 25 -21.5 46.5t-37.5 37.5q-6 6 -13.5 11.5t-13.5 11.5zM57 1180q6 -4 12.5 -10.5t14.5 -12.5q16 -14 31.5 -31.5t23.5 -35.5v-5.5v-7.5q0 -23 -7 -44t-15 -40q0 -2 -1 -4l-1 -2q-8 -18 -14.5 -37.5t-6.5 -40.5q2 -4 3 -11t1 -13q2 -2 3 -5t1 -8q6 -2 12.5 -3t12.5 -1 q12 0 24.5 4.5t22.5 8.5q4 0 6 2t4 2q12 6 26.5 11t29.5 5q0 2 1 3l3 3t3 5t3 6v4v4v1v1v1v1q-12 -4 -24.5 -10.5t-24.5 -12.5q0 -2 -1 -2h-1q-16 -10 -31.5 -17t-34.5 -7h-1h-3h-3h-1q-8 2 -10 7t-4 13v2q0 2 -1 4t-1 4q0 41 18 75t39 65q20 31 38.5 64.5t18.5 76.5v3v3h-4 q-2 -2 -3 -5t-1 -7q-4 -12 -10 -23.5t-25 -11.5h-2q-8 0 -12 5t-4 13v1t2 4v1v3q0 10 6 15t14 7q4 2 8.5 3t6.5 1q-4 2 -9.5 3t-9.5 -1h-4h-2q-2 0 -4 -1t-4 -1q-6 -2 -10 -8t-9 -14v-2q-2 -2 -3 -5.5t-3 -5.5q-6 2 -12 5.5t-12 5.5q-8 2 -14.5 5t-12.5 5q-2 0 -5 1t-5 1h-1 t-1 2q-6 0 -12.5 1t-8.5 -1q18 -6 35 -17.5t33 -21.5q4 -4 7 -6t7 -4l1 -1q1 -1 1 -3l-3 -3t-3 -1q-4 4 -10 7t-10 7q-14 12 -27.5 20.5t-30.5 8.5zM172 43q23 -2 47.5 -2h48.5q29 0 58.5 1t56.5 3l8 8q-2 10 -3 19.5t-1 17.5q0 35 14.5 65.5t32.5 59.5q0 2 1 3t1 3 q12 16 21.5 34.5t17.5 37.5q-2 0 -3 1t-3 1h-3h-1h-4h-4q-6 -12 -12.5 -24.5t-12.5 -24.5q-2 -4 -3 -7t-3 -6q-6 -16 -14.5 -31.5t-18.5 -31.5q-23 -47 -63.5 -68.5t-85.5 -31.5q-12 -2 -24.5 -3t-24.5 -4q-2 -2 -4.5 -3t-4.5 -3h-1t-1 -2l-8 -4t-4 -8zM211 1323 q14 -23 31.5 -32t38.5 -9q18 0 36.5 5t36.5 13h2q20 6 40 11.5t38 5.5h1h3h3h1h1h3h4h1q27 0 37 -15.5t18 -35.5v-2q6 -16 16 -33t33 -19q2 0 3 1t3 1q6 0 10 2.5t7 6.5q-14 14 -26.5 28.5t-25.5 30.5l-4 4l-4 4q-29 37 -61.5 69t-77.5 46q-2 0 -6 1t-6 1h-7.5h-7.5 q-23 0 -44 -9t-40 -26q0 -12 -9 -17t-19 -7q-10 -4 -19.5 -8.5t-9.5 -16.5zM233 786q10 -66 51.5 -114.5t88.5 -93.5q6 -6 12 -12.5t12 -12.5l9 6q0 2 1 4t3 4q2 4 3 8.5t-5 8.5q-49 47 -89 102t-40 127q0 2 1 5t1 5v5v6h-27q-6 2 -10 5t-2 9q4 2 7 5t7 5q8 4 15.5 9 t15.5 12q12 8 23.5 17t21.5 19q4 4 7 7.5t7 5.5q0 2 2 4l4 4q4 6 10.5 11t14.5 9q0 -6 1 -12t1 -14q2 0 2 -1v-3q2 -27 7 -52.5t22 -46.5q-4 -2 -7.5 -3t-7.5 -1h-4t-6 -2h-8t-10 -2v-5v-5q-2 -2 -2 -5v-5q2 -45 24.5 -84t54.5 -74q6 4 11.5 9t9.5 12q2 2 4 5t4 5 q-16 29 -27.5 59.5t-17.5 61.5q-2 10 -3 19t-1 17q0 57 30.5 105.5t69.5 87.5q0 4 -3 6t-7 2h-3h-1q-20 -14 -44 -21.5t-46 -13.5q-6 -2 -15.5 -4t-19.5 -2h-5h-7q-14 0 -28.5 4t-22.5 15q-45 -39 -67 -92.5t-22 -112.5v-4v-4v-4.5v-4.5zM256 1112q2 -18 12.5 -30.5 t24.5 -24.5l1 -1l3 -3q4 -4 9 -9.5t9 -9.5q6 -14 18.5 -26.5t28.5 -12.5h3.5h3.5q74 10 141.5 44t105.5 104l-16 12q-2 0 -5 -1t-5 -1l-1 -1l-1 -1q-4 -2 -9.5 -3t-9.5 3q4 2 8.5 4t8.5 4q16 8 29.5 19.5t15.5 27.5q-6 4 -12.5 6t-12.5 2q-4 0 -8 -1t-8 -1t-7 -1t-5 -3 q-6 0 -11.5 -2t-9.5 -2q-25 2 -36 17.5t-19 33.5v2l-2 3q-4 12 -11.5 24t-19.5 21q-8 2 -15.5 3t-15.5 1q-14 0 -27.5 -3t-27.5 -8q-6 -2 -11 -4t-12 -2q-23 -8 -44 -13t-44 -5h-1h-1h-1h-1l2 -35q6 4 12.5 5t12.5 3q10 -2 15 -9t9 -15q0 -2 1.5 -3t1.5 -3v-7.5t-3 -7.5 q0 -12 -4 -25.5t-14 -23.5q2 0 5 -2t5 -2q4 -4 7.5 -5t7.5 -1h3t3 2v-6q-4 -4 -8.5 -2t-8.5 4q-2 2 -5 3t-5 1q-4 0 -6 -2t-2 -6v-1v-1q0 -2 -1 -3l-1 -2l-2 7v3v3q0 4 1 7t1 7q2 2 4 6t4 6l-1 1l-1 1h-3h-1h-3h-3q-12 -4 -17.5 -13t-9.5 -19l-1 -1l-1 -1q0 -2 -1 -5.5 t-3 -5.5q-2 -4 -2 -7v-7zM272 1217q0 -4 1 -7.5t1 -7.5q2 -2 3.5 -5t1.5 -5q2 -4 4 -9t2 -9l8 6q0 4 1 9t5 9q-4 0 -7 4t-1 8q0 4 3 6.5t5 4.5q4 2 6 4t2 6l-1 1t-3 1q-2 2 -5 4t-7 2h-3h-3q-6 -4 -9.5 -10t-3.5 -12zM274 1145q4 -2 6.5 -2t4.5 2v1v1v3t-2 1q-2 2 -4.5 0 t-2.5 -4q-2 0 -2 -1v-1zM283 1159l10 2h-1h-3h-2h-1h-1h-2v-2zM295 1094q-2 2 0 5t8 5h1h3h3h1q10 0 19.5 -1t19.5 -3h1q1 0 3 -2q8 0 16.5 -2t16.5 -2l2 10q6 -4 12.5 -7t14.5 -3q-10 0 -19.5 -6.5t-19.5 -12.5q-8 -8 -17.5 -14t-17.5 -6q-6 0 -12 4t-13 14q2 0 4.5 -1 t4.5 -1h4h4h5h5q12 2 22.5 7t18.5 12q-8 0 -15.5 2t-13.5 4q-2 0 -4 1t-4 1q-4 2 -9 3t-9 1h-5t-6 -2q-2 0 -5 -1t-5 -3l2 -15q-2 0 -3 1t-3 1q-4 2 -7 5.5t-3 5.5zM307 1313q12 -4 21.5 1t17.5 11h2q8 6 17.5 10t19.5 0q-8 0 -16.5 -4t-14.5 -8h-2q-8 -6 -15 -9t-18 -3h-5 t-7 2zM334 1044q4 -4 9 -6t9 -2h3t3 2h4.5h4.5v9q-2 -4 -6.5 -5.5t-10.5 -1.5q-2 0 -4 1t-4 1t-4 1t-4 1zM356 1243q0 10 6.5 17.5t14.5 9.5h3h3h1h3q10 0 20.5 -4t18.5 -15q-2 0 -5 1t-5 1q-4 2 -7 2h-8q-2 2 -5 2h-7q-8 0 -15 -2t-12 -8zM358 1169q8 10 19.5 13.5 t23.5 3.5h14.5t12.5 -2l2 -4q-2 0 -5 1t-5 1q-2 2 -5 2h-5q-14 0 -27.5 -4t-24.5 -11zM369 1188q4 8 12 12t16 4h3h3l1 -1q2 -1 4 -1q2 -2 2 -3t-2 -3q-4 0 -9.5 -1t-9.5 -3q-6 -2 -11 -3t-9 -1zM373 1169h1h3l1 -1l1 -1h3h3q0 -2 -1 -3l-3 -3h-1h-1q-2 -2 -4 1t-2 7z M389 1157l1 2t3 2q0 -2 1 -3t3 -1l1 -1q1 -1 1 -3v-2h-2h-1h-1q-2 0 -4 2t-2 4zM391 1169v1t2 1v3h1h1h1t3 -3v-1v-3v-3t-2 -1h-2t-3 2t-1 4zM408 1147q0 2 2 4t4 2h3h1l1 -1l1 -1v-1v-3t-2 -3t-4 1h-1h-1q-2 0 -3 1zM410 1163q-2 2 0 8l3 3h1q2 0 5 -1.5t3 -3.5q0 -4 -2 -6 t-4 -2q-4 0 -6 2zM418 530q20 -37 33.5 -78.5t13.5 -84.5v-13.5t-2 -15.5q0 -8 -2 -15.5t-4 -13.5l8 -6h24.5h24.5h2h4q14 -2 28.5 -2h31.5q2 14 3 27.5t1 25.5q0 59 -16.5 114.5t-47.5 102.5l-4 -4l-4 -4l-7 -7t-5 -7q20 -35 32.5 -75t14.5 -81q0 -2 -3 -4t-5 -2h-1h-3 h-8.5h-8.5q-8 0 -16 1t-13 5q-6 43 -19 84t-40 74q0 -2 -2 -3t-2 -3q-4 -4 -6 -7t-2 -8zM432 840q0 -8 1 -15.5t3 -11.5q-2 -2 -2 -4v-4v-3t2 -3q0 -2 1 -3t1 -3q2 -2 3 -6.5t1 -8.5v-6v-6q2 -10 5.5 -19.5t9.5 -13.5v-3v-3q0 -12 7 -23.5t15 -21.5l1 -1l3 -3l9 8 q0 2 -2.5 5t-2.5 5q-2 4 -4 7.5t-2 5.5q-6 10 -10 18t-6 14q-2 4 -3 8.5t-3 10.5q-4 10 -8.5 22.5t-1.5 24.5v1v3v3v1q0 2 -1.5 4t-1.5 4v2v4v8.5t3 6.5v8v6v3v3q4 4 6 9.5t4 11.5l4 8l4 8q2 2 2 4v4q2 4 0 7.5t-8 3.5q4 2 5 5t1 7v3v3q2 2 2 3v3h-4v-1v-3v-1v-3v-1v-3 q-10 -6 -13 -14.5t-6 -18.5l-4 -12t-6 -13q-2 -8 -3 -16t-1 -18zM449 572.5q2 -3.5 4 -5.5q2 0 3 1l1 1q10 4 14 11.5t8 13.5q0 2 1 4t1 4l4 8t4 6v-3v-5q0 -6 -2 -12t-4 -10v-2l-2 -2q-2 -4 -4 -9.5t-2 -11.5q4 0 7 2t5 6q2 2 3.5 3t1.5 3q2 4 4 8.5t2 8.5v2v2l4 12t8 8 q-2 -6 -3 -13t-1 -13q-2 -6 -3 -13.5t-3 -13.5q14 10 17 26.5t5 33.5v1v1q2 12 4 23t9 22q10 20 25 33.5t34 25.5q20 12 37.5 28.5t25.5 41.5q0 2 -1 4l-1 2v2q-4 10 -9 20.5t-15 14.5q-6 -6 -5 -11.5t3 -9.5t3 -7t1 -5q-10 -33 -35 -54.5t-53 -39.5q-4 -2 -8.5 -5t-8.5 -5 q-14 -8 -26.5 -17.5t-22.5 -19.5q-2 -4 -5 -7.5t-7 -7.5l-1 -1l-1 -1q-6 -6 -11 -12t-5 -16l16 8q4 -2 5 -5t1 -8q0 -4 -3 -9t-7 -9v-2l-2 -2q-2 -4 -5 -8t-5 -8t0 -7.5zM455 829q0 -35 13 -68.5t32 -60.5q8 14 17 26.5t18 27.5q2 0 3 2l1 2q16 23 30.5 44t24.5 44 q-8 4 -16.5 10t-16.5 12q-20 14 -40.5 25.5t-43.5 13.5q-12 -18 -18 -37.5t-4 -40.5zM473 931q0 -1 2 -3v-3v-3q20 -4 38.5 -15.5t37.5 -23.5v-2q12 -8 25.5 -16.5t27.5 -14.5l2 10q-4 2 -8 5t-8 5q-4 4 -9.5 7.5t-11.5 5.5q-20 12 -39.5 26.5t-31.5 32.5l-15 2q-6 2 -8 -2 t-2 -8v-3zM473 948q16 -4 26.5 6.5t18.5 22.5v2q6 6 10 12t11 10v7l-1 1t-1 3t-2.5 5t-4.5 1q-10 -8 -20 -19.5t-18 -21.5q-4 -8 -9.5 -15.5t-9.5 -13.5zM477 63q0 -2 2 -5t4 -7h15.5h15.5h36.5t39.5 2h36.5h37.5h7h7h6h6q0 4 -1 5t-3 1q-16 6 -35.5 11.5t-40.5 9.5 q-12 2 -25.5 4t-25.5 4l-20 18q-2 8 -2 15.5v15.5q0 25 5 47.5t9 44.5q2 6 4 12.5t4 12.5q2 10 3 19.5t3 19.5h-10q-6 -55 -23.5 -104.5t-46.5 -94.5q0 -2 -1 -5t-3 -7q0 -2 -1 -4t-1 -4q-2 -2 -2 -5v-6zM524 584q12 -20 22.5 -43t18.5 -47q0 -2 1 -2h3v1v1h3t1 -5 q-2 -2 -3 -2h-1v-1v-1v-1v-1q0 -2 1 -3l1 -1l1 -1l1 -1q2 -2 2 -4v-4v-1v-3v-1v-3q0 -4 2.5 -8t4.5 -9q0 -10 2 -19t4 -17v-4.5t2 -4.5q2 -8 3 -17t1 -20h-4q2 -4 2 -7v-5t-1 -3l-3 -3h2h2l1 1t1 -1l-6 -6v-4v-4q2 -6 2 -11.5t-4 -13.5h1h1h3t1 -2h-1h-1q-2 -2 -3 -2h-1 q0 -4 2 -4h4l1 1l1 1q2 0 3 1l1 1v-6h6v14v10v4.5v4.5h2q2 4 2 7v5q0 6 -1 11t-3 9q-2 2 -3 6.5t-1 6.5h3h3q0 6 -1 7t-3 1l-1 1l-3 3h1h1h1h1l-2 2v1v3q-2 0 -1 2t3 2q-2 6 -3 12.5t-1 10.5v2q-2 10 -4 20.5t-8 18.5v3v3q0 10 -2 18.5t-6 16.5q-2 2 -3.5 5t-1.5 7 q-2 4 -3 7t-3 5q-2 14 -9 27.5t-13 26.5q-2 4 -5 8t-5 8h-5q-4 0 -5 -2t-1 -4v-3v-1zM555 729q20 12 38.5 26.5t31.5 35.5q2 2 2 4v4v2v2q0 6 -2 11t-9 7l-61 -86v-6zM569 1196q4 0 7.5 2t7.5 4t8 3t10 3q4 0 8 -1t8 -3q0 -2 -1 -4l-1 -2l-3 -3l-1 -1q-2 4 -6 5t-8 1t-8 -1 t-6 -1q-4 0 -7.5 -1t-7.5 -1zM606 1161q8 -10 18.5 -12t20.5 -4h3h3q0 2 -2 3t-4 3t-4 2t-2 2q-6 2 -9 6t-5 10q-2 0 -5.5 -2t-5.5 -2q0 -2 -1 -2t-1 -2q-2 0 -3 -1t-3 -1z" />
<glyph unicode="&#x2c6;" />
<glyph unicode="&#x2dc;" />
<glyph unicode="&#x2000;" horiz-adv-x="821" />
<glyph unicode="&#x2001;" horiz-adv-x="1642" />
<glyph unicode="&#x2002;" horiz-adv-x="821" />
<glyph unicode="&#x2003;" horiz-adv-x="1642" />
<glyph unicode="&#x2004;" horiz-adv-x="547" />
<glyph unicode="&#x2005;" horiz-adv-x="410" />
<glyph unicode="&#x2006;" horiz-adv-x="273" />
<glyph unicode="&#x2007;" horiz-adv-x="273" />
<glyph unicode="&#x2008;" horiz-adv-x="205" />
<glyph unicode="&#x2009;" horiz-adv-x="328" />
<glyph unicode="&#x200a;" horiz-adv-x="91" />
<glyph unicode="&#x2010;" horiz-adv-x="1335" d="M109 848q0 16 2 31.5t10 29.5q2 6 5 12.5t5 10.5q2 2 2 3v1q4 6 7 13t3 14q0 4 -2 9t-6 9q-14 0 -18 10t-4 21v2v2q0 6 -1 11t-3 9q2 43 23.5 56.5t53.5 13.5q12 0 25.5 -1t28.5 -3q12 -2 25.5 -3t25.5 -1q10 0 17 1t16 3q4 -2 9 -5t11 -7q14 -8 29.5 -14.5t32.5 -6.5 q25 20 52 26.5t54 6.5q12 0 25.5 -1t27.5 -1q12 -2 25.5 -3t27.5 -1h8.5h10.5q4 0 8 1t8 1q10 -14 21.5 -20.5t21.5 -6.5q6 0 14.5 2t16.5 4q8 0 16.5 2t16.5 2h4h4q0 -2 2 -2h4q2 2 3 4t3 4q0 4 2 6.5t4 2.5h1h4h3h1q14 0 28.5 2t28.5 4h10t10 2q10 0 19.5 1t19.5 1 q18 0 37 -5t35 -16q8 2 18.5 4.5t20.5 4.5q16 4 32.5 7t32.5 5q12 0 23.5 1t22.5 1q37 0 66.5 -12.5t41.5 -46.5v-9.5v-9.5q0 -8 1 -17t1 -18q0 -10 1 -18t1 -16q0 -16 -4 -33t-20 -29q18 -25 26 -55.5t8 -65.5q0 -27 -6 -51.5t-16 -44.5q4 -6 5 -11t1 -9q0 -6 -3 -13.5 t-5 -15.5q-4 -8 -7 -17.5t-3 -19.5v-2q-16 4 -34 5t-36 3h-17.5h-17.5q-23 0 -45 -1t-43 -1q-23 -2 -45 -3t-45 -1q-14 0 -30.5 1t-30.5 3q-16 0 -32 3t-32 7q-8 -14 -20.5 -19t-24.5 -5q-8 0 -15.5 1t-15.5 3q-8 0 -15 1t-13 1q-8 0 -14.5 -1t-12.5 -5q-14 -8 -28.5 -11.5 t-28.5 -1.5q-20 0 -42 6.5t-40 12.5q-4 2 -8.5 3t-8.5 3q-16 4 -32.5 8t-32.5 4q-8 -2 -18.5 -3t-20.5 -5q-8 -14 -18.5 -19t-24.5 -5q-8 0 -17.5 2t-19.5 4q-2 0 -4 1t-6 1q-8 2 -18.5 5t-18.5 3h-3h-1h-3h-3q-10 0 -20.5 -1t-20.5 -3h-9.5t-11.5 -2h-15h-15q-23 0 -43.5 8 t-30.5 35q8 16 11 32.5t1 30.5q0 12 -2 25.5t-4 25.5q-2 4 -3 10.5t-3 12.5q-4 18 -7 38.5t-3 41.5z" />
<glyph unicode="&#x2011;" horiz-adv-x="1335" d="M109 848q0 16 2 31.5t10 29.5q2 6 5 12.5t5 10.5q2 2 2 3v1q4 6 7 13t3 14q0 4 -2 9t-6 9q-14 0 -18 10t-4 21v2v2q0 6 -1 11t-3 9q2 43 23.5 56.5t53.5 13.5q12 0 25.5 -1t28.5 -3q12 -2 25.5 -3t25.5 -1q10 0 17 1t16 3q4 -2 9 -5t11 -7q14 -8 29.5 -14.5t32.5 -6.5 q25 20 52 26.5t54 6.5q12 0 25.5 -1t27.5 -1q12 -2 25.5 -3t27.5 -1h8.5h10.5q4 0 8 1t8 1q10 -14 21.5 -20.5t21.5 -6.5q6 0 14.5 2t16.5 4q8 0 16.5 2t16.5 2h4h4q0 -2 2 -2h4q2 2 3 4t3 4q0 4 2 6.5t4 2.5h1h4h3h1q14 0 28.5 2t28.5 4h10t10 2q10 0 19.5 1t19.5 1 q18 0 37 -5t35 -16q8 2 18.5 4.5t20.5 4.5q16 4 32.5 7t32.5 5q12 0 23.5 1t22.5 1q37 0 66.5 -12.5t41.5 -46.5v-9.5v-9.5q0 -8 1 -17t1 -18q0 -10 1 -18t1 -16q0 -16 -4 -33t-20 -29q18 -25 26 -55.5t8 -65.5q0 -27 -6 -51.5t-16 -44.5q4 -6 5 -11t1 -9q0 -6 -3 -13.5 t-5 -15.5q-4 -8 -7 -17.5t-3 -19.5v-2q-16 4 -34 5t-36 3h-17.5h-17.5q-23 0 -45 -1t-43 -1q-23 -2 -45 -3t-45 -1q-14 0 -30.5 1t-30.5 3q-16 0 -32 3t-32 7q-8 -14 -20.5 -19t-24.5 -5q-8 0 -15.5 1t-15.5 3q-8 0 -15 1t-13 1q-8 0 -14.5 -1t-12.5 -5q-14 -8 -28.5 -11.5 t-28.5 -1.5q-20 0 -42 6.5t-40 12.5q-4 2 -8.5 3t-8.5 3q-16 4 -32.5 8t-32.5 4q-8 -2 -18.5 -3t-20.5 -5q-8 -14 -18.5 -19t-24.5 -5q-8 0 -17.5 2t-19.5 4q-2 0 -4 1t-6 1q-8 2 -18.5 5t-18.5 3h-3h-1h-3h-3q-10 0 -20.5 -1t-20.5 -3h-9.5t-11.5 -2h-15h-15q-23 0 -43.5 8 t-30.5 35q8 16 11 32.5t1 30.5q0 12 -2 25.5t-4 25.5q-2 4 -3 10.5t-3 12.5q-4 18 -7 38.5t-3 41.5z" />
<glyph unicode="&#x2012;" horiz-adv-x="1335" d="M109 848q0 16 2 31.5t10 29.5q2 6 5 12.5t5 10.5q2 2 2 3v1q4 6 7 13t3 14q0 4 -2 9t-6 9q-14 0 -18 10t-4 21v2v2q0 6 -1 11t-3 9q2 43 23.5 56.5t53.5 13.5q12 0 25.5 -1t28.5 -3q12 -2 25.5 -3t25.5 -1q10 0 17 1t16 3q4 -2 9 -5t11 -7q14 -8 29.5 -14.5t32.5 -6.5 q25 20 52 26.5t54 6.5q12 0 25.5 -1t27.5 -1q12 -2 25.5 -3t27.5 -1h8.5h10.5q4 0 8 1t8 1q10 -14 21.5 -20.5t21.5 -6.5q6 0 14.5 2t16.5 4q8 0 16.5 2t16.5 2h4h4q0 -2 2 -2h4q2 2 3 4t3 4q0 4 2 6.5t4 2.5h1h4h3h1q14 0 28.5 2t28.5 4h10t10 2q10 0 19.5 1t19.5 1 q18 0 37 -5t35 -16q8 2 18.5 4.5t20.5 4.5q16 4 32.5 7t32.5 5q12 0 23.5 1t22.5 1q37 0 66.5 -12.5t41.5 -46.5v-9.5v-9.5q0 -8 1 -17t1 -18q0 -10 1 -18t1 -16q0 -16 -4 -33t-20 -29q18 -25 26 -55.5t8 -65.5q0 -27 -6 -51.5t-16 -44.5q4 -6 5 -11t1 -9q0 -6 -3 -13.5 t-5 -15.5q-4 -8 -7 -17.5t-3 -19.5v-2q-16 4 -34 5t-36 3h-17.5h-17.5q-23 0 -45 -1t-43 -1q-23 -2 -45 -3t-45 -1q-14 0 -30.5 1t-30.5 3q-16 0 -32 3t-32 7q-8 -14 -20.5 -19t-24.5 -5q-8 0 -15.5 1t-15.5 3q-8 0 -15 1t-13 1q-8 0 -14.5 -1t-12.5 -5q-14 -8 -28.5 -11.5 t-28.5 -1.5q-20 0 -42 6.5t-40 12.5q-4 2 -8.5 3t-8.5 3q-16 4 -32.5 8t-32.5 4q-8 -2 -18.5 -3t-20.5 -5q-8 -14 -18.5 -19t-24.5 -5q-8 0 -17.5 2t-19.5 4q-2 0 -4 1t-6 1q-8 2 -18.5 5t-18.5 3h-3h-1h-3h-3q-10 0 -20.5 -1t-20.5 -3h-9.5t-11.5 -2h-15h-15q-23 0 -43.5 8 t-30.5 35q8 16 11 32.5t1 30.5q0 12 -2 25.5t-4 25.5q-2 4 -3 10.5t-3 12.5q-4 18 -7 38.5t-3 41.5z" />
<glyph unicode="&#x2013;" />
<glyph unicode="&#x2014;" />
<glyph unicode="&#x2018;" horiz-adv-x="802" d="M72 1524q0 14 2 27.5t6 25.5q2 6 3 13t3 14q4 10 10 14t15 4h1h3q2 -2 3 -2h1l4 -4t2 -4q10 -12 22.5 -21.5t28.5 -1.5q12 18 29.5 23.5t38.5 7.5h4h6h14t15 2h3h3q8 0 13 -3t9 -7q0 -2 1 -3t3 -1q2 -4 6.5 -7.5t8.5 -5.5q37 12 74.5 22.5t76.5 10.5h15.5t15.5 -2 q6 -20 17.5 -26.5t25.5 -6.5q8 0 16.5 2t16.5 4h1h3q2 2 6 3.5t6 1.5l1 1q1 1 3 1h3h1q10 0 16.5 -10.5t4.5 -22.5v-4v-2v-4v-4q0 -10 1 -21.5t3 -24.5q0 -12 1 -23t1 -22q0 -16 -3 -32.5t-13 -32.5q12 -25 20 -52.5t14 -54.5q2 -12 3.5 -25.5t1.5 -27.5q0 -20 -3.5 -41.5 t-13.5 -42.5q20 -27 27.5 -59.5t11.5 -67.5v-2v-2q4 -31 10 -61.5t25 -57.5q-2 -20 -11.5 -33.5t-31.5 -19.5h-4h-4q-2 -2 -4 -2h-5q-37 0 -56 22.5t-36 51.5q-18 29 -38.5 52.5t-61.5 23.5h-5h-7q-8 20 -24.5 36.5t-33.5 32.5h-2v2q-23 18 -41 40t-22 50q-25 29 -54.5 43.5 t-60.5 24.5q-10 23 -24.5 44t-30.5 42q-4 6 -7 11t-8 11q-23 31 -39 62t-16 65v2q-12 12 -16 25.5t-4 28.5z" />
</font>
</defs>
</svg>
