<?xml version="1.0" standalone="no"?>
<!DOCTYPE svg PUBLIC "-//W3C//DTD SVG 1.1//EN" "http://www.w3.org/Graphics/SVG/1.1/DTD/svg11.dtd" >
<svg xmlns="http://www.w3.org/2000/svg">
<metadata></metadata>
<defs>
<font id="palameciaregular" horiz-adv-x="1277" >
<font-face units-per-em="2048" ascent="1417" descent="-631" />
<missing-glyph horiz-adv-x="516" />
<glyph unicode="&#x28;C&#x29;" d="M41 643q0 294 162 474.5t430 180.5q604 0 604 -657q0 -725 -614 -725q-115 0 -211 39t-164 107t-115 160.5t-69.5 198.5t-22.5 222zM217 639q0 -110 26 -198.5t78.5 -155.5t139 -103.5t201.5 -36.5q204 0 305.5 126.5t101.5 355.5q0 107 -24.5 195t-73.5 154t-129 102 t-185 36q-223 0 -331.5 -126.5t-108.5 -348.5zM383 631q0 48 8.5 90t31.5 85t60 73.5t99 49.5t143 19q24 0 42 -13t25.5 -31t11 -31t3.5 -19q0 -22 -5 -37t-11 -23t-22 -12.5t-26 -6t-35.5 -3t-39.5 -2.5q-48 -5 -74.5 -36.5t-26.5 -86.5q0 -64 34 -102.5t101 -38.5 q10 0 31 2t33 2q22 0 35.5 -31.5t13.5 -60.5q0 -18 -16 -53q-15 -27 -40 -36.5t-83 -9.5q-51 0 -101.5 19t-94 55t-70.5 98t-27 140z" />
<glyph unicode="&#x28;R&#x29;" d="M41 643q0 294 162 474.5t430 180.5q604 0 604 -657q0 -725 -614 -725q-115 0 -211 39t-164 107t-115 160.5t-69.5 198.5t-22.5 222zM217 639q0 -110 26 -198.5t78.5 -155.5t139 -103.5t201.5 -36.5q204 0 305.5 126.5t101.5 355.5q0 107 -24.5 195t-73.5 154t-129 102 t-185 36q-223 0 -331.5 -126.5t-108.5 -348.5zM381 436q0 79 39 459q1 9 10.5 16t20.5 9q20 2 68.5 6.5t84 7t68.5 2.5q94 0 159.5 -45t65.5 -127q0 -33 -12.5 -64t-27.5 -50t-27.5 -35.5t-12.5 -24.5q0 -11 21 -62q7 -19 37 -72.5t30 -70.5q0 -12 -35 -47 q-29 -28 -43 -33.5t-55 -5.5q-35 0 -50.5 13.5t-29.5 64.5q-8 26 -19.5 81.5t-17.5 78.5q-7 18 -26 18q-51 0 -51 -41q0 -19 4 -54t4 -52q0 -12 -6.5 -22t-16.5 -11q-24 -7 -63.5 -14t-55.5 -7t-39.5 24t-23.5 58zM578 704.5q0 -5.5 1.5 -14.5t4.5 -11.5t9 -4.5t15 -2 q50 0 79.5 11t29.5 44q0 26 -15 35q-18 10 -96 10q-13 0 -20 -8.5t-7.5 -15.5t-0.5 -21v-22.5z" />
<glyph horiz-adv-x="2048" />
<glyph horiz-adv-x="2048" />
<glyph unicode="&#xd;" horiz-adv-x="2048" />
<glyph horiz-adv-x="516" />
<glyph unicode=" "  horiz-adv-x="516" />
<glyph unicode="&#x09;" horiz-adv-x="516" />
<glyph unicode="&#xa0;" horiz-adv-x="516" />
<glyph unicode="!" horiz-adv-x="634" d="M53 1233q0 47 29 77.5t68 35.5q187 22 268 22q57 0 101 -32.5t44 -92.5q0 -32 -12 -98q-68 -432 -96 -582q-8 -46 -50 -69t-92 -23q-84 0 -118 34.5t-45 121.5l-93 565q-4 14 -4 41zM92 90v135q0 48 30.5 86.5t72.5 38.5q145 0 206 -6q107 -10 107 -201q0 -94 -31 -143 q-41 -53 -69 -53h-158q-61 0 -109.5 40t-48.5 103z" />
<glyph unicode="&#x22;" horiz-adv-x="940" d="M49 1264q0 49 26 79.5t79 30.5h182q48 0 69 -26t21 -62t-4 -90l-23 -319q-1 -26 -20 -41t-72 -41q-55 -27 -92 -27q-41 0 -86 34.5t-49 74.5l-27 323q-4 58 -4 64zM520 1264q0 49 26 79.5t79 30.5h182q48 0 69 -26t21 -62t-4 -90l-23 -319q-1 -26 -20 -41t-72 -41 q-55 -27 -92 -27q-41 0 -86 34.5t-49 74.5l-27 323q-4 58 -4 64z" />
<glyph unicode="#" horiz-adv-x="1275" d="M41 354q0 48 25 89.5t73 41.5q50 0 113 9q25 3 35 21t10 60q0 59 -27 82q-12 10 -29 12.5t-75 2.5q-72 0 -98.5 32t-26.5 107q0 25 7 48.5t30 45t59 21.5h107q26 0 40.5 16.5t14.5 36.5v154q27 67 145 67q107 0 107 -67l8 -127q0 -68 98 -68q101 0 101 49v141 q0 28 21 45.5t42 22t43 4.5q49 0 77 -14.5t36.5 -39t10.5 -50t5 -56.5t13 -49q23 -37 94 -37q14 0 29 -3.5t32.5 -12t29 -27t11.5 -45.5q0 -98 -53 -118q-12 -5 -44.5 -12.5t-51.5 -16.5q-39 -16 -39 -78v-12q0 -45 1.5 -64t9.5 -39.5t27 -27t52 -6.5q9 0 29 1t30 1 q37 -1 58.5 -31.5t21.5 -69.5q0 -80 -30 -106t-109 -31q-50 -5 -73 -17t-23 -46v-170q0 -80 -93 -80q-52 0 -105.5 30t-57.5 68l-17 152q-3 22 -22 34.5t-43 12.5q-35 0 -54.5 -16.5t-19.5 -47.5v-160q0 -32 -29 -53.5t-61 -28t-62 -6.5q-49 0 -88 31.5t-43 87.5l-12 131 q-3 23 -23.5 39t-46.5 16h-98q-47 0 -69.5 37t-22.5 84zM553 604q0 -72 16 -97.5t82 -25.5q59 0 85 17t26 69q0 26 -0.5 38t-3 31.5t-8 29t-15 20.5t-25.5 15t-38 4q-24 0 -37 -1t-31.5 -6t-27.5 -15t-16 -30t-7 -49z" />
<glyph unicode="$" horiz-adv-x="774" d="M57 281q0 69 15 112q16 41 55 41q23 0 72.5 -9t74.5 -9q57 0 94.5 19.5t37.5 58.5q0 30 -52 67l-24 16t-39.5 27t-44.5 32t-52.5 42t-50.5 47q-69 69 -69 145q0 84 49.5 140t126.5 88q6 2 16 6t15.5 6.5t14 6t13.5 6t11.5 6t10 6.5t7 6.5t5.5 7.5t3 8l14 82q8 53 78 53 q57 0 76 -43q2 -5 14 -37t19 -45q6 -10 13.5 -16.5t19 -10t21 -5.5t27 -4.5t29.5 -4.5q32 -6 51 -35t19 -69q0 -121 -70 -121q-19 0 -52.5 5t-49.5 5q-24 0 -49.5 -4t-50.5 -20t-25 -41q0 -24 21 -45q14 -14 42.5 -33t72.5 -46t69 -44q55 -36 85 -97.5t30 -131.5 q0 -85 -62 -150q-11 -12 -25.5 -24t-24 -19.5t-29.5 -21.5t-27 -19q-14 -14 -21 -41q-4 -26 -8 -78t-6 -71q-2 -25 -24.5 -44.5t-53.5 -19.5q-96 0 -117 82q-3 9 -7.5 29.5t-8.5 32t-16 22.5t-31 14q-112 10 -154 31q-27 13 -40.5 21.5t-25.5 31t-12 56.5z" />
<glyph unicode="%" horiz-adv-x="1509" d="M39 885q0 152 28.5 234.5t87 114.5t164.5 32q166 0 230 -54q94 -76 94 -282q0 -55 -6 -99t-25 -92t-50.5 -80.5t-87.5 -53.5t-132 -21q-174 0 -231 71q-72 90 -72 230zM90 49q0 29 16 45l1014 1108q14 12 43 12q47 0 82 -54.5t35 -104.5q0 -23 -6 -36t-25 -34l-960 -1042 q-13 -15 -43 -15q-35 0 -95.5 41t-60.5 80zM262 936q0 -27 0.5 -43t5 -44.5t12.5 -44.5t25 -29t41 -13q25 0 41.5 13.5t24 40.5t10 53.5t2.5 64.5q0 74 -18.5 113.5t-69.5 39.5q-44 0 -59 -36.5t-15 -114.5zM862 262q0 152 28.5 234.5t87.5 114.5t165 32q166 0 229 -53 q94 -76 94 -283q0 -55 -6 -99t-25 -92t-50.5 -80.5t-87.5 -53.5t-132 -21q-174 0 -231 72q-72 90 -72 229zM1085 313q0 -27 0.5 -43t5 -44.5t12.5 -44.5t25 -29t41 -13q25 0 41.5 13.5t24 40.5t10 53.5t2.5 64.5q0 74 -18.5 114t-69.5 40q-44 0 -59 -37t-15 -115z" />
<glyph unicode="&#x26;" horiz-adv-x="1413" d="M33 309q0 91 21.5 154.5t80.5 126.5q45 47 123 104q27 22 27 45q0 13 -9 27t-29 38t-32 42q-47 66 -47 137q0 73 26 131.5t69 96t102.5 62.5t122.5 35.5t133 10.5q48 0 93 -6t95.5 -24t87.5 -46.5t61.5 -78t24.5 -113.5q0 -124 -68 -189l-114 -114q-15 -15 -15 -33 q0 -17 13 -33q1 -1 11 -11.5t14.5 -14.5t15 -13t18.5 -13.5t18.5 -8t20.5 -3.5q43 0 64 31q18 25 49.5 89t56.5 98q13 18 35 29.5t41 11.5q30 0 73.5 -12t61.5 -34q20 -21 27.5 -50.5t7.5 -82.5q0 -37 -32.5 -92t-64.5 -108.5t-32 -87.5q0 -24 26 -54.5t71.5 -72t68.5 -68.5 q19 -22 25.5 -46.5t6.5 -70.5q0 -61 -10.5 -86.5t-42.5 -40.5q-61 -28 -117 -28q-29 0 -64 24t-62 53.5t-59.5 53.5t-57.5 24t-43 -18q-8 -7 -32 -27t-38 -31t-36 -26.5t-42 -26.5q-38 -20 -67 -32t-92.5 -24.5t-139.5 -12.5q-124 0 -224 46t-161 140t-61 223zM418 352 q0 -60 38 -98.5t99 -38.5q62 0 120 42t58 95q0 32 -18 47l-109 95q-26 20 -53 20q-52 0 -93.5 -53.5t-41.5 -108.5zM473 958q0 -37 32 -68.5t73 -31.5q39 0 70.5 32.5t31.5 72.5q0 36 -27 57.5t-65 21.5q-43 0 -79 -22t-36 -62z" />
<glyph unicode="'" horiz-adv-x="471" d="M49 1264q0 49 26 79.5t79 30.5h182q48 0 69 -26t21 -62t-4 -90l-23 -319q-1 -26 -20 -41t-72 -41q-55 -27 -92 -27q-41 0 -86 34.5t-49 74.5l-27 323q-4 58 -4 64z" />
<glyph unicode="(" horiz-adv-x="964" d="M211 555q0 319 124 608t345 494q46 43 139 43q139 0 139 -111q0 -48 -24.5 -92t-134.5 -201q-124 -179 -183 -360.5t-59 -384.5q0 -184 65.5 -381.5t223.5 -458.5q7 -11 23.5 -36t23 -37.5t13.5 -36.5t7 -52q0 -23 -1.5 -38t-9.5 -35t-22.5 -31.5t-42.5 -20t-67 -8.5 q-4 0 -22.5 -0.5t-23 0t-21 2.5t-23.5 6t-23 11t-27 18t-27.5 26t-33.5 36.5t-37 48.5q-321 439 -321 991z" />
<glyph unicode=")" horiz-adv-x="964" d="M57 -498q0 45 19.5 83t102.5 163l34 51q227 341 227 721q0 195 -67.5 393.5t-235.5 468.5q-4 7 -17 26t-17 26t-12.5 23.5t-11.5 29t-6 31.5t-3 41q0 30 5 48.5t22.5 37t55 26.5t97.5 8q45 0 89 -27.5t112 -117.5q337 -446 337 -983q0 -326 -116 -614.5t-334 -497.5 q-46 -43 -137 -43q-72 0 -108 25t-36 81z" />
<glyph unicode="*" horiz-adv-x="1011" d="M37 915q0 14 11.5 65t21.5 83q6 24 23.5 40.5t41.5 16.5q30 0 62 -24l137 -95q25 -18 45 -18q21 0 27 8t6 31q0 9 -10.5 38t-26 68.5t-21.5 57.5q-6 12 -6 26q0 36 29 59t63 23h123q36 0 67.5 -28.5t31.5 -63.5q0 -25 -23 -85t-23 -83q0 -30 17 -30q12 0 18 6l123 110 q20 13 47 13q47 0 76 -46l51 -86q10 -25 10 -47t-14 -41t-37 -22l-192 -25q-33 -6 -33 -28t33 -35l170 -49q47 -13 47 -60q0 -31 -19 -53l-122 -141q-19 -25 -58 -25q-47 0 -65 37l-82 178q-17 33 -43 33q-29 0 -37 -39l-45 -180q-8 -45 -68 -45q-24 0 -80.5 25t-85.5 44 q-51 32 -51 80q0 13 10 33q15 21 50 48t68 49.5t38 27.5q16 16 16 35q0 13 -10.5 21.5t-28.5 8.5h-219q-26 0 -44.5 23.5t-18.5 60.5z" />
<glyph unicode="+" horiz-adv-x="1230" d="M53 559q0 21 23 139q8 37 22 54t45 18l248 8q24 0 38.5 18t14.5 38v231q0 44 38 72t93 28q33 0 148 -28q45 -13 45 -52l8 -251q2 -15 17 -31t30 -17l256 -8q37 0 61.5 -40.5t24.5 -80.5q0 -41 -28 -137q-18 -52 -72 -55l-213 -6q-62 0 -68 -53l-8 -263 q-1 -37 -40.5 -62.5t-78.5 -25.5q-25 0 -143 31q-20 6 -34.5 25.5t-14.5 42.5l-8 225q0 25 -18 46t-42 21h-241q-38 0 -69 35.5t-34 77.5z" />
<glyph unicode="," horiz-adv-x="579" d="M55 -242q0 38 23.5 143t23.5 148q0 23 -22.5 95.5t-22.5 93.5q0 30 8 49.5t37 62.5q31 45 48 56.5t55 11.5q127 0 185.5 -14.5t74.5 -59.5q29 -86 29 -133q0 -75 -97 -313q-42 -102 -111.5 -182.5t-140.5 -80.5q-43 0 -66.5 37.5t-23.5 85.5z" />
<glyph unicode="-" horiz-adv-x="643" d="M43 637q0 45 33 160q6 24 23.5 39.5t35.5 15.5q218 16 332 16q56 0 93.5 -40t37.5 -95q0 -25 -33 -164q-13 -46 -59 -53q-51 -6 -166 -13t-154 -7q-46 0 -73 13.5t-45 47.5q-25 42 -25 80z" />
<glyph unicode="." horiz-adv-x="544" d="M63 207q0 117 27.5 163t120.5 46q115 0 153 -4.5t58 -22.5q57 -50 57 -153q0 -127 -12.5 -180t-36.5 -79q-31 -34 -92 -34q-101 0 -146.5 10.5t-74.5 40.5q-35 35 -44.5 84t-9.5 129z" />
<glyph unicode="/" horiz-adv-x="1202" d="M-25 -264q0 18 17 49l872 1642q20 39 62 39q24 0 73.5 -16t77.5 -37q24 -16 59 -71.5t35 -84.5q0 -9 -2.5 -18t-4 -13.5t-9 -19t-10.5 -20.5l-807 -1530q-40 -68 -98 -68q-46 0 -100 12.5t-89 34.5q-25 12 -50.5 40t-25.5 61z" />
<glyph unicode="0" horiz-adv-x="1224" d="M72 500q0 249 28 367t107 204q62 66 145 91.5t223 25.5q294 0 412 -96q87 -71 128.5 -206t41.5 -302q0 -175 -32 -294.5t-132 -219.5q-64 -66 -157 -88.5t-220 -22.5q-310 0 -417 129q-70 85 -98.5 184.5t-28.5 227.5zM446 594q0 -34 0.5 -58t4.5 -62.5t10.5 -65.5 t20 -58t32 -50.5t47 -32.5t64.5 -13q41 0 71.5 19t47.5 48.5t26.5 76t12.5 89.5t3 101q0 71 -7.5 122.5t-26 95.5t-55.5 66.5t-91 22.5q-96 0 -128 -72t-32 -229z" />
<glyph unicode="1" horiz-adv-x="925" d="M47 119q0 39 64 137q14 22 45.5 33t59 13.5t49.5 16t22 41.5q0 65 -1 197.5t-1 200.5q0 30 -19.5 40.5t-53.5 12t-46 6.5q-31 10 -49.5 48.5t-18.5 82.5q0 77 13 106.5t59 41.5q84 21 210.5 47t151.5 26q65 0 111.5 -63.5t46.5 -122.5q0 -103 -5 -343t-5 -296 q0 -34 12.5 -50t44.5 -22q45 -7 72.5 -21t38.5 -44q20 -54 20 -92q0 -39 -21 -88t-48 -60q-20 -8 -201 -8q-338 0 -434 14q-47 4 -82 55t-35 91z" />
<glyph unicode="2" horiz-adv-x="1081" d="M61 979q0 17 10.5 48.5t43.5 68t80 43.5q178 32 413 32q88 0 147 -22t128 -84q61 -58 83.5 -107t22.5 -122q0 -79 -26.5 -143t-102.5 -126l-217 -172q-18 -15 -18 -35q0 -11 8.5 -18.5t23.5 -7.5h273q31 0 67.5 -49t36.5 -84q0 -10 -12 -61t-23 -85q-21 -59 -73 -67 q-40 -4 -313.5 -14.5t-374.5 -10.5q-44 0 -79 27.5t-53.5 67.5t-28 78t-9.5 67q0 59 5.5 83.5t30.5 47.5l433 381q26 23 26 59q0 25 -17.5 43.5t-45.5 18.5q-22 0 -163 -15.5t-147 -15.5q-37 0 -47 7q-18 11 -53 81q-19 38 -24 52t-5 34z" />
<glyph unicode="3" horiz-adv-x="1138" d="M45 989q0 45 52.5 97.5t99.5 52.5h618q35 0 95.5 -59.5t60.5 -110.5q0 -18 -23 -117q-4 -25 -43 -57l-139 -111q-18 -13 -18 -39q0 -17 9 -24.5t34 -12.5q132 -18 206 -88.5t74 -185.5q0 -293 -207 -477q-115 -99 -266.5 -155t-300.5 -56q-59 0 -109.5 34.5t-50.5 96.5 q0 63 17 119t55 67q181 55 330 131q69 35 101 73t32 93q0 43 -28 74t-69 31q-50 0 -167 -11.5t-127 -11.5q-47 0 -76 37.5t-29 85.5q0 59 27 82l200 188q15 13 15 33q0 15 -12 24t-31 9h-211q-73 1 -119 188z" />
<glyph unicode="4" horiz-adv-x="1236" d="M39 381q0 22 14 47l391 737q19 36 65 48t126 12q36 0 57 -10t43 -35l39 -45q21 -27 21 -56q0 -24 -29 -84l-246 -456q-12 -21 -12 -41q0 -14 13 -27.5t28 -13.5h72q23 0 37.5 14t17.5 39l20 162q6 30 26.5 47t70.5 39q64 24 86 24q20 0 31.5 -4.5t37.5 -19.5 q40 -26 52 -42t12 -42v-150q0 -28 28.5 -38t71 -12t55.5 -7q31 -12 45.5 -51t14.5 -82q0 -37 -21 -64q-46 -67 -67.5 -82.5t-81.5 -19.5q-41 -3 -58.5 -20t-17.5 -64q0 -94 -8 -119q-13 -40 -68 -67q-9 -4 -20 -9q-58 -26 -90 -26q-31 0 -62 20l-86 49q-39 20 -39 56v118 q0 19 -11.5 36.5t-35.5 17.5h-336q-27 0 -44.5 8t-33.5 31l-90 129q-18 29 -18 53z" />
<glyph unicode="5" horiz-adv-x="1155" d="M57 471q0 23 9 78l59 477q3 25 19.5 41.5t39.5 17.5q140 11 339 22t251 11q50 0 75 -12t56 -49q37 -46 37 -84q0 -12 -4 -34.5t-13 -54.5t-29 -56t-48 -27l-379 -37q-59 -8 -59 -90q0 -41 15 -52.5t52 -11.5q7 0 136 18.5t161 18.5q66 0 112 -19t97 -71q30 -30 55 -98 t25 -158q0 -86 -14.5 -157.5t-57.5 -147.5t-113.5 -135t-190.5 -111t-281 -84q-92 -20 -113 -20q-19 0 -98 45q-56 34 -70 53q-10 13 -10 39q0 7 4 27l31 122q3 16 19 29.5t34 20.5l309 94q30 10 46.5 16t44 20.5t42.5 30.5t27 43t12 60q0 53 -26.5 73.5t-79.5 20.5 t-185.5 -22.5t-150.5 -22.5q-30 0 -53.5 13.5t-53.5 39.5q-57 51 -67.5 67.5t-10.5 55.5z" />
<glyph unicode="6" horiz-adv-x="1185" d="M72 467q0 229 125 422q84 135 190 217q80 62 147.5 89.5t139.5 27.5q127 0 127 -150q0 -25 -5.5 -38t-27.5 -27q-4 -3 -43 -28.5t-68.5 -47.5t-56.5 -52.5t-27 -54.5q0 -28 35 -28q17 0 64 4t84 4q66 0 135.5 -37.5t122 -95t86 -131t33.5 -140.5q0 -131 -70.5 -239 t-186.5 -168t-249 -60t-232 27.5t-173 89t-112 165.5t-38 251zM451 373q0 -65 46.5 -107.5t114.5 -42.5q64 0 113 49.5t49 112.5q0 62 -51.5 104.5t-114.5 42.5q-73 0 -115 -42.5t-42 -116.5z" />
<glyph unicode="7" horiz-adv-x="1081" d="M53 842q0 33 29 88q27 53 48 73t63 23q90 5 249 10.5t267.5 8t119.5 2.5q91 -5 139 -41.5t48 -100.5q0 -61 -25 -137l-352 -924q-7 -18 -21 -30.5t-35.5 -20t-38.5 -11.5t-45.5 -8t-41.5 -7q-25 -7 -62 -7q-45 0 -59 23l-66 90q-20 29 -20 68q0 21 10 41l268 610 q13 38 13 57q0 15 -13.5 27t-33.5 12q-61 0 -167 -14.5t-120 -14.5q-65 0 -88 48l-45 79q-21 40 -21 56z" />
<glyph unicode="8" horiz-adv-x="1222" d="M70 313q0 72 28.5 122t102.5 100q18 9 25 19t7 28q0 20 -20 45q-72 86 -72 219q0 89 40.5 160.5t107 115.5t147.5 67t168 23q79 0 153.5 -13t147 -44.5t125.5 -78.5t86 -120.5t33 -164.5q0 -113 -57 -173q-48 -52 -59 -68t-11 -30q0 -21 35 -61q92 -103 92 -232 q0 -91 -39 -156t-113 -101.5t-169 -53t-220 -16.5q-150 0 -269.5 44.5t-194 140t-74.5 228.5zM459 344q0 -48 29 -79t67 -41.5t86 -10.5q137 0 137 125q0 66 -47 96.5t-119 30.5q-153 0 -153 -121zM461 760q0 -40 25 -65.5t59 -34.5t76 -9q62 0 104.5 26.5t42.5 88.5 q0 41 -26.5 67.5t-60.5 35t-75 8.5q-57 0 -101 -32.5t-44 -84.5z" />
<glyph unicode="9" horiz-adv-x="1261" d="M57 668q0 227 149 350t394 123q81 0 153 -11.5t145 -41.5t125 -76.5t85 -124t33 -176.5q0 -249 -121 -537q-38 -89 -92.5 -190.5t-96.5 -143.5q-67 -67 -157 -67q-40 0 -100 38.5t-78 65.5q-25 32 -25 76q0 33 18 51q11 12 37 40.5t38 42.5l33 38.5t32 40.5t23 36 t17 36.5t5 31.5q0 12 -8 20.5t-21 8.5q-18 0 -83 -13.5t-99 -13.5q-109 0 -205 64.5t-148.5 155.5t-52.5 176zM436 694q0 -59 40.5 -98t111.5 -39q89 0 131.5 40.5t42.5 127.5q0 62 -45.5 95.5t-108.5 33.5q-71 0 -121.5 -45.5t-50.5 -114.5z" />
<glyph unicode=":" horiz-adv-x="647" d="M123 309q0 118 26.5 163.5t120.5 45.5q117 0 153.5 -3.5t57.5 -20.5q56 -56 56 -156q0 -125 -12.5 -178t-35.5 -80q-33 -33 -92 -33q-102 0 -147 10t-74 39q-25 24 -37 61.5t-14 66.5t-2 85zM125 999q0 47 2.5 77t11.5 57.5t25 42.5t42.5 23.5t65.5 8.5q117 0 154.5 -4 t56.5 -22q58 -51 58 -154q0 -126 -12 -178.5t-35 -79.5q-35 -35 -95 -35q-99 0 -145.5 11t-75.5 40q-34 34 -43.5 83t-9.5 130z" />
<glyph unicode=";" horiz-adv-x="647" d="M111 -242q0 38 23.5 143t23.5 148q0 23 -22.5 95.5t-22.5 93.5q0 30 8 49.5t37 62.5q32 46 47.5 57t54.5 11q68 0 166 -10q73 -5 94 -64q29 -86 29 -133q0 -31 -27 -113q-51 -162 -95.5 -241.5t-143.5 -190.5q-26 -31 -82 -31q-43 0 -66.5 37.5t-23.5 85.5zM119 911 q0 118 26.5 163.5t120.5 45.5q117 0 154.5 -4t56.5 -20q58 -51 58 -156q0 -126 -13 -179t-37 -77q-32 -35 -92 -35q-101 0 -146.5 10t-74.5 39q-34 34 -43.5 83t-9.5 130z" />
<glyph unicode="&#x3c;" horiz-adv-x="1230" d="M61 625q0 63 80 143l797 467q18 10 47 10q37 0 75.5 -17t59.5 -46q25 -38 25 -140q0 -62 -29 -79l-549 -306q-22 -13 -22 -36q0 -18 7 -27.5t28 -18.5l505 -247q40 -20 52 -42.5t12 -76.5q0 -66 -25 -98q-75 -95 -127 -95q-9 0 -49 21l-755 381q-36 18 -56 40.5t-49 82.5 q-27 52 -27 84z" />
<glyph unicode="=" horiz-adv-x="1230" d="M51 291q0 24 11 76.5t24 81.5q10 23 24.5 29.5t45.5 8.5q368 11 759 11q130 0 156 -3t53 -24q19 -15 27 -36.5t8 -61.5q0 -65 -24 -135q-20 -52 -70 -52q-431 -22 -909 -22q-41 0 -73 41.5t-32 85.5zM51 842q0 24 11 76t24 81q10 23 24.5 30t45.5 9q369 11 759 11 q130 0 156 -3t53 -24q19 -15 27 -36.5t8 -61.5q0 -66 -24 -136q-19 -50 -70 -53q-457 -20 -909 -20q-41 0 -73 41.5t-32 85.5z" />
<glyph unicode="&#x3e;" horiz-adv-x="1230" d="M45 1055q0 66 25 98q73 92 127 92q13 0 51 -18l753 -383q37 -19 56.5 -40.5t48.5 -80.5q27 -56 27 -84t-15 -58t-27.5 -45t-35.5 -40l-799 -469q-20 -11 -47 -11q-36 0 -75 17.5t-60 48.5q-25 42 -25 137q0 65 31 82l549 305q22 15 22 35q0 17 -7.5 26.5t-29.5 20.5 l-503 248q-40 19 -53 42t-13 77z" />
<glyph unicode="?" horiz-adv-x="819" d="M45 1333q0 29 5 59t16 59.5t31 48t46 18.5q148 0 259.5 -30.5t199.5 -105.5q76 -66 116 -139.5t40 -167.5q0 -214 -150 -346q-85 -70 -127 -162q-18 -47 -55.5 -70.5t-103.5 -23.5q-53 0 -93.5 50t-40.5 110q0 63 39 125l82 135q22 36 28.5 54.5t6.5 47.5q0 60 -31.5 102 t-85.5 60q-16 5 -59.5 18t-65.5 21q-20 8 -32 23t-17 36t-6.5 37t-1.5 41zM141 174q0 96 37 141q17 20 42 25.5t75 5.5q110 0 150 -5t61 -26q51 -45 51 -118v-117q0 -59 -33 -98t-80 -39h-141q-53 0 -103 36.5t-57 90.5q-2 31 -2 104z" />
<glyph unicode="@" horiz-adv-x="1615" d="M47 250q0 191 53.5 349t152.5 270t245.5 173.5t326.5 61.5q114 0 217.5 -21t199 -68.5t165 -117.5t111 -176.5t41.5 -237.5q0 -35 -3.5 -73t-13.5 -85t-25.5 -89t-41.5 -83t-59 -71t-80.5 -48t-104.5 -18q-58 0 -121 31q-58 23 -96 23q-11 0 -86.5 -27t-118.5 -27 q-66 0 -124 45.5t-90 113t-32 134.5q0 78 46.5 165t123.5 120q110 45 234 45q52 0 94 -30.5t51 -82.5l37 -225q3 -25 17.5 -42t37.5 -17q29 0 50 26t32 60q21 47 21 139q0 98 -36 171.5t-100 117t-145.5 65t-179.5 21.5q-148 0 -265.5 -77t-179 -199.5t-61.5 -264.5 q0 -93 18.5 -156.5t61.5 -134.5q20 -32 43 -58.5t40.5 -44.5t48 -35t45.5 -25.5t54 -21t51.5 -16t60.5 -15.5q4 -1 6.5 -1.5t6 -1.5t6.5 -2q42 -11 64 -56t22 -83q0 -26 -32 -78q-29 -48 -55.5 -73t-65.5 -25q-133 0 -263.5 61.5t-234.5 194.5q-88 109 -129 234.5t-41 285.5 zM799 328q0 -36 17 -68.5t58 -32.5q74 0 74 80q0 117 -69 117q-40 0 -60 -27t-20 -69z" />
<glyph unicode="A" horiz-adv-x="1304" d="M49 258l287 913q7 23 27.5 39.5t46.5 22.5q445 76 481 76q54 0 67 -43l314 -1092q10 -31 10 -55q0 -53 -53 -104.5t-109 -51.5q-32 0 -172 19q-56 6 -74 63l-59 180q-16 47 -44 58.5t-103 11.5q-74 0 -98 -2t-38 -10q-25 -11 -28 -35l-41 -182q-9 -36 -58.5 -46 t-191.5 -10q-78 0 -98 47l-58 131q-12 23 -12 45q0 13 4 25zM557 659q0 -22 7.5 -35.5t23 -19t28.5 -7t35 -1.5q69 0 97 14q23 11 23 43q0 7 -1 15q-2 31 -35 161q-13 35 -57 35q-83 0 -100 -78q-21 -90 -21 -127z" />
<glyph unicode="B" horiz-adv-x="1275" d="M70 78q0 92 15 457.5t28 599.5q3 39 23.5 59t60.5 25q340 36 555 49q29 2 77 2q164 0 267.5 -86.5t103.5 -239.5q0 -100 -18 -174q-12 -44 -76 -115q-19 -20 -35 -36t-22.5 -20.5t-11 -10.5t-5 -10t-0.5 -15q0 -9 13 -26t36 -42.5t33 -37.5q35 -45 49.5 -91t14.5 -130 q0 -139 -86.5 -226.5t-231.5 -93.5q-340 -12 -622 -12q-36 0 -102 65t-66 109zM473 356q0 -58 16 -82t72 -24q126 0 182 25t56 94q0 51 -32 78.5t-81 27.5q-156 0 -178 -16q-20 -13 -26.5 -33t-8.5 -70zM473 817q0 -37 1.5 -58t9 -39.5t17 -27t31 -14.5t46 -7t67.5 -1 q90 0 127 28t37 90q0 117 -141 117q-49 0 -71 -0.5t-52 -5t-42 -13.5t-21 -26t-9 -43z" />
<glyph unicode="C" horiz-adv-x="1097" d="M57 623q0 92 11.5 167t40 153t85.5 144.5t140 118.5q79 52 218.5 86.5t266.5 34.5q52 0 71 -9.5t48 -51.5q59 -87 59 -148q0 -26 -18 -114q-13 -50 -64 -56q-20 -3 -112.5 -9t-114.5 -9q-106 -11 -162.5 -82t-56.5 -195q0 -142 75 -225.5t222 -83.5q22 0 68.5 4t70.5 4 q23 0 45 -14.5t29 -38.5q37 -126 37 -154t-6 -47.5t-31 -68.5q-28 -51 -43 -68t-37 -20q-74 -13 -190 -13q-365 0 -543 297q-109 185 -109 398z" />
<glyph unicode="D" horiz-adv-x="1298" d="M78 172q0 100 8.5 492t13.5 495q0 29 19.5 49t50.5 25q407 47 645 47q175 0 289 -123q55 -61 88.5 -151t43 -158t9.5 -133q0 -130 -37 -247t-120.5 -218t-206.5 -158q-63 -28 -222 -76t-286 -79q-43 -11 -60 -11q-65 0 -131 66q-65 65 -84.5 98t-19.5 82zM482 846 q0 -60 4.5 -206t7.5 -177q6 -47 61 -47q133 0 202.5 83t69.5 244q0 60 -13 99t-39 56t-51.5 22.5t-64.5 5.5q-107 0 -142 -15.5t-35 -64.5z" />
<glyph unicode="E" horiz-adv-x="1112" d="M59 92q0 60 8 247.5t20 449.5t17 399q0 19 16.5 35.5t37.5 17.5q41 3 176 13.5t211.5 15.5t179 10.5t166.5 5.5q49 0 68 -14.5t67 -83.5q14 -22 14 -43q0 -32 -45 -164q-11 -30 -29 -45t-51 -18l-364 -29q-34 -3 -45.5 -18.5t-11.5 -49.5q0 -41 11.5 -60t41.5 -22 q54 -5 199.5 -8t168.5 -4q47 -1 71 -32t24 -74q0 -14 -15 -64q-11 -32 -31.5 -44t-56.5 -15q-60 -4 -187.5 -11.5t-150.5 -9.5q-34 -3 -47.5 -22.5t-13.5 -63.5q0 -50 19.5 -68t62.5 -18q61 0 181 7t179 7q71 0 84 -34q29 -82 29 -150q0 -31 -7.5 -51t-37.5 -61 q-35 -49 -57.5 -63.5t-61.5 -16.5q-165 -13 -635 -13q-42 0 -123.5 60t-81.5 102z" />
<glyph unicode="F" horiz-adv-x="1075" d="M57 90q0 509 41 1124q3 56 66 62q577 41 682 41q39 0 61.5 -13.5t69.5 -70.5q29 -36 36 -56.5t7 -60.5q0 -97 -18.5 -139t-65.5 -51q-21 -5 -78.5 -9t-108 -6t-127.5 -4.5t-94 -3.5q-73 -4 -73 -119q0 -26 11.5 -49.5t35.5 -23.5h391q43 0 74.5 -33.5t31.5 -67.5 q0 -36 -16 -91q-28 -99 -88 -101q-163 -10 -332 -10q-21 0 -35 -13t-14 -37v-301q0 -31 -23 -47.5t-94 -40.5q-60 -22 -102 -22q-30 0 -135 47q-57 25 -80 44.5t-23 51.5z" />
<glyph unicode="G" horiz-adv-x="1284" d="M37 651q0 154 62.5 279t168 204t241 121.5t286.5 42.5q101 0 139.5 -8t64.5 -35l80 -88q25 -28 25 -59q0 -17 -14 -45l-48 -84q-22 -39 -50 -49t-99 -10q-21 0 -58 1t-53 1q-350 0 -350 -324q0 -129 66.5 -205t183.5 -76q80 0 116 29.5t36 108.5q0 29 -21 49t-47 29 t-47 28t-21 47q0 24 19 76q15 43 42.5 63.5t84.5 20.5q16 0 309 -23q33 -4 43 -24.5t10 -56.5q0 -58 -15 -257t-32 -337q-3 -21 -24.5 -39t-59.5 -27q-221 -61 -399 -61q-184 0 -325 74t-222 206q-56 78 -74 182.5t-18 245.5z" />
<glyph unicode="H" horiz-adv-x="1280" d="M72 1133q0 36 18 56t82 48q74 32 105.5 39.5t70.5 7.5q141 0 141 -80v-362q0 -29 21 -46.5t49 -19.5q117 -6 154 -6q88 0 88 76v315q0 36 22 51.5t99 32.5q65 12 102 12q42 0 131 -34q57 -23 57 -95q0 -80 -21 -497.5t-30 -542.5q-3 -63 -63 -82q-103 -35 -156 -35 q-51 0 -96.5 17t-48.5 57l-21 375q-3 36 -24 51q-17 13 -61 19t-156 6q-22 0 -34 -15t-12 -35q0 -158 -6 -331q-1 -31 -21 -48t-75 -40q-62 -23 -90 -23q-27 0 -47 10q-25 9 -103 54q-46 26 -49 73q-8 92 -17 483.5t-9 508.5z" />
<glyph unicode="I" horiz-adv-x="628" d="M96 172q0 164 8.5 531t14.5 452q1 44 26.5 65t96.5 40q81 22 104 22q31 0 47.5 -9.5t57.5 -45.5q38 -35 52 -60t17 -71q25 -527 25 -979q0 -30 -15 -47.5t-86 -67.5q-65 -45 -96 -45q-19 0 -44 12t-95 58q-77 53 -95 75t-18 70z" />
<glyph unicode="J" horiz-adv-x="729" d="M-152 -383q0 44 19 113q16 45 61 61q22 9 65.5 22.5t65.5 22.5q101 37 101 111q0 179 -8.5 579t-8.5 645q0 46 20.5 64.5t100.5 52.5q60 26 86 33.5t58 7.5q40 0 100 -26q73 -29 90.5 -48.5t17.5 -72.5q0 -2 -10 -591.5t-10 -760.5q0 -54 -16.5 -96t-73.5 -123 q-73 -107 -195 -119q-278 -29 -348 -29q-59 0 -96 72q-19 47 -19 82z" />
<glyph unicode="K" horiz-adv-x="1249" d="M45 168q0 194 84 1030q3 34 28.5 49.5t96.5 24.5q82 10 113 10q62 0 118 -37t56 -96q0 -39 -7.5 -118.5t-7.5 -119.5q0 -65 41 -65q33 0 54 37q167 304 223 403q21 31 80 31q1 0 26.5 -2t74 -8.5t108.5 -16.5q28 -5 64 -47t36 -80q0 -21 -19 -55q-17 -31 -96.5 -171 t-118.5 -214q-14 -29 -14 -51q0 -23 14 -60q19 -49 96 -230.5t111 -275.5q15 -41 15 -59q0 -24 -19 -42.5t-72 -51.5q-62 -39 -106 -39q-64 0 -123 10q-81 13 -110 21q-21 6 -37 24t-21 37q-16 51 -56.5 194.5t-64.5 217.5q-12 41 -53 41q-17 0 -32 -11t-15 -30 q0 -34 3 -162t3 -145q0 -32 -27 -53.5t-118 -61.5q-102 -47 -146 -47q-22 0 -55 23.5t-59 52.5q-1 1 -7.5 8.5t-9 10.5t-9.5 12t-10.5 14.5t-9.5 15.5t-9 18.5t-6.5 19t-5 21.5t-1.5 23z" />
<glyph unicode="L" horiz-adv-x="1097" d="M63 186q0 116 15.5 514t21.5 482q0 21 13 39.5t34 27.5q3 1 22.5 10.5t26.5 12.5t22.5 8.5t27.5 7.5t24 2q36 0 158 -45q19 -6 36 -28t17 -58q0 -68 -17.5 -372t-17.5 -334q0 -80 56 -80q15 0 198 2t232 2q37 0 59.5 -20.5t42.5 -75.5q19 -46 19 -68q0 -20 -62 -180 q-8 -20 -28.5 -36.5t-53.5 -16.5q-342 0 -702 28q-71 6 -107.5 53t-36.5 125z" />
<glyph unicode="M" horiz-adv-x="1505" d="M51 166q0 43 30 432.5t50 564.5q3 44 49 60q64 24 123 37q104 24 127 24q36 0 90 -14q57 -15 81 -32.5t34 -53.5q17 -60 50.5 -206t47.5 -190q2 -9 10 -16.5t17 -7.5t17.5 7.5t10.5 16.5q16 53 48.5 187t52.5 190q14 41 40.5 55.5t102.5 30.5q100 19 119 19q49 0 117 -31 q61 -26 83 -48t27 -61q21 -152 54.5 -534t33.5 -516q0 -33 -16 -49t-78 -47q-71 -35 -115 -35q-15 0 -63 10q-54 11 -75.5 29.5t-22.5 58.5q-4 47 -10.5 269t-10.5 266q-3 23 -7.5 31t-14.5 8q-18 0 -27 -29q-20 -73 -66.5 -269.5t-74.5 -289.5q-9 -34 -37 -46t-82 -12 q-39 0 -62.5 12t-33.5 46q-29 92 -89 312t-77 271q-9 27 -29 27q-19 0 -22 -27q-1 -14 -10 -240.5t-17 -324.5q-2 -23 -17 -40t-37.5 -25t-43.5 -11.5t-41 -3.5q-25 0 -53 12.5t-78 47.5q-66 45 -85.5 69.5t-19.5 65.5z" />
<glyph unicode="N" horiz-adv-x="1245" d="M72 141q0 88 30 955q2 35 28 57.5t103 52.5q74 29 101 29q44 0 90 -64l301 -438q28 -28 33 -31q8 -6 20 -6q16 0 28.5 10.5t12.5 26.5q0 231 8 387q2 26 21 41.5t82 40.5q69 27 90 27q24 0 38.5 -8t39.5 -33q30 -28 40.5 -46.5t10.5 -39.5q6 -94 6 -1118q0 -19 -12.5 -34 t-24 -21t-37.5 -17q-69 -25 -102 -25q-37 0 -97 19.5t-81 48.5q-43 59 -89.5 130.5t-104 163t-87.5 138.5q-17 27 -45 27q-22 0 -34.5 -16t-12.5 -42q0 -41 1 -117t1 -106q0 -42 -24 -60t-95 -36q-69 -14 -94 -14t-41.5 6t-48.5 28q-55 41 -55 84z" />
<glyph unicode="O" d="M47 535q-6 55 -6 108q-1 107 23 202q34 142 111 241.5t195 155.5t263 56q604 0 604 -657q0 -725 -614 -725q-129 0 -234 49t-175 135t-112 196t-55 239zM428 635q0 -49 13 -99.5t38.5 -95.5t70.5 -73.5t101 -28.5q50 0 90 28.5t64 73t36.5 93.5t12.5 96q0 71 -20.5 135.5 t-69 111t-115.5 46.5q-56 0 -100 -24.5t-69.5 -66.5t-38.5 -91.5t-13 -104.5z" />
<glyph unicode="P" horiz-adv-x="1243" d="M41 117q0 97 23 485.5t30 552.5q3 60 49 66q59 5 327 42t318 37q170 0 295 -122q119 -122 119 -328q0 -411 -235 -473q-31 -9 -91.5 -18.5t-160.5 -23t-137 -18.5q-36 -4 -49 -18.5t-13 -46.5q0 -20 4 -91.5t4 -86.5q0 -56 -47 -72q-53 -19 -148 -41t-124 -22 q-44 0 -102.5 50t-61.5 128zM473 905q0 -174 10 -233q4 -24 21 -37.5t41 -13.5q21 0 95.5 11t96.5 21q74 40 74 148q0 157 -168 157q-85 0 -127.5 -11.5t-42.5 -41.5z" />
<glyph unicode="Q" horiz-adv-x="1298" d="M47 604q0 338 169 514t460 176q186 0 319.5 -84.5t199 -229.5t65.5 -337q0 -74 -17.5 -159t-42.5 -138q-20 -42 -44.5 -72.5t-38 -44.5t-13.5 -26q0 -35 12 -53q67 -106 178 -205q34 -29 43 -53.5t9 -86.5q0 -47 -16 -71t-79 -68q-36 -25 -56 -32t-44 -7q-90 0 -139 37 q-40 32 -86.5 93t-118.5 171q-21 31 -59 31q-10 0 -62.5 -8t-77.5 -8q-129 0 -229 39.5t-161.5 103.5t-101 152.5t-54.5 177.5t-15 188zM389 596q0 -57 18.5 -119.5t56 -110t83.5 -47.5q18 0 27.5 5.5t11.5 12.5t2 19q0 10 -3 35t-3 43q0 38 55.5 68t81.5 30q36 0 55 -10.5 t43 -38.5q1 -1 5 -5.5t5 -5.5t4 -4.5t4.5 -4.5t4 -3.5t4.5 -3t4.5 -1.5t4.5 -1.5t5 -0.5q26 0 40.5 40.5t14.5 86.5q0 53 -6.5 99t-23.5 92.5t-44.5 79t-72.5 53t-104 20.5q-77 0 -132 -27t-85 -75.5t-43 -103.5t-13 -122z" />
<glyph unicode="R" horiz-adv-x="1275" d="M53 188q0 97 34.5 465t55.5 551q1 22 20.5 38.5t43.5 19.5q30 3 148.5 14.5t195 16.5t151.5 5q197 0 310 -69q86 -52 137 -135.5t51 -178.5q0 -152 -113 -278q-41 -46 -53 -64.5t-12 -40.5q0 -33 43 -139q60 -142 133 -260q16 -23 16 -61q0 -15 -12.5 -33t-64.5 -70 q-63 -63 -93.5 -75.5t-121.5 -12.5q-40 0 -62.5 4.5t-45 22.5t-39 53t-34.5 96q-16 52 -39.5 173.5t-39.5 179.5q-9 41 -60 41q-57 0 -83.5 -22t-26.5 -73q0 -38 6 -115t6 -118q0 -26 -12.5 -48t-34.5 -28q-55 -13 -142 -26t-120 -13q-35 0 -53 12.5t-52 59.5 q-37 51 -37 108zM487 836q0 -74 12.5 -97.5t57.5 -23.5q21 0 87 7t83 11q34 7 53 36.5t19 66.5q0 51 -35 75q-23 15 -60 19t-153 4q-28 0 -43.5 -18t-18 -36t-2.5 -44z" />
<glyph unicode="S" horiz-adv-x="919" d="M6 -197q0 81 27 150q13 30 52.5 44t98.5 24.5t90 23.5q47 19 76 61.5t29 92.5q0 55 -51 170q-24 56 -90 194.5t-93 200.5q-28 62 -40.5 112t-12.5 117q0 99 51.5 187t141.5 143q59 36 145.5 54t167.5 18q70 0 137 -13q30 -7 62 -62.5t32 -90.5q0 -32 -11.5 -84.5 t-26.5 -61.5q-22 -16 -51 -21.5t-65 -7.5t-52 -5q-58 -13 -83.5 -35t-25.5 -66q0 -61 70 -174q120 -192 180 -348q47 -126 47 -287q0 -112 -48 -211.5t-140 -171.5q-141 -114 -377 -114q-47 0 -129 8q-49 8 -66 37q-45 87 -45 116z" />
<glyph unicode="T" horiz-adv-x="1208" d="M41 1085q0 14 5 29t10 24.5t16 27t14 22.5q31 54 88 57q479 19 791 19q40 0 63.5 -8t38.5 -22t45 -52q33 -39 42 -60.5t9 -56.5q0 -37 -20 -107q-20 -74 -36.5 -98t-51.5 -24q-27 0 -97.5 2t-93.5 2q-38 0 -52.5 -22t-14.5 -68q0 -94 7 -315.5t7 -368.5q0 -26 -18 -39.5 t-86 -38.5q-91 -33 -129 -33q-18 0 -36.5 7.5t-62.5 33.5q-48 30 -65 50t-17 50q0 100 10.5 368.5t10.5 285.5q0 45 -19.5 62t-72.5 17q-22 0 -69 -3t-71 -3q-65 0 -80 41q-12 33 -32 103q-33 106 -33 118z" />
<glyph unicode="U" horiz-adv-x="1329" d="M61 260q0 197 7.5 483t13.5 385q3 36 13 54t40 34.5t98 38.5q70 21 101 21t74 -14q64 -21 83 -39.5t19 -67.5q0 -73 -1 -380.5t-1 -395.5q0 -56 35 -77t112 -21q50 0 90.5 7.5t70.5 28t30 52.5q0 120 -8.5 367.5t-8.5 379.5q0 42 11 64.5t49 52.5q35 26 56.5 34.5 t49.5 8.5q12 0 24 -2t20.5 -4.5t30 -9t38.5 -11.5q69 -22 92 -39.5t23 -58.5q15 -442 26 -993q0 -64 -9.5 -89.5t-49.5 -58.5q-61 -50 -115 -61q-54 -9 -288.5 -23t-362.5 -14q-65 0 -109.5 19t-124.5 87q-64 54 -90 87.5t-32.5 62.5t-6.5 92z" />
<glyph unicode="V" horiz-adv-x="1310" d="M55 1094q0 28 22 48.5t97 55.5q66 31 89 39t52 8q51 0 104.5 -16t61.5 -51q24 -91 46 -196t46.5 -233.5t36.5 -185.5q8 -41 41 -41q17 0 27.5 9t19.5 32q113 304 209 598q9 27 24 44t39 24t43 8.5t52 1.5q37 0 59.5 -11t61.5 -50q47 -47 59 -69t12 -50q-4 -32 -12 -53 q-45 -107 -125.5 -300.5t-147.5 -353.5t-128 -297q-9 -23 -32.5 -36t-78.5 -27q-69 -19 -106 -19q-42 0 -107 21q-75 24 -97 42.5t-40 69.5q-212 609 -305 900q-2 6 -7 19.5t-8 22.5t-5.5 22t-2.5 24z" />
<glyph unicode="W" horiz-adv-x="1751" d="M57 1118q0 33 22 52t105 57q89 41 129 41q38 0 91.5 -39.5t56.5 -77.5q7 -78 23.5 -302t27.5 -333q2 -14 10 -24.5t21 -10.5q24 0 35 33q1 2 57.5 255t85.5 368q5 21 20.5 37.5t36.5 19.5q48 10 203 10q72 0 86 -59q30 -120 83.5 -362.5t59.5 -266.5q2 -12 10.5 -21.5 t24.5 -9.5q14 0 22.5 11t8.5 26q18 147 53 627q3 45 26.5 63.5t102.5 42.5q54 13 88 13q30 0 49.5 -11t51.5 -43q41 -39 52 -59.5t11 -62.5q0 -40 -8 -84q-63 -401 -172 -940q-7 -41 -25 -58t-80 -45q-59 -24 -120 -24q-52 0 -127 20q-96 25 -125 40t-35 44 q-37 169 -105 428q-9 31 -34 31q-28 0 -37 -33q-7 -32 -37.5 -169.5t-48.5 -211.5q-8 -34 -23 -55t-57 -53q-36 -30 -61 -41t-58 -11q-39 0 -154 23q-95 17 -131.5 35.5t-42.5 50.5q-47 240 -109.5 637t-62.5 442z" />
<glyph unicode="X" horiz-adv-x="1331" d="M47 72q0 20 16 57q36 71 78.5 148.5t103 185t85.5 151.5q10 15 10 37q0 17 -10 37q-30 56 -104.5 183.5t-102.5 181.5q-12 22 -12 55q0 41 22.5 67.5t83.5 55.5q58 26 90 26q41 0 105 -26q54 -22 75.5 -39t36.5 -51q16 -35 35 -80t42.5 -102t35.5 -87q4 -13 16.5 -21.5 t26.5 -8.5q30 0 49 32q35 61 89 176.5t65 137.5q18 37 64.5 51t123.5 14q44 0 60.5 -4.5t52.5 -25.5q37 -23 49 -43.5t12 -59.5q0 -29 -8 -50.5t-29 -55.5q-128 -200 -204 -330q-11 -22 -11 -35q0 -18 17 -49q41 -73 135 -231.5t129 -218.5q20 -39 20 -99q0 -27 -17 -45 t-60 -37q-62 -26 -113 -26q-21 0 -111 12q-72 10 -99.5 26.5t-47.5 55.5q-21 43 -68.5 146.5t-75.5 158.5q-18 35 -47 35q-27 0 -45 -33q-12 -27 -38.5 -92.5t-50 -119t-46.5 -97.5q-4 -9 -10.5 -17.5t-17 -16.5t-17 -13t-20.5 -13.5t-19 -11.5t-18.5 -10.5l-22.5 -12.5 t-22 -9.5t-23 -4.5q-36 0 -127 35q-83 31 -107 49t-24 62z" />
<glyph unicode="Y" horiz-adv-x="1312" d="M80 451q0 95 8.5 365.5t11.5 313.5q2 20 13.5 38.5t29.5 25.5q49 22 95 37q92 31 120 31q20 0 82 -25q52 -23 69 -45t17 -74q0 -101 -10 -314.5t-10 -258.5q0 -82 90 -82q162 0 205 20q43 21 43 66q0 97 -1 292t-1 251q0 57 20 81.5t84 51.5q70 32 103 32q30 0 92 -22 q62 -24 81 -46.5t19 -76.5q0 -86 -15.5 -641t-23.5 -645q-3 -30 -26 -66.5t-84 -101.5q-83 -90 -121 -117.5t-94 -36.5q-213 -34 -371 -34q-45 0 -66.5 14t-64.5 65q-42 52 -52 70.5t-10 54.5q0 19 15 78q15 77 75 86q57 10 121.5 20t92 14.5t53.5 10.5t41 13q60 29 85 61 t25 90q0 48 -17.5 67t-62.5 19q-29 0 -187 -17.5t-183 -17.5q-53 0 -93.5 25t-103.5 106q-61 76 -77.5 115.5t-16.5 106.5z" />
<glyph unicode="Z" horiz-adv-x="1187" d="M43 1063q0 3 2.5 17t10 38.5t18.5 46.5t30 39t43 19q173 8 432.5 16t344.5 8q80 0 108 -24q66 -61 66 -164q0 -40 -35 -90q-56 -75 -199 -277t-180 -252q-22 -28 -22 -47q0 -43 53 -43q52 0 146.5 9.5t139.5 9.5q48 0 68.5 -15t38.5 -59q31 -65 31 -98q0 -37 -19 -99 q-2 -7 -8.5 -28.5t-9 -27t-8 -20t-10.5 -19.5l-12.5 -12.5t-17.5 -10t-22 -3.5q-640 -34 -801 -34q-49 0 -90.5 45t-61.5 102.5t-20 106.5q0 50 23 82q72 92 226.5 278.5t213.5 259.5q17 23 17 45q0 13 -12 25t-33 12q-35 0 -162.5 -9t-157.5 -9q-44 0 -63 16.5t-41 73.5 q-27 69 -27 92z" />
<glyph unicode="[" horiz-adv-x="964" d="M211 -475q0 366 27 2054q0 45 37 78t79 35q94 6 471 6q45 0 70 -17q21 -16 47.5 -64t26.5 -75q0 -32 -31 -92q-21 -45 -38.5 -63.5t-47.5 -18.5q-40 0 -116.5 2t-110.5 2t-57 -27.5t-23 -56.5q-10 -491 -10 -1345q0 -81 20 -107t68 -26h157q33 0 52.5 -15.5t41.5 -56.5 q21 -37 26 -51.5t5 -34.5q0 -36 -41 -129q-44 -101 -92 -101q-76 0 -229 3.5t-189 3.5q-43 0 -93 29t-50 67z" />
<glyph unicode="\" horiz-adv-x="1202" d="M-25 1257q0 29 35.5 84t59.5 72q28 21 77.5 37t73.5 16q43 0 60 -39l874 -1642q16 -29 16 -49q0 -32 -25 -60t-50 -41q-36 -22 -90 -34.5t-101 -12.5q-56 0 -96 68l-807 1530q-2 3 -7 12.5t-6.5 12t-4.5 9t-4 9.5t-2.5 8.5t-2 10t-0.5 9.5z" />
<glyph unicode="]" horiz-adv-x="964" d="M20 1542q0 27 26.5 75t47.5 64q26 17 70 17q377 0 469 -6q43 -2 80.5 -35t38.5 -78q26 -1625 26 -2054q0 -38 -50 -67t-93 -29q-37 0 -190 -3.5t-228 -3.5q-48 0 -92 101q-41 93 -41 129q0 20 5 34.5t24 51.5q24 41 43.5 56.5t50.5 15.5h158q49 0 68.5 25.5t19.5 107.5 q0 805 -11 1345q0 30 -21.5 57t-55.5 27t-111 -2t-117 -2q-30 0 -48 18t-40 64q-29 64 -29 92z" />
<glyph unicode="^" horiz-adv-x="1105" d="M61 604q0 14 19 53q11 21 117.5 221t162.5 310q16 28 86 65q45 24 65.5 30.5t41.5 6.5q28 0 73.5 -24.5t69.5 -63.5l330 -549q16 -26 16 -41q-2 -39 -28 -108q-16 -40 -55.5 -53t-96.5 -13q-48 0 -69.5 8t-34.5 31l-174 307q-12 27 -39 27t-45 -35q-81 -158 -129 -270 q-23 -55 -117 -55q-80 0 -135 55q-58 58 -58 98z" />
<glyph unicode="_" horiz-adv-x="1286" d="M27 -281q0 24 10 76t22 80q11 23 25.5 30t46.5 9q335 10 879 10q125 0 154.5 -3.5t54.5 -22.5q19 -14 27.5 -35.5t8.5 -63.5q0 -60 -26 -133q-19 -53 -70 -53q-450 -23 -1028 -23q-42 0 -73 41.5t-31 87.5z" />
<glyph unicode="`" horiz-adv-x="630" d="M41 1423q0 86 42.5 118t123.5 32q45 0 78 -27q144 -110 247 -213q19 -19 19 -69q0 -51 -36 -93.5t-79 -42.5q-30 0 -59 19q-140 101 -297 196q-39 24 -39 80z" />
<glyph unicode="a" horiz-adv-x="1064" d="M49 281q0 100 47 177.5t140 98.5q35 8 94.5 12.5t149.5 8.5t126 6q19 1 32 18t13 35q0 28 -14 46.5t-39 18.5q-36 0 -195 -4t-200 -4q-32 0 -64.5 56t-32.5 92t35.5 95.5t71.5 63.5q400 31 530 31q55 0 132 -54.5t83 -113.5q16 -164 35 -442t19 -332q0 -115 -99 -125 q-66 -8 -200 -15t-219 -7q-83 0 -142.5 6.5t-120 27t-98 57t-61 98.5t-23.5 149zM399 315q0 -48 32.5 -65t111.5 -17q108 0 108 76q0 84 -63 84h-105q-36 0 -60 -20t-24 -58z" />
<glyph unicode="b" horiz-adv-x="1095" d="M61 92q0 168 15.5 595.5t23.5 494.5q4 57 82 82q66 20 97 20q3 0 20.5 -4t45 -13.5t53.5 -22.5t44.5 -34t18.5 -45q0 -23 -1 -72t-1 -73q0 -21 21 -32t44 -11q15 0 77.5 5t111.5 5q155 0 235 -114t80 -330q0 -51 -3 -100.5t-13 -111t-25.5 -114t-42.5 -104t-63 -87.5 t-88.5 -58.5t-116.5 -22.5q-72 0 -285 20t-266 29q-38 8 -51 33t-13 65zM418 395q0 -70 22.5 -97.5t104.5 -27.5q79 0 110 54q39 69 39 157q0 86 -36 138.5t-115 52.5q-110 0 -117 -68q-8 -66 -8 -209z" />
<glyph unicode="c" horiz-adv-x="999" d="M66 475q0 91 15 167.5t54 151t101 126t163 83t232 31.5q54 0 147 -12q30 -6 45 -18t35 -43q31 -47 31 -87q0 -36 -53 -104q-32 -40 -50 -53.5t-43 -14.5q-12 -1 -49 -1.5t-71.5 -2t-55.5 -4.5q-68 -7 -103.5 -62t-35.5 -136q0 -36 9 -69t29 -63t57.5 -47.5t88.5 -17.5 q15 0 74 3t82 3q33 0 55.5 -13t59.5 -56q37 -44 47 -70t10 -66q0 -41 -13 -65.5t-55 -61.5q-44 -40 -83.5 -48.5t-159.5 -8.5q-115 0 -214.5 34t-178.5 100.5t-124.5 175.5t-45.5 249z" />
<glyph unicode="d" horiz-adv-x="1105" d="M57 506q0 68 9 130.5t34 129t64.5 115t106 79.5t153.5 31q24 0 74 -6t90 -6q16 0 23 1t17.5 5.5t14.5 17.5t4 35q0 26 -2 70.5t-2 56.5q0 45 23.5 65t99.5 44q77 24 96 24q48 0 105 -41t57 -83q0 -761 -6 -1092q0 -19 -16 -40.5t-37 -27.5q-62 -20 -252.5 -41.5 t-268.5 -21.5q-116 0 -206 79t-135.5 204.5t-45.5 271.5zM406 475q0 -96 32 -141q22 -32 57.5 -42.5t118.5 -10.5q45 0 62.5 33t17.5 128q0 113 -7.5 163t-27 68.5t-63.5 18.5h-51q-73 0 -106 -53t-33 -164z" />
<glyph unicode="e" horiz-adv-x="1054" d="M57 498q0 81 17.5 155.5t58 144t100 120.5t149 81.5t200.5 30.5q110 0 185.5 -20t131 -68t81.5 -130t26 -204q0 -101 -26 -146.5t-85 -45.5q-66 0 -204 6t-220 6q-63 0 -63 -51q0 -35 18.5 -61.5t58.5 -32.5q14 -2 172.5 -19t216.5 -26q41 -6 62.5 -33.5t21.5 -63.5 q0 -38 -13.5 -76.5t-26 -58.5t-35.5 -53q-14 -21 -40.5 -28t-74.5 -7q-50 0 -128 8.5t-178 27t-189 57t-130 89.5q-50 62 -68 150.5t-18 247.5zM422 655q0 -51 23.5 -66.5t89.5 -15.5q79 0 105 18t26 64q0 49 -31.5 83t-81.5 34q-60 0 -95.5 -32t-35.5 -85z" />
<glyph unicode="f" horiz-adv-x="1009" d="M27 870q0 31 43 107q17 34 40 43.5t101 13.5q47 4 63.5 18.5t16.5 51.5q0 14 -3 50t-3 48q0 104 57 179.5t160 107.5q103 31 301 31q35 0 53.5 -13t38.5 -55q35 -66 35 -113q0 -23 -23 -63q-22 -36 -43.5 -46.5t-91.5 -19.5q-50 -7 -69 -31t-19 -75q0 -38 11.5 -55 t39.5 -17h148q45 0 70.5 -46t25.5 -99q0 -43 -41 -119q-26 -49 -74 -49q-18 0 -72.5 1t-62.5 1q-30 0 -39.5 -27t-9.5 -73q0 -20 9 -257.5t9 -283.5q0 -29 -18.5 -51.5t-93.5 -77.5q-60 -43 -82 -55.5t-43 -12.5q-8 0 -16 1.5t-19.5 5.5t-18 6.5t-24.5 10.5t-25 11 q-61 26 -78.5 43t-17.5 57q0 102 4 314.5t4 329.5q0 26 -16.5 38.5t-56.5 12.5q-72 0 -97.5 7.5t-38.5 33.5q-34 74 -34 116z" />
<glyph unicode="g" horiz-adv-x="1163" d="M63 492q0 119 21.5 212t85.5 177q101 133 254 133q110 0 577 -35q32 -3 50 -24.5t20 -53.5q3 -71 7.5 -465t4.5 -567q0 -41 -20 -81.5t-82 -131.5q-110 -158 -199 -168q-198 -18 -501 -18q-37 0 -62 9.5t-51 39.5q-21 24 -35 57.5t-14 58.5q0 58 13.5 100t41.5 46 q52 6 222.5 23t193.5 20q44 4 71 46t27 89q0 76 -61 76q-33 0 -109 -7.5t-117 -7.5q-95 0 -186 68q-87 61 -119.5 163t-32.5 241zM434 506q0 -102 47 -156q39 -49 142 -49q90 0 92 66q0 26 1 116t1 135q0 50 -31.5 67t-122.5 17q-61 0 -95 -63t-34 -133z" />
<glyph unicode="h" horiz-adv-x="1204" d="M80 68q0 130 24 608.5t33 562.5q4 35 27.5 50t97.5 30q83 18 103 18q19 0 32.5 -4.5t57.5 -23.5q53 -24 67.5 -37.5t14.5 -36.5q0 -36 -1 -103t-1 -75q0 -23 16 -34t37 -11q14 0 108.5 12t116.5 12q113 0 195 -65q55 -44 72 -67.5t20 -65.5q28 -416 28 -748 q0 -39 -25.5 -56.5t-123.5 -43.5q-67 -17 -119 -17q-30 0 -50 6.5t-46 26.5q-38 27 -47.5 42.5t-9.5 51.5q0 8 3 225t3 334q0 33 -29.5 55.5t-69.5 22.5q-63 0 -101 -29.5t-38 -80.5q0 -93 2 -279.5t2 -279.5q0 -45 -57 -80t-131 -35q-31 0 -101 20q-66 17 -88 36t-22 59z " />
<glyph unicode="i" horiz-adv-x="632" d="M86 135q0 368 14 664q1 28 30.5 42t109.5 33q96 17 104 17q33 0 51 -5t60 -26q44 -23 57 -38.5t14 -49.5q9 -167 9 -625q0 -56 -16.5 -79.5t-80.5 -61.5q-66 -43 -106 -43q-35 0 -117 41q-87 42 -108 62t-21 69zM106 1223q0 94 26.5 130t117.5 36q107 0 144.5 -4 t56.5 -17q55 -42 55 -123q0 -98 -12 -140t-33 -63q-29 -26 -90 -26q-97 0 -140.5 8t-72.5 31q-33 28 -42.5 66.5t-9.5 101.5z" />
<glyph unicode="j" horiz-adv-x="657" d="M-154 -377q0 53 21 131q6 25 28 43t44 25t57 17t51 16q56 22 78 54.5t22 92.5q0 26 -19 330t-19 461q0 36 23.5 55.5t103.5 54.5q82 35 118 35q24 0 40.5 -6t58.5 -27q59 -31 75.5 -49.5t16.5 -48.5q20 -675 20 -926q0 -116 -18.5 -160t-106.5 -133q-74 -73 -96.5 -88.5 t-64.5 -19.5q-98 -10 -287 -10q-45 0 -72.5 14.5t-48.5 54.5q-25 46 -25 84zM123 1233q0 92 26.5 128t116.5 36q107 0 145 -4t58 -17q55 -42 55 -121q0 -100 -12 -142t-35 -60q-29 -29 -90 -29q-96 0 -140 8.5t-73 32.5q-33 28 -42 65.5t-9 102.5z" />
<glyph unicode="k" horiz-adv-x="1200" d="M57 102q0 61 34 480.5t61 654.5q5 55 69 70q58 12 148 12q44 0 102 -27q32 -15 44.5 -36.5t12.5 -63.5q0 -44 -11 -244t-11 -235q0 -56 41 -56q20 0 32.5 11.5t32.5 44.5q17 29 71 132.5t83 149.5q20 35 55 35q110 0 213 -18q72 -14 72 -97q0 -34 -31 -84 q-72 -123 -166 -264q-14 -23 -14 -39q0 -24 23 -61l196 -291q45 -63 45 -123q0 -41 -15.5 -59t-74.5 -39q-66 -25 -121 -25q-42 0 -153 13q-27 4 -41.5 16.5t-28.5 40.5q-9 24 -48 145t-56 166q-21 58 -68 58q-25 0 -43 -14t-18 -44q0 -39 1 -124.5t1 -125.5q0 -33 -22 -50 t-103 -50q-108 -43 -140 -43q-22 0 -42.5 13.5t-55.5 48.5q-5 5 -18 17.5t-18 18t-14.5 17t-13 20.5t-7 22t-3.5 27z" />
<glyph unicode="l" horiz-adv-x="612" d="M90 111q0 209 5 607t14 513q2 20 25 35.5t83 29.5q90 19 109 19q38 0 90 -39q90 -66 90 -125q6 -301 6 -668q0 -87 -2 -229.5t-2 -187.5q0 -28 -18.5 -47.5t-77.5 -45.5q-70 -30 -97 -30q-34 0 -127 37q-61 25 -79.5 49t-18.5 82z" />
<glyph unicode="m" horiz-adv-x="1708" d="M53 76q0 163 12.5 464.5t18.5 407.5q3 46 49 56q193 51 328 51q59 0 123 -13t106.5 -27t116.5 -42q67 -23 80 -23q26 0 50 9t95 42q72 35 104.5 44.5t73.5 9.5q61 0 185 -41q126 -40 162 -69t42 -99q9 -102 23 -350.5t14 -360.5q0 -34 -12 -56.5t-53 -60.5 q-5 -4 -14.5 -13.5t-13 -12t-11.5 -8.5t-13.5 -7t-16 -4t-22.5 -3.5t-28 -0.5q-36 0 -135 21q-24 3 -44 23t-20 44q0 188 -8 578q-1 47 -41.5 78.5t-99.5 31.5q-44 0 -67 -26.5t-23 -67.5q0 -72 14 -298t14 -247q0 -31 -15.5 -49t-78.5 -55q-51 -33 -96 -33q-20 0 -94 15 q-67 18 -89 34.5t-22 55.5q0 73 2 248.5t2 289.5q0 44 -30.5 77.5t-85.5 33.5q-65 0 -89 -22.5t-24 -79.5q0 -31 4 -272t4 -259q0 -24 -11.5 -40.5t-45.5 -43.5q-28 -21 -45.5 -27t-42.5 -6q-31 0 -121 21q-69 18 -90 32.5t-21 49.5z" />
<glyph unicode="n" horiz-adv-x="1126" d="M53 113q0 178 10 463t17 356q2 33 19 48t59 21q230 35 469 35q96 0 157.5 -17t130.5 -61q54 -36 78.5 -64.5t28.5 -62.5q7 -65 25 -349t18 -320q0 -39 -2 -55t-16.5 -39.5t-47.5 -51.5q-35 -27 -55.5 -35t-62.5 -8q-114 0 -160.5 30t-48.5 69q-1 42 -3 269t-7 304 q-1 47 -36 73.5t-85 26.5q-51 0 -79 -26.5t-28 -77.5q0 -62 5 -229t5 -269q0 -56 -8 -76t-43 -49q-44 -38 -96 -38q-58 0 -113 14q-85 17 -108 37.5t-23 81.5z" />
<glyph unicode="o" horiz-adv-x="1159" d="M51 481q0 270 139.5 410.5t407.5 140.5q126 0 223 -40t158 -112.5t92 -170t31 -217.5q0 -261 -138.5 -421.5t-369.5 -160.5q-254 0 -398.5 143t-144.5 428zM387 512q0 -58 8 -101.5t28.5 -81t59.5 -57.5t95 -20q176 0 176 235q0 113 -40 174.5t-134 61.5 q-102 0 -147.5 -52.5t-45.5 -158.5z" />
<glyph unicode="p" horiz-adv-x="1161" d="M68 -207q0 55 18.5 548t24.5 593q1 24 15 41t34 22q242 47 428 47q105 0 203.5 -34.5t166.5 -100.5q76 -74 115 -181.5t39 -225.5q0 -123 -36 -222t-98.5 -161.5t-143 -95.5t-172.5 -33q-21 0 -59 3t-56 3q-32 0 -53 -20t-21 -52q0 -24 3 -69.5t3 -65.5q0 -36 -16 -56.5 t-84 -72.5q-47 -35 -67 -44t-42 -9q-27 0 -46 7t-74 38q-54 31 -68 55t-14 86zM451 377q0 -80 133 -80q87 0 125.5 54.5t38.5 142.5q0 34 -7.5 68t-24 67t-47.5 53t-73 20q-83 0 -104 -14q-22 -15 -28.5 -37.5t-8.5 -60.5q-4 -86 -4 -213z" />
<glyph unicode="q" horiz-adv-x="1159" d="M37 514q0 111 31.5 215.5t83.5 165.5q43 52 92.5 84.5t112 46.5t113 17.5t134.5 3.5q154 0 326 -58q78 -27 104 -54.5t29 -82.5q6 -120 20.5 -567t14.5 -553q0 -26 -15 -42t-73 -52q-44 -27 -61.5 -33t-43.5 -6q-19 0 -106 41q-68 31 -91.5 56.5t-23.5 70.5v184 q0 26 -16.5 43.5t-42.5 17.5q-34 0 -99 -9t-98 -9q-76 0 -159 50.5t-136 123.5q-96 132 -96 346zM393 524q0 -101 46.5 -161t138.5 -60q118 0 118 80q0 193 -3 236.5t-17 62.5q-26 41 -113 41q-83 0 -126.5 -60t-43.5 -139z" />
<glyph unicode="r" horiz-adv-x="892" d="M72 115q0 172 9 415t17 355q1 27 16.5 45.5t37.5 23.5q159 42 288 66q162 27 246 27q48 0 71 -14t64 -72q21 -29 21 -48q0 -58 -43 -204q-10 -43 -70 -43q-24 0 -103 4t-100 4q-71 0 -71 -72q0 -60 6 -256.5t6 -222.5q0 -37 -14.5 -58t-67.5 -57q-34 -22 -48.5 -28.5 t-39.5 -6.5q-46 0 -117 31q-60 25 -84 47.5t-24 63.5z" />
<glyph unicode="s" horiz-adv-x="794" d="M35 -203q0 69 12 103q10 40 31 53t90 29q81 19 124 41.5t56.5 47t13.5 64.5q0 38 -17.5 74t-61.5 90q-56 67 -86.5 107.5t-66 96.5t-51.5 107t-16 103q0 124 107 235q73 75 248 127q116 29 157 29q26 0 48 -15t33.5 -31t27.5 -44q14 -22 17.5 -42.5t3.5 -64.5 q0 -51 -11 -65t-36.5 -27t-92.5 -39q-86 -35 -86 -114q0 -53 56 -109q70 -73 147 -180q76 -115 76 -281q0 -79 -39 -162t-113 -157q-69 -69 -197.5 -115.5t-236.5 -46.5q-28 0 -44 8t-38 37q-38 51 -46.5 72t-8.5 69z" />
<glyph unicode="t" horiz-adv-x="1001" d="M25 870q0 34 32.5 94t65.5 64q110 10 119 12q21 2 34 14t13 33q0 15 -2 40t-2 38q0 38 23.5 57t117.5 56q76 31 121 31q44 0 90.5 -41t46.5 -70q0 -20 -3 -57t-3 -54q0 -22 14 -38.5t33 -16.5h156q43 0 68.5 -45.5t25.5 -101.5q0 -16 -11.5 -52t-29.5 -69 q-26 -45 -76 -45q-25 0 -75.5 2t-77.5 2q-22 0 -35 -17t-13 -49v-309q0 -104 27 -172q7 -15 23.5 -43t27 -48.5t10.5 -33.5q0 -28 -21.5 -90.5t-47.5 -71.5q-22 -9 -81 -22.5t-79 -13.5q-115 0 -186 131q-54 100 -54 262q0 65 2.5 195.5t2.5 195.5q0 47 -31 63 q-27 15 -113 15q-35 0 -56.5 13t-37.5 56q-18 48 -18 86z" />
<glyph unicode="u" horiz-adv-x="1171" d="M74 199q0 280 18 712q1 26 20 40.5t78 39.5q69 27 101 27q12 0 22 -1.5t15 -3t25 -8.5t34 -12q43 -15 61.5 -33.5t18.5 -54.5q0 -71 -3 -313.5t-3 -278.5q0 -35 34.5 -54t82.5 -19q71 0 109 25.5t38 72.5q0 57 -7 280.5t-7 245.5q0 54 25.5 77t101.5 50q79 29 100 29 q23 0 38.5 -8t45.5 -33q34 -30 44 -45.5t13 -42.5q8 -81 21.5 -337.5t13.5 -373.5q0 -46 -12 -80t-45 -69q-69 -76 -150 -76q-150 -2 -583 -2q-62 0 -104.5 22.5t-84.5 71.5q-35 41 -48 73.5t-13 78.5z" />
<glyph unicode="v" horiz-adv-x="1189" d="M39 903q0 26 19.5 42t84.5 48q53 26 78 33.5t55 7.5q15 0 59.5 -4t59.5 -8q18 -3 31.5 -12.5t15.5 -20.5q20 -86 55.5 -275.5t47.5 -242.5q2 -13 11.5 -23t25.5 -10q27 0 39 31q89 225 196 508q10 26 39 35.5t100 9.5q64 0 93 -29q37 -37 86 -104q14 -16 14 -39 q0 -9 -3.5 -22.5t-7.5 -24t-10.5 -27t-9.5 -24.5q-245 -545 -368 -785q-6 -13 -25 -26t-47 -13q-167 0 -260 11q-55 6 -74 65q-105 271 -270 772q-35 104 -35 127z" />
<glyph unicode="w" horiz-adv-x="1615" d="M45 901q0 30 18 46t97 52q79 35 121 35t89.5 -34t51.5 -72q29 -255 45 -500q1 -14 9 -22.5t18 -8.5q26 0 30 29q18 66 58.5 235t66.5 254q12 43 59 54.5t142 11.5q69 0 95.5 -12t33.5 -47q48 -191 127 -490q6 -29 33 -29q10 0 17 9t9 20q36 407 52 512q4 32 24 45t86 31 q5 1 25 6t33.5 7.5t27.5 2.5q25 0 41 -8.5t47 -36.5q48 -39 59 -56.5t11 -53.5q0 -40 -56 -332.5t-98 -464.5q-13 -57 -24 -68q-14 -17 -88 -51q-26 -11 -45 -16t-30 -5.5t-38 -0.5q-30 0 -195 34q-54 11 -75 66q-8 20 -41.5 163t-40.5 159q-14 32 -39 32t-33 -32 q-6 -19 -37.5 -149t-42.5 -165q-11 -34 -75.5 -73t-116.5 -39q-36 0 -114 14t-136 29q-39 6 -49 45q-35 161 -93.5 492t-58.5 382z" />
<glyph unicode="x" horiz-adv-x="1206" d="M37 49q0 19 18 57q36 68 121.5 211.5t93.5 157.5q15 25 15 53q0 26 -31.5 83t-81 136t-70.5 121q-10 25 -10 43q0 30 17 47t65 46q55 32 92 32q24 0 41.5 -5t67.5 -25q47 -19 65.5 -32t30.5 -36q17 -33 46 -107t44 -104q17 -33 49 -33q27 0 39 21t67 126t77 142 q13 25 74 37t112 12q23 0 65 -21.5t54 -35.5q19 -17 23.5 -28.5t4.5 -28.5q0 -26 -30 -70q-61 -87 -183 -287q-10 -15 -10 -39q0 -23 12 -47q35 -56 117 -184.5t117 -186.5q18 -29 18 -63q0 -25 -12.5 -39t-52.5 -35q-56 -30 -107 -30q-33 0 -180 26q-37 8 -55 41 q-40 70 -125 256q-17 33 -47 33q-33 0 -43 -31q-85 -193 -117 -246q-19 -25 -78 -55.5t-92 -30.5q-44 0 -115 29q-65 26 -85.5 43.5t-20.5 46.5z" />
<glyph unicode="y" horiz-adv-x="1224" d="M61 244q0 90 7 347.5t12 313.5q5 37 26 51t86 32q12 3 19 5q94 25 102 25q28 0 90 -23q43 -16 56.5 -27t13.5 -36q0 -52 -11 -298t-11 -247q0 -61 27.5 -87t92.5 -26q85 0 124.5 20t39.5 73q0 88 -4 263t-4 263q0 43 55 77t95 34q37 0 114 -21q84 -25 106.5 -40t22.5 -46 q0 -737 -4 -1063q0 -46 -7.5 -70t-36 -58.5t-97.5 -94.5q-75 -65 -109 -85t-61 -26q-26 -7 -214 -18.5t-255 -11.5q-56 0 -88.5 36t-32.5 88q0 16 3 38t11 51.5t26 52t44 28.5q18 4 140 27t171 35q41 8 61.5 38.5t20.5 65.5q0 42 -17.5 59t-58.5 17q-24 0 -146 -11t-138 -11 q-91 0 -185 106q-47 56 -66.5 90.5t-19.5 63.5z" />
<glyph unicode="z" horiz-adv-x="1056" d="M57 864q0 39 25.5 92t73.5 56q111 7 356 15.5t346 8.5q45 0 83 -46.5t38 -108.5q0 -37 -12 -56q-32 -43 -109.5 -144t-129 -169.5t-85.5 -120.5q-22 -33 -22 -47q0 -19 14.5 -32t42.5 -13t113 5t96 5q45 0 65 -11.5t39 -49.5q21 -54 21 -74q0 -21 -3.5 -49.5t-12.5 -65 t-29 -62t-49 -26.5q-274 -18 -687 -18q-40 0 -60 12t-54 51q-28 30 -35.5 54t-7.5 75q0 44 9 68.5t38 62.5q52 69 154.5 192t136.5 167q23 28 28.5 37t5.5 22q0 39 -45 39q-11 0 -111 -7t-120 -7q-28 0 -46.5 14t-37.5 49q-29 57 -29 82z" />
<glyph unicode="{" horiz-adv-x="964" d="M90 492q0 59 12 88t41.5 48t102.5 48q44 19 63 47.5t19 77.5q0 25 -37 141.5t-37 175.5q0 76 80 269t147 262q23 23 48 33t96.5 16t216.5 6q46 0 76 -55t30 -90q0 -28 -18 -74q-15 -40 -29 -57t-48 -30.5t-108 -27.5q-61 -11 -81.5 -36t-20.5 -70q0 -80 23.5 -232 t23.5 -160q0 -87 -35.5 -160.5t-103.5 -105.5q-35 -15 -35 -49q0 -18 12.5 -29t42.5 -26q93 -46 93 -168q0 -22 -32 -220t-32 -220q0 -83 68 -97q23 -5 129.5 -19.5t130.5 -19.5q29 -7 47 -34.5t18 -55.5q0 -31 -7 -55.5t-36 -89.5q-13 -30 -20 -45t-20 -34.5t-25 -28 t-31 -15t-43 -6.5q-121 0 -176 6q-7 1 -26.5 2.5t-25.5 2t-22 2.5t-25 5t-24 7.5t-30 10.5t-33 15q-55 26 -72 42.5t-25 49.5q-25 89 -53.5 211t-28.5 162q0 34 30 165.5t30 151.5q0 73 -28 96.5t-105 38.5q-65 11 -86 34.5t-21 95.5z" />
<glyph unicode="|" horiz-adv-x="1009" d="M313 -397q0 166 7.5 1033t11.5 943q2 43 22.5 63t81.5 39q68 23 88 23q39 -2 91 -58t55 -126q6 -145 14 -929t8 -1027q0 -22 -13 -34t-73 -46q-26 -15 -43.5 -22.5t-23.5 -8t-19 -0.5q-21 0 -112 49q-66 37 -80.5 51.5t-14.5 49.5z" />
<glyph unicode="}" horiz-adv-x="964" d="M4 -332q0 29 18 56t48 34q24 5 130 19.5t130 19.5q67 14 67 97q0 21 -31.5 219.5t-31.5 220.5q0 122 92 168q30 15 42.5 26t12.5 29q0 34 -35 49q-68 32 -103.5 105.5t-35.5 160.5q0 8 23.5 160t23.5 232q0 45 -20.5 70t-81.5 36q-105 19 -134 38.5t-50 76.5 q-19 49 -19 74q0 35 30.5 90t76.5 55q145 0 216 -6t95.5 -16t46.5 -33q69 -69 149 -261.5t80 -269.5q0 -59 -36.5 -175.5t-36.5 -141.5q0 -49 19 -77.5t63 -47.5q101 -40 127 -70.5t26 -113.5q0 -73 -20.5 -96t-85.5 -34q-76 -15 -103.5 -39t-27.5 -96q0 -20 29.5 -151.5 t29.5 -165.5q0 -40 -28.5 -162t-53.5 -211q-8 -34 -24.5 -50.5t-71.5 -41.5q-21 -10 -41 -17t-31 -11t-31 -7.5t-24.5 -4t-30 -3t-29.5 -2.5q-56 -6 -176 -6q-56 0 -83 29.5t-56 99.5q-29 65 -36 89.5t-7 55.5z" />
<glyph unicode="~" horiz-adv-x="1230" d="M45 600q0 61 66 127q51 52 121.5 82.5t138.5 30.5q56 0 122 -20.5t115.5 -45t108.5 -45t104 -20.5q32 0 58 12.5t43 30t33 35t35.5 30t41.5 12.5q55 0 104.5 -45.5t49.5 -99.5q0 -51 -42 -112t-89 -101q-69 -63 -168 -63q-23 0 -44.5 2t-48 8t-40 9t-46 14.5t-38.5 13 t-44.5 17t-39.5 15.5q-8 3 -51 18.5t-72.5 23.5t-52.5 8q-29 0 -53 -12.5t-40 -30.5t-31 -36.5t-34.5 -31t-42.5 -12.5q-55 0 -109.5 65.5t-54.5 120.5z" />
<glyph unicode="&#xa1;" horiz-adv-x="634" d="M53 -27q0 28 13 99q67 425 96 581q8 46 49.5 70.5t89.5 24.5q85 0 120 -35t46 -123l92 -565q4 -14 4 -41q0 -45 -29 -76t-67 -37q-195 -23 -270 -23q-55 0 -99.5 33t-44.5 92zM109 1012v133q0 48 30 86.5t70 38.5q127 0 209 -4q106 -12 106 -203q0 -91 -30 -143 q-42 -54 -72 -54h-158q-59 0 -107 41t-48 105z" />
<glyph unicode="&#xa2;" horiz-adv-x="866" d="M63 641q0 134 30 224t89 148t160 107q26 13 33 27.5t12 56.5q3 20 6 30.5t11.5 23.5t25 18.5t43.5 5.5q31 0 50 -15t32 -50q23 -67 74 -78q68 -13 88.5 -23.5t38.5 -38.5q24 -37 24 -82q0 -42 -46 -81.5t-81 -39.5q-18 0 -66.5 2.5t-68.5 2.5q-92 0 -128 -50.5 t-36 -156.5q0 -221 170 -221q27 0 85 3t96 3q15 0 53 -19q39 -25 56 -56t17 -79q0 -32 -12.5 -55.5t-48.5 -59.5q-28 -28 -46.5 -38.5t-45.5 -10.5q-25 0 -42 -5.5t-27 -12.5t-16.5 -22t-8.5 -26.5t-6 -35t-7 -37.5q-11 -47 -77 -47q-57 0 -92 47.5t-35 118.5q-12 31 -37 47 q-142 88 -204.5 196.5t-62.5 278.5z" />
<glyph unicode="&#xa3;" horiz-adv-x="1220" d="M23 154q0 37 7 70t22.5 64t46.5 49.5t73 18.5q41 0 115 -28q28 0 42.5 13t14.5 48q0 34 -20 50.5t-48 20.5t-56 9t-48 24.5t-20 57.5q0 20 9 45t23 35q39 26 44 35q5 7 5 18q0 13 -22 53q-37 68 -37 148q0 78 39 141.5t101.5 102t135 59t146.5 20.5q103 0 181 -8.5 t111.5 -17t80.5 -23.5q26 -8 60 -56t34 -79q0 -49 -51.5 -108.5t-85.5 -59.5q-11 0 -87.5 10.5t-113.5 10.5q-35 0 -67 -6.5t-63.5 -20.5t-50 -41.5t-18.5 -65.5q0 -32 20.5 -53.5t51.5 -21.5q36 0 106.5 3t106.5 3q34 0 57 -26t23 -60q0 -48 -21.5 -79t-62.5 -32 q-22 -2 -88.5 -3.5t-91.5 -4.5q-35 -6 -35 -43q0 -45 -7 -84t-7 -49q0 -43 38 -55q82 -21 132 -21q103 0 157 43q7 5 35.5 28t47.5 34.5t34 11.5q24 0 90 -58t66 -77q0 -53 -33 -107q-49 -70 -129 -104.5t-176 -34.5q-98 0 -169 17.5t-143 64.5q-3 2 -14 9t-15 9.5t-14 7.5 t-17 7t-17.5 4t-20.5 2q-33 0 -70 -33q-66 -59 -155 -59q-35 0 -80 10.5t-57 19.5q-16 10 -30.5 61t-14.5 81z" />
<glyph unicode="&#xa4;" horiz-adv-x="1409" d="M109 991q0 73 57 115q67 46 94 61t47 15q23 0 43 -17l150 -143q31 -31 78 -31q16 0 49 3t51 3q40 0 88.5 -3t52.5 -3q19 0 82 60l92 88q43 41 84 41q72 0 111 -50q49 -63 65.5 -93.5t16.5 -51.5q0 -26 -24.5 -56.5t-53.5 -55t-53.5 -59.5t-24.5 -69q0 -21 6 -64t6 -67 q0 -8 -4 -60t-4 -91q0 -45 35 -80l104 -111q19 -19 19 -59q0 -45 -16 -70.5t-66 -60.5q-1 -1 -11.5 -8t-17 -11.5t-18.5 -11.5t-21.5 -11t-20.5 -7.5t-20 -3.5q-17 0 -34 10l-127 113q-31 26 -68 26q-7 0 -61 -9t-125 -9q-26 0 -61.5 3t-51.5 3q-51 0 -72 -19 q-17 -13 -54 -51.5t-67.5 -60t-60.5 -21.5q-70 0 -102 43q-36 49 -47.5 66t-21 38.5t-9.5 41.5q0 19 5.5 30.5t25.5 34.5l94 107q19 22 23.5 34t4.5 40q0 14 -6 67.5t-6 104.5q0 18 3 65.5t3 61.5q0 31 -20 51l-117 116q-24 24 -24 76zM539 600q0 -83 37.5 -136.5 t119.5 -53.5q146 0 146 188q0 83 -39.5 135.5t-110.5 52.5q-86 0 -119.5 -49t-33.5 -137z" />
<glyph unicode="&#xa5;" horiz-adv-x="1265" d="M61 1094q0 15 11 30q28 39 47 62t47.5 45t52.5 22q35 0 99 -17.5t77 -33.5q33 -39 94.5 -129.5t88.5 -124.5q13 -17 23.5 -23.5t29.5 -6.5t45 22q27 26 76 84t88 104.5t84.5 84.5t76.5 40q15 0 80 -16t74 -25q19 -18 39 -59.5t20 -65.5q0 -21 -12 -36 q-36 -44 -123.5 -130t-147 -150t-59.5 -87q0 -13 7.5 -25t25.5 -12q29 0 88 3t90 3q16 0 39 -17.5t23 -33.5q0 -30 -22.5 -76.5t-55.5 -46.5q-25 0 -100.5 1t-98.5 1q-17 0 -28 -13t-11 -32q0 -23 14.5 -38t41.5 -15q31 0 96 3t96 3q17 0 42.5 -23t25.5 -36 q0 -34 -22.5 -77.5t-47.5 -43.5q-4 0 -78 3t-114 3q-17 0 -34.5 -15t-17.5 -40q0 -70 -2 -82q0 -28 -31 -51.5t-72.5 -36.5t-75.5 -20t-48 -7q-24 0 -69.5 18.5t-81.5 45.5q-23 18 -30.5 27.5t-13 31.5t-8.5 70q-2 20 -19 35.5t-42 15.5q-30 0 -93 -4t-93 -4q-12 0 -42 27 t-30 44q0 44 22.5 80.5t57.5 36.5q14 0 80 -4t98 -4q21 0 40 13.5t19 35.5q0 10 -13.5 26.5t-27.5 16.5h-196q-27 0 -53.5 21.5t-26.5 37.5q0 34 17 73t44 42q21 3 91.5 6.5t105.5 7.5q33 3 33 37q0 20 -15 39q-36 45 -133.5 149.5t-142.5 162.5q-19 29 -19 47z" />
<glyph unicode="&#xa6;" horiz-adv-x="1009" d="M313 -397q0 107 5 382t8 367q3 43 23.5 63t80.5 40q67 22 88 22q40 -2 92.5 -58.5t53.5 -127.5q3 -66 10.5 -206t12.5 -268.5t5 -252.5q0 -22 -13 -34t-73 -46q-55 -31 -82 -31q-16 0 -35.5 8t-80.5 41q-66 37 -80.5 51.5t-14.5 49.5zM317 803q0 121 5.5 407.5t9.5 368.5 q2 43 22.5 63t81.5 39q68 23 88 23q39 -2 91 -58t55 -126q20 -527 20 -754q0 -24 -11.5 -35.5t-70.5 -46.5q-55 -31 -82 -31q-15 0 -32.5 8t-79.5 44q-67 36 -82 50t-15 48z" />
<glyph unicode="&#xa7;" horiz-adv-x="1095" d="M39 453q0 34 4 63.5t8.5 53t18 46t22.5 38t31.5 35t35.5 30t45 30t49 29.5t58 33q23 13 23 39q0 9 -11 26.5t-28 40t-23 33.5q-45 74 -45 158q0 59 15 104.5t46.5 79.5t62.5 56t81 49q77 43 133 43q37 0 87 -43t50 -101q0 -25 -21.5 -51.5t-47 -45.5t-47 -44.5 t-21.5 -50.5q0 -42 35 -66q44 -32 115 -80.5t111 -76.5t90.5 -73t76.5 -84.5t45 -97t19 -124.5q0 -144 -94 -246q-22 -23 -62.5 -54t-68 -52t-27.5 -29q0 -14 13.5 -46t27.5 -76.5t14 -88.5q0 -62 -22 -150.5t-70 -134.5q-153 -137 -270 -137q-55 0 -92 56.5t-37 109.5 q0 39 16 55q12 12 41.5 35.5t47 39.5t33 42.5t15.5 54.5q0 18 -9.5 45.5t-20.5 38.5q-43 43 -197 166.5t-197 167.5q-26 26 -42.5 70.5t-16.5 83.5zM369 477q0 -44 67.5 -91.5t110.5 -47.5q38 0 103 56.5t65 115.5q0 46 -46 101t-96 55q-45 0 -124.5 -76t-79.5 -113z" />
<glyph unicode="&#xa8;" horiz-adv-x="1042" d="M84 1350q0 80 24.5 111.5t108.5 31.5q101 0 136 -3t53 -13q51 -33 51 -107q0 -85 -11 -121.5t-32 -54.5q-33 -23 -82 -23q-91 0 -131.5 7t-67.5 26q-32 25 -40.5 58.5t-8.5 87.5zM580 1350q0 80 24.5 111.5t108.5 31.5q102 0 136.5 -3t51.5 -13q51 -33 51 -107 q0 -85 -11 -121.5t-32 -54.5q-33 -23 -82 -23q-91 0 -131 7t-67 26q-32 25 -40.5 58.5t-8.5 87.5z" />
<glyph unicode="&#xaa;" horiz-adv-x="638" d="M29 401q0 16 5.5 52.5t12.5 54.5q7 27 35 27q208 8 391 8q62 0 79 -3t30 -16q18 -21 18 -67t-11.5 -85t-37.5 -42q-240 -17 -469 -17q-21 0 -37 29t-16 59zM45 848q0 56 27.5 101.5t81.5 58.5q14 3 59.5 5t62.5 3l78 6q15 0 15 18q0 25 -19 25q-18 0 -104 -2t-109 -2 q-20 0 -40.5 34t-20.5 54q0 22 21 57.5t44 38.5q32 0 140.5 9.5t146.5 9.5q34 0 78.5 -32.5t48.5 -68.5q9 -91 19 -240.5t10 -177.5q0 -72 -60 -77q-106 -13 -229 -13q-46 0 -80 4t-67.5 16t-55 32.5t-34.5 56t-13 84.5zM254 866q0 -20 15.5 -27.5t52.5 -7.5q47 0 47 33 t-23 33h-55q-37 0 -37 -31z" />
<glyph unicode="&#xab;" horiz-adv-x="1040" d="M25 696q0 47 16 68q117 132 254 276q23 23 45 23q79 0 102.5 -12t40.5 -60q17 -42 17 -63q0 -35 -19 -54q-18 -18 -69.5 -62t-77 -73.5t-25.5 -54.5q0 -34 21 -55q16 -16 65.5 -57.5t80 -74t30.5 -57.5q0 -60 -19 -92q-9 -14 -39.5 -31.5t-58.5 -17.5q-23 0 -33 12 q-102 85 -299 273q-32 32 -32 112zM545 696q0 47 16 68q117 132 254 276q23 23 45 23q79 0 103 -12t41 -60q16 -40 16 -63q0 -35 -19 -54q-18 -18 -69.5 -62t-77 -73.5t-25.5 -54.5q0 -34 21 -55q16 -16 65.5 -57.5t80 -74t30.5 -57.5q0 -62 -18 -92q-9 -14 -40 -31.5 t-59 -17.5q-22 0 -32 12q-102 85 -299 273q-33 33 -33 112z" />
<glyph unicode="&#xac;" horiz-adv-x="1230" d="M53 559q0 21 23 139q8 37 22 54t45 18l936 8q37 0 61.5 -40.5t24.5 -80.5q0 -173 -43 -514q-4 -38 -41 -63t-77 -25q-28 0 -142 31q-22 6 -35.5 25t-15.5 43l-8 225q-2 26 -18.5 46.5t-41.5 20.5h-587q-38 0 -69 35.5t-34 77.5z" />
<glyph unicode="&#xad;" horiz-adv-x="643" d="M43 637q0 45 33 160q6 24 23.5 39.5t35.5 15.5q218 16 332 16q56 0 93.5 -40t37.5 -95q0 -25 -33 -164q-13 -46 -59 -53q-51 -6 -166 -13t-154 -7q-46 0 -73 13.5t-45 47.5q-25 42 -25 80z" />
<glyph unicode="&#xaf;" horiz-adv-x="884" d="M12 1307q0 17 8.5 55.5t18.5 58.5q5 12 12.5 18t16 8t26.5 3q154 6 580 6q99 0 121.5 -2.5t40.5 -17.5q28 -19 28 -70q0 -53 -20 -100q-12 -37 -56 -37q-352 -17 -694 -17q-33 0 -57.5 31t-24.5 64z" />
<glyph unicode="&#xb0;" horiz-adv-x="657" d="M57 993q0 134 71.5 204.5t209.5 70.5q127 0 191.5 -73t64.5 -196q0 -132 -70.5 -212t-189.5 -80q-129 0 -203 72t-74 214zM238 1012q0 -59 19 -92t71 -33q84 0 84 114q0 113 -84 113q-90 0 -90 -102z" />
<glyph unicode="&#xb1;" horiz-adv-x="1230" d="M53 662q0 21 23 139q8 37 22 53.5t45 17.5l248 9q24 0 38.5 17.5t14.5 37.5v231q0 44 38 72.5t93 28.5q29 0 148 -29q45 -13 45 -51l8 -252q2 -15 17 -30.5t30 -16.5l256 -8q37 0 61.5 -40.5t24.5 -80.5q0 -41 -28 -137q-18 -53 -72 -56l-213 -6q-62 0 -68 -53l-8 -262 q-1 -37 -40.5 -62.5t-78.5 -25.5q-29 0 -143 30q-20 6 -34.5 25.5t-14.5 42.5l-8 225q0 26 -18 47t-42 21h-241q-38 0 -69 35.5t-34 77.5zM59 -119q0 22 11 74.5t24 81.5q10 23 24.5 30t45.5 9q335 10 760 10q123 0 153.5 -4t55.5 -23q19 -15 26.5 -35.5t7.5 -62.5 q0 -65 -24 -133q-19 -53 -70 -53q-450 -23 -909 -23q-41 0 -73 42t-32 87z" />
<glyph unicode="&#xb2;" horiz-adv-x="645" d="M51 1085q0 7 7 25.5t27.5 41.5t47.5 28q106 18 223 18q80 0 147.5 -55t67.5 -135q0 -48 -14 -84.5t-57 -69.5l-111 -86q-4 -8 -4 -12q0 -8 12 -8h133q20 0 44 -31t24 -53q0 -33 -19 -76.5t-51 -48.5q-22 -2 -169.5 -7.5t-202.5 -5.5q-49 0 -76 49t-27 91q0 32 5 47t22 30 l231 207q11 8 11 23q0 9 -6.5 16.5t-16.5 7.5q-13 0 -87 -8t-85 -8q-21 0 -30 7t-27 44q-19 37 -19 53z" />
<glyph unicode="&#xb3;" horiz-adv-x="677" d="M43 1087q0 28 32 60.5t60 32.5h334q21 0 56.5 -35.5t35.5 -65.5q0 -72 -37 -102l-75 -59q-9 -6 -9 -13q0 -5 19 -10q71 -11 114 -53t43 -105q0 -110 -61.5 -199t-159 -136.5t-207.5 -47.5q-34 0 -65 21.5t-31 58.5q0 36 11 71t34 42q53 16 89 29t76 32t60.5 41t20.5 47 q0 20 -12.5 33.5t-32.5 13.5q-26 0 -89 -7t-69 -7q-30 0 -47.5 24t-17.5 54q0 35 18 51l100 92q11 11 11 21q0 8 -15 8h-112q-33 0 -53.5 42.5t-20.5 65.5z" />
<glyph unicode="&#xb4;" horiz-adv-x="614" d="M37 1264q0 31 3.5 45t14.5 24q97 99 246 213q36 27 80 27q79 0 121.5 -32t42.5 -118q0 -56 -39 -80q-158 -98 -297 -196q-25 -19 -57 -19q-45 0 -80 42t-35 94z" />
<glyph unicode="&#xb6;" horiz-adv-x="1372" d="M29 952q0 65 28.5 139t73.5 117q35 31 67 45.5t129.5 29.5t286.5 20.5t508 5.5q24 0 39.5 -1.5t35 -7.5t29.5 -21.5t11 -39.5q3 -72 17 -388.5t19 -448.5t11 -369t6 -430q0 -31 -72 -66t-110 -35q-37 0 -76 25.5t-39 54.5q0 248 -4 752.5t-4 644.5q0 63 -92 63 q-67 0 -95 -14t-28 -55q0 -292 18.5 -749t18.5 -652q0 -28 -54.5 -62t-90.5 -34q-47 0 -106.5 29t-59.5 67q0 141 3 443.5t3 459.5q0 30 -19.5 49.5t-50.5 22.5q-107 13 -176.5 36t-123.5 68t-78.5 118.5t-24.5 182.5zM338 915q0 -53 29.5 -90t83.5 -37q24 0 33.5 22t9.5 95 q0 80 -10 103.5t-35 23.5q-56 0 -83.5 -32t-27.5 -85z" />
<glyph unicode="&#xb7;" horiz-adv-x="544" d="M63 672q0 117 27.5 163t120.5 46q115 0 153 -4.5t58 -22.5q57 -50 57 -154q0 -127 -12.5 -179.5t-36.5 -78.5q-31 -34 -92 -34q-101 0 -146.5 10.5t-74.5 40.5q-35 35 -44.5 84t-9.5 129z" />
<glyph unicode="&#xb8;" horiz-adv-x="514" d="M37 -227q0 22 8 36t39 48q31 33 47.5 41t54.5 8q129 0 191 -11.5t80 -44.5q28 -59 28 -96q0 -63 -84.5 -179.5t-167.5 -182.5q-29 -23 -86 -23q-44 0 -68 27t-24 61q0 29 14.5 89t14.5 89q0 17 -23.5 70t-23.5 68z" />
<glyph unicode="&#xb9;" horiz-adv-x="559" d="M43 621q0 24 37 77q9 13 26 20.5t31.5 9.5t25.5 8t11 16v102q0 18 -1 55t-1 56q0 12 -9.5 15.5t-26.5 4t-25 4.5l2 -2q-17 8 -30 31.5t-13 48.5q0 45 9 64t38 26q180 39 196 39q41 0 69 -37.5t28 -71.5q0 -58 -2 -186.5t-2 -157.5q0 -24 22 -30q78 -14 78 -95 q0 -94 -94 -94q-246 0 -299 6q-27 3 -48.5 34.5t-21.5 56.5z" />
<glyph unicode="&#xba;" horiz-adv-x="688" d="M47 958q0 149 77.5 227.5t227.5 78.5q138 0 209.5 -83t71.5 -220q0 -145 -77.5 -233.5t-207.5 -88.5q-143 0 -222 79t-79 240zM55 401q0 17 5 53t12 54q9 27 37 27q208 8 391 8q62 0 78 -3t30 -16q19 -22 19 -67q0 -46 -11.5 -85t-37.5 -42q-240 -17 -469 -17 q-21 0 -37.5 29t-16.5 59zM246 979q0 -66 20 -103.5t74 -37.5q88 0 88 127q0 125 -86 125q-96 0 -96 -111z" />
<glyph unicode="&#xbb;" horiz-adv-x="1040" d="M25 922q0 60 18 90q9 16 39.5 33.5t58.5 17.5q18 0 33 -12q139 -119 297 -273q35 -35 35 -114q0 -46 -17 -66q-129 -149 -253 -276q-23 -23 -46 -23q-79 0 -102.5 11.5t-40.5 58.5q-16 43 -16 63q0 34 16 53q19 19 71 63t77.5 74t25.5 56q0 32 -20 55q-16 16 -65.5 57 t-80 74t-30.5 58zM545 922q0 60 18 90q9 16 40 33.5t59 17.5q17 0 32 -12q139 -119 297 -273q35 -35 35 -114q0 -47 -16 -66q-121 -139 -254 -276q-23 -23 -45 -23q-80 0 -103.5 11.5t-40.5 58.5q-16 43 -16 63q0 34 16 53q19 19 71 63t77.5 74t25.5 56q0 32 -20 55 q-16 16 -65.5 57t-80 74t-30.5 58z" />
<glyph unicode="&#xbc;" horiz-adv-x="1478" d="M39 680q0 25 37 78q9 13 26 20.5t31.5 9t25.5 7.5t11 16v102q0 19 -1 56t-1 55q0 12 -10 16t-27 4.5t-25 4.5l3 -2q-17 8 -30 31t-13 48q0 46 9.5 65t37.5 26q176 38 196 38q41 0 69 -37t28 -71q0 -58 -2.5 -186.5t-2.5 -157.5q0 -24 23 -31q78 -14 78 -94q0 -94 -94 -94 q-246 0 -299 6q-27 3 -48.5 34t-21.5 56zM70 49q0 29 16 45l1014 1108q14 12 43 12q47 0 82 -54.5t35 -104.5q0 -23 -6 -36t-25 -34l-961 -1042q-13 -15 -43 -15q-35 0 -95 41t-60 80zM776 197q0 14 8 30l211 398q12 24 38.5 31.5t74.5 7.5q35 0 61 -29q35 -39 35 -60 q0 -17 -16 -43l-133 -253q-6 -9 -6 -19q0 -3 4 -6.5t8 -3.5h39q16 0 20 20l10 86q6 27 48.5 48.5t60.5 21.5q37 0 58.5 -26.5t21.5 -43.5v-80q0 -10 15.5 -13.5t37 -4.5t27.5 -4q19 -7 28 -30.5t9 -49.5q0 -24 -13 -43q-29 -38 -41 -46t-49 -11q-16 -2 -22 -9t-6 -28 q0 -25 -0.5 -35t-3 -25t-9.5 -21.5t-18.5 -15t-30.5 -16.5q-31 -14 -49 -14q-20 0 -41 12l-45 27q-27 12 -27 37v63q0 21 -14 21h-180q-16 0 -31.5 10.5t-24.5 21t-25 32.5t-22 30q-8 11 -8 33z" />
<glyph unicode="&#xbd;" horiz-adv-x="1490" d="M39 680q0 25 37 78q9 13 26 20.5t31.5 9t25.5 7.5t11 16v102q0 19 -1 56t-1 55q0 12 -10 16t-27 4.5t-25 4.5l3 -2q-17 8 -30 31t-13 48q0 46 9.5 65t37.5 26q176 38 196 38q41 0 69 -37t28 -71q0 -58 -2.5 -186.5t-2.5 -157.5q0 -24 23 -31q78 -14 78 -94q0 -94 -94 -94 q-246 0 -299 6q-27 3 -48.5 34t-21.5 56zM63 49q0 28 17 45l1014 1108q14 12 43 12q47 0 81.5 -54.5t34.5 -104.5q0 -23 -5.5 -36.5t-24.5 -33.5l-961 -1042q-12 -15 -43 -15q-35 0 -95.5 41t-60.5 80zM903 522q0 7 7 25t27.5 41t47.5 28q112 19 223 19q79 0 147 -55.5 t68 -135.5q0 -47 -14 -83.5t-57 -69.5l-111 -86q-4 -8 -4 -12q0 -9 12 -9h133q20 0 44 -31t24 -53q0 -33 -19 -76.5t-51 -48.5q-21 -2 -168.5 -7t-203.5 -5q-49 0 -76 48.5t-27 90.5q0 32 5 47.5t22 30.5l231 207q11 8 11 23q0 9 -6.5 16.5t-16.5 7.5q-13 0 -87 -8t-85 -8 q-21 0 -30 7t-27 44q-19 37 -19 53z" />
<glyph unicode="&#xbe;" horiz-adv-x="1572" d="M39 1147q0 28 32 60t60 32h334q21 0 56.5 -35t35.5 -65q0 -73 -37 -103l-76 -59q-8 -5 -8 -12q0 -6 19 -11q71 -11 114 -52.5t43 -104.5q0 -110 -61.5 -199t-159 -136.5t-207.5 -47.5q-34 0 -65 21.5t-31 58.5q0 36 11 70.5t34 41.5q53 16 89.5 29t76 32t60 41.5 t20.5 47.5q0 20 -12.5 33.5t-32.5 13.5q-26 0 -89 -7.5t-69 -7.5q-30 0 -47.5 24t-17.5 54q0 36 18 52l100 92q11 11 11 20q0 8 -15 8h-112q-33 0 -53.5 43t-20.5 66zM162 49q0 29 16 45l1014 1108q14 12 43 12q47 0 82 -54.5t35 -104.5q0 -23 -6 -36t-25 -34l-961 -1042 q-12 -15 -43 -15q-35 0 -95 41t-60 80zM872 197q0 12 9 30l211 398q12 24 38.5 31.5t73.5 7.5q36 0 62 -29q34 -38 34 -60q0 -17 -16 -43l-133 -253q-6 -9 -6 -19q0 -3 4 -6.5t8 -3.5h39q17 0 21 20l10 86q7 27 49 48.5t59 21.5q37 0 58.5 -26.5t21.5 -43.5v-80 q0 -10 15.5 -13.5t37 -4.5t27.5 -4q19 -7 28 -30.5t9 -49.5q0 -25 -12 -43q-29 -38 -41 -46t-49 -11q-16 -2 -22.5 -9t-6.5 -28q0 -25 -0.5 -35t-3 -25t-9.5 -21.5t-18.5 -15t-30.5 -16.5q-31 -14 -49 -14q-20 0 -41 12l-45 27q-26 12 -26 37v63q0 21 -15 21h-180 q-16 0 -31.5 10.5t-24 21t-24 32.5t-22.5 30q-9 12 -9 33z" />
<glyph unicode="&#xbf;" horiz-adv-x="819" d="M53 139q0 215 152 346q46 41 75.5 78t49.5 86q20 46 57.5 69t104.5 23q52 0 91.5 -49t39.5 -110t-37 -125l-82 -133q-22 -36 -28.5 -55t-6.5 -50q0 -60 30.5 -102t84.5 -60q15 -5 41.5 -12t47 -13.5t36.5 -13.5q37 -15 48 -50.5t11 -86.5q0 -39 -8.5 -78t-32.5 -71.5 t-59 -32.5q-148 0 -258.5 30.5t-200.5 104.5q-76 65 -116 137.5t-40 167.5zM256 1102q0 94 37 141q17 20 42 25.5t75 5.5q107 0 148.5 -5.5t62.5 -25.5q51 -48 51 -119v-118q0 -58 -33.5 -98t-79.5 -40h-141q-53 0 -102.5 36.5t-55.5 90.5q-4 31 -4 107z" />
<glyph unicode="&#xc0;" horiz-adv-x="1304" d="M49 258l287 913q7 23 27.5 39.5t46.5 22.5q445 76 481 76q54 0 67 -43l314 -1092q10 -31 10 -55q0 -53 -53 -104.5t-109 -51.5q-32 0 -172 19q-56 6 -74 63l-59 180q-16 47 -44 58.5t-103 11.5q-74 0 -98 -2t-38 -10q-25 -11 -28 -35l-41 -182q-9 -36 -58.5 -46 t-191.5 -10q-78 0 -98 47l-58 131q-18 36 -8 70zM311 1661q0 86 42.5 117.5t123.5 31.5q46 0 78 -26q148 -113 248 -213q18 -18 18 -70q0 -51 -35.5 -93t-78.5 -42q-33 0 -60 18q-149 107 -297 197q-39 24 -39 80zM557 659q0 -22 7.5 -35.5t23 -19t28.5 -7t35 -1.5 q70 0 97.5 14t21.5 58q-2 31 -35 161q-13 35 -57 35q-83 0 -100 -78q-21 -90 -21 -127z" />
<glyph unicode="&#xc1;" horiz-adv-x="1304" d="M49 258l287 913q7 23 27.5 39.5t46.5 22.5q445 76 481 76q54 0 67 -43l314 -1092q10 -31 10 -55q0 -53 -53 -104.5t-109 -51.5q-32 0 -172 19q-56 6 -74 63l-59 180q-16 47 -44 58.5t-103 11.5q-74 0 -98 -2t-38 -10q-25 -11 -28 -35l-41 -182q-9 -36 -58.5 -46 t-191.5 -10q-78 0 -98 47l-58 131q-18 36 -8 70zM483 1501q0 53 19 70q97 99 246 213q34 26 79 26q79 0 121.5 -31.5t42.5 -117.5q0 -56 -39 -80q-147 -91 -297 -197q-24 -18 -57 -18q-45 0 -80 41.5t-35 93.5zM557 659q0 -22 7.5 -35.5t23 -19t28.5 -7t35 -1.5 q70 0 97.5 14t21.5 58q-2 31 -35 161q-13 35 -57 35q-83 0 -100 -78q-21 -90 -21 -127z" />
<glyph unicode="&#xc2;" horiz-adv-x="1304" d="M49 258l287 913q7 23 27.5 39.5t46.5 22.5q445 76 481 76q54 0 67 -43l314 -1092q10 -31 10 -55q0 -53 -53 -104.5t-109 -51.5q-32 0 -172 19q-56 6 -74 63l-59 180q-16 47 -44 58.5t-103 11.5q-74 0 -98 -2t-38 -10q-25 -11 -28 -35l-41 -182q-9 -36 -58.5 -46 t-191.5 -10q-78 0 -98 47l-58 131q-18 36 -8 70zM270 1460q0 23 13 33q79 97 272 299q33 35 113 35q40 0 67 -17q146 -130 277 -254q22 -26 22 -45q0 -79 -11.5 -102.5t-59.5 -42.5q-35 -14 -64 -14q-37 0 -53 16q-15 15 -61.5 70t-76 79.5t-55.5 24.5q-33 0 -53 -20 q-17 -16 -57.5 -66.5t-74 -81.5t-58.5 -31q-19 0 -48 6.5t-43 14.5q-15 9 -32 38.5t-17 57.5zM557 659q0 -22 7.5 -35.5t23 -19t28.5 -7t35 -1.5q70 0 97.5 14t21.5 58q-2 31 -35 161q-13 35 -57 35q-83 0 -100 -78q-21 -90 -21 -127z" />
<glyph unicode="&#xc3;" horiz-adv-x="1304" d="M49 258l287 913q7 23 27.5 39.5t46.5 22.5q445 76 481 76q54 0 67 -43l314 -1092q10 -31 10 -55q0 -53 -53 -104.5t-109 -51.5q-32 0 -172 19q-56 6 -74 63l-59 180q-16 47 -44 58.5t-103 11.5q-74 0 -98 -2t-38 -10q-25 -11 -28 -35l-41 -182q-9 -36 -58.5 -46 t-191.5 -10q-78 0 -98 47l-58 131q-18 36 -8 70zM201 1536q0 47 53 100q40 40 95.5 64t109.5 24q55 0 121.5 -26t128 -52t104.5 -26q31 0 56 15t39 33t33 33t40 15q42 0 81.5 -37t39.5 -80q0 -38 -32.5 -84.5t-70.5 -80.5q-56 -50 -133 -50q-30 -1 -65 6t-54.5 13t-63 22.5 t-54.5 20.5q-109 39 -140 39q-28 0 -50.5 -15.5t-35 -34t-31 -34t-40.5 -15.5q-44 0 -87.5 53t-43.5 97zM557 659q0 -22 7.5 -35.5t23 -19t28.5 -7t35 -1.5q70 0 97.5 14t21.5 58q-2 31 -35 161q-13 35 -57 35q-83 0 -100 -78q-21 -90 -21 -127z" />
<glyph unicode="&#xc4;" horiz-adv-x="1304" d="M49 258l287 913q7 23 27.5 39.5t46.5 22.5q445 76 481 76q54 0 67 -43l314 -1092q10 -31 10 -55q0 -53 -53 -104.5t-109 -51.5q-32 0 -172 19q-56 6 -74 63l-59 180q-16 47 -44 58.5t-103 11.5q-74 0 -98 -2t-38 -10q-25 -11 -28 -35l-41 -182q-9 -36 -58.5 -46 t-191.5 -10q-78 0 -98 47l-58 131q-18 36 -8 70zM217 1587q0 80 24.5 112t108.5 32q99 0 134.5 -3t54.5 -14q51 -33 51 -106q0 -85 -11 -121.5t-32 -54.5q-33 -23 -82 -23q-91 0 -131.5 7t-67.5 26q-22 17 -33.5 42.5t-13.5 46.5t-2 56zM557 659q0 -22 7.5 -35.5t23 -19 t28.5 -7t35 -1.5q70 0 97.5 14t21.5 58q-2 31 -35 161q-13 35 -57 35q-83 0 -100 -78q-21 -90 -21 -127zM713 1587q0 80 24.5 112t108.5 32q100 0 135.5 -3t52.5 -14q51 -33 51 -106q0 -85 -11 -121.5t-32 -54.5q-33 -23 -81 -23q-91 0 -131.5 7t-67.5 26q-22 17 -33.5 42.5 t-13.5 46.5t-2 56z" />
<glyph unicode="&#xc5;" horiz-adv-x="1304" d="M49 258l287 913q7 23 27.5 39.5t46.5 22.5q445 76 481 76q54 0 67 -43l314 -1092q10 -31 10 -55q0 -53 -53 -104.5t-109 -51.5q-32 0 -172 19q-56 6 -74 63l-59 180q-16 47 -44 58.5t-103 11.5q-74 0 -98 -2t-38 -10q-25 -11 -28 -35l-41 -182q-9 -36 -58.5 -46 t-191.5 -10q-78 0 -98 47l-58 131q-18 36 -8 70zM373 1567q0 138 73.5 198t210.5 60q138 0 205.5 -68.5t67.5 -193.5q0 -129 -70 -200t-211 -71q-77 0 -132 21.5t-85.5 60.5t-44.5 86.5t-14 106.5zM553 1567q0 -50 28.5 -79.5t75.5 -29.5q44 0 68.5 29.5t24.5 75.5 q0 54 -26.5 84t-72.5 30q-45 0 -71.5 -29t-26.5 -81zM557 659q0 -22 7.5 -35.5t23 -19t28.5 -7t35 -1.5q70 0 97.5 14t21.5 58q-2 31 -35 161q-13 35 -57 35q-83 0 -100 -78q-21 -90 -21 -127z" />
<glyph unicode="&#xc6;" horiz-adv-x="1832" d="M45 231q0 11 4 27l287 913q6 23 27 41t47 21q153 11 623 32t579 21q49 0 68 -14.5t67 -83.5q14 -22 14 -43q0 -32 -45 -164q-11 -30 -29 -45t-51 -18l-393 -29q-29 -3 -40 -14.5t-11 -34.5q0 -51 14.5 -74.5t46.5 -26.5q55 -5 207 -8t176 -4q47 -1 71 -32t24 -74 q0 -115 -103 -123q-60 -4 -183 -11.5t-147 -9.5q-29 -3 -41 -17t-12 -46q0 -63 22.5 -86t69.5 -23q59 0 167 7t167 7q71 0 84 -34q29 -82 29 -150q0 -31 -7.5 -51t-37.5 -61q-35 -49 -57.5 -63.5t-61.5 -16.5q-165 -13 -576 -13q-40 0 -124.5 60.5t-94.5 101.5 q-10 49 -10 109t-29.5 77t-117.5 17q-74 0 -98 -2t-38 -10q-25 -11 -28 -35l-41 -182q-9 -36 -58.5 -46t-191.5 -10q-78 0 -98 47l-58 131q-12 21 -12 43zM557 659q0 -22 7.5 -35.5t23 -19t28.5 -7t35 -1.5q45 0 66 2.5t41 13t26.5 33.5t6.5 64l-3 77q-2 41 -24.5 59.5 t-85.5 18.5q-83 0 -100 -78q-21 -90 -21 -127z" />
<glyph unicode="&#xc7;" horiz-adv-x="1097" d="M57 623q0 92 11.5 167t40 153t85.5 144.5t140 118.5q79 52 218.5 86.5t266.5 34.5q52 0 71 -9.5t48 -51.5q59 -87 59 -148q0 -26 -18 -114q-13 -50 -64 -56q-20 -3 -112.5 -9t-114.5 -9q-106 -11 -162.5 -82t-56.5 -195q0 -142 75 -225.5t222 -83.5q22 0 68.5 4t70.5 4 q23 0 45 -14.5t29 -38.5q37 -126 37 -154t-6 -47.5t-31 -68.5q-28 -51 -43 -68t-37 -20q-74 -13 -190 -13q-365 0 -543 297q-109 185 -109 398zM434 -227q0 22 8 36t39 48q31 33 48 41t55 8q129 0 190.5 -11.5t79.5 -44.5q29 -61 29 -96q0 -63 -84.5 -179.5t-167.5 -182.5 q-29 -23 -86 -23q-44 0 -68 27t-24 61q0 29 14 89t14 89q0 17 -23.5 70t-23.5 68z" />
<glyph unicode="&#xc8;" horiz-adv-x="1112" d="M59 92q0 60 8 247.5t20 449.5t17 399q0 19 16.5 35.5t37.5 17.5q41 3 176 13.5t211.5 15.5t179 10.5t166.5 5.5q49 0 68 -14.5t67 -83.5q14 -22 14 -43q0 -32 -45 -164q-11 -30 -29 -45t-51 -18l-364 -29q-34 -3 -45.5 -18.5t-11.5 -49.5q0 -41 11.5 -60t41.5 -22 q54 -5 199.5 -8t168.5 -4q47 -1 71 -32t24 -74q0 -14 -15 -64q-11 -32 -31.5 -44t-56.5 -15q-60 -4 -187.5 -11.5t-150.5 -9.5q-34 -3 -47.5 -22.5t-13.5 -63.5q0 -50 19.5 -68t62.5 -18q61 0 181 7t179 7q71 0 84 -34q29 -82 29 -150q0 -31 -7.5 -51t-37.5 -61 q-35 -49 -57.5 -63.5t-61.5 -16.5q-165 -13 -635 -13q-42 0 -123.5 60t-81.5 102zM233 1661q0 86 42.5 117.5t123.5 31.5q46 0 78 -26q148 -113 248 -213q18 -18 18 -70q0 -51 -35.5 -93t-78.5 -42q-33 0 -60 18q-149 107 -297 197q-39 24 -39 80z" />
<glyph unicode="&#xc9;" horiz-adv-x="1112" d="M59 92q0 60 8 247.5t20 449.5t17 399q0 19 16.5 35.5t37.5 17.5q41 3 176 13.5t211.5 15.5t179 10.5t166.5 5.5q49 0 68 -14.5t67 -83.5q14 -22 14 -43q0 -32 -45 -164q-11 -30 -29 -45t-51 -18l-364 -29q-34 -3 -45.5 -18.5t-11.5 -49.5q0 -41 11.5 -60t41.5 -22 q54 -5 199.5 -8t168.5 -4q47 -1 71 -32t24 -74q0 -14 -15 -64q-11 -32 -31.5 -44t-56.5 -15q-60 -4 -187.5 -11.5t-150.5 -9.5q-34 -3 -47.5 -22.5t-13.5 -63.5q0 -50 19.5 -68t62.5 -18q61 0 181 7t179 7q71 0 84 -34q29 -82 29 -150q0 -31 -7.5 -51t-37.5 -61 q-35 -49 -57.5 -63.5t-61.5 -16.5q-165 -13 -635 -13q-42 0 -123.5 60t-81.5 102zM403 1501q0 53 19 70q97 99 246 213q34 26 80 26q79 0 121 -31.5t42 -117.5q0 -56 -39 -80q-147 -91 -297 -197q-24 -18 -57 -18q-45 0 -80 41.5t-35 93.5z" />
<glyph unicode="&#xca;" horiz-adv-x="1112" d="M59 92q0 60 8 247.5t20 449.5t17 399q0 19 16.5 35.5t37.5 17.5q41 3 176 13.5t211.5 15.5t179 10.5t166.5 5.5q49 0 68 -14.5t67 -83.5q14 -22 14 -43q0 -32 -45 -164q-11 -30 -29 -45t-51 -18l-364 -29q-34 -3 -45.5 -18.5t-11.5 -49.5q0 -41 11.5 -60t41.5 -22 q54 -5 199.5 -8t168.5 -4q47 -1 71 -32t24 -74q0 -14 -15 -64q-11 -32 -31.5 -44t-56.5 -15q-60 -4 -187.5 -11.5t-150.5 -9.5q-34 -3 -47.5 -22.5t-13.5 -63.5q0 -50 19.5 -68t62.5 -18q61 0 181 7t179 7q71 0 84 -34q29 -82 29 -150q0 -31 -7.5 -51t-37.5 -61 q-35 -49 -57.5 -63.5t-61.5 -16.5q-165 -13 -635 -13q-42 0 -123.5 60t-81.5 102zM182 1460q0 23 13 33q79 97 272 299q33 35 113 35q40 0 67 -17q146 -130 277 -254q22 -26 22 -45q0 -79 -12 -102.5t-60 -42.5q-35 -14 -63 -14q-37 0 -53 16q-15 15 -61.5 70t-76 79.5 t-55.5 24.5q-33 0 -53 -20q-17 -16 -57.5 -66.5t-74 -81.5t-58.5 -31q-19 0 -48 6.5t-43 14.5q-15 9 -32 38.5t-17 57.5z" />
<glyph unicode="&#xcb;" horiz-adv-x="1112" d="M59 92q0 60 8 247.5t20 449.5t17 399q0 19 16.5 35.5t37.5 17.5q41 3 176 13.5t211.5 15.5t179 10.5t166.5 5.5q49 0 68 -14.5t67 -83.5q14 -22 14 -43q0 -32 -45 -164q-11 -30 -29 -45t-51 -18l-364 -29q-34 -3 -45.5 -18.5t-11.5 -49.5q0 -41 11.5 -60t41.5 -22 q54 -5 199.5 -8t168.5 -4q47 -1 71 -32t24 -74q0 -14 -15 -64q-11 -32 -31.5 -44t-56.5 -15q-60 -4 -187.5 -11.5t-150.5 -9.5q-34 -3 -47.5 -22.5t-13.5 -63.5q0 -50 19.5 -68t62.5 -18q61 0 181 7t179 7q71 0 84 -34q29 -82 29 -150q0 -31 -7.5 -51t-37.5 -61 q-35 -49 -57.5 -63.5t-61.5 -16.5q-165 -13 -635 -13q-42 0 -123.5 60t-81.5 102zM141 1587q0 80 24.5 112t108.5 32q99 0 134.5 -3t54.5 -14q51 -33 51 -106q0 -85 -11 -121.5t-32 -54.5q-33 -23 -82 -23q-91 0 -131.5 7t-67.5 26q-22 17 -33.5 42.5t-13.5 46.5t-2 56z M637 1587q0 80 24.5 112t108.5 32q100 0 135.5 -3t52.5 -14q52 -34 52 -106q0 -85 -11 -121.5t-32 -54.5q-33 -23 -82 -23q-91 0 -131.5 7t-67.5 26q-22 17 -33.5 42.5t-13.5 46.5t-2 56z" />
<glyph unicode="&#xcc;" horiz-adv-x="655" d="M2 1661q0 86 42.5 117.5t123.5 31.5q46 0 78 -26q148 -113 248 -213q18 -18 18 -70q0 -51 -36 -93t-79 -42q-32 0 -59 18q-149 107 -297 197q-39 24 -39 80zM123 172q0 167 8 533t14 450q1 44 26.5 65t96.5 40q81 22 105 22q30 0 46 -9t58 -46q39 -36 53 -61t17 -70 q24 -506 24 -979q0 -30 -15 -47.5t-85 -67.5q-65 -45 -96 -45q-19 0 -44 12t-95 58q-77 53 -95 75t-18 70z" />
<glyph unicode="&#xcd;" horiz-adv-x="641" d="M96 172q0 164 8.5 531t14.5 452q1 44 26.5 65t96.5 40q81 22 104 22q31 0 47.5 -9.5t57.5 -45.5q38 -35 52 -60t17 -71q25 -527 25 -979q0 -30 -15 -47.5t-86 -67.5q-65 -45 -96 -45q-19 0 -44 12t-95 58q-77 53 -95 75t-18 70zM145 1501q0 53 19 70q97 99 246 213 q34 26 79 26q79 0 121.5 -31.5t42.5 -117.5q0 -56 -39 -80q-147 -91 -297 -197q-24 -18 -57 -18q-45 0 -80 41.5t-35 93.5z" />
<glyph unicode="&#xce;" horiz-adv-x="681" d="M-31 1460q0 23 13 33q79 97 272 299q33 35 113 35q40 0 67 -17q146 -130 277 -254q22 -26 22 -45q0 -79 -11.5 -102.5t-59.5 -42.5q-35 -14 -64 -14q-37 0 -53 16q-15 15 -61.5 70t-76 79.5t-55.5 24.5q-33 0 -53 -20q-17 -16 -57.5 -66.5t-74 -81.5t-58.5 -31 q-19 0 -48 6.5t-43 14.5q-15 9 -32 38.5t-17 57.5zM133 172q0 164 8.5 531t14.5 452q1 44 26.5 65t96.5 40q81 22 104 22q30 0 46 -9t58 -46q39 -36 53 -61t17 -70q25 -527 25 -979q0 -30 -15 -47.5t-86 -67.5q-65 -45 -96 -45q-19 0 -44 12t-95 58q-77 53 -95 75t-18 70z " />
<glyph unicode="&#xcf;" horiz-adv-x="735" d="M-63 1587q0 80 24.5 112t108.5 32q99 0 134 -3t54 -14q51 -33 51 -106q0 -85 -11 -121.5t-32 -54.5q-33 -23 -82 -23q-91 0 -131 7t-67 26q-22 17 -33.5 42.5t-13.5 46.5t-2 56zM154 172q0 167 8 533t14 450q1 44 26.5 65t96.5 40q81 22 104 22q31 0 47.5 -9.5 t57.5 -45.5q39 -36 53 -61t17 -70q24 -506 24 -979q0 -30 -15 -47.5t-85 -67.5q-65 -45 -96 -45q-19 0 -44.5 12t-95.5 58q-76 53 -94 75t-18 70zM432 1587q0 80 24.5 112t108.5 32q100 0 136 -3t53 -14q51 -33 51 -106q0 -85 -11 -121.5t-32 -54.5q-33 -23 -82 -23 q-91 0 -131.5 7t-67.5 26q-22 17 -33.5 42.5t-13.5 46.5t-2 56z" />
<glyph unicode="&#xd0;" horiz-adv-x="1298" d="M-25 645q0 16 9.5 57.5t19.5 65.5q9 18 20 24.5t33 6.5q33 0 33 49q2 142 10 311q0 29 19.5 49t50.5 25q407 47 645 47q175 0 289 -123q55 -61 88.5 -151t43 -158t9.5 -133q0 -130 -37 -247t-120.5 -218t-206.5 -158q-63 -28 -222 -76t-286 -79q-43 -11 -60 -11 q-65 0 -131 66q-65 65 -84.5 98t-19.5 82q0 12 2 128.5t2 205.5q0 39 -27 39q-30 0 -55 32.5t-25 67.5zM483 846q0 -39 52 -39q64 0 94 -11t36.5 -29t6.5 -58q0 -23 -3 -45.5t-10 -46.5t-23 -39.5t-38 -16.5l-53 -4q-23 -1 -35 -17t-14 -32.5t-2 -44.5q0 -47 61 -47 q133 0 202.5 83t69.5 244q0 60 -13 99t-39 56t-51.5 22.5t-64.5 5.5q-107 0 -141.5 -15.5t-34.5 -64.5z" />
<glyph unicode="&#xd1;" horiz-adv-x="1245" d="M72 141q0 88 30 955q2 35 28 57.5t103 52.5q74 29 101 29q44 0 90 -64l301 -438q28 -28 33 -31q8 -6 20 -6q16 0 28.5 10.5t12.5 26.5q0 231 8 387q2 26 21 41.5t82 40.5q69 27 90 27q24 0 38.5 -8t39.5 -33q30 -28 40.5 -46.5t10.5 -39.5q6 -94 6 -1118q0 -19 -12.5 -34 t-24 -21t-37.5 -17q-69 -25 -102 -25q-37 0 -97 19.5t-81 48.5q-43 59 -89.5 130.5t-104 163t-87.5 138.5q-17 27 -45 27q-22 0 -34.5 -16t-12.5 -42q0 -41 1 -117t1 -106q0 -42 -24 -60t-95 -36q-69 -14 -94 -14t-41.5 6t-48.5 28q-55 41 -55 84zM172 1464q0 48 53 101 q40 40 95.5 64t109.5 24q55 0 121.5 -26.5t128 -52.5t104.5 -26q31 0 56 15t39 33.5t33 33.5t40 15q42 0 81.5 -37t39.5 -80q0 -38 -32.5 -85.5t-69.5 -80.5q-55 -49 -133 -49q-30 -1 -66 6t-53 12t-65 23t-54 20q-109 39 -139 39q-28 0 -50.5 -15.5t-35 -33.5t-31.5 -33.5 t-41 -15.5q-44 0 -87.5 52.5t-43.5 96.5z" />
<glyph unicode="&#xd2;" d="M47 535q-17 168 17.5 310t111 241.5t194.5 155.5t263 56q604 0 604 -657q0 -725 -614 -725q-129 0 -234 49t-175 135t-112 196t-55 239zM299 1661q0 86 42.5 117.5t123.5 31.5q46 0 78 -26q148 -113 248 -213q18 -18 18 -70q0 -51 -36 -93t-79 -42q-32 0 -59 18 q-149 107 -297 197q-39 24 -39 80zM428 635q0 -49 13 -99.5t38.5 -95.5t70.5 -73.5t101 -28.5q50 0 90 28.5t64 73t36.5 93.5t12.5 96q0 71 -20.5 135.5t-69 111t-115.5 46.5q-56 0 -100 -24.5t-69.5 -66.5t-38.5 -91.5t-13 -104.5z" />
<glyph unicode="&#xd3;" d="M47 535q-17 168 17.5 310t111 241.5t194.5 155.5t263 56q604 0 604 -657q0 -725 -614 -725q-129 0 -234 49t-175 135t-112 196t-55 239zM428 635q0 -49 13 -99.5t38.5 -95.5t70.5 -73.5t101 -28.5q50 0 90 28.5t64 73t36.5 93.5t12.5 96q0 71 -20.5 135.5t-69 111 t-115.5 46.5q-56 0 -100 -24.5t-69.5 -66.5t-38.5 -91.5t-13 -104.5zM471 1501q0 31 3.5 45.5t14.5 24.5q97 99 246 213q34 26 80 26q79 0 121.5 -31.5t42.5 -117.5q0 -56 -39 -80q-147 -91 -297 -197q-24 -18 -57 -18q-45 0 -80 41.5t-35 93.5z" />
<glyph unicode="&#xd4;" d="M47 535q-17 168 17.5 310t111 241.5t194.5 155.5t263 56q604 0 604 -657q0 -725 -614 -725q-129 0 -234 49t-175 135t-112 196t-55 239zM258 1460q0 23 12 33q73 90 273 299q33 35 112 35q41 0 68 -17q132 -117 276 -254q23 -27 23 -45q0 -79 -12 -102.5t-60 -42.5 q-35 -14 -63 -14q-37 0 -53 16q-15 15 -61.5 70t-76 79.5t-55.5 24.5q-33 0 -53 -20q-17 -16 -58 -66.5t-74.5 -81.5t-58.5 -31q-19 0 -47.5 6.5t-42.5 14.5q-15 9 -32 38.5t-17 57.5zM428 635q0 -49 13 -99.5t38.5 -95.5t70.5 -73.5t101 -28.5q50 0 90 28.5t64 73 t36.5 93.5t12.5 96q0 71 -20.5 135.5t-69 111t-115.5 46.5q-56 0 -100 -24.5t-69.5 -66.5t-38.5 -91.5t-13 -104.5z" />
<glyph unicode="&#xd5;" d="M47 535q-17 168 17.5 310t111 241.5t194.5 155.5t263 56q604 0 604 -657q0 -725 -614 -725q-129 0 -234 49t-175 135t-112 196t-55 239zM188 1536q0 46 54 100q40 40 95 64t109 24q55 0 121.5 -26t128.5 -52t105 -26q31 0 56 15t39 33t33 33t40 15q42 0 81.5 -37 t39.5 -80q0 -38 -32.5 -84.5t-70.5 -80.5q-56 -50 -133 -50q-30 -1 -65.5 6t-54.5 13t-63.5 22.5t-54.5 20.5q-109 39 -139 39q-28 0 -50.5 -15.5t-35 -34t-31.5 -34t-41 -15.5q-44 0 -87.5 53t-43.5 97zM428 635q0 -49 13 -99.5t38.5 -95.5t70.5 -73.5t101 -28.5 q50 0 90 28.5t64 73t36.5 93.5t12.5 96q0 71 -20.5 135.5t-69 111t-115.5 46.5q-56 0 -100 -24.5t-69.5 -66.5t-38.5 -91.5t-13 -104.5z" />
<glyph unicode="&#xd6;" d="M47 535q-17 168 17.5 310t111 241.5t194.5 155.5t263 56q604 0 604 -657q0 -725 -614 -725q-129 0 -234 49t-175 135t-112 196t-55 239zM205 1587q0 80 24.5 112t108.5 32q99 0 134 -3t54 -14q52 -34 52 -106q0 -85 -11 -121.5t-32 -54.5q-33 -23 -82 -23q-91 0 -131.5 7 t-67.5 26q-22 17 -33.5 42.5t-13.5 46.5t-2 56zM428 635q0 -49 13 -99.5t38.5 -95.5t70.5 -73.5t101 -28.5q50 0 90 28.5t64 73t36.5 93.5t12.5 96q0 71 -20.5 135.5t-69 111t-115.5 46.5q-56 0 -100 -24.5t-69.5 -66.5t-38.5 -91.5t-13 -104.5zM700 1587q0 80 25 112 t109 32q99 0 135 -3t53 -14q51 -33 51 -106q0 -85 -11 -121.5t-32 -54.5q-33 -23 -82 -23q-91 0 -131 7t-67 26q-32 25 -41 58.5t-9 86.5z" />
<glyph unicode="&#xd7;" horiz-adv-x="1230" d="M154 874q0 49 39 91q10 10 52 40.5t56 38.5q36 19 55 19q31 0 56 -25l153 -149q21 -21 53 -21q24 0 41 17l148 145q19 19 34 25t48 6q62 0 92 -35q8 -8 23.5 -30t31 -45.5t19.5 -28.5q4 -4 10 -18.5t6 -18.5q4 -15 4 -19q0 -31 -20 -51l-152 -158q-18 -18 -18 -47 q0 -27 18 -45l152 -157q26 -23 26 -70q0 -49 -39 -88q-27 -27 -94 -70q-33 -22 -59 -22q-22 0 -53 22l-164 150q-15 18 -41 18q-23 0 -47 -24l-164 -158q-26 -23 -68 -23q-74 0 -106 54l-66 102q-10 14 -6.5 40.5t21.5 47.5l149 162q21 21 21 47q0 18 -4.5 26.5t-18.5 22.5 l-158 158q-30 30 -30 71z" />
<glyph unicode="&#xd8;" d="M41 643q0 294 162 474.5t430 180.5q107 0 223 -28l76 137q5 11 16 19t21 8q16 0 48 -11.5t50 -25.5q15 -12 38 -48t23 -53q0 -19 -18 -49l-49 -88q176 -167 176 -518q0 -725 -614 -725q-122 0 -220 43l-49 -92q-26 -45 -63 -45q-64 0 -121 31q-17 8 -33 26.5t-16 40.5 q0 12 12 33l80 147q-85 98 -128.5 240.5t-43.5 302.5zM428 635q0 -66 16 -115l220 400q-4 2 -15 2q-56 0 -100 -24.5t-69.5 -66.5t-38.5 -91.5t-13 -104.5zM614 342q20 -4 37 -4q50 0 90 28.5t64 73t36.5 93.5t12.5 96q0 59 -16 121z" />
<glyph unicode="&#xd9;" horiz-adv-x="1329" d="M61 260q0 197 7.5 483t13.5 385q3 36 13 54t40 34.5t98 38.5q70 21 101 21t74 -14q64 -21 83 -39.5t19 -67.5q0 -73 -1 -380.5t-1 -395.5q0 -56 35 -77t112 -21q50 0 90.5 7.5t70.5 28t30 52.5q0 120 -8.5 367.5t-8.5 379.5q0 42 11 64.5t49 52.5q35 26 56.5 34.5 t49.5 8.5q12 0 24 -2t20.5 -4.5t30 -9t38.5 -11.5q69 -22 92 -39.5t23 -58.5q15 -442 26 -993q0 -64 -9.5 -89.5t-49.5 -58.5q-61 -50 -115 -61q-54 -9 -288.5 -23t-362.5 -14q-65 0 -109.5 19t-124.5 87q-64 54 -90 87.5t-32.5 62.5t-6.5 92zM322 1661q0 86 42 117.5 t123 31.5q46 0 78 -26q148 -113 248 -213q18 -18 18 -70q0 -51 -35.5 -93t-78.5 -42q-33 0 -60 18q-149 107 -297 197q-38 23 -38 80z" />
<glyph unicode="&#xda;" horiz-adv-x="1329" d="M61 260q0 197 7.5 483t13.5 385q3 36 13 54t40 34.5t98 38.5q70 21 101 21t74 -14q64 -21 83 -39.5t19 -67.5q0 -73 -1 -380.5t-1 -395.5q0 -56 35 -77t112 -21q50 0 90.5 7.5t70.5 28t30 52.5q0 120 -8.5 367.5t-8.5 379.5q0 42 11 64.5t49 52.5q35 26 56.5 34.5 t49.5 8.5q12 0 24 -2t20.5 -4.5t30 -9t38.5 -11.5q69 -22 92 -39.5t23 -58.5q15 -442 26 -993q0 -64 -9.5 -89.5t-49.5 -58.5q-61 -50 -115 -61q-54 -9 -288.5 -23t-362.5 -14q-65 0 -109.5 19t-124.5 87q-64 54 -90 87.5t-32.5 62.5t-6.5 92zM496 1501q0 31 3.5 45.5 t14.5 24.5q97 99 246 213q34 26 80 26q79 0 121.5 -31.5t42.5 -117.5q0 -56 -39 -80q-147 -91 -297 -197q-24 -18 -58 -18q-45 0 -79.5 41.5t-34.5 93.5z" />
<glyph unicode="&#xdb;" horiz-adv-x="1329" d="M61 260q0 197 7.5 483t13.5 385q3 36 13 54t40 34.5t98 38.5q70 21 101 21t74 -14q64 -21 83 -39.5t19 -67.5q0 -73 -1 -380.5t-1 -395.5q0 -56 35 -77t112 -21q50 0 90.5 7.5t70.5 28t30 52.5q0 120 -8.5 367.5t-8.5 379.5q0 42 11 64.5t49 52.5q35 26 56.5 34.5 t49.5 8.5q12 0 24 -2t20.5 -4.5t30 -9t38.5 -11.5q69 -22 92 -39.5t23 -58.5q15 -442 26 -993q0 -64 -9.5 -89.5t-49.5 -58.5q-61 -50 -115 -61q-54 -9 -288.5 -23t-362.5 -14q-65 0 -109.5 19t-124.5 87q-64 54 -90 87.5t-32.5 62.5t-6.5 92zM283 1460q0 23 12 33 q79 97 272 299q33 35 113 35q41 0 68 -17q132 -117 276 -254q23 -27 23 -45q0 -79 -12 -102.5t-60 -42.5q-35 -14 -64 -14q-37 0 -53 16t-61.5 70t-75 79t-55.5 25q-34 0 -54 -20q-17 -16 -57.5 -66.5t-74 -81.5t-58.5 -31q-19 0 -47.5 6.5t-42.5 14.5q-15 9 -32 38.5 t-17 57.5z" />
<glyph unicode="&#xdc;" horiz-adv-x="1329" d="M61 260q0 197 7.5 483t13.5 385q3 36 13 54t40 34.5t98 38.5q70 21 101 21t74 -14q64 -21 83 -39.5t19 -67.5q0 -73 -1 -380.5t-1 -395.5q0 -56 35 -77t112 -21q50 0 90.5 7.5t70.5 28t30 52.5q0 120 -8.5 367.5t-8.5 379.5q0 42 11 64.5t49 52.5q35 26 56.5 34.5 t49.5 8.5q12 0 24 -2t20.5 -4.5t30 -9t38.5 -11.5q69 -22 92 -39.5t23 -58.5q15 -442 26 -993q0 -64 -9.5 -89.5t-49.5 -58.5q-61 -50 -115 -61q-54 -9 -288.5 -23t-362.5 -14q-65 0 -109.5 19t-124.5 87q-64 54 -90 87.5t-32.5 62.5t-6.5 92zM229 1587q0 80 24.5 112 t108.5 32q99 0 134.5 -3t54.5 -14q51 -33 51 -106q0 -85 -11 -121.5t-32 -54.5q-33 -23 -82 -23q-91 0 -131 7t-67 26q-32 25 -41 58.5t-9 86.5zM725 1587q0 80 24.5 112t108.5 32q100 0 136 -3t53 -14q51 -33 51 -106q0 -85 -11 -121.5t-32 -54.5q-33 -23 -82 -23 q-91 0 -131.5 7t-67.5 26q-22 17 -33.5 42.5t-13.5 46.5t-2 56z" />
<glyph unicode="&#xdd;" horiz-adv-x="1312" d="M80 451q0 95 8.5 365.5t11.5 313.5q2 20 13.5 38.5t29.5 25.5q49 22 95 37q92 31 120 31q20 0 82 -25q52 -23 69 -45t17 -74q0 -101 -10 -314.5t-10 -258.5q0 -82 90 -82q162 0 205 20q43 21 43 66q0 97 -1 292t-1 251q0 57 20 81.5t84 51.5q70 32 103 32q30 0 92 -22 q62 -24 81 -46.5t19 -76.5q0 -86 -15.5 -641t-23.5 -645q-3 -30 -26 -66.5t-84 -101.5q-83 -90 -121 -117.5t-94 -36.5q-213 -34 -371 -34q-45 0 -66.5 14t-64.5 65q-42 52 -52 70.5t-10 54.5q0 19 15 78q15 77 75 86q57 10 121.5 20t92 14.5t53.5 10.5t41 13q60 29 85 61 t25 90q0 48 -17.5 67t-62.5 19q-29 0 -187 -17.5t-183 -17.5q-53 0 -93.5 25t-103.5 106q-61 76 -77.5 115.5t-16.5 106.5zM522 1501q0 53 19 70q100 102 245 213q34 26 80 26q79 0 121.5 -31.5t42.5 -117.5q0 -56 -39 -80q-147 -91 -297 -197q-24 -18 -57 -18 q-45 0 -80 41.5t-35 93.5z" />
<glyph unicode="&#xde;" horiz-adv-x="1243" d="M94 180q0 47 11 487.5t14 499.5q3 54 51 70q137 49 180 49q35 0 74 -31q3 -4 16 -17t29.5 -29t19.5 -19q11 -12 16.5 -24.5t10 -31t8.5 -28.5q10 -29 25 -36t49 -7q33 0 98.5 6t98.5 6q161 0 247 -63q74 -63 115 -138q41 -77 41 -190q0 -199 -74 -305q-30 -41 -74 -76 t-87 -39l-353 -35q-19 -1 -33.5 -16t-19.5 -35q-3 -7 -12 -82q0 -20 -33 -53q-64 -57 -102 -74q-32 -16 -60 -16q-27 0 -39 10l-172 109q-45 31 -45 108zM537 571q4 -71 45 -82h28h33q50 8 82 19q37 14 56.5 51t19.5 80q0 95 -58 125q-36 18 -45 18h-102q-44 0 -59 -53v-78 v-80z" />
<glyph unicode="&#xdf;" horiz-adv-x="1488" d="M123 -27v205q14 429 27 1041q1 65 25.5 116.5t68.5 84t94.5 55t114 33.5t117 15.5t112.5 4.5q63 0 126.5 -10t128.5 -35.5t115 -62.5t81.5 -96t31.5 -132q0 -72 -24.5 -215t-24.5 -215q0 -92 55 -164q11 -14 63 -77.5t90.5 -117t53.5 -90.5q39 -98 39 -211 q0 -98 -39 -198t-112 -164q-70 -61 -183 -92t-223 -31q-40 0 -63.5 15t-63.5 71q-40 58 -49.5 83t-9.5 79q0 50 12.5 72.5t50.5 25.5q122 11 160 21q118 32 119 127q0 42 -39 110q-19 31 -58.5 92t-62 100t-49 97t-39 120.5t-12.5 133.5q0 32 17.5 178.5t17.5 169.5 q0 49 -22 86t-69 37q-133 0 -135 -96q-3 -61 -5 -200t-2.5 -261.5t-1.5 -325.5t-1 -280q0 -10 -9.5 -27t-19.5 -27q-108 -141 -180 -141q-36 0 -87 11.5t-93.5 35t-42.5 49.5z" />
<glyph unicode="&#xe0;" horiz-adv-x="1064" d="M49 281q0 100 47 177.5t140 98.5q35 8 94.5 12.5t149.5 8.5t126 6q19 1 32 18t13 35q0 28 -14 46.5t-39 18.5q-36 0 -195 -4t-200 -4q-32 0 -64.5 56t-32.5 92t35.5 95.5t71.5 63.5q400 31 530 31q55 0 132 -54.5t83 -113.5q16 -164 35 -442t19 -332q0 -115 -99 -125 q-66 -8 -200 -15t-219 -7q-83 0 -142.5 6.5t-120 27t-98 57t-61 98.5t-23.5 149zM193 1423q0 86 42.5 118t122.5 32q45 0 78 -27q148 -113 248 -213q18 -18 18 -69t-35.5 -93.5t-78.5 -42.5q-32 0 -60 19q-140 101 -297 196q-38 23 -38 80zM399 315q0 -48 32.5 -65 t111.5 -17q108 0 108 76q0 84 -63 84h-105q-36 0 -60 -20t-24 -58z" />
<glyph unicode="&#xe1;" horiz-adv-x="1064" d="M49 281q0 100 47 177.5t140 98.5q35 8 94.5 12.5t149.5 8.5t126 6q19 1 32 18t13 35q0 28 -14 46.5t-39 18.5q-36 0 -195 -4t-200 -4q-32 0 -64.5 56t-32.5 92t35.5 95.5t71.5 63.5q400 31 530 31q55 0 132 -54.5t83 -113.5q16 -164 35 -442t19 -332q0 -115 -99 -125 q-66 -8 -200 -15t-219 -7q-83 0 -142.5 6.5t-120 27t-98 57t-61 98.5t-23.5 149zM365 1264q0 31 3.5 45t14.5 24q97 99 246 213q36 27 80 27q79 0 121 -32t42 -118q0 -57 -38 -80q-158 -98 -297 -196q-25 -19 -58 -19q-45 0 -79.5 42t-34.5 94zM399 315q0 -48 32.5 -65 t111.5 -17q108 0 108 76q0 84 -63 84h-105q-36 0 -60 -20t-24 -58z" />
<glyph unicode="&#xe2;" horiz-adv-x="1064" d="M49 281q0 100 47 177.5t140 98.5q35 8 94.5 12.5t149.5 8.5t126 6q19 1 32 18t13 35q0 28 -14 46.5t-39 18.5q-36 0 -195 -4t-200 -4q-32 0 -64.5 56t-32.5 92t35.5 95.5t71.5 63.5q400 31 530 31q55 0 132 -54.5t83 -113.5q16 -164 35 -442t19 -332q0 -115 -99 -125 q-66 -8 -200 -15t-219 -7q-83 0 -142.5 6.5t-120 27t-98 57t-61 98.5t-23.5 149zM152 1223q0 22 12 32q79 97 272 299q33 35 113 35q41 0 67 -16q146 -130 277 -254q22 -26 22 -45q0 -56 -5 -81t-19 -38.5t-47 -26.5q-35 -14 -64 -14q-37 0 -53 16q-16 17 -61.5 70.5t-75 79 t-55.5 25.5q-33 0 -54 -21q-17 -16 -57.5 -66t-74 -81t-58.5 -31q-19 0 -47.5 6t-42.5 14q-15 9 -32 39t-17 58zM399 315q0 -48 32.5 -65t111.5 -17q108 0 108 76q0 84 -63 84h-105q-36 0 -60 -20t-24 -58z" />
<glyph unicode="&#xe3;" horiz-adv-x="1064" d="M49 281q0 100 47 177.5t140 98.5q35 8 94.5 12.5t149.5 8.5t126 6q19 1 32 18t13 35q0 28 -14 46.5t-39 18.5q-36 0 -195 -4t-200 -4q-32 0 -64.5 56t-32.5 92t35.5 95.5t71.5 63.5q400 31 530 31q55 0 132 -54.5t83 -113.5q16 -164 35 -442t19 -332q0 -115 -99 -125 q-66 -8 -200 -15t-219 -7q-83 0 -142.5 6.5t-120 27t-98 57t-61 98.5t-23.5 149zM82 1298q0 48 53 101q40 40 95.5 64t109.5 24q55 0 121.5 -26.5t128 -52.5t104.5 -26q31 0 56 15t39 33.5t33 33.5t40 15q42 0 81.5 -37t39.5 -80q0 -38 -32.5 -85.5t-69.5 -80.5 q-55 -49 -133 -49q-30 -1 -66 6t-53 12t-65 23t-54 20q-109 39 -139 39q-28 0 -50.5 -15.5t-35 -33.5t-31.5 -33.5t-41 -15.5q-44 0 -87.5 52.5t-43.5 96.5zM399 315q0 -48 32.5 -65t111.5 -17q108 0 108 76q0 84 -63 84h-105q-36 0 -60 -20t-24 -58z" />
<glyph unicode="&#xe4;" horiz-adv-x="1064" d="M49 281q0 100 47 177.5t140 98.5q35 8 94.5 12.5t149.5 8.5t126 6q19 1 32 18t13 35q0 28 -14 46.5t-39 18.5q-36 0 -195 -4t-200 -4q-32 0 -64.5 56t-32.5 92t35.5 95.5t71.5 63.5q400 31 530 31q55 0 132 -54.5t83 -113.5q16 -164 35 -442t19 -332q0 -115 -99 -125 q-66 -8 -200 -15t-219 -7q-83 0 -142.5 6.5t-120 27t-98 57t-61 98.5t-23.5 149zM98 1350q0 80 24.5 111.5t108.5 31.5q101 0 136 -3t53 -13q51 -33 51 -107q0 -85 -11 -121.5t-32 -54.5q-33 -23 -82 -23q-91 0 -131.5 7t-67.5 26q-32 25 -40.5 58.5t-8.5 87.5zM399 315 q0 -48 32.5 -65t111.5 -17q108 0 108 76q0 84 -63 84h-105q-36 0 -60 -20t-24 -58zM594 1350q0 80 24.5 111.5t108.5 31.5q102 0 136.5 -3t51.5 -13q52 -34 52 -107q0 -85 -11 -121.5t-32 -54.5q-33 -23 -82 -23q-91 0 -131.5 7t-67.5 26q-32 25 -40.5 58.5t-8.5 87.5z" />
<glyph unicode="&#xe5;" horiz-adv-x="1064" d="M49 281q0 100 47 177.5t140 98.5q35 8 94.5 12.5t149.5 8.5t126 6q19 1 32 18t13 35q0 28 -14 46.5t-39 18.5q-36 0 -195 -4t-200 -4q-32 0 -64.5 56t-32.5 92t35.5 95.5t71.5 63.5q400 31 530 31q55 0 132 -54.5t83 -113.5q16 -164 35 -442t19 -332q0 -115 -99 -125 q-66 -8 -200 -15t-219 -7q-83 0 -142.5 6.5t-120 27t-98 57t-61 98.5t-23.5 149zM254 1329q0 138 74 198t211 60t204.5 -68.5t67.5 -193.5q0 -129 -70 -199.5t-211 -70.5q-77 0 -132 21t-85.5 60t-44.5 86.5t-14 106.5zM399 315q0 -48 32.5 -65t111.5 -17q108 0 108 76 q0 84 -63 84h-105q-36 0 -60 -20t-24 -58zM434 1329q0 -49 29 -78.5t76 -29.5q44 0 68 29t24 75q0 54 -26.5 84.5t-72.5 30.5q-45 0 -71.5 -29.5t-26.5 -81.5z" />
<glyph unicode="&#xe6;" horiz-adv-x="1658" d="M49 281q0 100 47 177.5t140 98.5q35 8 94.5 12.5t149.5 8.5t126 6q19 1 32 18t13 35q0 28 -14 46.5t-39 18.5q-36 0 -195 -4t-200 -4q-32 0 -64.5 56t-32.5 92t35.5 95.5t71.5 63.5q400 31 530 31q21 0 79 -25.5t91 -25.5q15 0 30.5 4.5t35 11.5t33.5 11q83 22 176 22 q109 0 184.5 -20t131 -67.5t82 -130t26.5 -204.5q0 -101 -26 -146.5t-85 -45.5q-67 0 -205 6t-219 6q-63 0 -63 -51q0 -35 19 -61.5t59 -32.5q13 -2 171 -19t216 -26q42 -6 64 -33.5t22 -63.5q0 -15 -2.5 -30t-5 -26.5t-9 -27t-10 -23.5t-12.5 -23l-12 -20t-13.5 -20.5 t-11.5 -17.5q-16 -21 -42 -28t-73 -7q-32 0 -210 20.5t-265 20.5q-57 0 -203 -8t-202 -8q-83 0 -142.5 6.5t-120 27t-98 57t-61 98.5t-23.5 149zM399 315q0 -48 32.5 -65t111.5 -17q108 0 108 76q0 84 -63 84h-105q-36 0 -60 -20t-24 -58zM1028 655q0 -51 23.5 -66.5 t89.5 -15.5q79 0 105 18t26 64q0 48 -32 82.5t-81 34.5q-60 0 -95.5 -32t-35.5 -85z" />
<glyph unicode="&#xe7;" horiz-adv-x="999" d="M66 475q0 91 15 167.5t54 151t101 126t163 83t232 31.5q54 0 147 -12q30 -6 45 -18t35 -43q31 -47 31 -87q0 -36 -53 -104q-32 -40 -50 -53.5t-43 -14.5q-12 -1 -49 -1.5t-71.5 -2t-55.5 -4.5q-68 -7 -103.5 -62t-35.5 -136q0 -36 9 -69t29 -63t57.5 -47.5t88.5 -17.5 q15 0 74 3t82 3q33 0 55.5 -13t59.5 -56q37 -44 47 -70t10 -66q0 -41 -13 -65.5t-55 -61.5q-44 -40 -83.5 -48.5t-159.5 -8.5q-115 0 -214.5 34t-178.5 100.5t-124.5 175.5t-45.5 249zM342 -227q0 22 8 36t39 48q31 33 48 41t55 8q129 0 190.5 -11.5t79.5 -44.5 q29 -61 29 -96q0 -63 -84.5 -179.5t-167.5 -182.5q-29 -23 -86 -23q-44 0 -68.5 27t-24.5 61q0 29 14.5 89t14.5 89q0 17 -23.5 70t-23.5 68z" />
<glyph unicode="&#xe8;" horiz-adv-x="1054" d="M57 498q0 81 17.5 155.5t58 144t100 120.5t149 81.5t200.5 30.5q110 0 185.5 -20t131 -68t81.5 -130t26 -204q0 -101 -26 -146.5t-85 -45.5q-66 0 -204 6t-220 6q-63 0 -63 -51q0 -35 18.5 -61.5t58.5 -32.5q14 -2 172.5 -19t216.5 -26q41 -6 62.5 -33.5t21.5 -63.5 q0 -38 -13.5 -76.5t-26 -58.5t-35.5 -53q-14 -21 -40.5 -28t-74.5 -7q-50 0 -128 8.5t-178 27t-189 57t-130 89.5q-50 62 -68 150.5t-18 247.5zM219 1423q0 86 42.5 118t123.5 32q45 0 78 -27q148 -113 248 -213q18 -18 18 -69t-36 -93.5t-79 -42.5q-30 0 -59 19 q-140 101 -297 196q-39 24 -39 80zM422 655q0 -51 23.5 -66.5t89.5 -15.5q79 0 105 18t26 64q0 49 -31.5 83t-81.5 34q-60 0 -95.5 -32t-35.5 -85z" />
<glyph unicode="&#xe9;" horiz-adv-x="1054" d="M57 498q0 81 17.5 155.5t58 144t100 120.5t149 81.5t200.5 30.5q110 0 185.5 -20t131 -68t81.5 -130t26 -204q0 -101 -26 -146.5t-85 -45.5q-66 0 -204 6t-220 6q-63 0 -63 -51q0 -35 18.5 -61.5t58.5 -32.5q14 -2 172.5 -19t216.5 -26q41 -6 62.5 -33.5t21.5 -63.5 q0 -38 -13.5 -76.5t-26 -58.5t-35.5 -53q-14 -21 -40.5 -28t-74.5 -7q-50 0 -128 8.5t-178 27t-189 57t-130 89.5q-50 62 -68 150.5t-18 247.5zM410 1264q0 31 3.5 45t14.5 24q97 99 246 213q36 27 80 27q79 0 121.5 -32t42.5 -118q0 -56 -39 -80q-158 -98 -297 -196 q-25 -19 -58 -19q-45 0 -79.5 42t-34.5 94zM422 655q0 -51 23.5 -66.5t89.5 -15.5q79 0 105 18t26 64q0 49 -31.5 83t-81.5 34q-60 0 -95.5 -32t-35.5 -85z" />
<glyph unicode="&#xea;" horiz-adv-x="1054" d="M57 498q0 81 17.5 155.5t58 144t100 120.5t149 81.5t200.5 30.5q110 0 185.5 -20t131 -68t81.5 -130t26 -204q0 -101 -26 -146.5t-85 -45.5q-66 0 -204 6t-220 6q-63 0 -63 -51q0 -35 18.5 -61.5t58.5 -32.5q14 -2 172.5 -19t216.5 -26q41 -6 62.5 -33.5t21.5 -63.5 q0 -38 -13.5 -76.5t-26 -58.5t-35.5 -53q-14 -21 -40.5 -28t-74.5 -7q-50 0 -128 8.5t-178 27t-189 57t-130 89.5q-50 62 -68 150.5t-18 247.5zM178 1223q0 22 12 32q73 90 273 299q33 35 112 35q42 0 68 -16q146 -130 277 -254q22 -26 22 -45q0 -79 -12 -103t-60 -43 q-35 -14 -63 -14q-37 0 -53 16t-62 70.5t-75.5 79.5t-55.5 25q-32 0 -53 -21q-16 -16 -57.5 -66t-75 -81t-58.5 -31q-19 0 -47.5 6t-42.5 14q-15 9 -32 39t-17 58zM422 655q0 -51 23.5 -66.5t89.5 -15.5q79 0 105 18t26 64q0 49 -31.5 83t-81.5 34q-60 0 -95.5 -32 t-35.5 -85z" />
<glyph unicode="&#xeb;" horiz-adv-x="1054" d="M57 498q0 81 17.5 155.5t58 144t100 120.5t149 81.5t200.5 30.5q110 0 185.5 -20t131 -68t81.5 -130t26 -204q0 -101 -26 -146.5t-85 -45.5q-66 0 -204 6t-220 6q-63 0 -63 -51q0 -35 18.5 -61.5t58.5 -32.5q14 -2 172.5 -19t216.5 -26q41 -6 62.5 -33.5t21.5 -63.5 q0 -38 -13.5 -76.5t-26 -58.5t-35.5 -53q-14 -21 -40.5 -28t-74.5 -7q-50 0 -128 8.5t-178 27t-189 57t-130 89.5q-50 62 -68 150.5t-18 247.5zM127 1350q0 80 24.5 111.5t108.5 31.5q101 0 136 -3t53 -13q51 -33 51 -107q0 -85 -11 -121.5t-32 -54.5q-33 -23 -82 -23 q-91 0 -131.5 7t-67.5 26q-32 25 -40.5 58.5t-8.5 87.5zM422 655q0 -51 23.5 -66.5t89.5 -15.5q79 0 105 18t26 64q0 49 -31.5 83t-81.5 34q-60 0 -95.5 -32t-35.5 -85zM623 1350q0 80 24.5 111.5t108.5 31.5q102 0 136.5 -3t51.5 -13q51 -33 51 -107q0 -85 -11 -121.5 t-32 -54.5q-33 -23 -82 -23q-91 0 -131 7t-67 26q-32 25 -40.5 58.5t-8.5 87.5z" />
<glyph unicode="&#xec;" horiz-adv-x="665" d="M8 1423q0 86 43 118t123 32q45 0 78 -27q148 -113 248 -213q18 -18 18 -69t-36 -93.5t-79 -42.5q-31 0 -59 19q-140 101 -297 196q-39 24 -39 80zM119 135q0 495 14 789q1 28 31.5 43.5t107.5 31.5q96 17 105 17q33 0 50.5 -5t59.5 -26q45 -23 58 -39t14 -49 q8 -148 8 -750q0 -56 -16 -79.5t-80 -61.5q-66 -43 -106 -43q-35 0 -117 41q-87 42 -108 62t-21 69z" />
<glyph unicode="&#xed;" horiz-adv-x="661" d="M86 135q0 495 14 789q1 28 32 43.5t108 31.5q96 17 104 17q33 0 51 -5t60 -26q44 -23 57 -38.5t14 -49.5q3 -52 6 -332t3 -418q0 -56 -16.5 -79.5t-80.5 -61.5q-66 -43 -106 -43q-35 0 -117 41q-87 42 -108 62t-21 69zM147 1264q0 52 19 69q97 99 246 213q36 27 80 27 q79 0 121 -32t42 -118q0 -56 -39 -80q-158 -98 -297 -196q-25 -19 -57 -19q-45 0 -80 42t-35 94z" />
<glyph unicode="&#xee;" horiz-adv-x="724" d="M-16 1223q0 22 12 32q79 97 272 299q33 35 113 35q42 0 68 -16q132 -117 276 -254q23 -27 23 -45q0 -79 -12 -103t-60 -43q-35 -14 -64 -14q-37 0 -53 16q-16 17 -61.5 70.5t-75 79t-55.5 25.5q-33 0 -54 -21q-17 -16 -57.5 -66t-74 -81t-58.5 -31q-19 0 -47.5 6 t-42.5 14q-15 9 -32 39t-17 58zM133 135q0 495 14 789q1 28 32 43.5t108 31.5q96 17 104 17q33 0 51 -5t60 -26q44 -23 57 -38.5t14 -49.5q3 -52 6 -332t3 -418q0 -56 -16.5 -79.5t-80.5 -61.5q-66 -43 -106 -43q-35 0 -117 41q-87 42 -108 62t-21 69z" />
<glyph unicode="&#xef;" horiz-adv-x="811" d="M-29 1350q0 80 24.5 111.5t108.5 31.5q101 0 136 -3t53 -13q51 -33 51 -107q0 -85 -11 -121.5t-32 -54.5q-33 -23 -82 -23q-91 0 -131.5 7t-67.5 26q-32 25 -40.5 58.5t-8.5 87.5zM174 135q0 495 14 789q1 28 32 43.5t108 31.5q96 17 104 17q33 0 51 -5t60 -26 q44 -23 57 -38.5t14 -49.5q3 -52 6 -332t3 -418q0 -56 -16.5 -79.5t-80.5 -61.5q-66 -43 -106 -43q-35 0 -117 41q-87 42 -108 62t-21 69zM467 1350q0 80 24.5 111.5t108.5 31.5q102 0 136.5 -3t51.5 -13q52 -34 52 -107q0 -85 -11 -121.5t-32 -54.5q-33 -23 -82 -23 q-91 0 -131.5 7t-67.5 26q-32 25 -40.5 58.5t-8.5 87.5z" />
<glyph unicode="&#xf0;" horiz-adv-x="1112" d="M57 399q0 196 112 307.5t300 106.5q73 -1 136.5 -23t84.5 -22q18 0 28.5 10t10.5 25l-2 8l-68 168q-6 17 -21 30t-30 13q-13 0 -33 -10q-84 -63 -90 -66q-33 -20 -82 -20q-40 0 -65 18.5t-25 56.5q0 17 7 31t28 39q27 29 27 51q0 17 -13 25q-79 34 -81 35 q-25 11 -44.5 39t-19.5 57q0 45 41.5 96t101.5 51q87 0 185 -26.5t123 -26.5q31 0 45 8q2 1 19 14t23 17t22 13.5t26.5 13.5t26 8t30.5 4q36 0 57 -17.5t21 -52.5q0 -15 -3 -28.5t-11 -26.5t-13.5 -21.5t-18 -24t-18.5 -22.5q-10 -12 -10 -38q0 -8 20.5 -48.5t50 -107 t59.5 -150.5t50.5 -203t20.5 -241q0 -263 -119.5 -391.5t-359.5 -128.5q-142 0 -260.5 51t-193.5 155.5t-75 243.5zM383 436q0 -80 45 -131t115 -51q82 0 123 43t41 113q0 65 -49 115t-117 50q-56 0 -107 -36.5t-51 -102.5z" />
<glyph unicode="&#xf1;" horiz-adv-x="1126" d="M53 113q0 178 10 463t17 356q2 33 19 48t59 21q230 35 469 35q96 0 157.5 -17t130.5 -61q54 -36 78.5 -64.5t28.5 -62.5q7 -65 25 -349t18 -320q0 -39 -2 -55t-16.5 -39.5t-47.5 -51.5q-35 -27 -55.5 -35t-62.5 -8q-114 0 -160.5 30t-48.5 69q-1 42 -3 269t-7 304 q-1 47 -36 73.5t-85 26.5q-51 0 -79 -26.5t-28 -77.5q0 -62 5 -229t5 -269q0 -56 -8 -76t-43 -49q-44 -38 -96 -38q-58 0 -113 14q-85 17 -108 37.5t-23 81.5zM111 1298q0 48 53 101q40 40 95.5 64t109.5 24q55 0 121.5 -26.5t128 -52.5t104.5 -26q31 0 56 15t39 33.5 t33 33.5t40 15q42 0 81.5 -37t39.5 -80q0 -38 -32.5 -85t-70.5 -81q-55 -49 -133 -49q-30 -1 -65.5 6t-53.5 12.5t-64 22.5t-54 20q-109 39 -140 39q-28 0 -50.5 -15.5t-35 -33.5t-31 -33.5t-40.5 -15.5q-44 0 -87.5 52.5t-43.5 96.5z" />
<glyph unicode="&#xf2;" horiz-adv-x="1159" d="M51 481q0 270 139.5 410.5t407.5 140.5q126 0 223 -40t158 -112.5t92 -170t31 -217.5q0 -261 -138.5 -421.5t-369.5 -160.5q-254 0 -398.5 143t-144.5 428zM238 1423q0 86 42.5 118t122.5 32q45 0 78 -27q148 -113 248 -213q19 -19 19 -69q0 -51 -36 -93.5t-79 -42.5 q-31 0 -60 19q-140 101 -297 196q-38 23 -38 80zM387 512q0 -58 8 -101.5t28.5 -81t59.5 -57.5t95 -20q176 0 176 235q0 113 -40 174.5t-134 61.5q-102 0 -147.5 -52.5t-45.5 -158.5z" />
<glyph unicode="&#xf3;" horiz-adv-x="1159" d="M51 481q0 270 139.5 410.5t407.5 140.5q126 0 223 -40t158 -112.5t92 -170t31 -217.5q0 -261 -138.5 -421.5t-369.5 -160.5q-254 0 -398.5 143t-144.5 428zM387 512q0 -58 8 -101.5t28.5 -81t59.5 -57.5t95 -20q176 0 176 235q0 113 -40 174.5t-134 61.5 q-102 0 -147.5 -52.5t-45.5 -158.5zM412 1264q0 31 3.5 45t14.5 24q97 99 246 213q36 27 80 27q79 0 121.5 -32t42.5 -118q0 -56 -39 -80q-158 -98 -297 -196q-25 -19 -58 -19q-45 0 -79.5 42t-34.5 94z" />
<glyph unicode="&#xf4;" horiz-adv-x="1159" d="M51 481q0 270 139.5 410.5t407.5 140.5q126 0 223 -40t158 -112.5t92 -170t31 -217.5q0 -261 -138.5 -421.5t-369.5 -160.5q-254 0 -398.5 143t-144.5 428zM199 1223q0 22 12 32q79 97 272 299q33 35 113 35q42 0 68 -16q132 -117 276 -254q23 -27 23 -45q0 -79 -12 -103 t-60 -43q-35 -14 -64 -14q-37 0 -53 16q-16 17 -61.5 70.5t-75 79t-55.5 25.5q-33 0 -54 -21q-17 -16 -57.5 -66t-74 -81t-58.5 -31q-19 0 -47.5 6t-42.5 14q-15 9 -32 39t-17 58zM387 512q0 -58 8 -101.5t28.5 -81t59.5 -57.5t95 -20q176 0 176 235q0 113 -40 174.5 t-134 61.5q-102 0 -147.5 -52.5t-45.5 -158.5z" />
<glyph unicode="&#xf5;" horiz-adv-x="1159" d="M51 481q0 270 139.5 410.5t407.5 140.5q126 0 223 -40t158 -112.5t92 -170t31 -217.5q0 -261 -138.5 -421.5t-369.5 -160.5q-254 0 -398.5 143t-144.5 428zM129 1298q0 48 53 101q40 40 95.5 64t109.5 24q55 0 121.5 -26.5t128 -52.5t104.5 -26q31 0 56 15t39 33.5 t33 33.5t40 15q42 0 81.5 -37t39.5 -80q0 -38 -32.5 -85.5t-69.5 -80.5q-55 -49 -133 -49q-30 -1 -66 6t-53 12t-65 23t-54 20q-109 39 -139 39q-28 0 -50.5 -15.5t-35 -33.5t-31.5 -33.5t-41 -15.5q-44 0 -87.5 52.5t-43.5 96.5zM387 512q0 -58 8 -101.5t28.5 -81 t59.5 -57.5t95 -20q176 0 176 235q0 113 -40 174.5t-134 61.5q-102 0 -147.5 -52.5t-45.5 -158.5z" />
<glyph unicode="&#xf6;" horiz-adv-x="1159" d="M51 481q0 270 139.5 410.5t407.5 140.5q126 0 223 -40t158 -112.5t92 -170t31 -217.5q0 -261 -138.5 -421.5t-369.5 -160.5q-254 0 -398.5 143t-144.5 428zM143 1350q0 80 24.5 111.5t108.5 31.5q101 0 136 -3t53 -13q51 -33 51 -107q0 -85 -11 -121.5t-32 -54.5 q-33 -23 -82 -23q-91 0 -131 7t-67 26q-32 25 -41 59t-9 87zM387 512q0 -58 8 -101.5t28.5 -81t59.5 -57.5t95 -20q176 0 176 235q0 113 -40 174.5t-134 61.5q-102 0 -147.5 -52.5t-45.5 -158.5zM639 1350q0 80 24.5 111.5t108.5 31.5q102 0 137 -3t52 -13q51 -33 51 -107 q0 -85 -11 -121.5t-32 -54.5q-33 -23 -82 -23q-91 0 -131.5 7t-67.5 26q-32 25 -40.5 58.5t-8.5 87.5z" />
<glyph unicode="&#xf7;" horiz-adv-x="1230" d="M51 567q0 22 11 74.5t24 81.5q10 23 24.5 30t45.5 9q335 10 759 10q123 0 153.5 -4t55.5 -23q19 -16 27 -36.5t8 -61.5q0 -65 -24 -133q-19 -53 -70 -53q-450 -23 -909 -23q-41 0 -73 42t-32 87zM408 156q0 47 2.5 77t11.5 57.5t25 42.5t42.5 23.5t65.5 8.5 q115 0 153 -4.5t58 -22.5q57 -50 57 -154q0 -127 -12.5 -179.5t-36.5 -78.5q-32 -35 -92 -35q-100 0 -146 10.5t-75 41.5q-34 34 -43.5 83t-9.5 130zM408 1112q0 47 2.5 77t11.5 57.5t25 42.5t42.5 23.5t65.5 8.5q115 0 153 -4.5t58 -22.5q57 -50 57 -153 q0 -127 -12.5 -179.5t-36.5 -78.5q-32 -35 -92 -35q-101 0 -146.5 10.5t-74.5 40.5q-34 34 -43.5 83t-9.5 130z" />
<glyph unicode="&#xf8;" horiz-adv-x="1159" d="M51 481q0 270 139.5 410.5t407.5 140.5q63 0 131 -14l80 147q10 23 35 23q13 0 41.5 -10t46.5 -21q14 -10 34.5 -42.5t20.5 -49.5q0 -12 -16 -41l-49 -92q89 -69 134.5 -182.5t45.5 -257.5q0 -261 -138.5 -421.5t-369.5 -160.5q-101 0 -201 27l-49 -95q-22 -41 -59 -41 q-59 0 -111 27q-41 27 -41 59q0 16 8 29l66 125q-156 150 -156 440zM383 520q0 -72 12 -127l191 355h-6q-197 0 -197 -228zM557 244h21q180 0 180 252q0 67 -10 108z" />
<glyph unicode="&#xf9;" horiz-adv-x="1171" d="M74 199q0 280 18 712q1 26 20 40.5t78 39.5q69 27 101 27q12 0 22 -1.5t15 -3t25 -8.5t34 -12q43 -15 61.5 -33.5t18.5 -54.5q0 -71 -3 -313.5t-3 -278.5q0 -35 34.5 -54t82.5 -19q71 0 109 25.5t38 72.5q0 57 -7 280.5t-7 245.5q0 54 25.5 77t101.5 50q79 29 100 29 q23 0 38.5 -8t45.5 -33q34 -30 44 -45.5t13 -42.5q8 -81 21.5 -337.5t13.5 -373.5q0 -46 -12 -80t-45 -69q-69 -76 -150 -76q-150 -2 -583 -2q-62 0 -104.5 22.5t-84.5 71.5q-35 41 -48 73.5t-13 78.5zM246 1423q0 86 43 118t123 32q44 0 77 -27q148 -113 248 -213 q19 -19 19 -69q0 -51 -36 -93.5t-79 -42.5q-31 0 -59 19q-140 101 -297 196q-39 24 -39 80z" />
<glyph unicode="&#xfa;" horiz-adv-x="1171" d="M74 199q0 280 18 712q1 26 20 40.5t78 39.5q69 27 101 27q12 0 22 -1.5t15 -3t25 -8.5t34 -12q43 -15 61.5 -33.5t18.5 -54.5q0 -71 -3 -313.5t-3 -278.5q0 -35 34.5 -54t82.5 -19q71 0 109 25.5t38 72.5q0 57 -7 280.5t-7 245.5q0 54 25.5 77t101.5 50q79 29 100 29 q23 0 38.5 -8t45.5 -33q34 -30 44 -45.5t13 -42.5q8 -81 21.5 -337.5t13.5 -373.5q0 -46 -12 -80t-45 -69q-69 -76 -150 -76q-150 -2 -583 -2q-62 0 -104.5 22.5t-84.5 71.5q-35 41 -48 73.5t-13 78.5zM418 1264q0 31 3.5 45t14.5 24q97 99 246 213q36 27 80 27 q79 0 121.5 -32t42.5 -118q0 -56 -39 -80q-158 -98 -297 -196q-25 -19 -58 -19q-45 0 -79.5 42t-34.5 94z" />
<glyph unicode="&#xfb;" horiz-adv-x="1171" d="M74 199q0 280 18 712q1 26 20 40.5t78 39.5q69 27 101 27q12 0 22 -1.5t15 -3t25 -8.5t34 -12q43 -15 61.5 -33.5t18.5 -54.5q0 -71 -3 -313.5t-3 -278.5q0 -35 34.5 -54t82.5 -19q71 0 109 25.5t38 72.5q0 57 -7 280.5t-7 245.5q0 54 25.5 77t101.5 50q79 29 100 29 q23 0 38.5 -8t45.5 -33q34 -30 44 -45.5t13 -42.5q8 -81 21.5 -337.5t13.5 -373.5q0 -46 -12 -80t-45 -69q-69 -76 -150 -76q-150 -2 -583 -2q-62 0 -104.5 22.5t-84.5 71.5q-35 41 -48 73.5t-13 78.5zM205 1223q0 22 12 32q79 97 272 299q33 35 113 35q42 0 68 -16 q132 -117 276 -254q23 -27 23 -45q0 -79 -12 -103t-60 -43q-35 -14 -63 -14q-38 0 -54 16q-16 17 -61.5 70.5t-75 79t-55.5 25.5q-32 0 -53 -21q-16 -16 -57.5 -66t-75 -81t-58.5 -31q-19 0 -47.5 6t-42.5 14q-15 9 -32 39t-17 58z" />
<glyph unicode="&#xfc;" horiz-adv-x="1171" d="M74 199q0 280 18 712q1 26 20 40.5t78 39.5q69 27 101 27q12 0 22 -1.5t15 -3t25 -8.5t34 -12q43 -15 61.5 -33.5t18.5 -54.5q0 -71 -3 -313.5t-3 -278.5q0 -35 34.5 -54t82.5 -19q71 0 109 25.5t38 72.5q0 57 -7 280.5t-7 245.5q0 54 25.5 77t101.5 50q79 29 100 29 q23 0 38.5 -8t45.5 -33q34 -30 44 -45.5t13 -42.5q8 -81 21.5 -337.5t13.5 -373.5q0 -46 -12 -80t-45 -69q-69 -76 -150 -76q-150 -2 -583 -2q-62 0 -104.5 22.5t-84.5 71.5q-35 41 -48 73.5t-13 78.5zM152 1350q0 80 24.5 111.5t108.5 31.5q101 0 135 -3t53 -13 q51 -33 51 -107q0 -85 -11 -121.5t-32 -54.5q-33 -23 -82 -23q-91 0 -131 7t-67 26q-32 25 -40.5 58.5t-8.5 87.5zM647 1350q0 80 24.5 111.5t108.5 31.5q102 0 137 -3t52 -13q51 -33 51 -107q0 -85 -11 -121.5t-32 -54.5q-33 -23 -82 -23q-91 0 -131.5 7t-67.5 26 q-32 25 -40.5 58.5t-8.5 87.5z" />
<glyph unicode="&#xfd;" horiz-adv-x="1224" d="M61 244q0 90 7 347.5t12 313.5q5 37 26 51t86 32q12 3 19 5q94 25 102 25q28 0 90 -23q43 -16 56.5 -27t13.5 -36q0 -52 -11 -298t-11 -247q0 -61 27.5 -87t92.5 -26q85 0 124.5 20t39.5 73q0 88 -4 263t-4 263q0 43 55 77t95 34q37 0 114 -21q84 -25 106.5 -40t22.5 -46 q0 -737 -4 -1063q0 -46 -7.5 -70t-36 -58.5t-97.5 -94.5q-75 -65 -109 -85t-61 -26q-26 -7 -214 -18.5t-255 -11.5q-56 0 -88.5 36t-32.5 88q0 16 3 38t11 51.5t26 52t44 28.5q18 4 140 27t171 35q41 8 61.5 38.5t20.5 65.5q0 42 -17.5 59t-58.5 17q-24 0 -146 -11t-138 -11 q-91 0 -185 106q-47 56 -66.5 90.5t-19.5 63.5zM444 1264q0 52 19 69q97 99 246 213q36 27 79 27q79 0 121.5 -32t42.5 -118q0 -56 -39 -80q-158 -98 -297 -196q-25 -19 -57 -19q-45 0 -80 42t-35 94z" />
<glyph unicode="&#xfe;" horiz-adv-x="1110" d="M23 -211q0 174 17.5 763t22.5 622q4 33 68.5 71.5t112.5 38.5q25 0 42.5 -6.5t57.5 -28.5q53 -31 68.5 -46.5t15.5 -45.5v-141q0 -43 74 -43q39 0 120.5 7t125.5 7q62 0 112 -21t83.5 -59.5t57.5 -85.5t37 -104.5t19 -112t6 -112.5q0 -132 -55.5 -246.5t-160 -185 t-235.5 -70.5q-20 0 -57.5 3t-54.5 3q-32 0 -52 -18.5t-20 -47.5l4 -147q0 -48 -33 -74l-120 -90q-20 -14 -52 -14q-12 0 -57 20l-66 35q-49 26 -65 49.5t-16 79.5zM393 487q0 -87 14 -131t54 -51q52 -8 94 -8q76 0 110.5 56t34.5 132q0 78 -43.5 130.5t-115.5 52.5 t-109 -17q-22 -10 -30.5 -42t-8.5 -122z" />
<glyph unicode="&#xff;" horiz-adv-x="1224" d="M61 244q0 90 7 347.5t12 313.5q5 37 26 51t86 32q12 3 19 5q94 25 102 25q28 0 90 -23q43 -16 56.5 -27t13.5 -36q0 -52 -11 -298t-11 -247q0 -61 27.5 -87t92.5 -26q85 0 124.5 20t39.5 73q0 88 -4 263t-4 263q0 43 55 77t95 34q37 0 114 -21q84 -25 106.5 -40t22.5 -46 q0 -737 -4 -1063q0 -46 -7.5 -70t-36 -58.5t-97.5 -94.5q-75 -65 -109 -85t-61 -26q-26 -7 -214 -18.5t-255 -11.5q-56 0 -88.5 36t-32.5 88q0 16 3 38t11 51.5t26 52t44 28.5q18 4 140 27t171 35q41 8 61.5 38.5t20.5 65.5q0 42 -17.5 59t-58.5 17q-24 0 -146 -11t-138 -11 q-91 0 -185 106q-47 56 -66.5 90.5t-19.5 63.5zM178 1350q0 80 24.5 111.5t108.5 31.5q101 0 136 -3t53 -13q51 -33 51 -107q0 -85 -11 -121.5t-32 -54.5q-33 -23 -82 -23q-91 0 -131.5 7t-67.5 26q-32 25 -40.5 58.5t-8.5 87.5zM674 1350q0 80 24.5 111.5t108.5 31.5 q102 0 136.5 -3t51.5 -13q52 -34 52 -107q0 -85 -11 -121.5t-32 -54.5q-33 -23 -82 -23q-91 0 -131.5 7t-67.5 26q-32 25 -40.5 58.5t-8.5 87.5z" />
<glyph unicode="&#x152;" horiz-adv-x="1916" d="M41 643q0 294 162 474.5t430 180.5q84 0 207 -25.5t172 -25.5q33 0 51 2q434 37 633 37q49 0 68 -14.5t67 -83.5q14 -22 14 -43q0 -32 -45 -164q-11 -30 -29 -45t-51 -18l-364 -29q-34 -3 -46 -19t-12 -49q0 -41 12 -60t42 -22q54 -5 199.5 -8t168.5 -4q47 -1 71 -32 t24 -74q0 -115 -103 -123q-60 -4 -187.5 -11.5t-150.5 -9.5q-34 -3 -47.5 -22.5t-13.5 -63.5q0 -50 19.5 -68t62.5 -18q61 0 181 7t179 7q71 0 84 -34q29 -82 29 -150q0 -31 -7.5 -51t-37.5 -61q-35 -49 -57.5 -63.5t-61.5 -16.5q-165 -13 -545 -13q-77 0 -164.5 8.5 t-111.5 8.5q-41 0 -126 -15.5t-134 -15.5q-115 0 -211 39t-164 107t-115 160.5t-69.5 198.5t-22.5 222zM428 635q0 -49 13 -99.5t38.5 -95.5t70.5 -73.5t101 -28.5q50 0 90 28.5t64 73t36.5 93.5t12.5 96q0 71 -20.5 135.5t-69 111t-115.5 46.5q-56 0 -100 -24.5 t-69.5 -66.5t-38.5 -91.5t-13 -104.5z" />
<glyph unicode="&#x153;" horiz-adv-x="1763" d="M51 481q0 270 139.5 410.5t407.5 140.5q139 0 248 -53q63 -29 100 -29q29 0 84 25q107 55 260 55q110 0 185.5 -20t131 -68t81.5 -130t26 -204q0 -101 -25 -146.5t-83 -45.5q-67 0 -205.5 6t-218.5 6q-64 0 -64 -51q0 -34 19 -61t57 -33q11 -1 170.5 -18.5t218.5 -26.5 q41 -6 63.5 -33.5t22.5 -63.5q0 -38 -15 -77.5t-26 -56.5t-37 -54q-14 -21 -40 -28t-72 -7q-74 0 -200.5 17t-234.5 51q-9 3 -23 7.5t-22 7.5t-20 5t-23 2q-42 0 -110 -35q-105 -63 -252 -63q-254 0 -398.5 143t-144.5 428zM383 520q0 -59 8.5 -105t29 -86.5t60 -62.5 t97.5 -22q180 0 180 252t-178 252q-197 0 -197 -228zM1130 655q0 -51 24 -66.5t91 -15.5q77 0 103 18t26 64q0 49 -31 83t-81 34q-60 0 -96 -32t-36 -85z" />
<glyph unicode="&#x178;" horiz-adv-x="1312" d="M80 451q0 95 8.5 365.5t11.5 313.5q2 20 13.5 38.5t29.5 25.5q49 22 95 37q92 31 120 31q20 0 82 -25q52 -23 69 -45t17 -74q0 -101 -10 -314.5t-10 -258.5q0 -82 90 -82q162 0 205 20q43 21 43 66q0 97 -1 292t-1 251q0 57 20 81.5t84 51.5q70 32 103 32q30 0 92 -22 q62 -24 81 -46.5t19 -76.5q0 -86 -15.5 -641t-23.5 -645q-3 -30 -26 -66.5t-84 -101.5q-83 -90 -121 -117.5t-94 -36.5q-213 -34 -371 -34q-45 0 -66.5 14t-64.5 65q-42 52 -52 70.5t-10 54.5q0 19 15 78q15 77 75 86q57 10 121.5 20t92 14.5t53.5 10.5t41 13q60 29 85 61 t25 90q0 48 -17.5 67t-62.5 19q-29 0 -187 -17.5t-183 -17.5q-53 0 -93.5 25t-103.5 106q-61 76 -77.5 115.5t-16.5 106.5zM221 1587q0 80 24.5 112t108.5 32q99 0 134.5 -3t54.5 -14q51 -33 51 -106q0 -85 -11 -121.5t-32 -54.5q-33 -23 -82 -23q-91 0 -131.5 7t-67.5 26 q-22 17 -33.5 42.5t-13.5 46.5t-2 56zM717 1587q0 80 24.5 112t108.5 32q100 0 135.5 -3t52.5 -14q52 -34 52 -106q0 -85 -11 -121.5t-32 -54.5q-33 -23 -82 -23q-91 0 -131.5 7t-67.5 26q-22 17 -33.5 42.5t-13.5 46.5t-2 56z" />
<glyph unicode="&#x2c6;" horiz-adv-x="833" d="M35 1223q0 22 12 32q79 97 272 299q33 35 113 35q42 0 68 -16q132 -117 276 -254q23 -27 23 -45q0 -79 -12 -103t-60 -43q-35 -14 -63 -14q-38 0 -54 16q-16 17 -61.5 70.5t-75 79t-55.5 25.5q-32 0 -53 -21q-16 -16 -57.5 -66t-75 -81t-58.5 -31q-19 0 -47.5 6t-42.5 14 q-15 9 -32 39t-17 58z" />
<glyph unicode="&#x2dc;" horiz-adv-x="958" d="M31 1298q0 48 53 101q40 40 95.5 64t109.5 24q55 0 121.5 -26.5t128 -52.5t104.5 -26q31 0 56 15t39 33.5t33 33.5t40 15q42 0 81.5 -37t39.5 -80q0 -38 -32.5 -85t-70.5 -81q-55 -49 -133 -49q-30 -1 -65.5 6t-53.5 12.5t-64 22.5t-54 20q-109 39 -140 39 q-28 0 -50.5 -15.5t-35 -33.5t-31 -33.5t-40.5 -15.5q-44 0 -87.5 52.5t-43.5 96.5z" />
<glyph unicode="&#x2000;" horiz-adv-x="913" />
<glyph unicode="&#x2001;" horiz-adv-x="1827" />
<glyph unicode="&#x2002;" horiz-adv-x="913" />
<glyph unicode="&#x2003;" horiz-adv-x="1827" />
<glyph unicode="&#x2004;" horiz-adv-x="609" />
<glyph unicode="&#x2005;" horiz-adv-x="456" />
<glyph unicode="&#x2006;" horiz-adv-x="304" />
<glyph unicode="&#x2007;" horiz-adv-x="304" />
<glyph unicode="&#x2008;" horiz-adv-x="228" />
<glyph unicode="&#x2009;" horiz-adv-x="365" />
<glyph unicode="&#x200a;" horiz-adv-x="101" />
<glyph unicode="&#x2010;" horiz-adv-x="643" d="M43 637q0 45 33 160q6 24 23.5 39.5t35.5 15.5q218 16 332 16q56 0 93.5 -40t37.5 -95q0 -25 -33 -164q-13 -46 -59 -53q-51 -6 -166 -13t-154 -7q-46 0 -73 13.5t-45 47.5q-25 42 -25 80z" />
<glyph unicode="&#x2011;" horiz-adv-x="643" d="M43 637q0 45 33 160q6 24 23.5 39.5t35.5 15.5q218 16 332 16q56 0 93.5 -40t37.5 -95q0 -25 -33 -164q-13 -46 -59 -53q-51 -6 -166 -13t-154 -7q-46 0 -73 13.5t-45 47.5q-25 42 -25 80z" />
<glyph unicode="&#x2012;" horiz-adv-x="643" d="M43 637q0 45 33 160q6 24 23.5 39.5t35.5 15.5q218 16 332 16q56 0 93.5 -40t37.5 -95q0 -25 -33 -164q-13 -46 -59 -53q-51 -6 -166 -13t-154 -7q-46 0 -73 13.5t-45 47.5q-25 42 -25 80z" />
<glyph unicode="&#x2013;" horiz-adv-x="987" d="M43 637q0 45 33 160q6 24 23.5 39.5t35.5 15.5q70 5 342.5 10.5t341.5 5.5q56 0 93.5 -40t37.5 -95q0 -35 -35 -164q-13 -46 -57 -53q-46 -5 -328.5 -12.5t-343.5 -7.5q-46 0 -73 13.5t-45 47.5q-25 42 -25 80z" />
<glyph unicode="&#x2014;" horiz-adv-x="1329" d="M43 637q0 45 33 160q6 24 23.5 39.5t35.5 15.5q69 5 497 10.5t525 5.5q56 0 93.5 -40t37.5 -95q0 -25 -33 -164q-16 -47 -59 -53q-45 -5 -486.5 -12.5t-523.5 -7.5q-46 0 -73 13.5t-45 47.5q-25 42 -25 80z" />
<glyph unicode="&#x2018;" horiz-adv-x="536" d="M49 1184q0 41 31 133q14 45 73 59.5t187 14.5q37 0 52.5 -11t47.5 -57q29 -41 37 -61t8 -50q0 -22 -22.5 -95t-22.5 -95q0 -43 24.5 -148t24.5 -143q0 -48 -24 -85.5t-68 -37.5q-69 0 -138.5 80t-111.5 182q-98 240 -98 314z" />
<glyph unicode="&#x2019;" horiz-adv-x="536" d="M51 731q0 38 24.5 143t24.5 148q0 22 -22.5 95t-22.5 95q0 30 8 50t37 61q32 46 48 57t53 11q128 0 187 -14.5t73 -59.5q31 -92 31 -133q0 -71 -99 -314q-42 -102 -111.5 -182t-138.5 -80q-44 0 -68 37.5t-24 85.5z" />
<glyph unicode="&#x201a;" horiz-adv-x="536" d="M51 -242q0 38 24.5 143t24.5 148q0 23 -22.5 95.5t-22.5 93.5q0 31 8 51t37 61q32 46 48 57t53 11q128 0 187 -14.5t73 -59.5q31 -92 31 -133q0 -70 -99 -313q-42 -102 -111.5 -182.5t-138.5 -80.5q-44 0 -68 37.5t-24 85.5z" />
<glyph unicode="&#x201c;" horiz-adv-x="1075" d="M49 1184q0 41 31 133q14 45 73 59.5t187 14.5q37 0 52.5 -11t47.5 -57q29 -41 37 -61t8 -50q0 -22 -22.5 -95t-22.5 -95q0 -43 24.5 -148t24.5 -143q0 -48 -24 -85.5t-68 -37.5q-69 0 -138.5 80t-111.5 182q-98 240 -98 314zM586 1184q0 44 30 133q14 45 73.5 59.5 t187.5 14.5q37 0 52.5 -11t47.5 -57q29 -41 37 -61t8 -50q0 -22 -22.5 -95t-22.5 -95q0 -43 24.5 -148t24.5 -143q0 -48 -24 -85.5t-68 -37.5q-69 0 -138.5 80t-111.5 182q-98 240 -98 314z" />
<glyph unicode="&#x201d;" horiz-adv-x="1075" d="M51 731q0 38 24.5 143t24.5 148q0 22 -22.5 95t-22.5 95q0 30 8 50t37 61q32 46 48 57t53 11q128 0 187 -14.5t73 -59.5q31 -92 31 -133q0 -71 -99 -314q-42 -102 -111.5 -182t-138.5 -80q-44 0 -68 37.5t-24 85.5zM588 731q0 38 24.5 143t24.5 148q0 22 -22.5 95 t-22.5 95q0 30 8 50t37 61q32 46 47.5 57t52.5 11q128 0 187 -14.5t73 -59.5q31 -92 31 -133q0 -74 -98 -314q-42 -102 -111.5 -182t-138.5 -80q-44 0 -68 37.5t-24 85.5z" />
<glyph unicode="&#x201e;" horiz-adv-x="1075" d="M51 -242q0 38 24.5 143t24.5 148q0 23 -22.5 95.5t-22.5 93.5q0 31 8 51t37 61q32 46 48 57t53 11q128 0 187 -14.5t73 -59.5q31 -92 31 -133q0 -70 -99 -313q-42 -102 -111.5 -182.5t-138.5 -80.5q-44 0 -68 37.5t-24 85.5zM588 -242q0 38 24.5 143t24.5 148 q0 23 -22.5 95.5t-22.5 93.5q0 31 8 51t37 61q32 46 47.5 57t52.5 11q128 0 187 -14.5t73 -59.5q31 -92 31 -133q0 -73 -98 -313q-42 -102 -111.5 -182.5t-138.5 -80.5q-44 0 -68 37.5t-24 85.5z" />
<glyph unicode="&#x2022;" horiz-adv-x="761" d="M125 643q0 70 5.5 110t24 73t55 46t97.5 13q148 0 192.5 -4t67.5 -25q70 -57 70 -180q0 -145 -15 -206.5t-44 -88.5q-39 -39 -115 -39q-124 0 -181 11.5t-92 45.5q-30 28 -45 70.5t-17.5 77t-2.5 96.5z" />
<glyph unicode="&#x2026;" horiz-adv-x="2144" d="M121 207q0 47 2.5 77t11.5 57.5t25 42.5t42.5 23.5t65.5 8.5q115 0 153 -4.5t58 -22.5q58 -51 58 -153q0 -127 -13 -180t-37 -79q-31 -34 -92 -34q-101 0 -146.5 10.5t-74.5 40.5q-34 34 -43.5 83t-9.5 130zM866 207q0 117 27.5 163t120.5 46q115 0 153 -4.5t58 -22.5 q57 -50 57 -153q0 -127 -12.5 -180t-36.5 -79q-31 -34 -92 -34q-101 0 -146.5 10.5t-74.5 40.5q-35 35 -44.5 84t-9.5 129zM1612 207q0 47 2.5 77t11.5 57.5t25 42.5t42.5 23.5t65.5 8.5q115 0 153 -4.5t58 -22.5q58 -51 58 -153q0 -127 -13 -180t-37 -79q-31 -34 -92 -34 q-101 0 -146.5 10.5t-74.5 40.5q-34 34 -43.5 83t-9.5 130z" />
<glyph unicode="&#x202f;" horiz-adv-x="365" />
<glyph unicode="&#x2039;" horiz-adv-x="520" d="M25 696q0 47 16 68q117 132 254 276q23 23 45 23q79 0 102.5 -12t40.5 -60q17 -42 17 -63q0 -35 -19 -54q-18 -18 -69.5 -62t-77 -73.5t-25.5 -54.5q0 -34 21 -55q16 -16 65.5 -57.5t80 -74t30.5 -57.5q0 -60 -19 -92q-9 -14 -39.5 -31.5t-58.5 -17.5q-23 0 -33 12 q-102 85 -299 273q-32 32 -32 112z" />
<glyph unicode="&#x203a;" horiz-adv-x="520" d="M25 922q0 60 18 90q9 16 39.5 33.5t58.5 17.5q18 0 33 -12q139 -119 297 -273q35 -35 35 -114q0 -46 -17 -66q-129 -149 -253 -276q-23 -23 -46 -23q-79 0 -102.5 11.5t-40.5 58.5q-16 43 -16 63q0 34 16 53q19 19 71 63t77.5 74t25.5 56q0 32 -20 55q-16 16 -65.5 57 t-80 74t-30.5 58z" />
<glyph unicode="&#x205f;" horiz-adv-x="456" />
<glyph unicode="&#x20ac;" horiz-adv-x="1155" d="M41 510q0 54 31 78q3 2 14.5 8t17.5 10t14 11t11.5 15.5t3.5 18.5q0 19 -14.5 32.5t-31.5 21t-31.5 25t-14.5 44.5q0 50 21 68t61 24q31 6 55 33q9 10 51.5 86t96.5 131q96 96 251 153.5t338 57.5q80 0 127.5 -55.5t47.5 -132.5q0 -34 -18.5 -72.5t-43.5 -38.5 q-48 0 -85.5 -1t-91 -4.5t-92.5 -12t-75.5 -21.5t-56 -34.5t-19.5 -49.5q0 -33 66 -33q35 0 117.5 1t117.5 1q103 0 103 -73q0 -35 -23.5 -65.5t-58.5 -30.5q-51 0 -169 3t-169 3q-20 0 -33.5 -14t-13.5 -33q0 -38 17.5 -49t53.5 -11q28 0 98 2t97 2q56 0 84.5 -12.5 t28.5 -54.5q0 -39 -22 -67t-60 -28q-25 0 -86 2.5t-84 2.5q-54 0 -54 -41q0 -45 63 -83t128 -38q57 0 122 4t73 4q37 0 69.5 -51t32.5 -82q0 -63 -37.5 -138t-71.5 -83q-53 -9 -194 -9q-193 0 -335.5 90t-209.5 230q-52 106 -72 138t-41 36q-51 10 -77.5 28t-26.5 54z" />
<glyph unicode="&#x2122;" horiz-adv-x="1605" d="M57 1176q0 28 24 56.5t50 29.5q198 10 430 10q33 0 45 -7t35 -36q19 -23 24 -34t5 -30q0 -4 -11 -59q-11 -40 -20 -53t-29 -13q-15 0 -52.5 1t-49.5 1q-22 0 -29.5 -12.5t-7.5 -36.5q0 -51 3 -171.5t3 -200.5q0 -17 -8.5 -23t-48.5 -20q-11 -3 -26.5 -8.5t-24 -8 t-17.5 -2.5q-23 0 -61.5 27t-38.5 51q0 53 6 199.5t6 156.5q0 24 -11 33.5t-40 9.5q-12 0 -37 -2t-39 -2q-35 0 -43 23q-37 99 -37 121zM739 674q0 23 16 236.5t27 308.5q3 22 29 32q95 33 135 33q48 0 76 -15.5t35 -39.5q5 -18 12.5 -53t14 -62t14 -54.5t14.5 -43t14 -15.5 q10 0 23.5 41t28.5 104.5t18 72.5q7 24 21.5 31.5t58.5 15.5q39 10 63 10q23 0 64 -16q32 -13 44 -25.5t15 -34.5q12 -89 30.5 -294.5t18.5 -278.5q0 -18 -8.5 -26t-44.5 -26q-33 -18 -61 -18q-44 0 -66 14t-22 37q-2 26 -4 114t-6 145t-13 57q-10 0 -28 -63t-38 -151 t-26 -108q-10 -31 -66 -31q-42 0 -53 31q-12 37 -36.5 130.5t-41.5 148.5t-26 55q-13 0 -13 -16q-2 -25 -6.5 -142.5t-7.5 -165.5q-3 -23 -26.5 -34t-49.5 -11q-25 0 -71 33q-37 26 -47.5 39t-10.5 35z" />
<glyph unicode="&#xe000;" horiz-adv-x="1034" d="M0 0v1034h1034v-1034h-1034z" />
</font>
</defs>
</svg>
