<?xml version="1.0" standalone="no"?>
<!DOCTYPE svg PUBLIC "-//W3C//DTD SVG 1.1//EN" "http://www.w3.org/Graphics/SVG/1.1/DTD/svg11.dtd" >
<svg xmlns="http://www.w3.org/2000/svg">
<metadata></metadata>
<defs>
<font id="teen_lightitalic" horiz-adv-x="1124" >
<font-face units-per-em="2048" ascent="1589" descent="-459" />
<missing-glyph horiz-adv-x="475" />
<glyph horiz-adv-x="2048" />
<glyph horiz-adv-x="2048" />
<glyph unicode="&#xd;" horiz-adv-x="1146" />
<glyph unicode=" "  horiz-adv-x="475" />
<glyph unicode="&#x09;" horiz-adv-x="475" />
<glyph unicode="&#xa0;" horiz-adv-x="475" />
<glyph unicode="!" horiz-adv-x="401" d="M102 -6q10 41 14.5 75.5t14.5 82.5l16 69q43 14 134 15q76 0 75 -41q0 -4 -1 -11.5t-3 -19.5l-14 -55q-12 -70 -39 -92.5t-70 -22.5h-127zM217 391q2 0 2 -2zM219 391l25 117q23 111 45 234.5t40.5 243.5t32 226.5t19.5 184.5q16 2 51 3t78 1h55q35 0 47 -21 q-102 -283 -156.5 -524.5t-95.5 -456.5q-2 2 -43 2q-23 0 -45 -2t-53 -8zM305 0q0 6 4 6z" />
<glyph unicode="&#x22;" horiz-adv-x="626" d="M391 1157l4 10q6 31 12.5 90.5t10.5 127t7 132t3 103.5v41q39 4 80 7t84 3h37q-47 -190 -96.5 -319t-61.5 -191q-8 0 -16.5 1t-16.5 1q-23 0 -47 -6zM657 1171v3q8 41 14.5 79.5t11.5 83.5t9 102.5t8 135.5l15 92l192 8q-6 -6 -20.5 -46t-31.5 -96t-37.5 -120.5t-39 -119 t-35 -90.5t-24.5 -36q-6 0 -20.5 2t-41.5 2z" />
<glyph unicode="#" horiz-adv-x="960" d="M223 739l45 127h123q35 0 37 2l88 242h-31q-20 0 -42.5 -1t-71.5 -7q23 66 39 139q106 0 155 6q39 86 56 152q31 -6 65 -6q23 0 57 6q-20 -43 -36.5 -81t-30.5 -79l46 -4t46 -2q47 0 72.5 5t40 21.5t24.5 50t27 89.5q2 -2 16 -2h78q25 0 27 2q-20 -43 -34.5 -84 t-31.5 -82l178 -2q-4 -8 -16 -44t-35 -97l-2 -3q-39 8 -81 12.5t-91 10.5q-18 -43 -40.5 -103.5t-49.5 -138.5q86 -2 131 -3t51 -1l-59 -137q-49 6 -92 9t-78 5q-33 -78 -50.5 -124t-23.5 -58h-123q23 51 41.5 97t34.5 89l-197 3q-51 -152 -69 -185h-115l76 182zM532 864 q2 -2 35 -2h140q25 0 26 -2l90 246l-202 4q-12 -47 -36 -107.5t-53 -138.5z" />
<glyph unicode="$" horiz-adv-x="917" d="M152 393q27 16 59.5 27.5t69.5 21.5q8 -72 98 -123q27 92 50.5 184.5t43.5 190.5l-12 23q-82 20 -141.5 63t-59.5 129q0 70 27.5 128.5t71.5 105.5t100.5 80.5t113.5 54.5v10q0 4 1 9.5t10 17.5l6 37q4 27 6 47t8 33.5t20.5 19.5t45.5 6q41 0 43 -2q-12 -27 -15.5 -61.5 t-21.5 -96.5q20 2 29.5 3.5t13.5 1.5h24q6 0 14.5 -1.5t20.5 -1.5l29 146q27 6 51 6h8q20 0 29 -14q-8 -20 -12 -37t-7.5 -33t-7.5 -33.5t-10 -38.5q182 -47 201 -174q-20 -14 -52 -22t-73 -21q-16 82 -98 109q-31 -88 -45.5 -154.5t-30.5 -142.5l-21 -94q137 -10 192.5 -50 t55.5 -131q0 -92 -28.5 -161.5t-76.5 -118.5t-112.5 -81t-136.5 -50q-4 -20 -9.5 -45t-9.5 -60q-43 6 -92 6l25 82l-117 11l-2 -19q-6 -23 -11 -37t-7 -24v-15q0 -2 2 -2q-4 0 -17.5 -1t-70.5 -1q6 14 7 27.5t5 26.5l16 61q-92 23 -137 65t-63 113zM383 946 q0 -49 25.5 -77.5t87.5 -47.5q14 51 24 93t18.5 82t13.5 82t9 96q-82 -43 -123 -88.5t-53 -106.5q-2 -2 -2 -18v-15zM442 297q18 -8 35 -8l86 -2l94 418q-10 2 -39.5 3t-82.5 5l-7 -39zM557 811q29 -8 58.5 -10t64.5 -4l33 164q20 98 33.5 157.5t17.5 85.5h-29 q-41 0 -61.5 -2t-30.5 -12t-14 -29.5t-11 -56.5l-38 -191q-10 -23 -14.5 -48t-8.5 -54zM641 297q174 63 205 221q8 31 8 62q0 45 -28.5 73.5t-106.5 42.5l-23 -106q-16 -76 -27.5 -140.5t-27.5 -152.5z" />
<glyph unicode="%" horiz-adv-x="1316" d="M242 2q131 164 265 328t266 330.5t258 337.5t239 350q2 -2 26 -2h25q41 0 84 6q-55 -78 -125 -168t-158 -201h-2q-27 -35 -50 -67.5t-52 -67.5v-2q-94 -117 -188.5 -237t-177.5 -231.5t-150.5 -210.5t-110.5 -175q-20 14 -78 14q-23 0 -38 -1t-33 -3zM250 807 q0 27 2 56.5t10 64.5q47 217 133 310t232 93q219 0 219 -217q0 -33 -4.5 -66.5t-12.5 -72.5q-37 -174 -129 -276.5t-223 -102.5q-227 0 -227 211zM338 844q0 -162 147 -162q55 0 104.5 25.5t86.5 77t59.5 125t22.5 169.5q0 168 -146 168q-59 0 -100 -17.5t-70.5 -52 t-50.5 -90t-37 -129.5q-8 -35 -12 -63.5t-4 -50.5zM784 201q0 25 2 55.5t11 65.5q45 215 130 307t228 92q221 0 221 -217q0 -41 -3 -74.5t-13 -62.5q-23 -98 -54.5 -168t-78.5 -117l-2 -2q-90 -90 -213 -90q-227 0 -228 211zM870 236q0 -162 148 -162q55 0 104 25.5t86 76.5 t59.5 126t22.5 171q0 166 -147 166q-113 0 -171 -70t-87 -217q-14 -59 -15 -116z" />
<glyph unicode="&#x26;" horiz-adv-x="1167" d="M141 307q0 88 44 169t113 151.5t150.5 132t159.5 110.5q-29 72 -45 136.5t-16 142.5q0 63 24.5 114.5t67.5 86t100.5 53t122.5 18.5q74 -8 133.5 -53t59.5 -127q0 -66 -16.5 -122t-52.5 -105t-92 -93t-138 -87q29 -123 67.5 -241t98.5 -259q37 41 65.5 73.5t51 62.5 t40 57.5t33.5 58.5q53 -41 119 -51q-33 -68 -89.5 -144t-164.5 -172q41 -57 71.5 -120.5t47.5 -98.5q-29 0 -57.5 3t-55.5 3q-20 0 -31.5 -1t-25.5 -3q-18 29 -35 55.5t-37 46.5q-53 -37 -100 -60.5t-93.5 -36.5t-92.5 -18t-97 -5q-92 0 -154.5 28.5t-101.5 74.5 t-56.5 103.5t-17.5 116.5zM287 307q0 -90 45 -145.5t160 -55.5q98 0 170.5 34t140.5 96q-25 63 -46.5 121.5t-42 118t-41 125t-40.5 144.5l-105 -81q-55 -45 -100 -86t-75.5 -82t-48 -87.5t-17.5 -101.5zM678 1147q0 -90 37 -207q45 35 84 60.5t66.5 51t44 59.5t16.5 87 q0 84 -103 84q-66 0 -105.5 -38t-39.5 -97z" />
<glyph unicode="'" horiz-adv-x="301" d="M356 1161q18 129 33 256t23 256q2 -2 34 -2h146q-6 -16 -25.5 -74.5t-44 -135.5t-48 -157.5t-38.5 -142.5q-12 0 -22.5 1t-18.5 1q-12 0 -21 -1t-18 -1z" />
<glyph unicode="(" horiz-adv-x="589" d="M90 -29q0 100 15.5 232.5t43 280t69.5 304t95.5 304t119 279.5t140 232.5t159.5 161t177 64.5q-12 -27 -24.5 -80t-16.5 -98q-86 -20 -166.5 -122t-151.5 -251.5t-130.5 -330.5t-101.5 -361t-65.5 -342t-23.5 -273q0 -190 52.5 -287t150.5 -122q-18 -35 -27.5 -81 t-13.5 -87q-74 6 -130 50t-94 120t-57.5 179t-19.5 228z" />
<glyph unicode=")" horiz-adv-x="589" d="M-47 -604q16 35 26.5 85t14.5 91q82 25 159.5 128t147.5 253.5t129 331t101 358.5t66 338t24 268q0 186 -45.5 293t-149.5 121q12 33 19.5 82t17.5 86q152 -12 225.5 -162.5t73.5 -398.5q0 -133 -28.5 -320.5t-82 -391.5t-127 -405.5t-164 -365.5t-194 -270.5 t-213.5 -120.5z" />
<glyph unicode="*" horiz-adv-x="1208" d="M199 782q49 94 73 183q104 -82 211 -135t213 -82q-6 72 -10 132t-9 119.5t-11.5 123t-16.5 141.5q55 -12 144 -13h29.5t25.5 2q-8 -53 -14.5 -96t-10.5 -96t-7 -125t-5 -182q100 20 202.5 48.5t239.5 82.5q6 -98 37 -178q-66 -4 -122 -10.5t-108 -14.5t-103.5 -19.5 t-106.5 -25.5q45 -78 112.5 -164t165.5 -184q-47 -33 -83.5 -62.5t-69.5 -64.5q-55 131 -112.5 231.5t-117.5 169.5q-72 -74 -139 -171t-133 -216q-55 68 -156 115q104 88 187.5 177t146.5 177q-57 23 -110.5 41.5t-107.5 34.5t-111.5 31.5t-122.5 29.5z" />
<glyph unicode="+" horiz-adv-x="880" d="M184 784h50.5t54.5 -1t87 -2t150 -3q0 82 -1 138.5t-2 92t-3 56t-4 35.5q6 -2 39 -2q78 0 102 8v-49.5t-1 -52t-3 -85t-4 -145.5q57 0 125 -1t150 -1h24q33 0 35 2v-137q-25 2 -52.5 5t-65.5 5t-91 4t-129 2q0 -59 -1 -128.5t-1 -155.5v-27q0 -29 2 -31h-135q2 25 5 52.5 t5 66.5t4 92t2 131q-86 0 -144 -1t-95 -2t-58.5 -3t-33.5 -4q0 8 1 18.5t1 22.5q0 37 -2 61.5t-11 38.5z" />
<glyph unicode="," horiz-adv-x="462" d="M16 -276l56 49q12 -16 57 -17q59 0 101 52.5t71 177.5q-43 23 -125 22q-18 0 -26.5 -1t-16.5 -1v14q0 44 14 103q6 23 7.5 46.5t11.5 41.5t33.5 29.5t76.5 11.5q82 0 111 -17.5t29 -64.5q0 -92 -23.5 -178t-65.5 -151.5t-97.5 -104.5t-116.5 -39q-78 0 -97 27z" />
<glyph unicode="-" horiz-adv-x="698" d="M233 643q0 14 4.5 35.5t9.5 43t9 39t4 21.5q78 -6 161 -8t208 -2h125q16 0 18 2l-29 -137h-2q-70 8 -141.5 12t-146.5 4q-57 0 -113.5 -2t-106.5 -8z" />
<glyph unicode="." horiz-adv-x="425" d="M92 -6q6 41 12.5 82t18.5 88l14 74q29 12 57.5 14t86.5 2h100v-49q0 -23 -2 -25l-14 -59q-10 -35 -20.5 -64.5t-16.5 -48.5l-4 -4q-35 -4 -77 -7t-91 -3h-64z" />
<glyph unicode="/" horiz-adv-x="778" d="M49 6q94 129 211 300t236.5 354.5t232.5 364.5t201 331q36 6 71 6q10 0 16.5 -1t16.5 -1q-68 -88 -148.5 -202t-164.5 -238.5t-167 -253.5t-157.5 -251t-137 -229.5t-103.5 -187.5q-14 8 -74 8h-33z" />
<glyph unicode="0" horiz-adv-x="1185" d="M178 387q0 193 49 376t144.5 325.5t233.5 229.5t319 87q106 0 180 -33t118 -91t63.5 -137t19.5 -169q0 -98 -15.5 -210t-50.5 -222.5t-90 -212t-135 -179t-185.5 -123.5t-240.5 -46q-215 0 -312.5 103t-97.5 302zM319 387q0 -143 69 -201.5t222 -58.5q147 0 253 78 t173.5 202.5t98 277.5t30.5 304q0 131 -63.5 205t-227.5 74q-127 0 -229 -75t-175 -198t-112 -281.5t-39 -326.5z" />
<glyph unicode="1" horiz-adv-x="512" d="M258 2q29 57 56.5 143t53 187.5t48 215.5t44 226.5t39 219t31.5 194.5q-45 -35 -73.5 -59.5t-49 -45t-37 -40t-34.5 -42.5q-20 25 -36.5 45.5t-25.5 26.5q88 76 158 155t121 165q33 -10 73 -13.5t81 -3.5q-18 -45 -43 -129t-51.5 -195.5t-53.5 -242.5t-51.5 -269.5 t-45 -277.5t-32.5 -264q-16 4 -38.5 6t-63.5 2q-16 0 -31.5 -1t-38.5 -3z" />
<glyph unicode="2" horiz-adv-x="1181" d="M147 2q33 63 49.5 143t36 163t50 162t93 140.5t165 98t266.5 36.5q111 0 180.5 23t109.5 69t54 115.5t14 163.5q0 49 -15 79t-47 46t-83 22.5t-123 6.5q-141 0 -226 -33t-108 -121q-35 4 -77 15.5t-64 21.5q25 72 75 120t116.5 77.5t142 42t153.5 12.5q82 0 155 -10.5 t125 -40t83 -82.5t31 -139q0 -154 -43 -251.5t-114 -153.5t-163 -78.5t-188 -26.5q-72 -4 -140.5 -17.5t-127 -49.5t-101.5 -96.5t-61 -154.5l-25 -162h553q98 0 162.5 3.5t85.5 9.5q0 -4 -3 -21.5t-8.5 -41t-12.5 -51.5t-15 -50q-209 8 -368 11t-296 3q-98 0 -162.5 -1 t-128.5 -3z" />
<glyph unicode="3" horiz-adv-x="1019" d="M119 203q35 18 69.5 28.5t73.5 20.5q4 -88 72.5 -122t193.5 -34q86 0 157 15.5t120 55.5t75.5 108.5t26.5 177.5q0 61 -31.5 98t-79.5 56.5t-105.5 26.5t-108.5 7q-70 0 -95 -6q16 35 23.5 69.5t13.5 69.5q14 -6 48 -7t73 -1q170 0 272.5 78t102.5 250q0 55 -17.5 90 t-50 53t-80 25.5t-104.5 7.5q-129 0 -208 -29t-120 -127q-66 18 -116 55q25 76 75 123t113 72t135 33t139 8q174 0 275.5 -71.5t101.5 -219.5q0 -57 -11 -119.5t-43 -121t-92.5 -106.5t-158.5 -75q104 -35 146.5 -92t42.5 -137q0 -160 -41 -258.5t-116 -151.5t-178.5 -70.5 t-228.5 -17.5q-68 0 -132 10.5t-114.5 36t-83 71.5t-34.5 120z" />
<glyph unicode="4" horiz-adv-x="1062" d="M98 279q8 37 17.5 88t13.5 98q57 51 128 122.5t148.5 154.5t158.5 172.5t160 176.5t149.5 165.5t127.5 140.5q8 -10 44 -14.5t77 -4.5h37q-31 -92 -61.5 -208.5t-60 -243.5t-56.5 -257t-49 -251q59 0 92 7t61 11q0 -29 -10 -75t-24 -97q-41 0 -78 2t-53 6 q-18 -104 -28.5 -170.5t-10.5 -101.5q-10 4 -35 5t-66 1h-43q-25 0 -26 -2q12 35 31.5 99.5t45.5 168.5q-160 6 -276.5 8.5t-214.5 2.5q-66 0 -109 -1t-90 -3zM268 430q131 -6 277.5 -10t275.5 -8q10 41 19.5 72.5t13.5 56.5l20 104q29 127 53.5 254t53.5 291 q-113 -109 -199 -196t-164.5 -171t-161 -177t-188.5 -216z" />
<glyph unicode="5" horiz-adv-x="1062" d="M135 223q88 47 160 60q4 -55 23.5 -91t52 -55.5t75.5 -27t97 -7.5q100 0 178 20.5t131 70t79.5 129t26.5 198.5q0 96 -56 135t-202 39q-111 0 -220 -10.5t-183 -30.5q27 166 62.5 342t66.5 385h86q68 0 155 1t176 2t173 2t147 1h78q-12 -25 -21.5 -59.5t-19.5 -81.5 l-8 -24q-117 18 -227.5 24t-229.5 6q-41 0 -84 -1t-108 -1q-27 -111 -51.5 -220t-40.5 -232q98 23 165.5 30t131.5 7q195 0 273.5 -82t78.5 -220q0 -172 -36 -279.5t-109.5 -168.5t-188.5 -82.5t-270 -21.5q-70 0 -130.5 11t-107.5 38.5t-79 75t-44 118.5z" />
<glyph unicode="6" horiz-adv-x="1097" d="M160 276q0 80 16.5 181.5t46.5 238.5q43 211 87 348.5t113 218t175.5 112.5t273.5 32q147 0 241.5 -57.5t129.5 -198.5q-41 -23 -65.5 -35t-51.5 -16q-14 53 -37.5 87t-60.5 53.5t-90 26.5t-127 7q-84 0 -148.5 -11.5t-115.5 -57.5t-92 -137t-76 -251l-17 -74 q72 72 126.5 111t102.5 57.5t96 21.5t108 3q195 0 279.5 -74t84.5 -205q0 -133 -28.5 -255.5t-95 -218t-174 -152t-265.5 -56.5h-14q-117 2 -198 18.5t-131 51.5t-71.5 91.5t-21.5 139.5zM305 336q0 -133 69.5 -180t213.5 -47q123 0 203.5 37.5t130 105t69 160t19.5 202.5 q0 59 -16.5 95t-48.5 56.5t-82 29t-118 12.5q-80 0 -143 -20.5t-114.5 -54.5t-88.5 -78t-63 -93l-2 -6q-16 -57 -22.5 -111.5t-6.5 -107.5z" />
<glyph unicode="7" horiz-adv-x="1017" d="M211 -4q80 106 173 234t199.5 284t226.5 341t253 405h-145q-121 0 -205 -2.5t-148.5 -5.5t-118 -8t-110.5 -11l2 10q10 43 17 81t7 71q131 -6 242 -9.5t227 -3.5q119 0 223.5 2t215.5 11q-6 -47 -9.5 -87t-21.5 -81q-68 -72 -141.5 -168t-149.5 -206t-151.5 -226.5 t-143 -230t-127 -216t-104.5 -184.5h14l-26 -14l12 14q-27 2 -50.5 3t-52.5 1h-59q-10 0 -23.5 -1t-25.5 -3z" />
<glyph unicode="8" horiz-adv-x="1056" d="M141 283q0 76 19.5 145.5t57.5 127.5t96.5 103.5t138.5 69.5q-45 20 -75 39.5t-48.5 43.5t-25.5 56.5t-7 81.5q0 131 45 218t119 139.5t167 75t189 22.5q86 0 155.5 -13.5t120 -46t78 -88t27.5 -137.5q0 -61 -11 -122.5t-44 -117t-92.5 -100.5t-155.5 -71q98 -33 141 -81 t43 -134q0 -158 -40 -260.5t-113.5 -162t-176 -83t-227.5 -23.5q-172 0 -276.5 80t-104.5 238zM276 258q0 -37 11.5 -66.5t40 -51t79 -33t130.5 -11.5q98 0 172.5 16.5t126 57.5t78 111.5t26.5 179.5q0 53 -22.5 87t-60.5 52t-85 26.5t-96 12.5q-195 0 -297.5 -87 t-102.5 -294zM434 942q0 -37 11.5 -68.5t39 -56t75.5 -38t120 -13.5q178 0 276.5 81t98.5 243q0 57 -17.5 92t-49.5 54t-79 26.5t-104 7.5q-84 0 -152.5 -14.5t-117 -51.5t-75 -100.5t-26.5 -161.5z" />
<glyph unicode="9" horiz-adv-x="1148" d="M176 223q41 23 75 39.5t58 20.5q29 -74 97.5 -127.5t207.5 -53.5q100 0 173 39t126.5 108.5t89 163.5t60.5 205q-53 -53 -102.5 -87.5t-99.5 -54t-107.5 -28t-124.5 -8.5q-195 0 -281 79t-86 214q0 141 34 264t104.5 212t181 140.5t264.5 51.5q117 0 196.5 -16.5 t129 -52.5t71 -94t21.5 -140q0 -80 -16.5 -180.5t-45.5 -237.5q-43 -211 -89 -348t-114.5 -218t-174 -113t-269.5 -32q-90 0 -153.5 19.5t-107.5 53.5t-71.5 81t-46.5 100zM412 766q0 -117 71.5 -157t221.5 -42q106 0 185 41t131 107.5t76.5 151.5t24.5 171 q0 135 -71.5 181.5t-212.5 46.5q-211 0 -318.5 -132.5t-107.5 -367.5z" />
<glyph unicode=":" horiz-adv-x="432" d="M92 -6q6 41 12.5 82t18.5 88l14 74q35 10 75 13t83 3q49 0 68.5 -8t19.5 -35q0 -6 -1 -13.5t-3 -17.5l-14 -59q-10 -43 -21.5 -68.5t-28 -39t-38 -17.5t-50.5 -4q-16 0 -33.5 1t-37.5 1h-64zM262 782q0 25 4 29l15 61q10 43 20 68t23.5 39t32 18t46.5 4q16 0 38 -1t44 -1 h68q-4 -41 -12.5 -81.5t-18.5 -90.5l-16 -71q-29 -10 -67 -13.5t-85 -3.5q-53 0 -72.5 8.5t-19.5 34.5z" />
<glyph unicode=";" horiz-adv-x="442" d="M-2 -276q4 10 51 49q12 -16 55 -17q63 0 102.5 52.5t59.5 125.5l8 31l-12 19q-41 25 -108 24q-16 0 -25.5 -1t-19.5 -1v14q0 18 5 43t11 60q8 27 12 51.5t14.5 40.5t32 26.5t68.5 10.5q84 0 113.5 -17.5t29.5 -64.5q0 -92 -25.5 -178t-67.5 -151.5t-97 -104.5t-113 -39 q-82 0 -94 27zM279 782q0 27 2 29l14 61q10 43 21.5 69t25.5 39t31.5 17t42.5 4q16 0 38.5 -1t45.5 -1h65q-4 -41 -11 -81.5t-17 -90.5l-15 -71q-29 -10 -66.5 -13.5t-88.5 -3.5q-53 0 -70.5 8.5t-17.5 34.5z" />
<glyph unicode="&#x3c;" horiz-adv-x="1075" d="M158 510q0 18 1 32.5t1 41.5q0 23 -1 46t-1 54q252 63 484 159.5t450 219.5q-2 -12 -3.5 -25.5t-1.5 -25.5v-150q-180 -33 -372.5 -108.5t-366.5 -173.5q109 -53 204 -93.5t186 -71t181.5 -55t188.5 -45.5q-8 -31 -8 -127v-57q-92 49 -215 106.5t-253 111.5t-255 97 t-219 64z" />
<glyph unicode="=" horiz-adv-x="774" d="M236 920q90 -4 182 -6.5t223 -2.5h137q18 0 21 2v-139q-86 10 -166 14.5t-172 4.5q-59 0 -114.5 -2.5t-104.5 -6.5q0 6 1 16.5t1 22.5q0 74 -8 97zM244 639q41 -2 75.5 -3t75.5 -1h381q29 0 31 2v-137q-80 10 -159 13t-165 3q-61 0 -121.5 -2t-113.5 -6q0 6 1 16.5 t1 20.5q0 66 -6 94z" />
<glyph unicode="&#x3e;" horiz-adv-x="1073" d="M236 874q8 35 8 127v62q88 -51 211 -108.5t254 -112t257 -96t218 -62.5v-174q-254 -63 -487.5 -162.5t-444.5 -216.5q2 12 3 23.5t1 25.5v150q92 16 177 44.5t173 64.5t181.5 78t201.5 85q-96 61 -190 103.5t-187.5 73t-187.5 53t-188 42.5z" />
<glyph unicode="?" horiz-adv-x="978" d="M303 1169q23 68 73 112t114.5 70.5t134 38t131.5 11.5q90 0 164.5 -16.5t129 -52.5t84 -91t29.5 -135q0 -145 -41 -230t-102.5 -135.5t-135 -78t-139 -56t-112.5 -69.5t-58 -119q-8 0 -15 2t-25 2q-29 0 -57.5 -3t-63.5 -7l6 16q25 100 78 155.5t119.5 88.5t137 57.5 t129 64.5t95.5 107.5t37 188.5q0 111 -63.5 151.5t-209.5 40.5q-117 0 -203.5 -43t-127.5 -141q-10 2 -26.5 13t-34 24.5t-32 23.5t-16.5 10zM313 -6q10 41 12.5 75.5t14.5 82.5l18 69q43 14 131 15q43 0 59.5 -9.5t16.5 -31.5q0 -4 -1 -11.5t-3 -19.5l-10 -55 q-14 -70 -41 -92.5t-70 -22.5h-127z" />
<glyph unicode="@" horiz-adv-x="1394" d="M184 391q0 221 56.5 406.5t164 320.5t266 211t365.5 76q242 0 363 -96.5t121 -321.5q0 -43 -10.5 -114.5t-31 -153.5t-51 -165t-70.5 -150.5t-90 -109.5t-108 -42q-55 0 -90 50t-37 136q-47 -66 -86 -102.5t-74.5 -54t-72.5 -21.5t-82 -4q-104 0 -161.5 68.5t-57.5 205.5 t35.5 247t93 186.5t131 118.5t151.5 42q86 0 137.5 -52t63.5 -150q12 41 23.5 86t17.5 94q41 2 55.5 3t24.5 5q-18 -59 -33.5 -108.5t-30 -101.5t-30 -115.5t-33.5 -151.5q-10 -45 -13.5 -92t-3.5 -88q0 -31 2.5 -57.5t11.5 -47t26.5 -33t46.5 -12.5q39 0 75.5 38t69.5 97.5 t58.5 134t44 148.5t28.5 140.5t10 109.5q0 205 -110.5 287.5t-343.5 82.5q-156 0 -294.5 -62t-241.5 -179t-163.5 -286t-60.5 -384q0 -106 29.5 -180t87 -120t143.5 -67.5t196 -21.5q150 0 218 29l14 -52q-92 -27 -238 -26q-129 0 -225 20.5t-159.5 67.5t-95.5 123t-32 188z M563 541q0 -205 197 -205q88 0 147.5 54t96 128t52 152t15.5 127q0 106 -42 173.5t-134 67.5q-59 0 -118.5 -27.5t-106.5 -88t-77 -154.5t-30 -227z" />
<glyph unicode="A" d="M18 2q281 481 466.5 819t287.5 555q57 6 96 6q23 0 38.5 -1t31.5 -3q20 -332 61 -668.5t99 -707.5q-2 2 -21 2h-131q-23 0 -24 -2q0 14 1 28.5t1 26.5q0 31 -3 81t-7.5 102.5t-10.5 98.5t-12 69h-100.5t-134 -1t-138 -1h-112.5q-47 -86 -81 -151t-57.5 -113t-39 -81.5 t-27.5 -60.5q-23 2 -42.5 3t-33.5 1h-53q-16 0 -30 -1t-24 -1zM455 528q106 -6 213.5 -6t220.5 -4q0 104 -4 186t-11.5 158t-20 155t-28.5 179q-129 -199 -221 -365.5t-149 -302.5z" />
<glyph unicode="B" horiz-adv-x="1126" d="M94 8q27 92 55.5 207t56 239t54.5 252t50.5 247.5t42 226t30.5 186.5q104 10 198.5 17.5t198.5 7.5q72 0 152 -10.5t147.5 -42t111.5 -93t44 -164.5q0 -104 -59.5 -192t-200.5 -160q88 -43 131 -99.5t43 -164.5q0 -154 -60.5 -248t-164 -145.5t-242.5 -68.5t-295 -17 q-111 0 -181.5 6t-111.5 16zM285 123q66 -4 123 -9t104 -5q78 0 162 7t153.5 42t114.5 109.5t45 207.5q0 61 -21.5 98t-59.5 56.5t-93 27t-123 7.5q-31 0 -106.5 -3.5t-204.5 -13.5q-20 -94 -36.5 -164.5t-28 -130t-18.5 -114t-11 -115.5zM401 774q98 -6 146 -6h49 q74 0 158 7t156.5 38t120.5 96.5t48 182.5q0 49 -20.5 78.5t-65.5 46t-114.5 22.5t-167.5 6q-53 0 -100.5 -2t-104.5 -10q-20 -84 -33.5 -141.5t-25 -106.5t-22 -97t-24.5 -114z" />
<glyph unicode="C" horiz-adv-x="1130" d="M184 430q0 201 47.5 379t141.5 311t235.5 210t331.5 77q160 0 245 -61.5t113 -192.5q-41 -23 -73.5 -39t-59.5 -20q-20 92 -88.5 125.5t-179.5 33.5q-154 0 -262.5 -69.5t-176 -184t-99 -260t-31.5 -295.5q0 -166 71.5 -244.5t218.5 -78.5q131 0 221.5 34t149.5 126 q41 -14 69.5 -26.5t51.5 -25.5q-168 -254 -500 -254q-115 0 -194.5 33t-132 93.5t-76 143.5t-23.5 185z" />
<glyph unicode="D" horiz-adv-x="1200" d="M109 2q49 201 92 400.5t78.5 382t62.5 337t43 264.5q90 6 156.5 7.5t138.5 1.5q133 0 246.5 -13.5t196.5 -59.5t130 -135t47 -243q0 -258 -59 -439t-172 -296t-275.5 -167t-367.5 -52q-156 0 -317 12zM283 135q78 -8 133 -11t102 -3q174 0 297 55t200 159.5t112.5 253 t35.5 335.5q0 92 -20.5 155.5t-68.5 101.5t-129 55t-202 17q-53 0 -105 -3t-132 -5l-29 -123q-72 -307 -119.5 -544.5t-74.5 -442.5z" />
<glyph unicode="E" horiz-adv-x="968" d="M100 -2q39 121 76 274.5t72 331.5t69.5 377t69.5 410q53 -4 103.5 -6.5t134.5 -2.5q33 0 93 2t127.5 4.5t135.5 4.5t119 2h50t34 -2q-27 -57 -37 -127l-6 -41q-129 14 -244 20t-219 6h-182q-16 -76 -29.5 -132t-25 -108.5t-21.5 -106.5t-21 -126q55 -4 107.5 -5t101.5 -1 q111 0 211.5 2t192.5 8q-29 -59 -31 -151q-90 4 -165 7t-173 3q-61 0 -125.5 -1t-152.5 -1q-20 -86 -35 -152.5t-25 -123t-20.5 -111.5t-22.5 -119q47 -2 77 -3t58 -1q49 0 131 5t163 10.5t146.5 10.5t82.5 5v-10q0 -10 -4.5 -33t-9.5 -46.5t-9 -45t-4 -29.5q-86 6 -173 8 t-179 2h-111.5t-117 -1t-113 -3t-99.5 -4z" />
<glyph unicode="F" horiz-adv-x="862" d="M94 -2q31 117 62.5 248t61.5 264t57.5 264t50 248t39 213t22.5 160q82 -6 152.5 -8.5t156.5 -2.5q111 0 212.5 4.5t221.5 12.5q-4 -27 -7 -54.5t-8 -51t-12 -39t-20 -15.5q-2 0 -27.5 2t-68.5 4t-100.5 4t-124.5 2h-279q-12 -76 -23 -135t-23.5 -114.5t-26 -110.5 t-27.5 -123q76 -6 125 -7t98 -1q111 0 201 5t166 15l-35 -153q-29 2 -94.5 5t-163.5 3h-27.5t-49.5 -1t-90 -2t-151 -3q-37 -129 -65.5 -282.5t-54.5 -350.5q-14 0 -19 1t-28 1q-25 0 -48.5 -1t-52.5 -1z" />
<glyph unicode="G" horiz-adv-x="1155" d="M182 440q0 217 53.5 394.5t151.5 304.5t236.5 196.5t308.5 69.5q317 0 364 -244q-80 -45 -141 -57q-20 76 -93 119t-171 43q-131 0 -236.5 -65.5t-180.5 -177.5t-116 -261.5t-41 -317.5q0 -340 328 -340q90 0 167 30t132 86t87 138t32 185q-14 8 -51 12t-78 4 q-20 0 -50 -1t-60.5 -1t-57.5 -1t-41 -1q10 31 19.5 69t11.5 72q66 -4 123 -6t120 -2q68 0 120 2t100 6q-49 -721 -607 -721q-215 0 -322.5 126t-107.5 339z" />
<glyph unicode="H" horiz-adv-x="1189" d="M90 -2q39 117 82 287t85 358t78 383t60 360q18 0 48 1.5t73 7.5h33q-39 -139 -63.5 -227.5t-40 -151t-25.5 -112.5t-21 -113q104 -14 187.5 -17.5t173.5 -3.5q86 0 170 3t198 11q33 152 61 291t48 309q41 15 102 15q29 0 60 -6q-12 -39 -31.5 -119t-43.5 -185.5 t-49.5 -226.5t-52 -242.5t-51 -233.5t-45 -199t-35 -138t-18.5 -51h-119q-23 0 -24 -2q45 117 82 265.5t78 356.5q-51 29 -304 29q-252 0 -424 -12q-12 -72 -27.5 -169t-32.5 -190.5t-33.5 -171t-30.5 -108.5q-10 4 -21.5 4h-23.5h-51.5t-51.5 -2z" />
<glyph unicode="I" horiz-adv-x="331" d="M82 4q23 63 50.5 160.5t56 214.5t56 248t53.5 263t47.5 259t35.5 237q35 9 86 9q43 0 70 -9q-31 -92 -63 -210.5t-61.5 -246.5t-56 -261t-48 -257t-36 -230.5t-18.5 -182.5q-16 4 -36.5 6t-61.5 2h-47q-25 0 -27 -2z" />
<glyph unicode="J" horiz-adv-x="872" d="M76 219l133 41q2 -80 53 -110.5t137 -30.5q90 0 153.5 33.5t108 94t74 143.5t51.5 181q27 119 47.5 223.5t37 203t32 194.5t31.5 201h131q18 0 20 2q-25 -90 -76 -322.5t-135 -634.5q-45 -229 -167.5 -338.5t-321.5 -109.5q-131 0 -214 52t-95 177z" />
<glyph unicode="K" horiz-adv-x="1103" d="M96 0q41 135 85 315.5t83 369.5t71 370.5t50 322.5q35 2 54.5 3t41.5 1q63 0 66 -2q-47 -150 -91 -318.5t-71 -322.5q78 47 165 119t175 158t174 179t162 183h242q-88 -41 -272.5 -211t-489.5 -473q82 -152 207.5 -321.5t298.5 -378.5q-2 -2 -27 -2h-82q-41 0 -66.5 2 t-50.5 6q-53 92 -110.5 187.5t-110.5 179.5t-102 153.5t-86 110.5l-45 -25q-47 -147 -72 -297.5t-45 -310.5q-33 2 -53.5 3t-44.5 1q-23 0 -36.5 -1t-19.5 -1z" />
<glyph unicode="L" horiz-adv-x="870" d="M102 -4q92 352 164 703.5t119 693.5q16 -2 45 -5.5t55 -3.5q18 0 34 2.5t24 6.5q-41 -139 -81 -296t-76 -320t-64.5 -325.5t-47.5 -312.5q33 -2 76 -3t80 -1q98 0 203.5 8.5t247.5 20.5q0 -41 -11.5 -88t-31.5 -86q-104 8 -219 10t-269 2q-23 0 -57.5 -1t-70.5 -2 t-68.5 -2t-51.5 -1z" />
<glyph unicode="M" horiz-adv-x="1538" d="M92 0q49 182 92 356t82 346t75 344.5t71 350.5h200q27 -285 77 -565.5t128 -587.5q111 147 206 291.5t179 289t161 290t148 292.5q23 2 68 7t86 5t68 -8q-104 -446 -180 -800.5t-99 -614.5q-10 0 -16 1t-35 1q-27 0 -50.5 -1t-64.5 -1q51 197 87 347.5t63.5 284.5t50 264 t47.5 286q-193 -289 -371 -578t-358 -606h-29q-16 0 -32.5 3l-38.5 7q-2 35 -10.5 104.5t-21.5 164t-31.5 206t-43.5 228t-54.5 231.5t-64.5 217q-41 -131 -77.5 -283.5t-67.5 -308t-55.5 -301t-40.5 -262.5q-2 2 -19 2h-115q-14 0 -14 -2z" />
<glyph unicode="N" horiz-adv-x="1241" d="M90 -2q49 180 94 372.5t84 377t69 348.5t48 286q8 -4 31 -4q39 0 87 2t81 11q25 -92 62.5 -207t94 -262.5t131 -330t172.5 -407.5q31 94 60 207t54.5 229.5t49 233.5t41 220.5t30.5 189.5t19 141q6 0 27 5t57 5q61 0 72 -8q-49 -184 -97 -374.5t-89 -372t-73 -348.5 t-48 -304l-227 -16q-18 119 -60.5 269.5t-101 312t-127 323.5t-142.5 301q-31 -123 -67.5 -271.5t-71.5 -306t-63.5 -316.5t-42.5 -300q-2 -2 -16.5 -3t-33 -2l-37 -2t-28.5 -1q-37 0 -39 2z" />
<glyph unicode="O" horiz-adv-x="1206" d="M178 399q0 109 17.5 225.5t55.5 229.5t97.5 212t143 175t193.5 120t247 44q109 0 182.5 -34t119.5 -92t65.5 -137t19.5 -171q0 -104 -16.5 -218t-52.5 -223.5t-92 -209t-137 -175t-186.5 -119.5t-238.5 -44q-115 0 -193.5 29.5t-129 85t-73 132t-22.5 170.5zM313 410 q0 -154 72 -216.5t231 -62.5q150 0 256.5 74t176 193.5t102.5 269t33 301.5q0 141 -67.5 221t-233.5 80q-127 0 -232.5 -71t-180.5 -188.5t-116 -273t-41 -327.5z" />
<glyph unicode="P" horiz-adv-x="1036" d="M94 -2q23 61 52.5 183t70.5 302q25 117 65 333t101 550q154 18 356 18q121 0 213 -14t153.5 -48t93.5 -90t32 -140q0 -150 -50.5 -253.5t-140.5 -167t-212.5 -92t-270.5 -28.5q-43 0 -88 2t-117 10q-23 -80 -42 -162t-32.5 -155.5t-21.5 -136t-8 -105.5q-27 -4 -51.5 -7 t-49.5 -3q-14 0 -26 1t-27 3zM383 686q49 -4 95 -6t87 -2q111 0 205 15.5t161.5 58.5t106.5 118.5t39 196.5q0 63 -25.5 103t-73.5 62.5t-116.5 30t-154.5 7.5q-41 0 -86.5 -2t-106.5 -8q-43 -117 -75.5 -255.5t-55.5 -318.5z" />
<glyph unicode="Q" horiz-adv-x="1206" d="M174 410q0 203 43 383t133 315t228.5 215t330.5 80q391 0 391 -426q0 -133 -24.5 -261t-67.5 -241t-103.5 -204t-129.5 -152q53 -104 79.5 -154.5t41.5 -64.5q-39 -20 -81 -43t-83 -54q-12 57 -21.5 113.5t-38.5 128.5q-61 -35 -131.5 -50t-148.5 -15q-215 0 -316.5 104 t-101.5 326zM297 436q0 -76 16.5 -136t52 -103t94 -65.5t144.5 -22.5q59 0 111.5 9t118.5 38q-49 137 -103.5 230t-91.5 146q12 12 29.5 25.5t37 26t40 21.5t38.5 13q16 -80 48 -169t83 -224q63 51 110.5 137.5t79.5 187.5t47 206.5t15 195.5q0 145 -68.5 225t-238.5 80 q-152 0 -258 -73.5t-174 -191.5t-99.5 -264t-31.5 -292z" />
<glyph unicode="R" horiz-adv-x="1064" d="M94 0q106 422 178 754.5t113 599.5q129 14 229.5 20t173.5 6q442 0 443 -290q0 -125 -41 -218.5t-109.5 -156t-159 -93t-188.5 -30.5q-35 0 -69.5 2t-69.5 8q37 -61 87 -135t107.5 -152.5t120 -159.5t123.5 -157h-2q-4 0 -8 1t-10 1h-66q-72 0 -121 -6 q-111 217 -220 365.5t-189 246.5l-49 2q-53 -158 -80 -303t-47 -305q-23 2 -42.5 3t-37.5 1t-34.5 -1t-31.5 -3zM379 694q63 -2 106 -3t84 -1q111 0 204 12.5t160.5 51.5t105.5 110.5t38 190.5q0 59 -20.5 97t-61.5 59.5t-101 29.5t-140 8q-55 0 -117 -4t-148 -14 q-20 -70 -36.5 -133.5t-30.5 -127t-24.5 -131t-18.5 -145.5z" />
<glyph unicode="S" horiz-adv-x="1062" d="M125 223q43 23 83 37t75 23q16 -82 87.5 -131.5t170.5 -49.5q88 0 161.5 24t128 69t84 109.5t29.5 148.5q0 188 -307 188q-180 0 -264 77t-84 200q0 113 44 202.5t119.5 153t177 97.5t216.5 34q72 0 136.5 -17.5t114.5 -48t80.5 -74.5t34.5 -98q-68 -37 -151 -55 q-43 170 -256 170q-78 0 -145.5 -22.5t-119 -66.5t-81 -109.5t-29.5 -151.5q0 -174 291 -174q186 0 277.5 -84t91.5 -215q0 -123 -48.5 -213t-130.5 -149.5t-190.5 -88t-228.5 -28.5q-70 0 -134.5 16t-114.5 47t-82 76t-36 104z" />
<glyph unicode="T" horiz-adv-x="1034" d="M319 1245l31 152q111 -4 207 -7.5t207 -3.5q135 0 258 4.5t268 10.5q-12 -35 -21 -76l-18 -82q-55 6 -110.5 10t-110.5 4q-41 0 -83 -2t-103 -2q-70 -305 -140.5 -614t-103.5 -635q-20 0 -46 -5t-95 -5h-23q23 78 49.5 179t54 214t55.5 231.5t49.5 232.5t37.5 217t23 185 q-23 2 -61 3t-83 1q-61 0 -125.5 -3t-116.5 -9z" />
<glyph unicode="U" horiz-adv-x="1144" d="M184 324q0 102 17.5 227t46 261t67.5 281.5t80 286.5q37 6 80 6q51 0 82 -6q-35 -94 -77 -230t-78.5 -280.5t-62.5 -280.5t-26 -229q0 -117 61.5 -171t217.5 -54q129 0 211 40t135 119t87 195.5t69 272.5q43 197 64.5 346t31.5 268q21 6 74 6q37 0 84 -6 q-4 -23 -15.5 -82t-28 -142t-37 -183.5t-42.5 -204.5q-37 -172 -77 -315.5t-109.5 -247t-182.5 -160.5t-293 -57q-104 0 -177 24.5t-118 69.5t-64.5 107.5t-19.5 138.5z" />
<glyph unicode="V" horiz-adv-x="1132" d="M317 1395q16 -4 37 -6.5t58 -2.5q23 0 41 2.5t32 4.5q0 -123 8.5 -270.5t22.5 -304t34.5 -315.5t45.5 -302q100 152 191.5 312.5t170 317t144 303t115.5 269.5q18 -4 54 -5t72 -1h60q-43 -66 -104.5 -168.5t-131 -224t-143.5 -257t-144.5 -269.5t-132 -257t-106.5 -221 q-18 0 -31.5 1t-36.5 1q-20 0 -42.5 -1t-45.5 -1q-20 254 -61 593t-107 802z" />
<glyph unicode="W" horiz-adv-x="1855" d="M291 1380q20 2 41.5 3t42.5 1q23 0 43 -1t37 -3q0 -184 2 -319t5 -238.5t9 -183.5t13.5 -152.5t15.5 -145.5t18 -163q82 147 153.5 287.5t140.5 285t136.5 299t141.5 332.5q14 4 37.5 6.5t48.5 2.5q31 0 56 -3.5t42 -5.5q2 -143 8 -276t16.5 -273.5t27.5 -294t42 -335.5 q94 172 172 321.5t144.5 290.5t125 280.5t113.5 290.5q55 12 96 13q31 0 55.5 -2t34.5 -6q-152 -250 -324.5 -592t-373.5 -799q-158 0 -190 6q0 41 1 83t1 83q0 297 -16.5 549t-51.5 481q-82 -141 -154.5 -280.5t-141 -284.5t-137 -303t-142.5 -338q-14 -2 -29.5 -3 t-34.5 -1h-131v86q0 254 -24.5 572.5t-69.5 729.5z" />
<glyph unicode="X" horiz-adv-x="1208" d="M47 4q145 137 301 305t350 393q-70 174 -146.5 340t-180.5 340q10 6 45 8.5t104 2.5q23 0 36 -1t34 -1q53 -186 98 -317.5t94 -242.5q78 84 141.5 158t117 140.5t99.5 128t89 122.5h188q-53 -57 -109.5 -119.5t-124 -138t-148.5 -170t-183 -217.5q4 -18 24.5 -72.5 t51 -128t64.5 -157.5t67 -161t57.5 -136.5t34.5 -83.5q-23 -2 -50.5 -3t-62.5 -1q-31 0 -43 1t-28 5q-4 27 -25.5 101.5t-52.5 167.5t-67 187.5t-70 159.5q-27 -29 -65 -72.5t-94 -114.5t-134 -174t-185 -253q-10 4 -47 6t-82 2q-27 0 -51 -1t-47 -3z" />
<glyph unicode="Y" horiz-adv-x="1146" d="M358 1382q14 -2 35 -3t43 -1q31 0 57.5 1t41.5 5q25 -174 78 -322.5t130 -279.5q61 68 116.5 135.5t111 141.5t113 156.5t120.5 179.5q25 -4 58.5 -6.5t60.5 -2.5q16 0 30.5 2.5t28.5 2.5q-178 -195 -324.5 -370t-275.5 -359l-28 -125q-57 -205 -82 -539h-174 q70 227 106.5 382.5t52.5 272.5q-78 211 -149.5 390.5t-149.5 338.5z" />
<glyph unicode="Z" horiz-adv-x="1085" d="M55 0q0 47 7.5 95t25.5 91q121 125 242 249t242.5 254t244.5 269.5t250 294.5q-172 0 -290 -1t-198.5 -4t-134 -8t-98.5 -13q12 41 18.5 91t8.5 77q133 -6 240.5 -9.5t224.5 -3.5q123 0 226 2t216 11q-8 -47 -16.5 -86t-16.5 -82q-131 -125 -254 -247t-245.5 -252 t-248.5 -272.5t-263 -308.5q86 0 150.5 -1t113.5 -1t86 -1t65 -1q123 0 219.5 4.5t167.5 14.5v-10q0 -23 -12 -72t-20 -94q-238 8 -411 13t-319 5q-72 0 -123 -1t-98 -3z" />
<glyph unicode="[" horiz-adv-x="540" d="M33 -238q45 184 99 417t109.5 482.5t107.5 497.5t93 463q2 -2 47 -2h72q86 0 160 3t115 7v-6q0 -14 -5.5 -38.5t-11.5 -57.5l-8 -45q-31 2 -68.5 3t-75.5 4t-75 7t-66 12q-23 -84 -53.5 -205.5t-64 -264t-69.5 -299t-69.5 -310.5t-64.5 -295t-53 -254q111 0 177 9.5 t126 17.5q-4 -27 -9.5 -71t-13.5 -73q-37 2 -87 3.5t-103 1.5q-63 0 -118.5 -1t-90.5 -6z" />
<glyph unicode="\" horiz-adv-x="778" d="M324 1352q27 10 53 10q10 0 24.5 -2t30.5 -4q23 -145 56.5 -324.5t73.5 -364t86 -357.5t93 -304q-29 -6 -60 -7t-54 -1q-14 123 -47 300t-75 367.5t-89 372t-92 314.5z" />
<glyph unicode="]" horiz-adv-x="540" d="M2 -240l27 146q70 -6 145.5 -11.5t147.5 -5.5q16 76 42.5 196t58.5 263.5t68.5 302t71.5 313t67 295t56 248.5h-47q-66 0 -133.5 -8t-122.5 -18q0 23 5 50.5t11 55.5l9 39q33 -4 60.5 -4h55.5q111 0 180.5 2t98.5 4q-45 -184 -99.5 -416.5t-109.5 -481.5t-106.5 -497.5 t-90.5 -463.5q-47 0 -84 1t-69 1q-92 0 -145.5 -4.5t-96.5 -6.5z" />
<glyph unicode="^" horiz-adv-x="968" d="M162 442q66 92 144.5 217t154.5 255t140.5 254t100.5 214h158q4 -252 41 -485t100 -444q-10 2 -21 3t-24 1h-122q2 25 3 48t1 50q0 150 -31 301.5t-72 333.5q-68 -102 -124 -196.5t-103 -184.5t-89 -182t-81 -191q-18 4 -51 5t-70 1h-55z" />
<glyph unicode="_" horiz-adv-x="1306" d="M20 -362q12 41 24.5 91t23.5 99q88 -20 214 -28.5t273 -8.5q180 0 340 10.5t291 30.5q-2 -25 -6.5 -48t-8.5 -46q-4 -20 -9 -40t-15 -42q-88 12 -203 18.5t-244 6.5q-100 0 -198.5 -3.5t-187.5 -8.5t-164.5 -13t-129.5 -18z" />
<glyph unicode="`" horiz-adv-x="1021" d="M637 1583q39 43 53 103q70 -51 140.5 -93t162.5 -77q-18 -23 -34.5 -47.5t-28.5 -55.5q-147 111 -293 170z" />
<glyph unicode="a" horiz-adv-x="1136" d="M152 385q0 172 51 317.5t135 250t194.5 164t229.5 59.5q137 0 223 -55.5t119 -172.5q16 72 23.5 125t9.5 94q2 -2 14 -2h47q39 0 59.5 3t30.5 3q-61 -211 -101 -364.5t-63 -257.5q-14 -61 -32.5 -140t-37 -157t-32.5 -145.5t-21 -106.5h-104q4 6 10 42t23 122 q-174 -186 -430 -187q-174 0 -261 109t-87 299zM285 387q0 -285 297 -285q117 0 202.5 61.5t142 157t84 210t27.5 221.5q0 290 -278 290q-121 0 -210 -52t-147.5 -141t-88 -208t-29.5 -254z" />
<glyph unicode="b" horiz-adv-x="1138" d="M92 -4q41 135 84 305t84 355.5t77 377t60 369.5q2 -2 58 -2q25 0 49 1t47 3q-23 -78 -38 -140.5t-26.5 -114.5t-19.5 -98t-16 -91q153 219 440 219q160 0 254 -107.5t94 -304.5q0 -84 -17.5 -175t-52 -178t-86 -165t-120 -137.5t-155.5 -94t-190 -34.5q-135 0 -220 67.5 t-124 192.5q-25 -82 -41 -146.5t-20 -97.5q-41 0 -69.5 -1t-51.5 -3zM338 418q0 -150 78 -232t221 -82q117 0 203 66t142 163t83 208.5t27 203.5q0 154 -65 225.5t-196 71.5q-98 0 -188 -42t-157.5 -121.5t-107.5 -196.5t-40 -264z" />
<glyph unicode="c" horiz-adv-x="1060" d="M168 354q0 143 36 288.5t114.5 262.5t201.5 190.5t299 73.5q311 0 367 -213q-16 -10 -48 -22t-85 -27q-43 150 -281 150q-102 0 -188 -53.5t-148.5 -146.5t-97.5 -220t-35 -272q0 -141 74 -200t239 -59q211 1 320 148q51 -25 94 -68q-160 -209 -428 -209 q-223 0 -328.5 90.5t-105.5 286.5z" />
<glyph unicode="d" d="M154 397q0 178 51 321.5t136 245t194.5 157t228.5 55.5q137 0 223 -55.5t121 -172.5q10 31 22.5 92.5t23.5 130t20.5 133t13.5 103.5h65h50.5t33.5 4q-68 -248 -118 -454.5t-93 -407.5q-35 -162 -58.5 -295t-37.5 -250q-14 -2 -25.5 -3t-25.5 -1h-80q10 25 18.5 71 t14.5 93q-174 -186 -428 -187q-86 0 -151.5 33t-109.5 89.5t-66.5 133t-22.5 164.5zM287 440q0 -184 73.5 -261t223.5 -77q117 0 203.5 61.5t143 157t84 210t27.5 221.5q0 290 -280 290q-121 0 -210 -51t-147.5 -135t-88 -192.5t-29.5 -223.5z" />
<glyph unicode="e" horiz-adv-x="1112" d="M170 383q0 156 37 298t118 251.5t207.5 174t307.5 64.5q100 0 169.5 -28.5t111.5 -77.5t60.5 -113.5t18.5 -138.5q0 -53 -8 -108.5t-23 -110.5q-111 6 -209 8t-202 2t-210 -2t-216 -8q-12 -57 -20.5 -126t-8.5 -103q0 -141 71.5 -201t225.5 -60q125 0 212 40t122 108 q20 -10 47 -24.5t55 -49.5q-163 -196 -474 -196h-3q-203 0 -296 107.5t-93 293.5zM362 702q137 -6 302 -6q74 0 162.5 2t217.5 9q8 45 12.5 72.5t4.5 51.5q0 117 -67.5 173.5t-196.5 56.5q-174 0 -285 -89t-150 -270z" />
<glyph unicode="f" horiz-adv-x="704" d="M-160 -262q25 29 49.5 54.5t53.5 43.5q28 -22 81 -22h5q98 0 153 106q20 39 43 115t46.5 167t46 190.5t41 186.5t30.5 153.5t17 92.5q-33 0 -77 -3t-100 -7q0 16 4.5 37.5t12.5 56.5q33 -2 71.5 -2h96.5l16 88q82 401 436 402q96 0 160 -45q-14 -27 -35.5 -51.5 t-48.5 -47.5q-39 27 -88 27q-131 0 -203.5 -65.5t-101.5 -219.5l-17 -84q57 0 121 1t138 1q-8 -23 -14.5 -43t-8.5 -43h-113h-80.5t-60.5 -4q-78 -367 -120 -573.5t-60 -263.5q-18 -55 -49 -106.5t-72 -90.5t-92.5 -62.5t-108.5 -23.5q-113 0 -172 35z" />
<glyph unicode="g" horiz-adv-x="1126" d="M84 -104q31 18 64.5 33.5t80.5 35.5q23 -86 95.5 -118.5t189.5 -32.5q86 0 154.5 18t122 66.5t94.5 133.5t71 218l13 53q-68 -80 -176.5 -124t-262.5 -44q-74 0 -136 31t-106 83t-68.5 120.5t-24.5 146.5q0 121 37.5 239.5t112.5 214t184.5 154t250.5 58.5 q147 0 229.5 -42t116.5 -128l27 157h137q-43 -121 -73.5 -244.5t-55 -247.5t-47 -248t-49.5 -243t-65.5 -209t-103.5 -150t-163 -91t-241 -31q-158 0 -268.5 47t-139.5 144zM330 543q0 -131 66.5 -213t191.5 -82q102 0 189 34.5t150.5 104.5t99.5 172.5t36 235.5 q0 274 -307 274q-84 0 -161 -40t-135.5 -109.5t-94 -167t-35.5 -209.5z" />
<glyph unicode="h" horiz-adv-x="1081" d="M90 -2q43 162 86 342t82 364.5t73 362.5t58 334h82q23 0 41 1t29 3q-27 -117 -58.5 -239t-66.5 -259q207 268 481 269q80 0 137.5 -27t94 -70t54 -99t17.5 -116q0 -76 -20.5 -174t-48 -210.5t-58.5 -235.5t-51 -246h-64q-39 0 -63.5 1t-44.5 3q82 268 138 477t56 357 q0 104 -43 158.5t-147 54.5q-141 0 -235.5 -59.5t-161 -186.5t-114.5 -327t-97 -478q-2 -2 -19 -2h-123q-12 0 -14 2z" />
<glyph unicode="i" horiz-adv-x="372" d="M94 -2q33 92 66 208t63.5 250t57 281.5t47.5 300.5q10 -2 25.5 -3t37.5 -1q31 0 57.5 2t34.5 6q-33 -111 -58 -218t-52 -238q-35 -166 -59.5 -311.5t-41.5 -276.5q-20 2 -43.5 3t-46.5 1t-43 -1t-45 -3zM350 1249q0 20 8.5 44t14.5 63l6 39q23 2 75 6t97 4h23.5t17.5 -2 q-6 -47 -16.5 -88t-16.5 -88q-78 -12 -156 -13q-33 0 -43 8.5t-10 26.5z" />
<glyph unicode="j" horiz-adv-x="358" d="M-281 -238q23 20 49.5 42t63.5 46q44 -36 109 -36h4q78 0 135 98t101 267t77 394.5t61 477.5q68 -6 109 -7q16 0 28.5 1.5t24.5 3.5q-8 -18 -24.5 -81t-37 -153t-44 -197.5t-46 -217t-43 -212t-34.5 -178.5q-10 -49 -39 -102t-72 -99.5t-97 -76t-116 -29.5 q-168 0 -209 59zM348 1266q0 49 10.5 77.5t25.5 44t31.5 19.5t30.5 4q33 0 73.5 -2t60.5 -6q-14 -66 -24.5 -104.5t-22 -60t-29 -28t-43.5 -6.5h-39q-29 0 -51.5 11.5t-22.5 50.5z" />
<glyph unicode="k" horiz-adv-x="1019" d="M96 0q37 135 78 313.5t81 367.5t73.5 374.5t56.5 335.5q25 8 102 8q20 0 36 -1t32 -3q-31 -72 -70 -203t-79 -336l-48 -235q68 37 134.5 84t140.5 111.5t156.5 147.5t185.5 189q33 0 96.5 2t140.5 6q-37 -31 -114.5 -98.5t-177 -150.5t-213.5 -167.5t-220 -152.5 q117 -98 254.5 -253t274.5 -341h-60q-121 0 -151 -8q-47 88 -102.5 176t-115 168t-118.5 144.5t-115 105.5q-14 -63 -28.5 -149.5t-27.5 -171.5t-23.5 -156.5t-16.5 -106.5h-162z" />
<glyph unicode="l" horiz-adv-x="333" d="M78 -2q37 113 79 272.5t84 345t80.5 388t69.5 399.5h58q33 0 52 2t46 2q-45 -143 -87 -311t-83 -367q-49 -223 -80 -400t-47 -331q-2 -2 -21 -2h-127q-23 0 -24 2z" />
<glyph unicode="m" horiz-adv-x="1902" d="M98 -2q31 88 59.5 195.5t58.5 246t58.5 311.5t59.5 390q43 4 76.5 5t56.5 3q-12 -41 -21.5 -96t-19.5 -129q74 135 176.5 192.5t231.5 57.5q63 0 116.5 -23t90 -61.5t58 -92t23.5 -114.5q72 147 207 220t293 73q86 0 147.5 -27t101.5 -69t59.5 -91t19.5 -94 q0 -86 -17.5 -182.5t-40 -207t-45 -235.5t-32.5 -268q-14 -8 -101 -8q-49 0 -82 6q29 86 60.5 202.5t57.5 232.5t42 217.5t16 158.5q0 98 -62.5 160.5t-186.5 62.5q-131 0 -217.5 -49t-142.5 -169t-91 -318.5t-64 -497.5q-51 -10 -124 -10q-20 0 -37 2t-25 6q27 70 56.5 172 t54 213t40 216.5t15.5 180.5q0 53 -11.5 97.5t-39 76t-74.5 49t-117 17.5q-141 0 -231 -67.5t-146.5 -197.5t-88 -319.5t-56.5 -435.5q-47 -6 -88 -6q-27 0 -43 1t-31 3z" />
<glyph unicode="n" horiz-adv-x="1140" d="M92 0q18 45 42 125t48.5 182.5t48 217t45 227t38 217t24.5 184.5q25 8 44 10t38 2q39 0 61 -8q-8 -27 -19 -81t-20 -115q70 104 179.5 169.5t250.5 65.5q72 0 135.5 -22.5t109.5 -64.5t73 -101.5t27 -130.5q0 -39 -10.5 -103.5t-27 -144.5t-35 -168t-36.5 -173 t-32.5 -163t-20.5 -135q-47 0 -92 2t-93 6q37 82 71 196.5t60.5 232.5t42 223.5t15.5 166.5q0 133 -58.5 183.5t-193.5 50.5q-129 0 -224.5 -74t-161 -210t-104 -331.5t-57.5 -437.5q-47 -6 -86 -6q-33 0 -54.5 2t-27.5 6z" />
<glyph unicode="o" horiz-adv-x="1155" d="M168 367q0 141 40 286.5t122 262t205.5 190.5t293.5 74q205 0 307.5 -109t102.5 -299q0 -137 -39 -277.5t-120 -254t-202.5 -186t-287.5 -72.5q-215 0 -318.5 102t-103.5 283zM305 389q0 -297 289 -297q104 0 196.5 43t160 129t106.5 212t39 292q0 301 -289 301 q-129 0 -223.5 -62.5t-156.5 -160.5t-92 -219t-30 -238z" />
<glyph unicode="p" horiz-adv-x="1122" d="M27 -301q104 385 187 749.5t134 704.5q41 0 137 12q-16 -72 -26 -121t-19 -73q141 209 443 209q174 0 257 -107.5t83 -298.5q0 -201 -46.5 -349.5t-127 -245.5t-193.5 -145t-248 -48q-258 0 -329 250q-41 -178 -68 -305.5t-35 -231.5h-149zM344 440q0 -68 17.5 -128 t53.5 -106t91 -73t129 -27q127 0 214 62.5t141 159t78 214t24 228.5q0 160 -74 222.5t-205 62.5q-102 0 -187 -44t-148.5 -125t-98.5 -194.5t-35 -251.5z" />
<glyph unicode="q" horiz-adv-x="1112" d="M152 367q0 178 49 325.5t136 253t206 164.5t260 59q260 0 289 -233q45 205 45 231q33 8 64.5 10.5t74.5 2.5q-23 -74 -50.5 -188.5t-58 -251t-61.5 -285t-58.5 -287.5t-50 -260t-36.5 -203q-16 6 -50 6q-25 0 -49 -2t-41 -6l119 528q-232 -245 -415 -245h-1 q-186 0 -279 100t-93 281zM283 367q0 -260 231 -261q102 0 195.5 49.5t165 136.5t113.5 208t42 266q0 285 -262 285q-125 0 -216 -64.5t-151.5 -165t-89 -221.5t-28.5 -233z" />
<glyph unicode="r" horiz-adv-x="856" d="M98 -6q16 41 40 130t50.5 201.5t52 236.5t46 235.5t34 198.5t13.5 126v27q39 6 69 6q35 0 78 -6q-4 -12 -14 -53t-27 -111q172 190 379 191q98 0 158 -45.5t70 -94.5q-37 -16 -71 -29.5t-58 -29.5q-14 41 -59.5 60.5t-110.5 19.5q-125 0 -222.5 -98.5t-138.5 -272.5 l-121 -680q-52 -9 -95 -9h-9h-18q-32 0 -46 -3z" />
<glyph unicode="s" horiz-adv-x="1081" d="M119 195q27 14 67.5 26t92.5 25q37 -162 286 -162q174 0 272.5 72.5t98.5 226.5q0 86 -71.5 123t-237.5 37q-84 0 -154 22.5t-120 60.5t-78.5 89t-28.5 106q0 94 49 165t127 118t177 69.5t198 22.5q346 0 377 -192q-25 -14 -63 -23.5t-85 -22.5q-41 133 -274 134 q-49 0 -111.5 -18.5t-116 -52.5t-90.5 -84t-37 -114q0 -43 23.5 -76.5t64.5 -57t98.5 -35t123.5 -11.5q209 0 300 -72.5t91 -191.5q0 -106 -42 -181t-118 -123t-179.5 -70.5t-226.5 -22.5q-82 0 -153.5 15t-126.5 44t-90 68t-43 86z" />
<glyph unicode="t" horiz-adv-x="899" d="M276 1051q4 12 7.5 32.5t11.5 55.5l4 22h115q33 0 54 16.5t33.5 42t17.5 55.5t5 58v62q63 0 107.5 1t64.5 3q-10 -29 -24.5 -83t-42.5 -153q47 -2 96 -4t98 -2q57 0 117.5 4t120.5 15q-4 -4 -9 -22.5t-10.5 -40t-8.5 -40t-3 -22.5q-25 4 -70 7t-145 3q-41 0 -90 -2 t-111 -2q-35 -123 -65.5 -246t-54 -231.5t-38 -195.5t-14.5 -136q0 -94 38 -125t116 -31q117 0 188 105q35 -14 61.5 -26.5t43.5 -27.5q-20 -31 -56 -61.5t-80 -53t-94.5 -37t-99.5 -14.5q-137 0 -198.5 67t-61.5 179q0 43 17.5 134.5t43 208t52 244.5t45.5 243q-39 0 -72 1 t-68 1h-20t-21 -4z" />
<glyph unicode="u" d="M170 328q0 70 12.5 138.5t30.5 138t39.5 142t40.5 150.5q4 18 13 57t20.5 83t23.5 86t23 67q12 0 32.5 -1t41 -3t38 -3t25.5 -1q-29 -92 -62.5 -191.5t-63.5 -202t-50.5 -207t-20.5 -206.5q0 -117 57.5 -186.5t204.5 -69.5q106 0 184.5 38t133.5 109.5t93 175t67 232.5 q4 23 25.5 143.5t58.5 368.5h153q-49 -172 -84.5 -324.5t-68.5 -320.5q-29 -137 -55.5 -264t-55.5 -269q-14 -2 -29.5 -2h-31.5q-23 0 -43.5 2t-40.5 6l43 174q-76 -104 -180.5 -147t-245.5 -43q-98 0 -162 27.5t-100.5 73.5t-51 105.5t-14.5 123.5z" />
<glyph unicode="v" horiz-adv-x="1017" d="M246 1161h114q57 0 60 2q4 -158 12 -296t21.5 -263t31 -239.5t39.5 -225.5q186 301 324.5 550t230.5 478h37q41 0 77 -1t54 -3q-166 -256 -327.5 -540.5t-339.5 -624.5q-2 -2 -37 -2h-39q-29 0 -49.5 1t-40.5 5q-29 324 -70 605.5t-98 553.5z" />
<glyph unicode="w" horiz-adv-x="1675" d="M256 1174q23 2 38 4t44 2q31 0 52.5 -2t43.5 -4q-4 -111 -6 -202t-2 -184q0 -168 8 -319.5t33 -323.5q80 133 147.5 254t130 242t124 250t128.5 278q18 -2 48 -3t65 -1q90 0 92 2q0 -35 -1 -67.5t-1 -67.5q0 -90 3 -183t10.5 -198.5t16.5 -229.5t21 -276 q96 174 172 314.5t136.5 262.5t108.5 232.5t91 227.5q66 0 114 -1t60 -5q-135 -223 -288.5 -509t-337.5 -667q-37 -4 -66 -6t-51 -2q-29 0 -46.5 2t-29.5 4q2 57 4 113.5t2 111.5q0 186 -14 379t-45 424q-90 -162 -156.5 -281.5t-115 -210t-84 -160t-64.5 -131t-54.5 -121.5 t-54.5 -132q-74 4 -114.5 5t-59.5 3q-8 268 -34.5 560t-67.5 616z" />
<glyph unicode="x" horiz-adv-x="1241" d="M96 -2q156 152 257.5 252t166 166.5t102 106.5t68.5 71q-57 147 -135 286.5t-176 293.5q20 4 43.5 6t50.5 2q31 0 62.5 -2t68.5 -4q27 -117 69 -226.5t107 -244.5q70 78 126.5 143t102.5 122.5t85 107.5t73 98q37 -4 88.5 -6.5t98.5 -2.5q-174 -166 -300 -299.5 t-214 -244.5q68 -186 145.5 -338t163.5 -287q-29 -4 -55.5 -6t-55.5 -2q-23 0 -43 2t-41 6q-57 168 -109 300t-106 237q-160 -180 -269.5 -312.5t-172.5 -230.5q-31 4 -85 5t-116 1z" />
<glyph unicode="y" horiz-adv-x="1150" d="M109 -117q41 23 62.5 35t35.5 19.5t25.5 11.5t33.5 10q29 -80 104 -119t179 -39q74 0 144.5 34t130 98.5t105.5 159.5t72 218l9 31q-104 -117 -193.5 -169t-206.5 -52q-80 0 -153.5 11t-130 46t-91 99.5t-34.5 173.5q0 174 39 358t98 356q14 -2 43 -3t57 -1h24.5t22.5 2 q-31 -88 -58.5 -184t-47 -187.5t-30.5 -171t-11 -133.5q0 -76 19.5 -123t56.5 -73.5t90 -36.5t123 -10q109 0 196.5 42t154 146.5t112 280.5t69.5 444q14 -2 30.5 -2h33.5q57 0 92 8q-6 -35 -25.5 -112.5t-41 -162.5t-40 -161t-24.5 -109q-41 -205 -81 -373.5t-107.5 -290.5 t-178 -188.5t-293.5 -66.5q-154 0 -261 43t-154 141z" />
<glyph unicode="z" horiz-adv-x="1089" d="M94 0q4 39 10.5 78t22.5 86q115 90 223.5 187.5t215 207t214 232t219.5 262.5h-221q-119 0 -228.5 -6.5t-219.5 -26.5q8 35 13 67.5t5 73.5q31 -4 105.5 -6t173.5 -2q88 0 182 1t176 3t142.5 5t78.5 7q-2 -33 -7 -66.5t-13 -82.5q-41 -35 -106.5 -92.5t-144.5 -131 t-168 -157.5t-176 -173t-169 -178t-148 -171q94 -4 158 -7.5t129 -3.5q154 0 267.5 10.5t189.5 28.5v-22q0 -37 -8.5 -78t-20.5 -55q-125 10 -250 13t-278 3h-92t-86 -1t-89.5 -2t-99.5 -3z" />
<glyph unicode="{" horiz-adv-x="884" d="M195 557q10 39 23 91t13 100q63 0 113.5 32.5t89.5 86t66 121.5t43 142q25 104 64.5 198.5t102 168.5t151.5 121t212 57q-16 -45 -22.5 -86t-14.5 -65q-82 0 -141 -33t-101 -88t-69 -126t-43 -144q-16 -74 -37.5 -141.5t-60.5 -127t-101.5 -109.5t-163.5 -91 q102 -55 139.5 -122t37.5 -149q0 -47 -8.5 -93t-18.5 -93t-18.5 -96.5t-8.5 -100.5q0 -59 10.5 -105t35 -80t67.5 -51.5t109 -17.5q-14 -29 -17.5 -60.5t-3.5 -72.5q-172 6 -245.5 95t-73.5 262q0 39 6 85t13 92t13 87t6 69q0 70 -18 117t-45 74.5t-55.5 40t-48.5 12.5z" />
<glyph unicode="|" horiz-adv-x="399" d="M14 -303q61 182 115.5 414.5t102 477.5t89 484t82.5 436q45 10 97 11q41 0 65 -11q-35 -115 -72.5 -261t-76.5 -309t-75 -334t-66.5 -335t-54 -312t-36.5 -265q-6 4 -13 5t-28 1h-29.5h-43t-38.5 -1z" />
<glyph unicode="}" horiz-adv-x="884" d="M25 -377q18 43 24 85t14 67q82 0 141.5 32.5t100.5 88t67.5 125t43.5 143.5q16 74 37.5 141.5t60.5 128t102.5 110.5t163.5 91q-104 55 -140 120.5t-36 147.5q0 47 8.5 93t18.5 93.5t18 96.5t8 100q0 119 -46 186.5t-175 67.5q12 29 15.5 61.5t3.5 73.5q172 -6 246.5 -95 t74.5 -261q0 -39 -6 -85t-13 -92t-13.5 -87t-6.5 -70q0 -72 18.5 -119t44 -74.5t55.5 -39t52 -11.5q-10 -39 -25.5 -91t-15.5 -99q-63 0 -112 -33t-87 -86t-66 -121.5t-46 -142.5q-25 -102 -64.5 -197.5t-102 -169t-152 -122t-211.5 -56.5z" />
<glyph unicode="&#xa1;" horiz-adv-x="401" d="M45 -260q61 203 112.5 377t84.5 340l51 262q2 -2 41 -2q23 0 45 2t51 8l-24 -115q-25 -113 -46.5 -236.5t-39 -243.5t-28.5 -226.5t-16 -184.5q-16 -2 -51 -3t-78 -1h-57q-35 0 -45 23zM297 928q0 18 2 24l10 58q8 29 15.5 52t13.5 50l10 8q-2 -4 -3 -4t-3 -2l-2 -2 q33 8 68.5 11t74.5 3h64q-4 -41 -12.5 -76.5t-16.5 -80.5l-12 -70q-25 -8 -57.5 -12t-75.5 -4q-45 0 -60.5 11t-15.5 34z" />
<glyph unicode="&#xa2;" horiz-adv-x="1060" d="M258 428q0 113 26.5 228.5t84 212t147.5 165t219 88.5l31 191h57q33 0 51.5 2t47.5 2q-14 -45 -28.5 -91t-27.5 -98q238 -12 285 -182q-14 -8 -43 -19.5t-76 -23.5q-31 111 -192 125q-23 -92 -44 -188.5t-44 -200.5q-29 -119 -48.5 -223.5t-35.5 -198.5q170 2 264 125 q23 -10 42 -25.5t40 -31.5q-139 -178 -365 -181q-8 -53 -14 -101t-10 -95q-2 -2 -21 -2h-127q-23 0 -24 2l61 205q-135 25 -195.5 101.5t-60.5 213.5zM377 438q0 -94 40 -145t126 -68q47 174 91 378t83 419q-76 -16 -138.5 -67.5t-107.5 -129t-69.5 -177t-24.5 -210.5z" />
<glyph unicode="&#xa3;" horiz-adv-x="897" d="M129 27q31 41 63.5 101t68.5 131t73 149.5t76 158.5h-54h-29.5t-22.5 -1t-24.5 -2t-31.5 -3q10 59 18 94t8 43q39 0 76 -5t107 -5l57 117q59 139 115.5 246.5t116 180.5t129 109.5t155.5 36.5q41 0 70.5 -1t40.5 -5q-23 -29 -35 -49t-35 -55q-12 2 -21.5 4t-19.5 2h-35 q-68 0 -119 -34t-99 -104.5t-99 -182t-119 -265.5h184l-30 -135q-47 4 -96.5 7t-110.5 11q-41 -104 -88 -214.5t-101 -211.5q104 -6 183.5 -7t156.5 -1q53 0 97.5 1t91.5 5l-12 -71l-15 -68q-37 4 -95 8t-127 7.5t-144.5 5.5t-145.5 2h-178z" />
<glyph unicode="&#xa5;" horiz-adv-x="1146" d="M358 1382q14 -2 35 -3t43 -1q31 0 57.5 1t41.5 5q25 -174 78 -322.5t130 -279.5q61 68 116.5 135.5t111 141.5t113 156.5t120.5 179.5q25 -4 58.5 -6.5t60.5 -2.5q16 0 30.5 2.5t28.5 2.5q-178 -195 -324.5 -370t-275.5 -359l-10 -48h160q18 0 20 2v-139q-53 6 -104 9 t-105 8q-10 -33 -18 -72t-14 -84h219q29 0 31 2v-135q-68 6 -134.5 9t-134.5 5q-6 -53 -11 -107.5t-9 -113.5h-174l63 221q-41 -2 -82 -3t-78 -5q0 6 1 16.5t1 20.5q0 66 -6 94q41 -2 76 -3t76 -1h47q10 43 18.5 83t16.5 75h-17q-59 0 -114.5 -2t-104.5 -7q0 6 1 17.5 t1 21.5q0 74 -8 97q61 -4 123.5 -6.5t136.5 -2.5l8 39q-78 211 -149.5 390.5t-149.5 338.5z" />
<glyph unicode="&#xa6;" horiz-adv-x="278" d="M14 -303q18 92 50 213t67 287l45 211l51 2q-53 -266 -85.5 -442.5t-47.5 -274.5q-10 2 -28.5 3t-51.5 1zM260 782l35 144q25 104 49.5 245.5t58.5 337.5h72q-57 -221 -99 -394t-65 -333h-51z" />
<glyph unicode="&#xa7;" horiz-adv-x="1038" d="M147 172q33 16 63 26.5t77 16.5q14 -119 211 -119q123 0 193.5 50.5t70.5 160.5q0 43 -34 74t-69 31q-29 -4 -58.5 -6.5t-63.5 -2.5q-51 0 -102.5 8.5t-93.5 32t-67.5 63.5t-25.5 101q0 148 180 273q-43 25 -63.5 67.5t-20.5 89.5q0 80 39 140.5t100.5 101.5t136 61.5 t148.5 20.5q270 0 295 -170q-20 -12 -55 -20.5t-78 -20.5q-16 59 -74.5 81.5t-163.5 22.5q-35 0 -73.5 -16t-73.5 -42t-57.5 -60.5t-22.5 -71.5q0 -53 37 -89t106 -36q43 6 97 6q51 0 104 -10t95 -34.5t68.5 -65.5t26.5 -103q0 -86 -45 -159.5t-131 -114.5 q29 -35 52.5 -62.5t23.5 -70.5q0 -86 -37 -149.5t-98.5 -103.5t-140 -59.5t-160.5 -19.5q-131 0 -213 40t-103 138zM379 641q0 -41 19.5 -64.5t49 -35t64.5 -14.5t63 -3q33 0 83.5 5.5t97.5 24.5t79.5 58t32.5 107q0 43 -19.5 66.5t-52 34.5t-75.5 13.5t-88 2.5h-51 q-37 -6 -73 -22.5t-65.5 -42.5t-47 -58.5t-17.5 -71.5z" />
<glyph unicode="&#xa8;" horiz-adv-x="1021" d="M551 1405q4 47 10 84t14 67q35 10 64 14.5t41 4.5q29 0 53 -10q-4 -29 -9 -62t-17 -92q-25 -4 -54.5 -5t-101.5 -1zM903 1411l29 143q27 20 69 21q23 0 46.5 -5t39.5 -11q-4 -37 -9 -73t-13 -73q-10 -4 -28.5 -6t-39.5 -2q-23 0 -48 1t-46 5z" />
<glyph unicode="&#xa9;" horiz-adv-x="1570" d="M221 670q0 147 55.5 276t150.5 225.5t223 151.5t276 55q147 0 276 -55t225.5 -151.5t151.5 -225.5t55 -276t-55 -275.5t-151.5 -223.5t-225.5 -150.5t-276 -55.5t-275.5 55.5t-223.5 150.5t-150.5 223.5t-55.5 275.5zM266 670q0 -137 51.5 -258t140.5 -210t208.5 -141.5 t259.5 -52.5q139 0 260 52.5t210 141.5t140 209.5t51 258.5q0 137 -51 258t-140 210t-210 140t-260 51t-259 -51t-209 -140t-140.5 -210t-51.5 -258zM489 666q0 254 108 365.5t329 111.5q281 0 366 -170q-10 -6 -35.5 -17.5t-70.5 -21.5q-63 119 -277 119 q-160 0 -229.5 -94.5t-69.5 -313.5q0 -190 78 -268t260 -78q190 0 256 115q45 -14 96 -52q-96 -166 -342 -165q-123 0 -212 25.5t-145 81.5t-84 145.5t-28 216.5z" />
<glyph unicode="&#xaa;" horiz-adv-x="647" d="M330 1126q0 111 70.5 165.5t187.5 54.5q129 0 160 -70q6 35 15 68.5t9 60.5q0 53 -29.5 79.5t-101.5 26.5q-10 0 -32.5 -2t-47 -11t-48.5 -26.5t-36 -48.5l-61 29q74 123 243 123q55 0 90 -13.5t55.5 -35t29 -50t8.5 -61.5q0 -12 -2 -27.5t-6.5 -40t-13.5 -62.5t-23 -95 q-10 -39 -15.5 -82t-9.5 -92h-8q-18 0 -33.5 -1t-48.5 -5l20 59q-53 -33 -104 -47t-98 -14q-76 0 -123 23.5t-47 94.5zM403 1153q0 -47 32 -64.5t89 -17.5q35 0 71 7t64.5 22.5t47 39t18.5 58.5q0 25 -15.5 41t-37 25.5t-46 13.5t-40.5 4q-35 0 -68 -6t-58.5 -21.5t-41 -40 t-15.5 -61.5z" />
<glyph unicode="&#xab;" horiz-adv-x="1028" d="M197 514l2 12l18 136q72 35 122 62.5t95 58t94.5 69.5t116.5 98v-10q0 -49 9.5 -82t9.5 -35q-41 -23 -91.5 -51.5t-101.5 -56t-100 -50t-90 -34.5l-15 -43q86 -53 158 -128t149 -153l-34 -35q-25 -25 -36 -39t-18 -24q-43 59 -77.5 96t-67.5 67.5t-66.5 62.5t-76.5 79z M629 514l20 148q74 35 124 62.5t95 58t94.5 69.5t116.5 98v-10q0 -47 8.5 -79t8.5 -38q0 -2 -22.5 -16t-57.5 -36.5t-79 -49.5t-88 -51.5t-84 -47t-65 -34.5q86 -53 158 -128t150 -153l-35 -35q-25 -25 -36 -40t-17 -23q-43 59 -78 97t-68 69t-67.5 61.5t-77.5 77.5z" />
<glyph unicode="&#xad;" horiz-adv-x="698" d="M233 643q0 14 4.5 35.5t9.5 43t9 39t4 21.5q78 -6 161 -8t208 -2h125q16 0 18 2l-29 -137h-2q-70 8 -141.5 12t-146.5 4q-57 0 -113.5 -2t-106.5 -8z" />
<glyph unicode="&#xae;" horiz-adv-x="1339" d="M256 858q0 117 45 218.5t122 178t178 120.5t216 44q117 0 218.5 -44t178 -120.5t120.5 -178t44 -218.5q0 -115 -44 -216t-120.5 -178t-178 -121t-218.5 -44q-115 0 -216 44t-178 121t-122 178t-45 216zM313 856q0 -102 39 -193.5t106.5 -159t159 -106.5t195.5 -39 q102 0 192.5 39t158 106.5t106.5 159t39 193.5t-39 193.5t-105.5 159t-156.5 106.5t-193 39q-104 0 -195.5 -39t-160 -106.5t-107.5 -159t-39 -193.5zM584 545q4 119 5 212t1 181q0 74 -2 138.5t-2 105.5q33 4 83 11t119 7q43 0 90.5 -6t86.5 -25.5t64.5 -54.5t25.5 -92 q0 -33 -10.5 -66.5t-40 -61.5t-86 -46.5t-148.5 -20.5q111 -123 195 -187.5t104 -86.5q-18 0 -34.5 1t-26.5 1q-29 0 -42.5 -1t-21.5 -1q-72 92 -133 157.5t-123 112.5l-43 2q2 -74 3 -114.5t2 -65t3 -43t6 -49.5q-6 0 -24.5 -2t-50.5 -6zM645 877l107 -7q225 4 225 129 q0 72 -46.5 103t-144.5 31q-25 0 -51 -1.5t-84 -3.5v-26.5t-1 -40t-2 -69.5t-3 -115z" />
<glyph unicode="&#xb0;" horiz-adv-x="860" d="M387 1161q0 92 16.5 154.5t54.5 102.5t98 57.5t146 17.5q172 0 247 -75.5t75 -229.5q0 -160 -75 -243t-234 -83q-174 0 -251 76t-77 223zM440 1171q0 -270 260 -270q268 0 269 268q0 285 -258 285q-80 0 -132.5 -14.5t-83 -48t-43 -88t-12.5 -132.5z" />
<glyph unicode="&#xb2;" horiz-adv-x="591" d="M256 893q16 33 23.5 62.5t17.5 62.5v2q10 49 24.5 91t44 74t78 50t125.5 18h4q39 2 71 8.5t53.5 24t32.5 50t11 87.5q0 47 -27.5 62.5t-99.5 15.5q-59 0 -103 -19.5t-56 -62.5q-29 8 -39 11.5t-21 13.5q8 33 32 57.5t56.5 38.5t69.5 21.5t74 7.5q39 0 72.5 -5t58 -19.5 t39 -41t14.5 -67.5q0 -104 -29.5 -154.5t-76 -70t-101.5 -21.5t-105 -10.5t-88 -36t-51 -99.5l-22 -96l391 23v-10q0 -49 -16 -78q-123 6 -213 9t-138 3q-47 0 -71.5 -1t-34.5 -1z" />
<glyph unicode="&#xb3;" horiz-adv-x="542" d="M285 987v8l2 4q14 10 32.5 15.5t40.5 11.5q2 -45 32 -60.5t87 -15.5q39 0 70 6.5t53.5 22.5t34.5 48t12 83q0 23 -13 40t-34.5 28.5t-47.5 17.5t-48 6q-16 0 -26.5 -2t-22.5 -4l8 43q2 14 5 20.5t5 8.5l2 10q8 -6 21.5 -7t38.5 -1q72 0 120 38t48 113q0 47 -30 63.5 t-83 16.5q-59 0 -93 -12t-57 -62q-23 4 -36 11.5t-27 17.5q12 37 36.5 60.5t55.5 37t65.5 17.5t69.5 4q86 0 132 -29.5t46 -101.5q0 -27 -6 -58l-2 -8q-12 -47 -53 -87t-78 -50q35 -14 55.5 -46t20.5 -71q0 -72 -22.5 -119t-59.5 -75.5t-84 -40.5t-96 -12q-31 0 -61.5 4 t-56.5 16t-41 33.5t-15 56.5z" />
<glyph unicode="&#xb4;" horiz-adv-x="1021" d="M647 1511q68 29 119 50.5t93 41t81 39t82 44.5q0 -29 3 -58.5t11 -52.5q-66 -23 -109.5 -40t-83.5 -35.5t-80 -40t-95 -52.5q-4 27 -7.5 48.5t-13.5 55.5z" />
<glyph unicode="&#xb5;" d="M-113 -297l45 113q68 14 124.5 109t106.5 267.5t94 418t87 563.5q12 2 28.5 3t39.5 1t48 -1t48 -3q-84 -236 -117 -368t-41 -175q-18 -78 -28.5 -144.5t-10.5 -124.5q0 -117 57.5 -187.5t204.5 -70.5q106 0 183.5 38t132.5 111t93 176t69 235q4 23 25.5 142.5t58.5 367.5 h153q-84 -301 -147.5 -587t-106.5 -583h-26q-2 0 -33 -1t-78 -3l4 31q6 16 17.5 65t29.5 135q-123 -135 -229.5 -190t-222.5 -55q-33 0 -66 6t-63.5 24.5t-60.5 52t-56 89.5q-31 -100 -68 -183.5t-81 -143.5t-97 -94t-117 -34z" />
<glyph unicode="&#xb7;" horiz-adv-x="425" d="M215 574q6 41 12.5 82t18.5 88l14 74q29 12 57.5 14t86.5 2h100v-49q0 -23 -2 -25l-14 -59q-10 -35 -20.5 -64.5t-16.5 -48.5l-4 -4q-35 -4 -77 -7t-91 -3h-64z" />
<glyph unicode="&#xb8;" horiz-adv-x="909" d="M174 -344q8 10 29.5 19.5t40.5 13.5q8 -86 108 -86q31 0 58.5 8t49 26.5t35 50t13.5 81.5q0 37 -23.5 52t-51 28.5t-50.5 33t-23 66.5q0 8 1 21.5t6 33.5l73 -2q-4 -10 -4 -15v-10v-18q0 -31 21.5 -43t47 -25.5t47 -38t21.5 -79.5q0 -80 -21.5 -127t-56 -69.5t-78.5 -29 t-89 -6.5q-49 0 -95.5 31t-58.5 84z" />
<glyph unicode="&#xb9;" horiz-adv-x="356" d="M358 903q12 27 32 105.5t42 177.5l57 287q-35 -37 -58 -59.5t-32 -35.5l-34 37q47 43 79.5 83t55.5 75q31 -8 67 -8q-6 -29 -22.5 -92.5t-36.5 -163.5l-72 -410q-12 2 -23.5 3t-23.5 1h-31z" />
<glyph unicode="&#xba;" horiz-adv-x="677" d="M309 1077q0 125 28 218.5t76 154.5t113.5 92t143.5 31q102 0 141 -58.5t39 -144.5q0 -74 -17.5 -160t-57.5 -157.5t-105.5 -119.5t-161.5 -48q-98 0 -148.5 44t-50.5 148zM385 1081q0 -66 32 -91t99 -25q129 0 192.5 109.5t63.5 295.5q0 59 -26.5 93t-104.5 34 q-72 0 -121 -42t-78.5 -105.5t-43 -135t-13.5 -133.5z" />
<glyph unicode="&#xbb;" horiz-adv-x="997" d="M150 307q111 78 216 153t209 128q-98 74 -174.5 133t-124.5 102q23 35 40.5 61.5t33.5 65.5q41 -59 73 -99t64.5 -70.5t71.5 -57.5t94 -61q-14 -47 -20 -74t-15 -62l-2 -12q-66 -47 -114.5 -77.5t-94 -61.5t-95.5 -69t-117 -97q-8 20 -23.5 53t-21.5 45zM561 307 q111 78 217.5 153t210.5 128q-51 33 -126 93t-179 153q27 27 44.5 52t33.5 64q41 -59 73.5 -99t65.5 -70.5t72 -57.5t94 -61q-14 -47 -20.5 -74t-14.5 -62l-2 -12q-66 -47 -115 -77.5t-95 -61.5t-96 -69t-118 -97q-4 20 -21.5 53t-23.5 45z" />
<glyph unicode="&#xbc;" horiz-adv-x="1269" d="M78 6q88 84 189.5 189.5t209 223.5t218 242.5t216 246.5t201.5 235.5t178 212.5q17 4 107 6q-88 -90 -193.5 -204t-218.5 -237.5t-226.5 -252.5t-220 -251t-198.5 -230.5t-160 -190.5q-18 4 -42.5 7t-59.5 3zM307 1206q106 92 154 170q8 -6 19.5 -10t29.5 -4h25l-29 -148 q-8 -41 -20.5 -90t-26 -112.5t-27.5 -146.5t-29 -191q-2 0 -15 1t-28.5 3t-27.5 4l-13 2h3l114 571q-35 -31 -54.5 -55t-25.5 -37q-16 12 -27.5 25.5t-21.5 17.5zM684 135q2 10 2 25.5t8 42.5l8 30q45 39 99.5 96.5t112 121t112.5 128t104 117.5q18 -12 62 -12l-62 -324 l-26 -141l72 -6l-15 -74l-57 4l-29 -98q0 -25 -2 -27l-4 -20q-10 2 -23.5 3t-27.5 1h-43q12 25 18 51.5t17 50.5l-17 29q-27 0 -48 1t-44 1h-217zM786 223q86 -8 139.5 -9t92.5 -1l26 23l23 104q8 45 14.5 93t16.5 132q-49 -55 -86 -95t-71 -76t-69.5 -75.5t-85.5 -95.5z " />
<glyph unicode="&#xbd;" horiz-adv-x="1372" d="M78 6q88 84 189.5 189.5t209 223.5t218 242.5t216 246.5t201.5 235.5t178 212.5q17 4 107 6q-88 -90 -193.5 -204t-218.5 -237.5t-226.5 -252.5t-220 -251t-198.5 -230.5t-160 -190.5q-18 4 -42.5 7t-59.5 3zM338 1225q51 43 90 86t64 86q20 -16 40 -17q14 0 21.5 1 t19.5 3q-6 -29 -24.5 -76.5t-30.5 -119.5l-6 -37q-6 -16 -6 -37l-70 -420q-12 6 -24.5 7t-34.5 1q-8 0 -11.5 -2t-7.5 -2l62 293l41 228l-31 14q-31 -25 -45 -47v-10q-12 14 -24.5 30.5t-22.5 18.5zM387 1174h2v-3q-2 0 -2 3zM772 2q14 41 24.5 67.5t18.5 61.5l6 27 q16 94 79 155.5t202 61.5q49 0 83 6t53 24.5t27.5 53.5t8.5 90q0 43 -28.5 56t-96.5 13q-63 0 -104 -15t-56 -62l-6 2q-23 6 -38 9t-27 13q6 37 30.5 61.5t58 40t72.5 22.5t76 7q41 0 77 -5t62.5 -20.5t42 -42t15.5 -69.5q0 -94 -26 -146.5t-65.5 -78t-87 -31.5t-90.5 -8h-4 q-37 -4 -70.5 -12.5t-61 -27.5t-48 -51t-33.5 -83l-4 -23q-2 -2 -2 -20l21 -19l161 21h70q57 0 100 2t56 8q0 -6 1 -9t1 -7q0 -16 -8.5 -38t-14.5 -42q-123 4 -217 7t-168 3h-69q-18 0 -21 -2z" />
<glyph unicode="&#xbe;" horiz-adv-x="1374" d="M150 6q88 84 189 189.5t208.5 223.5t217 242.5t215 246.5t202 235.5t178.5 212.5q18 2 108 6q-88 -90 -193.5 -204t-218 -237.5t-226 -252.5t-220 -251t-199 -230.5t-159.5 -190.5q-18 4 -43 7t-59 3zM242 786l82 39q0 -43 33.5 -57t91.5 -14q43 0 71.5 4t48 19.5 t30.5 43t22 74.5v12q0 47 -46.5 74t-101.5 27q-6 0 -18.5 -4.5t-40.5 -8.5l26 90q16 -4 17 -4l4 -2h45q72 0 125 38t53 116q0 51 -35 64.5t-88 13.5q-63 0 -97 -12.5t-54 -61.5q-27 4 -42.5 11t-31.5 18q14 39 40.5 63.5t58.5 37.5t69 18.5t71 5.5q86 0 136.5 -31t50.5 -109 q0 -57 -24.5 -108t-71.5 -78l-7 -41q41 -35 41 -96q0 -76 -22.5 -125t-61 -78t-88 -40t-102.5 -11q-76 0 -130 22.5t-54 89.5zM844 133l22 100q29 29 69 71t85 90t92 99.5t90 98.5l94 102q16 -10 52 -10h10l-62 -324l-26 -120l18 -21q12 0 26.5 2t24.5 2q0 -23 -6 -46 t-14 -50q-10 0 -21.5 2t-21.5 2l-27 -27l-6 -47q0 -25 -2 -26l-2 -13q-2 -2 -2 -12q0 -4 1 -5t1 -3q-10 2 -24.5 3t-30.5 1h-41q14 45 31 104l-15 27q-2 2 -20 2h-273q-20 0 -22 -2zM987 256l6 -35q41 -6 95.5 -7t95.5 -1l26 23l54 278l-33 16q-63 -61 -122.5 -129.5 t-121.5 -144.5zM1130 0q6 0 7.5 1t5.5 1v-4q-2 0 -8.5 1t-4.5 1z" />
<glyph unicode="&#xbf;" horiz-adv-x="1007" d="M68 -43q0 150 38.5 242t97 147t130.5 87t136.5 62.5t113.5 71.5t65 115q10 0 17.5 -1t23.5 -1q82 0 123 8l-2 -14q-20 -100 -72.5 -154.5t-119 -88.5t-138 -58.5t-131 -64.5t-98.5 -107.5t-39 -186.5q0 -111 61.5 -152.5t186.5 -41.5h26q117 0 203 42t127 140 q10 -2 27.5 -13.5t35 -24.5t32 -23.5t18.5 -10.5q-25 -66 -76 -110.5t-115.5 -71.5t-133 -38t-128.5 -11q-94 0 -170 10t-129 39t-81.5 79t-28.5 130zM662 911q0 18 2 25l12 55q6 29 13 53.5t20 49.5q35 6 66.5 9t72.5 3h63q-18 -39 -17 -75t-9 -83l-17 -67 q-23 -10 -56.5 -13.5t-74.5 -3.5q-43 0 -59 10.5t-16 36.5z" />
<glyph unicode="&#xc0;" d="M18 2q281 481 466.5 819t287.5 555q57 6 96 6q23 0 38.5 -1t31.5 -3q20 -332 61 -668.5t99 -707.5q-2 2 -21 2h-131q-23 0 -24 -2q0 14 1 28.5t1 26.5q0 31 -3 81t-7.5 102.5t-10.5 98.5t-12 69h-100.5t-134 -1t-138 -1h-112.5q-47 -86 -81 -151t-57.5 -113t-39 -81.5 t-27.5 -60.5q-23 2 -42.5 3t-33.5 1h-53q-16 0 -30 -1t-24 -1zM455 528q106 -6 213.5 -6t220.5 -4q0 104 -4 186t-11.5 158t-20 155t-28.5 179q-129 -199 -221 -365.5t-149 -302.5zM711 1790q39 43 53 103q70 -51 140.5 -93t162.5 -77q-18 -23 -34.5 -47.5t-28.5 -55.5 q-147 111 -293 170z" />
<glyph unicode="&#xc1;" d="M18 2q281 481 466.5 819t287.5 555q57 6 96 6q23 0 38.5 -1t31.5 -3q20 -332 61 -668.5t99 -707.5q-2 2 -21 2h-131q-23 0 -24 -2q0 14 1 28.5t1 26.5q0 31 -3 81t-7.5 102.5t-10.5 98.5t-12 69h-100.5t-134 -1t-138 -1h-112.5q-47 -86 -81 -151t-57.5 -113t-39 -81.5 t-27.5 -60.5q-23 2 -42.5 3t-33.5 1h-53q-16 0 -30 -1t-24 -1zM455 528q106 -6 213.5 -6t220.5 -4q0 104 -4 186t-11.5 158t-20 155t-28.5 179q-129 -199 -221 -365.5t-149 -302.5zM778 1718q68 29 119 50.5t93 41t81 39t82 44.5q0 -29 3 -58.5t11 -52.5q-66 -23 -109.5 -40 t-83.5 -35.5t-80 -40t-95 -52.5q-4 27 -7.5 48.5t-13.5 55.5z" />
<glyph unicode="&#xc2;" d="M18 2q281 481 466.5 819t287.5 555q57 6 96 6q23 0 38.5 -1t31.5 -3q20 -332 61 -668.5t99 -707.5q-2 2 -21 2h-131q-23 0 -24 -2q0 14 1 28.5t1 26.5q0 31 -3 81t-7.5 102.5t-10.5 98.5t-12 69h-100.5t-134 -1t-138 -1h-112.5q-47 -86 -81 -151t-57.5 -113t-39 -81.5 t-27.5 -60.5q-23 2 -42.5 3t-33.5 1h-53q-16 0 -30 -1t-24 -1zM455 528q106 -6 213.5 -6t220.5 -4q0 104 -4 186t-11.5 158t-20 155t-28.5 179q-129 -199 -221 -365.5t-149 -302.5zM659 1720q72 29 150 72t158 101q53 -57 108.5 -102.5t110.5 -82.5q-23 -20 -37 -39.5 t-37 -40.5q-51 29 -88 65t-76 97q-57 -47 -116.5 -85t-118.5 -71q-6 18 -20.5 39t-33.5 47z" />
<glyph unicode="&#xc3;" d="M18 2q281 481 466.5 819t287.5 555q57 6 96 6q23 0 38.5 -1t31.5 -3q20 -332 61 -668.5t99 -707.5q-2 2 -21 2h-131q-23 0 -24 -2q0 14 1 28.5t1 26.5q0 31 -3 81t-7.5 102.5t-10.5 98.5t-12 69h-100.5t-134 -1t-138 -1h-112.5q-47 -86 -81 -151t-57.5 -113t-39 -81.5 t-27.5 -60.5q-23 2 -42.5 3t-33.5 1h-53q-16 0 -30 -1t-24 -1zM455 528q106 -6 213.5 -6t220.5 -4q0 104 -4 186t-11.5 158t-20 155t-28.5 179q-129 -199 -221 -365.5t-149 -302.5zM621 1743q8 18 28.5 39.5t48 41t60.5 33t63 13.5q37 0 71 -13.5t65.5 -28.5t60 -27.5 t53.5 -12.5q61 0 109 78q16 -27 33.5 -44.5t35.5 -29.5q-39 -55 -78.5 -78.5t-86.5 -23.5t-80 13t-61.5 30.5t-58.5 31t-67 13.5q-41 0 -65.5 -22.5t-55.5 -78.5q-23 23 -42 40.5t-33 25.5z" />
<glyph unicode="&#xc4;" d="M18 2q281 481 466.5 819t287.5 555q57 6 96 6q23 0 38.5 -1t31.5 -3q20 -332 61 -668.5t99 -707.5q-2 2 -21 2h-131q-23 0 -24 -2q0 14 1 28.5t1 26.5q0 31 -3 81t-7.5 102.5t-10.5 98.5t-12 69h-100.5t-134 -1t-138 -1h-112.5q-47 -86 -81 -151t-57.5 -113t-39 -81.5 t-27.5 -60.5q-23 2 -42.5 3t-33.5 1h-53q-16 0 -30 -1t-24 -1zM455 528q106 -6 213.5 -6t220.5 -4q0 104 -4 186t-11.5 158t-20 155t-28.5 179q-129 -199 -221 -365.5t-149 -302.5zM649 1612q4 47 10 84t14 67q35 10 64 14.5t41 4.5q29 0 53 -10q-4 -29 -9 -62t-17 -92 q-25 -4 -54.5 -5t-101.5 -1zM1001 1618l29 143q27 20 69 21q23 0 46.5 -5t39.5 -11q-4 -37 -9 -73t-13 -73q-10 -4 -28.5 -6t-39.5 -2q-23 0 -48 1t-46 5z" />
<glyph unicode="&#xc5;" d="M18 2q279 477 464.5 817t287.5 555q-127 31 -127 156q0 94 26.5 162.5t70.5 113.5t102.5 65.5t122.5 20.5q213 0 213 -178q0 -57 -16.5 -111.5t-47.5 -99.5t-76 -78.5t-100 -48.5q20 -332 61 -667.5t99 -706.5q-2 2 -21 2h-131q-23 0 -24 -2q0 14 1 28.5t1 26.5 q0 31 -3 81t-7.5 102.5t-10.5 98.5t-12 69h-100.5t-134 -1t-138 -1h-112.5q-47 -86 -81 -151t-57.5 -113t-39 -81.5t-27.5 -60.5q-23 2 -42.5 3t-33.5 1h-53q-16 0 -29.5 -1t-24.5 -1zM455 528q106 -6 213.5 -6t220.5 -4q0 104 -4 186t-11.5 158t-20 155t-28.5 179 q-129 -199 -221 -365.5t-149 -302.5zM719 1548q0 -133 141 -133q104 0 171 72t67 215q-1 135 -140 135q-123 0 -181 -80t-58 -209z" />
<glyph unicode="&#xc6;" horiz-adv-x="1394" d="M66 2q289 500 474 840t277 534q186 0 368.5 7.5t387.5 11.5q0 -39 -8.5 -91.5t-18.5 -78.5q-37 8 -70.5 13t-81.5 7t-121 3t-188 1q-16 -76 -33.5 -140.5t-32.5 -130t-27.5 -138t-18.5 -160.5q119 4 216 5t208 5q-4 -35 -12.5 -66.5t-16.5 -84.5q-45 4 -87 5t-91 1 t-110.5 1t-145.5 3l-8 -35q-4 -6 -6 -31l-25 -118q-10 -41 -23.5 -96.5t-15.5 -133.5q29 -2 53.5 -3t46.5 -1q98 0 190.5 11.5t184.5 11.5q-4 -16 -7 -35t-7 -29l-21 -94l-168 4h-444q29 98 56.5 197.5t50.5 218.5l12 61q2 10 3 16.5t1 10.5q0 27 -18.5 36t-47.5 9 q-59 0 -119.5 -4t-117.5 -4q-111 -199 -180.5 -340.5t-90.5 -200.5q-20 2 -43.5 3t-52.5 1h-49q-20 0 -22 -2zM569 674h37q27 0 49.5 -1t49.5 -1q29 0 60.5 3t78.5 5q25 76 42 141.5t29.5 130t22.5 132t20 145.5l-90 -2q-33 -66 -66.5 -126.5t-70.5 -125t-77 -138 t-85 -163.5z" />
<glyph unicode="&#xc7;" horiz-adv-x="1130" d="M184 430q0 201 47.5 379t141.5 311t235.5 210t331.5 77q160 0 245 -61.5t113 -192.5q-41 -23 -73.5 -39t-59.5 -20q-20 92 -88.5 125.5t-179.5 33.5q-154 0 -262.5 -69.5t-176 -184t-99 -260t-31.5 -295.5q0 -166 71.5 -244.5t218.5 -78.5q131 0 221.5 34t149.5 126 q41 -14 69.5 -26.5t51.5 -25.5q-168 -254 -500 -254q-18 0 -35.5 1t-33.5 4v-21q0 -31 21.5 -43t48 -25.5t48 -38t21.5 -79.5q0 -80 -21.5 -127t-56.5 -69.5t-79 -29t-89 -6.5q-49 0 -95 31t-58 84q8 10 28.5 19.5t40.5 13.5q8 -86 107 -86q31 0 58.5 8t49 26.5t34.5 50 t13 81.5q0 37 -23.5 52t-51 28.5t-50 33t-22.5 66.5v17t2 26q-154 39 -218.5 154.5t-64.5 283.5z" />
<glyph unicode="&#xc8;" horiz-adv-x="968" d="M100 -2q39 121 76 274.5t72 331.5t69.5 377t69.5 410q53 -4 103.5 -6.5t134.5 -2.5q33 0 93 2t127.5 4.5t135.5 4.5t119 2h50t34 -2q-27 -57 -37 -127l-6 -41q-129 14 -244 20t-219 6h-182q-16 -76 -29.5 -132t-25 -108.5t-21.5 -106.5t-21 -126q55 -4 107.5 -5t101.5 -1 q111 0 211.5 2t192.5 8q-29 -59 -31 -151q-90 4 -165 7t-173 3q-61 0 -125.5 -1t-152.5 -1q-20 -86 -35 -152.5t-25 -123t-20.5 -111.5t-22.5 -119q47 -2 77 -3t58 -1q49 0 131 5t163 10.5t146.5 10.5t82.5 5v-10q0 -10 -4.5 -33t-9.5 -46.5t-9 -45t-4 -29.5q-86 6 -173 8 t-179 2h-111.5t-117 -1t-113 -3t-99.5 -4zM637 1790q39 43 53 103q70 -51 140.5 -93t162.5 -77q-18 -23 -34.5 -47.5t-28.5 -55.5q-147 111 -293 170z" />
<glyph unicode="&#xc9;" horiz-adv-x="968" d="M100 -2q39 121 76 274.5t72 331.5t69.5 377t69.5 410q53 -4 103.5 -6.5t134.5 -2.5q33 0 93 2t127.5 4.5t135.5 4.5t119 2h50t34 -2q-27 -57 -37 -127l-6 -41q-129 14 -244 20t-219 6h-182q-16 -76 -29.5 -132t-25 -108.5t-21.5 -106.5t-21 -126q55 -4 107.5 -5t101.5 -1 q111 0 211.5 2t192.5 8q-29 -59 -31 -151q-90 4 -165 7t-173 3q-61 0 -125.5 -1t-152.5 -1q-20 -86 -35 -152.5t-25 -123t-20.5 -111.5t-22.5 -119q47 -2 77 -3t58 -1q49 0 131 5t163 10.5t146.5 10.5t82.5 5v-10q0 -10 -4.5 -33t-9.5 -46.5t-9 -45t-4 -29.5q-86 6 -173 8 t-179 2h-111.5t-117 -1t-113 -3t-99.5 -4zM700 1718q68 29 119 50.5t93 41t81 39t82 44.5q0 -29 3 -58.5t11 -52.5q-66 -23 -109.5 -40t-83.5 -35.5t-80 -40t-95 -52.5q-4 27 -7.5 48.5t-13.5 55.5z" />
<glyph unicode="&#xca;" horiz-adv-x="968" d="M100 -2q39 121 76 274.5t72 331.5t69.5 377t69.5 410q53 -4 103.5 -6.5t134.5 -2.5q33 0 93 2t127.5 4.5t135.5 4.5t119 2h50t34 -2q-27 -57 -37 -127l-6 -41q-129 14 -244 20t-219 6h-182q-16 -76 -29.5 -132t-25 -108.5t-21.5 -106.5t-21 -126q55 -4 107.5 -5t101.5 -1 q111 0 211.5 2t192.5 8q-29 -59 -31 -151q-90 4 -165 7t-173 3q-61 0 -125.5 -1t-152.5 -1q-20 -86 -35 -152.5t-25 -123t-20.5 -111.5t-22.5 -119q47 -2 77 -3t58 -1q49 0 131 5t163 10.5t146.5 10.5t82.5 5v-10q0 -10 -4.5 -33t-9.5 -46.5t-9 -45t-4 -29.5q-86 6 -173 8 t-179 2h-111.5t-117 -1t-113 -3t-99.5 -4zM587 1720q72 29 150 72t158 101q53 -57 108.5 -102.5t110.5 -82.5q-23 -20 -37 -39.5t-37 -40.5q-51 29 -88 65t-76 97q-57 -47 -116.5 -85t-118.5 -71q-6 18 -20.5 39t-33.5 47z" />
<glyph unicode="&#xcb;" horiz-adv-x="968" d="M100 -2q39 121 76 274.5t72 331.5t69.5 377t69.5 410q53 -4 103.5 -6.5t134.5 -2.5q33 0 93 2t127.5 4.5t135.5 4.5t119 2h50t34 -2q-27 -57 -37 -127l-6 -41q-129 14 -244 20t-219 6h-182q-16 -76 -29.5 -132t-25 -108.5t-21.5 -106.5t-21 -126q55 -4 107.5 -5t101.5 -1 q111 0 211.5 2t192.5 8q-29 -59 -31 -151q-90 4 -165 7t-173 3q-61 0 -125.5 -1t-152.5 -1q-20 -86 -35 -152.5t-25 -123t-20.5 -111.5t-22.5 -119q47 -2 77 -3t58 -1q49 0 131 5t163 10.5t146.5 10.5t82.5 5v-10q0 -10 -4.5 -33t-9.5 -46.5t-9 -45t-4 -29.5q-86 6 -173 8 t-179 2h-111.5t-117 -1t-113 -3t-99.5 -4zM571 1612q4 47 10 84t14 67q35 10 64 14.5t41 4.5q29 0 53 -10q-4 -29 -9 -62t-17 -92q-25 -4 -54.5 -5t-101.5 -1zM923 1618l29 143q27 20 69 21q23 0 46.5 -5t39.5 -11q-4 -37 -9 -73t-13 -73q-10 -4 -28.5 -6t-39.5 -2 q-23 0 -48 1t-46 5z" />
<glyph unicode="&#xcc;" horiz-adv-x="331" d="M82 4q23 63 50.5 160.5t56 214.5t56 248t53.5 263t47.5 259t35.5 237q35 9 86 9q43 0 70 -9q-31 -92 -63 -210.5t-61.5 -246.5t-56 -261t-48 -257t-36 -230.5t-18.5 -182.5q-16 4 -36.5 6t-61.5 2h-47q-25 0 -27 -2zM322 1790q39 43 53 103q70 -51 140.5 -93t162.5 -77 q-18 -23 -34.5 -47.5t-28.5 -55.5q-147 111 -293 170z" />
<glyph unicode="&#xcd;" horiz-adv-x="331" d="M82 4q23 63 50.5 160.5t56 214.5t56 248t53.5 263t47.5 259t35.5 237q35 9 86 9q43 0 70 -9q-31 -92 -63 -210.5t-61.5 -246.5t-56 -261t-48 -257t-36 -230.5t-18.5 -182.5q-16 4 -36.5 6t-61.5 2h-47q-25 0 -27 -2zM387 1718q68 29 119 50.5t93 41t81 39t82 44.5 q0 -29 3 -58.5t11 -52.5q-66 -23 -109.5 -40t-83.5 -35.5t-80 -40t-95 -52.5q-4 27 -7.5 48.5t-13.5 55.5z" />
<glyph unicode="&#xce;" horiz-adv-x="331" d="M82 4q23 63 50.5 160.5t56 214.5t56 248t53.5 263t47.5 259t35.5 237q35 9 86 9q43 0 70 -9q-31 -92 -63 -210.5t-61.5 -246.5t-56 -261t-48 -257t-36 -230.5t-18.5 -182.5q-16 4 -36.5 6t-61.5 2h-47q-25 0 -27 -2zM268 1720q72 29 150 72t158 101q53 -57 108.5 -102.5 t110.5 -82.5q-23 -20 -37 -39.5t-37 -40.5q-51 29 -88 65t-76 97q-57 -47 -116.5 -85t-118.5 -71q-6 18 -20.5 39t-33.5 47z" />
<glyph unicode="&#xcf;" horiz-adv-x="331" d="M82 4q23 63 50.5 160.5t56 214.5t56 248t53.5 263t47.5 259t35.5 237q35 9 86 9q43 0 70 -9q-31 -92 -63 -210.5t-61.5 -246.5t-56 -261t-48 -257t-36 -230.5t-18.5 -182.5q-16 4 -36.5 6t-61.5 2h-47q-25 0 -27 -2zM258 1612q4 47 10 84t14 67q35 10 64 14.5t41 4.5 q29 0 53 -10q-4 -29 -9 -62t-17 -92q-25 -4 -54.5 -5t-101.5 -1zM610 1618l29 143q27 20 69 21q23 0 46.5 -5t39.5 -11q-4 -37 -9 -73t-13 -73q-10 -4 -28.5 -6t-39.5 -2q-23 0 -48 1t-46 5z" />
<glyph unicode="&#xd0;" horiz-adv-x="1232" d="M133 604q0 12 4 33.5t9.5 43t9.5 39t4 21.5q68 -6 141 -6q37 193 65.5 352.5t45.5 276.5q90 6 156.5 7t138.5 1q133 0 246.5 -13t196.5 -59.5t130 -135.5t47 -242q0 -258 -59.5 -439.5t-172 -296t-275 -167t-367.5 -52.5q-156 0 -316 13q37 160 73 319.5t66 312.5 q-39 -2 -74.5 -3t-68.5 -5zM309 111q78 -8 133.5 -11.5t102.5 -3.5q174 0 297 55.5t199.5 160t112.5 253t36 336.5q0 92 -20.5 155.5t-68.5 101.5t-129 55.5t-202 17.5q-53 0 -105.5 -3t-132.5 -5l-110 -490h229q18 0 21 2l-33 -139q-57 8 -117.5 11t-124.5 5 q-29 -141 -50.5 -262.5t-37.5 -238.5z" />
<glyph unicode="&#xd1;" horiz-adv-x="1241" d="M90 -2q49 180 94 372.5t84 377t69 348.5t48 286q8 -4 31 -4q39 0 87 2t81 11q25 -92 62.5 -207t94 -262.5t131 -330t172.5 -407.5q31 94 60 207t54.5 229.5t49 233.5t41 220.5t30.5 189.5t19 141q6 0 27 5t57 5q61 0 72 -8q-49 -184 -97 -374.5t-89 -372t-73 -348.5 t-48 -304l-227 -16q-18 119 -60.5 269.5t-101 312t-127 323.5t-142.5 301q-31 -123 -67.5 -271.5t-71.5 -306t-63.5 -316.5t-42.5 -300q-2 -2 -16.5 -3t-33 -2l-37 -2t-28.5 -1q-37 0 -39 2zM680 1743q8 18 28.5 39.5t48 41t60.5 33t63 13.5q37 0 71 -13.5t65.5 -28.5 t60 -27.5t53.5 -12.5q61 0 109 78q16 -27 33.5 -44.5t35.5 -29.5q-39 -55 -78.5 -78.5t-86.5 -23.5t-80 13t-61.5 30.5t-58.5 31t-67 13.5q-41 0 -65.5 -22.5t-55.5 -78.5q-23 23 -42 40.5t-33 25.5z" />
<glyph unicode="&#xd2;" horiz-adv-x="1206" d="M178 399q0 109 17.5 225.5t55.5 229.5t97.5 212t143 175t193.5 120t247 44q109 0 182.5 -34t119.5 -92t65.5 -137t19.5 -171q0 -104 -16.5 -218t-52.5 -223.5t-92 -209t-137 -175t-186.5 -119.5t-238.5 -44q-115 0 -193.5 29.5t-129 85t-73 132t-22.5 170.5zM313 410 q0 -154 72 -216.5t231 -62.5q150 0 256.5 74t176 193.5t102.5 269t33 301.5q0 141 -67.5 221t-233.5 80q-127 0 -232.5 -71t-180.5 -188.5t-116 -273t-41 -327.5zM754 1790q39 43 53 103q70 -51 140.5 -93t162.5 -77q-18 -23 -34.5 -47.5t-28.5 -55.5q-147 111 -293 170z " />
<glyph unicode="&#xd3;" horiz-adv-x="1206" d="M178 399q0 109 17.5 225.5t55.5 229.5t97.5 212t143 175t193.5 120t247 44q109 0 182.5 -34t119.5 -92t65.5 -137t19.5 -171q0 -104 -16.5 -218t-52.5 -223.5t-92 -209t-137 -175t-186.5 -119.5t-238.5 -44q-115 0 -193.5 29.5t-129 85t-73 132t-22.5 170.5zM313 410 q0 -154 72 -216.5t231 -62.5q150 0 256.5 74t176 193.5t102.5 269t33 301.5q0 141 -67.5 221t-233.5 80q-127 0 -232.5 -71t-180.5 -188.5t-116 -273t-41 -327.5zM817 1718q68 29 119 50.5t93 41t81 39t82 44.5q0 -29 3 -58.5t11 -52.5q-66 -23 -109.5 -40t-83.5 -35.5 t-80 -40t-95 -52.5q-4 27 -7.5 48.5t-13.5 55.5z" />
<glyph unicode="&#xd4;" horiz-adv-x="1206" d="M178 399q0 109 17.5 225.5t55.5 229.5t97.5 212t143 175t193.5 120t247 44q109 0 182.5 -34t119.5 -92t65.5 -137t19.5 -171q0 -104 -16.5 -218t-52.5 -223.5t-92 -209t-137 -175t-186.5 -119.5t-238.5 -44q-115 0 -193.5 29.5t-129 85t-73 132t-22.5 170.5zM313 410 q0 -154 72 -216.5t231 -62.5q150 0 256.5 74t176 193.5t102.5 269t33 301.5q0 141 -67.5 221t-233.5 80q-127 0 -232.5 -71t-180.5 -188.5t-116 -273t-41 -327.5zM700 1720q72 29 150 72t158 101q53 -57 108.5 -102.5t110.5 -82.5q-23 -20 -37 -39.5t-37 -40.5 q-51 29 -88 65t-76 97q-57 -47 -116.5 -85t-118.5 -71q-6 18 -20.5 39t-33.5 47z" />
<glyph unicode="&#xd5;" horiz-adv-x="1206" d="M178 399q0 109 17.5 225.5t55.5 229.5t97.5 212t143 175t193.5 120t247 44q109 0 182.5 -34t119.5 -92t65.5 -137t19.5 -171q0 -104 -16.5 -218t-52.5 -223.5t-92 -209t-137 -175t-186.5 -119.5t-238.5 -44q-115 0 -193.5 29.5t-129 85t-73 132t-22.5 170.5zM313 410 q0 -154 72 -216.5t231 -62.5q150 0 256.5 74t176 193.5t102.5 269t33 301.5q0 141 -67.5 221t-233.5 80q-127 0 -232.5 -71t-180.5 -188.5t-116 -273t-41 -327.5zM662 1743q8 18 28.5 39.5t48 41t60.5 33t63 13.5q37 0 71 -13.5t65.5 -28.5t60 -27.5t53.5 -12.5q61 0 109 78 q16 -27 33.5 -44.5t35.5 -29.5q-39 -55 -78.5 -78.5t-86.5 -23.5t-80 13t-61.5 30.5t-58.5 31t-67 13.5q-41 0 -65.5 -22.5t-55.5 -78.5q-23 23 -42 40.5t-33 25.5z" />
<glyph unicode="&#xd6;" horiz-adv-x="1206" d="M178 399q0 109 17.5 225.5t55.5 229.5t97.5 212t143 175t193.5 120t247 44q109 0 182.5 -34t119.5 -92t65.5 -137t19.5 -171q0 -104 -16.5 -218t-52.5 -223.5t-92 -209t-137 -175t-186.5 -119.5t-238.5 -44q-115 0 -193.5 29.5t-129 85t-73 132t-22.5 170.5zM313 410 q0 -154 72 -216.5t231 -62.5q150 0 256.5 74t176 193.5t102.5 269t33 301.5q0 141 -67.5 221t-233.5 80q-127 0 -232.5 -71t-180.5 -188.5t-116 -273t-41 -327.5zM690 1612q4 47 10 84t14 67q35 10 64 14.5t41 4.5q29 0 53 -10q-4 -29 -9 -62t-17 -92q-25 -4 -54.5 -5 t-101.5 -1zM1042 1618l29 143q27 20 69 21q23 0 46.5 -5t39.5 -11q-4 -37 -9 -73t-13 -73q-10 -4 -28.5 -6t-39.5 -2q-23 0 -48 1t-46 5z" />
<glyph unicode="&#xd7;" horiz-adv-x="880" d="M250 479q18 14 39.5 31.5t51.5 44.5t69 63.5t94 92.5q-63 59 -105.5 99t-69 65.5t-42 40t-27.5 22.5l62.5 62.5t33.5 43.5q18 -20 31.5 -35.5t37.5 -39t61.5 -63.5t105.5 -109q57 59 95 99t62.5 66.5t39 42t24.5 27.5q35 -35 61.5 -60.5t43.5 -33.5l-240 -229 q39 -39 85 -88.5t105 -108.5l21 -18q20 -20 24 -21l-98 -96q-14 18 -31.5 39.5t-44 49.5t-62.5 65.5t-87 91.5q-41 -41 -92.5 -88.5t-112.5 -108.5l-14 -20q-23 -18 -23 -23z" />
<glyph unicode="&#xd8;" horiz-adv-x="1206" d="M147 -57l125 155q-49 55 -71.5 132t-22.5 169q0 109 17.5 225.5t55.5 229.5t97.5 212t143 175t193.5 120t247 44q141 0 225 -57l84 129q35 8 88 8q10 0 20.5 -1t20.5 -1q-35 -41 -74 -88t-77 -99q53 -59 76.5 -143t23.5 -182q0 -104 -16.5 -218t-52.5 -223.5t-92 -209 t-137 -175t-186.5 -119.5t-238.5 -44q-158 0 -254 59q-16 -29 -31.5 -55.5t-27.5 -51.5q-18 8 -95 9h-41zM313 410q0 -129 49 -191q86 117 178.5 243t183.5 255t180 258t171 250q-69 45 -192 45q-127 0 -232.5 -71t-180.5 -188.5t-116 -273t-41 -327.5zM422 168 q35 -20 84 -28.5t110 -8.5q150 0 256.5 74t176 193.5t102.5 269t33 301.5q0 137 -58 207q-92 -121 -187 -251t-186 -262.5t-176 -258t-155 -236.5z" />
<glyph unicode="&#xd9;" horiz-adv-x="1144" d="M184 324q0 102 17.5 227t46 261t67.5 281.5t80 286.5q37 6 80 6q51 0 82 -6q-35 -94 -77 -230t-78.5 -280.5t-62.5 -280.5t-26 -229q0 -117 61.5 -171t217.5 -54q129 0 211 40t135 119t87 195.5t69 272.5q43 197 64.5 346t31.5 268q21 6 74 6q37 0 84 -6 q-4 -23 -15.5 -82t-28 -142t-37 -183.5t-42.5 -204.5q-37 -172 -77 -315.5t-109.5 -247t-182.5 -160.5t-293 -57q-104 0 -177 24.5t-118 69.5t-64.5 107.5t-19.5 138.5zM721 1790q39 43 53 103q70 -51 140.5 -93t162.5 -77q-18 -23 -34.5 -47.5t-28.5 -55.5 q-147 111 -293 170z" />
<glyph unicode="&#xda;" horiz-adv-x="1144" d="M184 324q0 102 17.5 227t46 261t67.5 281.5t80 286.5q37 6 80 6q51 0 82 -6q-35 -94 -77 -230t-78.5 -280.5t-62.5 -280.5t-26 -229q0 -117 61.5 -171t217.5 -54q129 0 211 40t135 119t87 195.5t69 272.5q43 197 64.5 346t31.5 268q21 6 74 6q37 0 84 -6 q-4 -23 -15.5 -82t-28 -142t-37 -183.5t-42.5 -204.5q-37 -172 -77 -315.5t-109.5 -247t-182.5 -160.5t-293 -57q-104 0 -177 24.5t-118 69.5t-64.5 107.5t-19.5 138.5zM788 1718q68 29 119 50.5t93 41t81 39t82 44.5q0 -29 3 -58.5t11 -52.5q-66 -23 -109.5 -40 t-83.5 -35.5t-80 -40t-95 -52.5q-4 27 -7.5 48.5t-13.5 55.5z" />
<glyph unicode="&#xdb;" horiz-adv-x="1144" d="M184 324q0 102 17.5 227t46 261t67.5 281.5t80 286.5q37 6 80 6q51 0 82 -6q-35 -94 -77 -230t-78.5 -280.5t-62.5 -280.5t-26 -229q0 -117 61.5 -171t217.5 -54q129 0 211 40t135 119t87 195.5t69 272.5q43 197 64.5 346t31.5 268q21 6 74 6q37 0 84 -6 q-4 -23 -15.5 -82t-28 -142t-37 -183.5t-42.5 -204.5q-37 -172 -77 -315.5t-109.5 -247t-182.5 -160.5t-293 -57q-104 0 -177 24.5t-118 69.5t-64.5 107.5t-19.5 138.5zM669 1720q72 29 150 72t158 101q53 -57 108.5 -102.5t110.5 -82.5q-23 -20 -37 -39.5t-37 -40.5 q-51 29 -88 65t-76 97q-57 -47 -116.5 -85t-118.5 -71q-6 18 -20.5 39t-33.5 47z" />
<glyph unicode="&#xdc;" horiz-adv-x="1144" d="M184 324q0 102 17.5 227t46 261t67.5 281.5t80 286.5q37 6 80 6q51 0 82 -6q-35 -94 -77 -230t-78.5 -280.5t-62.5 -280.5t-26 -229q0 -117 61.5 -171t217.5 -54q129 0 211 40t135 119t87 195.5t69 272.5q43 197 64.5 346t31.5 268q21 6 74 6q37 0 84 -6 q-4 -23 -15.5 -82t-28 -142t-37 -183.5t-42.5 -204.5q-37 -172 -77 -315.5t-109.5 -247t-182.5 -160.5t-293 -57q-104 0 -177 24.5t-118 69.5t-64.5 107.5t-19.5 138.5zM660 1612q4 47 10 84t14 67q35 10 64 14.5t41 4.5q29 0 53 -10q-4 -29 -9 -62t-17 -92q-25 -4 -54.5 -5 t-101.5 -1zM1012 1618l29 143q27 20 69 21q23 0 46.5 -5t39.5 -11q-4 -37 -9 -73t-13 -73q-10 -4 -28.5 -6t-39.5 -2q-23 0 -48 1t-46 5z" />
<glyph unicode="&#xdd;" horiz-adv-x="1146" d="M358 1382q14 -2 35 -3t43 -1q31 0 57.5 1t41.5 5q25 -174 78 -322.5t130 -279.5q61 68 116.5 135.5t111 141.5t113 156.5t120.5 179.5q25 -4 58.5 -6.5t60.5 -2.5q16 0 30.5 2.5t28.5 2.5q-178 -195 -324.5 -370t-275.5 -359l-28 -125q-57 -205 -82 -539h-174 q70 227 106.5 382.5t52.5 272.5q-78 211 -149.5 390.5t-149.5 338.5zM788 1718q68 29 119 50.5t93 41t81 39t82 44.5q0 -29 3 -58.5t11 -52.5q-66 -23 -109.5 -40t-83.5 -35.5t-80 -40t-95 -52.5q-4 27 -7.5 48.5t-13.5 55.5z" />
<glyph unicode="&#xde;" horiz-adv-x="1095" d="M76 -74q47 154 94 337t89 377t78 389.5t60 373.5q2 -2 58 -2q25 0 49 1t47 3q-41 -131 -59.5 -216t-30.5 -145l-12 -59q51 63 105 102t105.5 59.5t95 27t74.5 6.5q156 -4 245 -83t89 -263q0 -90 -20 -193l-4 -23q-33 -141 -83 -239t-120 -159.5t-160 -89.5t-201 -28 q-98 0 -163.5 57.5t-112.5 180.5q-16 -49 -33.5 -107.5t-32 -115t-23.5 -105.5t-9 -82q-41 0 -72 -1t-53 -3zM350 541q4 -164 73 -240t173 -76q84 0 149.5 16.5t115.5 62.5t88 125t67 206q10 47 14 86t4 74q0 135 -65.5 191t-200.5 56q-131 0 -217 -62t-152 -220z" />
<glyph unicode="&#xdf;" horiz-adv-x="1009" d="M66 -4q63 229 114 465.5t109 511.5q20 102 67 183t114 136.5t148.5 84t174.5 28.5q168 0 261 -70.5t93 -214.5q0 -49 -17.5 -107.5t-55.5 -116.5t-101.5 -109.5t-155.5 -84.5q47 -16 86 -37.5t66.5 -50t42 -68.5t14.5 -93q0 -129 -41 -221.5t-108.5 -150.5t-152.5 -86 t-171 -28q-18 0 -43 1t-48.5 1t-42 1t-22.5 1q10 39 18.5 67t16.5 60q12 -2 31.5 -2h48.5q84 0 152.5 16.5t117.5 55.5t76 104.5t27 163.5q0 57 -27 96t-70 64t-95 35t-103 10q8 25 13 57.5t13 67.5h13q78 2 146.5 23.5t119.5 63.5t81 105.5t30 147.5q0 98 -56.5 131 t-167.5 33q-80 0 -140 -22.5t-103 -59.5t-69 -86t-38 -101q-59 -256 -115.5 -504.5t-93.5 -494.5q-10 0 -16 1t-27 1q-43 0 -72.5 -2t-41.5 -6z" />
<glyph unicode="&#xe0;" horiz-adv-x="1136" d="M152 385q0 172 51 317.5t135 250t194.5 164t229.5 59.5q137 0 223 -55.5t119 -172.5q16 72 23.5 125t9.5 94q2 -2 14 -2h47q39 0 59.5 3t30.5 3q-61 -211 -101 -364.5t-63 -257.5q-14 -61 -32.5 -140t-37 -157t-32.5 -145.5t-21 -106.5h-104q4 6 10 42t23 122 q-174 -186 -430 -187q-174 0 -261 109t-87 299zM285 387q0 -285 297 -285q117 0 202.5 61.5t142 157t84 210t27.5 219.5q1 292 -278 292q-121 0 -210 -52t-147.5 -141t-88 -208t-29.5 -254zM674 1583q39 43 53 103q70 -51 140.5 -93t162.5 -77q-18 -23 -34.5 -47.5 t-28.5 -55.5q-147 111 -293 170z" />
<glyph unicode="&#xe1;" horiz-adv-x="1136" d="M152 385q0 172 51 317.5t135 250t194.5 164t229.5 59.5q137 0 223 -55.5t119 -172.5q16 72 23.5 125t9.5 94q2 -2 14 -2h47q39 0 59.5 3t30.5 3q-61 -211 -101 -364.5t-63 -257.5q-14 -61 -32.5 -140t-37 -157t-32.5 -145.5t-21 -106.5h-104q4 6 10 42t23 122 q-174 -186 -430 -187q-174 0 -261 109t-87 299zM285 387q0 -285 297 -285q117 0 202.5 61.5t142 157t84 210t27.5 219.5q1 292 -278 292q-121 0 -210 -52t-147.5 -141t-88 -208t-29.5 -254zM741 1511q68 29 119 50.5t93 41t81 39t82 44.5q0 -29 3 -58.5t11 -52.5 q-66 -23 -109.5 -40t-83.5 -35.5t-80 -40t-95 -52.5q-4 27 -7.5 48.5t-13.5 55.5z" />
<glyph unicode="&#xe2;" horiz-adv-x="1136" d="M152 385q0 172 51 317.5t135 250t194.5 164t229.5 59.5q137 0 223 -55.5t119 -172.5q16 72 23.5 125t9.5 94q2 -2 14 -2h47q39 0 59.5 3t30.5 3q-61 -211 -101 -364.5t-63 -257.5q-14 -61 -32.5 -140t-37 -157t-32.5 -145.5t-21 -106.5h-104q4 6 10 42t23 122 q-174 -186 -430 -187q-174 0 -261 109t-87 299zM285 387q0 -285 297 -285q117 0 202.5 61.5t142 157t84 210t27.5 219.5q1 292 -278 292q-121 0 -210 -52t-147.5 -141t-88 -208t-29.5 -254zM622 1513q72 29 150 72t158 101q53 -57 108.5 -102.5t110.5 -82.5 q-23 -20 -37 -39.5t-37 -40.5q-51 29 -88 65t-76 97q-57 -47 -116.5 -85t-118.5 -71q-6 18 -20.5 39t-33.5 47z" />
<glyph unicode="&#xe3;" horiz-adv-x="1136" d="M152 385q0 172 51 317.5t135 250t194.5 164t229.5 59.5q137 0 223 -55.5t119 -172.5q16 72 23.5 125t9.5 94q2 -2 14 -2h47q39 0 59.5 3t30.5 3q-61 -211 -101 -364.5t-63 -257.5q-14 -61 -32.5 -140t-37 -157t-32.5 -145.5t-21 -106.5h-104q4 6 10 42t23 122 q-174 -186 -430 -187q-174 0 -261 109t-87 299zM285 387q0 -285 297 -285q117 0 202.5 61.5t142 157t84 210t27.5 219.5q1 292 -278 292q-121 0 -210 -52t-147.5 -141t-88 -208t-29.5 -254zM586 1536q8 18 28.5 39.5t48 41t60.5 33t63 13.5q37 0 71 -13.5t65.5 -28.5 t60 -27.5t53.5 -12.5q61 0 109 78q16 -27 33.5 -44.5t35.5 -29.5q-39 -55 -78.5 -78.5t-86.5 -23.5t-80 13t-61.5 30.5t-58.5 31t-67 13.5q-41 0 -65.5 -22.5t-55.5 -78.5q-23 23 -42 40.5t-33 25.5z" />
<glyph unicode="&#xe4;" horiz-adv-x="1136" d="M152 385q0 172 51 317.5t135 250t194.5 164t229.5 59.5q137 0 223 -55.5t119 -172.5q16 72 23.5 125t9.5 94q2 -2 14 -2h47q39 0 59.5 3t30.5 3q-61 -211 -101 -364.5t-63 -257.5q-14 -61 -32.5 -140t-37 -157t-32.5 -145.5t-21 -106.5h-104q4 6 10 42t23 122 q-174 -186 -430 -187q-174 0 -261 109t-87 299zM285 387q0 -285 297 -285q117 0 202.5 61.5t142 157t84 210t27.5 219.5q1 292 -278 292q-121 0 -210 -52t-147.5 -141t-88 -208t-29.5 -254zM614 1405q4 47 10 84t14 67q35 10 64 14.5t41 4.5q29 0 53 -10q-4 -29 -9 -62 t-17 -92q-25 -4 -54.5 -5t-101.5 -1zM966 1411l29 143q27 20 69 21q23 0 46.5 -5t39.5 -11q-4 -37 -9 -73t-13 -73q-10 -4 -28.5 -6t-39.5 -2q-23 0 -48 1t-46 5z" />
<glyph unicode="&#xe5;" horiz-adv-x="1136" d="M152 385q0 172 51 317.5t135 250t194.5 164t229.5 59.5q137 0 223 -55.5t119 -172.5q16 72 23.5 125t9.5 94q2 -2 14 -2h47q39 0 59.5 3t30.5 3q-61 -211 -101 -364.5t-63 -257.5q-14 -61 -32.5 -140t-37 -157t-32.5 -145.5t-21 -106.5h-104q4 6 10 42t23 122 q-174 -186 -430 -187q-174 0 -261 109t-87 299zM285 387q0 -285 297 -285q117 0 202.5 61.5t142 157t84 210t27.5 219.5q1 292 -278 292q-121 0 -210 -52t-147.5 -141t-88 -208t-29.5 -254zM684 1401q0 94 26.5 162.5t70.5 114t101.5 66t120.5 20.5q216 -1 216 -177 q0 -66 -21.5 -128t-62.5 -111t-100.5 -80t-133.5 -31q-217 0 -217 164zM760 1419q0 -131 141 -131q104 0 171 71t67 214q-1 135 -140 135q-123 0 -181 -80t-58 -209z" />
<glyph unicode="&#xe6;" horiz-adv-x="1798" d="M158 209q0 133 45 226t116.5 151.5t162.5 85t184 26.5q125 0 191.5 -27.5t107.5 -84.5q18 59 31.5 128.5t13.5 129.5q0 43 -11.5 81t-38 65.5t-72.5 44t-116 16.5q-61 0 -104 -8.5t-77 -30t-64.5 -58t-65.5 -92.5q-35 14 -60.5 26.5t-50.5 31.5q37 61 81 108t99.5 78 t125 46t159.5 15q45 0 90 -11t83 -38.5t65.5 -75t38.5 -116.5q55 80 106 128t106.5 73.5t120 34.5t144.5 9q96 0 158.5 -32.5t98.5 -87t50 -123t14 -140.5q0 -29 -2 -63.5t-6 -67t-10 -58.5t-12 -34q-188 0 -368.5 -4t-393.5 -10q-18 -82 -26.5 -147.5t-8.5 -116.5 q0 -53 13.5 -88t45 -56.5t82.5 -30t125 -8.5q129 0 194.5 40t98.5 108q23 -10 49.5 -24.5t54.5 -49.5q-39 -51 -80.5 -88t-94 -61.5t-116 -35.5t-145.5 -11q-131 0 -216 40.5t-120 153.5q-45 -68 -99 -106.5t-113.5 -58t-125 -23.5t-135.5 -4q-78 0 -138 10t-101 35.5 t-62.5 69.5t-21.5 110zM301 287q0 -111 50 -150t175 -39q78 0 148.5 13.5t125 48.5t86.5 95t32 153q0 39 -11.5 71.5t-40 56t-79 37t-128.5 13.5q-74 0 -139 -12.5t-113.5 -45t-77 -91t-28.5 -150.5zM1143 657h166q104 0 205.5 1t226.5 6q0 16 1 39.5t1 56.5q0 82 -9.5 139 t-33 93t-65.5 52.5t-105 16.5q-166 0 -254 -98.5t-133 -305.5z" />
<glyph unicode="&#xe7;" horiz-adv-x="1060" d="M168 354q0 143 36 288.5t114.5 262.5t201.5 190.5t299 73.5q311 0 367 -213q-16 -10 -48 -22t-85 -27q-43 150 -281 150q-102 0 -188 -53.5t-148.5 -146.5t-97.5 -220t-35 -272q0 -141 74 -200t239 -59q211 1 320 148q51 -25 94 -68q-160 -209 -428 -209q-27 0 -49.5 1.5 t-44.5 3.5q0 -2 -1 -3.5t-1 -3.5q0 -41 21.5 -55t48 -27.5t48 -38t21.5 -81.5q0 -80 -21.5 -127t-56.5 -69.5t-79 -29t-89 -6.5q-49 0 -95 31t-58 84q8 10 29.5 19.5t39.5 13.5q8 -86 107 -86q61 0 109.5 34.5t48.5 131.5q0 37 -24 52t-51.5 29.5t-50 36t-22.5 74.5v14.5 t4 18.5q-141 29 -204.5 118t-63.5 242z" />
<glyph unicode="&#xe8;" horiz-adv-x="1112" d="M170 383q0 156 37 298t118 251.5t207.5 174t307.5 64.5q100 0 169.5 -28.5t111.5 -77.5t60.5 -113.5t18.5 -138.5q0 -53 -8 -108.5t-23 -110.5q-111 6 -209 8t-202 2t-210 -2t-216 -8q-12 -57 -20.5 -126t-8.5 -103q0 -141 71.5 -201t225.5 -60q125 0 212 40t122 108 q20 -10 47 -24.5t55 -49.5q-164 -197 -477 -196q-203 0 -296 107.5t-93 293.5zM362 702q137 -6 302 -6q74 0 162.5 2t217.5 9q8 45 12.5 72.5t4.5 51.5q0 117 -67.5 173.5t-196.5 56.5q-174 0 -285 -89t-150 -270zM664 1583q39 43 53 103q70 -51 140.5 -93t162.5 -77 q-18 -23 -34.5 -47.5t-28.5 -55.5q-147 111 -293 170z" />
<glyph unicode="&#xe9;" horiz-adv-x="1112" d="M170 383q0 156 37 298t118 251.5t207.5 174t307.5 64.5q100 0 169.5 -28.5t111.5 -77.5t60.5 -113.5t18.5 -138.5q0 -53 -8 -108.5t-23 -110.5q-111 6 -209 8t-202 2t-210 -2t-216 -8q-12 -57 -20.5 -126t-8.5 -103q0 -141 71.5 -201t225.5 -60q125 0 212 40t122 108 q20 -10 47 -24.5t55 -49.5q-164 -197 -477 -196q-203 0 -296 107.5t-93 293.5zM362 702q137 -6 302 -6q74 0 162.5 2t217.5 9q8 45 12.5 72.5t4.5 51.5q0 117 -67.5 173.5t-196.5 56.5q-174 0 -285 -89t-150 -270zM729 1511q68 29 119 50.5t93 41t81 39t82 44.5 q0 -29 3 -58.5t11 -52.5q-66 -23 -109.5 -40t-83.5 -35.5t-80 -40t-95 -52.5q-4 27 -7.5 48.5t-13.5 55.5z" />
<glyph unicode="&#xea;" horiz-adv-x="1112" d="M170 383q0 156 37 298t118 251.5t207.5 174t307.5 64.5q100 0 169.5 -28.5t111.5 -77.5t60.5 -113.5t18.5 -138.5q0 -53 -8 -108.5t-23 -110.5q-111 6 -209 8t-202 2t-210 -2t-216 -8q-12 -57 -20.5 -126t-8.5 -103q0 -141 71.5 -201t225.5 -60q125 0 212 40t122 108 q20 -10 47 -24.5t55 -49.5q-164 -197 -477 -196q-203 0 -296 107.5t-93 293.5zM362 702q137 -6 302 -6q74 0 162.5 2t217.5 9q8 45 12.5 72.5t4.5 51.5q0 117 -67.5 173.5t-196.5 56.5q-174 0 -285 -89t-150 -270zM614 1513q72 29 150 72t158 101q53 -57 108.5 -102.5 t110.5 -82.5q-23 -20 -37 -39.5t-37 -40.5q-51 29 -88 65t-76 97q-57 -47 -116.5 -85t-118.5 -71q-6 18 -20.5 39t-33.5 47z" />
<glyph unicode="&#xeb;" horiz-adv-x="1112" d="M170 383q0 156 37 298t118 251.5t207.5 174t307.5 64.5q100 0 169.5 -28.5t111.5 -77.5t60.5 -113.5t18.5 -138.5q0 -53 -8 -108.5t-23 -110.5q-111 6 -209 8t-202 2t-210 -2t-216 -8q-12 -57 -20.5 -126t-8.5 -103q0 -141 71.5 -201t225.5 -60q125 0 212 40t122 108 q20 -10 47 -24.5t55 -49.5q-164 -197 -477 -196q-203 0 -296 107.5t-93 293.5zM362 702q137 -6 302 -6q74 0 162.5 2t217.5 9q8 45 12.5 72.5t4.5 51.5q0 117 -67.5 173.5t-196.5 56.5q-174 0 -285 -89t-150 -270zM602 1405q4 47 10 84t14 67q35 10 64 14.5t41 4.5 q29 0 53 -10q-4 -29 -9 -62t-17 -92q-25 -4 -54.5 -5t-101.5 -1zM954 1411l29 143q27 20 69 21q23 0 46.5 -5t39.5 -11q-4 -37 -9 -73t-13 -73q-10 -4 -28.5 -6t-39.5 -2q-23 0 -48 1t-46 5z" />
<glyph unicode="&#xec;" horiz-adv-x="372" d="M94 -2q33 88 67 206t64.5 253t56 282.5t44.5 298.5q10 -2 25.5 -3t31.5 -1q29 0 57.5 2t42.5 6q-33 -111 -58 -218t-52 -238q-35 -166 -59.5 -311.5t-41.5 -276.5q-16 2 -41.5 3t-48.5 1q-27 0 -49 -1t-39 -3zM297 1583q39 43 53 103q70 -51 140.5 -93t162.5 -77 q-18 -23 -34.5 -47.5t-28.5 -55.5q-147 111 -293 170z" />
<glyph unicode="&#xed;" horiz-adv-x="372" d="M94 -2q33 88 67 206t64.5 253t56 282.5t44.5 298.5q10 -2 25.5 -3t31.5 -1q29 0 57.5 2t42.5 6q-33 -111 -58 -218t-52 -238q-35 -166 -59.5 -311.5t-41.5 -276.5q-16 2 -41.5 3t-48.5 1q-27 0 -49 -1t-39 -3zM362 1511q68 29 119 50.5t93 41t81 39t82 44.5 q0 -29 3 -58.5t11 -52.5q-66 -23 -109.5 -40t-83.5 -35.5t-80 -40t-95 -52.5q-4 27 -7.5 48.5t-13.5 55.5z" />
<glyph unicode="&#xee;" horiz-adv-x="372" d="M94 -2q33 88 67 206t64.5 253t56 282.5t44.5 298.5q10 -2 25.5 -3t31.5 -1q29 0 57.5 2t42.5 6q-33 -111 -58 -218t-52 -238q-35 -166 -59.5 -311.5t-41.5 -276.5q-16 2 -41.5 3t-48.5 1q-27 0 -49 -1t-39 -3zM243 1513q72 29 150 72t158 101q53 -57 108.5 -102.5 t110.5 -82.5q-23 -20 -37 -39.5t-37 -40.5q-51 29 -88 65t-76 97q-57 -47 -116.5 -85t-118.5 -71q-6 18 -20.5 39t-33.5 47z" />
<glyph unicode="&#xef;" horiz-adv-x="372" d="M94 -2q33 88 67 206t64.5 253t56 282.5t44.5 298.5q10 -2 25.5 -3t31.5 -1q29 0 57.5 2t42.5 6q-33 -111 -58 -218t-52 -238q-35 -166 -59.5 -311.5t-41.5 -276.5q-16 2 -41.5 3t-48.5 1q-27 0 -49 -1t-39 -3zM236 1405q4 47 10 84t14 67q35 10 64 14.5t41 4.5 q29 0 53 -10q-4 -29 -9 -62t-17 -92q-25 -4 -54.5 -5t-101.5 -1zM588 1411l29 143q27 20 69 21q23 0 46.5 -5t39.5 -11q-4 -37 -9 -73t-13 -73q-10 -4 -28.5 -6t-39.5 -2q-23 0 -48 1t-46 5z" />
<glyph unicode="&#xf0;" horiz-adv-x="1097" d="M156 264q0 51 4 108.5t20 125.5l10 43q23 111 61 186.5t98.5 121.5t147.5 66.5t210 20.5h32q37 0 83 -5t91 -25.5t84 -61.5t62 -115q20 104 31.5 185t11.5 141q0 119 -58.5 169t-207.5 50q-37 0 -81 -2t-98 -19q8 -29 13.5 -46t9.5 -29.5t7 -22.5t9 -22 q-25 -12 -48 -23.5t-52 -30.5q-2 31 -9 58.5t-30 74.5q-33 -31 -59.5 -60.5t-44.5 -57.5q-53 12 -109 59q41 57 86 106.5t98 88.5q-8 29 -12 39t-8 22l-2 2l-4 8t-2 13q27 10 50 24t50 39q2 -16 3 -26.5t3 -20.5t7 -22.5t16 -32.5q49 14 164 14q125 0 211 -14.5t138 -48 t74.5 -90t22.5 -138.5q0 -78 -17.5 -181.5t-45.5 -238.5q-45 -207 -88.5 -345t-112 -221t-177 -118t-284.5 -37h-16q-102 0 -169 20.5t-105 59.5t-53 91.5t-15 117.5zM293 330q0 -127 62.5 -174t205.5 -47q94 0 165 19t123 68.5t90 136.5t69 222l-2 6q-4 49 -23.5 93 t-55.5 78t-88.5 54.5t-121.5 20.5h-17q-82 -4 -143 -17.5t-107.5 -47t-78 -94t-54.5 -159.5l-10 -36q-8 -29 -10 -58.5t-4 -64.5z" />
<glyph unicode="&#xf1;" horiz-adv-x="1140" d="M92 0q18 45 42 125t48.5 182.5t48 217t45 227t38 217t24.5 184.5q25 8 44 10t38 2q39 0 61 -8q-8 -27 -19 -81t-20 -115q70 104 179.5 169.5t250.5 65.5q72 0 135.5 -22.5t109.5 -64.5t73 -101.5t27 -130.5q0 -39 -10.5 -103.5t-27 -144.5t-35 -168t-36.5 -173 t-32.5 -163t-20.5 -135q-47 0 -92 2t-93 6q37 82 71 196.5t60.5 232.5t42 223.5t15.5 166.5q0 133 -58.5 183.5t-193.5 50.5q-129 0 -224.5 -74t-161 -210t-104 -331.5t-57.5 -437.5q-47 -6 -86 -6q-33 0 -54.5 2t-27.5 6zM588 1536q8 18 28.5 39.5t48 41t60.5 33t63 13.5 q37 0 71 -13.5t65.5 -28.5t60 -27.5t53.5 -12.5q61 0 109 78q16 -27 33.5 -44.5t35.5 -29.5q-39 -55 -78.5 -78.5t-86.5 -23.5t-80 13t-61.5 30.5t-58.5 31t-67 13.5q-41 0 -65.5 -22.5t-55.5 -78.5q-23 23 -42 40.5t-33 25.5z" />
<glyph unicode="&#xf2;" horiz-adv-x="1155" d="M168 367q0 141 40 286.5t122 262t205.5 190.5t293.5 74q205 0 307.5 -109t102.5 -299q0 -137 -39 -277.5t-120 -254t-202.5 -186t-287.5 -72.5q-215 0 -318.5 102t-103.5 283zM305 389q0 -297 289 -297q104 0 196.5 43t160 129t106.5 212t39 292q0 301 -289 301 q-129 0 -223.5 -62.5t-156.5 -160.5t-92 -219t-30 -238zM686 1583q39 43 53 103q70 -51 140.5 -93t162.5 -77q-18 -23 -34.5 -47.5t-28.5 -55.5q-147 111 -293 170z" />
<glyph unicode="&#xf3;" horiz-adv-x="1155" d="M168 367q0 141 40 286.5t122 262t205.5 190.5t293.5 74q205 0 307.5 -109t102.5 -299q0 -137 -39 -277.5t-120 -254t-202.5 -186t-287.5 -72.5q-215 0 -318.5 102t-103.5 283zM305 389q0 -297 289 -297q104 0 196.5 43t160 129t106.5 212t39 292q0 301 -289 301 q-129 0 -223.5 -62.5t-156.5 -160.5t-92 -219t-30 -238zM749 1511q68 29 119 50.5t93 41t81 39t82 44.5q0 -29 3 -58.5t11 -52.5q-66 -23 -109.5 -40t-83.5 -35.5t-80 -40t-95 -52.5q-4 27 -7.5 48.5t-13.5 55.5z" />
<glyph unicode="&#xf4;" horiz-adv-x="1155" d="M168 367q0 141 40 286.5t122 262t205.5 190.5t293.5 74q205 0 307.5 -109t102.5 -299q0 -137 -39 -277.5t-120 -254t-202.5 -186t-287.5 -72.5q-215 0 -318.5 102t-103.5 283zM305 389q0 -297 289 -297q104 0 196.5 43t160 129t106.5 212t39 292q0 301 -289 301 q-129 0 -223.5 -62.5t-156.5 -160.5t-92 -219t-30 -238zM632 1513q72 29 150 72t158 101q53 -57 108.5 -102.5t110.5 -82.5q-23 -20 -37 -39.5t-37 -40.5q-51 29 -88 65t-76 97q-57 -47 -116.5 -85t-118.5 -71q-6 18 -20.5 39t-33.5 47z" />
<glyph unicode="&#xf5;" horiz-adv-x="1155" d="M168 367q0 141 40 286.5t122 262t205.5 190.5t293.5 74q205 0 307.5 -109t102.5 -299q0 -137 -39 -277.5t-120 -254t-202.5 -186t-287.5 -72.5q-215 0 -318.5 102t-103.5 283zM305 389q0 -297 289 -297q104 0 196.5 43t160 129t106.5 212t39 292q0 301 -289 301 q-129 0 -223.5 -62.5t-156.5 -160.5t-92 -219t-30 -238zM594 1536q8 18 28.5 39.5t48 41t60.5 33t63 13.5q37 0 71 -13.5t65.5 -28.5t60 -27.5t53.5 -12.5q61 0 109 78q16 -27 33.5 -44.5t35.5 -29.5q-39 -55 -78.5 -78.5t-86.5 -23.5t-80 13t-61.5 30.5t-58.5 31t-67 13.5 q-41 0 -65.5 -22.5t-55.5 -78.5q-23 23 -42 40.5t-33 25.5z" />
<glyph unicode="&#xf6;" horiz-adv-x="1155" d="M168 367q0 141 40 286.5t122 262t205.5 190.5t293.5 74q205 0 307.5 -109t102.5 -299q0 -137 -39 -277.5t-120 -254t-202.5 -186t-287.5 -72.5q-215 0 -318.5 102t-103.5 283zM305 389q0 -297 289 -297q104 0 196.5 43t160 129t106.5 212t39 292q0 301 -289 301 q-129 0 -223.5 -62.5t-156.5 -160.5t-92 -219t-30 -238zM623 1405q4 47 10 84t14 67q35 10 64 14.5t41 4.5q29 0 53 -10q-4 -29 -9 -62t-17 -92q-25 -4 -54.5 -5t-101.5 -1zM975 1411l29 143q27 20 69 21q23 0 46.5 -5t39.5 -11q-4 -37 -9 -73t-13 -73q-10 -4 -28.5 -6 t-39.5 -2q-23 0 -48 1t-46 5z" />
<glyph unicode="&#xf7;" horiz-adv-x="880" d="M184 784h47.5t47 -1t69.5 -2t117 -2t184.5 -3t274.5 -4h24q33 0 35 2v-137q-27 4 -56.5 7t-73.5 5t-108.5 3t-158.5 1q-106 0 -175 -2t-112 -3t-66.5 -3t-37.5 -2q0 8 1 18.5t1 22.5q0 37 -2 61.5t-11 38.5zM481 414v63q35 8 71 10t73 2q61 0 76.5 -12t15.5 -47v-53 q0 -66 -8 -96q-33 -4 -73 -8.5t-87 -4.5h-64q-2 33 -3 69t-1 77zM485 965v53q0 74 26 92t69 18q16 0 35.5 -1t41.5 -1h60q4 -35 6 -70.5t2 -76.5v-61q-33 -6 -67.5 -10.5t-73.5 -4.5q-63 0 -81 13.5t-18 48.5z" />
<glyph unicode="&#xf8;" horiz-adv-x="1155" d="M147 -98l138 170q-117 100 -117 295q0 141 40 286.5t122 262t205.5 190.5t293.5 74q127 0 220 -45q31 47 60.5 91t55.5 85q23 4 41 5t41 1q10 0 20.5 -1t20.5 -1q-41 -49 -87 -104.5t-93 -116.5q131 -104 131 -322q0 -137 -39 -277.5t-120 -254t-202.5 -186t-287.5 -72.5 q-145 0 -238 45q-25 -35 -44 -70t-36 -63q-16 8 -88 8h-37zM305 389q0 -139 62 -213q74 98 151.5 204.5t156.5 216.5t155.5 219.5t148.5 211.5q-66 41 -172 41q-129 0 -223.5 -62.5t-156.5 -160.5t-92 -219t-30 -238zM418 133q66 -41 176 -41q104 0 196.5 43t160 129 t106.5 212t39 292q0 147 -70 223q-80 -104 -161 -214.5t-159.5 -222.5t-152.5 -219.5t-135 -201.5z" />
<glyph unicode="&#xf9;" d="M170 328q0 70 12.5 138.5t30.5 138t39.5 142t40.5 150.5q4 18 13 57t20.5 83t23.5 86t23 67q12 0 32.5 -1t41 -3t38 -3t25.5 -1q-29 -92 -62.5 -191.5t-63.5 -202t-50.5 -207t-20.5 -206.5q0 -117 57.5 -186.5t204.5 -69.5q106 0 184.5 38t133.5 109.5t93 175t67 232.5 q4 23 25.5 143.5t58.5 368.5h153q-49 -172 -84.5 -324.5t-68.5 -320.5q-29 -137 -55.5 -264t-55.5 -269q-14 -2 -29.5 -2h-31.5q-23 0 -43.5 2t-40.5 6l43 174q-76 -104 -180.5 -147t-245.5 -43q-98 0 -162 27.5t-100.5 73.5t-51 105.5t-14.5 123.5zM668 1583q39 43 53 103 q70 -51 140.5 -93t162.5 -77q-18 -23 -34.5 -47.5t-28.5 -55.5q-147 111 -293 170z" />
<glyph unicode="&#xfa;" d="M170 328q0 70 12.5 138.5t30.5 138t39.5 142t40.5 150.5q4 18 13 57t20.5 83t23.5 86t23 67q12 0 32.5 -1t41 -3t38 -3t25.5 -1q-29 -92 -62.5 -191.5t-63.5 -202t-50.5 -207t-20.5 -206.5q0 -117 57.5 -186.5t204.5 -69.5q106 0 184.5 38t133.5 109.5t93 175t67 232.5 q4 23 25.5 143.5t58.5 368.5h153q-49 -172 -84.5 -324.5t-68.5 -320.5q-29 -137 -55.5 -264t-55.5 -269q-14 -2 -29.5 -2h-31.5q-23 0 -43.5 2t-40.5 6l43 174q-76 -104 -180.5 -147t-245.5 -43q-98 0 -162 27.5t-100.5 73.5t-51 105.5t-14.5 123.5zM735 1511 q68 29 119 50.5t93 41t81 39t82 44.5q0 -29 3 -58.5t11 -52.5q-66 -23 -109.5 -40t-83.5 -35.5t-80 -40t-95 -52.5q-4 27 -7.5 48.5t-13.5 55.5z" />
<glyph unicode="&#xfb;" d="M170 328q0 70 12.5 138.5t30.5 138t39.5 142t40.5 150.5q4 18 13 57t20.5 83t23.5 86t23 67q12 0 32.5 -1t41 -3t38 -3t25.5 -1q-29 -92 -62.5 -191.5t-63.5 -202t-50.5 -207t-20.5 -206.5q0 -117 57.5 -186.5t204.5 -69.5q106 0 184.5 38t133.5 109.5t93 175t67 232.5 q4 23 25.5 143.5t58.5 368.5h153q-49 -172 -84.5 -324.5t-68.5 -320.5q-29 -137 -55.5 -264t-55.5 -269q-14 -2 -29.5 -2h-31.5q-23 0 -43.5 2t-40.5 6l43 174q-76 -104 -180.5 -147t-245.5 -43q-98 0 -162 27.5t-100.5 73.5t-51 105.5t-14.5 123.5zM616 1513q72 29 150 72 t158 101q53 -57 108.5 -102.5t110.5 -82.5q-23 -20 -37 -39.5t-37 -40.5q-51 29 -88 65t-76 97q-57 -47 -116.5 -85t-118.5 -71q-6 18 -20.5 39t-33.5 47z" />
<glyph unicode="&#xfc;" d="M170 328q0 70 12.5 138.5t30.5 138t39.5 142t40.5 150.5q4 18 13 57t20.5 83t23.5 86t23 67q12 0 32.5 -1t41 -3t38 -3t25.5 -1q-29 -92 -62.5 -191.5t-63.5 -202t-50.5 -207t-20.5 -206.5q0 -117 57.5 -186.5t204.5 -69.5q106 0 184.5 38t133.5 109.5t93 175t67 232.5 q4 23 25.5 143.5t58.5 368.5h153q-49 -172 -84.5 -324.5t-68.5 -320.5q-29 -137 -55.5 -264t-55.5 -269q-14 -2 -29.5 -2h-31.5q-23 0 -43.5 2t-40.5 6l43 174q-76 -104 -180.5 -147t-245.5 -43q-98 0 -162 27.5t-100.5 73.5t-51 105.5t-14.5 123.5zM608 1405q4 47 10 84 t14 67q35 10 64 14.5t41 4.5q29 0 53 -10q-4 -29 -9 -62t-17 -92q-25 -4 -54.5 -5t-101.5 -1zM960 1411l29 143q27 20 69 21q23 0 46.5 -5t39.5 -11q-4 -37 -9 -73t-13 -73q-10 -4 -28.5 -6t-39.5 -2q-23 0 -48 1t-46 5z" />
<glyph unicode="&#xfd;" horiz-adv-x="1150" d="M109 -117q41 23 62.5 35t35.5 19.5t25.5 11.5t33.5 10q29 -80 104 -119t179 -39q74 0 144.5 34t130 98.5t105.5 159.5t72 218l9 31q-104 -117 -193.5 -169t-206.5 -52q-80 0 -153.5 11t-130 46t-91 99.5t-34.5 173.5q0 174 39 358t98 356q14 -2 43 -3t57 -1h24.5t22.5 2 q-31 -88 -58.5 -184t-47 -187.5t-30.5 -171t-11 -133.5q0 -76 19.5 -123t56.5 -73.5t90 -36.5t123 -10q109 0 196.5 42t154 146.5t112 280.5t69.5 444q14 -2 30.5 -2h33.5q57 0 92 8q-6 -35 -25.5 -112.5t-41 -162.5t-40 -161t-24.5 -109q-41 -205 -81 -373.5t-107.5 -290.5 t-178 -188.5t-293.5 -66.5q-154 0 -261 43t-154 141zM747 1511q68 29 119 50.5t93 41t81 39t82 44.5q0 -29 3 -58.5t11 -52.5q-66 -23 -109.5 -40t-83.5 -35.5t-80 -40t-95 -52.5q-4 27 -7.5 48.5t-13.5 55.5z" />
<glyph unicode="&#xfe;" horiz-adv-x="1095" d="M76 -74q47 154 94 337t89 377t78 389.5t60 373.5q2 -2 58 -2q25 0 49 1t47 3q-20 -82 -35.5 -143.5t-28 -111.5t-23.5 -95t-26 -94q63 82 118.5 127t104 65.5t90 23.5t78.5 3q156 -4 245 -83t89 -263q0 -90 -20 -193l-4 -23q-35 -152 -88.5 -251t-129 -158t-173 -84 t-218.5 -25q-25 0 -54.5 7.5t-61 34t-60 76.5t-49.5 136q-25 -76 -44 -144.5t-32.5 -124.5t-20.5 -96t-7 -59q-41 0 -72 -1t-53 -3zM362 498q0 -55 10.5 -104.5t37 -87.5t71.5 -59.5t115 -21.5q84 0 149.5 16.5t115.5 62.5t88 125t67 206q10 47 14 86t4 74q0 135 -65.5 191 t-200.5 56q-104 0 -175 -38.5t-116 -98t-68.5 -129t-33.5 -129.5v-2q-12 -78 -13 -147z" />
<glyph unicode="&#xff;" horiz-adv-x="1150" d="M109 -117q41 23 62.5 35t35.5 19.5t25.5 11.5t33.5 10q29 -80 104 -119t179 -39q74 0 144.5 34t130 98.5t105.5 159.5t72 218l9 31q-104 -117 -193.5 -169t-206.5 -52q-80 0 -153.5 11t-130 46t-91 99.5t-34.5 173.5q0 174 39 358t98 356q14 -2 43 -3t57 -1h24.5t22.5 2 q-31 -88 -58.5 -184t-47 -187.5t-30.5 -171t-11 -133.5q0 -76 19.5 -123t56.5 -73.5t90 -36.5t123 -10q109 0 196.5 42t154 146.5t112 280.5t69.5 444q14 -2 30.5 -2h33.5q57 0 92 8q-6 -35 -25.5 -112.5t-41 -162.5t-40 -161t-24.5 -109q-41 -205 -81 -373.5t-107.5 -290.5 t-178 -188.5t-293.5 -66.5q-154 0 -261 43t-154 141zM621 1405q4 47 10 84t14 67q35 10 64 14.5t41 4.5q29 0 53 -10q-4 -29 -9 -62t-17 -92q-25 -4 -54.5 -5t-101.5 -1zM973 1411l29 143q27 20 69 21q23 0 46.5 -5t39.5 -11q-4 -37 -9 -73t-13 -73q-10 -4 -28.5 -6 t-39.5 -2q-23 0 -48 1t-46 5z" />
<glyph unicode="&#x152;" horiz-adv-x="1628" d="M197 358q0 203 46 391.5t137 334t225 233.5t310 88q88 0 155 -31t114 -133q12 74 19 109.5t7 40.5q41 -4 78 -5.5t92 -1.5q125 0 234.5 6.5t232.5 26.5q-10 -61 -14 -86.5t-10 -48.5l-15 -51q-86 14 -161.5 20t-161.5 6h-160q-23 -68 -39 -126t-28.5 -115.5t-21.5 -116.5 t-17 -133h180q63 0 128.5 2t158.5 6l-15 -78q-4 -23 -8 -38t-4 -19v-2q-49 4 -90 6t-94 2h-166q-23 0 -53.5 -3t-67.5 -7q-20 -76 -35.5 -139.5t-26 -123t-19.5 -118.5t-17 -129q18 2 34.5 3t30.5 1q23 0 40 -1t26 -1q35 0 91 4t113.5 10t102.5 10.5t57 4.5q-2 -41 -9 -79 t-20 -79q-20 2 -43.5 3t-46.5 1h-192q-37 0 -77 -2t-81 -2h-24.5t-22.5 2h-145l65 180q-63 -61 -113.5 -100t-96.5 -60.5t-93 -29.5t-104 -8q-109 0 -181.5 26.5t-118.5 75.5t-65.5 118.5t-19.5 155.5zM336 365q0 -133 60.5 -186.5t205.5 -53.5q117 0 197 41t134 115.5 t89 181t63 239.5q18 92 30.5 170t12.5 146q0 59 -13 106t-44 81t-81 52.5t-124 18.5q-123 0 -221 -83t-166.5 -214t-105.5 -294t-37 -320z" />
<glyph unicode="&#x153;" horiz-adv-x="1853" d="M184 362q0 186 47.5 338t130 258.5t197.5 164t248 57.5q72 0 124 -10.5t90 -39t62.5 -80t40.5 -132.5q49 92 114 143t129.5 75.5t123.5 29.5t98 5q82 0 142.5 -24.5t99.5 -68.5t58.5 -105.5t19.5 -136.5q0 -41 -8.5 -92.5t-34.5 -133.5q-111 6 -190 7t-167 1 q-86 0 -177 -5t-189 -9q-10 -51 -19.5 -109.5t-9.5 -117.5q0 -53 10.5 -102.5t37 -87t72.5 -60.5t118 -23q119 0 182 41t92 109q43 -14 105 -76q-76 -102 -173.5 -149t-248.5 -47q-135 0 -203 60t-94 202q-57 -80 -110.5 -131.5t-108 -80t-109.5 -39.5t-117 -11 q-193 0 -288 100t-95 280zM326 352q0 -135 58 -197.5t189 -62.5q92 0 161 29t119 87t85 147t59 208q16 76 24.5 137.5t8.5 114.5q0 131 -53 192.5t-186 61.5q-131 0 -220.5 -61.5t-143.5 -162t-77.5 -229.5t-23.5 -264zM1178 702q37 0 63.5 -1t51 -3t50 -3t56.5 -1 q29 0 60.5 1t72.5 3t93 3t124 1q12 35 20.5 72t8.5 72q0 111 -52 163t-163 52q-168 0 -257 -84t-128 -275z" />
<glyph unicode="&#x178;" horiz-adv-x="1146" d="M358 1382q14 -2 35 -3t43 -1q31 0 57.5 1t41.5 5q25 -174 78 -322.5t130 -279.5q61 68 116.5 135.5t111 141.5t113 156.5t120.5 179.5q25 -4 58.5 -6.5t60.5 -2.5q16 0 30.5 2.5t28.5 2.5q-178 -195 -324.5 -370t-275.5 -359l-28 -125q-57 -205 -82 -539h-174 q70 227 106.5 382.5t52.5 272.5q-78 211 -149.5 390.5t-149.5 338.5zM660 1612q4 47 10 84t14 67q35 10 64 14.5t41 4.5q29 0 53 -10q-4 -29 -9 -62t-17 -92q-25 -4 -54.5 -5t-101.5 -1zM1012 1618l29 143q27 20 69 21q23 0 46.5 -5t39.5 -11q-4 -37 -9 -73t-13 -73 q-10 -4 -28.5 -6t-39.5 -2q-23 0 -48 1t-46 5z" />
<glyph unicode="&#x2c6;" horiz-adv-x="1021" d="M614 1513q72 29 150 72t158 101q53 -57 108.5 -102.5t110.5 -82.5q-23 -20 -37 -39.5t-37 -40.5q-51 29 -88 65t-76 97q-57 -47 -116.5 -85t-118.5 -71q-6 18 -20.5 39t-33.5 47z" />
<glyph unicode="&#x2dc;" horiz-adv-x="1021" d="M543 1536q8 18 28.5 39.5t48 41t60.5 33t63 13.5q37 0 71 -13.5t65.5 -28.5t60 -27.5t53.5 -12.5q61 0 109 78q16 -27 33.5 -44.5t35.5 -29.5q-39 -55 -78.5 -78.5t-86.5 -23.5t-80 13t-61.5 30.5t-58.5 31t-67 13.5q-41 0 -65.5 -22.5t-55.5 -78.5q-23 23 -42 40.5 t-33 25.5z" />
<glyph unicode="&#x2000;" horiz-adv-x="946" />
<glyph unicode="&#x2001;" horiz-adv-x="1893" />
<glyph unicode="&#x2002;" horiz-adv-x="946" />
<glyph unicode="&#x2003;" horiz-adv-x="1893" />
<glyph unicode="&#x2004;" horiz-adv-x="631" />
<glyph unicode="&#x2005;" horiz-adv-x="473" />
<glyph unicode="&#x2006;" horiz-adv-x="315" />
<glyph unicode="&#x2007;" horiz-adv-x="315" />
<glyph unicode="&#x2008;" horiz-adv-x="236" />
<glyph unicode="&#x2009;" horiz-adv-x="378" />
<glyph unicode="&#x200a;" horiz-adv-x="105" />
<glyph unicode="&#x2010;" horiz-adv-x="698" d="M233 643q0 14 4.5 35.5t9.5 43t9 39t4 21.5q78 -6 161 -8t208 -2h125q16 0 18 2l-29 -137h-2q-70 8 -141.5 12t-146.5 4q-57 0 -113.5 -2t-106.5 -8z" />
<glyph unicode="&#x2011;" horiz-adv-x="698" d="M233 643q0 14 4.5 35.5t9.5 43t9 39t4 21.5q78 -6 161 -8t208 -2h125q16 0 18 2l-29 -137h-2q-70 8 -141.5 12t-146.5 4q-57 0 -113.5 -2t-106.5 -8z" />
<glyph unicode="&#x2012;" horiz-adv-x="698" d="M233 643q0 14 4.5 35.5t9.5 43t9 39t4 21.5q78 -6 161 -8t208 -2h125q16 0 18 2l-29 -137h-2q-70 8 -141.5 12t-146.5 4q-57 0 -113.5 -2t-106.5 -8z" />
<glyph unicode="&#x2013;" horiz-adv-x="989" d="M233 643q0 14 4.5 35.5t9.5 43t9 39t4 23.5q35 0 117 -2t184.5 -4t211 -4t196.5 -2h114q-10 -33 -18 -64.5t-12 -70.5q-88 4 -220.5 10t-273.5 6q-104 0 -185 -2t-141 -8z" />
<glyph unicode="&#x2014;" horiz-adv-x="1443" d="M223 643q0 16 4 37.5t8.5 42t8.5 38t4 23.5q25 0 94.5 -1t166.5 -2t213 -3t232.5 -3t226 -2t195.5 -1h148q-10 -35 -18.5 -67.5t-12.5 -67.5q-49 2 -133 5t-189.5 5t-223.5 4t-234 2q-174 0 -302 -2t-188 -8z" />
<glyph unicode="&#x2018;" horiz-adv-x="425" d="M295 1133q0 92 24.5 177t65.5 150.5t96.5 104.5t114.5 39q80 0 96 -29q-4 -4 -16 -16.5t-39 -30.5q-10 16 -53 16q-59 0 -102.5 -52t-71.5 -177q45 -23 127 -23q16 0 25 1t20 1v-18q-2 -20 -8.5 -43t-10.5 -55l-8 -64q-6 -29 -27.5 -47t-89.5 -18q-86 0 -114.5 18 t-28.5 66z" />
<glyph unicode="&#x2019;" horiz-adv-x="462" d="M303 1063l55 47q10 -16 56 -16q61 0 103 50t71 179q-45 23 -127 23q-16 0 -26.5 -1.5t-20.5 -1.5q4 43 20 115q2 20 3 44t11.5 43.5t36 31.5t74.5 12q86 0 116 -19.5t30 -64.5q0 -94 -26 -179t-68 -149.5t-97 -103.5t-115 -39q-74 0 -96 29z" />
<glyph unicode="&#x201a;" horiz-adv-x="462" d="M16 -296l56 49q12 -16 57 -17q59 0 101 52.5t71 177.5q-43 23 -125 22q-18 0 -26.5 -1t-16.5 -1v14q0 44 14 103q6 23 7.5 46.5t11.5 41.5t33.5 29.5t76.5 11.5q82 0 111 -17.5t29 -64.5q0 -92 -23.5 -178t-65.5 -151.5t-97.5 -104.5t-116.5 -39q-78 0 -97 27z" />
<glyph unicode="&#x201c;" horiz-adv-x="835" d="M319 1116q0 92 24 176t66 149.5t97 104.5t119 39q74 0 96 -29l-55 -47q-10 16 -56 17q-59 0 -102 -52.5t-70 -177.5q43 -23 125 -22q16 0 25.5 1t17.5 1v-16q0 -40 -14 -99q-8 -23 -9 -46t-9.5 -42.5t-32 -32t-76.5 -12.5q-82 0 -114 20.5t-32 67.5zM686 1126 q0 92 24.5 177.5t66.5 150t97.5 103t114.5 38.5q74 0 98 -30l-57 -45q-12 14 -55 14q-59 0 -102.5 -50t-69.5 -179q23 -10 53.5 -16.5t73.5 -6.5q14 0 23.5 1t19.5 1q0 -23 -3.5 -50.5t-13.5 -64.5q-8 -23 -9 -46t-9 -41.5t-31.5 -31t-75.5 -12.5q-86 0 -115.5 20.5 t-29.5 67.5z" />
<glyph unicode="&#x201d;" horiz-adv-x="827" d="M287 1057q8 6 19 17t38 30q12 -14 55 -14q59 0 102.5 50t67.5 179q-49 23 -123 22q-16 0 -26 -1t-19 -1v13q1 34 13 102q8 23 10 46.5t11 42t33 30.5t75 12q86 0 115.5 -19.5t29.5 -66.5q0 -92 -25.5 -177t-67.5 -150.5t-97.5 -104.5t-112.5 -39q-76 0 -98 29zM651 1067 l58 47q10 -16 55 -16q59 0 102 52t70 177q-43 25 -125 25q-16 0 -25.5 -2t-19.5 -2q0 23 3 51t13 63q8 23 9.5 46.5t9.5 43t31.5 31.5t76.5 12q82 0 114 -20.5t32 -67.5q0 -25 -6.5 -53.5t-14.5 -67.5q-14 -74 -39.5 -137t-61.5 -110t-81 -74t-100 -27q-76 0 -101 29z" />
<glyph unicode="&#x201e;" horiz-adv-x="880" d="M16 -296l56 49q12 -16 57 -17q59 0 101 52.5t71 177.5q-43 23 -125 22q-18 0 -26.5 -1t-16.5 -1v14q0 44 14 103q6 23 7.5 46.5t11.5 41.5t33.5 29.5t76.5 11.5q82 0 111 -17.5t29 -64.5q0 -92 -23.5 -178t-65.5 -151.5t-97.5 -104.5t-116.5 -39q-78 0 -97 27zM436 -296 l56 49q12 -16 57 -17q59 0 101 52.5t71 177.5q-43 23 -125 22q-18 0 -26.5 -1t-16.5 -1v14q0 44 14 103q6 23 7.5 46.5t11.5 41.5t33.5 29.5t76.5 11.5q82 0 111 -17.5t29 -64.5q0 -92 -23.5 -178t-65.5 -151.5t-97.5 -104.5t-116.5 -39q-78 0 -97 27z" />
<glyph unicode="&#x2022;" horiz-adv-x="1155" d="M410 539q0 82 21.5 159.5t67.5 137t115.5 95.5t167.5 36q217 0 217 -205q0 -104 -27.5 -184t-75.5 -133.5t-114.5 -81t-146.5 -27.5q-225 0 -225 203z" />
<glyph unicode="&#x2026;" horiz-adv-x="1404" d="M92 -6q6 41 12.5 82t18.5 88l14 74q29 12 57.5 14t86.5 2h100v-49q0 -23 -2 -25l-14 -59q-10 -35 -20.5 -64.5t-16.5 -48.5l-4 -4q-35 -4 -77 -7t-91 -3h-64zM577 -6q6 41 12.5 82t18.5 88l14 74q29 12 57.5 14t86.5 2h100v-49q0 -23 -2 -25l-14 -59q-10 -35 -20.5 -64.5 t-16.5 -48.5l-4 -4q-35 -4 -77 -7t-91 -3h-64zM1071 -6q6 41 12.5 82t18.5 88l14 74q29 12 57.5 14t86.5 2h100v-49q0 -23 -2 -25l-14 -59q-10 -35 -20.5 -64.5t-16.5 -48.5l-4 -4q-35 -4 -77 -7t-91 -3h-64z" />
<glyph unicode="&#x202f;" horiz-adv-x="378" />
<glyph unicode="&#x2039;" horiz-adv-x="612" d="M197 514q6 35 10 78t10 70q72 35 122 62.5t95 58t94.5 69.5t116.5 98v-10q0 -49 9.5 -82t9.5 -35q-57 -39 -103.5 -68.5t-92.5 -56t-98.5 -53.5t-121.5 -57q102 -74 176 -139.5t149 -141.5l-34 -35q-25 -25 -36 -39t-18 -24q-43 59 -77.5 96t-67.5 67.5t-66.5 62.5 t-76.5 79z" />
<glyph unicode="&#x203a;" horiz-adv-x="612" d="M150 307q111 78 216 153t209 128q-47 33 -94 67.5t-90 67.5t-76.5 61.5t-54.5 49.5q23 25 45 55t45 61q41 -59 73 -99t64.5 -70.5t71.5 -57.5t94 -61q-14 -47 -20 -76t-17 -72q-66 -47 -114.5 -77.5t-94 -61.5t-95.5 -69t-117 -97q-4 8 -10.5 21.5t-13.5 28.5t-13 28.5 t-8 19.5z" />
<glyph unicode="&#x205f;" horiz-adv-x="473" />
<glyph unicode="&#x20ac;" horiz-adv-x="1130" d="M113 428q2 8 4 16.5t3 22.5t3 36.5t4 61.5h74q4 55 16 107.5t29 105.5l-66 -4q4 25 10.5 55.5t10.5 79.5h82q49 137 118.5 231.5t154.5 154t182.5 86t201.5 26.5q119 0 200 -39t109 -92l-102 -129q-59 123 -246 123q-178 0 -298 -96.5t-191 -264.5h544l-100 -127 q-29 4 -53.5 4h-50.5h-68h-176h-66.5t-66.5 2q-4 -2 -8.5 -22.5t-9.5 -52t-11 -71.5t-12 -81h346l-98 -121q-29 0 -68 -1t-77 -1t-68.5 -1t-38.5 -1q14 -328 286 -327q199 0 316 104l84 -96q-145 -141 -406 -142q-115 0 -195.5 35t-132 94.5t-75 137t-23.5 161.5v25h-71z " />
<glyph unicode="&#x2122;" horiz-adv-x="1548" d="M223 1270l2 16q-2 2 -2 21v32h205t127 1t68.5 1h33.5q41 0 57.5 1t30.5 6q-4 -6 -4 -18.5v-26.5v-37l-231 14q2 -33 3 -59.5t1 -55.5q0 -37 -1 -72.5t-1 -72.5v-98q0 -31 1 -59.5t2 -57.5t4 -62.5t7 -74.5h-98q12 143 12 333q0 70 -1 135.5t-3 133.5h-213zM829 664 q8 131 12.5 250.5t4.5 238.5v182h125q45 -135 107.5 -269t140.5 -271q41 78 72.5 143.5t60 130t55.5 133t57 152.5q2 -2 23 -2h47q12 0 18.5 -2t16.5 -4q-6 -98 -7 -176t-1 -144q0 -117 3 -208t17 -156q-14 0 -21.5 1t-13.5 1h-35q-14 0 -17 -1t-15 -1q2 51 2 103v105 q0 74 -1 150t-1 154q-80 -117 -138.5 -247t-99.5 -261q-14 -2 -27.5 -2h-27.5q-17 0 -25 4q-49 137 -106.5 275t-147.5 255v-283q0 -63 2 -125.5t11 -125.5h-91z" />
<glyph unicode="&#xe000;" horiz-adv-x="1177" d="M0 0v1178h1178v-1178h-1178z" />
</font>
</defs>
</svg>
