<?xml version="1.0" standalone="no"?>
<!DOCTYPE svg PUBLIC "-//W3C//DTD SVG 1.1//EN" "http://www.w3.org/Graphics/SVG/1.1/DTD/svg11.dtd" >
<svg xmlns="http://www.w3.org/2000/svg">
<metadata></metadata>
<defs>
<font id="teenbold" horiz-adv-x="1263" >
<font-face units-per-em="2048" ascent="1589" descent="-459" />
<missing-glyph horiz-adv-x="483" />
<glyph horiz-adv-x="2048" />
<glyph horiz-adv-x="2048" />
<glyph unicode="&#xd;" horiz-adv-x="1052" />
<glyph unicode=" "  horiz-adv-x="483" />
<glyph unicode="&#x09;" horiz-adv-x="483" />
<glyph unicode="&#xa0;" horiz-adv-x="483" />
<glyph unicode="!" horiz-adv-x="528" d="M72 1393q53 10 104 12t98 2h144q27 0 33 -2q-16 -98 -27.5 -204.5t-20 -208t-11.5 -193.5t-3 -162q0 -100 3 -160.5t3 -81.5q-111 -2 -175 -3t-87 -1q8 43 11 93.5t3 109.5q0 102 -12 229l-39 375zM98 139v88q2 4 2 15v41q0 29 2 30q203 12 279 13q39 0 45 -2 q4 -33 6 -77t2 -93q0 -35 -2 -72t-6 -72q-31 -2 -52.5 -4t-40 -4t-38 -3t-47.5 -1q-10 0 -19.5 1t-19.5 1h-62q-35 0 -36 2q-12 82 -13 137z" />
<glyph unicode="&#x22;" horiz-adv-x="778" d="M57 1640q53 6 108.5 8.5t100.5 2.5q25 0 45.5 -1t36.5 -1h29l-17 -99q-4 -23 -9 -59.5t-9 -81.5t-7 -95t-3 -100q0 -39 1 -76.5t3 -72.5h-51q-41 0 -85 -2t-69 -6q0 10 1 22.5t1 26.5q0 49 -5 116.5t-14.5 141.5t-24 145.5t-32.5 130.5zM414 1640q53 6 108.5 8.5 t102.5 2.5q25 0 45 -1t35 -1h30l-18 -99q-4 -27 -9.5 -68.5t-9.5 -92t-6 -106.5t-2 -109q0 -29 1 -55.5t3 -53.5h-53q-39 0 -83 -2t-71 -6q0 10 1 22.5t1 26.5q0 49 -5 116.5t-14 141.5t-23.5 145.5t-32.5 130.5z" />
<glyph unicode="#" horiz-adv-x="1097" d="M45 668q31 125 31 194v62q25 -2 76 -4t100 -2l20 104l-174 -12q18 57 26.5 106t8.5 92v58q16 -2 61.5 -4t118.5 -5q4 39 10.5 88.5t8.5 75.5q35 -8 80 -8q35 0 76.5 8.5t105.5 24.5q-20 -59 -26.5 -102.5t-22.5 -90.5h86q8 45 13 90.5t9 86.5q37 -4 54.5 -9.5t40.5 -5.5 t58.5 7.5t111.5 29.5q-16 -55 -34 -111.5t-18 -89.5q6 2 25 2h96q16 0 32.5 2t31.5 2h6q-33 -94 -38 -150t-5 -103q-51 4 -99.5 8t-95.5 6l-18 -105q55 0 106 3.5t94 3.5q-18 -78 -28 -138.5t-17 -115.5q-27 4 -77 7t-123 7q-10 -43 -14.5 -82t-8.5 -82q-2 2 -39 2h-69 q-43 0 -80 -3t-72 -7q18 49 23.5 93t21.5 87h-80q-20 -82 -20 -176q-18 0 -51 2t-103 2h-104q16 66 23 99.5t18 68.5q-41 -2 -75 -4t-81 -12zM477 913h92l21 107l4 6h-90z" />
<glyph unicode="$" horiz-adv-x="1052" d="M43 432q55 27 107.5 42t103.5 24q84 -82 115 -99l14 -6q2 6 2 33v205q0 27 2 37q-172 16 -245.5 91t-73.5 208q0 172 190 276v-2q55 29 119 43v139q0 18 -2 23h28q10 0 40 3t61 7l-10 -156q2 2 22 3h31v127q0 12 -2 16h28q12 0 41 3t60 7l-8 -166q55 0 104 -20.5t91 -52 t72 -72.5t44 -82q-49 -25 -102.5 -41t-114.5 -27q-37 59 -98 95v-259q330 -37 329 -301q-4 -61 -21.5 -112t-54 -91t-97 -71t-150.5 -51v-101q0 -25 -3 -47t-20 -22q-29 0 -108 6l8 145h-47q2 -4 2 -28v-58q0 -18 4 -26l-12 -37q-2 -2 -23 -2q-10 0 -22.5 3t-36.5 3h-43 l8 156l-33 6q-106 20 -185 78.5t-114 150.5zM297 956q0 -72 90 -100q-2 6 -2 29v182q0 23 -2 29q-86 -37 -86 -140zM489 385q0 -8 3 -16h59l6 293q-2 2 -16 2h-52v-263v-16zM489 840q2 -2 27 -2h41q-2 6 -2 30v199q0 25 -2 35v18q-2 2 -31 2l-30 -2q-2 -10 -2.5 -18 t-0.5 -17v-245zM662 420q0 -23 2 -29q12 6 29.5 14.5t32.5 23.5t25.5 39t10.5 60q0 82 -100 113v-221z" />
<glyph unicode="%" horiz-adv-x="1460" d="M66 915q0 231 80.5 329.5t259.5 98.5q344 0 344 -387q0 -86 -9 -112q88 141 160 269t121 245q76 2 143.5 4t128.5 6q-35 -68 -57.5 -112t-32.5 -60l-278 -436v2q-2 -2 -2 -4q51 27 155 26q342 0 342 -385q0 -193 -86 -299t-245 -106q-348 0 -349 364q0 61 7 115 q-82 -135 -149 -257t-110 -239q-35 16 -71.5 21.5t-73.5 5.5q-39 0 -78 -5t-78 -9l385 600q-63 -39 -159 -39q-348 0 -348 364zM266 942q0 -195 137 -194q141 0 142 190q0 211 -135 211q-47 0 -76 -13.5t-44.5 -39t-19.5 -64.5t-4 -90zM940 385q0 -197 137 -197 q143 0 144 193q0 211 -138 211q-86 0 -114.5 -46t-28.5 -161z" />
<glyph unicode="&#x26;" horiz-adv-x="1308" d="M78 371q0 82 32.5 155.5t82 137t104.5 114.5t102 90q-37 47 -70.5 118t-33.5 147q0 59 27.5 113t72.5 94t102.5 63.5t118.5 23.5h15q61 -4 114.5 -25.5t94.5 -59t64.5 -90t23.5 -119.5v-23q0 -55 -15.5 -100t-42 -82t-62.5 -68t-79 -59q43 -88 93 -174t106 -160 q33 45 61.5 106.5t59.5 141.5q117 -98 219 -123q-10 -37 -28.5 -81t-42 -89t-51.5 -86t-59 -72q18 -25 45 -57.5t57 -68.5t60.5 -70.5t57.5 -63.5h-123q-37 0 -68 3t-61 3q-16 0 -33.5 -2t-38.5 -8l-65 66q-6 4 -12.5 11t-12.5 15q-78 -61 -164 -79.5t-190 -22.5h-19 q-86 0 -166 29.5t-141 81t-98 121t-37 149.5zM338 391q0 -74 58.5 -122t140.5 -48q66 0 118 18.5t88 61.5q-66 88 -118 174t-107 174q-33 -29 -65.5 -59.5t-58 -63t-41 -66.5t-15.5 -69zM549 1114q0 -29 14.5 -56.5t32.5 -49.5q33 20 61.5 44.5t28.5 71.5v15q-2 23 -19.5 32 t-43.5 9h-5q-25 0 -46 -13.5t-23 -36.5v-16z" />
<glyph unicode="'" horiz-adv-x="425" d="M43 1640q51 6 106.5 8.5t102.5 2.5q25 0 45 -1t35 -1h30l-18 -99q-4 -27 -9 -68.5t-9 -92t-6.5 -106.5t-2.5 -109q0 -29 1 -55.5t4 -53.5h-54q-39 0 -83 -2t-68 -6q0 10 1 22.5t1 26.5q0 49 -5 116.5t-14.5 141.5t-24 145.5t-32.5 130.5z" />
<glyph unicode="(" horiz-adv-x="718" d="M57 612q0 1098 611 1205q-16 -47 -22.5 -90.5t-6.5 -79.5q0 -23 2 -49.5t8 -65.5q-346 -100 -346 -930q0 -199 20.5 -358.5t65.5 -274t113.5 -180t165.5 -76.5q-18 -55 -21.5 -85.5t-3.5 -59.5q0 -25 3 -56.5t11 -68.5q-164 12 -277.5 76.5t-185 202t-104.5 355.5 t-33 535z" />
<glyph unicode=")" horiz-adv-x="718" d="M51 1536q16 55 19.5 85.5t3.5 59.5q0 51 -13 125q168 -12 283 -80.5t185.5 -209t101.5 -361.5t31 -537q0 -551 -151 -841.5t-454 -341.5q27 92 27 168q0 25 -2 53.5t-8 60.5q340 94 340 912q0 199 -20.5 361.5t-65.5 280.5t-114 186.5t-163 78.5z" />
<glyph unicode="*" horiz-adv-x="1226" d="M20 741q43 66 73 137.5t50 170.5q238 -170 361 -209q-6 68 -16.5 180.5t-26.5 277.5q66 -12 116 -20t87 -8q16 0 42.5 1t77.5 11q-43 -293 -43 -408v-43q127 12 398 125q8 -76 22.5 -148.5t40.5 -148.5q-135 -10 -230 -21t-157 -28q29 -55 90.5 -125.5t155.5 -162.5 q-66 -45 -127.5 -98.5t-120.5 -112.5q-57 131 -107.5 223t-91.5 145q-49 -53 -106 -141t-129 -217q-90 121 -236 186l-4 27q104 86 176 158.5t119 134.5q-72 27 -172 54.5t-242 59.5z" />
<glyph unicode="+" horiz-adv-x="1187" d="M63 842q92 -6 199 -10.5t225 -6.5q0 86 -2 184.5t-6 204.5q16 0 30.5 -2t29.5 -2q98 0 194 39q-16 -188 -18 -424q113 0 215 3t200 8q-4 -35 -7 -66t-3 -61q0 -70 21 -125q-16 0 -58.5 2t-100.5 5t-128 5t-139 2q0 -117 3 -219.5t7 -196.5q-35 4 -65.5 8.5t-59.5 4.5 q-35 0 -65.5 -6.5t-61.5 -16.5q0 16 2 58t5 100.5t5 127t2 140.5q-86 0 -185 -2t-204 -6q0 16 2 29.5t2 27.5q0 98 -39 195z" />
<glyph unicode="," horiz-adv-x="589" d="M51 -201q16 25 49 56.5t78 74.5q39 -31 62 -30q37 0 52 29.5t15 74.5q0 6 -25.5 7t-45.5 1q-18 0 -32 -3t-63 -3q-8 47 -11 94t-3 97q0 67 6 139q98 18 150 18h66.5t66 -4t53.5 -15t27 -34q6 -45 12 -86t6 -111q0 -80 -16.5 -148.5t-51 -119.5t-87 -80.5t-121.5 -29.5 q-100 0 -187 73z" />
<glyph unicode="-" horiz-adv-x="776" d="M59 846q61 -4 147.5 -7t184.5 -8h156q47 0 76.5 1.5t49 1.5t32 1t24.5 1q-4 -18 -6 -46t-2 -61t4 -69.5t18 -75.5q-129 12 -210.5 16t-155.5 4t-139.5 -2t-155.5 -12v51q0 23 2 34t2 27q0 35 -6 66t-21 78z" />
<glyph unicode="." horiz-adv-x="550" d="M86 215q0 20 1 57t3 58q80 16 131 21t86 5q47 0 76 -6t66 -10q4 -55 8 -91t4 -79q0 -29 -4.5 -68t-14.5 -94q-86 -4 -152.5 -6t-117.5 -2h-38.5t-35.5 2q-8 68 -10 119t-2 94z" />
<glyph unicode="/" horiz-adv-x="911" d="M-14 -6q90 150 187 331t188.5 365t171 359.5t137.5 310.5q39 6 108 6q33 0 67.5 -1t69.5 -3q-49 -84 -108 -193.5t-124 -233.5t-128 -255t-121.5 -256t-105.5 -238.5t-78 -201.5q-37 16 -63.5 21t-49.5 5q-33 0 -64.5 -6t-86.5 -10z" />
<glyph unicode="0" horiz-adv-x="1327" d="M78 690q0 367 147.5 544t468.5 177q170 0 278.5 -50t170 -142.5t85 -222t25.5 -291.5q0 -365 -142 -541t-449 -176q-160 0 -271.5 34.5t-180.5 116.5t-100.5 216t-31.5 335zM334 668q0 -121 15.5 -203t52 -132t97 -72.5t150.5 -22.5q104 0 171 31.5t106 92t53 147.5 t14 198q0 102 -11 187t-45 145.5t-96.5 94t-166.5 33.5q-182 0 -261 -119.5t-79 -379.5z" />
<glyph unicode="1" horiz-adv-x="638" d="M-12 1030q221 190 307 404q100 -27 225 -27h27q-12 -98 -20.5 -238.5t-8.5 -306.5q0 -88 3 -193.5t8.5 -220t12.5 -233.5t17 -231q-82 27 -170 26h-18q-12 0 -42 -3t-91 -7q45 131 54 299t9 354q0 111 -4 208t-10 161q-29 -47 -51.5 -73.5t-40.5 -47.5q-41 31 -68 50.5 t-47.5 32.5t-41 23.5t-50.5 22.5z" />
<glyph unicode="2" horiz-adv-x="1323" d="M125 0q23 90 29 156.5t10 132.5v-2q4 72 10 137t24.5 121.5t52.5 102.5t93 80t149.5 53.5t219.5 23.5q82 2 130 8t72.5 22.5t30.5 48t6 87.5q0 63 -11 102t-40 60.5t-79 28.5t-128 7q-115 0 -181.5 -34.5t-70.5 -124.5q-211 49 -270 77q8 92 56 155t120 99.5t159 53 t171 16.5q113 0 210 -16.5t168.5 -63.5t112.5 -131t41 -219q0 -127 -33.5 -205t-89 -122t-127 -62.5t-145.5 -27.5t-145.5 -15t-127 -26.5t-89 -61.5t-33.5 -119q0 -20 3 -41.5t5 -67.5q119 16 210 19.5t163 3.5h147q92 0 162 6t121 27q4 -25 4 -50.5v-52.5v-73v-117 q-211 8 -402.5 11t-332.5 3q-102 0 -206 -3t-169 -7z" />
<glyph unicode="3" horiz-adv-x="1157" d="M66 1102q16 100 64 161.5t115.5 94.5t148.5 43t161 10q115 0 209 -20.5t160.5 -68.5t103.5 -126t37 -195q0 -92 -35 -168.5t-127 -121.5q100 -39 140 -111t40 -170q0 -137 -32.5 -225t-98 -140.5t-165 -73t-230.5 -20.5q-72 0 -150.5 8.5t-149.5 40t-123 95t-66 176.5 q61 27 117.5 44t125.5 32q23 -92 89.5 -124t172.5 -32q76 0 126.5 8t78 30.5t38.5 65.5t11 115q0 51 -30.5 83t-77.5 50.5t-103.5 24.5t-107.5 6q-16 0 -54 -6t-96 -21l4 279q33 -6 56.5 -10.5t45 -6.5t43 -3t50.5 -1q117 0 183.5 36t66.5 118q0 61 -16.5 98t-48 57.5 t-76.5 27.5t-103 7q-55 0 -98 -5t-74 -21.5t-51.5 -47t-28.5 -81.5q-70 16 -132 37.5t-113 50.5z" />
<glyph unicode="4" horiz-adv-x="1202" d="M33 438v80q86 84 184 203t196.5 245t188.5 247.5t162 213.5q51 -16 97 -20t97 -4h21.5t21.5 4q-4 -59 -8 -109.5t-8 -95.5t-6 -88t-2 -92v-133q0 -12 -2 -21.5t-2 -25.5v-330q27 0 61.5 6t65.5 10q10 -31 18 -82t8 -118q0 -20 -1 -41t-3 -43q-12 0 -45 1t-88 3 q0 -63 12.5 -125t22.5 -141q-131 29 -174 28q-37 0 -148 -12q16 80 22.5 139.5t12.5 116.5q-129 4 -237.5 6t-202.5 2q-66 0 -136.5 -1t-115.5 -3q-8 29 -10 74t-2 106zM322 514q98 -8 170.5 -9t132.5 -1h125l2 244q-4 92 -5.5 163.5t-3.5 126.5q-53 -74 -100 -137 t-95 -124.5t-102.5 -125t-123.5 -137.5z" />
<glyph unicode="5" horiz-adv-x="1200" d="M80 297q68 35 134.5 59.5t133.5 34.5q4 -55 25.5 -89t54.5 -53.5t74 -25.5t86 -6q80 0 133 6t87 29.5t48 66.5t14 117q0 115 -49 160t-176 45q-133 0 -247.5 -10t-241.5 -45q0 162 -5.5 356.5t-21.5 446.5l967 6q-8 -37 -16.5 -99.5t-8.5 -113.5q0 -39 6 -60 q-154 16 -283.5 23.5t-258.5 7.5q-20 0 -40 -1t-40 -1q-14 0 -31.5 1t-34.5 3q2 -4 2 -20v-58q0 -27 -1 -51.5t-1 -48.5q0 -47 6 -111q117 18 244 19q141 0 235.5 -28t151.5 -83t80.5 -139t23.5 -197q0 -152 -27.5 -242t-93 -137t-174 -60t-270.5 -13q-84 0 -161.5 9 t-143 41t-113 94.5t-67.5 166.5z" />
<glyph unicode="6" horiz-adv-x="1236" d="M74 702q0 209 17.5 346.5t79.5 218.5t182 113.5t325 32.5q174 0 283.5 -68.5t181.5 -228.5q-53 -39 -109.5 -65.5t-118.5 -36.5q-25 59 -59.5 92t-75.5 47t-86 16t-88 2q-84 0 -138 -18t-87 -58t-46 -104.5t-16 -156.5q25 53 64 82.5t83 44t87 17.5t78 3h35 q131 0 224 -16.5t153.5 -65.5t89 -139t28.5 -240q-4 -115 -19.5 -213t-66.5 -171t-146 -113.5t-259 -40.5h-19q-197 2 -311.5 36.5t-174 117.5t-75.5 220.5t-16 345.5zM334 563q0 -104 16.5 -170.5t52 -103.5t92 -51.5t136.5 -14.5q72 0 124 10.5t85.5 41t50 88t16.5 151.5 q-4 74 -19.5 118t-47 67.5t-80.5 32.5t-119 13h-16q-125 0 -195 -55t-96 -127z" />
<glyph unicode="7" horiz-adv-x="1155" d="M53 1401q135 -4 281.5 -7t269.5 -3t252 4t246 10q8 -47 9 -80t1 -80q0 -16 -1 -36.5t-1 -43.5q-57 -70 -113.5 -161t-112 -194t-106.5 -213t-96 -215.5t-84 -199.5t-68 -166l-30 -16q-27 2 -57.5 3t-63.5 1q-39 0 -90 -3t-131 -13q141 223 303 523t327 663l-106 -11 q-135 0 -280.5 -8t-325.5 -25v74q0 31 -6.5 80t-16.5 117z" />
<glyph unicode="8" horiz-adv-x="1196" d="M72 406v22q0 98 39 169t133 114q-82 43 -118 118.5t-36 167.5q0 123 36 203t100.5 127t155.5 65.5t204 18.5t208 -20.5t162.5 -68.5t105.5 -126t38 -195q0 -92 -34 -168.5t-120 -119.5q92 -41 133 -112t41 -169q0 -137 -32.5 -226t-98 -141.5t-164 -73t-229.5 -20.5 q-115 0 -210 23.5t-165.5 76t-109.5 135.5t-39 200zM328 426q2 -45 8 -84t30.5 -68.5t75 -46t142.5 -16.5h22q76 2 126 11t79 31.5t40 65.5t11 113q0 45 -23.5 75t-60.5 47t-84 25.5t-94 12.5q-57 -2 -106.5 -9.5t-86 -23.5t-58 -45t-21.5 -72v-16zM348 983 q0 -31 10.5 -58.5t37 -49t71.5 -35t117 -15.5h22q111 0 174.5 36t63.5 118q0 61 -16.5 98t-47 57.5t-76 27.5t-102.5 7q-78 0 -128 -11t-77.5 -34.5t-38 -58.5t-10.5 -82z" />
<glyph unicode="9" horiz-adv-x="1290" d="M104 829v39q4 115 20.5 213.5t67 171t146.5 113.5t260 41h16q197 -2 312.5 -37t174 -118t75 -220t16.5 -346t-17.5 -346t-79 -218t-181 -114t-324.5 -33q-154 0 -273.5 74t-183.5 203q55 43 110.5 65.5t114.5 36.5q31 -43 71 -69.5t82 -42t81 -20.5t70 -5q72 0 122 12.5 t83.5 48t54 98t32.5 161.5q-47 -51 -87 -78t-77.5 -38t-75.5 -12t-79 -1h-33q-141 0 -237.5 22.5t-153.5 71.5t-82 130t-25 197zM360 874q0 -70 16.5 -113.5t49.5 -69t83 -36t116 -12.5h24q119 0 186.5 53.5t96.5 122.5q0 104 -16.5 172t-52.5 106t-92 53t-136 15 q-143 0 -209 -54t-66 -200v-37z" />
<glyph unicode=":" horiz-adv-x="557" d="M86 205q0 31 1 67.5t3 57.5q80 16 131 21t86 5q47 0 76 -6t66 -10q4 -57 8 -93t4 -79q0 -53 -12 -166q-106 0 -179 -2t-129 -2h-21t-22 4q-8 68 -10 119t-2 84zM90 864q0 31 4.5 71t14.5 101q16 -2 29.5 -3t27.5 -1h29q29 0 52 2t60 2h109q37 0 39 -2q8 -68 10 -119 t2 -81q0 -33 -1 -69t-3 -58q-127 -25 -207 -25q-96 0 -152 14q-4 57 -9 92t-5 76z" />
<glyph unicode=";" horiz-adv-x="569" d="M27 -201q33 45 129 131q37 -31 65 -30q29 0 46.5 28.5t17.5 75.5q0 6 -31 6q-23 0 -58.5 -2t-76.5 -2q-12 68 -16.5 110t-4.5 72q0 39 3.5 73t7.5 87q98 6 163 6h101q25 0 35 2q55 0 68 -24.5t13 -59.5v-168q0 -80 -16 -148.5t-50 -119.5t-86 -80.5t-122 -29.5 q-100 0 -188 73zM109 868q0 41 3 82t11 80q78 4 141.5 6t114.5 2q27 0 49.5 -1t40.5 -3q8 -68 10 -119t2 -81q0 -33 -1 -69t-3 -58q-127 -25 -205 -25q-100 0 -151 14q-4 33 -8 77t-4 95z" />
<glyph unicode="&#x3c;" horiz-adv-x="1103" d="M18 739q270 63 512 166t484 244q-16 -90 -19.5 -138t-3.5 -85q0 -18 1 -42t9 -79q-180 -35 -333.5 -93.5t-294.5 -115.5q154 -59 311.5 -109.5t337.5 -87.5q-14 -57 -16 -93t-2 -68q0 -29 1 -61t11 -103q-102 55 -234.5 118.5t-269.5 122t-266 103.5t-226 63z" />
<glyph unicode="=" horiz-adv-x="829" d="M70 958q61 -4 148 -7t181 -7h228q47 0 67.5 2t40.5 2q-2 -16 -5 -49t-3 -74t6 -80q-141 4 -236.5 9.5t-179.5 5.5q-55 0 -109 -3t-116 -12q-2 55 -7 106.5t-15 106.5zM76 662q35 0 81 -5.5t97 -5.5h80h16t12 -2h322h27.5t29.5 2q-2 -2 -2 -63v-109v-21.5t-2 -21.5 q-113 4 -193.5 8.5t-164.5 4.5q-61 0 -125 -2.5t-156 -12.5q0 8 -1 35t-4 59.5t-7 68.5t-10 65z" />
<glyph unicode="&#x3e;" horiz-adv-x="1101" d="M80 821q14 57 16 93t2 69q0 25 -1 57.5t-11 108.5q100 -57 233.5 -120.5t271.5 -122t268 -103.5t224 -64q-4 -45 -7 -87t-3 -83q0 -23 1 -45t3 -45q-266 -61 -506.5 -164.5t-482.5 -242.5q16 96 19.5 144t3.5 79q0 16 -1 38.5t-10 78.5q166 31 325 91t325 115 q-166 61 -328 112.5t-342 90.5z" />
<glyph unicode="?" horiz-adv-x="1116" d="M41 1090q16 92 66.5 152.5t119 97t146.5 52t149 15.5q119 0 218.5 -15.5t171 -58.5t111.5 -119.5t42 -199.5v-17q0 -133 -34 -211.5t-84 -121.5t-109.5 -60.5t-109.5 -30t-84 -30t-34 -58.5q0 -35 1 -51t1 -22q-29 2 -54.5 3t-53.5 1q-43 0 -87 -2t-89 -6q2 18 3 32.5 t1 24.5v14q0 92 34.5 145.5t88 87t114 53t113.5 43t88 59.5t35 100v22q-6 109 -63.5 150t-178.5 41h-26q-98 0 -163 -40t-87 -139q-55 8 -82 18.5t-46.5 22t-44 23.5t-73.5 25zM313 139v88q2 4 2 15v41q0 29 2 30q61 12 106.5 18.5t82.5 6.5q33 0 66.5 -3t66.5 -11 q6 -55 9 -88t3 -70v-55q0 -38 6 -99q-41 -4 -70.5 -7t-51 -4t-39 -2t-35.5 -1q-37 0 -74 1t-61 3q-12 82 -13 137z" />
<glyph unicode="@" horiz-adv-x="1540" d="M76 694q0 717 735 717q168 0 292 -39t207 -124t124 -218t41 -319q0 -59 -15.5 -140.5t-50.5 -156t-89 -126.5t-132 -52h-12q-59 4 -105.5 22t-79.5 84q-49 -55 -110.5 -78.5t-147.5 -23.5q-166 0 -262 120.5t-96 344.5q0 104 27.5 188t75.5 141.5t114.5 88t146.5 30.5 q133 -6 217 -145l5 139q45 -14 145 -14q-4 -47 -4 -91.5v-85.5q0 -184 8 -294.5t21.5 -169t29 -76t31.5 -17.5h8q31 2 50.5 38t30.5 85t15 100.5t4 86.5q0 150 -27.5 250t-88 161.5t-157.5 88t-236 26.5q-129 0 -229.5 -28.5t-169 -91t-104.5 -163t-36 -241.5l-2 -58 q0 -135 32.5 -230t97 -153.5t160 -85t222.5 -26.5q117 0 246 41q14 -31 35.5 -67t56.5 -85q-88 -31 -168 -41t-162 -10q-182 0 -313 36t-216 117.5t-125 215t-40 329.5zM559 682q0 -250 199 -250q174 0 174 246v8q-2 141 -44.5 205.5t-142.5 64.5q-109 0 -147.5 -64.5 t-38.5 -209.5z" />
<glyph unicode="A" d="M-12 2q96 240 176 440.5t143.5 371.5t110.5 314.5t78 266.5q43 -5 95 -5q19 0 37 1h19q63 0 113 -11q102 -340 227 -677.5t277 -702.5q-12 0 -35 1t-48.5 3t-50 3t-40.5 1q-43 0 -81 -3t-71 -3q-27 117 -53.5 203t-57.5 164q-47 4 -89 7t-103 3q-41 0 -98.5 -3t-137.5 -9 q-43 -117 -66.5 -204t-35.5 -165q-51 6 -96 8t-74 2q-31 0 -66.5 -3t-72.5 -3zM471 598h293q-31 119 -66.5 230.5t-79.5 218.5q-25 -78 -46 -139.5t-39.5 -115t-34 -100.5t-27.5 -94z" />
<glyph unicode="B" horiz-adv-x="1265" d="M84 1368q129 16 241.5 22.5t223.5 6.5q176 0 297 -19v-2q57 -10 110.5 -40.5t93.5 -78t63.5 -107.5t23.5 -128q0 -152 -117 -281q172 -129 172 -327q0 -129 -102 -281v6q-43 -53 -101.5 -81.5t-136.5 -44t-176 -18.5t-221 -3q-117 0 -207 4t-158 12q6 94 11 177t9.5 166 t6.5 168t2 183q0 186 -9.5 349t-25.5 317zM352 612l6 -61v-59q0 -76 4.5 -138.5t9.5 -126.5q53 -2 96.5 -3t86.5 -1q59 0 122.5 4t116 20.5t85 51.5t32.5 94q0 74 -20.5 117t-58 65.5t-92 29.5t-124.5 7h-264zM352 1151q2 -31 3 -54.5t1 -45.5q0 -31 -1 -56.5t-1 -52.5 l2 -123l275 12q47 2 90 11.5t74.5 30t51 52t19.5 79.5q0 43 -16 71.5t-46 44t-69 21.5t-84 6h-139q-43 0 -83 1t-77 3z" />
<glyph unicode="C" horiz-adv-x="1269" d="M74 702q0 176 32.5 309.5t106.5 222.5t195.5 134t300.5 45q90 0 162.5 -15.5t132 -52t107.5 -96t91 -147.5q-55 -41 -110.5 -64.5t-114.5 -36.5q-43 90 -109.5 122t-169.5 32q-104 0 -174.5 -27.5t-114.5 -82t-62.5 -134.5t-18.5 -186q0 -258 83 -376t253 -118 q117 0 190.5 37t120.5 123q68 -18 121 -35.5t125 -48.5q-147 -325 -535 -325h-2q-172 0 -290 49t-188.5 141t-101 226t-30.5 304z" />
<glyph unicode="D" horiz-adv-x="1339" d="M82 1395q68 4 141.5 5t141.5 1h84q92 0 169.5 -2t145.5 -6q139 -8 235.5 -73t155.5 -165t85 -227t26 -260q0 -213 -49.5 -345.5t-145.5 -205t-241.5 -98t-337.5 -25.5q-88 0 -177.5 4t-216.5 10q8 117 13.5 228.5t5.5 234.5q0 274 -8.5 499.5t-26.5 424.5zM352 1153 q2 -61 3 -118.5t1 -112.5v-203q0 -135 2 -253t10 -235h191q55 0 103.5 2.5t91.5 8.5v2q84 14 134 49t76.5 89t35 129t8.5 169q0 84 -12.5 164t-43 143.5t-83 105.5t-132.5 52q-49 6 -97 8t-97 2q-37 0 -72 -1t-78 -1h-41z" />
<glyph unicode="E" horiz-adv-x="1103" d="M84 1397q147 -4 279.5 -6t254.5 -2q246 0 381 12q14 -59 15 -160q0 -23 -3 -45t-3 -74q-172 18 -298 24.5t-235 6.5q-18 0 -35.5 -1t-36.5 -1q-14 0 -26 1t-27 3q-2 -61 -5 -107.5t-3 -82.5v-107q0 -27 2 -31l53 4q111 0 260.5 2.5t323.5 6.5v-33q0 -18 -3 -40t-3 -40 q0 -57 12 -152q-92 8 -203.5 13.5t-210.5 5.5q-35 0 -72.5 -1t-78.5 -1q-18 0 -37.5 1t-42.5 1v-143q0 -59 3 -110.5t5 -104.5q96 2 195.5 7t187.5 11t160 10t115 4q18 -84 18 -151q0 -25 -3 -47.5t-3 -71.5q-49 4 -110.5 6t-161.5 2h-150q-43 0 -81 -1t-68 -1 q-33 0 -57.5 1t-43.5 1q-41 0 -99 -1t-140 -3q6 123 8 248t2 272q0 186 -11.5 414.5t-23.5 460.5z" />
<glyph unicode="F" horiz-adv-x="997" d="M80 0q23 201 27 378t4 363q0 199 -6.5 365t-20.5 301q86 -4 187.5 -9t205.5 -5t230.5 6t248.5 14q8 -33 10.5 -60.5t2.5 -52.5q0 -41 -5.5 -89t-9.5 -78q-80 12 -174 17t-229 5h-105q-51 0 -53 -2h-28q-27 0 -29 -2q-4 -104 -5 -158.5t-1 -87.5t1 -49t5 -35h172 q240 0 434 25q-2 -25 -4 -69t-2 -68q0 -12 1 -29.5t2 -37t2 -38t1 -31.5q-82 10 -185.5 12.5t-250.5 2.5h-162l-2 -158v-29q0 -67 7 -153q9 -104 20 -246q-6 2 -29 2h-117q-18 0 -54 -1t-89 -3z" />
<glyph unicode="G" horiz-adv-x="1296" d="M74 672q0 193 35.5 332t111.5 230t195 134t286 43h2q373 0 504 -321q-84 -35 -139 -52.5t-111 -29.5q-35 72 -107.5 114.5t-160.5 42.5q-197 0 -282.5 -117.5t-85.5 -371.5v-10q4 -446 370 -447q76 0 130.5 12.5t88 46t49 90t15.5 146.5q-4 2 -27 2h-119q-49 0 -105 -1 t-114 -1q0 31 3 61.5t3 55.5v22q0 10 -1 14.5t-1 8.5t-1 10t-1 23v59q74 -4 161 -9t149 -5q63 0 129.5 3t144.5 11q14 -80 20.5 -152.5t6.5 -126.5q0 -507 -535 -507h-2q-612 0 -612 690z" />
<glyph unicode="H" horiz-adv-x="1331" d="M82 6q20 154 28.5 322t8.5 372q0 172 -7.5 356.5t-19.5 338.5h125q51 0 162 12q-10 -84 -16.5 -151.5t-10.5 -125t-6 -106.5t-2 -98q0 -23 2 -44.5t2 -41.5q162 -12 316 -13q150 0 313 13v129q0 63 -1 114.5t-4 98.5t-8.5 94t-13.5 104q49 12 92 16.5t78 4.5 q68 0 119 -10q-10 -154 -16 -329t-6 -398q0 -199 6 -363t20 -311q-45 10 -60.5 12t-25.5 2q-31 0 -99.5 -3t-129.5 -7q23 129 36 244.5t13 232.5q0 33 -1 58.5t-3 52.5q-68 18 -219 18q-152 0 -242 -5t-160 -9q0 -66 5 -162t10.5 -186.5t10.5 -158t5 -73.5q-35 0 -73 -3 t-70 -3q-37 0 -78 3t-80 3z" />
<glyph unicode="I" horiz-adv-x="456" d="M68 -2q23 141 34 293.5t11 339.5q0 186 -7.5 375.5t-27.5 382.5q61 12 100 12h160q20 0 24 -2q-14 -166 -21 -325t-7 -339q0 -211 14 -393t39 -356q-134 24 -171 24h-3q-35 0 -145 -12z" />
<glyph unicode="J" horiz-adv-x="1007" d="M10 295l256 94q23 -86 77 -123t120 -37q74 0 117 25t64.5 66.5t26.5 97t5 119.5v129q0 160 -9.5 353t-25.5 386q14 0 33.5 -1t41 -2t41 -2t31.5 -1q31 0 66 3t70 3q-2 -43 -4 -128t-3.5 -207t-2.5 -274.5t-1 -330.5q0 -471 -460 -471q-154 0 -270.5 67.5t-172.5 233.5z " />
<glyph unicode="K" horiz-adv-x="1224" d="M84 1386h55q29 0 39 1.5t27 1.5q57 0 101 -4.5t73 -8.5q-14 -152 -21.5 -275.5t-15.5 -254.5q129 121 243.5 250t221.5 295q35 -4 76 -6.5t82 -2.5q66 0 130 4.5t115 12.5q-111 -123 -285.5 -290t-404.5 -396q70 -76 144.5 -150t157.5 -156.5t176.5 -181t197.5 -223.5 q-84 -6 -137 -6q-16 0 -29.5 1t-23.5 1l-160 6q-63 70 -130 145.5t-131.5 149.5t-126 141.5t-114.5 122.5l6 -96q0 -98 5.5 -207.5t21.5 -257.5q-29 2 -46.5 3t-23.5 1h-4q0 -2 -12 -2q-10 0 -25.5 1t-36.5 1q-80 0 -141 -6q16 160 23.5 313.5t7.5 325.5q0 199 -8.5 377 t-26.5 370z" />
<glyph unicode="L" horiz-adv-x="1005" d="M82 1401q16 -2 31.5 -3t25.5 -1h111q33 0 63.5 2t61.5 6q-18 -186 -25.5 -349t-7.5 -329q0 -123 2 -244t14 -237h105q98 0 222 8t290 27q0 -33 3 -73t3 -69q0 -43 -5 -81t-18 -70q-111 8 -252 13t-294 5h-316q10 154 13.5 296t3.5 278q0 205 -8.5 416.5t-22.5 404.5z" />
<glyph unicode="M" horiz-adv-x="1687" d="M82 0q16 258 28.5 513t12.5 491q0 98 -1 204.5t-5 198.5q25 0 41 -2t26 -2l250 4q39 -123 85 -245t98.5 -245.5t113 -252.5t129.5 -267q57 113 110.5 228.5t102.5 239.5t96.5 258t94.5 284q41 0 75.5 7t92.5 7q27 0 62.5 -3t80.5 -11q-6 -193 -9 -358.5t-3 -288.5 q0 -217 9 -405.5t32 -354.5h-50q-16 0 -32.5 1t-34.5 1h-64q-23 0 -57.5 -1t-56.5 -1q8 199 12 368t4 285v242q0 25 -2 35q-127 -258 -217 -476t-154 -434q-33 -16 -57.5 -19t-42.5 -3q-25 0 -52.5 4t-60.5 16l-18 17q-31 102 -76 221t-97 240.5t-106.5 240.5t-103.5 224 q-2 -80 -4 -151t-2 -151q0 -174 8 -337.5t27 -323.5q-10 0 -30 1t-40.5 3t-40.5 3t-33 1q-25 0 -55.5 -3t-54.5 -3h-31z" />
<glyph unicode="N" horiz-adv-x="1382" d="M84 1393q14 0 45 -1t72 -1q39 0 83 2t89 8l16 -8q45 -84 106.5 -187.5t141.5 -229.5t179 -275.5t222 -327.5q4 8 4 22v15v309q0 205 -7 366.5t-25 303.5q43 16 76.5 23t72.5 7q80 0 133 -35q-10 -211 -17 -416.5t-7 -404.5q0 -147 6 -287.5t14 -257.5q-61 -8 -105 -11 t-79 -3q-29 0 -68 2t-86 8q-49 111 -116.5 235t-146.5 253t-165 261t-172 259q-10 -92 -12 -178t-2 -174q0 -160 4 -335t20 -341q-63 10 -131.5 12t-140.5 6q10 186 14 379t4 379q0 180 -5 333.5t-17 289.5z" />
<glyph unicode="O" horiz-adv-x="1345" d="M76 690q0 721 626 721q168 0 278 -50t173.5 -142.5t89 -222t27.5 -291.5q0 -717 -600 -717q-178 0 -293 43t-181.5 131t-93 219t-26.5 309zM324 668q0 -121 17 -202t57 -131t104.5 -71.5t156.5 -21.5q104 0 174 31.5t110 91t56.5 145.5t16.5 197q0 100 -13.5 185 t-50.5 146.5t-101.5 96t-168.5 34.5q-182 0 -270 -120.5t-88 -380.5z" />
<glyph unicode="P" horiz-adv-x="1173" d="M82 8q14 92 21.5 216t7.5 284q0 102 -6.5 310t-18.5 558q113 6 208 11.5t214 5.5q160 0 279.5 -16.5t198.5 -62.5t118 -130t39 -219q0 -131 -40 -218.5t-120 -139.5t-199.5 -74.5t-277.5 -22.5h-80q-20 0 -38.5 1t-37.5 3q-6 -55 -7 -101t-1 -89q0 -76 11.5 -150 t29.5 -149q-55 -12 -99 -19.5t-75 -7.5q-29 0 -58.5 2t-68.5 8zM348 899q0 -37 1 -70.5t3 -83.5q2 -2 41 -2h92q90 0 162 7.5t123 31t77.5 67.5t26.5 118q0 70 -29.5 110.5t-79.5 61t-118.5 25.5t-146.5 5h-119q-12 0 -19.5 -32.5t-10.5 -76.5t-3 -90v-71z" />
<glyph unicode="Q" horiz-adv-x="1347" d="M61 707q0 178 30 309t100.5 219t189.5 131t297 43q577 0 577 -715q0 -346 -149 -532q53 -66 100 -115t101 -90q-78 -35 -143.5 -73t-125.5 -79l-22 11q-23 51 -48.5 102t-54.5 107q-84 -39 -247 -39q-156 0 -269.5 41t-188.5 128t-111 224t-36 328zM301 696 q0 -102 15.5 -188t54.5 -149.5t106.5 -99.5t169.5 -36q94 0 135 15q-74 104 -143.5 183t-140.5 136q76 49 130 87t122 58q37 -80 85 -157.5t107 -165.5q63 113 64 311q0 106 -14.5 193.5t-53.5 149t-105.5 94t-170.5 32.5t-173 -27.5t-110 -82t-58.5 -134t-19.5 -186.5v-33z " />
<glyph unicode="R" horiz-adv-x="1286" d="M86 -2q10 217 16.5 425t6.5 382q0 147 -5.5 291.5t-13.5 261.5q166 18 280.5 24.5t190.5 6.5q143 0 252 -20.5t181.5 -69t109.5 -125t37 -187.5q0 -121 -29 -204t-89 -135t-152.5 -75.5t-219.5 -23.5q12 -10 26.5 -22.5t39 -34t65.5 -57.5t107.5 -95t163 -145t233.5 -209 q-244 18 -276 18q-31 0 -64 -2t-69 -10q-74 94 -143.5 173t-136.5 145.5t-130.5 125t-124.5 111.5q2 -135 2 -270.5t21 -276.5q-31 0 -70 3t-72 3q-14 0 -33.5 -1l-39 -2t-37 -3t-27.5 -2zM342 756h145q104 0 179 9t121.5 29.5t68 55.5t21.5 86q0 70 -20.5 112t-61.5 65.5 t-101.5 30.5t-140.5 7q-47 0 -96 -4t-105 -8q-6 -68 -8 -127.5t-2 -116.5v-139z" />
<glyph unicode="S" horiz-adv-x="1200" d="M59 297q61 33 125.5 57.5t132.5 38.5q23 -55 53.5 -90t65.5 -54.5t73 -25.5t77 -6q282 0 282 204q0 173 -303 173q-256 0 -366.5 96t-110.5 291q0 221 215 354v-2q133 78 313 78q86 0 165 -18.5t144.5 -56.5t113.5 -96t71 -136q-115 -59 -244 -86q-80 162 -266 162 q-256 0 -256 -209q0 -154 285 -154q499 0 499 -389q0 -106 -39.5 -188t-113.5 -138.5t-178.5 -86t-233.5 -29.5q-86 0 -166 19.5t-146.5 57t-116.5 96t-75 138.5z" />
<glyph unicode="T" horiz-adv-x="1171" d="M27 1141q18 49 22 76.5t4 46.5q0 23 -2 39t-2 36v64q117 -4 243 -6t243 -2q141 0 295.5 3t302.5 9q-6 -57 -8.5 -105.5t-2.5 -74.5q0 -10 1 -22.5t1 -24.5v-41q-86 10 -157.5 15t-132.5 5q-63 0 -127 -6q-6 -80 -9.5 -191.5t-3.5 -234.5q0 -205 9 -379t32 -340 q-98 -4 -168.5 -8t-128.5 -8q10 141 18.5 323.5t8.5 374.5q0 135 -3 253t-9 210q-25 2 -47.5 3t-49.5 1q-29 0 -67.5 -2t-83.5 -4t-91 -5t-87 -5z" />
<glyph unicode="U" horiz-adv-x="1284" d="M90 782v126t1 149t3 162t6 163q43 8 76 10.5t64 2.5q63 0 155 -19q-57 -336 -57 -671q0 -117 4 -204t31.5 -143.5t86 -84t169.5 -27.5q98 0 159.5 23.5t97.5 65.5t48 98t12 124v205q0 178 -11 327.5t-34 278.5q47 10 83 16.5t63 6.5q29 0 58.5 -2.5t84.5 -6.5 q6 -72 7 -140t1 -165v-135q0 -141 -2 -267t-16.5 -231.5t-48 -189.5t-97 -143.5t-165 -90t-248.5 -30.5q-190 0 -298 57t-159 160.5t-62.5 250t-11.5 324.5z" />
<glyph unicode="V" horiz-adv-x="1273" d="M-14 1417q74 -10 125 -16t79 -6q25 0 54.5 2t68.5 8q25 -117 64 -253t83 -274.5t92 -269.5t91 -235q41 106 86 237t88 269.5t81 277.5t63 264q57 -14 94 -16t69 -2h21.5t29 1t43 3t64.5 8q-74 -156 -149.5 -340t-146.5 -373.5t-130 -369.5t-100 -328q-29 2 -54.5 3 t-54.5 1q-71 0 -141 -6q-90 272 -216 621.5t-304 793.5z" />
<glyph unicode="W" horiz-adv-x="2009" d="M-27 1378q68 8 114 11.5t73 3.5q33 0 61.5 -2t63.5 -9q47 -221 80.5 -368.5t64.5 -255t61.5 -194.5t69.5 -187q68 215 136.5 458.5t140.5 557.5q16 -2 29.5 -3t23.5 -1h104q25 0 55.5 2t65.5 6q70 -266 144.5 -506t162.5 -481q41 117 76 232.5t65.5 236t59.5 246.5 t55 264q43 10 79 13t71 3q86 0 160 -27q-121 -260 -230.5 -597t-218.5 -777q-111 0 -182.5 2t-112.5 10q-68 319 -136.5 565t-135.5 445q-72 -205 -137.5 -457t-137.5 -559q-29 -8 -70.5 -10t-125.5 -2h-50.5t-60.5 4q-51 272 -156.5 608t-261.5 768z" />
<glyph unicode="X" horiz-adv-x="1396" d="M41 8q72 92 138.5 174t132 165t135 171t147.5 193q-98 135 -224 295.5t-307 365.5q82 16 155 21.5t134 5.5h52.5t48.5 -2q92 -160 158.5 -276.5t123.5 -211.5q88 133 160 245t137 235q94 0 144.5 -1.5t81 -1.5t52 -1t56.5 -1q-86 -104 -211 -272t-291 -367 q135 -174 259 -355t247 -380q-74 -6 -123 -10t-86 -4q-35 0 -65.5 3t-69.5 9q-12 27 -51 89.5t-86 141t-95.5 160.5t-78.5 148q-47 -76 -79 -132.5t-54 -90.5l-193 -326q-23 6 -44 10t-44 4h-68q-25 0 -72.5 -1t-119.5 -3z" />
<glyph unicode="Y" horiz-adv-x="1288" d="M0 1395q23 0 52.5 -1l59 -2t55.5 -2t40 -1q29 0 63.5 2t79.5 8q66 -166 142.5 -293t169.5 -238q66 104 138 231.5t161 307.5q39 -6 71.5 -8t61.5 -2q12 0 23 1t22 1h26q8 0 24.5 -1t33.5 -1h59q-117 -162 -191.5 -262.5t-121.5 -162t-73 -96t-44 -64.5t-36.5 -66.5 t-49.5 -102.5v-88q0 -104 8 -239.5t29 -321.5q-43 6 -61.5 7t-30.5 1h-150q-10 0 -27.5 -2t-35.5 -2q20 154 28.5 272.5t8.5 206.5q0 47 -3.5 90t-7.5 82q-117 174 -243.5 360.5t-280.5 385.5z" />
<glyph unicode="Z" horiz-adv-x="1218" d="M55 182v80q100 98 195.5 199.5t185.5 211t177 231.5t171 261l-86 -8q-135 0 -279.5 -8t-324.5 -25v80q0 33 -4 78t-24 119q66 -2 137 -4t144 -3t142.5 -2t131.5 -1q123 0 253 4t246 10q4 -27 6 -47.5t2 -41v-42v-47.5v-31t-4 -35q-195 -211 -375 -432t-370 -475 q92 -4 172 -6t149 -2q305 0 424 33q16 -59 21.5 -101.5t5.5 -79.5q0 -23 -2 -49t-6 -57q-242 8 -445.5 12t-351.5 4q-74 0 -151.5 -1t-128.5 -3q-6 29 -8.5 73t-2.5 105z" />
<glyph unicode="[" horiz-adv-x="669" d="M86 -217q4 319 10 660t6 690q0 123 -1 250.5t-3 232.5q57 -6 97.5 -7t83.5 -1q80 0 171 4t154 12q8 -47 11 -86t3 -74v-34q0 -16 -2 -35t-2 -35l-299 20q-2 -68 -4 -169t-4 -223t-4 -254t-3 -262t-2 -248t-1 -210q35 2 66.5 7.5t66.5 9.5t74 8t88 4q14 -78 14 -162v-33 q0 -10 -1 -19t-3 -24v-22q-37 0 -69.5 3t-69.5 3q-82 0 -168 -1t-209 -5z" />
<glyph unicode="\" horiz-adv-x="911" d="M-23 1362q43 2 82 3t74 1q66 0 109 -6q59 -139 138 -314.5t169 -359.5t186 -364.5t189 -327.5q-61 8 -96 12t-60 4q-23 0 -45.5 -5t-56.5 -19q-39 84 -86.5 189.5t-100.5 223t-111.5 242.5t-117.5 248q-31 61 -58.5 117.5t-58.5 113t-69 115.5t-87 127z" />
<glyph unicode="]" horiz-adv-x="669" d="M49 -27q0 14 2 33t2 37q37 -6 77 -10t80 -7t76 -5.5t62 -2.5q2 66 4 168.5t5 223t5.5 254t4.5 263.5t3 248.5t1 210.5q-74 -4 -144.5 -15t-150.5 -11q-8 35 -11.5 75t-3.5 115v30.5t5 37.5q33 0 66.5 -3t70.5 -3q88 0 181 2t204 6q-16 -326 -20.5 -664t-4.5 -690 q0 -123 1 -250t3 -231q-23 0 -70.5 4t-82.5 4q-41 0 -89.5 -2t-97.5 -4t-92 -5t-72 -5q-8 49 -11 88t-3 72v36z" />
<glyph unicode="^" horiz-adv-x="1103" d="M14 397q55 102 120 236.5t123 272.5t104.5 267.5t64.5 221.5q14 0 50 -3t87 -3q54 0 115 6q68 -270 170 -512t244 -484q-88 16 -137.5 19.5t-86.5 3.5q-18 0 -40.5 -1t-77.5 -9q-37 178 -95.5 331.5t-115.5 300.5q-55 -147 -107.5 -310t-89.5 -343q-57 14 -93 16.5 t-69 2.5h-27.5t-32 -1t-44 -3.5t-62.5 -8.5z" />
<glyph unicode="_" horiz-adv-x="1449" d="M76 -344q16 53 22 96t6 80q0 18 -3 56t-9 89q135 -25 281.5 -36t294.5 -11q180 0 356 11.5t330 33.5q8 -47 10 -83.5t2 -67.5q0 -18 -1 -31.5t-1 -28.5v-94q-135 29 -260 35t-266 6q-100 0 -204 -4t-203 -11t-190 -17.5t-165 -22.5z" />
<glyph unicode="`" horiz-adv-x="1161" d="M258 1458q76 90 90 228q123 -72 246 -119t233 -72q-14 -23 -26.5 -43t-24.5 -45t-23.5 -55.5t-23.5 -71.5q-63 37 -120.5 62.5t-114 45t-114.5 36t-122 34.5z" />
<glyph unicode="a" horiz-adv-x="1275" d="M70 369q0 180 128 278t396 98q88 0 169 -18t146 -70q-8 106 -26.5 169t-51 94.5t-83 40t-119.5 8.5q-39 0 -76 -1t-74 -18.5t-72.5 -57.5t-72.5 -118q-68 29 -125 54.5t-105 48.5q137 315 539 315q147 0 247.5 -33t161 -109.5t87 -203.5t26.5 -314v-141 q0 -104 10.5 -198.5t28.5 -186.5h-71q-37 0 -86.5 -2t-104.5 -6q-14 20 -20.5 45t-6.5 76q-66 -78 -152.5 -103.5t-203.5 -25.5q-250 0 -369.5 88t-119.5 291zM319 362q8 -45 30 -73.5t55.5 -46t78.5 -23.5t99 -6q59 0 118.5 9t106.5 28.5t75.5 49.5t28.5 73t-32.5 72.5 t-79.5 46t-98.5 23.5t-88.5 7q-61 0 -112 -7t-90 -24.5t-62.5 -48t-28.5 -80.5z" />
<glyph unicode="b" horiz-adv-x="1277" d="M84 -6q20 166 30.5 342t10.5 369q0 166 -6 335.5t-27 374.5q35 -4 63.5 -6t59.5 -2q27 0 67 2t97 8q-10 -127 -15.5 -217t-7.5 -168q156 174 351 174q111 0 206 -41t164.5 -115.5t108.5 -179t39 -231.5q0 -154 -37 -274.5t-106.5 -203.5t-169 -127t-222.5 -44 q-209 0 -364 174q0 -35 3 -56.5t8 -38t8 -31.5t3 -34q-82 0 -145.5 -2t-118.5 -8zM356 582q0 -166 84 -264.5t244 -98.5q274 0 274 397q1 342 -282 342q-166 0 -243 -95t-77 -281z" />
<glyph unicode="c" horiz-adv-x="1198" d="M74 586q0 322 137 466t424 144q362 0 498 -268q-47 -39 -102.5 -62.5t-125.5 -42.5q-90 152 -291 152q-154 0 -220 -96.5t-66 -315.5q0 -94 17 -159.5t56 -105.5t103.5 -58.5t159.5 -18.5q178 0 262 148q68 -31 116 -54.5t82 -52.5l4 -35q-128 -243 -451 -243h-3 q-313 0 -456.5 142t-143.5 460z" />
<glyph unicode="d" horiz-adv-x="1261" d="M49 602q0 135 39 247t109.5 189.5t168 120.5t216.5 43q115 0 192.5 -33.5t147.5 -119.5l-2 36q0 80 -7.5 160t-21.5 168q31 -2 61.5 -3t59.5 -1q45 0 86 2t78 6q-14 -229 -22.5 -447t-8.5 -405q0 -152 5.5 -281t23.5 -276q-70 0 -105 -2t-74 -2h-96l19 121 q-74 -84 -154 -112.5t-193 -28.5q-121 0 -217 45t-163.5 127t-104.5 195.5t-37 250.5zM307 571q0 -354 320 -354q287 0 286 354v11q-2 376 -307 376q-92 0 -149.5 -29.5t-91 -81.5t-46 -123t-12.5 -153z" />
<glyph unicode="e" horiz-adv-x="1251" d="M76 588q0 281 102 420h-2q166 190 481 190q258 0 391.5 -134t133.5 -370q0 -27 -2 -64.5t-13 -80.5q-117 4 -238.5 6t-232.5 2q-98 0 -187 -2t-181 -4q2 -182 77.5 -257t237.5 -75q111 0 176.5 41t89.5 111q57 -16 112.5 -45.5t131.5 -92.5q-146 -245 -519 -245h-3 q-293 0 -424 147.5t-131 452.5zM348 762h72q25 0 29 -2h413h27.5t28.5 2q-29 215 -277 215q-274 0 -293 -215z" />
<glyph unicode="f" horiz-adv-x="913" d="M6 754q12 29 17.5 53t5.5 41q0 20 -3 52t-3 54q41 -2 92 -3t75 -1q2 451 424 455q117 -4 213.5 -57.5t155.5 -169.5q-47 -37 -102.5 -64t-116.5 -41q-59 104 -141 105q-53 0 -89 -10.5t-58.5 -36t-32 -67.5t-9.5 -106q117 0 201 2.5t145 12.5q-2 -18 -3 -43t-1 -58 q0 -61 12 -118q-55 6 -114.5 8t-100.5 2q-25 0 -46 -1t-44 -1q-12 0 -23 1t-24 1q2 -111 5 -202t7.5 -178t13.5 -179t23 -205q-37 0 -76.5 3t-70.5 3q-35 0 -73 -3t-72 -3q12 141 17 273.5t5 273.5q0 61 -1 114.5t-3 102.5q-23 -2 -79 -6t-126 -4z" />
<glyph unicode="g" horiz-adv-x="1265" d="M74 635v10q0 276 134 419.5t386 143.5q47 0 95 -3t93 -16t85 -43t71 -83q-8 78 -18 127q23 0 47 -1t47 -1q41 0 83 2t83 6q-14 -147 -19.5 -328.5t-5.5 -353.5v-278q0 -23 2 -29q0 -258 -141.5 -364.5t-419.5 -106.5q-180 0 -309 60.5t-199 189.5q84 83 227 114 q95 -151 303 -151h3q76 0 132 15.5t95 54t63.5 101t36.5 159.5q-41 -49 -80 -79t-84 -45.5t-98 -20.5t-121 -5q-174 0 -305 102v-2q-184 166 -186 406zM324 662q0 -66 19 -123.5t56 -99.5t88.5 -65.5t114.5 -23.5q166 0 243 76t77 250q0 154 -76 231.5t-250 77.5 q-141 0 -206.5 -85t-65.5 -238z" />
<glyph unicode="h" horiz-adv-x="1222" d="M82 6q16 184 22.5 347t6.5 341q0 186 -8.5 371.5t-18.5 345.5q45 -2 85 -2h75h66.5t58.5 2q-6 -111 -10.5 -202t-18.5 -173q141 166 375 166q236 0 341 -116.5t105 -380.5q0 -59 -1 -120t-3 -115t-3 -99t-1 -72q0 -66 2 -132.5t10 -158.5q-25 -2 -67.5 -4t-65.5 -2 q-43 0 -84 2t-90 8q25 193 34 340.5t9 270.5q0 80 -8 143t-31.5 107.5t-62.5 69t-101 24.5q-190 0 -268 -131t-78 -408q0 -55 5 -166.5t14 -253.5q-18 -4 -32.5 -4h-31.5q-47 0 -101 1t-124 1z" />
<glyph unicode="i" horiz-adv-x="495" d="M76 -10q27 141 41 273t14 280q0 59 -1 116.5t-5 119t-10 129t-17 147.5h35q55 0 99 -2t85 -2q18 0 37 1t35 3q-8 -104 -14 -218t-6 -237q0 -152 4.5 -293t29.5 -307q-80 0 -110.5 3t-48.5 3q-29 0 -70 -4t-98 -12zM80 1233q0 12 1 23.5t1 19.5v139q68 12 116 17.5t87 5.5 q33 0 61.5 -3t56.5 -14q6 -41 8.5 -79.5t2.5 -75.5q0 -61 -6 -113h-35q-29 0 -49.5 -2t-44.5 -2h-93q-4 2 -16 2h-43q-31 0 -39 26.5t-8 55.5z" />
<glyph unicode="j" horiz-adv-x="481" d="M-258 -162q35 49 81 90t101 78q45 -57 111 -57q70 0 89 84t19 258q0 86 -3 172t-9 179t-16.5 196.5t-24.5 220.5q55 -6 93 -8t67 -2q55 0 135 12q-6 -135 -9 -235.5t-5 -184.5t-2 -161v-165q0 -68 2 -130t2 -124q0 -57 -22.5 -115.5t-64.5 -105.5t-103.5 -76.5 t-139.5 -29.5q-190 0 -301 104zM74 1284q0 31 4 63.5t14 71.5q41 6 85 10.5t89 4.5q74 0 133 -15q0 -35 1 -67.5t1 -63.5q0 -35 -2 -66.5t-10 -62.5q-47 -4 -83 -7t-66 -3q-29 0 -65 1t-83 3q-10 39 -14 69.5t-4 61.5z" />
<glyph unicode="k" horiz-adv-x="1157" d="M82 1391q45 8 87 11t81 3q35 0 68.5 -2t76.5 -8q-25 -98 -38 -233.5t-13 -313.5l-8 -143q57 41 105 83.5t98.5 97t109 125t137.5 169.5h64q193 0 256 -33l-561 -516q68 -59 135.5 -119.5t143 -134.5t163.5 -165t197 -212h-62q-154 0 -266 -12l-182 209q-37 43 -84 89 t-94 89t-88 77.5t-68 57.5q8 -41 15 -112.5t11.5 -148.5t7.5 -144.5t3 -100.5h-291q16 154 23.5 305.5t7.5 325.5q0 186 -9.5 371.5t-25.5 384.5z" />
<glyph unicode="l" horiz-adv-x="458" d="M72 6q23 154 32 332t9 389q0 160 -8.5 338t-18.5 344h66q23 0 88 3t133 7q-18 -172 -25.5 -335.5t-7.5 -350.5q0 -211 10.5 -391t28.5 -340q-59 0 -91 -1t-63 -1q-33 0 -73.5 3t-79.5 3z" />
<glyph unicode="m" horiz-adv-x="2056" d="M84 1178q45 -6 74.5 -9.5t56.5 -3.5q45 0 147 21q-6 -29 -10 -48.5t-7 -37t-6 -37t-5 -47.5q160 184 352 184q264 0 369 -203q154 205 432 205q145 0 231 -44t131 -124t60.5 -190.5t21.5 -241.5t12.5 -279.5t32.5 -304.5q-55 -8 -92 -14t-84 -6q-29 0 -63.5 3t-83.5 9 q18 123 26.5 237.5t8.5 237.5q0 141 -10.5 232.5t-39 143.5t-81 71.5t-136.5 19.5q-78 0 -133 -19.5t-90 -63.5t-50 -114.5t-15 -170.5q0 -72 11 -207t38 -352q-33 -10 -69 -17.5t-99 -7.5q-29 0 -68 2t-90 6q25 127 33 217t8 187q0 113 -4 210t-28.5 167.5t-79 110.5 t-154.5 40q-86 0 -142.5 -29.5t-88 -86t-45 -137.5t-13.5 -183q0 -72 10 -193t35 -301q-41 -8 -76 -11t-63 -3q-35 0 -71 4t-85 14q14 111 21.5 218.5t7.5 230.5q0 268 -37 715z" />
<glyph unicode="n" horiz-adv-x="1280" d="M76 0q23 135 35 283.5t12 322.5q0 154 -8.5 284t-26.5 271q63 18 150 19q33 0 65.5 -2t69.5 -7l-21 -114q150 162 359 162q61 0 124.5 -16.5t121 -49.5t103.5 -80t75 -108q18 -41 28.5 -132.5t10.5 -220.5v-163q0 -111 5.5 -223.5t28.5 -229.5q-119 6 -194.5 8t-141.5 2 q27 135 40.5 244.5t13.5 220.5q0 150 -11.5 246t-41 152.5t-83 78t-139.5 21.5q-92 0 -149.5 -34t-89 -98.5t-44 -158.5t-12.5 -213q0 -195 37 -465q-43 2 -83 3t-81 1t-77.5 -1t-75.5 -3z" />
<glyph unicode="o" horiz-adv-x="1296" d="M76 543q0 348 137 505.5t430 157.5q578 0 578 -594q0 -307 -137.5 -465.5t-419.5 -158.5q-588 0 -588 555zM324 590q0 -383 317 -383q328 0 328 375q0 403 -318 403q-96 0 -159.5 -20.5t-100.5 -66.5t-52 -121.5t-15 -186.5z" />
<glyph unicode="p" horiz-adv-x="1259" d="M80 -276q20 223 28.5 435t8.5 404q0 154 -6.5 314.5t-14.5 302.5q49 0 116 3t148 15q-2 -29 -4 -62.5t-6 -72.5q68 88 151 115.5t199 27.5q115 0 209.5 -47t161 -133t103 -205t36.5 -260q0 -127 -38.5 -231.5t-108.5 -179t-168 -116.5t-215 -42q-199 0 -342 155 q2 -82 5 -140t6 -104t9.5 -87t14.5 -88h-129h-72h-47t-45 -4zM356 592q0 -96 30 -167t77 -116t104.5 -66.5t114.5 -21.5q266 0 266 406q0 346 -295 346q-160 0 -228.5 -89t-68.5 -292z" />
<glyph unicode="q" horiz-adv-x="1251" d="M49 518q0 154 40 279t113.5 214t179 137t239.5 48q172 0 311 -145q-6 37 -12.5 71.5t-14.5 65.5q25 4 53.5 7t57.5 3q84 0 145 -27q-24 -237 -24 -597v-29q0 -217 8 -431t26 -401q-80 20 -157 21q-29 0 -55.5 -2t-53.5 -8q0 6 1 11t1 11q0 23 -4 59.5t-4 102.5v96 q0 20 3 59t9 109q-74 -106 -159.5 -143t-159.5 -37q-543 0 -543 526zM305 573q0 -352 252 -352q74 0 136.5 26.5t108.5 75t72.5 118t26.5 155.5q0 373 -289 373q-307 -1 -307 -396z" />
<glyph unicode="r" horiz-adv-x="989" d="M72 1151q86 33 161 33q41 0 76 -7.5t70 -19.5q-8 -16 -13.5 -37.5t-9.5 -48.5q113 131 279 131q111 0 201 -54t147 -165q-137 -49 -217 -100q-61 92 -176 92q-111 0 -167 -75t-61 -241q0 -23 2.5 -72.5t4.5 -111t5 -129t5 -125t4 -100.5t2 -55v-50q-59 -14 -156 -14 q-80 0 -143 6q20 104 31.5 237.5t11.5 313.5q0 418 -57 592z" />
<glyph unicode="s" horiz-adv-x="1222" d="M59 264q70 37 124.5 56.5t115.5 39.5q81 -159 314 -159h3q258 0 258 157q0 78 -66.5 112t-232.5 34q-109 0 -199.5 22.5t-158 65.5t-105.5 102.5t-38 132.5q0 84 41 156t113.5 124t170 82t211.5 30q397 0 502 -265q-49 -29 -109.5 -45t-136.5 -32q-72 129 -280 129 q-47 0 -92 -12.5t-80 -33t-56.5 -48t-21.5 -60.5v-4q4 -63 89 -99t212 -36q272 0 394 -82t122 -262q0 -186 -137 -283.5t-412 -97.5q-190 0 -333.5 66.5t-211.5 209.5z" />
<glyph unicode="t" horiz-adv-x="1034" d="M49 1106v84q25 -2 66 -3t59 -1h68v20q0 27 -5.5 71t-25.5 132q12 0 31.5 -1t41 -2t41 -2t31.5 -1q43 0 87 2t94 8q-12 -84 -18.5 -131t-6.5 -94h6q29 -2 53.5 -3t46.5 -1q57 0 143.5 8t203.5 22q-29 -86 -29 -147q0 -25 2 -49.5t6 -56.5q-63 6 -150 11t-155 5 q-33 0 -64.5 -1t-62.5 -3q-12 -92 -17.5 -179t-5.5 -180q0 -127 6.5 -206.5t23 -123.5t46 -60.5t78.5 -16.5q82 0 141 104q129 -31 217 -100q-57 -123 -152 -175t-218 -52q-209 0 -300 88t-91 290v35q0 55 2 111.5t2 112.5q0 106 -3 194t-8 160h-18q-25 0 -59.5 -2 t-89.5 -12q-8 47 -12.5 82.5t-4.5 62.5z" />
<glyph unicode="u" d="M86 608q0 31 2 88.5t5 117.5t5 113.5t2 78.5q0 49 -3 96t-11 88q66 14 129 14q33 0 73 -2t95 -12q-27 -248 -39 -380t-12 -169q0 -80 7 -156.5t35.5 -135t86 -94.5t157.5 -36q94 0 153.5 31t93.5 88t46.5 141t12.5 193q0 20 -8.5 162.5t-22.5 371.5q25 -2 72 -4t71 -2 q27 0 72 2t70 4q-10 -160 -16.5 -332t-6.5 -325q0 -127 3.5 -255t17.5 -294q-68 6 -112 9t-91 3h-68q0 10 3 44t12 91q-76 -90 -171.5 -122.5t-185.5 -32.5q-174 0 -270 53t-142.5 141t-55.5 198t-9 224z" />
<glyph unicode="v" horiz-adv-x="1155" d="M-37 1186q111 0 189.5 1t140.5 13q80 -299 149.5 -511t130.5 -376q100 217 175 436.5t122 442.5h86q49 0 97.5 -3t107.5 -11q-127 -281 -243.5 -564.5t-229.5 -605.5q-35 -4 -64.5 -6t-60.5 -2q-57 0 -125 6q-55 158 -110.5 305.5t-113.5 290.5t-119.5 287.5 t-131.5 296.5z" />
<glyph unicode="w" horiz-adv-x="1824" d="M-14 1192q51 8 94 11t84 3q35 0 72.5 -3t78.5 -11q49 -272 99.5 -476t111.5 -368q61 164 126 370t139 484q55 -8 93 -10t70 -2q31 0 68 4t74 4q39 -199 95 -401.5t134 -431.5q82 217 140.5 421.5t93.5 421.5q168 0 296 -24q-102 -229 -205.5 -516t-215.5 -658 q-53 -8 -89 -10t-65 -2q-31 0 -63.5 2t-75.5 8q-49 229 -102.5 436t-120.5 416l-105 -295q-29 -80 -51.5 -147.5t-42 -132t-36.5 -135t-36 -156.5q-55 2 -121.5 4t-154.5 6q-41 152 -85 297t-91.5 291.5t-99.5 294t-109 305.5z" />
<glyph unicode="x" horiz-adv-x="1382" d="M35 2l530 610q-90 115 -208.5 249t-278.5 315q23 6 59.5 11t80.5 8t91 5t90 2h76q55 -115 115.5 -209t132.5 -198q82 123 146.5 225t113.5 188q41 -6 75 -11t72 -5h173q-166 -199 -280 -331t-183 -224q68 -90 128 -166t118.5 -148.5t117 -148.5t119.5 -166 q-135 -12 -197 -12q-63 0 -149 12q-92 147 -165 254t-132 199q-102 -139 -173 -251t-126 -220q-61 8 -148.5 10t-197.5 2z" />
<glyph unicode="y" horiz-adv-x="1292" d="M80 711q0 20 1 65t3 99.5t3 110.5t1 99q0 23 -1 45.5t-7 67.5q57 -8 96 -10t68 -2t59.5 2t67.5 8q-20 -135 -28.5 -254t-8.5 -197q0 -135 18.5 -214.5t56 -121.5t95 -53.5t137.5 -11.5q76 0 134.5 18.5t98 66.5t60 132t20.5 217q0 80 -8 184.5t-31 221.5q55 0 105.5 2 t79.5 2q31 0 51 -1t53 -7q0 -39 -3 -117t-6 -162t-6 -159.5t-3 -110.5q0 -16 1 -30.5t1 -33.5v-57q0 -176 -19.5 -319.5t-78 -247t-167 -159.5t-286.5 -56q-174 0 -300 57t-224 186q35 29 82.5 61.5t113.5 65.5q68 -76 160 -116.5t209 -40.5q35 0 75 10t77.5 43t68.5 94.5 t47 165.5q-141 -141 -330 -141q-117 0 -215 22.5t-169.5 88t-111.5 182t-40 305.5z" />
<glyph unicode="z" horiz-adv-x="1228" d="M82 1186q2 -2 22 -2h351q199 0 356.5 4t267.5 12q12 -55 17.5 -97t5.5 -77v-22q0 -6 -1 -17.5t-3 -17.5q-72 -61 -161 -155.5t-182 -199t-184.5 -208t-167.5 -185.5h203q154 0 270.5 11.5t227.5 31.5q31 -111 31 -158q0 -53 -35 -116q-129 10 -269.5 15t-306.5 5 q-98 0 -204.5 -1t-217.5 -5q-10 43 -13 71.5t-3 57.5q0 25 1 51.5t3 53.5q199 170 355.5 350t302.5 385q-4 -2 -25 -2h-102q-117 0 -241 -10.5t-271 -30.5v45q0 10 1 17t1 12q0 14 -7.5 59t-21.5 123z" />
<glyph unicode="{" horiz-adv-x="1019" d="M47 823q55 -12 68.5 -14t17.5 -2q47 0 80 24.5t54.5 64.5t30.5 88t9 97v21q6 123 37 225.5t90.5 176t148.5 114.5t212 41l53 2q-6 -66 -6 -111q0 -51 6 -85.5t18 -65.5h-53q-12 0 -19.5 1t-11.5 1q-96 0 -139 -43t-59.5 -111.5t-18.5 -152.5t-17.5 -165t-57 -150.5 t-138.5 -108.5q70 -33 109 -82t59.5 -110.5t25.5 -132.5t5 -146q0 -160 58.5 -230.5t168.5 -70.5h33q10 0 30.5 1t26.5 1q-6 -66 -6 -115q0 -76 12 -125h-77q-246 0 -360.5 144.5t-127.5 406.5v16q0 4 1 9.5t1 9.5q0 49 -10 96t-32.5 84t-57.5 60.5t-82 23.5q-4 0 -11 -1 t-14 -1h-36q0 49 2 72.5t3 37t3 24.5t2 36q0 20 -8.5 57t-22.5 88z" />
<glyph unicode="|" horiz-adv-x="399" d="M72 -287q6 66 11 182.5t10 250t7 264.5t2 223t-2 206.5t-5 233.5t-8 228.5t-11 191.5q20 4 45.5 10t62.5 6q23 0 47.5 -2t57.5 -8q-27 -119 -34 -250t-7 -262v-112.5v-194.5t3 -246t7 -266t12.5 -257t20.5 -216q-31 12 -73 16t-83 4h-34.5t-28.5 -2z" />
<glyph unicode="}" horiz-adv-x="1019" d="M80 -340q10 33 19.5 66.5t9.5 78.5q0 23 -2.5 48.5t-8.5 56.5q16 -2 28.5 -2h25.5q76 0 125 18.5t77.5 55t38.5 91t10 126.5q2 78 7.5 147.5t25 129t56 108.5t104.5 86q-86 41 -125 110.5t-55.5 151.5t-21.5 165t-25.5 150.5t-68.5 110.5t-146 43h-32t-34 -2 q16 45 23.5 74.5t7.5 50.5q0 49 -35 135h76q123 0 212 -41t148.5 -114.5t90 -176t36.5 -225.5v-23q0 -49 8.5 -97t29 -85t54 -60.5t86.5 -23.5q25 0 48.5 4t37.5 8q-16 -51 -26.5 -89t-10.5 -62q0 -31 6.5 -77t16.5 -89h-47q-8 0 -13.5 1t-9.5 1q-49 0 -83.5 -23.5 t-57 -60.5t-33 -84t-10.5 -96v-19q0 -4 1 -8t1 -8q-12 -260 -129 -405.5t-358 -145.5h-78z" />
<glyph unicode="&#xa1;" horiz-adv-x="528" d="M63 -215q25 131 40.5 267t24.5 257t13 219.5t4 153.5v113q14 -2 26.5 -2h25.5h178q31 0 33 -2q-20 -90 -21 -244q0 -43 1 -88t5 -99q10 -139 16.5 -227t11.5 -147.5t10 -103.5t11 -93q-41 -8 -80.5 -9t-74.5 -1h-33.5t-42.5 1t-61 2t-87 3zM109 1004q0 43 3 88t13 88 q4 2 31 2h53q20 0 33.5 2t36.5 2t42 -2t54 -2h28q35 0 37 -2q6 -66 6 -115v-80q0 -23 -2 -31t-2 -18v-35q0 -31 -2 -33q-102 -4 -171.5 -5t-108.5 -1q-33 0 -41 4q-4 29 -7 64t-3 74z" />
<glyph unicode="&#xa2;" horiz-adv-x="1198" d="M170 649q0 252 96 378t295 149l-8 190h45q16 0 62.5 3t93.5 7q-4 -51 -7.5 -100t-7.5 -98q256 -25 363 -230q-41 -33 -90 -53.5t-109 -36.5q-63 100 -170 125q-4 -43 -4 -87v-89q0 -129 2 -243.5t4 -227.5q63 10 107.5 41t79.5 86q59 -27 101 -48.5t71 -43.5l4 -33 q-106 -197 -353 -211q3 -88 13 -168q-41 0 -63.5 -1t-45.5 -1t-50.5 4t-55.5 4l14 170q-203 29 -295 152t-92 362zM393 633q0 -131 39 -198.5t133 -90.5q6 160 6 340q0 70 -1 145.5t-3 153.5q-92 -23 -133 -106.5t-41 -243.5z" />
<glyph unicode="&#xa3;" horiz-adv-x="1032" d="M63 4q31 55 62 122t58.5 137.5t49 137t35.5 121.5h-20q-16 -6 -48 -8t-55 -2h-20q0 27 3 52.5t3 47.5q0 20 -6 56.5t-25 95.5q63 0 114.5 -4t117.5 -8q37 150 73.5 267.5t89 199t126 124.5t186.5 43q49 0 103.5 -6t115.5 -22q-82 -111 -117 -262q-61 76 -123 75 q-86 0 -138 -104t-95 -313h41q12 0 29.5 1t38 2t38 2t29.5 1q0 -12 -1 -30.5t-2 -38t-2 -36t-1 -24.5q0 -23 1 -45.5t13 -79.5q-16 2 -40.5 4t-50 4t-47 3t-34.5 1l-73 4q0 -8 -3 -10q-14 -43 -22 -86t-16 -74l-25 -102q4 -2 31 -2h301q53 0 105 2t89 2q-2 -14 -5 -45 t-3 -72q0 -29 2 -60.5t10 -66.5q-129 0 -283.5 10.5t-307.5 10.5q-72 0 -147 -4.5t-155 -20.5z" />
<glyph unicode="&#xa5;" horiz-adv-x="1288" d="M55 1401q23 0 52.5 -1t58.5 -2t54.5 -2t39.5 -1q31 0 64.5 2t78.5 8q66 -166 143 -293t169 -238q66 104 139.5 231.5t161.5 307.5q16 -4 35.5 -6t53.5 -3t89 -1h141q-113 -156 -186.5 -254t-119.5 -160.5t-72.5 -97.5t-44 -63.5t-34 -60.5t-42.5 -87h75q47 0 67.5 2 t39.5 2q-2 -16 -4 -50t-2 -75q0 -18 1 -37.5t3 -42.5q-57 2 -105.5 4t-89.5 4l4 -102h144h27.5t27.5 2q-2 -2 -2 -65v-107v-22.5t-2 -22.5q-53 2 -96 4t-84 4q6 -84 18 -178q-45 6 -62.5 7t-29.5 1h-150q-10 0 -28.5 -2t-34.5 -2q12 94 18 178q-41 -2 -86 -5t-102 -9 q0 10 -1 35.5t-4 59.5t-7 69t-11 63q33 0 80 -4t99 -4h49q0 25 1 49.5t1 46.5v11q-53 0 -103.5 -4.5t-109.5 -10.5q-2 55 -7 107.5t-16 107.5q41 -4 93.5 -5t111.5 -5q-111 166 -233.5 345t-270.5 372z" />
<glyph unicode="&#xa6;" horiz-adv-x="399" d="M76 -303q10 193 17 390.5t7 401.5l152 17q0 -102 2 -211t6 -215.5t12.5 -205.5t18.5 -179q-53 6 -117 6q-23 0 -47 -1t-51 -3zM78 1493q35 0 86 5.5t123 17.5q-25 -147 -31 -294t-6 -294v-215q-39 6 -52.5 7t-23.5 1h-72q0 86 -2 191.5t-6 211t-8 202.5t-8 167z" />
<glyph unicode="&#xa7;" horiz-adv-x="1175" d="M90 248q37 18 65.5 30.5t54.5 21.5t50 16.5t55 13.5q74 -119 228 -119q166 0 166 94q0 25 -17 47q-12 10 -59 11.5t-110.5 6.5t-135.5 18t-131 48t-98 95.5t-39 160.5q0 96 78 174q-43 35 -59.5 79t-16.5 99q8 150 105.5 235t318.5 93q313 0 405 -237 q-53 -35 -109.5 -52.5t-121.5 -31.5q-53 104 -193 104q-16 0 -41.5 -6t-52 -17.5t-45 -29t-18.5 -37.5v-6q6 -49 110 -60l144 -12q41 -2 75 -12v-2q147 -20 213 -86t66 -195q0 -119 -70 -196q61 -74 62 -185q0 -84 -32 -142t-90.5 -97t-138 -56.5t-178.5 -17.5 q-78 0 -143 10t-118.5 38t-97.5 76t-81 126zM362 676q1 -19 3 -25q25 -20 52 -29.5t60 -13.5t72 -5t86 -3q82 14 82 86q0 4 -4 13.5t-23.5 20.5t-59.5 24.5t-114 25.5h-39q-14 -4 -33.5 -9t-38 -15.5t-31 -27t-12.5 -42.5z" />
<glyph unicode="&#xa8;" horiz-adv-x="1161" d="M254 1475v51q0 27 12.5 44t30.5 26.5t39 12.5t39 3q55 0 86 -3t69 -14q4 -45 6.5 -76.5t2.5 -58.5q0 -31 -4.5 -56.5t-8.5 -47.5q-41 -12 -83 -16.5t-83 -4.5q-23 0 -46 1t-48 3q-8 57 -10 86t-2 50zM618 1497v78q18 16 56.5 25.5t79.5 9.5q49 0 77.5 -12.5t44 -31 t19.5 -40t4 -39.5q0 -53 -4 -81.5t-12 -51.5q-29 -10 -57.5 -14.5t-51.5 -4.5q-18 0 -53 2t-92 9q-4 29 -6 50t-3.5 45.5t-1.5 55.5z" />
<glyph unicode="&#xa9;" horiz-adv-x="1558" d="M78 678q0 145 55 274t151.5 225.5t224.5 152.5t275 56q145 0 274.5 -56t225.5 -152.5t152.5 -225.5t56.5 -274q0 -147 -56.5 -275.5t-152.5 -224.5t-225 -151.5t-275 -55.5q-147 0 -275 55.5t-224.5 151.5t-151.5 224.5t-55 275.5zM219 678q0 -117 44 -220.5t121 -180 t180.5 -121.5t219.5 -45q119 0 222.5 45t180.5 121.5t122 180t45 220.5q0 119 -45 222.5t-122 180t-180.5 120.5t-222.5 44q-117 0 -220 -44t-180 -120.5t-121 -180t-44 -222.5zM420 676q0 236 91 338t284 102q244 0 331 -192q-59 -51 -151 -76q-59 109 -193 108 q-104 0 -147 -67.5t-43 -226.5q0 -70 11 -117t37 -77t69 -43t106 -13q113 0 174 108q45 -23 76.5 -44t58.5 -60q-88 -174 -303 -174q-209 0 -305 101t-96 333z" />
<glyph unicode="&#xaa;" horiz-adv-x="780" d="M84 1143q0 39 23.5 71.5t63.5 55t92 35t110 12.5q41 0 73.5 -4t59.5 -10q-43 86 -139 86q-102 0 -152 -64q-53 14 -84 24.5t-41 16.5q84 201 297 201q176 0 242 -111h2q25 -51 33 -108.5t8 -126.5v-66q0 -82 24 -219h-82q-16 0 -50 -1t-56 -3q-6 6 -9 12t-7 10 q-51 -27 -142 -26q-123 0 -194.5 48t-71.5 167zM272 1147q10 -27 30 -35t56 -8q41 0 81 9t40 32q0 10 -11 17t-28.5 11.5t-35 5.5t-29.5 1q-43 0 -68.5 -6.5t-34.5 -26.5z" />
<glyph unicode="&#xab;" horiz-adv-x="1239" d="M80 705q78 41 129 71.5t98 66.5t101.5 85t136.5 125q12 -57 20 -92t16.5 -61t20.5 -48.5t35 -52.5q-84 -45 -164 -95.5t-188 -91.5q84 -43 155.5 -97t149.5 -112l61 -45q-18 -33 -55 -82t-72 -122q-94 94 -150.5 143t-99.5 81t-85 57.5t-105 70.5q-2 4 -2 20v150 q0 23 -2 29zM606 506q4 49 6 100.5t2 106.5q68 33 117 62.5t96 66.5t103.5 87t136.5 124q12 -57 19.5 -92t16.5 -61t21.5 -47.5t34.5 -53.5q-84 -45 -165 -95.5t-189 -91.5q86 -43 156.5 -98t148.5 -111l64 -45q-18 -33 -53.5 -77.5t-73.5 -126.5q-96 92 -152.5 142 t-99.5 81t-84 56.5t-105 72.5z" />
<glyph unicode="&#xad;" horiz-adv-x="776" d="M59 846q61 -4 147.5 -7t184.5 -8h156q47 0 76.5 1.5t49 1.5t32 1t24.5 1q-4 -18 -6 -46t-2 -61t4 -69.5t18 -75.5q-129 12 -210.5 16t-155.5 4t-139.5 -2t-155.5 -12v51q0 23 2 34t2 27q0 35 -6 66t-21 78z" />
<glyph unicode="&#xae;" horiz-adv-x="1345" d="M111 850q0 119 45 224.5t122.5 182t182 121.5t223.5 45t224.5 -45t182 -121.5t121.5 -182t45 -224.5t-45 -223.5t-121.5 -181t-182 -121.5t-224.5 -45t-223.5 45t-182 121.5t-122.5 181t-45 223.5zM254 848q0 -104 40 -184t107 -140q6 102 10.5 212t4.5 188 q0 55 -2 117.5t-8 132.5q-70 -59 -111 -140.5t-41 -185.5zM422 510q59 -41 122.5 -61.5t135.5 -26.5q145 0 260 90h-16q-16 0 -46 -2t-102 -2q-55 68 -102 123t-84 88q0 -37 2 -84t12 -127zM451 1208q72 0 122 7.5t86 7.5q51 0 104.5 -10.5t97.5 -35t72 -67.5t28 -109 q0 -111 -43.5 -163t-135.5 -66q61 -57 109.5 -105.5t116.5 -91.5q98 117 98 273q0 88 -33 166t-90 136t-135 92t-166 34q-66 0 -123 -18.5t-108 -49.5zM590 922h33q78 0 113.5 12t35.5 47q0 31 -21.5 46t-58.5 15h-102v-120z" />
<glyph unicode="&#xb0;" horiz-adv-x="907" d="M88 1114q0 203 85 290t280 87q372 0 372 -338q0 -174 -93 -266t-267 -92q-377 0 -377 319zM272 1139q0 -190 179 -191q186 0 186 189q0 201 -176 200q-55 0 -92 -10t-58.5 -33.5t-30 -61.5t-8.5 -93z" />
<glyph unicode="&#xb2;" horiz-adv-x="720" d="M49 819q14 90 17.5 173t27 145.5t84 99.5t189.5 37q33 0 57.5 6t24.5 12q0 53 -15.5 68.5t-73.5 15.5q-37 0 -62.5 -6t-37.5 -51q-137 8 -178 35q4 59 28.5 99t63.5 63.5t86 34t94 10.5q59 0 111.5 -9.5t90.5 -35t59.5 -72.5t21.5 -123q0 -90 -28.5 -136t-70.5 -67.5 t-91.5 -27t-91.5 -11.5t-70.5 -22.5t-28.5 -59.5v-4l371 19q14 -45 18 -97.5t4 -99.5q-61 2 -123.5 4t-121 3t-108.5 2t-87 1t-79 -3t-81 -3z" />
<glyph unicode="&#xb3;" horiz-adv-x="671" d="M61 1366q10 63 38 103t66 61.5t81 29t86 7.5q63 0 113.5 -11.5t86 -38t55 -71.5t19.5 -111q0 -41 -14 -75.5t-78 -67.5q68 -18 83 -51t15 -76q0 -76 -17 -125t-53 -77.5t-88.5 -40t-121.5 -11.5q-31 0 -66 2t-69.5 18.5t-67 56.5t-61.5 116q37 20 73.5 34.5t77.5 22.5 q37 -66 113 -66q53 0 70.5 11.5t17.5 58.5q0 72 -84 72q-23 0 -49.5 -4.5t-61.5 -12.5v148q41 -4 73 -7.5t54 -3.5q33 0 46.5 10.5t13.5 41.5q0 53 -22.5 63t-82.5 10q-29 0 -55.5 -10t-42.5 -53q-100 14 -148 47z" />
<glyph unicode="&#xb4;" horiz-adv-x="1161" d="M313 1485q84 27 148.5 48t119 42.5t102.5 46.5t101 57q16 -63 31.5 -111t50.5 -110q-82 -27 -136 -46t-102 -38.5t-98 -41t-124 -52.5q-10 33 -19.5 57.5t-20 46t-22.5 45t-31 56.5z" />
<glyph unicode="&#xb7;" horiz-adv-x="612" d="M141 809q0 20 1 57t3 58q80 16 131 21t86 5q47 0 76 -6t66 -10q4 -55 8 -91t4 -79q0 -29 -4.5 -68t-14.5 -94q-86 -4 -152.5 -6t-117.5 -2h-38.5t-35.5 2q-8 68 -10 119t-2 94z" />
<glyph unicode="&#xb8;" horiz-adv-x="1044" d="M244 -264q45 8 89 22.5t85 36.5q10 -53 30.5 -74.5t51.5 -21.5q37 0 52 12.5t15 48.5q0 27 -29.5 39.5t-68.5 32.5q-16 8 -32.5 16.5t-31 30t-26.5 64.5t-21 123h205q-2 -10 -2 -17.5v-15.5q0 -61 47 -68q145 -18 146 -225q0 -70 -19.5 -112t-55.5 -65.5t-85 -30.5 t-107 -7q-33 0 -71.5 9t-74.5 33.5t-62.5 65.5t-34.5 103z" />
<glyph unicode="&#xb9;" horiz-adv-x="479" d="M16 1339q68 70 113 134.5t76 138.5q43 -20 135 -21h27q-4 -49 -6.5 -138t-2.5 -230q0 -135 3.5 -235.5t7.5 -168.5q-84 15 -209 25q14 117 26.5 246t22.5 282l-72 -82q-37 14 -66.5 26.5t-54.5 22.5z" />
<glyph unicode="&#xba;" horiz-adv-x="806" d="M70 1186q0 193 76.5 286t250.5 93q88 0 146.5 -27t92.5 -75t47 -116.5t13 -154.5q0 -375 -315 -375q-84 0 -142.5 17.5t-96.5 59.5t-55 112.5t-17 179.5zM262 1176q0 -96 23.5 -133t89.5 -37q80 0 104.5 46t24.5 144q0 80 -21.5 131t-95.5 51q-68 0 -96.5 -45.5 t-28.5 -156.5z" />
<glyph unicode="&#xbb;" horiz-adv-x="1198" d="M63 805q25 25 40.5 47t25.5 50t19.5 63.5t21.5 87.5q78 -74 130 -118t99 -79t101.5 -72t138.5 -98q-4 -37 -5 -81t-3 -99q-63 -47 -104.5 -72.5t-84.5 -56.5t-100 -80t-152 -143q-23 45 -37 67.5t-26 41t-26.5 37.5t-34.5 58q88 68 177 134.5t169 119.5q-94 43 -177 94.5 t-172 98.5zM555 805q25 25 40 47t26.5 50t20.5 63.5t22 87.5q76 -74 128 -117t100 -79t102.5 -73t138.5 -98q-4 -63 -6.5 -108.5t-2.5 -71.5q-63 -47 -105 -72.5t-85 -56.5t-99.5 -80t-150.5 -143q-23 45 -38 67.5t-28.5 41t-26.5 37.5t-34 58q92 68 179 134.5t169 119.5 q-98 43 -178 94.5t-172 98.5z" />
<glyph unicode="&#xbc;" horiz-adv-x="1413" d="M-2 1145q74 70 123 135.5t80 132.5q37 -10 68.5 -13t58.5 -3q33 0 55 6q-4 -23 -7 -101.5t-3 -220.5q0 -141 2 -253.5t6 -217.5q-4 0 -47 6.5t-103 6.5h-26t-27 -2l37 555l-82 -97q-74 45 -135 66zM51 -10q297 330 555 665.5t494 704.5q49 10 111.5 16t144.5 10 q-313 -387 -568.5 -731t-472.5 -667q-31 4 -64.5 6t-72.5 2q-63 0 -127 -6zM662 303q135 154 230 269.5t155 207.5q33 -10 62.5 -13t55.5 -3h19l8 -445l61 9q4 -39 6.5 -79t2.5 -81v-47q-8 0 -25.5 1t-28.5 1q-2 -16 -2 -30.5v-26.5q0 -49 6 -76q-203 12 -227 12 q20 39 21 139q-313 -16 -334 -18q-4 18 -6 63t-4 117zM911 317l103 -6q-2 20 -3 41t-1 39t1 36.5t3 35.5q-35 -59 -61.5 -95t-41.5 -51z" />
<glyph unicode="&#xbd;" horiz-adv-x="1515" d="M23 1161q74 66 124 132.5t80 136.5q68 -20 156 -21h25q-4 -39 -7.5 -95.5t-3.5 -129.5q0 -104 5.5 -238.5t15.5 -308.5q-31 8 -99 8q-25 0 -52 -1t-56 -3l12 524l-51 -80q-47 29 -84 48.5t-65 27.5zM51 -10q297 330 555 665.5t494 704.5q49 10 111.5 16t144.5 10 q-313 -387 -568.5 -731t-472.5 -667q-31 4 -64.5 6t-72.5 2q-63 0 -127 -6zM768 2q14 63 20.5 121.5t12.5 110t20.5 94.5t45 73.5t85 47t142.5 16.5q53 0 69.5 14.5t16.5 30.5q0 39 -16.5 50t-71.5 11q-94 0 -103 -61q-156 18 -186 39q4 57 29.5 98t65.5 66.5t88 37t97 11.5 q63 0 116.5 -9.5t93.5 -36t62.5 -74.5t22.5 -126q0 -80 -22.5 -126t-57 -70.5t-80 -32t-88.5 -11.5q-29 -4 -56 -8t-48.5 -13t-35 -26.5t-15.5 -48.5q129 8 197.5 13.5t103.5 8.5t50 7t40 10q6 -16 10 -48t7 -65.5t5.5 -63.5t2.5 -44q-238 6 -373 6q-35 0 -60.5 -1t-50.5 -1 h-139z" />
<glyph unicode="&#xbe;" horiz-adv-x="1519" d="M61 1196q12 63 40 103t66 61.5t82 29t91 7.5q63 0 115.5 -11.5t90.5 -39t58.5 -72.5t20.5 -113q0 -43 -14.5 -75.5t-73.5 -63.5q63 -23 79.5 -58.5t16.5 -80.5q0 -78 -18.5 -128t-54.5 -80t-91 -41t-129 -11q-43 0 -87 8t-82 29.5t-66.5 60.5t-41.5 98l179 55 q18 -25 43.5 -43t64.5 -18q53 0 70.5 12.5t17.5 57.5q0 14 -4 24.5t-18.5 16.5t-43 8t-79.5 2h-64l-4 145q12 0 24.5 -1t24.5 -1q59 0 91 8.5t45.5 19.5t15.5 23.5t4 22.5q0 39 -23.5 48t-62.5 9q-37 0 -57.5 -10t-30.5 -51zM123 -10q297 330 555 665.5t493 704.5 q49 10 111.5 16t144.5 10q-313 -387 -568 -731t-472 -667q-33 4 -65.5 6t-71.5 2q-63 0 -127 -6zM827 238v31.5t2 31.5q117 129 210.5 245t174.5 238q33 -6 68 -11t72 -9l6 -371v-67q4 0 6 1t12 1q6 0 17.5 -1l34.5 -3q0 -37 1 -69t1 -54q0 -61 -5 -78h-38q-18 0 -23 2 q6 -35 8 -59.5t2 -47.5v-22q-80 6 -125 6h-98l14 125h-92h-113.5t-119.5 -2q-14 41 -15 113zM1087 317h91l-2 119q-23 -29 -43.5 -57.5t-45.5 -61.5z" />
<glyph unicode="&#xbf;" horiz-adv-x="1144" d="M76 184q0 133 33.5 212t84 122t109.5 60.5t109.5 30t84 29.5t33.5 58q0 37 -1 52.5t-1 21.5q27 -2 53.5 -3t55.5 -1q43 0 86 2t90 6q-10 -37 -13 -76t-10.5 -74.5t-23.5 -69.5t-53 -62q-53 -41 -119 -65t-124 -48.5t-97 -60t-39 -101.5q0 -125 64.5 -170t205.5 -45 q98 0 162.5 42t87.5 136q53 -8 80 -18t47 -21.5t45 -24t74 -24.5q-16 -92 -66.5 -152.5t-118 -97.5t-146.5 -52t-151 -15q-121 0 -220 15t-170.5 60.5t-111.5 125t-40 208.5zM483 1169q41 2 71 5.5t51.5 5.5t39 3t35.5 1q35 0 73 -1t62 -3q8 -53 10 -90t2 -76 q0 -14 -1 -29.5t-1 -32.5v-51q0 -31 -2 -33q-61 -12 -106 -18t-82 -6q-70 0 -135 14q-6 49 -8.5 81t-3.5 62.5t-2 68.5t-3 99z" />
<glyph unicode="&#xc0;" d="M-12 2q96 240 176 440.5t143.5 371.5t110.5 314.5t78 266.5q57 -6 131.5 -4t132.5 -11q102 -340 227 -677.5t277 -702.5q-12 0 -35 1t-48.5 3t-50 3t-40.5 1q-43 0 -81 -3t-71 -3q-27 117 -53.5 203t-57.5 164q-47 4 -89 7t-103 3q-41 0 -98.5 -3t-137.5 -9 q-43 -117 -66.5 -204t-35.5 -165q-51 6 -96 8t-74 2q-31 0 -66.5 -3t-72.5 -3zM305 1665q76 90 90 228q123 -72 246 -119t233 -72q-14 -23 -26.5 -43t-24.5 -45t-23.5 -55.5t-23.5 -71.5q-63 37 -120.5 62.5t-114 45t-114.5 36t-122 34.5zM471 598h293q-31 119 -66.5 230.5 t-79.5 218.5q-25 -78 -46 -139.5t-39.5 -115t-34 -100.5t-27.5 -94z" />
<glyph unicode="&#xc1;" d="M-12 2q96 240 176 440.5t143.5 371.5t110.5 314.5t78 266.5q57 -6 131.5 -4t132.5 -11q102 -340 227 -677.5t277 -702.5q-12 0 -35 1t-48.5 3t-50 3t-40.5 1q-43 0 -81 -3t-71 -3q-27 117 -53.5 203t-57.5 164q-47 4 -89 7t-103 3q-41 0 -98.5 -3t-137.5 -9 q-43 -117 -66.5 -204t-35.5 -165q-51 6 -96 8t-74 2q-31 0 -66.5 -3t-72.5 -3zM397 1692q84 27 148.5 48t119 42.5t102.5 46.5t101 57q16 -63 31.5 -111t50.5 -110q-82 -27 -136 -46t-102 -38.5t-98 -41t-124 -52.5q-10 33 -19.5 57.5t-20 46t-22.5 45t-31 56.5zM471 598 h293q-31 119 -66.5 230.5t-79.5 218.5q-25 -78 -46 -139.5t-39.5 -115t-34 -100.5t-27.5 -94z" />
<glyph unicode="&#xc2;" d="M-12 2q96 240 176 440.5t143.5 371.5t110.5 314.5t78 266.5q57 -6 131.5 -4t132.5 -11q102 -340 227 -677.5t277 -702.5q-12 0 -35 1t-48.5 3t-50 3t-40.5 1q-43 0 -81 -3t-71 -3q-27 117 -53.5 203t-57.5 164q-47 4 -89 7t-103 3q-41 0 -98.5 -3t-137.5 -9 q-43 -117 -66.5 -204t-35.5 -165q-51 6 -96 8t-74 2q-31 0 -66.5 -3t-72.5 -3zM266 1667q98 41 195.5 95.5t183.5 130.5q74 -72 164 -131.5t188 -106.5q-41 -49 -73.5 -86t-79.5 -82q-76 43 -130.5 99.5t-78.5 105.5q-47 -59 -106.5 -115.5t-125.5 -91.5q-16 35 -49 80 t-88 102zM471 598h293q-31 119 -66.5 230.5t-79.5 218.5q-25 -78 -46 -139.5t-39.5 -115t-34 -100.5t-27.5 -94z" />
<glyph unicode="&#xc3;" d="M-12 2q96 240 176 440.5t143.5 371.5t110.5 314.5t78 266.5q57 -6 131.5 -4t132.5 -11q102 -340 227 -677.5t277 -702.5q-12 0 -35 1t-48.5 3t-50 3t-40.5 1q-43 0 -81 -3t-71 -3q-27 117 -53.5 203t-57.5 164q-47 4 -89 7t-103 3q-41 0 -98.5 -3t-137.5 -9 q-43 -117 -66.5 -204t-35.5 -165q-51 6 -96 8t-74 2q-31 0 -66.5 -3t-72.5 -3zM242 1637q35 88 98 145t156 57q41 0 74.5 -12t64.5 -25.5t59.5 -26t61.5 -12.5q35 0 57.5 25t38.5 72q45 -39 89 -71t85 -60q-49 -98 -104.5 -134t-122.5 -36q-35 0 -80 12t-87 27.5t-76 28 t-46 12.5q-16 0 -39.5 -32t-36.5 -95q-45 33 -91 63.5t-101 61.5zM471 598h293q-31 119 -66.5 230.5t-79.5 218.5q-25 -78 -46 -139.5t-39.5 -115t-34 -100.5t-27.5 -94z" />
<glyph unicode="&#xc4;" d="M-12 2q96 240 176 440.5t143.5 371.5t110.5 314.5t78 266.5q57 -6 131.5 -4t132.5 -11q102 -340 227 -677.5t277 -702.5q-12 0 -35 1t-48.5 3t-50 3t-40.5 1q-43 0 -81 -3t-71 -3q-27 117 -53.5 203t-57.5 164q-47 4 -89 7t-103 3q-41 0 -98.5 -3t-137.5 -9 q-43 -117 -66.5 -204t-35.5 -165q-51 6 -96 8t-74 2q-31 0 -66.5 -3t-72.5 -3zM309 1682v51q0 27 12.5 44t30.5 26.5t39 12.5t39 3q55 0 86 -3t69 -14q4 -45 6.5 -76.5t2.5 -58.5q0 -31 -4.5 -56.5t-8.5 -47.5q-41 -12 -83 -16.5t-83 -4.5q-23 0 -46 1t-48 3q-8 57 -10 86 t-2 50zM471 598h293q-31 119 -66.5 230.5t-79.5 218.5q-25 -78 -46 -139.5t-39.5 -115t-34 -100.5t-27.5 -94zM673 1704v78q18 16 56.5 25.5t79.5 9.5q49 0 77.5 -12.5t44 -31t19.5 -40t4 -39.5q0 -53 -4 -81.5t-12 -51.5q-29 -10 -57.5 -14.5t-51.5 -4.5q-18 0 -53 2t-92 9 q-4 29 -6 50t-3.5 45.5t-1.5 55.5z" />
<glyph unicode="&#xc5;" d="M-12 2q88 221 162.5 409.5t135 350.5t107.5 299t82 256q-160 57 -160 250q0 176 72 250.5t242 74.5q319 0 319 -293q0 -213 -170 -284q100 -324 220 -644.5t266 -670.5q-12 0 -35 1t-48.5 3t-50 3t-40.5 1q-43 0 -81 -3t-71 -3q-27 117 -53.5 203t-57.5 164q-47 4 -89 7 t-103 3q-41 0 -98.5 -3t-137.5 -9q-43 -117 -66.5 -204t-35.5 -165q-51 6 -96 8t-74 2q-31 0 -66.5 -3t-72.5 -3zM471 598h293q-31 119 -68 230.5t-78 218.5q-25 -78 -46 -139.5t-39.5 -115t-34 -100.5t-27.5 -94zM506 1587q0 -131 121 -131q129 0 129 131q0 137 -121 137 q-80 0 -104.5 -28.5t-24.5 -108.5z" />
<glyph unicode="&#xc6;" horiz-adv-x="1540" d="M33 0q203 500 327.5 841t184.5 541q94 4 165.5 6.5t132 4.5t117 2t121 1t144.5 2t186 3q8 -23 8 -133v-146q-106 16 -201.5 22.5t-193.5 6.5h-70q-6 -55 -8 -109.5t-2 -113.5v-88q0 -25 1 -47.5t3 -44.5h103q86 0 173 2t167 6q-2 -6 -2 -31v-139q2 -4 2 -27v-43 q0 -20 2 -22q-94 4 -198.5 8t-184.5 4h-62v-109q0 -55 1 -91t5 -66h2q25 0 66 2t90 6h-2q76 4 168 9t164 5q0 -78 -4 -151.5t-4 -110.5l-230 4h-518q10 129 18.5 252t10.5 252q-59 -2 -115.5 -6t-114.5 -8q-57 -166 -91 -282t-50 -214q-49 6 -85 8t-64 2q-12 0 -35 -1 t-46.5 -3t-46 -3t-34.5 -1zM565 739h105q10 0 22.5 1t22.5 3q6 80 6 160q0 55 -2 107.5t-6 105.5q-33 -88 -69 -182t-79 -195z" />
<glyph unicode="&#xc7;" horiz-adv-x="1269" d="M74 702q0 176 32.5 309.5t106.5 222.5t195.5 134t300.5 45q90 0 162.5 -15.5t132 -52t107.5 -96t91 -147.5q-55 -41 -110.5 -64.5t-114.5 -36.5q-43 90 -109.5 122t-169.5 32q-104 0 -174.5 -27.5t-114.5 -82t-62.5 -134.5t-18.5 -186q0 -258 83 -376t253 -118 q117 0 190.5 37t120.5 123q68 -18 121 -35.5t125 -48.5q-145 -313 -510 -325q10 -12 34 -17q145 -18 146 -225q0 -70 -19.5 -112t-55.5 -65.5t-85 -30.5t-106 -7q-33 0 -72 9t-75 33.5t-62.5 65.5t-34.5 103q45 8 88 22.5t86 36.5q8 -53 29.5 -74.5t52.5 -21.5 q37 0 52.5 12.5t15.5 48.5q0 25 -12.5 34t-31 13.5t-41 10.5t-45 23.5t-42 54t-29.5 102.5q-121 25 -203 83t-133 148t-72.5 209t-21.5 264z" />
<glyph unicode="&#xc8;" horiz-adv-x="1103" d="M84 1397q147 -4 279.5 -6t254.5 -2q246 0 381 12q14 -59 15 -160q0 -23 -3 -45t-3 -74q-172 18 -298 24.5t-235 6.5q-18 0 -35.5 -1t-36.5 -1q-14 0 -26 1t-27 3q-2 -61 -5 -107.5t-3 -82.5v-107q0 -27 2 -31l53 4q111 0 260.5 2.5t323.5 6.5v-33q0 -18 -3 -40t-3 -40 q0 -57 12 -152q-92 8 -203.5 13.5t-210.5 5.5q-35 0 -72.5 -1t-78.5 -1q-18 0 -37.5 1t-42.5 1v-143q0 -59 3 -110.5t5 -104.5q96 2 195.5 7t187.5 11t160 10t115 4q18 -84 18 -151q0 -25 -3 -47.5t-3 -71.5q-49 4 -110.5 6t-161.5 2h-150q-43 0 -81 -1t-68 -1 q-33 0 -57.5 1t-43.5 1q-41 0 -99 -1t-140 -3q6 123 8 248t2 272q0 186 -11.5 414.5t-23.5 460.5zM229 1665q76 90 90 228q123 -72 246 -119t233 -72q-14 -23 -26.5 -43t-24.5 -45t-23.5 -55.5t-23.5 -71.5q-63 37 -120.5 62.5t-114 45t-114.5 36t-122 34.5z" />
<glyph unicode="&#xc9;" horiz-adv-x="1103" d="M84 1397q147 -4 279.5 -6t254.5 -2q246 0 381 12q14 -59 15 -160q0 -23 -3 -45t-3 -74q-172 18 -298 24.5t-235 6.5q-18 0 -35.5 -1t-36.5 -1q-14 0 -26 1t-27 3q-2 -61 -5 -107.5t-3 -82.5v-107q0 -27 2 -31l53 4q111 0 260.5 2.5t323.5 6.5v-33q0 -18 -3 -40t-3 -40 q0 -57 12 -152q-92 8 -203.5 13.5t-210.5 5.5q-35 0 -72.5 -1t-78.5 -1q-18 0 -37.5 1t-42.5 1v-143q0 -59 3 -110.5t5 -104.5q96 2 195.5 7t187.5 11t160 10t115 4q18 -84 18 -151q0 -25 -3 -47.5t-3 -71.5q-49 4 -110.5 6t-161.5 2h-150q-43 0 -81 -1t-68 -1 q-33 0 -57.5 1t-43.5 1q-41 0 -99 -1t-140 -3q6 123 8 248t2 272q0 186 -11.5 414.5t-23.5 460.5zM317 1692q84 27 148.5 48t119 42.5t102.5 46.5t101 57q16 -63 31.5 -111t50.5 -110q-82 -27 -136 -46t-102 -38.5t-98 -41t-124 -52.5q-10 33 -19.5 57.5t-20 46t-22.5 45 t-31 56.5z" />
<glyph unicode="&#xca;" horiz-adv-x="1103" d="M84 1397q147 -4 279.5 -6t254.5 -2q246 0 381 12q14 -59 15 -160q0 -23 -3 -45t-3 -74q-172 18 -298 24.5t-235 6.5q-18 0 -35.5 -1t-36.5 -1q-14 0 -26 1t-27 3q-2 -61 -5 -107.5t-3 -82.5v-107q0 -27 2 -31l53 4q111 0 260.5 2.5t323.5 6.5v-33q0 -18 -3 -40t-3 -40 q0 -57 12 -152q-92 8 -203.5 13.5t-210.5 5.5q-35 0 -72.5 -1t-78.5 -1q-18 0 -37.5 1t-42.5 1v-143q0 -59 3 -110.5t5 -104.5q96 2 195.5 7t187.5 11t160 10t115 4q18 -84 18 -151q0 -25 -3 -47.5t-3 -71.5q-49 4 -110.5 6t-161.5 2h-150q-43 0 -81 -1t-68 -1 q-33 0 -57.5 1t-43.5 1q-41 0 -99 -1t-140 -3q6 123 8 248t2 272q0 186 -11.5 414.5t-23.5 460.5zM188 1667q98 41 195.5 95.5t183.5 130.5q74 -72 164 -131.5t188 -106.5q-41 -49 -73.5 -86t-79.5 -82q-76 43 -130.5 99.5t-78.5 105.5q-47 -59 -106.5 -115.5t-125.5 -91.5 q-16 35 -49 80t-88 102z" />
<glyph unicode="&#xcb;" horiz-adv-x="1103" d="M84 1397q147 -4 279.5 -6t254.5 -2q246 0 381 12q14 -59 15 -160q0 -23 -3 -45t-3 -74q-172 18 -298 24.5t-235 6.5q-18 0 -35.5 -1t-36.5 -1q-14 0 -26 1t-27 3q-2 -61 -5 -107.5t-3 -82.5v-107q0 -27 2 -31l53 4q111 0 260.5 2.5t323.5 6.5v-33q0 -18 -3 -40t-3 -40 q0 -57 12 -152q-92 8 -203.5 13.5t-210.5 5.5q-35 0 -72.5 -1t-78.5 -1q-18 0 -37.5 1t-42.5 1v-143q0 -59 3 -110.5t5 -104.5q96 2 195.5 7t187.5 11t160 10t115 4q18 -84 18 -151q0 -25 -3 -47.5t-3 -71.5q-49 4 -110.5 6t-161.5 2h-150q-43 0 -81 -1t-68 -1 q-33 0 -57.5 1t-43.5 1q-41 0 -99 -1t-140 -3q6 123 8 248t2 272q0 186 -11.5 414.5t-23.5 460.5zM234 1682v51q0 27 12.5 44t30.5 26.5t39 12.5t39 3q55 0 86 -3t69 -14q4 -45 6.5 -76.5t2.5 -58.5q0 -31 -4.5 -56.5t-8.5 -47.5q-41 -12 -83 -16.5t-83 -4.5q-23 0 -46 1 t-48 3q-8 57 -10 86t-2 50zM598 1704v78q18 16 56.5 25.5t79.5 9.5q49 0 77.5 -12.5t44 -31t19.5 -40t4 -39.5q0 -53 -4 -81.5t-12 -51.5q-29 -10 -57.5 -14.5t-51.5 -4.5q-18 0 -53 2t-92 9q-4 29 -6 50t-3.5 45.5t-1.5 55.5z" />
<glyph unicode="&#xcc;" horiz-adv-x="456" d="M-96 1665q76 90 90 228q123 -72 246 -119t233 -72q-14 -23 -26.5 -43t-24.5 -45t-23.5 -55.5t-23.5 -71.5q-63 37 -120.5 62.5t-114 45t-114.5 36t-122 34.5zM68 -2q23 141 34 293.5t11 339.5q0 186 -7.5 375.5t-27.5 382.5q61 12 100 12h160q20 0 24 -2 q-14 -166 -21 -325t-7 -339q0 -211 14 -393t39 -356q-139 25 -174 24q-35 0 -145 -12z" />
<glyph unicode="&#xcd;" horiz-adv-x="456" d="M-4 1692q84 27 148.5 48t119 42.5t102.5 46.5t101 57q16 -63 31.5 -111t50.5 -110q-82 -27 -136 -46t-102 -38.5t-98 -41t-124 -52.5q-10 33 -19.5 57.5t-20 46t-22.5 45t-31 56.5zM68 -2q23 141 34 293.5t11 339.5q0 186 -7.5 375.5t-27.5 382.5q61 12 100 12h160 q20 0 24 -2q-14 -166 -21 -325t-7 -339q0 -211 14 -393t39 -356q-139 25 -174 24q-35 0 -145 -12z" />
<glyph unicode="&#xce;" horiz-adv-x="456" d="M-135 1667q98 41 195.5 95.5t183.5 130.5q74 -72 164 -131.5t188 -106.5q-41 -49 -73.5 -86t-79.5 -82q-76 43 -130.5 99.5t-78.5 105.5q-47 -59 -106.5 -115.5t-125.5 -91.5q-16 35 -49 80t-88 102zM68 -2q23 141 34 293.5t11 339.5q0 186 -7.5 375.5t-27.5 382.5 q61 12 100 12h160q20 0 24 -2q-14 -166 -21 -325t-7 -339q0 -211 14 -393t39 -356q-139 25 -174 24q-35 0 -145 -12z" />
<glyph unicode="&#xcf;" horiz-adv-x="456" d="M-92 1682v51q0 27 12.5 44t30.5 26.5t39 12.5t39 3q55 0 86 -3t69 -14q4 -45 6.5 -76.5t2.5 -58.5q0 -31 -4.5 -56.5t-8.5 -47.5q-41 -12 -83 -16.5t-83 -4.5q-23 0 -46 1t-48 3q-8 57 -10 86t-2 50zM68 -2q23 141 34 293.5t11 339.5q0 186 -7.5 375.5t-27.5 382.5 q61 12 100 12h160q20 0 24 -2q-14 -166 -21 -325t-7 -339q0 -211 14 -393t39 -356q-139 25 -174 24q-35 0 -145 -12zM272 1704v78q18 16 56.5 25.5t79.5 9.5q49 0 77.5 -12.5t44 -31t19.5 -40t4 -39.5q0 -53 -4 -81.5t-12 -51.5q-29 -10 -57.5 -14.5t-51.5 -4.5q-18 0 -53 2 t-92 9q-4 29 -6 50t-3.5 45.5t-1.5 55.5z" />
<glyph unicode="&#xd0;" horiz-adv-x="1361" d="M20 827q35 -4 77 -5t89 -3q-4 160 -10 302.5t-18 273.5q68 4 141.5 5t140.5 1h84q92 0 170 -2t146 -6q139 -8 235 -73t155.5 -165t85 -227t25.5 -260q0 -213 -49 -345.5t-145 -205t-241.5 -98t-338.5 -25.5q-88 0 -177 4t-216 10q8 117 12 228.5t4 234.5v113 q-33 -2 -68.5 -6.5t-76.5 -8.5v54q0 23 2 34t2 27q0 33 -6 64.5t-23 78.5zM428 1153q2 -61 3 -118.5t1 -112.5v-109h78q45 0 75.5 1t50 1t32 1t24.5 1q-4 -20 -6 -47t-2 -59q0 -33 4 -70t17 -78q-88 8 -154 13.5t-119 7.5q0 -94 3 -180.5t7 -172.5h193q55 0 103 2.5t91 8.5 v2q84 14 134.5 49t77 89t34.5 129t8 169q0 84 -12 164t-43 143.5t-83 105.5t-132 52q-49 6 -97 8t-98 2q-37 0 -71.5 -1t-77.5 -1h-41z" />
<glyph unicode="&#xd1;" horiz-adv-x="1382" d="M84 1393q14 0 45 -1t72 -1q39 0 83 2t89 8l16 -8q45 -84 106.5 -187.5t141.5 -229.5t179 -275.5t222 -327.5q4 8 4 22v15v309q0 205 -7 366.5t-25 303.5q43 16 76.5 23t72.5 7q80 0 133 -35q-10 -211 -17 -416.5t-7 -404.5q0 -147 6 -287.5t14 -257.5q-61 -8 -105 -11 t-79 -3q-29 0 -68 2t-86 8q-49 111 -116.5 235t-146.5 253t-165 261t-172 259q-10 -92 -12 -178t-2 -174q0 -160 4 -335t20 -341q-63 10 -131.5 12t-140.5 6q10 186 14 379t4 379q0 180 -5 333.5t-17 289.5zM299 1637q35 88 98 145t156 57q41 0 74.5 -12t64.5 -25.5 t59.5 -26t61.5 -12.5q35 0 57.5 25t38.5 72q45 -39 89 -71t85 -60q-49 -98 -104.5 -134t-122.5 -36q-35 0 -80 12t-87 27.5t-76 28t-46 12.5q-16 0 -39.5 -32t-36.5 -95q-45 33 -91 63.5t-101 61.5z" />
<glyph unicode="&#xd2;" horiz-adv-x="1345" d="M76 690q0 721 626 721q168 0 278 -50t173.5 -142.5t89 -222t27.5 -291.5q0 -717 -600 -717q-178 0 -293 43t-181.5 131t-93 219t-26.5 309zM324 668q0 -121 17 -202t57 -131t104.5 -71.5t156.5 -21.5q104 0 174 31.5t110 91t56.5 145.5t16.5 197q0 100 -13.5 185 t-50.5 146.5t-101.5 96t-168.5 34.5q-182 0 -270 -120.5t-88 -380.5zM346 1665q76 90 90 228q123 -72 246 -119t233 -72q-14 -23 -26.5 -43t-24.5 -45t-23.5 -55.5t-23.5 -71.5q-63 37 -120.5 62.5t-114 45t-114.5 36t-122 34.5z" />
<glyph unicode="&#xd3;" horiz-adv-x="1345" d="M76 690q0 721 626 721q168 0 278 -50t173.5 -142.5t89 -222t27.5 -291.5q0 -717 -600 -717q-178 0 -293 43t-181.5 131t-93 219t-26.5 309zM324 668q0 -121 17 -202t57 -131t104.5 -71.5t156.5 -21.5q104 0 174 31.5t110 91t56.5 145.5t16.5 197q0 100 -13.5 185 t-50.5 146.5t-101.5 96t-168.5 34.5q-182 0 -270 -120.5t-88 -380.5zM438 1692q84 27 148.5 48t119 42.5t102.5 46.5t101 57q16 -63 31.5 -111t50.5 -110q-82 -27 -136 -46t-102 -38.5t-98 -41t-124 -52.5q-10 33 -19.5 57.5t-20 46t-22.5 45t-31 56.5z" />
<glyph unicode="&#xd4;" horiz-adv-x="1345" d="M76 690q0 721 626 721q168 0 278 -50t173.5 -142.5t89 -222t27.5 -291.5q0 -717 -600 -717q-178 0 -293 43t-181.5 131t-93 219t-26.5 309zM307 1667q98 41 195.5 95.5t183.5 130.5q74 -72 164 -131.5t188 -106.5q-41 -49 -73.5 -86t-79.5 -82q-76 43 -130.5 99.5 t-78.5 105.5q-47 -59 -106.5 -115.5t-125.5 -91.5q-16 35 -49 80t-88 102zM324 668q0 -121 17 -202t57 -131t104.5 -71.5t156.5 -21.5q104 0 174 31.5t110 91t56.5 145.5t16.5 197q0 100 -13.5 185t-50.5 146.5t-101.5 96t-168.5 34.5q-182 0 -270 -120.5t-88 -380.5z" />
<glyph unicode="&#xd5;" horiz-adv-x="1345" d="M76 690q0 721 626 721q168 0 278 -50t173.5 -142.5t89 -222t27.5 -291.5q0 -717 -600 -717q-178 0 -293 43t-181.5 131t-93 219t-26.5 309zM281 1637q35 88 98 145t156 57q41 0 74.5 -12t64.5 -25.5t59.5 -26t61.5 -12.5q35 0 57.5 25t38.5 72q45 -39 89 -71t85 -60 q-49 -98 -104.5 -134t-122.5 -36q-35 0 -80 12t-87 27.5t-76 28t-46 12.5q-16 0 -39.5 -32t-36.5 -95q-45 33 -91 63.5t-101 61.5zM324 668q0 -121 17 -202t57 -131t104.5 -71.5t156.5 -21.5q104 0 174 31.5t110 91t56.5 145.5t16.5 197q0 100 -13.5 185t-50.5 146.5 t-101.5 96t-168.5 34.5q-182 0 -270 -120.5t-88 -380.5z" />
<glyph unicode="&#xd6;" horiz-adv-x="1345" d="M76 690q0 721 626 721q168 0 278 -50t173.5 -142.5t89 -222t27.5 -291.5q0 -717 -600 -717q-178 0 -293 43t-181.5 131t-93 219t-26.5 309zM324 668q0 -121 17 -202t57 -131t104.5 -71.5t156.5 -21.5q104 0 174 31.5t110 91t56.5 145.5t16.5 197q0 100 -13.5 185 t-50.5 146.5t-101.5 96t-168.5 34.5q-182 0 -270 -120.5t-88 -380.5zM350 1682v51q0 27 12.5 44t30.5 26.5t39 12.5t39 3q55 0 86 -3t69 -14q4 -45 6.5 -76.5t2.5 -58.5q0 -31 -4.5 -56.5t-8.5 -47.5q-41 -12 -83 -16.5t-83 -4.5q-23 0 -46 1t-48 3q-8 57 -10 86t-2 50z M714 1704v78q18 16 56.5 25.5t79.5 9.5q49 0 77.5 -12.5t44 -31t19.5 -40t4 -39.5q0 -53 -4 -81.5t-12 -51.5q-29 -10 -57.5 -14.5t-51.5 -4.5q-18 0 -53 2t-92 9q-4 29 -6 50t-3.5 45.5t-1.5 55.5z" />
<glyph unicode="&#xd7;" horiz-adv-x="1187" d="M131 420q12 12 43 39.5t73 67.5t93 87.5t102 96.5q-123 135 -282 270q27 27 48 49.5t39.5 45t34 48t31.5 60.5q123 -141 289 -314q61 53 130 128t138 155q41 -53 88 -89t117 -65q-72 -61 -149.5 -131.5t-163.5 -156.5q80 -78 155.5 -148.5t145.5 -136.5q-55 -43 -98 -87 t-72 -99q-12 12 -40 42.5t-68 73.5t-87 93.5t-96 101.5q-82 -80 -152.5 -156t-134.5 -145q-43 55 -86 98t-98 72z" />
<glyph unicode="&#xd8;" horiz-adv-x="1345" d="M131 690q0 721 627 721q49 0 92 -4t82 -12l49 78q49 -14 115 -21.5t123 -15.5q-20 -33 -39 -69t-39 -73q104 -92 142 -241.5t42 -347.5q0 -717 -602 -717q-57 0 -105.5 4t-91.5 12q-10 -27 -20 -53.5t-19 -50.5q-41 16 -70.5 23t-54.5 7q-35 0 -69.5 -7t-95.5 -11 l108 188q-100 86 -137 230.5t-37 359.5zM379 668q0 -111 14.5 -188t48.5 -126q106 205 204.5 413t184.5 394q-20 4 -43.5 6t-50.5 2q-184 0 -271 -120.5t-87 -380.5zM625 248q39 -6 88 -6q106 0 174.5 31.5t109.5 91t57.5 145.5t16.5 197q0 104 -13.5 188t-51.5 147 q-98 -193 -198.5 -398.5t-182.5 -395.5z" />
<glyph unicode="&#xd9;" horiz-adv-x="1284" d="M90 782v126t1 149t3 162t6 163q43 8 76 10.5t64 2.5q63 0 155 -19q-57 -336 -57 -671q0 -117 4 -204t31.5 -143.5t86 -84t169.5 -27.5q98 0 159.5 23.5t97.5 65.5t48 98t12 124v205q0 178 -11 327.5t-34 278.5q47 10 83 16.5t63 6.5q29 0 58.5 -2.5t84.5 -6.5 q6 -72 7 -140t1 -165v-135q0 -141 -2 -267t-16.5 -231.5t-48 -189.5t-97 -143.5t-165 -90t-248.5 -30.5q-190 0 -298 57t-159 160.5t-62.5 250t-11.5 324.5zM315 1665q76 90 90 228q123 -72 246 -119t233 -72q-14 -23 -26.5 -43t-24.5 -45t-23.5 -55.5t-23.5 -71.5 q-63 37 -120.5 62.5t-114 45t-114.5 36t-122 34.5z" />
<glyph unicode="&#xda;" horiz-adv-x="1284" d="M90 782v126t1 149t3 162t6 163q43 8 76 10.5t64 2.5q63 0 155 -19q-57 -336 -57 -671q0 -117 4 -204t31.5 -143.5t86 -84t169.5 -27.5q98 0 159.5 23.5t97.5 65.5t48 98t12 124v205q0 178 -11 327.5t-34 278.5q47 10 83 16.5t63 6.5q29 0 58.5 -2.5t84.5 -6.5 q6 -72 7 -140t1 -165v-135q0 -141 -2 -267t-16.5 -231.5t-48 -189.5t-97 -143.5t-165 -90t-248.5 -30.5q-190 0 -298 57t-159 160.5t-62.5 250t-11.5 324.5zM405 1692q84 27 148.5 48t119 42.5t102.5 46.5t101 57q16 -63 31.5 -111t50.5 -110q-82 -27 -136 -46t-102 -38.5 t-98 -41t-124 -52.5q-10 33 -19.5 57.5t-20 46t-22.5 45t-31 56.5z" />
<glyph unicode="&#xdb;" horiz-adv-x="1284" d="M90 782v126t1 149t3 162t6 163q43 8 76 10.5t64 2.5q63 0 155 -19q-57 -336 -57 -671q0 -117 4 -204t31.5 -143.5t86 -84t169.5 -27.5q98 0 159.5 23.5t97.5 65.5t48 98t12 124v205q0 178 -11 327.5t-34 278.5q47 10 83 16.5t63 6.5q29 0 58.5 -2.5t84.5 -6.5 q6 -72 7 -140t1 -165v-135q0 -141 -2 -267t-16.5 -231.5t-48 -189.5t-97 -143.5t-165 -90t-248.5 -30.5q-190 0 -298 57t-159 160.5t-62.5 250t-11.5 324.5zM274 1667q98 41 195.5 95.5t183.5 130.5q74 -72 164 -131.5t188 -106.5q-41 -49 -73.5 -86t-79.5 -82 q-76 43 -130.5 99.5t-78.5 105.5q-47 -59 -106.5 -115.5t-125.5 -91.5q-16 35 -49 80t-88 102z" />
<glyph unicode="&#xdc;" horiz-adv-x="1284" d="M90 782v126t1 149t3 162t6 163q43 8 76 10.5t64 2.5q63 0 155 -19q-57 -336 -57 -671q0 -117 4 -204t31.5 -143.5t86 -84t169.5 -27.5q98 0 159.5 23.5t97.5 65.5t48 98t12 124v205q0 178 -11 327.5t-34 278.5q47 10 83 16.5t63 6.5q29 0 58.5 -2.5t84.5 -6.5 q6 -72 7 -140t1 -165v-135q0 -141 -2 -267t-16.5 -231.5t-48 -189.5t-97 -143.5t-165 -90t-248.5 -30.5q-190 0 -298 57t-159 160.5t-62.5 250t-11.5 324.5zM320 1682v51q0 27 12.5 44t30.5 26.5t39 12.5t39 3q55 0 86 -3t69 -14q4 -45 6.5 -76.5t2.5 -58.5 q0 -31 -4.5 -56.5t-8.5 -47.5q-41 -12 -83 -16.5t-83 -4.5q-23 0 -46 1t-48 3q-8 57 -10 86t-2 50zM684 1704v78q18 16 56.5 25.5t79.5 9.5q49 0 77.5 -12.5t44 -31t19.5 -40t4 -39.5q0 -53 -4 -81.5t-12 -51.5q-29 -10 -57.5 -14.5t-51.5 -4.5q-18 0 -53 2t-92 9 q-4 29 -6 50t-3.5 45.5t-1.5 55.5z" />
<glyph unicode="&#xdd;" horiz-adv-x="1288" d="M0 1395q23 0 52.5 -1l59 -2t55.5 -2t40 -1q29 0 63.5 2t79.5 8q66 -166 142.5 -293t169.5 -238q66 104 138 231.5t161 307.5q39 -6 71.5 -8t61.5 -2q12 0 23 1t22 1h26q8 0 24.5 -1t33.5 -1h59q-117 -162 -191.5 -262.5t-121.5 -162t-73 -96t-44 -64.5t-36.5 -66.5 t-49.5 -102.5v-88q0 -104 8 -239.5t29 -321.5q-43 6 -61.5 7t-30.5 1h-150q-10 0 -27.5 -2t-35.5 -2q20 154 28.5 272.5t8.5 206.5q0 47 -3.5 90t-7.5 82q-117 174 -243.5 360.5t-280.5 385.5zM407 1692q84 27 148.5 48t119 42.5t102.5 46.5t101 57q16 -63 31.5 -111 t50.5 -110q-82 -27 -136 -46t-102 -38.5t-98 -41t-124 -52.5q-10 33 -19.5 57.5t-20 46t-22.5 45t-31 56.5z" />
<glyph unicode="&#xde;" horiz-adv-x="1234" d="M84 -70q16 174 28.5 378t12.5 397q0 166 -6 335.5t-27 374.5q35 -4 63.5 -6t59.5 -2q27 0 67 2t97 8q-8 -94 -12.5 -179t-8.5 -163q55 78 130 104.5t155 26.5q111 -2 202 -32.5t155.5 -97t101.5 -171t39 -254.5v-20q0 -147 -34 -248.5t-100.5 -164t-164 -91.5t-221.5 -29 q-104 0 -171 36t-118 114q-2 -27 -3 -48.5t-1 -37.5v-62q0 -39 6 -81t20 -78q-82 0 -148.5 -2t-121.5 -9zM354 692q0 -63 11.5 -127.5t40 -117t80 -86t128.5 -33.5q68 0 120 13t88 48t55.5 96.5t19.5 159.5q0 172 -71 242.5t-214 70.5q-78 0 -127 -24.5t-78.5 -63.5t-41 -86 t-11.5 -92z" />
<glyph unicode="&#xdf;" horiz-adv-x="1146" d="M57 -10l13.5 135t7.5 108.5t3 115t1 151.5v528q0 78 31.5 147.5t93 122t150.5 83t204 30.5q113 0 204 -20.5t153.5 -68.5t96.5 -126t34 -195q0 -98 -42 -171.5t-141 -116.5q201 -84 201 -283q0 -143 -36 -232t-98.5 -139.5t-149.5 -68t-189 -17.5l-182 7q8 59 12 115.5 t4 123.5q4 0 36 -3t91 -3h66q57 0 94 11.5t58.5 38t29.5 67.5t8 100q0 37 -27.5 66.5t-69.5 51t-94.5 34t-101.5 12.5h-69q6 59 9 120.5t3 110.5h71q47 0 93.5 10.5t83 30t59.5 48t23 65.5q0 61 -13.5 97t-40 55.5t-68.5 26.5t-98 11q-131 0 -182 -56t-51 -157 q-8 -94 -11 -189t-3 -200q0 -129 6 -276.5t20 -288.5q-37 2 -67.5 2h-53.5q-61 0 -96 -3t-76 -11z" />
<glyph unicode="&#xe0;" horiz-adv-x="1275" d="M70 369q0 180 128 278t396 98q88 0 169 -18t146 -70q-8 106 -26.5 169t-51 94.5t-83 40t-119.5 8.5q-39 0 -76 -1t-74 -18.5t-72.5 -57.5t-72.5 -118q-68 29 -125 54.5t-105 48.5q137 315 539 315q147 0 247.5 -33t161 -109.5t87 -203.5t26.5 -314v-141 q0 -104 10.5 -198.5t28.5 -186.5h-71q-37 0 -86.5 -2t-104.5 -6q-14 20 -20.5 45t-6.5 76q-66 -78 -152.5 -103.5t-203.5 -25.5q-250 0 -369.5 88t-119.5 291zM311 1458q76 90 90 228q123 -72 246 -119t233 -72q-14 -23 -26.5 -43t-24.5 -45t-23.5 -55.5t-23.5 -71.5 q-63 37 -120.5 62.5t-114 45t-114.5 36t-122 34.5zM319 362q8 -45 30 -73.5t55.5 -46t78.5 -23.5t99 -6q59 0 118.5 9t106.5 28.5t75.5 49.5t28.5 73t-32.5 72.5t-79.5 46t-98.5 23.5t-88.5 7q-61 0 -112 -7t-90 -24.5t-62.5 -48t-28.5 -80.5z" />
<glyph unicode="&#xe1;" horiz-adv-x="1275" d="M70 369q0 180 128 278t396 98q88 0 169 -18t146 -70q-8 106 -26.5 169t-51 94.5t-83 40t-119.5 8.5q-39 0 -76 -1t-74 -18.5t-72.5 -57.5t-72.5 -118q-68 29 -125 54.5t-105 48.5q137 315 539 315q147 0 247.5 -33t161 -109.5t87 -203.5t26.5 -314v-141 q0 -104 10.5 -198.5t28.5 -186.5h-71q-37 0 -86.5 -2t-104.5 -6q-14 20 -20.5 45t-6.5 76q-66 -78 -152.5 -103.5t-203.5 -25.5q-250 0 -369.5 88t-119.5 291zM319 362q8 -45 30 -73.5t55.5 -46t78.5 -23.5t99 -6q59 0 118.5 9t106.5 28.5t75.5 49.5t28.5 73t-32.5 72.5 t-79.5 46t-98.5 23.5t-88.5 7q-61 0 -112 -7t-90 -24.5t-62.5 -48t-28.5 -80.5zM401 1485q84 27 148.5 48t119 42.5t102.5 46.5t101 57q16 -63 31.5 -111t50.5 -110q-82 -27 -136 -46t-102 -38.5t-98 -41t-124 -52.5q-10 33 -19.5 57.5t-20 46t-22.5 45t-31 56.5z" />
<glyph unicode="&#xe2;" horiz-adv-x="1275" d="M70 369q0 180 128 278t396 98q88 0 169 -18t146 -70q-8 106 -26.5 169t-51 94.5t-83 40t-119.5 8.5q-39 0 -76 -1t-74 -18.5t-72.5 -57.5t-72.5 -118q-68 29 -125 54.5t-105 48.5q137 315 539 315q147 0 247.5 -33t161 -109.5t87 -203.5t26.5 -314v-141 q0 -104 10.5 -198.5t28.5 -186.5h-71q-37 0 -86.5 -2t-104.5 -6q-14 20 -20.5 45t-6.5 76q-66 -78 -152.5 -103.5t-203.5 -25.5q-250 0 -369.5 88t-119.5 291zM270 1460q98 41 195.5 95.5t183.5 130.5q74 -72 164 -131.5t188 -106.5q-41 -49 -73.5 -86t-79.5 -82 q-76 43 -130.5 99.5t-78.5 105.5q-47 -59 -106.5 -115.5t-125.5 -91.5q-16 35 -49 80t-88 102zM319 362q8 -45 30 -73.5t55.5 -46t78.5 -23.5t99 -6q59 0 118.5 9t106.5 28.5t75.5 49.5t28.5 73t-32.5 72.5t-79.5 46t-98.5 23.5t-88.5 7q-61 0 -112 -7t-90 -24.5t-62.5 -48 t-28.5 -80.5z" />
<glyph unicode="&#xe3;" horiz-adv-x="1275" d="M70 369q0 180 128 278t396 98q88 0 169 -18t146 -70q-8 106 -26.5 169t-51 94.5t-83 40t-119.5 8.5q-39 0 -76 -1t-74 -18.5t-72.5 -57.5t-72.5 -118q-68 29 -125 54.5t-105 48.5q137 315 539 315q147 0 247.5 -33t161 -109.5t87 -203.5t26.5 -314v-141 q0 -104 10.5 -198.5t28.5 -186.5h-71q-37 0 -86.5 -2t-104.5 -6q-14 20 -20.5 45t-6.5 76q-66 -78 -152.5 -103.5t-203.5 -25.5q-250 0 -369.5 88t-119.5 291zM246 1430q35 88 98 145t156 57q41 0 74.5 -12t64.5 -25.5t59.5 -26t61.5 -12.5q35 0 57.5 25t38.5 72 q45 -39 89 -71t85 -60q-49 -98 -104.5 -134t-122.5 -36q-35 0 -80 12t-87 27.5t-76 28t-46 12.5q-16 0 -39.5 -32t-36.5 -95q-45 33 -91 63.5t-101 61.5zM319 362q8 -45 30 -73.5t55.5 -46t78.5 -23.5t99 -6q59 0 118.5 9t106.5 28.5t75.5 49.5t28.5 73t-32.5 72.5t-79.5 46 t-98.5 23.5t-88.5 7q-61 0 -112 -7t-90 -24.5t-62.5 -48t-28.5 -80.5z" />
<glyph unicode="&#xe4;" horiz-adv-x="1275" d="M70 369q0 180 128 278t396 98q88 0 169 -18t146 -70q-8 106 -26.5 169t-51 94.5t-83 40t-119.5 8.5q-39 0 -76 -1t-74 -18.5t-72.5 -57.5t-72.5 -118q-68 29 -125 54.5t-105 48.5q137 315 539 315q147 0 247.5 -33t161 -109.5t87 -203.5t26.5 -314v-141 q0 -104 10.5 -198.5t28.5 -186.5h-71q-37 0 -86.5 -2t-104.5 -6q-14 20 -20.5 45t-6.5 76q-66 -78 -152.5 -103.5t-203.5 -25.5q-250 0 -369.5 88t-119.5 291zM315 1475v51q0 27 12.5 44t30.5 26.5t39 12.5t39 3q55 0 86 -3t69 -14q4 -45 6.5 -76.5t2.5 -58.5 q0 -31 -4.5 -56.5t-8.5 -47.5q-41 -12 -83 -16.5t-83 -4.5q-23 0 -46 1t-48 3q-8 57 -10 86t-2 50zM319 362q8 -45 30 -73.5t55.5 -46t78.5 -23.5t99 -6q59 0 118.5 9t106.5 28.5t75.5 49.5t28.5 73t-32.5 72.5t-79.5 46t-98.5 23.5t-88.5 7q-61 0 -112 -7t-90 -24.5 t-62.5 -48t-28.5 -80.5zM679 1497v78q18 16 56.5 25.5t79.5 9.5q49 0 77.5 -12.5t44 -31t19.5 -40t4 -39.5q0 -53 -4 -81.5t-12 -51.5q-29 -10 -57.5 -14.5t-51.5 -4.5q-18 0 -53 2t-92 9q-4 29 -6 50t-3.5 45.5t-1.5 55.5z" />
<glyph unicode="&#xe5;" horiz-adv-x="1275" d="M70 369q0 180 128 278t396 98q88 0 169 -18t146 -70q-8 106 -26.5 169t-51 94.5t-83 40t-119.5 8.5q-39 0 -76 -1t-74 -18.5t-72.5 -57.5t-72.5 -118q-68 29 -125 54.5t-105 48.5q137 315 539 315q147 0 247.5 -33t161 -109.5t87 -203.5t26.5 -314v-141 q0 -104 10.5 -198.5t28.5 -186.5h-71q-37 0 -86.5 -2t-104.5 -6q-14 20 -20.5 45t-6.5 76q-66 -78 -152.5 -103.5t-203.5 -25.5q-250 0 -369.5 88t-119.5 291zM319 362q8 -45 30 -73.5t55.5 -46t78.5 -23.5t99 -6q59 0 118.5 9t106.5 28.5t75.5 49.5t28.5 73t-32.5 72.5 t-79.5 46t-98.5 23.5t-88.5 7q-61 0 -112 -7t-90 -24.5t-62.5 -48t-28.5 -80.5zM320 1518q0 176 71.5 250t241.5 74q320 0 320 -293q0 -147 -81 -227.5t-229 -80.5q-324 0 -323 277zM510 1536q0 -131 121 -131q129 0 129 131q0 139 -121 140q-80 0 -104.5 -30t-24.5 -110z " />
<glyph unicode="&#xe6;" horiz-adv-x="1949" d="M100 369q0 106 40 181t106.5 122t153.5 69.5t184 22.5q80 0 144.5 -11.5t123.5 -47.5q-4 82 -16.5 132t-38 77.5t-68.5 39t-111 15.5q-53 0 -87.5 -8.5t-62.5 -30t-50.5 -57t-48.5 -91.5q-68 25 -126.5 48.5t-105.5 46.5q68 156 181.5 235.5t314.5 79.5q141 0 225 -35 t141 -108q68 76 159 112.5t243 36.5q123 0 214 -40t150.5 -112.5t89 -173t29.5 -221.5q0 -27 -5 -66.5t-21 -60.5q-186 0 -372 -4t-372 -12v-23q0 -74 12.5 -125t43 -81.5t84 -45t135.5 -14.5q106 0 153 41t70 111q59 -16 113.5 -44t132.5 -79q-41 -74 -86.5 -124 t-101.5 -80t-128 -43t-166 -13q-98 0 -161.5 8t-105.5 23.5t-67.5 36t-50.5 46.5q-37 -35 -86 -56t-106.5 -33.5t-121 -17.5t-128.5 -5q-111 0 -195 16.5t-140 59.5t-85 115.5t-29 187.5zM352 362q16 -90 64.5 -119.5t152.5 -29.5q47 0 98.5 5t93.5 18.5t68.5 37t26.5 58.5 q0 41 -7 79t-32.5 66.5t-76 46t-138.5 17.5q-127 0 -184.5 -38t-65.5 -141zM1141 723q129 0 243.5 1t225.5 3q-2 53 -16.5 99t-41 80t-68 52.5t-98.5 18.5q-131 0 -186 -69.5t-59 -184.5z" />
<glyph unicode="&#xe7;" horiz-adv-x="1198" d="M74 586q0 322 137 466t424 144q362 0 498 -268q-47 -39 -102.5 -62.5t-125.5 -42.5q-90 152 -291 152q-154 0 -220 -96.5t-66 -315.5q0 -94 17 -159.5t56 -105.5t103.5 -58.5t159.5 -18.5q178 0 262 148q68 -31 116 -54.5t82 -52.5l4 -35q-129 -244 -454 -243h-2 q12 -14 35 -19q145 -18 145 -225q0 -70 -19.5 -112t-54.5 -65.5t-84 -30.5t-106 -7q-35 0 -74 9t-75 33.5t-62.5 65.5t-34.5 103q45 8 89 22.5t87 36.5q8 -53 28.5 -74.5t53.5 -21.5q35 0 51.5 12.5t16.5 48.5q0 25 -12.5 34t-32 13.5t-42 10.5t-45 24.5t-42 55t-29.5 104.5 q-203 41 -297 182.5t-94 401.5z" />
<glyph unicode="&#xe8;" horiz-adv-x="1251" d="M76 588q0 281 102 420h-2q166 190 481 190q258 0 391.5 -134t133.5 -370q0 -27 -2 -64.5t-13 -80.5q-117 4 -238.5 6t-232.5 2q-98 0 -187 -2t-181 -4q2 -182 77.5 -257t237.5 -75q111 0 176.5 41t89.5 111q57 -16 112.5 -45.5t131.5 -92.5q-147 -246 -522 -245 q-293 0 -424 147.5t-131 452.5zM299 1458q76 90 90 228q123 -72 246 -119t233 -72q-14 -23 -26.5 -43t-24.5 -45t-23.5 -55.5t-23.5 -71.5q-63 37 -120.5 62.5t-114 45t-114.5 36t-122 34.5zM348 762h72q25 0 29 -2h413h27.5t28.5 2q-29 215 -277 215q-274 0 -293 -215z" />
<glyph unicode="&#xe9;" horiz-adv-x="1251" d="M76 588q0 281 102 420h-2q166 190 481 190q258 0 391.5 -134t133.5 -370q0 -27 -2 -64.5t-13 -80.5q-117 4 -238.5 6t-232.5 2q-98 0 -187 -2t-181 -4q2 -182 77.5 -257t237.5 -75q111 0 176.5 41t89.5 111q57 -16 112.5 -45.5t131.5 -92.5q-147 -246 -522 -245 q-293 0 -424 147.5t-131 452.5zM348 762h72q25 0 29 -2h413h27.5t28.5 2q-29 215 -277 215q-274 0 -293 -215zM391 1485q84 27 148.5 48t119 42.5t102.5 46.5t101 57q16 -63 31.5 -111t50.5 -110q-82 -27 -136 -46t-102 -38.5t-98 -41t-124 -52.5q-10 33 -19.5 57.5t-20 46 t-22.5 45t-31 56.5z" />
<glyph unicode="&#xea;" horiz-adv-x="1251" d="M76 588q0 281 102 420h-2q166 190 481 190q258 0 391.5 -134t133.5 -370q0 -27 -2 -64.5t-13 -80.5q-117 4 -238.5 6t-232.5 2q-98 0 -187 -2t-181 -4q2 -182 77.5 -257t237.5 -75q111 0 176.5 41t89.5 111q57 -16 112.5 -45.5t131.5 -92.5q-147 -246 -522 -245 q-293 0 -424 147.5t-131 452.5zM260 1460q98 41 195.5 95.5t183.5 130.5q74 -72 164 -131.5t188 -106.5q-41 -49 -73.5 -86t-79.5 -82q-76 43 -130.5 99.5t-78.5 105.5q-47 -59 -106.5 -115.5t-125.5 -91.5q-16 35 -49 80t-88 102zM348 762h72q25 0 29 -2h413h27.5t28.5 2 q-29 215 -277 215q-274 0 -293 -215z" />
<glyph unicode="&#xeb;" horiz-adv-x="1251" d="M76 588q0 281 102 420h-2q166 190 481 190q258 0 391.5 -134t133.5 -370q0 -27 -2 -64.5t-13 -80.5q-117 4 -238.5 6t-232.5 2q-98 0 -187 -2t-181 -4q2 -182 77.5 -257t237.5 -75q111 0 176.5 41t89.5 111q57 -16 112.5 -45.5t131.5 -92.5q-147 -246 -522 -245 q-293 0 -424 147.5t-131 452.5zM303 1475v51q0 27 12.5 44t30.5 26.5t39 12.5t39 3q55 0 86 -3t69 -14q4 -45 6.5 -76.5t2.5 -58.5q0 -31 -4.5 -56.5t-8.5 -47.5q-41 -12 -83 -16.5t-83 -4.5q-23 0 -46 1t-48 3q-8 57 -10 86t-2 50zM348 762h72q25 0 29 -2h413h27.5t28.5 2 q-29 215 -277 215q-274 0 -293 -215zM667 1497v78q18 16 56.5 25.5t79.5 9.5q49 0 77.5 -12.5t44 -31t19.5 -40t4 -39.5q0 -53 -4 -81.5t-12 -51.5q-29 -10 -57.5 -14.5t-51.5 -4.5q-18 0 -53 2t-92 9q-4 29 -6 50t-3.5 45.5t-1.5 55.5z" />
<glyph unicode="&#xec;" horiz-adv-x="495" d="M-76 1458q76 90 90 228q123 -72 246 -119t233 -72q-14 -23 -26.5 -43t-24.5 -45t-23.5 -55.5t-23.5 -71.5q-63 37 -120.5 62.5t-114 45t-114.5 36t-122 34.5zM76 -10q27 141 41 273t14 280q0 123 -6 252t-27 288q39 -4 77 -6t73 -2q37 0 71.5 2t69.5 6q-8 -104 -14 -232 t-6 -251q0 -80 1 -150.5t5 -141t12.5 -146.5t22.5 -168q-78 4 -129.5 6t-79.5 2q-31 0 -58.5 -3t-66.5 -9z" />
<glyph unicode="&#xed;" horiz-adv-x="495" d="M16 1485q84 27 148.5 48t119 42.5t102.5 46.5t101 57q16 -63 31.5 -111t50.5 -110q-82 -27 -136 -46t-102 -38.5t-98 -41t-124 -52.5q-10 33 -19.5 57.5t-20 46t-22.5 45t-31 56.5zM76 -10q27 141 41 273t14 280q0 123 -6 252t-27 288q39 -4 77 -6t73 -2q37 0 71.5 2 t69.5 6q-8 -104 -14 -232t-6 -251q0 -80 1 -150.5t5 -141t12.5 -146.5t22.5 -168q-78 4 -129.5 6t-79.5 2q-31 0 -58.5 -3t-66.5 -9z" />
<glyph unicode="&#xee;" horiz-adv-x="495" d="M-115 1460q98 41 195.5 95.5t183.5 130.5q74 -72 164 -131.5t188 -106.5q-41 -49 -73.5 -86t-79.5 -82q-76 43 -130.5 99.5t-78.5 105.5q-47 -59 -106.5 -115.5t-125.5 -91.5q-16 35 -49 80t-88 102zM76 -10q27 141 41 273t14 280q0 123 -6 252t-27 288q39 -4 77 -6 t73 -2q37 0 71.5 2t69.5 6q-8 -104 -14 -232t-6 -251q0 -80 1 -150.5t5 -141t12.5 -146.5t22.5 -168q-78 4 -129.5 6t-79.5 2q-31 0 -58.5 -3t-66.5 -9z" />
<glyph unicode="&#xef;" horiz-adv-x="495" d="M-72 1475v51q0 27 12.5 44t30.5 26.5t39 12.5t39 3q55 0 86 -3t69 -14q4 -45 6.5 -76.5t2.5 -58.5q0 -31 -4.5 -56.5t-8.5 -47.5q-41 -12 -83 -16.5t-83 -4.5q-23 0 -46 1t-48 3q-8 57 -10 86t-2 50zM76 -10q27 141 41 273t14 280q0 123 -6 252t-27 288q39 -4 77 -6 t73 -2q37 0 71.5 2t69.5 6q-8 -104 -14 -232t-6 -251q0 -80 1 -150.5t5 -141t12.5 -146.5t22.5 -168q-78 4 -129.5 6t-79.5 2q-31 0 -58.5 -3t-66.5 -9zM292 1497v78q18 16 56.5 25.5t79.5 9.5q49 0 77.5 -12.5t44 -31t19.5 -40t4 -39.5q0 -53 -4 -81.5t-12 -51.5 q-29 -10 -57.5 -14.5t-51.5 -4.5q-18 0 -53 2t-92 9q-4 29 -6 50t-3.5 45.5t-1.5 55.5z" />
<glyph unicode="&#xf0;" horiz-adv-x="1236" d="M76 520v39q0 76 9 151.5t56 136t147.5 97.5t282.5 37h35q37 0 74 -2t76 -13.5t80 -36t86 -69.5q-8 92 -28 152.5t-54.5 96.5t-86 49t-122.5 13h-62q-18 0 -20 -2q2 -6 17.5 -27.5t31.5 -39.5q-47 -23 -96.5 -44.5t-104.5 -41.5q-37 43 -41 59q-14 -16 -24 -35.5 t-21 -38.5q-59 12 -114.5 36t-110.5 65q33 72 67.5 122t71.5 85q-16 23 -29.5 41t-31.5 61q113 35 194 129l60 -139q31 4 65.5 8t75.5 4q205 0 325 -32.5t182 -113.5t79.5 -218.5t17.5 -346.5t-16.5 -346t-75.5 -220t-174 -117.5t-311 -36.5h-19q-164 0 -261 40.5 t-148.5 113.5t-66.5 171.5t-15 212.5zM330 477q0 -145 66.5 -199.5t209.5 -54.5q80 0 137.5 14.5t92 53.5t51 105.5t16.5 170.5q-16 35 -40.5 68t-60.5 57.5t-82 38.5t-108 14h-14q-68 -4 -117 -13t-81.5 -33.5t-50 -68.5t-19.5 -116v-37z" />
<glyph unicode="&#xf1;" horiz-adv-x="1280" d="M76 0q23 135 35 283.5t12 322.5q0 154 -8.5 284t-26.5 271q63 18 150 19q33 0 65.5 -2t69.5 -7l-21 -114q150 162 359 162q61 0 124.5 -16.5t121 -49.5t103.5 -80t75 -108q18 -41 28.5 -132.5t10.5 -220.5v-163q0 -111 5.5 -223.5t28.5 -229.5q-119 6 -194.5 8t-141.5 2 q27 135 40.5 244.5t13.5 220.5q0 150 -11.5 246t-41 152.5t-83 78t-139.5 21.5q-92 0 -149.5 -34t-89 -98.5t-44 -158.5t-12.5 -213q0 -195 37 -465q-43 2 -83 3t-81 1t-77.5 -1t-75.5 -3zM248 1430q35 88 98 145t156 57q41 0 74.5 -12t64.5 -25.5t59.5 -26t61.5 -12.5 q35 0 57.5 25t38.5 72q45 -39 89 -71t85 -60q-49 -98 -104.5 -134t-122.5 -36q-35 0 -80 12t-87 27.5t-76 28t-46 12.5q-16 0 -39.5 -32t-36.5 -95q-45 33 -91 63.5t-101 61.5z" />
<glyph unicode="&#xf2;" horiz-adv-x="1296" d="M76 543q0 348 137 505.5t430 157.5q578 0 578 -594q0 -307 -137.5 -465.5t-419.5 -158.5q-588 0 -588 555zM321 1458q76 90 90 228q123 -72 246 -119t233 -72q-14 -23 -26.5 -43t-24.5 -45t-23.5 -55.5t-23.5 -71.5q-63 37 -120.5 62.5t-114 45t-114.5 36t-122 34.5z M324 590q0 -383 317 -383q328 0 328 375q0 403 -318 403q-96 0 -159.5 -20.5t-100.5 -66.5t-52 -121.5t-15 -186.5z" />
<glyph unicode="&#xf3;" horiz-adv-x="1296" d="M76 543q0 348 137 505.5t430 157.5q578 0 578 -594q0 -307 -137.5 -465.5t-419.5 -158.5q-588 0 -588 555zM324 590q0 -383 317 -383q328 0 328 375q0 403 -318 403q-96 0 -159.5 -20.5t-100.5 -66.5t-52 -121.5t-15 -186.5zM411 1485q84 27 148.5 48t119 42.5 t102.5 46.5t101 57q16 -63 31.5 -111t50.5 -110q-82 -27 -136 -46t-102 -38.5t-98 -41t-124 -52.5q-10 33 -19.5 57.5t-20 46t-22.5 45t-31 56.5z" />
<glyph unicode="&#xf4;" horiz-adv-x="1296" d="M76 543q0 348 137 505.5t430 157.5q578 0 578 -594q0 -307 -137.5 -465.5t-419.5 -158.5q-588 0 -588 555zM280 1460q98 41 195.5 95.5t183.5 130.5q74 -72 164 -131.5t188 -106.5q-41 -49 -73.5 -86t-79.5 -82q-76 43 -130.5 99.5t-78.5 105.5q-47 -59 -106.5 -115.5 t-125.5 -91.5q-16 35 -49 80t-88 102zM324 590q0 -383 317 -383q328 0 328 375q0 403 -318 403q-96 0 -159.5 -20.5t-100.5 -66.5t-52 -121.5t-15 -186.5z" />
<glyph unicode="&#xf5;" horiz-adv-x="1296" d="M76 543q0 348 137 505.5t430 157.5q578 0 578 -594q0 -307 -137.5 -465.5t-419.5 -158.5q-588 0 -588 555zM256 1430q35 88 98 145t156 57q41 0 74.5 -12t64.5 -25.5t59.5 -26t61.5 -12.5q35 0 57.5 25t38.5 72q45 -39 89 -71t85 -60q-49 -98 -104.5 -134t-122.5 -36 q-35 0 -80 12t-87 27.5t-76 28t-46 12.5q-16 0 -39.5 -32t-36.5 -95q-45 33 -91 63.5t-101 61.5zM324 590q0 -383 317 -383q328 0 328 375q0 403 -318 403q-96 0 -159.5 -20.5t-100.5 -66.5t-52 -121.5t-15 -186.5z" />
<glyph unicode="&#xf6;" horiz-adv-x="1296" d="M76 543q0 348 137 505.5t430 157.5q578 0 578 -594q0 -307 -137.5 -465.5t-419.5 -158.5q-588 0 -588 555zM324 590q0 -383 317 -383q328 0 328 375q0 403 -318 403q-96 0 -159.5 -20.5t-100.5 -66.5t-52 -121.5t-15 -186.5zM326 1475v51q0 27 12.5 44t30.5 26.5t39 12.5 t39 3q55 0 86 -3t69 -14q4 -45 6.5 -76.5t2.5 -58.5q0 -31 -4.5 -56.5t-8.5 -47.5q-41 -12 -83 -16.5t-83 -4.5q-23 0 -46 1t-48 3q-8 57 -10 86t-2 50zM690 1497v78q18 16 56.5 25.5t79.5 9.5q49 0 77.5 -12.5t44 -31t19.5 -40t4 -39.5q0 -53 -4 -81.5t-12 -51.5 q-29 -10 -57.5 -14.5t-51.5 -4.5q-18 0 -53 2t-92 9q-4 29 -6 50t-3.5 45.5t-1.5 55.5z" />
<glyph unicode="&#xf7;" horiz-adv-x="1187" d="M63 842q117 -8 247 -12.5t280 -4.5t284 3t256 8q-4 -35 -7 -66t-3 -61q0 -70 21 -125q-20 2 -74.5 5t-128.5 5t-160 3t-166 1q-92 0 -229 -1t-285 -7q0 16 2 29.5t2 27.5q0 99 -39 195zM453 334q0 27 1 54.5t3 45.5q66 10 106.5 14.5t67.5 4.5q35 0 56.5 -3.5t51.5 -7.5 q4 -43 7.5 -70.5t3.5 -60.5q0 -23 -2.5 -60.5t-8.5 -76.5q-74 0 -122 -2t-95 -2q-16 0 -31.5 1t-27.5 3q-6 53 -8 94t-2 66zM455 1106q0 27 3 58.5t13 78.5q78 0 132 1t114 1q25 0 28 -4q6 -53 8.5 -102t2.5 -103v-26.5t-4 -26.5q-102 -18 -164 -18q-37 0 -66.5 3t-52.5 7 q-4 43 -9 70.5t-5 60.5z" />
<glyph unicode="&#xf8;" horiz-adv-x="1280" d="M88 543q0 348 138.5 505.5t430.5 157.5q51 0 99.5 -6t95.5 -16l39 82q41 8 119 8q35 0 71.5 -2t75.5 -4q-23 -35 -50.5 -79t-57.5 -95q184 -147 184 -482q0 -307 -137.5 -465.5t-419.5 -158.5q-117 0 -207 20q-10 -23 -18.5 -45t-16.5 -43q-41 16 -70.5 21.5t-52.5 5.5 q-35 0 -70.5 -6.5t-95.5 -10.5l113 174q-170 139 -170 439zM336 590q0 -164 59 -260q98 162 186.5 327.5t166.5 319.5q-35 8 -82 8q-98 0 -162 -20.5t-100.5 -66.5t-52 -121.5t-15.5 -186.5zM563 215q35 -8 90 -8q328 0 328 375q0 92 -17.5 162.5t-50.5 121.5 q-92 -160 -183 -328.5t-167 -322.5z" />
<glyph unicode="&#xf9;" d="M86 608q0 31 2 88.5t5 117.5t5 113.5t2 78.5q0 49 -3 96t-11 88q66 14 129 14q33 0 73 -2t95 -12q-27 -248 -39 -380t-12 -169q0 -80 7 -156.5t35.5 -135t86 -94.5t157.5 -36q94 0 153.5 31t93.5 88t46.5 141t12.5 193q0 20 -8.5 162.5t-22.5 371.5q25 -2 72 -4t71 -2 q27 0 72 2t70 4q-10 -160 -16.5 -332t-6.5 -325q0 -127 3.5 -255t17.5 -294q-68 6 -112 9t-91 3h-68q0 10 3 44t12 91q-76 -90 -171.5 -122.5t-185.5 -32.5q-174 0 -270 53t-142.5 141t-55.5 198t-9 224zM305 1458q76 90 90 228q123 -72 246 -119t233 -72q-14 -23 -26.5 -43 t-24.5 -45t-23.5 -55.5t-23.5 -71.5q-63 37 -120.5 62.5t-114 45t-114.5 36t-122 34.5z" />
<glyph unicode="&#xfa;" d="M86 608q0 31 2 88.5t5 117.5t5 113.5t2 78.5q0 49 -3 96t-11 88q66 14 129 14q33 0 73 -2t95 -12q-27 -248 -39 -380t-12 -169q0 -80 7 -156.5t35.5 -135t86 -94.5t157.5 -36q94 0 153.5 31t93.5 88t46.5 141t12.5 193q0 20 -8.5 162.5t-22.5 371.5q25 -2 72 -4t71 -2 q27 0 72 2t70 4q-10 -160 -16.5 -332t-6.5 -325q0 -127 3.5 -255t17.5 -294q-68 6 -112 9t-91 3h-68q0 10 3 44t12 91q-76 -90 -171.5 -122.5t-185.5 -32.5q-174 0 -270 53t-142.5 141t-55.5 198t-9 224zM397 1485q84 27 148.5 48t119 42.5t102.5 46.5t101 57 q16 -63 31.5 -111t50.5 -110q-82 -27 -136 -46t-102 -38.5t-98 -41t-124 -52.5q-10 33 -19.5 57.5t-20 46t-22.5 45t-31 56.5z" />
<glyph unicode="&#xfb;" d="M86 608q0 31 2 88.5t5 117.5t5 113.5t2 78.5q0 49 -3 96t-11 88q66 14 129 14q33 0 73 -2t95 -12q-27 -248 -39 -380t-12 -169q0 -80 7 -156.5t35.5 -135t86 -94.5t157.5 -36q94 0 153.5 31t93.5 88t46.5 141t12.5 193q0 20 -8.5 162.5t-22.5 371.5q25 -2 72 -4t71 -2 q27 0 72 2t70 4q-10 -160 -16.5 -332t-6.5 -325q0 -127 3.5 -255t17.5 -294q-68 6 -112 9t-91 3h-68q0 10 3 44t12 91q-76 -90 -171.5 -122.5t-185.5 -32.5q-174 0 -270 53t-142.5 141t-55.5 198t-9 224zM266 1460q98 41 195.5 95.5t183.5 130.5q74 -72 164 -131.5 t188 -106.5q-41 -49 -73.5 -86t-79.5 -82q-76 43 -130.5 99.5t-78.5 105.5q-47 -59 -106.5 -115.5t-125.5 -91.5q-16 35 -49 80t-88 102z" />
<glyph unicode="&#xfc;" d="M86 608q0 31 2 88.5t5 117.5t5 113.5t2 78.5q0 49 -3 96t-11 88q66 14 129 14q33 0 73 -2t95 -12q-27 -248 -39 -380t-12 -169q0 -80 7 -156.5t35.5 -135t86 -94.5t157.5 -36q94 0 153.5 31t93.5 88t46.5 141t12.5 193q0 20 -8.5 162.5t-22.5 371.5q25 -2 72 -4t71 -2 q27 0 72 2t70 4q-10 -160 -16.5 -332t-6.5 -325q0 -127 3.5 -255t17.5 -294q-68 6 -112 9t-91 3h-68q0 10 3 44t12 91q-76 -90 -171.5 -122.5t-185.5 -32.5q-174 0 -270 53t-142.5 141t-55.5 198t-9 224zM309 1475v51q0 27 12.5 44t30.5 26.5t39 12.5t39 3q55 0 86 -3 t69 -14q4 -45 6.5 -76.5t2.5 -58.5q0 -31 -4.5 -56.5t-8.5 -47.5q-41 -12 -83 -16.5t-83 -4.5q-23 0 -46 1t-48 3q-8 57 -10 86t-2 50zM673 1497v78q18 16 56.5 25.5t79.5 9.5q49 0 77.5 -12.5t44 -31t19.5 -40t4 -39.5q0 -53 -4 -81.5t-12 -51.5q-29 -10 -57.5 -14.5 t-51.5 -4.5q-18 0 -53 2t-92 9q-4 29 -6 50t-3.5 45.5t-1.5 55.5z" />
<glyph unicode="&#xfd;" horiz-adv-x="1292" d="M80 711q0 20 1 65t3 99.5t3 110.5t1 99q0 23 -1 45.5t-7 67.5q57 -8 96 -10t68 -2t59.5 2t67.5 8q-20 -135 -28.5 -254t-8.5 -197q0 -135 18.5 -214.5t56 -121.5t95 -53.5t137.5 -11.5q76 0 134.5 18.5t98 66.5t60 132t20.5 217q0 80 -8 184.5t-31 221.5q55 0 105.5 2 t79.5 2q31 0 51 -1t53 -7q0 -39 -3 -117t-6 -162t-6 -159.5t-3 -110.5q0 -16 1 -30.5t1 -33.5v-57q0 -176 -19.5 -319.5t-78 -247t-167 -159.5t-286.5 -56q-174 0 -300 57t-224 186q35 29 82.5 61.5t113.5 65.5q68 -76 160 -116.5t209 -40.5q35 0 75 10t77.5 43t68.5 94.5 t47 165.5q-141 -141 -330 -141q-117 0 -215 22.5t-169.5 88t-111.5 182t-40 305.5zM409 1485q84 27 148.5 48t119 42.5t102.5 46.5t101 57q16 -63 31.5 -111t50.5 -110q-82 -27 -136 -46t-102 -38.5t-98 -41t-124 -52.5q-10 33 -19.5 57.5t-20 46t-22.5 45t-31 56.5z" />
<glyph unicode="&#xfe;" horiz-adv-x="1234" d="M84 -70q16 174 28.5 378t12.5 397q0 166 -6 335.5t-27 374.5q35 -4 63.5 -6t59.5 -2q27 0 67 2t97 8q-8 -94 -12.5 -179t-8.5 -163q55 78 130 104.5t155 26.5q111 -2 202 -32.5t155.5 -97t101.5 -171t39 -254.5v-20q0 -147 -34 -248.5t-100.5 -164t-164 -91.5t-221.5 -29 q-104 0 -171 36t-118 114q-2 -27 -3 -56.5t-1 -62.5q0 -70 6 -111t20 -77q-82 0 -148.5 -2t-121.5 -9zM354 692q0 -63 11.5 -127.5t40 -117t80 -86t128.5 -33.5q68 0 120 13t88 48t55.5 96.5t19.5 159.5q0 172 -71 242.5t-214 70.5q-78 0 -127 -24.5t-78.5 -63.5t-41 -86 t-11.5 -92z" />
<glyph unicode="&#xff;" horiz-adv-x="1292" d="M80 711q0 20 1 65t3 99.5t3 110.5t1 99q0 23 -1 45.5t-7 67.5q57 -8 96 -10t68 -2t59.5 2t67.5 8q-20 -135 -28.5 -254t-8.5 -197q0 -135 18.5 -214.5t56 -121.5t95 -53.5t137.5 -11.5q76 0 134.5 18.5t98 66.5t60 132t20.5 217q0 80 -8 184.5t-31 221.5q55 0 105.5 2 t79.5 2q31 0 51 -1t53 -7q0 -39 -3 -117t-6 -162t-6 -159.5t-3 -110.5q0 -16 1 -30.5t1 -33.5v-57q0 -176 -19.5 -319.5t-78 -247t-167 -159.5t-286.5 -56q-174 0 -300 57t-224 186q35 29 82.5 61.5t113.5 65.5q68 -76 160 -116.5t209 -40.5q35 0 75 10t77.5 43t68.5 94.5 t47 165.5q-141 -141 -330 -141q-117 0 -215 22.5t-169.5 88t-111.5 182t-40 305.5zM324 1475v51q0 27 12.5 44t30.5 26.5t39 12.5t39 3q55 0 86 -3t69 -14q4 -45 6.5 -76.5t2.5 -58.5q0 -31 -4.5 -56.5t-8.5 -47.5q-41 -12 -83 -16.5t-83 -4.5q-23 0 -46 1t-48 3 q-8 57 -10 86t-2 50zM688 1497v78q18 16 56.5 25.5t79.5 9.5q49 0 77.5 -12.5t44 -31t19.5 -40t4 -39.5q0 -53 -4 -81.5t-12 -51.5q-29 -10 -57.5 -14.5t-51.5 -4.5q-18 0 -53 2t-92 9q-4 29 -6 50t-3.5 45.5t-1.5 55.5z" />
<glyph unicode="&#x152;" horiz-adv-x="1777" d="M96 690q0 365 140.5 543t449.5 178q72 0 132.5 -17.5t117.5 -68.5l-8 72q43 -2 110.5 -3t122.5 -1t101.5 1t92.5 3t95 3t111 1h120q6 -61 8.5 -107.5t2.5 -81.5t-1 -55t-1 -29q-123 18 -210 24.5t-153 6.5q-31 0 -63.5 -1t-71.5 -3q-4 -78 -7 -134t-3 -93t1 -61.5 t3 -41.5q135 0 249.5 2t237.5 7q-2 -25 -4 -66t-2 -66q0 -18 1 -47.5t9 -70.5l-157 8q-18 4 -40 4h-50h-87h-157q-2 -39 -3 -71.5t-1 -69.5q0 -61 2 -113.5t8 -103.5h82q33 0 87 5t113.5 10t117 10t98.5 5q8 -43 11 -85t3 -85q0 -10 -1 -20t-1 -21v-61q-57 6 -126 8t-173 2 q-4 -2 -23 -2h-163q-4 -2 -25 -2h-250l-2 86q-55 -59 -126 -79.5t-163 -20.5q-174 0 -282.5 43t-169 131t-82 219t-21.5 309zM356 668q0 -121 12.5 -203t44 -133t87 -73.5t141.5 -22.5q100 0 161.5 32.5t94.5 94t43 148.5t10 196q0 102 -7 188t-36.5 147.5t-86 96.5 t-154.5 35q-174 0 -242 -124t-68 -382z" />
<glyph unicode="&#x153;" horiz-adv-x="2007" d="M94 543q0 174 30 300t93.5 206.5t163.5 118.5t242 38q281 0 405 -186q57 109 155.5 143.5t237.5 34.5q246 0 357.5 -135t111.5 -369q0 -31 -4 -61.5t-14 -73.5q-231 12 -412 12q-80 0 -153.5 -3t-155.5 -7v-4q0 -166 58.5 -252t199.5 -86q100 0 145 41t62 109 q119 -27 223 -113l8 -37q-31 -59 -71.5 -103t-94 -73t-123 -42t-161.5 -13q-111 0 -176.5 21.5t-122.5 68.5v-4q-35 35 -86 112q-35 -57 -72 -95t-82 -61.5t-98 -32.5t-119 -9q-289 0 -418 136t-129 419zM352 590q0 -193 58.5 -288t210.5 -95q154 0 213 91t59 284 q0 205 -57.5 304t-204.5 99q-98 0 -152.5 -25.5t-82 -74.5t-35 -123t-9.5 -172zM1174 766q37 -4 73.5 -5t81.5 -1q53 0 120 1t165 5q-4 94 -45 152.5t-148 58.5h-14q-129 0 -180 -50t-53 -161z" />
<glyph unicode="&#x178;" horiz-adv-x="1288" d="M0 1395q23 0 52.5 -1l59 -2t55.5 -2t40 -1q29 0 63.5 2t79.5 8q66 -166 142.5 -293t169.5 -238q66 104 138 231.5t161 307.5q39 -6 71.5 -8t61.5 -2q12 0 23 1t22 1h26q8 0 24.5 -1t33.5 -1h59q-117 -162 -191.5 -262.5t-121.5 -162t-73 -96t-44 -64.5t-36.5 -66.5 t-49.5 -102.5v-88q0 -104 8 -239.5t29 -321.5q-43 6 -61.5 7t-30.5 1h-150q-10 0 -27.5 -2t-35.5 -2q20 154 28.5 272.5t8.5 206.5q0 47 -3.5 90t-7.5 82q-117 174 -243.5 360.5t-280.5 385.5zM322 1682v51q0 27 12.5 44t30.5 26.5t39 12.5t39 3q55 0 86 -3t69 -14 q4 -45 6.5 -76.5t2.5 -58.5q0 -31 -4.5 -56.5t-8.5 -47.5q-41 -12 -83 -16.5t-83 -4.5q-23 0 -46 1t-48 3q-8 57 -10 86t-2 50zM686 1704v78q18 16 56.5 25.5t79.5 9.5q49 0 77.5 -12.5t44 -31t19.5 -40t4 -39.5q0 -53 -4 -81.5t-12 -51.5q-29 -10 -57.5 -14.5t-51.5 -4.5 q-18 0 -53 2t-92 9q-4 29 -6 50t-3.5 45.5t-1.5 55.5z" />
<glyph unicode="&#x2c6;" horiz-adv-x="1161" d="M260 1460q98 41 195.5 95.5t183.5 130.5q74 -72 164 -131.5t188 -106.5q-41 -49 -73.5 -86t-79.5 -82q-76 43 -130.5 99.5t-78.5 105.5q-47 -59 -106.5 -115.5t-125.5 -91.5q-16 35 -49 80t-88 102z" />
<glyph unicode="&#x2dc;" horiz-adv-x="1161" d="M201 1430q35 88 98 145t156 57q41 0 74.5 -12t64.5 -25.5t59.5 -26t61.5 -12.5q35 0 57.5 25t38.5 72q45 -39 89 -71t85 -60q-49 -98 -104.5 -134t-122.5 -36q-35 0 -80 12t-87 27.5t-76 28t-46 12.5q-16 0 -39.5 -32t-36.5 -95q-45 33 -91 63.5t-101 61.5z" />
<glyph unicode="&#x2000;" horiz-adv-x="946" />
<glyph unicode="&#x2001;" horiz-adv-x="1893" />
<glyph unicode="&#x2002;" horiz-adv-x="946" />
<glyph unicode="&#x2003;" horiz-adv-x="1893" />
<glyph unicode="&#x2004;" horiz-adv-x="631" />
<glyph unicode="&#x2005;" horiz-adv-x="473" />
<glyph unicode="&#x2006;" horiz-adv-x="315" />
<glyph unicode="&#x2007;" horiz-adv-x="315" />
<glyph unicode="&#x2008;" horiz-adv-x="236" />
<glyph unicode="&#x2009;" horiz-adv-x="378" />
<glyph unicode="&#x200a;" horiz-adv-x="105" />
<glyph unicode="&#x2010;" horiz-adv-x="776" d="M59 846q61 -4 147.5 -7t184.5 -8h156q47 0 76.5 1.5t49 1.5t32 1t24.5 1q-4 -18 -6 -46t-2 -61t4 -69.5t18 -75.5q-129 12 -210.5 16t-155.5 4t-139.5 -2t-155.5 -12v51q0 23 2 34t2 27q0 35 -6 66t-21 78z" />
<glyph unicode="&#x2011;" horiz-adv-x="776" d="M59 846q61 -4 147.5 -7t184.5 -8h156q47 0 76.5 1.5t49 1.5t32 1t24.5 1q-4 -18 -6 -46t-2 -61t4 -69.5t18 -75.5q-129 12 -210.5 16t-155.5 4t-139.5 -2t-155.5 -12v51q0 23 2 34t2 27q0 35 -6 66t-21 78z" />
<glyph unicode="&#x2012;" horiz-adv-x="776" d="M59 846q61 -4 147.5 -7t184.5 -8h156q47 0 76.5 1.5t49 1.5t32 1t24.5 1q-4 -18 -6 -46t-2 -61t4 -69.5t18 -75.5q-129 12 -210.5 16t-155.5 4t-139.5 -2t-155.5 -12v51q0 23 2 34t2 27q0 35 -6 66t-21 78z" />
<glyph unicode="&#x2013;" horiz-adv-x="1126" d="M70 842q61 0 156.5 -2t206 -3t226 -3.5t215.5 -2.5q39 0 95.5 2.5t87.5 2.5q-2 -16 -6 -47t-4 -87q0 -48 6 -116q-141 10 -276.5 14t-293.5 4q-111 0 -219 -5t-172 -9q0 25 3 53.5t3 46.5q0 20 -6 56t-22 96z" />
<glyph unicode="&#x2014;" horiz-adv-x="1589" d="M57 842q53 0 165 -1t254 -2t300 -3t301 -5h275q45 0 88 2.5t67 2.5q-2 -16 -6 -58.5t-4 -95.5q0 -23 1 -44.5t3 -43.5h-41q-66 0 -159 2t-200.5 3t-225 3t-234.5 2q-86 0 -173 -1t-164 -3t-136 -5t-88 -5q0 25 3 53.5t3 46.5q0 20 -6 56t-23 96z" />
<glyph unicode="&#x2018;" horiz-adv-x="559" d="M35 1108q0 96 12 183t43 152.5t85 104.5t138 39q53 0 101.5 -20.5t95.5 -57.5q-18 -25 -51 -55.5t-82 -73.5q-33 33 -60 33q-37 0 -53 -27.5t-18 -74.5q0 -10 45 -11q25 0 57.5 2.5t63.5 2.5q4 -41 7 -82t3 -82q0 -43 -3 -84t-7 -82q-29 -6 -85.5 -11.5t-113.5 -5.5 q-63 0 -99 8.5t-53.5 27t-21.5 46t-4 68.5z" />
<glyph unicode="&#x2019;" horiz-adv-x="559" d="M47 1026q16 25 48 56.5t79 74.5q39 -31 62 -31q37 0 52 30t15 75q0 6 -25.5 7t-46.5 1q-18 0 -31.5 -3t-62.5 -3q-8 47 -11 94t-3 94q0 70 6 142q49 8 86 13t64 5q35 0 72.5 -3t68.5 -9t51.5 -16.5t20.5 -24.5q0 -45 9 -87t9 -110q0 -80 -17.5 -148.5t-51 -119.5t-86 -81 t-122.5 -30q-100 0 -186 74z" />
<glyph unicode="&#x201a;" horiz-adv-x="589" d="M106 -158q16 25 49 56.5t78 74.5q39 -31 62 -30q37 0 52 29.5t15 74.5q0 6 -25.5 7t-45.5 1q-18 0 -32 -3t-63 -3q-8 47 -11 94t-3 97q0 67 6 139q98 18 150 18h66.5t66 -4t53.5 -15t27 -34q6 -45 12 -86t6 -111q0 -80 -16.5 -148.5t-51 -119.5t-87 -80.5t-121.5 -29.5 q-100 0 -187 73z" />
<glyph unicode="&#x201c;" horiz-adv-x="970" d="M70 1151q0 92 13 175t45 146.5t86 101.5t134 38q98 0 195 -78q-16 -27 -50 -56.5t-83 -70.5q-33 33 -58 33q-37 0 -53 -29t-16 -76q-2 -6 22.5 -7t44.5 -3q16 0 25.5 2t32.5 2h41q4 -41 7 -82t3 -82q0 -43 -3 -84t-7 -82q-55 -12 -93 -12q-51 0 -100 2t-100 4 q-57 2 -71.5 48t-14.5 110zM500 1126q0 96 11 184.5t41 155t84 106.5t140 40q100 0 197 -78q-18 -25 -51 -55.5t-82 -73.5q-35 35 -60 35q-35 0 -52 -30t-17 -75q0 -6 24.5 -8t42.5 -2q27 0 42.5 2t56.5 2q4 -41 8 -83t4 -83t-4 -82l-8 -82q-31 -6 -53.5 -8t-42 -4t-40 -2 h-45.5q-63 0 -101 6t-59.5 21.5t-28.5 43t-7 70.5z" />
<glyph unicode="&#x201d;" horiz-adv-x="966" d="M18 1022q18 25 50 56.5t79 74.5q37 -31 62 -31q35 0 51 30t16 75q0 6 -25.5 7t-45.5 1q-10 0 -17.5 -1t-16.5 -2t-23.5 -2t-38.5 -1q-8 47 -11.5 94t-3.5 94q0 70 6 142q49 8 87 12t63 4q35 0 72.5 -2t68.5 -7t51.5 -15.5t22.5 -26.5q6 -45 11 -87t5 -110 q0 -80 -16 -149.5t-50 -119.5t-86.5 -80t-121.5 -30q-100 0 -189 74zM449 1030q16 25 48.5 56.5t77.5 74.5q39 -31 62 -31q37 0 52.5 30t15.5 75q0 6 -25 7t-47 1q-18 0 -31.5 -3t-62.5 -3q-8 47 -11.5 94t-3.5 96q0 68 6 140q49 8 86 13t64 5q35 0 73 -1t68.5 -7t51 -16.5 t22.5 -28.5q6 -45 11 -86t5 -111q0 -80 -16 -148.5t-51 -119.5t-87 -81t-122 -30q-98 0 -186 74z" />
<glyph unicode="&#x201e;" horiz-adv-x="1015" d="M106 -158q16 25 49 56.5t78 74.5q39 -31 62 -30q37 0 52 29.5t15 74.5q0 6 -25.5 7t-45.5 1q-18 0 -32 -3t-63 -3q-8 47 -11 94t-3 97q0 67 6 139q98 18 150 18h66.5t66 -4t53.5 -15t27 -34q6 -45 12 -86t6 -111q0 -80 -16.5 -148.5t-51 -119.5t-87 -80.5t-121.5 -29.5 q-100 0 -187 73zM540 -158q16 25 49 56.5t78 74.5q39 -31 62 -30q37 0 52 29.5t15 74.5q0 6 -25.5 7t-45.5 1q-18 0 -32 -3t-63 -3q-8 47 -11 94t-3 97q0 67 6 139q98 18 150 18h66.5t66 -4t53.5 -15t27 -34q6 -45 12 -86t6 -111q0 -80 -16.5 -148.5t-51 -119.5t-87 -80.5 t-121.5 -29.5q-100 0 -187 73z" />
<glyph unicode="&#x2022;" horiz-adv-x="1296" d="M291 657q2 88 16.5 150.5t52 103.5t104 63.5t173.5 33.5q344 0 344 -359q0 -336 -350 -336q-340 0 -340 344z" />
<glyph unicode="&#x2026;" horiz-adv-x="1550" d="M141 215q0 20 1 57t3 58q80 16 131 21t86 5q47 0 76 -6t66 -10q4 -55 8 -91t4 -79q0 -29 -4.5 -68t-14.5 -94q-86 -4 -152.5 -6t-117.5 -2h-38.5t-35.5 2q-8 68 -10 119t-2 94zM641 215q0 20 1 57t3 58q80 16 131 21t86 5q47 0 76 -6t66 -10q4 -55 8 -91t4 -79 q0 -29 -4.5 -68t-14.5 -94q-86 -4 -152.5 -6t-117.5 -2h-38.5t-35.5 2q-8 68 -10 119t-2 94zM1145 215q0 20 1 57t3 58q80 16 131 21t86 5q47 0 76 -6t66 -10q4 -55 8 -91t4 -79q0 -29 -4.5 -68t-14.5 -94q-86 -4 -152.5 -6t-117.5 -2h-38.5t-35.5 2q-8 68 -10 119t-2 94z " />
<glyph unicode="&#x202f;" horiz-adv-x="378" />
<glyph unicode="&#x2039;" horiz-adv-x="743" d="M74 702q86 43 150.5 82t117.5 81t101.5 87t101.5 101q18 -96 33.5 -143.5t44.5 -73.5l14 -37q-84 -45 -164 -95.5t-194 -91.5q90 -43 161.5 -97t149.5 -112l61 -45q-31 -53 -64.5 -99t-62.5 -105q-94 94 -150.5 143t-99.5 81t-85 57.5t-105 70.5v39q0 18 -1 29.5t-2 25.5 t-3 36.5t-4 65.5z" />
<glyph unicode="&#x203a;" horiz-adv-x="743" d="M63 805q49 49 70 105.5t37 142.5q76 -74 128 -122t100 -83t103.5 -67.5t135.5 -75.5l-6 -199q-63 -47 -104.5 -72.5t-84.5 -56.5t-100 -80t-152 -143q-23 45 -37 67.5t-26 41t-26.5 37.5t-34.5 58q88 68 175 134.5t185 119.5q-109 43 -191.5 94.5t-171.5 98.5z" />
<glyph unicode="&#x205f;" horiz-adv-x="473" />
<glyph unicode="&#x20ac;" horiz-adv-x="1269" d="M37 950l110 -14q47 236 194.5 356.5t422.5 120.5q125 0 212 -30.5t167 -106.5l-139 -227q-84 121 -250 120q-147 0 -224 -61t-118 -174q41 -4 85 -4h87h107h102.5t85 1t57.5 5l-119 -191h-432v-129q8 2 16.5 2h16.5h323l-120 -196l-189 8q37 -98 105.5 -152.5 t179.5 -54.5q182 0 274 111l199 -166q-150 -186 -451 -186q-254 0 -390 110.5t-189 323.5q-2 -2 -25 -2q-61 0 -65 -4q-2 33 -5.5 60.5t-6.5 52t-7 51t-8 59.5q18 -4 37.5 -9.5t48.5 -5.5v115q-14 0 -28.5 -3t-34.5 -3q0 68 -6.5 117t-22.5 106z" />
<glyph unicode="&#x2122;" horiz-adv-x="1538" d="M74 1159q0 23 1 71t3 134q221 -4 414.5 -7t373.5 -3q43 -123 88 -226.5t97 -207.5q41 88 83 195.5t85 236.5q35 4 56 6t34 2q27 0 54.5 -2t70.5 -15q-2 -43 -3 -90t-2.5 -92t-1.5 -85v-70q0 -104 6.5 -197.5t20.5 -198.5q-37 0 -66.5 1t-60.5 1q-29 0 -53.5 -1t-44.5 -1 q4 88 6 175t4 147q-41 -78 -68.5 -162t-48.5 -170q-80 6 -166 6q-33 119 -63.5 197t-67.5 151q0 -86 3 -164.5t16 -177.5h-215q4 61 8 121t7 125.5t5 139t2 163.5q-29 4 -75 5t-111 3q0 -43 -1 -90t-1 -100q0 -68 1 -108t3 -74.5t5 -74.5t5 -106l-217 -6q6 43 10 77t5 67.5 t2.5 76.5t1.5 105q0 47 -1.5 104.5t-1.5 128.5q-45 0 -91 -1t-111 -9z" />
<glyph unicode="&#xe000;" horiz-adv-x="1208" d="M0 0v1208h1208v-1208h-1208z" />
</font>
</defs>
</svg>
